<svg width="159" height="107" viewBox="0 0 159 107" fill="none" xmlns="http://www.w3.org/2000/svg">
<rect y="58.7982" width="158.66" height="47.598" rx="8.81445" fill="url(#paint0_linear_3_26)" fill-opacity="0.9"/>
<rect x="0.220361" y="59.0186" width="158.219" height="47.1573" rx="8.59408" stroke="url(#paint1_linear_3_26)" stroke-opacity="0.9" stroke-width="0.440722"/>
<path d="M16.0597 68.9349C15.8504 69.1442 15.5365 69.772 15.5365 70.3999V94.6776C15.5365 95.3055 15.7458 95.9334 16.0597 96.1427L16.1644 96.2473L29.7683 82.6434V82.4341L16.0597 68.9349Z" fill="url(#paint2_linear_3_26)"/>
<path d="M34.3726 87.2479L29.8729 82.7482V82.5389L34.3726 78.0391H34.4773L39.9188 81.0738C41.3839 81.911 41.3839 83.376 39.9188 84.2132L34.3726 87.2479Z" fill="url(#paint3_linear_3_26)"/>
<path d="M34.4773 87.1432L29.7682 82.4342L16.0597 96.1428C16.5829 96.666 17.4201 96.7706 18.3619 96.2474L34.4773 87.1432Z" fill="url(#paint4_linear_3_26)"/>
<path d="M34.4773 77.9344L18.3619 68.7256C17.5247 68.2023 16.5829 68.2023 16.0597 68.8302L29.7682 82.5388L34.4773 77.9344Z" fill="url(#paint5_linear_3_26)"/>
<path opacity="0.2" d="M34.3727 87.1434L18.362 96.2475C17.5248 96.7707 16.6877 96.7707 16.2691 96.2475L16.1644 96.3522L16.2691 96.4568C16.7923 96.98 17.5248 96.98 18.362 96.4568L34.3727 87.1434Z" fill="black" fill-opacity="0.2"/>
<path opacity="0.12" d="M16.0597 96.143C15.8504 95.7244 15.5365 95.3058 15.5365 94.6779V94.7826C15.5365 95.4105 15.7458 96.0383 16.0597 96.2476V96.143ZM39.9189 84.0041L34.3727 87.1435L34.4773 87.2481L39.9189 84.2134C40.6514 83.7948 41.07 83.1669 41.07 82.5391C40.9653 83.1669 40.5468 83.5855 39.9189 84.0041Z" fill="black" fill-opacity="0.2"/>
<path opacity="0.25" d="M18.3621 69.0397L39.8144 81.2832C40.547 81.7018 40.9655 82.1204 40.9655 82.6436C40.9655 82.0157 40.547 81.4925 39.8144 80.9693L18.3621 68.7258C16.8971 67.8886 15.6414 68.6211 15.6414 70.4001V70.5047C15.5367 68.7258 16.8971 68.0979 18.3621 69.0397Z" fill="white"/>
<path d="M56.5818 71.0802C56.5818 71.9174 56.3725 72.7545 55.7446 73.2777C55.1167 73.9056 54.3842 74.3242 53.3378 74.3242C52.2913 74.3242 51.5588 73.9056 50.9309 73.2777C50.303 72.6499 49.8845 71.8127 49.8845 70.8709C49.8845 69.8244 50.303 69.0919 50.9309 68.4641C51.5588 67.8362 52.3959 67.4176 53.3378 67.4176C53.861 67.4176 54.1749 67.5222 54.6981 67.6269C55.1167 67.7315 55.4307 68.0455 55.7446 68.3594L55.1167 68.9873C54.6981 68.4641 54.0703 68.2548 53.3378 68.2548C52.6052 68.2548 52.082 68.4641 51.5588 68.9873C51.0356 69.5105 50.8263 70.1384 50.8263 70.8709C50.8263 71.6034 51.0356 72.2313 51.5588 72.7545C52.082 73.2777 52.7099 73.487 53.3378 73.487C54.0703 73.487 54.6981 73.2777 55.2214 72.7545C55.64 72.3359 55.7446 72.022 55.7446 71.3941H53.3378V70.557H56.4771C56.5818 70.8709 56.5818 70.9755 56.5818 71.0802ZM61.6047 68.4641H58.57V70.6616H61.3955V71.2895H58.57V73.3824H61.6047V74.1149H57.7329V67.5222H61.6047V68.4641ZM65.2673 74.1149H64.4302V68.4641H62.5466V67.6269H67.0463V68.3594H65.1627V74.2196H65.2673V74.1149ZM70.2903 74.1149V67.5222H71.1275V74.1149H70.2903ZM74.9994 74.1149H74.1622V68.4641H72.3832V67.6269H76.883V68.3594H74.9994V74.1149ZM85.4639 73.3824C84.836 74.0103 83.9989 74.4288 83.0571 74.4288C82.0106 74.4288 81.2781 74.0103 80.6502 73.3824C80.0223 72.7545 79.6038 71.9173 79.6038 70.9755C79.6038 70.1384 80.0223 69.1966 80.6502 68.5687C81.1734 67.8362 82.0106 67.4176 82.9524 67.4176C83.9989 67.4176 84.7314 67.8362 85.3593 68.4641C85.9871 69.0919 86.4057 69.9291 86.4057 70.8709C86.4057 71.8127 86.0918 72.5452 85.4639 73.3824ZM81.1734 72.7545C81.6967 73.2777 82.3245 73.487 82.9524 73.487C83.5803 73.487 84.2082 73.2777 84.7314 72.7545C85.2546 72.2313 85.4639 71.6034 85.4639 70.8709C85.4639 70.1384 85.2546 69.5105 84.7314 68.9873C84.2082 68.4641 83.5803 68.2548 82.9524 68.2548C82.3245 68.2548 81.6967 68.4641 81.1734 68.9873C80.6502 69.5105 80.4409 70.1384 80.4409 70.8709C80.4409 71.6034 80.6502 72.2313 81.1734 72.7545ZM87.6615 74.1149V67.5222H88.7079L91.8473 72.7545V67.5222H92.6844V74.1149H91.8473L88.394 68.6733V74.1149H87.6615Z" fill="white" stroke="white" stroke-width="0.212693" stroke-miterlimit="10"/>
<path d="M79.813 84.0683C77.1969 84.0683 75.104 86.0566 75.104 88.7774C75.104 91.3935 77.1969 93.4864 79.813 93.4864C82.4292 93.4864 84.5221 91.4982 84.5221 88.7774C84.5221 85.9519 82.3245 84.0683 79.813 84.0683ZM79.813 91.4982C78.4527 91.4982 77.1969 90.3471 77.1969 88.6727C77.1969 86.9984 78.4527 85.8473 79.813 85.8473C81.1734 85.8473 82.4292 86.9984 82.4292 88.6727C82.5338 90.3471 81.1734 91.4982 79.813 91.4982ZM69.6624 84.0683C67.0463 84.0683 64.9534 86.0566 64.9534 88.7774C64.9534 91.3935 67.0463 93.4864 69.6624 93.4864C72.2786 93.4864 74.3715 91.4982 74.3715 88.7774C74.2668 85.9519 72.1739 84.0683 69.6624 84.0683ZM69.6624 91.4982C68.3021 91.4982 67.0463 90.3471 67.0463 88.6727C67.0463 86.9984 68.3021 85.8473 69.6624 85.8473C71.0228 85.8473 72.2786 86.9984 72.2786 88.6727C72.2786 90.3471 71.0228 91.4982 69.6624 91.4982ZM57.4189 85.4287V87.417H62.2326C62.128 88.5681 61.7094 89.3006 61.0815 89.9285C60.4536 90.5563 59.3025 91.3935 57.4189 91.3935C54.4889 91.3935 52.2913 88.9867 52.2913 86.0566C52.2913 83.1265 54.5935 80.7197 57.4189 80.7197C59.0933 80.7197 60.2444 81.3475 60.9769 82.0801L62.3373 80.7197C61.1862 79.7779 59.5118 78.8361 57.2096 78.8361C53.1285 78.8361 49.8845 82.0801 49.8845 86.1612C49.8845 90.2424 53.3378 93.4864 57.2096 93.4864C59.3025 93.4864 60.9769 92.7539 62.2326 91.4982C63.4884 90.2424 64.0116 88.3588 64.0116 86.7891C64.0116 86.2659 64.0116 85.952 63.9069 85.5334L57.4189 85.4287ZM107.23 86.9984C106.812 85.952 105.765 84.0683 103.358 84.0683C100.951 84.0683 98.9632 85.9519 98.9632 88.7774C98.9632 91.3935 100.951 93.4864 103.672 93.4864C105.765 93.4864 107.126 92.2307 107.544 91.4982L105.87 90.4517C105.347 91.1842 104.614 91.7074 103.568 91.7074C102.521 91.7074 101.789 91.1842 101.265 90.3471L107.544 87.7309L107.23 86.9984ZM100.951 88.5681C100.951 86.7891 102.312 85.7427 103.358 85.7427C104.091 85.7427 104.823 86.1612 105.137 86.7891L100.951 88.5681ZM95.7192 93.1725H97.7074V79.3593H95.7192V93.1725ZM92.4751 85.1148C91.9519 84.5916 91.1148 84.0683 89.9637 84.0683C87.5568 84.0683 85.4639 86.0566 85.4639 88.7774C85.4639 91.3935 87.5568 93.4864 89.9637 93.4864C91.1148 93.4864 91.9519 92.9632 92.4751 92.44H92.5798V93.0678C92.5798 94.8468 91.5333 95.8933 90.0683 95.8933C88.8126 95.8933 88.08 95.0561 87.6615 94.2189L85.8825 94.9515C86.4057 96.2072 87.7661 97.7769 90.0683 97.7769C92.4751 97.7769 94.4634 96.4165 94.4634 92.8585V84.3823H92.5798L92.4751 85.1148ZM90.0683 91.4982C88.7079 91.4982 87.4522 90.3471 87.4522 88.6727C87.4522 86.9984 88.6033 85.7427 90.0683 85.7427C91.4287 85.7427 92.5798 86.9984 92.5798 88.6727C92.5798 90.3471 91.4287 91.4982 90.0683 91.4982ZM116.962 79.3593H112.044V93.1725H114.032V87.8356H116.962C119.264 87.8356 121.462 86.1612 121.462 83.5451C121.462 80.929 119.16 79.3593 116.962 79.3593ZM116.962 85.952H114.032V81.2429H116.962C118.427 81.2429 119.369 82.4986 119.369 83.6497C119.264 84.6962 118.427 85.952 116.962 85.952ZM129.624 84.0683C128.159 84.0683 126.59 84.6962 125.962 86.2659L127.741 86.9984C128.159 86.2659 128.892 85.952 129.624 85.952C130.671 85.952 131.717 86.5798 131.717 87.7309V87.8356C131.299 87.6263 130.566 87.3123 129.624 87.3123C127.636 87.3123 125.752 88.4634 125.752 90.4517C125.752 92.3353 127.427 93.4864 129.206 93.4864C130.566 93.4864 131.299 92.8585 131.822 92.126H131.926V93.1725H133.915V87.8356C133.81 85.3241 131.926 84.0683 129.624 84.0683ZM129.415 91.4982C128.787 91.4982 127.741 91.0796 127.741 90.3471C127.741 89.3006 128.892 88.882 129.834 88.882C130.671 88.882 131.194 89.0913 131.717 89.4052C131.717 90.661 130.566 91.4982 129.415 91.4982ZM141.031 84.2776L138.624 90.2424H138.519L136.112 84.2776H133.81L137.473 92.6493L135.38 97.3583H137.473L143.124 84.3823H141.031V84.2776ZM122.613 93.1725H124.601V79.3593H122.613V93.1725Z" fill="white"/>
<rect width="158.66" height="47.598" rx="8.81445" fill="url(#paint6_linear_3_26)" fill-opacity="0.9"/>
<rect x="0.220361" y="0.220361" width="158.219" height="47.1573" rx="8.59408" stroke="url(#paint7_linear_3_26)" stroke-opacity="0.9" stroke-width="0.440722"/>
<path d="M40.1521 24.4792C40.1521 21.4445 42.6636 19.8748 42.7683 19.8748C41.4079 17.8865 39.1057 17.4679 38.3731 17.4679C36.4895 17.2586 34.7106 18.619 33.8734 18.619C32.8269 18.619 31.4665 17.4679 29.7922 17.5726C27.804 17.5726 25.9203 18.7237 24.8739 20.6073C22.781 24.2699 24.3507 29.7115 26.3389 32.7462C27.3854 34.3158 28.6411 35.7809 30.1062 35.7809C31.5712 35.6762 32.1991 34.7344 33.978 34.7344C35.757 34.7344 36.3849 35.7809 37.8499 35.5716C39.5242 35.5716 40.4661 34.0019 41.5125 32.6415C42.6636 30.9672 43.1868 29.3975 43.1868 29.1882C43.2915 29.3975 40.1521 28.1418 40.1521 24.4792Z" fill="white"/>
<path d="M37.1174 15.5844C37.9546 14.5379 38.4778 13.1775 38.3732 11.8171C37.2221 11.8171 35.757 12.6543 34.8152 13.5961C34.0827 14.4333 33.4548 16.003 33.5595 17.2587C34.9199 17.3633 36.3849 16.6308 37.1174 15.5844Z" fill="white"/>
<path d="M60.6894 30.7056H55.5618L54.306 34.3682H52.0038L57.0268 20.6596H59.329L64.2474 34.3682H61.9452L60.6894 30.7056ZM55.9804 28.9266H60.1662L58.1779 22.8572L55.9804 28.9266ZM74.9212 29.4498C74.9212 32.5892 73.2469 34.4728 70.7354 34.4728C69.375 34.4728 68.2239 33.8449 67.596 32.6938V37.6122H65.6077V24.3222H67.596V25.9965C68.2239 24.9501 69.375 24.2176 70.7354 24.2176C73.1422 24.2176 74.9212 26.2058 74.9212 29.4498ZM72.8283 29.4498C72.8283 27.4616 71.7818 25.9965 70.2121 25.9965C68.7471 25.9965 67.596 27.3569 67.596 29.4498C67.596 31.5427 68.6425 32.9031 70.2121 32.9031C71.7818 32.6938 72.8283 31.4381 72.8283 29.4498ZM85.909 29.4498C85.909 32.5892 84.2346 34.4728 81.7231 34.4728C80.3627 34.4728 79.2116 33.8449 78.5838 32.6938V37.6122H76.5955V24.3222H78.4791V25.9965C79.107 24.9501 80.2581 24.2176 81.6185 24.2176C84.13 24.2176 85.909 26.2058 85.909 29.4498ZM83.7114 29.4498C83.7114 27.4616 82.6649 25.9965 81.0953 25.9965C79.6302 25.9965 78.4791 27.3569 78.4791 29.4498C78.4791 31.5427 79.5256 32.9031 81.0953 32.9031C82.7696 32.6938 83.7114 31.4381 83.7114 29.4498ZM93.0248 30.4963C93.1295 31.8567 94.4899 32.7985 96.2689 32.7985C98.0478 32.7985 99.3036 31.9613 99.3036 30.6009C99.3036 29.5545 98.5711 28.9266 96.7921 28.4034L95.0131 27.9848C92.5016 27.3569 91.3505 26.2058 91.3505 24.3222C91.3505 21.9154 93.3388 20.241 96.2689 20.241C99.1989 20.241 101.187 21.9154 101.187 24.3222H99.1989C99.0943 22.9618 97.9432 22.1247 96.2689 22.1247C94.5945 22.1247 93.5481 22.9618 93.5481 24.1129C93.5481 25.1594 94.2806 25.6826 96.0596 26.1012L97.5246 26.5198C100.245 27.1476 101.396 28.2987 101.396 30.287C101.396 32.7985 99.4082 34.4728 96.0596 34.4728C93.0248 34.4728 91.0366 32.9031 90.9319 30.3916C91.0366 30.7056 93.0248 30.4963 93.0248 30.4963ZM105.896 22.02V24.4268H107.78V25.9965H105.896V31.5427C105.896 32.3799 106.315 32.7985 107.152 32.7985H107.78V34.4728C107.571 34.4728 107.152 34.5775 106.629 34.5775C104.64 34.5775 103.908 33.8449 103.908 31.9613V25.9965H102.443V24.3222H103.803V21.9154L105.896 22.02ZM108.826 29.4498C108.826 26.3105 110.71 24.4268 113.535 24.4268C116.465 24.4268 118.244 26.4151 118.244 29.4498C118.244 32.5892 116.361 34.4728 113.535 34.4728C110.71 34.4728 108.826 32.5892 108.826 29.4498ZM116.256 29.4498C116.256 27.2523 115.21 25.9965 113.64 25.9965C111.966 25.9965 111.024 27.2523 111.024 29.4498C111.024 31.6474 112.07 32.9031 113.64 32.9031C115.21 32.7985 116.256 31.5427 116.256 29.4498ZM120.023 24.3222H121.907V25.9965C122.116 24.8454 123.163 24.2176 124.314 24.2176C124.523 24.2176 124.837 24.2176 125.046 24.3222V26.2058C124.942 26.1012 124.523 26.1012 124.209 26.1012C122.953 26.1012 122.116 26.9383 122.116 28.4034V34.3682H120.128C120.023 34.3682 120.023 24.3222 120.023 24.3222ZM134.569 31.4381C134.36 33.2171 132.581 34.4728 130.279 34.4728C127.349 34.4728 125.57 32.5892 125.57 29.4498C125.57 26.3105 127.349 24.2176 130.279 24.2176C132.999 24.2176 134.778 26.1012 134.778 29.1359V29.8684H127.558V30.0777C127.558 31.8567 128.604 32.9031 130.174 32.9031C131.325 32.9031 132.162 32.3799 132.476 31.5427C132.476 31.4381 134.569 31.4381 134.569 31.4381ZM127.558 28.4034H132.581C132.581 26.8337 131.534 25.8919 130.174 25.8919C128.709 25.8919 127.767 26.8337 127.558 28.4034ZM55.7711 10.2997C57.6547 10.2997 58.9104 11.4508 58.9104 13.5437C58.9104 15.6366 57.7593 16.7877 55.7711 16.7877H53.3642V10.1951H55.7711V10.2997ZM54.5153 15.9506H55.7711C57.1315 15.9506 57.864 15.1134 57.864 13.5437C57.864 11.974 57.1315 11.1369 55.7711 11.1369H54.5153V15.9506ZM60.0615 14.4855C60.0615 12.8112 60.8987 11.974 62.4684 11.974C63.8288 11.974 64.8752 13.0205 64.8752 14.4855C64.8752 16.1599 64.0381 16.997 62.4684 16.997C60.8987 16.997 60.0615 15.9506 60.0615 14.4855ZM63.7241 14.4855C63.7241 13.3344 63.2009 12.7066 62.3637 12.7066C61.5266 12.7066 61.0033 13.3344 61.0033 14.4855C61.0033 15.6366 61.5266 16.2645 62.3637 16.2645C63.2009 16.0552 63.7241 15.4273 63.7241 14.4855ZM70.84 16.8924H69.7936L68.7471 13.2298H68.6425L67.596 16.8924H66.5496L65.1892 11.974H66.2356L67.0728 15.7413H67.1774L68.2239 11.974H69.061L70.1075 15.7413H70.2121L71.0493 11.974H72.0958C72.3051 11.974 70.84 16.8924 70.84 16.8924ZM73.4562 11.974H74.2933V12.7066H74.398C74.6073 12.1833 75.1305 11.8694 75.863 11.8694C77.0141 11.8694 77.642 12.4973 77.642 13.753V16.8924H76.5955V13.8577C76.5955 13.1251 76.1769 12.7066 75.5491 12.7066C74.8165 12.7066 74.398 13.2298 74.398 13.9623V16.8924H73.2469C73.4562 16.8924 73.4562 11.974 73.4562 11.974ZM79.2117 9.98578H80.2581V16.997H79.2117V9.98578ZM81.5139 14.4855C81.5139 12.8112 82.351 11.974 83.9207 11.974C85.2811 11.974 86.3275 13.0205 86.3275 14.4855C86.3275 16.1599 85.4904 16.997 83.9207 16.997C82.4557 16.997 81.5139 15.9506 81.5139 14.4855ZM85.2811 14.4855C85.2811 13.3344 84.7579 12.7066 83.9207 12.7066C83.0835 12.7066 82.5603 13.3344 82.5603 14.4855C82.5603 15.6366 83.0835 16.2645 83.9207 16.2645C84.7579 16.0552 85.2811 15.4273 85.2811 14.4855ZM87.2693 15.4273C87.2693 14.5902 87.8972 14.067 89.153 13.8577L90.5134 13.753V13.3344C90.5134 12.8112 90.0948 12.6019 89.4669 12.6019C88.9437 12.6019 88.6297 12.8112 88.4204 13.1251H87.374C87.4786 12.288 88.2112 11.7648 89.3623 11.7648C90.618 11.7648 91.2459 12.3926 91.2459 13.4391V16.8924H90.4087V16.1599H90.3041C90.0948 16.6831 89.4669 16.8924 88.839 16.8924C87.8972 16.997 87.2693 16.3692 87.2693 15.4273ZM90.4087 15.1134V14.6948L89.153 14.7995C88.5251 14.7995 88.1065 15.0088 88.1065 15.532C88.1065 16.0552 88.5251 16.2645 88.9437 16.2645C89.8855 16.0552 90.4087 15.7413 90.4087 15.1134ZM92.7109 14.4855C92.7109 12.9158 93.4434 11.974 94.6992 11.974C95.327 11.974 95.9549 12.3926 96.1642 12.8112H96.2689V9.98578H97.3153V16.997H96.4781V16.2645H96.3735C96.1642 16.7877 95.5363 17.1017 94.9085 17.1017C93.4434 16.997 92.7109 15.9506 92.7109 14.4855ZM93.6527 14.4855C93.6527 15.532 94.1759 16.1599 95.0131 16.1599C95.8503 16.1599 96.3735 15.532 96.3735 14.4855C96.3735 13.4391 95.8503 12.8112 95.0131 12.8112C94.1759 12.7066 93.6527 13.3344 93.6527 14.4855ZM101.396 14.4855C101.396 12.8112 102.234 11.974 103.803 11.974C105.164 11.974 106.21 13.0205 106.21 14.4855C106.21 16.1599 105.373 16.997 103.803 16.997C102.234 16.997 101.396 15.9506 101.396 14.4855ZM105.059 14.4855C105.059 13.3344 104.536 12.7066 103.699 12.7066C102.862 12.7066 102.338 13.3344 102.338 14.4855C102.338 15.6366 102.862 16.2645 103.699 16.2645C104.536 16.0552 105.059 15.4273 105.059 14.4855ZM107.257 11.974H108.094V12.7066H108.198C108.408 12.1833 108.931 11.8694 109.663 11.8694C110.815 11.8694 111.442 12.4973 111.442 13.753V16.8924H110.396V13.8577C110.396 13.1251 109.977 12.7066 109.35 12.7066C108.617 12.7066 108.198 13.2298 108.198 13.9623V16.8924H107.152L107.257 11.974ZM116.989 10.6137V11.8694H118.14V12.7066H116.989V15.2181C116.989 15.7413 117.198 15.9506 117.721 15.9506H118.14V16.6831H117.617C116.465 16.6831 116.151 16.2645 116.151 15.3227V12.7066H115.419V11.8694H116.151V10.6137H116.989ZM119.5 9.98578H120.547V12.8112H120.651C120.861 12.288 121.384 11.974 122.116 11.974C123.163 11.974 123.895 12.6019 123.895 13.8577V16.997H122.849V14.067C122.849 13.3344 122.43 12.9158 121.802 12.9158C121.07 12.9158 120.547 13.4391 120.547 14.1716V17.1017H119.5C119.605 17.1017 119.5 9.98578 119.5 9.98578ZM129.441 15.6366C129.232 16.4738 128.395 16.997 127.349 16.997C125.988 16.997 125.046 15.9506 125.046 14.4855C125.046 12.8112 125.884 11.8694 127.349 11.8694C128.709 11.8694 129.651 12.7066 129.651 14.3809V14.7995H126.093C126.093 15.6366 126.616 16.1599 127.349 16.1599C127.976 16.1599 128.395 15.9506 128.5 15.532C128.5 15.4273 129.441 15.6366 129.441 15.6366ZM125.988 13.9623H128.5C128.5 13.2298 127.976 12.7066 127.244 12.7066C126.616 12.7066 126.093 13.2298 125.988 13.9623Z" fill="white"/>
<defs>
<linearGradient id="paint0_linear_3_26" x1="30.221" y1="58.7982" x2="151.999" y2="133.417" gradientUnits="userSpaceOnUse">
<stop stop-color="white" stop-opacity="0.02"/>
<stop offset="1" stop-color="white" stop-opacity="0.1"/>
</linearGradient>
<linearGradient id="paint1_linear_3_26" x1="30.221" y1="58.7982" x2="151.999" y2="133.417" gradientUnits="userSpaceOnUse">
<stop stop-color="white" stop-opacity="0.5"/>
<stop offset="1" stop-color="white" stop-opacity="0.1"/>
</linearGradient>
<linearGradient id="paint2_linear_3_26" x1="28.6278" y1="70.1515" x2="10.1701" y2="88.6094" gradientUnits="userSpaceOnUse">
<stop stop-color="#00A0FF"/>
<stop offset="0.007" stop-color="#00A1FF"/>
<stop offset="0.26" stop-color="#00BEFF"/>
<stop offset="0.512" stop-color="#00D2FF"/>
<stop offset="0.76" stop-color="#00DFFF"/>
<stop offset="1" stop-color="#00E3FF"/>
</linearGradient>
<linearGradient id="paint3_linear_3_26" x1="41.8648" y1="82.6274" x2="15.2536" y2="82.6274" gradientUnits="userSpaceOnUse">
<stop stop-color="#FFE000"/>
<stop offset="0.409" stop-color="#FFBD00"/>
<stop offset="0.775" stop-color="#FFA500"/>
<stop offset="1" stop-color="#FF9C00"/>
</linearGradient>
<linearGradient id="paint4_linear_3_26" x1="31.9257" y1="85.0633" x2="6.8961" y2="110.093" gradientUnits="userSpaceOnUse">
<stop stop-color="#FF3A44"/>
<stop offset="1" stop-color="#C31162"/>
</linearGradient>
<linearGradient id="paint5_linear_3_26" x1="12.6545" y1="60.7927" x2="23.8311" y2="71.9705" gradientUnits="userSpaceOnUse">
<stop stop-color="#32A071"/>
<stop offset="0.069" stop-color="#2DA771"/>
<stop offset="0.476" stop-color="#15CF74"/>
<stop offset="0.801" stop-color="#06E775"/>
<stop offset="1" stop-color="#00F076"/>
</linearGradient>
<linearGradient id="paint6_linear_3_26" x1="30.221" y1="4.20855e-06" x2="151.999" y2="74.6187" gradientUnits="userSpaceOnUse">
<stop stop-color="white" stop-opacity="0.02"/>
<stop offset="1" stop-color="white" stop-opacity="0.1"/>
</linearGradient>
<linearGradient id="paint7_linear_3_26" x1="30.221" y1="4.20855e-06" x2="151.999" y2="74.6187" gradientUnits="userSpaceOnUse">
<stop stop-color="white" stop-opacity="0.5"/>
<stop offset="1" stop-color="white" stop-opacity="0.1"/>
</linearGradient>
</defs>
</svg>
