<svg width="40" height="41" viewBox="0 0 40 41" fill="none" xmlns="http://www.w3.org/2000/svg">
<path d="M36.6667 18.9545V11.9545C36.6667 6.12118 34.3333 3.78784 28.5 3.78784H21.5C15.6667 3.78784 13.3333 6.12118 13.3333 11.9545V13.7878H18.5C24.3333 13.7878 26.6667 16.1212 26.6667 21.9545V27.1212H28.5C34.3333 27.1212 36.6667 24.7878 36.6667 18.9545Z" stroke="#486AB5" stroke-width="2" stroke-linecap="round" stroke-linejoin="round"/>
<path d="M26.6667 28.9545V21.9545C26.6667 16.1212 24.3333 13.7878 18.5 13.7878H11.5C5.66666 13.7878 3.33333 16.1212 3.33333 21.9545V28.9545C3.33333 34.7878 5.66666 37.1212 11.5 37.1212H18.5C24.3333 37.1212 26.6667 34.7878 26.6667 28.9545Z" stroke="#486AB5" stroke-width="2" stroke-linecap="round" stroke-linejoin="round"/>
<path d="M10.1335 25.4546L13.3835 28.7046L19.8668 22.2046" stroke="#486AB5" stroke-width="2" stroke-linecap="round" stroke-linejoin="round"/>
</svg>
