<svg width="112" height="62" viewBox="0 0 112 62" fill="none" xmlns="http://www.w3.org/2000/svg">
<path d="M63.5 0.00088501C67.3073 0.00088501 71.1145 0.00088501 74.9218 0.00088501C75.682 0.889127 76.4404 1.77915 77.2024 2.66561C78.2107 3.83749 79.2243 5.0058 80.2335 6.17679C81.5547 7.71054 82.8724 9.24696 84.1937 10.7807C85.2028 11.9526 86.2164 13.1209 87.2256 14.2919C88.4579 15.7216 89.6885 17.1531 90.919 18.5837C91.7317 19.5289 92.5426 20.4767 93.357 21.4209C94.0915 22.2727 94.8277 23.121 95.5994 24.0128C95.5994 23.8723 95.5994 23.7816 95.5994 23.6909C95.5994 16.4712 95.5994 9.25052 95.5994 2.03077C95.5994 1.35414 95.6021 0.677514 95.603 0.00088501C100.799 0.00088501 105.996 0.00088501 111.192 0.00088501C111.193 0.129809 111.196 0.257844 111.196 0.386768C111.193 14.2821 111.189 28.1766 111.187 42.0719C111.187 45.7467 111.187 49.4223 111.197 53.0971C111.197 53.3434 111.136 53.4092 110.888 53.4083C107.356 53.4003 103.822 53.3959 100.29 53.4137C99.9339 53.4154 99.7019 53.2981 99.4903 53.0473C98.8785 52.3227 98.2597 51.6043 97.6471 50.8814C96.4539 49.4748 95.2633 48.0655 94.0683 46.6598C93.0512 45.4622 92.0287 44.2672 91.0106 43.0704C89.9819 41.8603 88.9558 40.6475 87.9271 39.4365C87.1144 38.4798 86.2982 37.5249 85.4856 36.5673C84.391 35.2781 83.2992 33.987 82.2056 32.6978C81.5698 31.9491 80.9305 31.2023 80.2921 30.4554C80.2006 30.3478 80.1454 30.2385 80.1721 30.0864C80.2939 29.3964 80.3348 28.6958 80.3597 27.9996C80.3944 27.034 80.3953 26.0667 80.3375 25.0993C80.2619 23.8296 80.1028 22.5741 79.8645 21.3249C79.2919 18.3188 78.2231 15.4949 76.7116 12.8426C75.3815 10.5095 73.7393 8.41296 71.7983 6.55112C70.7047 5.50194 69.539 4.54434 68.296 3.67922C66.8449 2.66917 65.3058 1.81293 63.6894 1.09807C63.5436 1.03317 63.4805 0.962925 63.4902 0.799324C63.5062 0.534363 63.4965 0.268514 63.4982 0.00266365L63.5 0.00088501Z" fill="#5F456C"/>
<path d="M41.2328 50.9437C41.2266 51.0601 41.1244 51.061 41.0506 51.0912C39.0465 51.9057 37.0032 52.5868 34.8649 52.9602C32.9852 53.2883 31.0967 53.4208 29.1895 53.3585C26.4759 53.2696 23.8441 52.7699 21.2843 51.8746C19.3646 51.2033 17.5508 50.315 15.8339 49.2285C15.7779 49.193 15.7201 49.1183 15.6561 49.1494C15.5725 49.1894 15.617 49.2881 15.617 49.3592C15.6143 50.6093 15.6107 51.8603 15.6196 53.1105C15.6214 53.3114 15.5867 53.3905 15.3591 53.3897C10.3364 53.3825 5.31282 53.3843 0.290117 53.3834C0.214541 53.3834 0.138076 53.3683 0.0625 53.3603C0.0642783 53.2234 0.0669473 53.0865 0.0669473 52.9495C0.0669473 35.4541 0.0669473 17.9587 0.0669473 0.463233C0.0669473 0.309413 0.0660564 0.154705 0.0651673 0.00088501H15.6027V4.24649C15.7174 4.26338 15.7566 4.20914 15.8046 4.17891C17.8576 2.87545 20.0448 1.86184 22.3735 1.15764C24.2033 0.603715 26.0705 0.246285 27.9777 0.0951327C28.2764 0.0720153 28.5849 0.107581 28.8757 0.00088501H29.2874C29.3558 0.0693481 29.4438 0.0542334 29.5265 0.0542334C29.916 0.0542334 30.3045 0.0542334 30.694 0.0542334C30.7766 0.0542334 30.8647 0.0693476 30.934 0.00177365H31.3973C31.6782 0.114693 31.9788 0.0737944 32.2686 0.0960227C34.0549 0.231171 35.8038 0.560148 37.5252 1.04828C38.7237 1.38882 39.884 1.83872 41.0417 2.29395C41.1101 2.32063 41.1973 2.3233 41.2293 2.41132C40.9287 2.62115 40.5811 2.74297 40.2646 2.92257C40.0974 3.01771 39.8947 3.05505 39.7711 3.2231C39.6377 3.22843 39.5204 3.17242 39.4012 3.12529C36.8761 2.12324 34.254 1.54442 31.5431 1.40305C28.9708 1.26879 26.4261 1.49018 23.9277 2.13658C18.68 3.49428 14.2824 6.22925 10.7828 10.361C7.1062 14.7009 5.13055 19.7387 4.80957 25.4123C4.69754 27.3915 4.83358 29.3627 5.20168 31.3152C6.0099 35.6044 7.77482 39.4587 10.5845 42.7948C15.3084 48.4034 21.3483 51.4878 28.6863 51.9777C31.4622 52.1627 34.19 51.8532 36.8725 51.1215C37.7883 50.8716 38.6712 50.5249 39.5675 50.2163C39.5879 50.2066 39.6093 50.1968 39.6297 50.1879C39.6635 50.1843 39.6964 50.1808 39.7302 50.1772C40.2148 50.4671 40.7322 50.6911 41.2337 50.9463L41.2328 50.9437Z" fill="#5F456C"/>
<path d="M0.0644636 0.000888643C0.0644636 0.154708 0.0662409 0.309417 0.0662409 0.463237C0.0662409 17.9587 0.0662409 35.4541 0.0662409 52.9495C0.0662409 53.0865 0.0635718 53.2234 0.0617936 53.3603C0.0457892 53.3585 0.0288968 53.3568 0.0128925 53.355C0.0128925 35.647 0.0128932 17.9391 0.0164497 0.231173C0.0164497 0.155597 -0.0431213 0.0569044 0.0644636 0V0.000888643Z" fill="#6F717F"/>
<path d="M30.9328 0.000888643C30.8643 0.0693517 30.7763 0.0533471 30.6927 0.0533471C30.3033 0.0542362 29.9147 0.0542362 29.5253 0.0533471C29.4417 0.0533471 29.3546 0.0684631 29.2861 0H30.9328V0.000888643Z" fill="#6F717F"/>
<path d="M41.2327 50.9437C40.7312 50.6876 40.2129 50.4635 39.7292 50.1746C39.8065 50.139 39.883 50.0999 39.9613 50.067C43.9374 48.3785 47.2672 45.8392 49.9738 42.4782C50.052 42.3813 50.1534 42.296 50.1836 42.1653C50.0991 42.1004 50.0004 42.1066 49.9097 42.0915C47.7563 41.7394 45.7682 40.9658 43.9508 39.7593C42.1743 38.5794 40.7001 37.0866 39.4482 35.3696C39.3184 35.1918 39.2508 35.1474 39.0766 35.3359C38.5351 35.9227 37.926 36.4375 37.2681 36.8918C34.6558 38.6959 31.7679 39.4054 28.6151 39.0524C28.6248 38.9182 28.5608 38.807 28.5057 38.6923C28.3296 38.326 28.1171 37.9766 28.0016 37.5836C27.9847 37.5267 27.9731 37.4671 27.9491 37.4129C27.477 36.3299 27.0742 35.222 26.7425 34.0875C26.0668 31.774 25.7307 29.4089 25.6889 27.0029C25.6658 25.7003 25.7627 24.404 25.937 23.113C26.202 21.156 26.6776 19.2515 27.3747 17.4039C27.5765 16.8686 27.7935 16.3387 28.0042 15.807C27.9953 15.6878 28.0691 15.5971 28.1154 15.4976C28.2941 15.1099 28.519 14.7454 28.6684 14.3435C28.7191 14.3337 28.7689 14.3195 28.8196 14.315C32.8731 13.9674 36.33 15.2335 39.1717 18.149C39.3255 18.3072 39.3958 18.349 39.5451 18.1401C40.0439 17.4421 40.6032 16.793 41.2016 16.1769C43.3942 13.9185 45.9958 12.3785 49.0873 11.7036C49.5096 11.6112 49.9373 11.5418 50.3863 11.4574C50.325 11.3702 50.2841 11.3062 50.2378 11.2466C47.566 7.81014 44.2406 5.20765 40.2547 3.44895C40.092 3.37693 39.9124 3.33781 39.7701 3.22222C39.8928 3.05417 40.0964 3.01683 40.2636 2.92169C40.5801 2.74209 40.9277 2.62028 41.2283 2.41044C41.4879 2.45401 41.6853 2.28774 41.8978 2.19616C43.588 1.46974 45.3343 0.925592 47.1383 0.567272C48.3991 0.316537 49.6706 0.155605 50.958 0.0871422C51.7974 0.0426856 52.6376 0.0249026 53.4734 0.0631353C55.7229 0.167164 57.9333 0.527262 60.0894 1.19144C60.7225 1.38705 61.3502 1.59511 61.9664 1.83784C62.1113 1.89475 62.1762 1.96854 62.1646 2.11792C62.1611 2.1606 62.1646 2.20327 62.1646 2.24595C62.1646 8.49121 62.1646 14.7365 62.1646 20.9817V21.2929C60.1303 17.9027 57.206 15.9484 53.3089 15.5927C50.3347 15.3215 47.646 16.1591 45.3298 18.052C42.9585 19.9903 41.5866 22.5048 41.2852 25.5572C40.9758 28.6852 41.8098 31.5019 43.8654 33.8892C46.387 36.8172 49.6208 38.1366 53.4734 37.7703C57.3109 37.4049 60.1481 35.4185 62.1646 32.111V32.4231C62.1646 38.6683 62.1629 44.9136 62.17 51.1588C62.17 51.4042 62.0962 51.5083 61.865 51.5963C60.3366 52.176 58.7735 52.6179 57.1642 52.906C55.914 53.13 54.6568 53.2607 53.3871 53.3248C52.1797 53.3852 50.9829 53.3194 49.7844 53.2127C47.7865 53.0349 45.8429 52.6063 43.9419 51.9751C43.1363 51.7074 42.3432 51.406 41.5724 51.0495C41.4648 50.9997 41.3563 50.9499 41.2345 50.9454L41.2327 50.9437Z" fill="#6F717F"/>
<path d="M63.5 50.9516V2.77408C63.5 2.74829 63.5027 2.72251 63.5 2.69672C63.4698 2.46822 63.5374 2.44599 63.7419 2.54557C69.7515 5.45392 74.1278 9.94937 76.8557 16.0355C77.8666 18.2912 78.5077 20.6572 78.8384 23.1085C79.1078 25.1028 79.1621 27.1016 78.9763 29.103C78.6206 32.9218 77.5083 36.5077 75.6047 39.8437C73.4521 43.6163 70.55 46.6847 66.9196 49.0658C65.8402 49.7736 64.7137 50.3995 63.5009 50.9508L63.5 50.9516Z" fill="#5F456C"/>
<path d="M79.0299 35.3839C79.1072 35.511 79.0832 35.5964 79.0832 35.6773C79.0859 41.4771 79.085 47.2769 79.0921 53.0758C79.0921 53.3159 79.037 53.3968 78.7827 53.3959C73.784 53.3879 68.7853 53.3879 63.7857 53.3959C63.543 53.3959 63.5057 53.3212 63.4905 53.0971C63.4603 52.6419 63.5261 52.3529 64.0329 52.1333C66.0726 51.2513 67.9433 50.0732 69.6869 48.6968C72.6868 46.3273 75.1133 43.4705 76.9573 40.122C77.7531 38.6763 78.4137 37.171 78.941 35.607C78.9623 35.5448 78.9899 35.4843 79.0299 35.3848V35.3839Z" fill="#5F456C"/>
<path d="M39.7709 3.22044C39.9131 3.33603 40.0927 3.37515 40.2554 3.44717C44.2414 5.20587 47.5659 7.80836 50.2386 11.2448C50.2848 11.3044 50.3257 11.3684 50.3871 11.4556C49.9381 11.54 49.5104 11.6103 49.0881 11.7019C45.9966 12.3767 43.395 13.9158 41.2024 16.1751C40.6049 16.7912 40.0447 17.4403 39.5459 18.1383C39.3965 18.3481 39.3263 18.3054 39.1725 18.1472C36.3308 15.2326 32.8739 13.9656 28.8203 14.3132C28.7696 14.3177 28.7199 14.3319 28.6692 14.3417C27.9241 14.339 27.2163 14.5373 26.5148 14.7569C20.354 16.6846 16.633 22.7191 17.8938 29.0337C18.8674 33.9115 21.87 37.1106 26.6117 38.6568C27.2626 38.8693 27.9285 39.0222 28.6167 39.0506C31.7696 39.4036 34.6575 38.6932 37.2697 36.8901C37.9277 36.4357 38.5367 35.9218 39.0782 35.3341C39.2516 35.1456 39.3192 35.19 39.4499 35.3679C40.7018 37.0848 42.1751 38.5776 43.9524 39.7575C45.7698 40.9649 47.7579 41.7376 49.9114 42.0897C50.0021 42.1048 50.1008 42.0986 50.1853 42.1635C50.155 42.2951 50.0537 42.3796 49.9754 42.4765C47.2689 45.8365 43.9391 48.3759 39.9629 50.0652C39.8847 50.0981 39.8082 50.1372 39.7309 50.1728C39.6971 50.1763 39.6642 50.1799 39.6304 50.1835C39.6099 50.1932 39.5886 50.203 39.5681 50.2119C38.6719 50.5204 37.7899 50.8672 36.8732 51.117C34.1907 51.8479 31.4628 52.1582 28.687 51.9733C21.349 51.4834 15.31 48.399 10.5851 42.7903C7.77548 39.4543 6.01056 35.5999 5.20234 31.3108C4.83424 29.3573 4.69909 27.3861 4.81023 25.4078C5.13032 19.7343 7.10686 14.6965 10.7834 10.3566C14.283 6.22481 18.6807 3.48985 23.9283 2.13214C26.4268 1.48575 28.9715 1.26435 31.5437 1.39861C34.2547 1.53998 36.8767 2.11881 39.4019 3.12086C39.521 3.16798 39.6384 3.224 39.7717 3.21866L39.7709 3.22044Z" fill="#FDFDFD"/>
<path d="M39.5669 50.2137C39.5873 50.2039 39.6087 50.1941 39.6291 50.1852C39.6087 50.195 39.5873 50.2048 39.5669 50.2137Z" fill="#6F717F"/>
<path d="M28.0048 15.8061C26.1571 16.1431 24.5149 16.9255 23.0772 18.1214C20.9059 19.9263 19.574 22.2238 19.1463 25.0201C18.2643 30.7977 22.004 36.257 27.7016 37.5284C27.8011 37.5507 27.9025 37.5658 28.0021 37.5836C28.1177 37.9766 28.3311 38.326 28.5062 38.6923C28.5614 38.807 28.6254 38.9182 28.6156 39.0524C27.9274 39.0231 27.2614 38.8701 26.6106 38.6585C21.868 37.1123 18.8663 33.9123 17.8927 29.0355C16.6319 22.7208 20.3529 16.6863 26.5137 14.7587C27.2152 14.5391 27.923 14.3417 28.6681 14.3435C28.5187 14.7453 28.2937 15.1099 28.115 15.4975C28.0688 15.5971 27.995 15.6869 28.0039 15.807L28.0048 15.8061Z" fill="#5F456C"/>
<path d="M2.29824 60.2671C2.91085 60.2671 3.35542 59.8056 3.48079 58.9494L3.64972 58.9672L3.49323 60.5249H0.107422V60.3747C0.49775 60.3631 0.629341 60.1951 0.629341 59.7878V57.2005C0.629341 56.7932 0.49775 56.6252 0.107422 56.6136V56.4634H2.41827V56.6136C2.02794 56.6314 1.89635 56.787 1.89635 57.2005V59.7878C1.89635 60.1293 1.98616 60.2671 2.29824 60.2671Z" fill="#3F3046"/>
<path d="M5.98273 60.6263C5.42969 60.6263 4.94955 60.4405 4.57167 60.075C4.15734 59.6803 3.93506 59.1228 3.93506 58.4639C3.93506 57.2067 4.80552 56.362 6.02985 56.362C6.69581 56.362 7.04435 56.6199 7.21862 56.6199C7.34488 56.6199 7.39289 56.5594 7.43468 56.3976H7.59028V57.7037H7.43468C7.3262 57.0502 6.92521 56.6794 6.35438 56.6794C5.66442 56.6794 5.29187 57.2725 5.29187 58.4346C5.29187 59.5967 5.65819 60.2617 6.34282 60.2617C6.77494 60.2617 7.18928 60.0164 7.53159 59.5309L7.72987 59.6749C7.33332 60.2982 6.72693 60.6272 5.98273 60.6272V60.6263Z" fill="#3F3046"/>
<path d="M10.321 60.6201C8.95176 60.6201 8.09375 59.7941 8.09375 58.4942C8.09375 57.1942 8.95176 56.3682 10.321 56.3682C11.6903 56.3682 12.5536 57.1889 12.5536 58.4942C12.5536 59.7994 11.6894 60.6201 10.321 60.6201ZM11.2208 58.5777C11.2208 57.2841 10.963 56.643 10.3201 56.643C9.67729 56.643 9.41944 57.2538 9.41944 58.4933C9.41944 59.7327 9.70752 60.3435 10.3201 60.3435C10.9327 60.3435 11.2208 59.7505 11.2208 58.5768V58.5777Z" fill="#3F3046"/>
<path d="M12.8716 56.6136V56.4634H14.5645L16.4966 58.8231V57.1996C16.4966 56.7861 16.365 56.6305 15.9747 56.6127V56.4625H17.295V56.6127C16.9056 56.6243 16.7731 56.7924 16.7731 57.1996V60.524H16.317L13.67 57.3081V59.7878C13.67 60.2013 13.8016 60.3569 14.1919 60.3747V60.5249H12.8716V60.3747C13.2619 60.3631 13.3935 60.1951 13.3935 59.7878V57.2005C13.3935 56.7932 13.2619 56.6252 12.8716 56.6136Z" fill="#3F3046"/>
<path d="M21.2962 60.6263C20.7432 60.6263 20.263 60.4405 19.8852 60.075C19.4708 59.6803 19.2485 59.1228 19.2485 58.4639C19.2485 57.2067 20.119 56.362 21.3433 56.362C22.0093 56.362 22.3578 56.6199 22.5321 56.6199C22.6584 56.6199 22.7064 56.5594 22.7482 56.3976H22.9038V57.7037H22.7482C22.6397 57.0502 22.2387 56.6794 21.6679 56.6794C20.9779 56.6794 20.6053 57.2725 20.6053 58.4346C20.6053 59.5967 20.9717 60.2617 21.6563 60.2617C22.0884 60.2617 22.5028 60.0164 22.8451 59.5309L23.0433 59.6749C22.6468 60.2982 22.0404 60.6272 21.2962 60.6272V60.6263Z" fill="#3F3046"/>
<path d="M25.634 60.6201C24.2647 60.6201 23.4067 59.7941 23.4067 58.4942C23.4067 57.1942 24.2647 56.3682 25.634 56.3682C27.0033 56.3682 27.8666 57.1889 27.8666 58.4942C27.8666 59.7994 27.0024 60.6201 25.634 60.6201ZM26.5347 58.5777C26.5347 57.2841 26.2769 56.643 25.634 56.643C24.9912 56.643 24.7333 57.2538 24.7333 58.4933C24.7333 59.7327 25.0214 60.3435 25.634 60.3435C26.2466 60.3435 26.5347 59.7505 26.5347 58.5768V58.5777Z" fill="#3F3046"/>
<path d="M30.5459 59.386C30.8829 59.386 31.1461 59.65 31.1461 59.9906C31.1461 60.3311 30.882 60.5952 30.5459 60.5952C30.2098 60.5952 29.9404 60.3204 29.9404 59.9906C29.9404 59.6607 30.2107 59.386 30.5459 59.386Z" fill="#3F3046"/>
<path d="M35.2982 60.2671C35.9108 60.2671 36.3554 59.8056 36.4808 58.9494L36.6497 58.9672L36.4932 60.5249H33.1074V60.3747C33.4978 60.3631 33.6293 60.1951 33.6293 59.7878V57.2005C33.6293 56.7932 33.4978 56.6252 33.1074 56.6136V56.4634H35.4183V56.6136C35.0279 56.6314 34.8964 56.787 34.8964 57.2005V59.7878C34.8964 60.1293 34.9862 60.2671 35.2982 60.2671Z" fill="#3F3046"/>
<path d="M40.1992 57.5117H40.0561C40.0018 56.9426 39.7556 56.7212 39.2159 56.7212H38.9509V59.7878C38.9509 60.2013 39.0825 60.3569 39.4728 60.3747V60.5249H37.162V60.3747C37.5523 60.3631 37.6848 60.1951 37.6848 59.7878V56.7212H37.4198C36.8801 56.7212 36.6392 56.9426 36.5858 57.5117H36.4355V56.4634H40.1992V57.5117Z" fill="#3F3046"/>
<path d="M40.4092 60.3747C40.7995 60.3631 40.9311 60.1951 40.9311 59.7878V57.2005C40.9311 56.7932 40.7995 56.6252 40.4092 56.6136V56.4634H42.5947C44.0413 56.4634 44.8691 57.2423 44.8691 58.4995C44.8691 59.2721 44.5205 59.8705 43.843 60.2609C43.5549 60.4218 43.0748 60.524 42.4142 60.524H40.4092V60.3738V60.3747ZM42.1981 59.8652C42.1981 60.1293 42.2941 60.2431 42.5466 60.2431C43.0926 60.2431 43.5371 59.626 43.5371 58.5182C43.5371 57.3143 43.1406 56.7328 42.2764 56.7328H42.1981V59.8652Z" fill="#3F3046"/>
<path d="M62.925 55.9388L62.5116 56.7052L61.979 56.4038L61.6776 56.9995L60.9761 56.6163L61.3664 55.8872L61.9221 56.1664L62.2395 55.5556L62.925 55.9388ZM63.1144 58.9272C63.1144 59.2535 63.0717 59.5327 62.9864 59.7638C62.9162 59.9523 62.7428 60.1204 62.4663 60.2689C62.2066 60.4049 61.9657 60.4725 61.7425 60.4725C61.5469 60.4725 61.3904 60.404 61.2748 60.2689C61.1583 60.1328 61.1005 59.9514 61.1005 59.7247C61.1005 59.3495 61.2366 58.896 61.5087 58.3652L61.3726 58.2754C61.474 58.0025 61.5967 57.7242 61.7425 57.4414C61.931 57.5526 62.2066 57.7304 62.5712 57.9767C62.7775 58.1349 62.9197 58.2825 62.998 58.4177C63.0753 58.5537 63.1153 58.7236 63.1153 58.9272H63.1144ZM62.5596 59.2241C62.5596 59.177 62.4698 59.0748 62.2893 58.9192C62.1177 58.7733 61.9461 58.6462 61.7772 58.5377C61.6154 58.792 61.5344 59.0027 61.5344 59.1708C61.5344 59.2535 61.5673 59.3237 61.6331 59.3797C61.6989 59.4366 61.7798 59.4642 61.8768 59.4642C62.0003 59.4642 62.1462 59.4349 62.3107 59.3762C62.4769 59.3175 62.5596 59.2659 62.5596 59.2232V59.2241Z" fill="#3F3046"/>
<path d="M66.3275 60.3409H64.6195C64.2577 60.3409 64.0771 60.1657 64.0771 59.8154C64.0771 59.5931 64.0994 59.3442 64.1429 59.0668L64.2834 59.0596C64.3234 59.2277 64.4524 59.3122 64.6684 59.3122H65.9648C65.8643 58.6764 65.6011 58.2221 65.1735 57.9509L65.4429 56.7746C65.7709 57.0209 66.0039 57.3365 66.1417 57.7215C66.2653 58.0718 66.3275 58.5413 66.3275 59.1299V60.3418V60.3409Z" fill="#3F3046"/>
<path d="M69.8111 60.083C69.8111 60.516 69.627 60.9437 69.2589 61.366C68.8908 61.7893 68.529 62 68.1751 62C67.9661 62 67.7385 61.9333 67.4904 61.7999C67.2433 61.6666 66.8627 61.4043 66.3506 61.0122L66.5089 60.7934C66.7436 60.9482 66.9258 61.0522 67.0566 61.1073C67.2459 61.1873 67.4478 61.2265 67.6638 61.2265C68.1795 61.2265 68.7139 60.9001 69.2652 60.2466C69.1594 60.2618 69.0704 60.2689 69.0002 60.2689C68.7503 60.2689 68.5521 60.1879 68.4045 60.0261C68.2569 59.8643 68.1831 59.6438 68.1831 59.3646C68.1831 58.9876 68.2711 58.6231 68.448 58.271C68.6365 57.894 68.8499 57.7055 69.0891 57.7055C69.2874 57.7055 69.4572 57.8433 69.5995 58.1189C69.7408 58.3937 69.812 58.7244 69.812 59.1094V60.083H69.8111ZM69.363 59.3193C69.2927 58.9147 69.1496 58.712 68.9326 58.712C68.8544 58.712 68.7904 58.7458 68.7397 58.8134C68.697 58.8712 68.6757 58.9352 68.6757 59.0063C68.6757 59.2152 68.857 59.3193 69.2189 59.3193H69.3621H69.363Z" fill="#3F3046"/>
<path d="M72.4574 60.3409H70.7494C70.3875 60.3409 70.207 60.1657 70.207 59.8154C70.207 59.5931 70.2293 59.3442 70.2728 59.0668L70.4133 59.0596C70.4533 59.2277 70.5822 59.3122 70.7983 59.3122H72.0947C71.9942 58.6764 71.731 58.2221 71.3033 57.9509L71.5727 56.7746C71.9008 57.0209 72.1338 57.3365 72.2716 57.7215C72.3952 58.0718 72.4574 58.5413 72.4574 59.1299V60.3418V60.3409Z" fill="#3F3046"/>
<path d="M77.1863 60.3409H72.1938V59.3122H77.1863V60.3409Z" fill="#3F3046"/>
<path d="M81.9153 60.3409H76.9229V59.3122H81.9153V60.3409Z" fill="#3F3046"/>
<path d="M86.6424 60.3409H81.6499V59.3122H86.6424V60.3409Z" fill="#3F3046"/>
<path d="M91.3709 60.3409H86.3784V59.3122H91.3709V60.3409Z" fill="#3F3046"/>
<path d="M96.0999 60.3409H91.1074V59.3122H96.0999V60.3409Z" fill="#3F3046"/>
<path d="M100.828 60.3409H95.8359V59.3122H100.828V60.3409Z" fill="#3F3046"/>
<path d="M104.87 60.3409H100.564V59.3121H103.245C102.687 58.736 102.182 58.4488 101.729 58.4488C101.611 58.4488 101.473 58.4666 101.314 58.5013C101.586 57.8851 101.932 57.5775 102.355 57.5775C102.594 57.5775 102.839 57.6717 103.091 57.8593C103.291 58.0122 103.592 58.3065 103.992 58.7431C104.183 58.9538 104.329 59.0916 104.432 59.1574C104.528 59.2179 104.674 59.2695 104.869 59.3121V60.3409H104.87Z" fill="#3F3046"/>
<path d="M108.075 60.3409C107.491 60.3258 106.907 60.1666 106.321 59.8625C106.109 60.1817 105.787 60.3409 105.355 60.3409H104.605V59.3122H105.355C105.824 59.3122 106.124 59.1637 106.253 58.8676C106.388 58.5519 106.57 58.2905 106.798 58.0843C106.997 57.9047 107.167 57.8149 107.305 57.8149C107.443 57.8149 107.594 58.0078 107.782 58.3937C107.978 58.8 108.075 59.1761 108.075 59.522V60.3418V60.3409ZM107.373 59.2063C107.373 59.1512 107.32 59.0543 107.212 58.9156C107.091 58.7671 106.987 58.6933 106.899 58.6933C106.8 58.6933 106.717 58.8062 106.65 59.033C107.039 59.1841 107.252 59.2597 107.291 59.2597C107.346 59.2597 107.373 59.2419 107.373 59.2072V59.2063Z" fill="#3F3046"/>
<path d="M109.885 60.3409H107.811V59.3122H109.436L108.976 56.755L108.735 56.5976C108.717 56.3362 108.838 55.9592 109.097 55.4658L109.274 55.5565C109.274 55.5716 109.268 55.6116 109.259 55.6774C109.259 55.8232 109.459 55.9815 109.861 56.1522C109.814 56.4865 109.731 56.7808 109.612 57.0351L109.477 56.9826L109.884 59.3166V60.3418L109.885 60.3409Z" fill="#3F3046"/>
<path d="M111.015 59.2437C111.015 59.6233 110.886 60.0759 110.627 60.6014L110.401 60.5107C110.461 60.1897 110.492 59.9274 110.492 59.7265C110.492 59.4028 110.449 58.904 110.364 58.2336C110.324 57.9171 110.263 57.5561 110.182 57.1516C110.117 56.8199 110.084 56.6296 110.084 56.5816C110.084 56.4234 110.231 56.0642 110.525 55.5031L110.755 56.8377C110.928 57.8984 111.015 58.7004 111.015 59.2428V59.2437Z" fill="#3F3046"/>
</svg>
