<svg width="147" height="38" viewBox="0 0 147 38" fill="none" xmlns="http://www.w3.org/2000/svg">
<rect width="147" height="38" rx="19" fill="url(#paint0_linear_22_1500)" fill-opacity="0.9"/>
<rect x="0.273207" y="0.273207" width="146.454" height="37.4536" rx="18.7268" stroke="url(#paint1_linear_22_1500)" stroke-opacity="0.9" stroke-width="0.546413"/>
<path d="M14.8274 24.5V13.62H22.1714V14.548H15.8994V18.836H21.6754L21.8514 19.764H15.8994V24.5H14.8274ZM27.8169 16.34C29.0969 16.34 30.1209 16.74 30.8889 17.54C31.6569 18.3293 32.0409 19.316 32.0409 20.5C32.0409 21.684 31.6569 22.676 30.8889 23.476C30.1209 24.2653 29.0969 24.66 27.8169 24.66C26.5262 24.66 25.4969 24.2653 24.7289 23.476C23.9715 22.676 23.5929 21.684 23.5929 20.5C23.5929 19.316 23.9715 18.3293 24.7289 17.54C25.4969 16.74 26.5262 16.34 27.8169 16.34ZM27.8169 23.812C28.8089 23.812 29.5822 23.492 30.1369 22.852C30.7022 22.2013 30.9849 21.4173 30.9849 20.5C30.9849 19.5827 30.7022 18.7987 30.1369 18.148C29.5822 17.4973 28.8089 17.172 27.8169 17.172C26.8142 17.172 26.0302 17.4973 25.4649 18.148C24.9102 18.7987 24.6329 19.5827 24.6329 20.5C24.6329 21.4173 24.9102 22.2013 25.4649 22.852C26.0302 23.492 26.8142 23.812 27.8169 23.812ZM38.5506 17.38C37.8039 17.38 37.1319 17.556 36.5346 17.908C35.9479 18.26 35.4946 18.7133 35.1746 19.268V24.5H34.1346V16.5H35.1106L35.1586 18.324C35.4786 17.7373 35.9266 17.2627 36.5026 16.9C37.0786 16.5267 37.7186 16.34 38.4226 16.34L38.5506 17.38ZM44.4211 24.5V13.62H51.8771V14.548H45.4931V18.452H51.3651L51.5571 19.396H45.4931V23.572H52.0371V24.5H44.4211ZM58.055 16.34C58.9937 16.34 59.7137 16.596 60.215 17.108C60.727 17.62 60.983 18.3347 60.983 19.252V24.5H59.943V19.252C59.943 18.5907 59.751 18.0787 59.367 17.716C58.983 17.3533 58.439 17.172 57.735 17.172C56.7537 17.172 55.895 17.6307 55.159 18.548V24.5H54.119V16.5H55.095L55.159 17.748C55.8843 16.8093 56.8497 16.34 58.055 16.34ZM70.9031 16.5V24.404C70.9031 26.9213 69.4738 28.18 66.6151 28.18C65.3138 28.18 64.2098 27.9453 63.3031 27.476L63.5271 26.66C64.4124 27.1187 65.4364 27.348 66.5991 27.348C68.7751 27.348 69.8631 26.3773 69.8631 24.436V22.932C69.5431 23.3373 69.1271 23.6733 68.6151 23.94C68.1031 24.2067 67.5271 24.34 66.8871 24.34C65.7351 24.34 64.7964 23.9827 64.0711 23.268C63.3564 22.5427 62.9991 21.5667 62.9991 20.34C62.9991 19.1133 63.3564 18.1427 64.0711 17.428C64.7964 16.7027 65.7351 16.34 66.8871 16.34C67.5271 16.34 68.1031 16.4733 68.6151 16.74C69.1271 17.0067 69.5431 17.3427 69.8631 17.748L69.9271 16.5H70.9031ZM69.8631 22.084V18.596C69.1058 17.6467 68.1778 17.172 67.0791 17.172C66.1511 17.172 65.4098 17.4653 64.8551 18.052C64.3111 18.628 64.0391 19.3907 64.0391 20.34C64.0391 21.2893 64.3111 22.052 64.8551 22.628C65.4098 23.204 66.1511 23.492 67.0791 23.492C68.1884 23.492 69.1164 23.0227 69.8631 22.084ZM73.4471 24.5V13.012L74.4871 12.82V24.5H73.4471ZM77.5532 14.884L76.6732 14.036L77.5532 13.172L78.4172 14.036L77.5532 14.884ZM78.0652 24.5H77.0252V16.5H78.0652V24.5ZM81.2754 18.516C81.2754 18.9107 81.4514 19.22 81.8034 19.444C82.1554 19.6573 82.582 19.812 83.0834 19.908C83.5847 20.004 84.086 20.116 84.5874 20.244C85.0994 20.372 85.5314 20.6013 85.8834 20.932C86.2354 21.2627 86.4114 21.7053 86.4114 22.26C86.4114 23.06 86.1287 23.6627 85.5634 24.068C85.0087 24.4627 84.2354 24.66 83.2434 24.66C81.9954 24.66 80.9394 24.4307 80.0754 23.972L80.2994 23.124C81.1954 23.5933 82.166 23.828 83.2114 23.828C84.6514 23.828 85.3714 23.3107 85.3714 22.276C85.3714 21.8813 85.1954 21.572 84.8434 21.348C84.4914 21.124 84.0594 20.964 83.5474 20.868C83.046 20.7613 82.5394 20.644 82.0274 20.516C81.526 20.388 81.0994 20.164 80.7474 19.844C80.3954 19.5133 80.2194 19.0707 80.2194 18.516C80.2194 17.7907 80.486 17.2467 81.0194 16.884C81.5634 16.5213 82.294 16.34 83.2114 16.34C84.4594 16.34 85.5154 16.5693 86.3794 17.028L86.1714 17.876C85.2647 17.4067 84.278 17.172 83.2114 17.172C81.9207 17.172 81.2754 17.62 81.2754 18.516ZM92.3675 16.34C93.3062 16.34 94.0262 16.596 94.5275 17.108C95.0395 17.62 95.2955 18.3347 95.2955 19.252V24.5H94.2555V19.252C94.2555 18.5907 94.0635 18.0787 93.6795 17.716C93.2955 17.3533 92.7515 17.172 92.0475 17.172C91.0662 17.172 90.2075 17.6307 89.4715 18.548V24.5H88.4315V13.012L89.4715 12.82V17.748C90.1968 16.8093 91.1622 16.34 92.3675 16.34Z" fill="white"/>
<path d="M131.814 19V16.2059C131.814 11.5489 129.951 9.68616 125.294 9.68616H119.706C115.049 9.68616 113.186 11.5489 113.186 16.2059V21.7942C113.186 26.4511 115.049 28.3139 119.706 28.3139H122.5" stroke="#70ABF8" stroke-width="1.49022" stroke-linecap="round" stroke-linejoin="round"/>
<path d="M130.845 24.4393L129.327 24.9515C128.908 25.0913 128.573 25.4172 128.433 25.8457L127.921 27.3638C127.483 28.6771 125.639 28.6491 125.229 27.3359L123.506 21.7941C123.171 20.6951 124.186 19.6706 125.276 20.0152L130.827 21.7382C132.131 22.1481 132.149 24.0015 130.845 24.4393Z" stroke="#70ABF8" stroke-width="1.49022" stroke-linecap="round" stroke-linejoin="round"/>
<defs>
<linearGradient id="paint0_linear_22_1500" x1="28" y1="3.35991e-06" x2="131.07" y2="73.294" gradientUnits="userSpaceOnUse">
<stop stop-color="white" stop-opacity="0.02"/>
<stop offset="1" stop-color="white" stop-opacity="0.1"/>
</linearGradient>
<linearGradient id="paint1_linear_22_1500" x1="28" y1="3.35991e-06" x2="131.07" y2="73.294" gradientUnits="userSpaceOnUse">
<stop stop-color="white" stop-opacity="0.5"/>
<stop offset="1" stop-color="white" stop-opacity="0.1"/>
</linearGradient>
</defs>
</svg>
