<svg width="171" height="172" viewBox="0 0 171 172" fill="none" xmlns="http://www.w3.org/2000/svg">
<g filter="url(#filter0_d_22_1255)">
<path d="M136.993 86.0229C136.993 114.202 114.149 137.046 85.9697 137.046C57.7906 137.046 34.9469 114.202 34.9469 86.0229C34.9469 57.8437 57.7906 35 85.9697 35C114.149 35 136.993 57.8437 136.993 86.0229Z" fill="white"/>
</g>
<g filter="url(#filter1_d_22_1255)">
<path d="M122.253 86.0232C122.253 106.062 106.008 122.306 85.9697 122.306C65.9312 122.306 49.6868 106.062 49.6868 86.0232C49.6868 65.9846 65.9312 49.7402 85.9697 49.7402C106.008 49.7402 122.253 65.9846 122.253 86.0232Z" fill="white"/>
</g>
<path d="M82.1008 101.33H91.0642C98.5338 101.33 101.522 98.3421 101.522 90.8725V81.909C101.522 74.4395 98.5338 71.4517 91.0642 71.4517H82.1008C74.6312 71.4517 71.6434 74.4395 71.6434 81.909V90.8725C71.6434 98.3421 74.6312 101.33 82.1008 101.33Z" stroke="#486AB5" stroke-width="2.39026" stroke-linecap="round" stroke-linejoin="round"/>
<path d="M82.1008 85.6587L86.5825 90.1404L91.0642 85.6587" stroke="#486AB5" stroke-width="2.39026" stroke-linecap="round" stroke-linejoin="round"/>
<path d="M86.5825 90.1408V78.1895" stroke="#486AB5" stroke-width="2.39026" stroke-linecap="round" stroke-linejoin="round"/>
<path d="M77.619 93.1284C83.4303 95.0705 89.7346 95.0705 95.546 93.1284" stroke="#486AB5" stroke-width="2.39026" stroke-linecap="round" stroke-linejoin="round"/>
<defs>
<filter id="filter0_d_22_1255" x="0.931656" y="0.984764" width="170.076" height="170.076" filterUnits="userSpaceOnUse" color-interpolation-filters="sRGB">
<feFlood flood-opacity="0" result="BackgroundImageFix"/>
<feColorMatrix in="SourceAlpha" type="matrix" values="0 0 0 0 0 0 0 0 0 0 0 0 0 0 0 0 0 0 127 0" result="hardAlpha"/>
<feOffset/>
<feGaussianBlur stdDeviation="17.0076"/>
<feComposite in2="hardAlpha" operator="out"/>
<feColorMatrix type="matrix" values="0 0 0 0 0.00392157 0 0 0 0 0.0705882 0 0 0 0 0.568627 0 0 0 0.05 0"/>
<feBlend mode="normal" in2="BackgroundImageFix" result="effect1_dropShadow_22_1255"/>
<feBlend mode="normal" in="SourceGraphic" in2="effect1_dropShadow_22_1255" result="shape"/>
</filter>
<filter id="filter1_d_22_1255" x="15.6716" y="15.725" width="140.596" height="140.596" filterUnits="userSpaceOnUse" color-interpolation-filters="sRGB">
<feFlood flood-opacity="0" result="BackgroundImageFix"/>
<feColorMatrix in="SourceAlpha" type="matrix" values="0 0 0 0 0 0 0 0 0 0 0 0 0 0 0 0 0 0 127 0" result="hardAlpha"/>
<feOffset/>
<feGaussianBlur stdDeviation="17.0076"/>
<feComposite in2="hardAlpha" operator="out"/>
<feColorMatrix type="matrix" values="0 0 0 0 0.00392157 0 0 0 0 0.0705882 0 0 0 0 0.568627 0 0 0 0.08 0"/>
<feBlend mode="normal" in2="BackgroundImageFix" result="effect1_dropShadow_22_1255"/>
<feBlend mode="normal" in="SourceGraphic" in2="effect1_dropShadow_22_1255" result="shape"/>
</filter>
</defs>
</svg>
