<svg width="171" height="172" viewBox="0 0 171 172" fill="none" xmlns="http://www.w3.org/2000/svg">
<g filter="url(#filter0_d_22_1266)">
<path d="M136.819 86.0229C136.819 114.202 113.975 137.046 85.7957 137.046C57.6165 137.046 34.7728 114.202 34.7728 86.0229C34.7728 57.8437 57.6165 35 85.7957 35C113.975 35 136.819 57.8437 136.819 86.0229Z" fill="white"/>
</g>
<g filter="url(#filter1_d_22_1266)">
<path d="M122.079 86.0232C122.079 106.062 105.834 122.306 85.7957 122.306C65.7572 122.306 49.5128 106.062 49.5128 86.0232C49.5128 65.9846 65.7572 49.7402 85.7957 49.7402C105.834 49.7402 122.079 65.9846 122.079 86.0232Z" fill="white"/>
</g>
<path d="M81.9267 101.33H90.8902C98.3598 101.33 101.348 98.3421 101.348 90.8725V81.909C101.348 74.4395 98.3598 71.4517 90.8902 71.4517H81.9267C74.4572 71.4517 71.4693 74.4395 71.4693 81.909V90.8725C71.4693 98.3421 74.4572 101.33 81.9267 101.33Z" stroke="#486AB5" stroke-width="2.39026" stroke-linecap="round" stroke-linejoin="round"/>
<path d="M81.9267 82.6712L86.4085 78.1895L90.8902 82.6712" stroke="#486AB5" stroke-width="2.39026" stroke-linecap="round" stroke-linejoin="round"/>
<path d="M86.4084 78.1895V90.1408" stroke="#486AB5" stroke-width="2.39026" stroke-linecap="round" stroke-linejoin="round"/>
<path d="M77.445 93.1284C83.2563 95.0705 89.5606 95.0705 95.3719 93.1284" stroke="#486AB5" stroke-width="2.39026" stroke-linecap="round" stroke-linejoin="round"/>
<defs>
<filter id="filter0_d_22_1266" x="0.757591" y="0.984764" width="170.076" height="170.076" filterUnits="userSpaceOnUse" color-interpolation-filters="sRGB">
<feFlood flood-opacity="0" result="BackgroundImageFix"/>
<feColorMatrix in="SourceAlpha" type="matrix" values="0 0 0 0 0 0 0 0 0 0 0 0 0 0 0 0 0 0 127 0" result="hardAlpha"/>
<feOffset/>
<feGaussianBlur stdDeviation="17.0076"/>
<feComposite in2="hardAlpha" operator="out"/>
<feColorMatrix type="matrix" values="0 0 0 0 0.00392157 0 0 0 0 0.0705882 0 0 0 0 0.568627 0 0 0 0.05 0"/>
<feBlend mode="normal" in2="BackgroundImageFix" result="effect1_dropShadow_22_1266"/>
<feBlend mode="normal" in="SourceGraphic" in2="effect1_dropShadow_22_1266" result="shape"/>
</filter>
<filter id="filter1_d_22_1266" x="15.4975" y="15.725" width="140.596" height="140.596" filterUnits="userSpaceOnUse" color-interpolation-filters="sRGB">
<feFlood flood-opacity="0" result="BackgroundImageFix"/>
<feColorMatrix in="SourceAlpha" type="matrix" values="0 0 0 0 0 0 0 0 0 0 0 0 0 0 0 0 0 0 127 0" result="hardAlpha"/>
<feOffset/>
<feGaussianBlur stdDeviation="17.0076"/>
<feComposite in2="hardAlpha" operator="out"/>
<feColorMatrix type="matrix" values="0 0 0 0 0.00392157 0 0 0 0 0.0705882 0 0 0 0 0.568627 0 0 0 0.08 0"/>
<feBlend mode="normal" in2="BackgroundImageFix" result="effect1_dropShadow_22_1266"/>
<feBlend mode="normal" in="SourceGraphic" in2="effect1_dropShadow_22_1266" result="shape"/>
</filter>
</defs>
</svg>
