<svg width="136" height="65" viewBox="0 0 136 65" fill="none" xmlns="http://www.w3.org/2000/svg">
<path d="M81.2295 32.8262C83.7249 32.2988 86.2202 31.7586 88.7157 31.2312C93.192 30.2794 97.6555 29.3275 102.132 28.4014C102.878 28.247 102.839 27.784 102.839 27.218C102.839 21.7384 102.839 16.2588 102.839 10.7792C102.839 7.51196 102.865 4.23191 102.826 0.96472C102.826 0.231533 102.994 0 103.765 0C114.197 0.0257259 124.642 0.0257259 135.074 0C135.858 0 136 0.270095 136 0.977557C135.974 11.3708 135.987 21.7512 136 32.1445C136 32.7619 135.949 33.1092 135.164 33.1092C117.284 33.0835 99.4048 33.0963 81.5253 33.0963C81.4353 33.0963 81.3453 33.0578 81.2552 33.0449C81.2552 32.9677 81.2552 32.8905 81.2552 32.8133L81.2295 32.8262ZM125.967 16.3359C125.967 14.4193 125.941 12.4899 125.98 10.5733C125.993 9.87874 125.787 9.66005 125.079 9.67292C121.298 9.69864 117.529 9.69864 113.747 9.67292C113.117 9.67292 112.872 9.80157 112.885 10.4962C112.924 14.3422 112.911 18.1753 112.885 22.0213C112.885 22.6645 113.052 22.8832 113.721 22.8703C117.503 22.8446 121.272 22.8317 125.053 22.8703C125.851 22.8703 125.993 22.5873 125.98 21.8798C125.941 20.0276 125.967 18.1753 125.967 16.3359Z" fill="#B0925A"/>
<path d="M102.441 49.9213C102.441 45.4321 102.454 40.9558 102.428 36.4666C102.428 35.6949 102.582 35.4247 103.418 35.4376C106.338 35.489 109.258 35.489 112.178 35.4376C112.95 35.4376 113.117 35.6949 113.117 36.4152C113.091 45.3806 113.091 54.359 113.117 63.3244C113.117 64.1091 112.937 64.3663 112.114 64.3406C109.194 64.2892 106.274 64.2892 103.354 64.3406C102.582 64.3406 102.415 64.0833 102.428 63.363C102.454 58.8739 102.441 54.3976 102.441 49.9084V49.9213Z" fill="#B0925A"/>
<path d="M125.311 49.8694C125.311 45.4189 125.324 40.9683 125.298 36.5177C125.298 35.7202 125.44 35.4115 126.34 35.4244C129.221 35.4887 132.116 35.4629 134.997 35.4244C135.692 35.4244 136 35.5401 136 36.3376C135.975 45.3803 135.975 54.4229 136 63.4527C136 64.083 135.846 64.3274 135.164 64.3145C132.167 64.276 129.183 64.276 126.186 64.3145C125.465 64.3145 125.298 64.083 125.311 63.4012C125.337 58.8864 125.324 54.3586 125.324 49.8437L125.311 49.8694Z" fill="#B0925A"/>
<path d="M91.3269 49.9081C91.3269 54.3586 91.314 58.7963 91.3398 63.2469C91.3398 64.0316 91.2112 64.366 90.3108 64.3403C87.4681 64.276 84.6125 64.2888 81.7569 64.3403C81.0366 64.3403 80.8564 64.1088 80.8564 63.427C80.8693 54.3844 80.8822 45.3546 80.8564 36.3119C80.8564 35.5787 81.1267 35.4244 81.7956 35.4372C84.6769 35.463 87.571 35.4758 90.4523 35.4372C91.1855 35.4372 91.3269 35.6945 91.3269 36.3634C91.3012 40.8783 91.3269 45.406 91.3269 49.9209V49.9081Z" fill="#B0925A"/>
<path d="M30.8588 40.9813C33.0069 40.6983 34.6662 41.4958 35.721 43.2966C36.4413 44.5443 36.6986 45.9721 36.7243 47.4385C36.7243 48.0302 36.3899 48.0302 35.9655 48.0302C34.3576 48.0302 32.7624 48.0302 31.1546 48.0302C23.4239 48.0302 15.7063 48.0302 7.97569 48.0302C6.26492 48.0302 5.85328 47.7472 5.37735 46.1264C5.27444 45.7663 5.08144 45.8049 4.83705 45.8049C4.05241 45.8049 3.26783 45.7663 2.48319 45.8049C1.65996 45.8563 1.09389 45.5219 0.772315 44.8144C0.193482 43.541 0.257797 40.6726 2.05861 39.8365C2.41877 39.6693 2.75333 39.5535 3.15208 39.5535C4.20685 39.5535 5.21012 40.1194 6.32919 39.785C6.8823 39.6178 6.76649 40.1838 6.76649 40.5053C6.76649 42.1389 6.80508 43.7725 6.76649 45.419C6.75363 46.2036 7.0367 46.4866 7.82134 46.4738C16.6582 46.4609 25.4821 46.448 34.319 46.4738C35.2451 46.4738 35.2322 46.0364 35.0392 45.4576C34.023 42.5505 32.1194 41.663 29.1738 42.6663C28.8522 42.7821 28.5306 43.1294 28.299 42.6406C28.119 42.2547 27.7718 41.8559 28.2348 41.3929C29.5726 40.0294 30.8845 38.6402 32.2094 37.2639C32.6982 36.7494 32.9298 37.2767 33.2385 37.5211C33.6373 37.8298 33.5215 38.0614 33.2128 38.3444C32.3895 39.1033 31.592 39.9008 30.7817 40.6854L30.8974 40.9555L30.8588 40.9813ZM3.96246 44.4671C4.75996 44.6343 5.33879 44.5057 5.24875 43.2194C5.12012 41.4829 4.83704 40.8655 3.7051 40.8269C2.75325 40.8012 2.05861 41.7145 2.05861 43.0136C2.05861 44.4414 2.08448 44.4671 3.97533 44.4671H3.96246Z" fill="#282626"/>
<path d="M66.9 46.4739C66.6041 45.342 66.334 44.3129 66.6299 43.1939C67.0544 41.6117 67.8262 40.8271 69.2411 40.8142C71.3892 40.7885 72.5083 41.5217 72.9199 43.2067C73.3701 45.059 72.817 46.7054 71.4792 47.6058C70.9261 47.9789 70.2829 48.0175 69.6526 48.0303C67.6589 48.0561 65.6651 48.0303 63.6713 48.0303C62.7323 48.0303 61.9735 47.7088 61.4718 46.8727C59.9411 48.6606 58.0631 48.7378 56.571 47.0656C55.3104 48.4548 53.8312 48.5062 52.2877 47.683C51.7474 47.4 52.0434 48.1075 51.5674 48.0818C49.7666 47.9532 47.9271 48.0946 46.1263 47.9789C44.7757 47.8888 44.0682 46.9885 44.0682 45.5478C44.0425 42.4478 44.0682 39.3607 44.0425 36.2608C44.0425 35.5919 44.3255 35.5404 44.8657 35.5276C45.4446 35.5147 45.5861 35.7076 45.5861 36.2479C45.5604 39.1678 45.5861 42.0876 45.5861 44.9947C45.5861 46.2681 45.779 46.4611 47.0781 46.4611C47.9013 46.4611 48.7246 46.4096 49.535 46.4739C50.2553 46.5254 50.5383 46.3453 50.4868 45.5606C50.4096 44.3901 50.4997 43.2067 50.4482 42.0362C50.4225 41.4316 50.7312 41.4188 51.1557 41.4445C51.5416 41.4702 52.0304 41.2773 51.9918 42.0105C51.9404 42.9624 51.9661 43.9271 51.9918 44.8918C52.0047 46.0109 52.828 46.8084 53.9599 46.7826C54.706 46.7698 55.2333 46.4996 55.1947 45.5992C55.1433 44.4287 55.2333 43.2453 55.169 42.0748C55.1304 41.3802 55.5162 41.4445 55.9536 41.4445C56.4038 41.4445 56.7768 41.4059 56.7253 42.0877C56.661 42.9366 56.6739 43.7984 56.7253 44.6474C56.7768 45.5606 57.0984 46.3067 58.1146 46.6411C58.7449 46.8469 59.2979 46.8856 59.7996 46.4739C60.3141 46.0495 60.417 45.432 60.2626 44.8275C59.9668 43.7084 60.2112 42.5765 60.1212 41.4445C60.0697 40.7756 60.5456 40.9428 60.9058 40.93C61.3174 40.9042 61.6777 40.8785 61.6519 41.4959C61.6133 42.4607 61.6262 43.4125 61.6519 44.3773C61.6777 45.8051 62.3208 46.4353 63.6971 46.4353C64.7647 46.4353 65.8195 46.4353 66.9386 46.4353L66.9 46.4739ZM71.4921 44.4416C71.4664 44.0171 71.492 43.6826 71.4277 43.3868C71.2348 42.6665 70.7846 42.1391 70.0386 41.959C69.3054 41.779 68.8424 42.3192 68.4436 42.7951C67.9162 43.4383 68.1477 45.5864 68.7523 46.1781C69.627 47.0528 71.0804 46.6283 71.3891 45.3934C71.4791 45.059 71.4664 44.6988 71.4921 44.4544V44.4416Z" fill="#282626"/>
<path d="M9.21014 56.3398C8.12966 58.7323 7.06201 61.1248 5.96866 63.5045C5.82717 63.8003 5.78862 64.3148 5.36414 64.2891C4.93966 64.2634 4.87535 63.7489 4.72099 63.4273C3.62764 61.0477 2.54718 58.6552 1.20943 56.2755C1.20943 56.8801 1.20943 57.4718 1.20943 58.0763C1.20943 59.89 1.20943 61.7037 1.20943 63.5174C1.20943 63.8132 1.42804 64.302 0.823482 64.3149C0.103158 64.3406 0.399062 63.7875 0.399062 63.4788C0.373336 60.456 0.373336 57.4332 0.399062 54.3975C0.399062 54.0759 0.141746 53.4971 0.823482 53.5357C1.338 53.5614 1.94256 53.2527 2.277 54.0116C3.28031 56.2884 4.34798 58.5394 5.37701 60.8161C5.49278 61.0734 5.57 61.3306 5.90444 61.4464C7.02351 58.9124 8.14258 56.3784 9.27452 53.8573C9.55751 53.2399 10.162 53.5486 10.6122 53.5357C11.1267 53.5357 10.9337 53.9988 10.9337 54.2689C10.9466 56.1855 10.9209 58.1149 10.9466 60.0315C10.9595 60.9833 11.011 61.9352 11.1782 62.8742C11.2811 63.4145 11.3711 64.0962 12.0657 64.3277C12.2715 64.392 12.4902 64.5335 12.4001 64.7908C12.2972 65.1124 11.9757 64.9709 11.757 64.958C10.3163 64.8808 9.42885 63.7746 9.40312 62.0253C9.39026 60.1473 9.40312 58.2564 9.40312 56.3784L9.19727 56.3269L9.21014 56.3398Z" fill="#282626"/>
<path d="M60.559 60.8417C60.559 61.935 60.5076 62.784 60.5719 63.6201C60.6233 64.2889 60.3146 64.3661 59.7615 64.3404C59.2213 64.3275 58.8224 64.3661 58.8481 63.5815C58.8996 60.9189 58.8482 58.2434 58.8739 55.5807C58.8739 54.809 58.8225 54.1401 57.8321 54.0757C57.6134 54.0629 57.5104 53.9471 57.549 53.7413C57.5747 53.5741 57.7291 53.5612 57.8705 53.5227C59.6456 53.0724 60.559 53.7928 60.559 55.645C60.559 56.9442 60.559 58.2562 60.559 59.7483C61.3179 59.1052 61.7809 58.4235 62.2311 57.7674C62.8357 56.9056 63.646 56.5583 64.6622 56.5969C64.8809 56.5969 65.0995 56.5969 65.1124 56.9056C65.1252 57.1757 64.971 57.2529 64.7266 57.2915C63.2345 57.4973 62.9643 59.0023 62.051 59.8384C61.9224 59.9541 61.9095 60.1728 62.051 60.3272C63.1958 61.4462 63.7233 63.1441 65.3697 63.7615C65.5241 63.813 65.6141 63.903 65.6269 64.0574C65.6527 64.2889 65.4726 64.3018 65.3054 64.3661C64.3792 64.7263 63.0158 64.2246 62.244 63.2084C61.7166 62.5138 61.215 61.8064 60.5333 60.8674L60.559 60.8417Z" fill="#282626"/>
<path d="M30.8068 56.9958C31.5657 56.6871 32.2732 56.3398 33.0578 56.4427C35.0773 56.6999 35.476 57.4846 35.6818 59.4654C35.8233 60.8418 35.6561 62.2439 35.7333 63.6202C35.7719 64.4306 35.3217 64.3277 34.8072 64.3534C34.2927 64.3663 33.9453 64.3534 33.9711 63.6588C34.0354 62.1667 34.0097 60.6746 33.9711 59.1825C33.9582 58.5007 33.7267 57.8319 33.0321 57.5618C32.3761 57.3045 31.7328 57.4203 31.154 57.909C30.8196 58.1792 30.794 58.475 30.794 58.8352C30.794 60.3273 30.794 61.8194 30.794 63.3115C30.794 63.8389 30.9869 64.4048 30.0093 64.392C28.9932 64.3791 29.2889 63.7488 29.2889 63.26C29.2761 60.8418 29.2889 58.4235 29.2761 56.0053C29.2761 55.1306 29.2889 54.1659 28.0155 54.0887C27.8354 54.0887 27.7839 53.9472 27.7968 53.7929C27.7968 53.6257 27.9255 53.5742 28.0799 53.5357C29.7135 53.034 30.8068 53.8058 30.8068 55.4651C30.8068 55.9539 30.8068 56.4555 30.8068 56.9958Z" fill="#282626"/>
<path d="M43.4254 61.7293C43.4254 62.4625 43.4511 63.0285 43.4254 63.5944C43.4125 63.8388 43.6184 64.2247 43.2068 64.3019C42.9238 64.3662 42.5378 64.4563 42.332 64.1218C41.9847 63.5816 41.6632 63.8002 41.2258 64.0446C39.3221 65.0865 37.2898 64.1475 37.2255 62.2181C37.1869 61.1376 37.7529 60.3401 38.8462 60.07C39.5537 59.8899 40.3125 59.7741 41.0329 59.787C41.7275 59.787 41.8304 59.4654 41.6889 58.9638C41.4959 58.2692 41.393 57.4588 40.4797 57.3044C39.6693 57.1758 39.0005 57.446 38.6533 58.2435C38.4474 58.6937 38.0615 58.6422 37.7528 58.5393C37.2897 58.3721 37.6499 58.0248 37.6628 57.7418C37.6885 57.1501 38.0486 56.7899 38.5502 56.7128C39.4635 56.5584 40.364 56.2625 41.3544 56.5712C42.6279 56.9571 43.0523 57.4331 43.2581 58.7451C43.4253 59.7998 43.4125 60.8418 43.4382 61.7293H43.4254ZM41.7018 61.6007C41.5474 61.2791 42.0747 60.5974 41.1357 60.5974C39.888 60.5974 38.859 61.3048 38.9233 62.231C38.9748 63.0799 39.515 63.4658 40.3382 63.4658C41.3029 63.4658 41.7018 62.9127 41.7018 61.6007Z" fill="#282626"/>
<path d="M56.8927 61.5491C56.8927 62.218 56.9055 62.8997 56.8927 63.5686C56.8927 63.8258 57.0729 64.1989 56.6998 64.3018C56.4169 64.379 55.9923 64.469 55.8122 64.1603C55.4263 63.5043 55.1048 63.903 54.7189 64.1217C53.2782 64.9321 50.9757 64.4047 50.7699 62.4881C50.6284 61.2661 51.4646 60.1728 52.9438 59.9026C53.3297 59.8383 53.7285 59.8512 54.1015 59.7612C54.4617 59.6711 55.0276 60.0699 55.1691 59.4782C55.3363 58.7578 55.1434 58.0504 54.5774 57.5487C53.9729 57.0213 52.7251 57.24 52.3135 57.9346C52.1077 58.2819 52.0177 58.6421 51.5032 58.5777C51.233 58.552 51.1429 58.462 51.1301 58.1919C51.1172 57.6774 51.1559 57.0985 51.6575 56.8927C52.9181 56.3782 54.2816 56.1467 55.5421 56.7384C56.6355 57.2529 56.8412 58.3977 56.9055 59.5039C56.9441 60.1728 56.9055 60.8545 56.9055 61.5234L56.8927 61.5491ZM55.1691 61.7163C55.1691 60.4815 55.0404 60.3786 53.8441 60.7388C53.6126 60.8031 53.4068 60.9445 53.1881 61.0346C52.4163 61.3433 52.4163 61.9865 52.545 62.6296C52.6736 63.2856 53.2011 63.4786 53.8185 63.4786C54.809 63.4786 55.1819 63.0155 55.1819 61.7163H55.1691Z" fill="#282626"/>
<path d="M72.0585 61.6263C72.0585 62.3209 72.0714 62.9254 72.0585 63.53C72.0585 63.7872 72.2257 64.1603 71.8784 64.276C71.5697 64.3789 71.1324 64.469 70.9137 64.0959C70.5793 63.5686 70.3606 63.8001 69.9361 64.0316C68.2639 64.9964 66.3473 64.3275 65.9229 62.6939C65.5627 61.2918 66.4631 60.1342 68.1481 59.8769C68.3668 59.8383 68.5855 59.8383 68.817 59.8126C69.1772 59.7869 69.5502 59.7869 69.9103 59.8383C70.1805 59.8769 70.3478 59.8254 70.3735 59.3109C70.4121 58.552 70.232 57.7931 69.4988 57.4458C68.7013 57.0599 67.8652 57.15 67.3893 58.0375C67.1706 58.4363 66.9263 58.745 66.5147 58.5263C66.1031 58.3205 66.3344 57.8446 66.373 57.4844C66.3859 57.3172 66.4889 57.1114 66.6175 57.0342C67.788 56.301 69.0744 56.301 70.3607 56.5969C71.2997 56.8155 71.6469 57.613 71.8913 58.4491C72.2 59.5168 72.0457 60.623 72.0843 61.6134L72.0585 61.6263ZM70.3478 61.7806C70.3478 60.5329 70.0648 60.3143 68.8814 60.7387C68.6241 60.8288 68.3796 60.9831 68.1353 61.1246C67.595 61.4205 67.4665 61.8835 67.608 62.4624C67.7495 63.0412 68.0967 63.3756 68.6884 63.4657C69.7818 63.6329 70.3478 63.0541 70.3607 61.7806H70.3478Z" fill="#282626"/>
<path d="M12.2583 56.8799C14.7666 56.0953 15.3583 57.0342 15.2168 58.6293C15.1268 59.6583 15.1525 60.6873 15.2168 61.7163C15.2554 62.3852 15.4484 63.0541 16.1816 63.35C16.8762 63.633 17.4549 63.4271 18.0337 63.0026C18.381 62.7454 18.3811 62.4367 18.3811 62.0765C18.3811 60.4815 18.4068 58.8737 18.3682 57.2787C18.3553 56.687 18.5611 56.5712 19.1013 56.584C19.6287 56.584 19.9374 56.6098 19.9246 57.3044C19.8731 59.401 19.9245 61.4977 19.8988 63.5944C19.8988 63.8388 20.0919 64.1989 19.6931 64.3147C19.423 64.3919 19.1143 64.3919 18.9214 64.1089C18.6384 63.6973 18.4067 63.7744 17.9822 64.0188C15.9242 65.2151 13.2873 64.0703 13.6732 61.5363C13.7761 60.8803 13.6861 60.1857 13.6861 59.5168C13.6861 59.4139 13.6861 59.2981 13.6861 59.1952C13.6989 58.1533 13.5317 57.2143 12.2712 56.9056L12.2583 56.8799Z" fill="#282626"/>
<path d="M24.3628 64.495C23.7969 64.4821 23.1408 64.3535 22.5362 64.0833C22.0732 63.8775 21.713 63.4917 21.7259 62.9257C21.7259 62.6041 21.4815 62.1153 21.9317 61.9867C22.3691 61.8709 22.2662 62.4112 22.4205 62.6556C22.9993 63.5688 24.5171 63.9419 25.4304 63.3502C26.1379 62.9 26.0349 62.0124 25.2117 61.5751C24.6586 61.2792 24.0669 61.0477 23.4881 60.7904C21.8931 60.0701 21.4301 59.3112 21.7645 57.9477C22.0603 56.7386 23.0122 56.5585 24.4914 56.4299C25.0317 56.3785 25.6106 56.5328 26.1508 56.6872C26.7296 56.8415 27.2055 57.1888 27.2441 57.8448C27.2698 58.205 27.4756 58.7709 27.0383 58.8996C26.6267 59.0153 26.6523 58.4365 26.498 58.1535C26.022 57.2789 24.35 56.9701 23.5911 57.6133C23.0637 58.0635 23.1408 58.7838 23.8483 59.1954C24.5172 59.5813 25.2504 59.8386 25.945 60.1987C27.3727 60.9577 27.6171 61.3693 27.3985 62.797C27.2184 63.9547 26.2665 64.1863 25.3018 64.3792C25.0188 64.4435 24.7487 64.4693 24.3628 64.4821V64.495Z" fill="#282626"/>
<path d="M36.1709 50.7444C39.2451 50.4228 40.3257 48.339 40.4029 45.8179C40.4414 44.4287 40.4414 43.0524 40.4029 41.6632C40.39 41.0972 40.5571 40.9428 41.1231 40.9428C41.7019 40.9428 41.7407 41.213 41.7407 41.6503C41.7278 43.5283 41.7664 45.4191 41.7278 47.2971C41.6763 49.2394 39.7983 51.439 37.946 51.9149C36.9041 52.185 36.4539 51.722 36.1838 50.7444H36.1709Z" fill="#282626"/>
<path d="M45.5739 61.0221C45.5739 60.2374 45.5868 59.4528 45.5739 58.681C45.5482 57.9478 45.4581 57.2404 44.5448 57.086C44.3904 57.0603 44.2747 57.0088 44.2876 56.8287C44.2876 56.6615 44.4162 56.5972 44.5705 56.5972C44.7892 56.5972 44.995 56.5844 45.2137 56.5972C46.4099 56.6873 47.5934 57.1246 48.8154 56.4686C49.2141 56.2499 49.9215 56.4814 50.3331 56.9702C50.5647 57.2403 50.719 57.4976 50.3589 57.7677C50.1273 57.9478 49.973 58.1793 49.5485 57.9349C48.1078 57.0988 47.1174 57.7292 47.1174 59.4142C47.1174 60.8291 47.0788 62.2569 47.1303 63.6718C47.156 64.3021 46.8473 64.3407 46.3585 64.3278C45.8954 64.3278 45.5353 64.3278 45.5739 63.6718C45.6253 62.7843 45.5868 61.8967 45.5868 61.0092L45.5739 61.0221Z" fill="#282626"/>
<path d="M4.07771 37.277C3.98767 36.3766 4.50216 36.621 5.01668 36.5567C5.90422 36.428 5.72412 36.994 5.8013 37.5214C5.92993 38.4218 5.33822 38.2288 4.8237 38.2932C3.92329 38.4218 4.14202 37.8558 4.07771 37.277Z" fill="#282626"/>
<path d="M54.0629 38.7817C54.0886 38.0871 54.1529 37.8813 54.8217 37.8684C55.5678 37.8684 55.555 38.2286 55.5808 38.7817C55.6194 39.4377 55.4135 39.6049 54.7575 39.6049C54.0501 39.6049 54.0243 39.3476 54.05 38.7688L54.0629 38.7817Z" fill="#282626"/>
<path d="M57.9092 38.8203C57.9607 39.5406 57.7034 39.5534 57.1117 39.6049C56.3142 39.6692 56.4172 39.2062 56.3786 38.7045C56.3272 38.0614 56.533 37.8684 57.189 37.8684C57.9479 37.8684 57.8707 38.2414 57.9092 38.8203Z" fill="#282626"/>
<path d="M56.6873 36.9036C56.6745 37.5211 56.533 37.624 55.9027 37.6626C54.9894 37.714 55.1823 37.148 55.1694 36.6593C55.1566 35.8489 55.5039 35.9132 56.0313 35.9132C56.713 35.9132 56.7002 36.3119 56.6873 36.9165V36.9036Z" fill="#282626"/>
<path d="M3.40866 37.5342C3.46011 38.2674 3.19 38.2674 2.61117 38.306C1.8008 38.3703 1.92935 37.8944 1.89076 37.3927C1.85218 36.8139 1.94234 36.5438 2.66267 36.5309C3.49876 36.5181 3.37009 36.9297 3.42154 37.5342H3.40866Z" fill="#282626"/>
</svg>
