<svg width="230" height="40" viewBox="0 0 230 40" fill="none" xmlns="http://www.w3.org/2000/svg">
<path d="M229.982 36.4768V0.600586H225.165C222.271 0.600586 222.27 3.4947 222.27 3.4947V36.4943C222.27 39.3884 225.165 39.3884 225.165 39.3884H227.106C230 39.3884 230 36.4943 230 36.4943M219.394 36.4768V0.600586H214.576C214.576 0.600586 211.682 0.600612 211.682 3.4947V36.4943C211.682 36.4943 211.682 39.3884 214.576 39.3884H216.518C216.518 39.3884 219.412 39.3884 219.412 36.4943M208.841 10.3946H194.141C194.141 10.3946 191.247 10.3946 191.247 13.2887V15.2298C191.247 15.2298 191.247 18.1239 194.141 18.1239H198.253C198.253 18.1239 201.041 18.124 201.13 20.8945V36.512C201.13 36.512 201.129 39.4061 204.041 39.4061H205.982C205.982 39.4061 208.876 39.4061 208.876 36.512V10.4123L208.841 10.3946ZM208.841 5.41815V0.600586H194.141C194.141 0.600586 191.247 0.600612 191.247 3.4947V5.41815C191.247 5.41815 191.247 8.31227 194.141 8.31227H205.947C205.947 8.31227 208.841 8.31226 208.841 5.43582M188.388 0.600586H183.589C183.589 0.600586 180.694 0.600612 180.694 3.4947V16.9769C180.694 16.9769 180.694 19.871 183.589 19.871H185.53C185.53 19.871 188.177 19.871 188.406 17.3475C188.406 17.2239 188.406 0.61825 188.406 0.61825M177.853 36.4768V0.600586H173.036C173.036 0.600586 170.142 0.600612 170.142 3.4947V36.4943C170.142 36.4943 170.142 39.3884 173.036 39.3884H174.959C174.959 39.3884 177.853 39.3884 177.853 36.4943M180.694 24.7592V26.6826C180.694 26.6826 180.694 29.5768 183.589 29.5768H195.412C195.412 29.5768 198.094 29.5767 198.288 27.0003C198.288 26.8944 198.288 21.8651 198.288 21.8651H183.589C183.589 21.8651 180.694 21.8651 180.694 24.7592ZM180.694 34.5532V36.4943C180.694 36.4943 180.694 39.3884 183.589 39.3884H195.412C195.412 39.3884 198.059 39.3884 198.288 36.8649C198.288 36.7591 198.288 31.7121 198.288 31.7121H183.571C183.571 31.7121 180.712 31.7121 180.712 34.5885" fill="#C7B7B2"/>
<path d="M22.4192 15.1235H14.3723H13.4193V0.0708008H12.0781V16.4824H35.0897V15.1235H22.4192Z" fill="#392F2D"/>
<path d="M149.476 0.264648V15.2645H141.182V11.9292C141.182 9.29983 139.047 7.1822 136.435 7.1822H133.135V8.57638H136.435C138.288 8.57638 139.806 10.0763 139.806 11.9469V15.2822H100.912V16.6234H150.923V0.282313H149.512L149.476 0.264648Z" fill="#392F2D"/>
<path d="M93.2368 28.5881L94.2956 28.0587C92.3721 24.0529 84.1133 24.8293 84.1133 29.8234V35.6822C84.1133 40.7821 92.3897 41.3645 94.2956 37.4292L93.2368 36.9175C91.7897 39.8292 85.3133 39.4057 85.3133 35.6999V29.8411C85.3133 26.1176 91.8074 25.694 93.2368 28.6058V28.5881Z" fill="#392F2D"/>
<path d="M100.031 25.6235L94.9307 39.8293H96.1836L97.8424 35.0999H103.948L105.66 39.8293H106.895L101.76 25.6235H100.031ZM98.266 33.9176L100.895 26.5235L103.525 33.9176H98.266Z" fill="#392F2D"/>
<path d="M114.13 25.6236H108.766V39.8294H109.948V34.5H114.148C120.395 34.5 120.413 25.606 114.13 25.606V25.6236ZM114.13 33.3353H109.948V26.8236H114.13C118.789 26.7707 118.895 33.3353 114.13 33.3353Z" fill="#392F2D"/>
<path d="M122.318 25.6235H121.135V39.8293H122.318V25.6235Z" fill="#392F2D"/>
<path d="M135.042 25.606H124.401V26.8059H129.131V39.8294H130.313V26.8059H135.042V25.606Z" fill="#392F2D"/>
<path d="M138.659 25.6235L133.559 39.8293H134.812L136.471 35.0999H142.577L144.288 39.8293H145.541L140.406 25.6235H138.677H138.659ZM136.894 33.9176L139.524 26.5235L142.153 33.9176H136.894Z" fill="#392F2D"/>
<path d="M147.747 25.6235H146.565V39.8293H154.841V38.6646H147.747V25.6235Z" fill="#392F2D"/>
<path d="M5.40754 25.6406L0.307617 39.8287H1.54287L3.20168 35.0993H9.28988L11.0016 39.8287H12.2369L7.10168 25.6406H5.37227H5.40754ZM3.66052 33.917L6.28989 26.523L8.91931 33.917H3.67818H3.66052Z" fill="#392F2D"/>
<path d="M14.4778 25.6406H13.2954V39.8287H21.5718V38.6464H14.4778V25.6406Z" fill="#392F2D"/>
<path d="M32.3895 25.6406L24.4484 33.4229V25.6406H23.2837V39.8287H24.4484V35.0993L26.2484 33.317L32.3542 39.8287H33.8718L27.0778 32.47L33.9072 25.6406H32.3895Z" fill="#392F2D"/>
<path d="M44.9016 32.1523H36.6252V25.6406H35.4429V39.8287H36.6252V33.317H44.9016V39.8287H46.0839V25.6406H44.9016V32.1523Z" fill="#392F2D"/>
<path d="M52.9481 25.6406L47.8481 39.8287H49.0834L50.7422 35.0993H56.8304L58.5422 39.8287H59.7774L54.6422 25.6406H52.9128H52.9481ZM51.1834 33.917L53.8128 26.523L56.4422 33.917H51.201H51.1834Z" fill="#392F2D"/>
<path d="M62.8484 25.6406H61.666V39.8287H62.8484V25.6406Z" fill="#392F2D"/>
<path d="M75.9598 29.753C75.9068 26.8059 73.8774 25.6235 71.2127 25.6235H65.8657V39.8116H67.0481V33.7941H69.7481L74.5127 39.8116H75.9245L71.1775 33.7941H71.2127C73.7539 33.7941 75.9245 32.6823 75.9245 29.753H75.9598ZM67.0481 32.7176V26.8058H71.2304C73.2951 26.7706 74.7774 27.5294 74.7774 29.753C74.7774 31.9765 73.4186 32.7176 71.2304 32.7176H67.0481Z" fill="#392F2D"/>
<path d="M40.1717 4.85256C40.7011 4.85256 41.1246 4.42908 41.1246 3.89967C41.1246 3.37026 40.7011 2.94678 40.1717 2.94678C39.6423 2.94678 39.2188 3.37026 39.2188 3.89967C39.2188 4.42908 39.6423 4.85256 40.1717 4.85256Z" fill="#392F2D"/>
<path d="M37.3128 4.85256C37.8422 4.85256 38.2658 4.42908 38.2658 3.89967C38.2658 3.37026 37.8422 2.94678 37.3128 2.94678C36.7834 2.94678 36.3599 3.37026 36.3599 3.89967C36.3599 4.42908 36.7834 4.85256 37.3128 4.85256Z" fill="#392F2D"/>
<path d="M136.683 5.10023C137.213 5.10023 137.636 4.67674 137.636 4.14734C137.636 3.61793 137.213 3.19434 136.683 3.19434C136.154 3.19434 135.73 3.61793 135.73 4.14734C135.73 4.67674 136.154 5.10023 136.683 5.10023Z" fill="#392F2D"/>
<path d="M47.6536 17.8057C47.1242 17.8057 46.7007 18.2292 46.7007 18.7586C46.7007 19.288 47.1242 19.7116 47.6536 19.7116C48.183 19.7116 48.6065 19.288 48.6065 18.7586C48.6065 18.2292 48.1653 17.8057 47.6536 17.8057Z" fill="#392F2D"/>
<path d="M44.7952 17.8057C44.2658 17.8057 43.8423 18.2292 43.8423 18.7586C43.8423 19.288 44.2658 19.7116 44.7952 19.7116C45.3246 19.7116 45.7482 19.288 45.7482 18.7586C45.7482 18.2292 45.3246 17.8057 44.7952 17.8057Z" fill="#392F2D"/>
<path d="M52.9475 17.8057C52.4181 17.8057 51.9946 18.2292 51.9946 18.7586C51.9946 19.288 52.4181 19.7116 52.9475 19.7116C53.4769 19.7116 53.9005 19.288 53.9005 18.7586C53.9005 18.2292 53.4593 17.8057 52.9475 17.8057Z" fill="#392F2D"/>
<path d="M56.5476 11.7356C56.5476 13.5885 55.0476 15.1061 53.177 15.1061H49.2947V6.97088H47.9536V15.1414H41.2654V6.97088H39.9242V15.1414H17.0186V16.5002H41.283H49.2418H53.1947C55.8241 16.5002 57.9417 14.365 57.9417 11.7532V6.93555H56.5476V11.7532V11.7356Z" fill="#392F2D"/>
<path d="M8.07167 11.7352C8.07167 13.5882 6.57167 15.1057 4.7011 15.1057H0.324707V16.4999H4.7011C7.33049 16.4999 9.44812 14.3646 9.44812 11.7529V0H8.054V11.7529L8.07167 11.7352Z" fill="#392F2D"/>
<path d="M110.618 18.0698C110.089 18.0698 109.665 18.4934 109.665 19.0228C109.665 19.5522 110.089 19.9757 110.618 19.9757C111.147 19.9757 111.571 19.5522 111.571 19.0228C111.571 18.4934 111.147 18.0698 110.618 18.0698Z" fill="#392F2D"/>
<path d="M107.759 18.0698C107.23 18.0698 106.806 18.4934 106.806 19.0228C106.806 19.5522 107.23 19.9757 107.759 19.9757C108.288 19.9757 108.712 19.5522 108.712 19.0228C108.712 18.4934 108.271 18.0698 107.759 18.0698Z" fill="#392F2D"/>
<path d="M154.841 0.264648H153.5V16.6939H154.841V0.264648Z" fill="#392F2D"/>
<path d="M112.223 7.05866V15.2292H89.5118V7.02344H88.1178V7.27041V12.9351V15.2292C88.1178 17.0821 86.6178 18.5998 84.7472 18.5998H82.2061V19.9939H84.7472C86.9178 19.9939 88.7354 18.5468 89.3001 16.5704H113.547V7.04099H112.206L112.223 7.05866Z" fill="#392F2D"/>
<path d="M75.0776 0L66.7306 8.25874L68.5659 8.29406H71.8483C73.7012 8.29406 75.2188 9.79411 75.2188 11.6647V15.1587H62.0189V0.0529924H60.6777V16.4823H76.5953V11.6647C76.5953 9.03529 74.46 6.91766 71.8483 6.91766H69.8894L76.8246 0.0176641H75.0953L75.0776 0Z" fill="#392F2D"/>
</svg>
