<svg width="155" height="155" viewBox="0 0 155 155" fill="none" xmlns="http://www.w3.org/2000/svg">
<g filter="url(#filter0_d_420_1818)">
<path d="M123.993 77.4964C123.993 103.176 103.176 123.993 77.4964 123.993C51.8171 123.993 31 103.176 31 77.4964C31 51.8171 51.8171 31 77.4964 31C103.176 31 123.993 51.8171 123.993 77.4964Z" fill="white"/>
</g>
<g filter="url(#filter1_d_420_1818)">
<path d="M110.561 77.4964C110.561 95.7572 95.7572 110.561 77.4964 110.561C59.2357 110.561 44.4324 95.7572 44.4324 77.4964C44.4324 59.2357 59.2357 44.4324 77.4964 44.4324C95.7572 44.4324 110.561 59.2357 110.561 77.4964Z" fill="white"/>
</g>
<path d="M91.1966 78.6617V73.535C91.1966 67.1267 88.6332 64.5634 82.2249 64.5634H74.5349C68.1266 64.5634 65.5632 67.1267 65.5632 73.535V81.225C65.5632 87.6334 68.1266 90.1967 74.5349 90.1967H79.6616" stroke="#486AB5" stroke-width="1.5" stroke-linecap="round" stroke-linejoin="round"/>
<path d="M91.1966 78.6617V73.535C91.1966 67.1267 88.6332 64.5634 82.2249 64.5634H74.5349C68.1266 64.5634 65.5632 67.1267 65.5632 73.535V81.225C65.5632 87.6334 68.1266 90.1967 74.5349 90.1967H79.6616" stroke="#486AB5" stroke-width="1.5" stroke-linecap="round" stroke-linejoin="round"/>
<path d="M91.1966 78.6617V73.535C91.1966 67.1267 88.6332 64.5634 82.2249 64.5634H74.5349C68.1266 64.5634 65.5632 67.1267 65.5632 73.535V81.225C65.5632 87.6334 68.1266 90.1967 74.5349 90.1967H79.6616" stroke="#486AB5" stroke-width="1.5" stroke-linecap="round" stroke-linejoin="round"/>
<path d="M83.5066 86.9028L85.5316 88.915L89.9149 83.7883" stroke="#486AB5" stroke-width="1.5" stroke-linecap="round" stroke-linejoin="round"/>
<path d="M71.9717 75.4575V79.3025" stroke="#486AB5" stroke-width="1.71" stroke-linecap="round" stroke-linejoin="round"/>
<path d="M78.3799 75.4575V79.3025" stroke="#486AB5" stroke-width="1.5" stroke-linecap="round" stroke-linejoin="round"/>
<path d="M84.7883 75.4575V79.3025" stroke="#486AB5" stroke-width="1.5" stroke-linecap="round" stroke-linejoin="round"/>
<defs>
<filter id="filter0_d_420_1818" x="0.00242424" y="0.00242424" width="154.988" height="154.988" filterUnits="userSpaceOnUse" color-interpolation-filters="sRGB">
<feFlood flood-opacity="0" result="BackgroundImageFix"/>
<feColorMatrix in="SourceAlpha" type="matrix" values="0 0 0 0 0 0 0 0 0 0 0 0 0 0 0 0 0 0 127 0" result="hardAlpha"/>
<feOffset/>
<feGaussianBlur stdDeviation="15.4988"/>
<feComposite in2="hardAlpha" operator="out"/>
<feColorMatrix type="matrix" values="0 0 0 0 0.00392157 0 0 0 0 0.0705882 0 0 0 0 0.568627 0 0 0 0.05 0"/>
<feBlend mode="normal" in2="BackgroundImageFix" result="effect1_dropShadow_420_1818"/>
<feBlend mode="normal" in="SourceGraphic" in2="effect1_dropShadow_420_1818" result="shape"/>
</filter>
<filter id="filter1_d_420_1818" x="13.4348" y="13.4348" width="128.123" height="128.123" filterUnits="userSpaceOnUse" color-interpolation-filters="sRGB">
<feFlood flood-opacity="0" result="BackgroundImageFix"/>
<feColorMatrix in="SourceAlpha" type="matrix" values="0 0 0 0 0 0 0 0 0 0 0 0 0 0 0 0 0 0 127 0" result="hardAlpha"/>
<feOffset/>
<feGaussianBlur stdDeviation="15.4988"/>
<feComposite in2="hardAlpha" operator="out"/>
<feColorMatrix type="matrix" values="0 0 0 0 0.00392157 0 0 0 0 0.0705882 0 0 0 0 0.568627 0 0 0 0.08 0"/>
<feBlend mode="normal" in2="BackgroundImageFix" result="effect1_dropShadow_420_1818"/>
<feBlend mode="normal" in="SourceGraphic" in2="effect1_dropShadow_420_1818" result="shape"/>
</filter>
</defs>
</svg>
