<svg width="96" height="65" viewBox="0 0 96 65" fill="none" xmlns="http://www.w3.org/2000/svg">
<path d="M70.1765 42.0061C65.1503 41.3685 60.1772 41.6873 55.2255 42.6755C54.5241 42.8137 53.7909 43.0155 53.249 42.3142C52.7283 41.6554 53.1109 41.0497 53.3765 40.4334C56.9575 32.2406 60.5704 24.0585 64.0877 15.8445C64.619 14.6118 65.1928 13.4004 65.6391 12.1465C65.9686 11.2114 66.6061 10.7864 67.4881 11.1689C68.3488 11.5515 68.2957 12.3166 67.945 13.1135C65.0972 19.638 62.2706 26.1625 59.4334 32.6975C58.5302 34.7909 57.627 36.8842 56.7131 38.9776C56.5219 39.4239 56.2775 39.9233 57.1276 39.7745C61.4418 39.0307 65.7879 39.3602 70.1234 39.2858C70.8884 39.8383 71.7492 39.4664 72.5568 39.562C75.2133 40.1358 77.923 40.4865 80.5583 41.1666C83.948 42.0379 87.2421 43.1431 90.4512 44.5351C91.7688 45.1089 93.0015 45.8315 94.1066 46.7666C94.7973 47.351 95.3499 48.063 95.0523 48.9662C94.7442 49.9013 93.8941 50.2945 92.9165 50.2945C90.1643 50.2945 87.4759 50.6876 84.8937 51.6759C79.8782 53.6204 76.2228 57.0846 73.6725 61.7707C73.3856 62.302 73.29 62.9821 72.6737 63.3115C72.4611 61.6645 72.578 60.0068 72.5993 58.3597C73.205 58.0728 73.4493 57.4565 73.8319 56.9677C76.7009 53.3442 80.2076 50.6239 84.6175 49.1044C86.5833 48.4243 88.6235 48.1054 90.9507 47.7335C88.6554 46.3415 86.4451 45.5233 84.1924 44.8113C80.3988 43.6106 76.5734 42.548 72.578 42.2611C71.8023 41.8148 70.9628 42.0061 70.134 41.9848L70.1765 42.0061Z" fill="#949698"/>
<path d="M21.6147 34.1213C23.793 34.1213 25.7588 34.1213 27.7353 34.1213C29.1911 34.1213 28.4685 32.9631 28.4366 32.4424C28.3729 31.231 28.9892 31.1566 29.8924 31.1991C30.9869 31.2522 30.3918 32.1449 30.7319 32.7612C31.1569 32.1661 31.5288 31.6136 31.9433 31.0929C34.0898 28.3938 36.6081 26.2686 40.1573 25.6948C41.273 25.5141 42.3888 25.546 43.4939 25.8329C45.9273 26.4811 47.415 28.3513 47.4362 30.7953C47.4575 33.1968 46.0654 35.0352 43.6852 35.7578C42.9095 35.9915 42.1125 36.0659 41.2943 36.0659C30.2218 36.0659 19.16 36.0659 8.08752 36.0659C2.16875 36.0659 0.0222878 33.8769 0.0116616 27.9157C0.0116616 26.258 0.0435297 24.6003 0.00102508 22.9426C-0.0202272 22.1457 0.287955 21.965 1.02116 21.965C1.78624 21.965 2.14751 22.1031 2.12626 22.9957C2.0625 25.0572 2.09438 27.1187 2.12626 29.1802C2.17939 32.5062 3.78391 34.0788 7.14178 34.1213C8.25752 34.1319 9.38393 34.1107 10.4997 34.1213C11.2329 34.1319 11.4241 34.0044 11.0841 33.2075C9.83022 30.264 10.7653 27.5862 13.4006 26.2473C16.2165 24.8234 20.3076 25.6841 21.7953 28.0113C23.0811 30.0196 22.7622 31.9961 21.6359 34.1319L21.6147 34.1213ZM37.3626 34.1319C37.3626 34.1319 37.3626 34.1213 37.3626 34.1107C38.8821 34.1107 40.4123 34.1957 41.9212 34.0895C44.0784 33.9407 45.4279 32.5486 45.3854 30.7422C45.3323 28.872 43.8021 27.5544 41.6343 27.5119C38.5634 27.4587 33.9091 30.5297 32.7084 33.3669C32.464 33.9513 32.5383 34.1638 33.2078 34.1426C34.5892 34.1107 35.9812 34.1426 37.3626 34.1426V34.1319ZM16.546 34.1107C18.99 34.1107 20.4564 32.8887 20.4777 30.8485C20.5095 28.7551 19.0219 27.5119 16.4928 27.5225C14.0913 27.5225 12.593 28.8083 12.6143 30.8485C12.6355 32.8675 14.1338 34.1213 16.546 34.1107Z" fill="#535758"/>
<path d="M72.5777 39.562C71.7701 39.4557 70.8988 39.8277 70.1443 39.2857C70.1443 27.0975 70.1443 14.9093 70.1443 2.72108C70.1443 2.4023 70.155 2.09412 70.1443 1.77534C70.1018 0.946498 70.2612 0.192079 71.2069 0.0220608C72.0783 -0.126705 72.4821 0.500222 72.7902 1.20155C73.8529 3.66682 74.9155 6.13211 75.9781 8.59738C80.1648 18.2459 84.3409 27.9051 88.5276 37.5537C88.5807 37.6812 88.6444 37.798 88.6976 37.9256C89.0376 38.7225 89.2502 39.562 88.2619 40.0083C87.2206 40.4759 86.6892 39.7533 86.328 38.9138C84.9678 35.7472 83.6289 32.57 82.2581 29.414C79.3784 22.762 76.4882 16.1101 73.5978 9.4581C73.3853 8.97992 73.1303 8.52297 72.5883 8.10855V39.5832L72.5777 39.562Z" fill="#A67A5F"/>
<path d="M5.69679 55.2993C4.16663 55.2993 2.6577 55.1718 1.17004 54.7786C0.670608 54.6405 0.0543451 54.6193 0.362504 53.7585C0.596279 53.121 0.713159 52.6002 1.61638 52.8446C3.35907 53.3122 5.15485 53.4078 6.95067 53.3122C7.31196 53.2909 7.67326 53.2697 8.02392 53.206C9.79849 52.8766 10.6167 52.1646 10.4998 50.9213C10.3723 49.3911 9.06533 49.3805 8.00272 49.2105C6.50443 48.9661 4.97425 48.913 3.47596 48.6579C1.21259 48.2754 0.0862262 47.1278 0.0330954 45.3426C-0.0200354 43.3874 1.07445 42.0378 3.27406 41.4853C5.62244 40.9008 7.98141 41.1027 10.3404 41.4853C11.1374 41.6128 11.1374 42.0698 11.0418 42.7392C10.9355 43.4831 10.6167 43.5787 9.95789 43.4512C8.05581 43.0899 6.1537 42.8455 4.21974 43.2386C3.5928 43.3661 2.98712 43.5681 2.5727 44.0675C1.79699 44.992 2.24333 46.1396 3.55035 46.5115C4.94238 46.9153 6.38748 46.8834 7.81139 47.0428C8.66148 47.1384 9.49035 47.2978 10.2979 47.5953C11.5412 48.0522 12.5082 48.8173 12.6357 50.2519C12.7845 51.8245 12.3913 53.1847 10.978 54.0986C9.36285 55.14 7.53511 55.2781 5.68616 55.2674L5.69679 55.2993Z" fill="#535758"/>
<path d="M47.5213 50.2518C47.5213 51.5482 47.5427 52.8552 47.5108 54.1516C47.5108 54.5023 47.7658 55.0442 47.1814 55.1717C46.7244 55.2673 46.0762 55.4586 45.8106 54.9911C45.4068 54.2685 45.003 54.6723 44.5886 54.8211C42.7396 55.448 40.9013 55.5543 39.0736 54.7892C36.9696 53.8966 35.8433 51.8564 36.0877 49.4442C36.3214 47.2127 37.8303 45.47 39.9981 45.0237C41.1882 44.7793 42.389 44.79 43.6004 45.0981C44.4398 45.3106 45.2155 46.0226 46.1931 45.13C46.565 44.8006 47.6064 44.8962 47.532 46.097C47.447 47.4784 47.5108 48.8704 47.5108 50.2624L47.5213 50.2518ZM45.4387 50.0605C45.4387 49.4761 45.4174 48.8917 45.4387 48.3179C45.4599 47.8716 45.3536 47.5528 44.8861 47.3828C43.3772 46.8515 41.8577 46.5645 40.2744 47.0002C38.9567 47.3615 38.266 48.2541 38.1703 49.6249C38.0109 52.0051 39.0948 53.2165 41.4963 53.344C44.7054 53.5034 45.428 52.9083 45.428 50.0711L45.4387 50.0605Z" fill="#535758"/>
<path d="M25.5143 50.1562C25.5143 51.4951 25.5143 52.8446 25.5143 54.1835C25.5143 55.1823 24.5366 55.7455 23.8884 55.0336C23.3571 54.4491 23.0384 54.6723 22.539 54.8317C20.9344 55.3311 19.3086 55.5224 17.6615 55.0017C15.26 54.2366 13.953 52.2814 14.1018 49.6567C14.2399 47.2127 15.8869 45.3744 18.3097 44.96C19.7549 44.7049 21.1575 44.875 22.5283 45.3957C22.964 45.5657 23.3146 45.7994 23.8778 45.2363C24.5791 44.5349 25.5143 45.1937 25.5143 46.267C25.5143 47.5634 25.5143 48.8598 25.5143 50.1562ZM23.4103 50.0712C23.4103 47.3084 22.9746 46.862 20.1374 46.7983C19.5636 46.7876 18.9686 46.8196 18.4054 46.9577C16.9708 47.3084 16.227 48.2647 16.142 49.7417C16.0038 51.9307 17.1621 53.2059 19.3617 53.3121C22.7089 53.4821 23.3997 52.9296 23.3997 50.0605L23.4103 50.0712Z" fill="#535758"/>
<path d="M70.176 42.0061C70.9942 42.0274 71.8444 41.8254 72.6201 42.2823C72.6201 47.6485 72.6306 53.0041 72.6413 58.3703C72.62 60.0174 72.5031 61.6751 72.7157 63.3222C72.5669 64.2573 72.3331 65.1817 71.1005 64.9692C70.2185 64.8205 70.1548 64.066 70.1548 63.2903C70.176 56.192 70.176 49.1044 70.1866 42.0061H70.176Z" fill="#A67A5F"/>
<path d="M29.0103 51.0913C29.0103 50.0181 28.9891 48.9448 29.0103 47.8609C29.0316 47.2128 28.8722 46.8196 28.1284 46.8834C27.5545 46.9365 27.0658 46.9152 27.1508 46.0651C27.2252 45.3425 27.3421 44.8431 28.2347 44.96C28.6703 45.0238 28.9254 44.9069 29.0316 44.3437C29.4567 42.0378 30.2855 41.3153 32.602 41.1134C33.3139 41.0496 34.0259 41.1134 34.7485 41.1453C35.3967 41.1665 35.9705 41.1452 35.8323 42.176C35.7154 43.0792 35.3542 43.1324 34.6104 43.058C33.8559 42.9836 33.0908 43.0154 32.3363 43.0792C31.55 43.1429 31.0931 43.653 31.1249 44.4287C31.1568 45.3426 31.9326 44.8963 32.3682 44.9494C33.0271 45.0344 33.7071 44.9494 34.3765 44.9813C34.876 45.0132 35.6198 44.6519 35.5242 45.7251C35.4604 46.4902 35.3861 47.0428 34.3978 46.9153C33.7815 46.8409 33.1333 46.9684 32.517 46.8727C31.2737 46.6815 31.008 47.2553 31.0506 48.3817C31.1249 50.3475 31.04 52.324 31.0825 54.2898C31.1037 55.1293 30.6999 55.2249 30.0198 55.2249C29.3398 55.2249 28.9147 55.1611 28.9785 54.3004C29.0529 53.2272 28.9997 52.154 28.9997 51.0807L29.0103 51.0913Z" fill="#535758"/>
<path d="M17.8424 22.3901C17.7892 23.219 17.4174 23.7184 16.631 23.7609C15.8341 23.8034 15.3665 23.3571 15.324 22.5814C15.2921 21.8163 15.7066 21.3169 16.5035 21.2744C17.3005 21.2319 17.6936 21.7101 17.8424 22.3901Z" fill="#535758"/>
</svg>
