<svg width="211" height="50" viewBox="0 0 211 50" fill="none" xmlns="http://www.w3.org/2000/svg">
<path d="M61.5579 31.7625H68.2485C70.101 31.7625 71.4679 32.1401 72.3312 32.8955C73.1945 33.6509 73.6441 34.838 73.6441 36.4747C73.6441 37.4999 73.4643 38.3272 73.1226 38.9387C72.7809 39.5502 72.2233 40.0718 71.45 40.4675C72.3492 40.8092 73.0327 41.3308 73.4643 42.0142C73.896 42.6977 74.1298 43.597 74.1298 44.7301C74.1298 48.0754 72.2593 49.7481 68.5003 49.7481H61.5579V31.7804V31.7625ZM68.2485 39.5502C69.2197 39.5502 69.9391 39.3164 70.4068 38.8487C70.8744 38.3811 71.1082 37.6617 71.1082 36.7085C71.1082 35.7553 70.8743 35.0538 70.3707 34.6042C69.8851 34.1545 69.1297 33.9387 68.1045 33.9387H64.0578V39.5502H68.2305H68.2485ZM68.4104 47.5538C69.4715 47.5538 70.2628 47.338 70.8204 46.9063C71.36 46.4747 71.6298 45.7372 71.6298 44.7121C71.6298 42.7157 70.5327 41.7444 68.3025 41.7444H64.0758V47.5718H68.4104V47.5538Z" fill="#005298"/>
<path d="M87.8345 47.5178V49.7301H77.8525V31.7625H80.3525V47.4999H87.8165L87.8345 47.5178Z" fill="#005298"/>
<path d="M92.3493 49.0648C91.3062 48.4173 90.5507 47.4281 90.0831 46.0972C89.6155 44.7662 89.3997 43.0216 89.3997 40.8273C89.3997 38.6331 89.6335 36.9065 90.0831 35.5396C90.5328 34.1727 91.3062 33.1655 92.3493 32.482C93.3925 31.8166 94.8133 31.4749 96.5939 31.4749C98.3745 31.4749 99.7773 31.8166 100.838 32.482C101.9 33.1475 102.655 34.1727 103.105 35.5216C103.554 36.8705 103.788 38.6511 103.788 40.8453C103.788 43.0396 103.554 44.7662 103.105 46.0972C102.655 47.4281 101.9 48.3993 100.856 49.0468C99.8133 49.6943 98.3925 50 96.5759 50C94.8133 50 93.3925 49.6763 92.3313 49.0468L92.3493 49.0648ZM99.4177 47.1044C100.083 46.6367 100.551 45.9173 100.82 44.9281C101.09 43.9389 101.216 42.572 101.216 40.8453C101.216 39.1187 101.072 37.7339 100.803 36.7087C100.515 35.6655 100.047 34.9101 99.3817 34.4065C98.7162 33.9029 97.781 33.6691 96.5939 33.6691C95.4069 33.6691 94.4896 33.9209 93.8062 34.4065C93.1407 34.8921 92.655 35.6655 92.3852 36.6907C92.1154 37.7159 91.9716 39.1007 91.9716 40.8273C91.9716 42.554 92.0975 43.849 92.3673 44.8562C92.6371 45.8634 93.1047 46.6007 93.7702 47.0684C94.4356 47.554 95.3709 47.8058 96.5939 47.8058C97.7989 47.8058 98.7522 47.5899 99.4177 47.1223V47.1044Z" fill="#005298"/>
<path d="M125.406 31.7625V49.7301H122.906V34.4962H122.511L117.834 49.0286H115.173L110.478 34.4962H110.119V49.7481H107.619V31.7804H112.007L116.522 46.4387L121.018 31.7804H125.424L125.406 31.7625Z" fill="#005298"/>
<path d="M129.939 31.7625H132.439V49.7301H129.939V31.7625Z" fill="#005298"/>
<path d="M150.46 31.7625V49.7301H146.072L139.849 33.9567H139.435V49.7301H136.935V31.7625H141.395L147.475 47.5358H147.942V31.7625H150.424H150.46Z" fill="#005298"/>
<path d="M153.41 31.7625H156.018L159.831 47.5358H161.216L165.029 31.7625H167.637L163.086 49.7301H157.924L153.41 31.7625Z" fill="#005298"/>
<path d="M173.14 33.9571V39.5326H180.191V41.6909H173.14V47.5182H181.755V49.7125H170.64V31.7449H181.755V33.9391H173.14V33.9571Z" fill="#005298"/>
<path d="M185.406 49.4964L184.471 49.3345L184.741 47.3201C187.097 47.6439 188.878 47.7877 190.119 47.7877C192.475 47.7877 193.644 46.7086 193.644 44.5683C193.644 43.9748 193.518 43.4892 193.284 43.1474C193.05 42.7877 192.655 42.4999 192.133 42.2841C191.593 42.0683 190.856 41.8525 189.903 41.6367C188.5 41.3129 187.403 40.9352 186.611 40.5216C185.82 40.1259 185.263 39.5863 184.885 38.9388C184.525 38.2913 184.345 37.446 184.345 36.4028C184.345 34.7482 184.831 33.5072 185.838 32.6618C186.827 31.8345 188.302 31.4028 190.227 31.4028C190.928 31.4028 191.719 31.4388 192.547 31.5287C193.374 31.6187 194.471 31.7625 195.82 31.9963L195.604 34.0287C193.23 33.7589 191.504 33.6151 190.442 33.6151C188.068 33.6151 186.863 34.4963 186.863 36.223C186.863 36.8704 186.989 37.374 187.259 37.7338C187.529 38.0935 187.96 38.3992 188.554 38.633C189.147 38.8668 190.047 39.1187 191.234 39.4065C192.493 39.7302 193.464 40.0719 194.165 40.4496C194.867 40.8273 195.37 41.3309 195.694 41.9424C196.018 42.5539 196.18 43.3453 196.18 44.3525C196.18 46.205 195.676 47.5899 194.687 48.5251C193.68 49.4604 192.223 49.928 190.316 49.928C189.075 49.946 187.457 49.7661 185.424 49.4424L185.406 49.4964Z" fill="#005298"/>
<path d="M203.212 33.9928H197.906V31.7805H210.964V33.9928H205.712V49.7302H203.212V33.9928Z" fill="#005298"/>
<path d="M70.6945 3.07568H68.4104V5.68362H70.6945V3.07568Z" fill="#005298"/>
<path d="M74.2738 3.07568H72.0076V5.68362H74.2738V3.07568Z" fill="#005298"/>
<path d="M83.6622 16.7804H79.7054V5.66528H77.1514V16.7804H69.0579C67.2593 16.7804 66.0183 16.5466 65.3349 16.0969C64.6514 15.6293 64.2917 14.8919 64.2917 13.8487C64.2917 13.2192 64.3996 12.1581 64.6154 10.6653L64.8492 8.68685L62.8348 8.57894C62.619 9.56815 62.4391 10.5934 62.2593 11.6905C62.0794 12.7876 62.0076 13.7049 62.0076 14.4423C62.0076 15.6293 62.2774 16.5646 62.7989 17.248C63.3205 17.9135 64.1119 18.3811 65.1551 18.6509C66.1982 18.9207 67.5292 19.0466 69.2018 19.0466H90.4068V16.7804H83.6622Z" fill="#005298"/>
<path d="M123.554 0.557617H121.108V3.1835H123.554V0.557617Z" fill="#005298"/>
<path d="M136.756 0.557617H134.31V3.1835H136.756V0.557617Z" fill="#005298"/>
<path d="M134.238 16.7806H127.781V5.98919L126.846 5.88128C125.713 5.75538 124.454 5.70142 123.051 5.70142C121.36 5.70142 120.047 5.91724 119.112 6.31292C118.177 6.72659 117.475 7.41009 117.062 8.38131C116.648 9.35253 116.414 10.7194 116.414 12.482C116.414 14.2446 116.63 15.7554 117.043 16.7626H111.108V11.6007C111.108 10.9892 111.018 10.1079 110.856 8.97481C110.677 7.82373 110.497 6.72662 110.281 5.66546L108.123 5.73742C108.41 8.39929 108.554 10.3417 108.554 11.6007V16.7626H105.982C105.623 16.7626 105.263 16.6907 104.903 16.5288C104.543 16.3669 104.238 16.187 103.986 15.9892C104.22 15.1978 104.328 14.2806 104.328 13.2554V6.99638H101.756V13.2913C101.756 14.2806 101.576 15.1079 101.216 15.7734C100.838 16.4209 100.263 16.7626 99.4715 16.7626H97.2593V6.99638H94.7054V16.7626H90.4248V19.0288H100.299C101.378 19.0288 102.241 18.669 102.907 17.9496C103.788 18.6511 104.777 19.0288 105.892 19.0288H136.828V5.64746H134.274V16.7626L134.238 16.7806ZM125.209 16.7806H119.795C119.544 16.4029 119.328 15.9173 119.166 15.3237C119.004 14.7302 118.932 13.8489 118.932 12.6978C118.932 11.4568 119.04 10.5216 119.256 9.83814C119.472 9.15469 119.849 8.66906 120.407 8.36331C120.964 8.05755 121.792 7.89566 122.853 7.89566C123.302 7.89566 124.076 7.93165 125.191 8.02158V16.7806H125.209Z" fill="#005298"/>
<path d="M143.77 0H141.216V19.0468H143.77V0Z" fill="#005298"/>
<path d="M145.281 23.9389L142.259 24.7482C141.846 24.4065 141.63 23.9928 141.63 23.5072C141.63 23.0936 141.774 22.7519 142.044 22.4641C142.313 22.1763 142.691 22.0325 143.141 22.0325C143.41 22.0325 143.662 22.0684 143.878 22.1583C144.094 22.2303 144.256 22.3202 144.364 22.4101L144.651 21.2051C144.004 20.7734 143.339 20.5576 142.655 20.5576C141.882 20.5576 141.252 20.8094 140.785 21.313C140.299 21.8166 140.047 22.4101 140.047 23.0756C140.047 23.849 140.371 24.5145 140.982 25.054L139.723 25.3958L139.993 26.349L145.587 25.2518L145.263 23.9029L145.281 23.9389Z" fill="#005298"/>
<path d="M164.813 5.39575C163.86 5.39575 162.942 5.4677 162.079 5.62957C161.216 5.79144 160.55 5.97128 160.083 6.16912C159.885 6.9425 159.705 7.89575 159.543 9.04683C159.381 10.1979 159.309 11.331 159.309 12.4641C159.309 14.0109 159.471 15.5756 159.777 17.1224C158.212 17.8058 157.421 19.3346 157.421 21.7087C157.421 23.2015 157.709 25.2339 158.302 27.8238L160.442 27.7699C159.957 25.5756 159.723 23.9029 159.723 22.7339C159.723 20.2878 160.712 19.0648 162.691 19.0648H171.324V12.3742C171.324 9.91015 170.82 8.12954 169.813 7.0504C168.806 5.97126 167.133 5.4317 164.813 5.4317V5.39575ZM168.77 16.7806H162.187C162.097 16.295 162.007 15.6655 161.935 14.8742C161.863 14.0828 161.809 13.2735 161.809 12.4821C161.809 11.0972 161.935 9.56842 162.205 7.93173C162.942 7.76986 163.698 7.69791 164.453 7.69791C165.946 7.69791 167.043 8.05763 167.727 8.77706C168.41 9.49648 168.752 10.6835 168.752 12.3202V16.7806H168.77Z" fill="#005298"/>
<path d="M210.964 21.187H208.536V23.8129H210.964V21.187Z" fill="#005298"/>
<path d="M208.446 5.66546V16.7806H201.252V0H198.698V16.7806H185.442V5.71941C184.759 5.57553 183.896 5.44963 182.835 5.32373C181.773 5.19783 180.838 5.14386 180.011 5.14386C178.554 5.14386 177.385 5.37768 176.54 5.88128C175.694 6.36689 175.083 7.14029 174.723 8.20144C174.363 9.2446 174.165 10.6655 174.147 12.4281C174.147 14.2986 174.471 15.8633 175.119 17.1403C175.766 18.3993 177.133 19.0468 179.201 19.0468H182.87C182.87 20.2518 182.781 21.1871 182.583 21.8166C182.385 22.4461 182.097 22.8777 181.737 23.0755C181.36 23.2914 180.874 23.3993 180.263 23.3993C179.309 23.3993 177.96 23.2554 176.216 22.9676V25.2338C178.284 25.5216 179.687 25.6655 180.442 25.6655C182.133 25.6655 183.356 25.0899 184.094 23.9209C184.831 22.7698 185.263 21.1151 185.388 19.0288H211V5.66546H208.446ZM182.888 16.7806H180.029C178.644 16.7806 177.763 16.3669 177.331 15.5395C176.899 14.7122 176.683 13.6511 176.683 12.3741C176.701 10.6115 176.989 9.3525 177.565 8.57912C178.122 7.82372 179.13 7.44602 180.586 7.44602C181.27 7.44602 182.043 7.51797 182.906 7.62589V16.7806H182.888Z" fill="#005298"/>
<path d="M49.8847 49.6763V7.23022H49.8307L49.7588 7.26618L49.7048 7.28418L49.6329 7.32013L49.543 7.33813L49.489 7.35614L49.3991 7.39209L49.3451 7.41009L49.2732 7.44604L49.2013 7.46405L49.1293 7.5L49.0754 7.518L48.9855 7.55395L48.9314 7.57196L48.8415 7.62591L48.7695 7.64391L48.7156 7.66186L48.6437 7.69787L48.5717 7.71582L48.4818 7.75182L48.4099 7.76977L48.3739 7.80578L48.284 7.82373L48.212 7.85973L48.1401 7.87774L48.0862 7.93169L48.0142 7.94964L47.9243 7.96764L47.8523 8.00359L47.7983 8.0396L47.7444 8.05755L47.6544 8.07555L47.5825 8.1115L47.5106 8.12951L47.4566 8.18346L47.3667 8.20146L47.2948 8.23741L47.2228 8.25542L47.1869 8.29137L47.0969 8.30937L47.007 8.32738L46.9531 8.36333L46.8991 8.41728L46.8272 8.45323L46.7372 8.47124L46.6652 8.48924L46.6292 8.52519L46.5393 8.54319L46.4674 8.56114L46.3955 8.6151L46.3415 8.6511L46.2696 8.66905L46.1796 8.70506L46.1077 8.72301L46.0717 8.75901L45.9818 8.79496L45.9099 8.83097L45.838 8.84892L45.784 8.86692L45.7121 8.90287L45.622 8.95683L45.5681 8.97483L45.5141 9.01078L45.4242 9.02879L45.3523 9.06474L45.2983 9.10074L45.2264 9.1367L45.1545 9.1547L45.0825 9.17265L45.0286 9.20865L44.9566 9.26261L44.8667 9.28061L44.8128 9.31656L44.7408 9.33457L44.6689 9.37052L44.597 9.42447L44.5429 9.44248L44.471 9.47843L44.399 9.49643L44.3091 9.51438L44.2552 9.56833L44.1832 9.58634L44.1113 9.62229L44.0573 9.64029L43.9854 9.69425L43.9135 9.73025L43.8415 9.7482L43.7876 9.7662L43.6977 9.82016L43.6257 9.85611L43.5718 9.87411L43.4997 9.89212L43.4278 9.94607L43.3738 9.98202L43.3019 10L43.23 10.036L43.1401 10.0719L43.0861 10.1079L43.0142 10.1259L42.9422 10.1799L42.8883 10.1978L42.8163 10.2338L42.7444 10.2518L42.6905 10.3058L42.6185 10.3418L42.5286 10.3597L42.4926 10.4137L42.4207 10.4317L42.3307 10.4676L42.2587 10.4856L42.2048 10.5396L42.1328 10.5576L42.0609 10.5935L42.007 10.6475L41.935 10.6655L41.8631 10.7014L41.8091 10.7374L41.7192 10.7734L41.6653 10.7914L41.6113 10.8454L41.5394 10.8633L41.4495 10.8993L41.3955 10.9533L41.3236 10.9712L41.2515 11.0072L41.1976 11.0612L41.1256 11.0792L41.0537 11.0971L40.9998 11.1511L40.9278 11.1691L40.8379 11.205L40.8019 11.259L40.73 11.277L40.6401 11.3129L40.5861 11.3669L40.5142 11.3849L40.4423 11.4208L40.3883 11.4569L40.3164 11.4749L40.2444 11.5108L40.1905 11.5648L40.1184 11.5828L40.0645 11.6367L39.9746 11.6727L39.9026 11.6907L39.8667 11.7446L39.7767 11.7626L39.7048 11.8165L39.6509 11.8345L39.5789 11.8705L39.507 11.9245L39.453 11.9605L39.3811 11.9785L39.3271 12.0144L39.2552 12.0504L39.1653 12.0864L39.1293 12.1223L39.0574 12.1763L38.9674 12.1943L38.9134 12.2302L38.8415 12.2842L38.7695 12.3022L38.7156 12.3561L38.6437 12.3741L38.5897 12.4101L38.5178 12.446L38.4458 12.482L38.3919 12.536L38.3199 12.572L38.266 12.6079L38.1941 12.6439L38.1041 12.6619L38.0502 12.7158L37.9962 12.7338L37.9423 12.7878L37.8523 12.8238L37.7803 12.8777L37.7264 12.8957L37.6544 12.9496L37.5825 12.9676L37.5285 13.0216L37.4566 13.0396L37.4027 13.0756L37.3307 13.1295L37.2768 13.1475L37.2048 13.2015L37.1329 13.2374L37.0789 13.2734L36.989 13.3094L36.9531 13.3453L36.8631 13.3813L36.7911 13.4353L36.7371 13.4532L36.6652 13.5072L36.6113 13.5432L36.5393 13.5791L36.4674 13.6151L36.4134 13.6511L36.3415 13.6871L36.2875 13.741L36.2156 13.759L36.1617 13.813L36.0897 13.8489L36.0178 13.8849L35.9638 13.9209L35.8739 13.9568L35.82 13.9928L35.766 14.0468L35.7121 14.0647L35.64 14.1187L35.5501 14.1547L35.4962 14.1907L35.4242 14.2267L35.3882 14.2626L35.2983 14.3166L35.2444 14.3525L35.1724 14.4065L35.1365 14.4245L35.0466 14.4784L34.9926 14.5144L34.9207 14.5504L34.8487 14.5683L34.7948 14.6223L34.7049 14.6763L34.6689 14.7122L34.597 14.7662L34.5429 14.7842L34.471 14.8382L34.417 14.8561L34.3451 14.9101L34.2911 14.9281L34.2192 14.982L34.1293 15.036L34.0933 15.072L34.0214 15.1259L33.9674 15.1439L33.8775 15.1978L33.8235 15.2338L33.7516 15.2698L33.7156 15.3238L33.6257 15.3418L33.5718 15.3957L33.4997 15.4497L33.4639 15.4676L33.3738 15.5216L33.3199 15.5396L33.248 15.5935L33.212 15.6475L33.1221 15.6835L33.0681 15.7374L32.9962 15.7554L32.9602 15.8093L32.8703 15.8454L32.8163 15.8813L32.7444 15.9353L32.6904 15.9533L32.6185 16.0072L32.5646 16.0612L32.4926 16.0971L32.4387 16.1331L32.3666 16.1871L32.3127 16.205L32.2407 16.259L32.1868 16.3129L32.1149 16.3489L32.0609 16.3849L31.989 16.4389L31.935 16.4569L31.8631 16.5108L31.8091 16.5468L31.7372 16.6007L31.6832 16.6547L31.6113 16.6727L31.5574 16.7266L31.4854 16.7806L31.4315 16.7986L31.3415 16.8525L31.3056 16.9065L31.2515 16.9245L31.1796 16.9785L31.1256 17.0324L31.0537 17.0864L30.9998 17.1043L30.9278 17.1583L30.8739 17.2122L30.7839 17.2302L30.748 17.2842L30.676 17.3381L30.6221 17.3561L30.5681 17.4101L30.4962 17.464L30.4422 17.482L30.3703 17.554L30.3164 17.59L30.2444 17.6439L30.1905 17.6619L30.1184 17.7158L30.0645 17.7698L30.0105 17.7878L29.9386 17.8597L29.8846 17.8957L29.8127 17.9496L29.7588 17.9676L29.6688 18.0216L29.6329 18.0756L29.5789 18.1295L29.507 18.1655L29.453 18.2015L29.3811 18.2554L29.3271 18.2914L29.2552 18.3274L29.2013 18.3813L29.1473 18.4353L29.0754 18.4892L29.0394 18.5072L28.9494 18.5611L28.8954 18.6151L28.8235 18.6691L28.7695 18.6871L28.7336 18.741L28.6436 18.795L28.5897 18.8489L28.5178 18.8669L28.4818 18.9209L28.4278 18.9568L28.3379 19.0288L28.284 19.0468L28.212 19.1007L28.1761 19.1547L28.1221 19.2087L28.0322 19.2446L27.9962 19.2806L27.9423 19.3346L27.8702 19.3885L27.8163 19.4245L27.7443 19.4784L27.6904 19.4964L27.6364 19.5504L27.5645 19.6043L27.5106 19.6583L27.4566 19.7122L27.3847 19.7482L27.3307 19.7842L27.2588 19.8382L27.2048 19.8921L27.1509 19.9461L27.0789 19.964L27.025 20.018L26.971 20.072L26.8991 20.1259L26.845 20.1619L26.7731 20.2158L26.7192 20.2518L26.6652 20.3057L26.5933 20.3597L26.5573 20.3957L26.5034 20.4497L26.4134 20.5036L26.3595 20.5216L26.3235 20.5756L26.2516 20.6295L26.1976 20.6835L26.1437 20.7374L26.0717 20.7734L26.0178 20.8273L25.9638 20.8633L25.8919 20.9173L25.8379 20.9713L25.784 21.0072L25.7121 21.0612L25.676 21.1151L25.622 21.1691L25.5321 21.1871L25.4782 21.241L25.4422 21.295L25.3703 21.3489L25.2983 21.4029L25.2444 21.4389L25.1904 21.4928L25.1365 21.5468L25.0825 21.5828L25.0645 21.6367L24.9746 21.6727L24.9207 21.7266L24.8847 21.7806L24.8128 21.8345L24.7588 21.8885L24.6869 21.9424L24.6329 21.9785L24.579 22.0324L24.5249 22.0504L24.471 22.1043L24.399 22.1583L24.3451 22.2122L24.3091 22.2662L24.2192 22.3022L24.1652 22.3561L24.1113 22.4101L24.0753 22.464L24.0034 22.518L23.9494 22.572L23.8955 22.6259L23.8235 22.6439L23.7696 22.6979L23.7156 22.7518L23.6617 22.8058L23.5897 22.8597L23.5358 22.8957L23.4817 22.9496L23.4458 23.0036L23.3559 23.0575L23.3019 23.1115L23.2659 23.1475L23.212 23.2015L23.14 23.2554L23.0861 23.3094L23.0321 23.3633L22.9782 23.4173L22.9063 23.4712L22.8523 23.5072L22.7983 23.5611L22.7624 23.6152L22.6725 23.6691L22.6365 23.7051L22.5825 23.741L22.5286 23.795L22.4567 23.8489L22.4027 23.8849L22.3486 23.9389L22.2947 24.0108L22.2228 24.0468L22.1688 24.1007L22.1328 24.1547L22.0789 24.1907L22.0249 24.2446L21.935 24.3166L21.899 24.3525L21.8451 24.4065L21.8091 24.4604L21.7192 24.4964L21.6653 24.5504L21.6113 24.6223L21.5753 24.6583L21.5214 24.7122L21.4315 24.7662L21.3775 24.8022L21.3415 24.8741L21.2876 24.9101L21.2335 24.9641L21.1616 25.018L21.1077 25.054L21.0717 25.1079L21.0177 25.1978L20.9638 25.2518L20.9098 25.3057L20.8199 25.3418L20.7839 25.3957L20.73 25.4497L20.694 25.5036L20.6401 25.5576L20.5501 25.5935L20.4962 25.6655L20.4602 25.7014L20.4063 25.7554L20.3523 25.8093L20.2984 25.8634L20.2264 25.9173L20.1725 25.9533L20.1364 26.0072L20.0825 26.0612L20.0285 26.1151L19.9746 26.1691L19.9026 26.205L19.8487 26.295L19.7947 26.3489L19.7408 26.4029L19.6868 26.4569L19.6508 26.4928L19.5969 26.5468L19.525 26.6007L19.471 26.6547L19.4171 26.7086L19.3631 26.7626L19.3092 26.7986L19.2732 26.8525L19.2192 26.9065L19.1653 26.9785L19.0933 27.0324L19.0394 27.0864L18.9853 27.1223L18.9314 27.1763L18.8774 27.2302L18.8415 27.2842L18.7875 27.3381L18.7336 27.3921L18.6616 27.446L18.6077 27.518L18.5537 27.572L18.4998 27.6259L18.4638 27.6799L18.4099 27.7159L18.3559 27.7698L18.3019 27.8238L18.248 27.8777L18.212 27.9496L18.1221 28.0036L18.0682 28.0575L18.0322 28.0936L17.9782 28.1475L17.9243 28.2015L17.8702 28.2554L17.8163 28.3094L17.7623 28.3813L17.7264 28.4353L17.6724 28.4892L17.6185 28.5252L17.5645 28.5971L17.4926 28.6331L17.4566 28.6871L17.4026 28.759L17.3487 28.813L17.2947 28.8669L17.2408 28.9209L17.1868 28.9748L17.1509 29.0108L17.0969 29.1007L17.043 29.1547L16.989 29.1907L16.9351 29.2446L16.8991 29.2986L16.845 29.3525L16.7911 29.4245L16.7371 29.4784L16.6832 29.5324L16.6472 29.5863L16.5753 29.6223L16.5213 29.6763L16.4494 29.7662L16.4134 29.8202L16.3595 29.8561L16.3235 29.9101L16.2696 29.9641L16.2156 30.036L16.1437 30.0899L16.1077 30.1439L16.0537 30.1978L16.0178 30.2338L15.9638 30.3238L15.9099 30.3777L15.8559 30.4137L15.802 30.4677L15.748 30.5216L15.7121 30.5935L15.658 30.6475L15.604 30.7014L15.5501 30.7554L15.4961 30.8094L15.4602 30.8813L15.4062 30.9353L15.3523 30.9892L15.2983 31.0432L15.2444 31.1151L15.2084 31.1511L15.1544 31.205L15.1005 31.259L15.0465 31.313L14.9926 31.3849L14.9566 31.4389L14.9027 31.4928L14.8487 31.5468L14.7948 31.6187L14.7408 31.6727L14.6869 31.7087L14.6509 31.7626L14.5968 31.8525L14.5609 31.9065L14.5069 31.9424L14.471 31.9964L14.417 32.0684L14.3631 32.1223L14.3091 32.1763L14.2551 32.2302L14.2192 32.3022L14.1652 32.3561L14.1113 32.4101L14.0573 32.464L14.0034 32.536L13.9494 32.59L13.8955 32.6259L13.8595 32.6799L13.8055 32.7698L13.7516 32.8238L13.6976 32.8597L13.6797 32.9317L13.6257 32.9856L13.5897 33.0396L13.5358 33.0936L13.4817 33.1655L13.4278 33.2195L13.3738 33.2734L13.3379 33.3453L13.2839 33.4173L13.23 33.4532L13.176 33.5072L13.1221 33.5791L13.1041 33.6331L13.0501 33.6871L12.9962 33.759L12.9422 33.813L12.8883 33.8669L12.8523 33.9389L12.7983 33.9928L12.7624 34.0468L12.7084 34.1187L12.6725 34.1547L12.6185 34.2087L12.5646 34.2626L12.5286 34.3346L12.4746 34.3885L12.4207 34.4425L12.3666 34.5144L12.3127 34.5863L12.2947 34.6223L12.2407 34.6942L12.2048 34.7482L12.1508 34.8022L12.0969 34.8921L12.0429 34.9281L11.989 34.982L11.935 35.054L11.917 35.1079L11.8631 35.1619L11.8091 35.2338L11.7552 35.2878L11.7012 35.3418L11.6653 35.4137L11.6293 35.4677L11.5933 35.5216L11.5394 35.5935L11.4854 35.6295L11.4315 35.7194L11.3955 35.7734L11.3595 35.8273L11.3056 35.8993L11.2515 35.9533L11.1976 35.9892L11.1616 36.0792L11.1076 36.1331L11.0897 36.1871L11.0357 36.241L10.9818 36.295L10.9278 36.3849L10.8739 36.4389L10.8559 36.4928L10.8019 36.5648L10.748 36.6007L10.694 36.6727L10.6401 36.7446L10.6221 36.7986L10.5861 36.8525L10.5322 36.9065L10.4782 36.9785L10.4243 37.0504L10.3883 37.1044L10.3523 37.1583L10.2984 37.2123L10.2444 37.2842L10.2264 37.3561L10.1725 37.4101L10.1184 37.482L10.0645 37.536L10.0285 37.59L9.99253 37.6619L9.93863 37.6979L9.88462 37.7878L9.84873 37.8417L9.81272 37.8957L9.77671 37.9676L9.72281 38.0216L9.6688 38.0756L9.63291 38.1475L9.5969 38.2015L9.54289 38.2734L9.48899 38.3094L9.47099 38.3993L9.41709 38.4533L9.36308 38.5252L9.30907 38.5791L9.29118 38.6331L9.23717 38.7051L9.18327 38.759L9.14726 38.831L9.11125 38.8849L9.05735 38.9569L9.00334 39.0108L8.98534 39.0648L8.93144 39.1367L8.89543 39.1907L8.82353 39.2626L8.80553 39.3166L8.76952 39.3885L8.71562 39.4425L8.67962 39.5144L8.64361 39.5684L8.58971 39.6403L8.5537 39.6942L8.4998 39.7482L8.4638 39.8202L8.40979 39.8741L8.39189 39.9461L8.33789 40L8.28399 40.072L8.24798 40.1259L8.21197 40.1978L8.15807 40.2519L8.12207 40.3238L8.08606 40.3777L8.03216 40.4497L7.99615 40.5036L7.94225 40.5576L7.90625 40.6475L7.87024 40.6835L7.83434 40.7554L7.78034 40.8094L7.74433 40.8993L7.69043 40.9533L7.63642 41.0252L7.61853 41.0612L7.58252 41.1511L7.52851 41.2051L7.49261 41.277L7.4386 41.3309L7.4026 41.4029L7.3667 41.4569L7.33069 41.5288L7.29469 41.5828L7.24079 41.6547L7.18678 41.7087L7.16889 41.7806L7.11488 41.8345L7.07887 41.9065L7.04297 41.9604L6.98896 42.0324L6.97096 42.0864L6.91706 42.1763L6.86305 42.2123L6.84505 42.2842L6.79115 42.3381L6.77315 42.4281L6.71925 42.464L6.66524 42.536L6.62923 42.59L6.59333 42.6799L6.55733 42.7159L6.52132 42.8058L6.46742 42.8777L6.43141 42.9317L6.37751 43.0036L6.35951 43.0576L6.3055 43.1295L6.2696 43.1835L6.2336 43.2554L6.19759 43.3094L6.16159 43.3813L6.10769 43.4353L6.08968 43.5072L6.03578 43.5612L5.98177 43.6331L5.96377 43.6871L5.90987 43.759L5.87386 43.849L5.81996 43.9029L5.80196 43.9748L5.76595 44.0108L5.72995 44.1007L5.69405 44.1547L5.64004 44.2267L5.60404 44.2806L5.55014 44.3526L5.53213 44.4245L5.47823 44.4784L5.46023 44.5684L5.40622 44.6043L5.38822 44.6763L5.33432 44.7303L5.29831 44.8202L5.24441 44.8921L5.22641 44.9281L5.1724 45.018L5.1544 45.072L5.1005 45.1439L5.08249 45.1979L5.02859 45.2698L4.99259 45.3418L4.95658 45.3957L4.92068 45.4856L4.88468 45.5216L4.84867 45.5935L4.79477 45.6475L4.77677 45.7194L4.72276 45.8094L4.68686 45.8454L4.65086 45.9353L4.63285 45.9892L4.57895 46.0612L4.54295 46.1331L4.48894 46.1871L4.47104 46.259L4.41703 46.313L4.39903 46.3849L4.34513 46.4749L4.32713 46.5108L4.27312 46.6008L4.23722 46.6547L4.18321 46.7266L4.16521 46.7986L4.12931 46.8525L4.09331 46.9245L4.0753 46.9785L4.0214 47.0504L3.9854 47.1223L3.93139 47.1763L3.91338 47.2482L3.85948 47.3022L3.84148 47.3741L3.78758 47.464L3.76958 47.518L3.73357 47.59L3.67967 47.6619L3.66167 47.7159L3.60766 47.7878L3.58966 47.8417L3.55376 47.9137L3.51775 47.9856L3.48175 48.0396L3.42785 48.1295L3.40984 48.2015L3.35583 48.2554L3.33794 48.3274L3.31994 48.3813L3.26593 48.4533L3.23003 48.5252L3.17602 48.5791L3.15802 48.6511L3.14001 48.741L3.08612 48.777L3.05011 48.849L3.0141 48.9389L2.99621 48.9928L2.9602 49.0648L2.90619 49.1187L2.8883 49.1907L2.85229 49.2626L2.81629 49.3166L2.78039 49.3885L2.74438 49.4605L2.70838 49.5144L2.69037 49.6043L2.63647 49.6763H49.8847Z" fill="#005298"/>
<path d="M0.783936 5.48959e-05V49.6226V49.5326L0.819942 49.4787L0.873951 49.4068V49.3348L0.909848 49.2989L0.945854 49.2269V49.1549L0.98186 49.119L1.03576 49.047V48.9751L1.07177 48.9211L1.12567 48.8492V48.7773L1.19768 48.7413V48.6694L1.23357 48.5974L1.28758 48.5434V48.4715L1.34148 48.3996L1.39549 48.3456V48.2737L1.4674 48.2017V48.1478L1.5034 48.0758L1.5573 48.0218L1.59331 47.9499L1.62931 47.878L1.66521 47.842V47.7701L1.73722 47.6981V47.6442L1.80913 47.5722V47.5003L1.84513 47.4464L1.89903 47.3744V47.3384L1.97105 47.2665V47.1945L2.00694 47.1406L2.06095 47.0686V46.9967L2.13285 46.9427V46.8708L2.20487 46.8168V46.7449L2.24076 46.6729L2.29477 46.637V46.565L2.36668 46.4931V46.4571L2.43869 46.3851V46.3492L2.51059 46.2772V46.2053L2.58249 46.1693V46.0974L2.6185 46.0614L2.67251 45.9895V45.9176L2.74441 45.8636V45.7916L2.81631 45.7377V45.6657L2.88833 45.5938V45.5578L2.96023 45.4859V45.4319L3.03213 45.36V45.2881L3.10415 45.2341V45.1621L3.17605 45.1262V45.0542L3.24795 45.0003V44.9283L3.31996 44.8564V44.8025L3.39187 44.7305L3.42787 44.6765L3.46377 44.6046V44.5326L3.53578 44.4787V44.4068L3.60768 44.3528V44.2809L3.6797 44.2269V44.1549L3.7516 44.101L3.78761 44.029L3.8235 43.9571V43.9032L3.89552 43.8312L3.93141 43.7773V43.7053L4.00342 43.6514V43.5794L4.07533 43.5075V43.4535L4.14723 43.3816V43.3276L4.21924 43.2557L4.27314 43.2017V43.1298L4.34515 43.0758V43.0039L4.41706 42.9499V42.878L4.48896 42.806L4.54297 42.7521V42.6801L4.61487 42.6262V42.5543L4.68688 42.5003V42.4283L4.75879 42.3744L4.79479 42.3024L4.83069 42.2485L4.8847 42.1765V42.1226L4.9566 42.0507L5.01061 42.0147V41.9427L5.08252 41.8887V41.8168L5.15442 41.7629L5.20843 41.6909V41.637L5.28033 41.565V41.4931L5.35234 41.4391L5.40624 41.3672V41.3132L5.47825 41.2413L5.53215 41.1873V41.1154L5.60406 41.0614V40.9895L5.67607 40.9355L5.72997 40.8636V40.8276L5.80198 40.7557L5.85588 40.7017L5.89189 40.6298L5.94579 40.5938L5.9998 40.5398V40.4679L6.0717 40.4319L6.12571 40.36V40.3061L6.19761 40.2341L6.25162 40.1801V40.1082L6.32352 40.0542L6.37753 39.9823V39.9283L6.44944 39.8564L6.50334 39.8025V39.7305L6.57535 39.6765L6.62925 39.6046V39.5686L6.70126 39.4967L6.75516 39.4427L6.79117 39.3888L6.84507 39.3168L6.88107 39.2629L6.93508 39.1909V39.1549L7.00698 39.083L7.06088 39.047V38.9751L7.1329 38.9211L7.1868 38.8492V38.7952L7.25881 38.7593L7.31271 38.6694L7.36672 38.6154V38.5434L7.43862 38.5075L7.49263 38.4355L7.54653 38.3816V38.3096L7.61854 38.2557L7.65444 38.2197V38.1478L7.72645 38.0938L7.78035 38.0218L7.83436 37.9679V37.8959L7.90626 37.86L7.96016 37.806L8.01417 37.7341V37.6981L8.08608 37.6262L8.12208 37.5722L8.17609 37.5183V37.4463L8.24799 37.3923L8.30189 37.3204L8.3559 37.2665L8.39191 37.1945V37.1406L8.46381 37.0866L8.51782 37.0147L8.57172 36.9607V36.8887L8.64362 36.8348L8.69763 36.7808L8.73364 36.7089L8.78754 36.655V36.601L8.85944 36.5291L8.91345 36.4931L8.96746 36.4212V36.3672L9.03936 36.3132L9.07537 36.2413L9.12927 36.1873L9.18328 36.1154V36.0614L9.25518 36.0255L9.30908 35.9535L9.34509 35.8996L9.3991 35.8456L9.453 35.7736V35.7197L9.52501 35.6477L9.57891 35.5938L9.61491 35.5398L9.66881 35.4679V35.414L9.74083 35.36L9.79473 35.2881L9.84874 35.2341L9.90264 35.1801L9.95665 35.1082L9.99254 35.0542V35.0003L10.0646 34.9283L10.1185 34.8924L10.1545 34.8204L10.2084 34.7665L10.2444 34.7125L10.2804 34.6405L10.3164 34.5866L10.3703 34.5326L10.4243 34.4607L10.4782 34.4247L10.5322 34.3708L10.5861 34.2988V34.2449L10.658 34.1909L10.712 34.119L10.766 34.065L10.8199 34.029L10.8739 33.9571L10.9278 33.9211L10.9818 33.8672V33.8132L11.0537 33.7413L11.0897 33.6873L11.1436 33.6334L11.1797 33.5615L11.2336 33.5075L11.2876 33.4535L11.3415 33.3816L11.3955 33.3276L11.4494 33.2737V33.2017L11.5214 33.1478L11.5753 33.0938L11.6293 33.0399L11.6832 32.9679L11.7372 32.914L11.7911 32.86L11.8271 32.788L11.8811 32.7341L11.935 32.6801L11.989 32.6262L12.0429 32.5542V32.5003L12.1149 32.4463L12.1688 32.3744L12.2228 32.3204L12.2767 32.2844L12.3308 32.2305L12.3667 32.1586L12.4207 32.1046L12.4746 32.0506L12.5286 31.9967L12.5825 31.9248L12.6185 31.8708L12.6725 31.8169L12.7264 31.7449L12.7804 31.6909L12.8343 31.637L12.8883 31.601V31.5291L12.9602 31.4751L13.0142 31.4212L13.0681 31.3852L13.1221 31.3133L13.212 31.2233L13.2479 31.1693L13.3019 31.0974L13.3558 31.0614L13.4098 31.0075L13.4639 30.9715L13.5178 30.9176L13.5538 30.8456L13.6077 30.7917L13.6617 30.7557L13.7156 30.7017L13.7696 30.6298L13.8055 30.5758L13.8595 30.5398L13.9135 30.4859L13.9674 30.4499L14.0214 30.378L14.0753 30.342L14.1293 30.2881L14.1652 30.2341L14.2192 30.1622L14.2731 30.1082L14.3271 30.0542L14.3631 30.0003L14.417 29.9463L14.453 29.8744L14.5069 29.8204L14.5609 29.7845L14.6148 29.7305L14.6689 29.6766L14.7228 29.6046L14.7768 29.5506L14.8128 29.4967L14.8667 29.4427L14.9207 29.3888L14.9746 29.3528L15.0286 29.2809L15.1005 29.2269L15.1544 29.173L15.2084 29.119L15.2624 29.083L15.3163 29.0111L15.3703 28.9571L15.4062 28.9031L15.4602 28.8492L15.5141 28.7952L15.5681 28.7413L15.622 28.6694L15.676 28.6154L15.7299 28.5615L15.784 28.5255L15.8379 28.4715L15.8919 28.4175L15.9279 28.3636L15.9818 28.2916L16.0537 28.2377L16.1077 28.1837L16.1617 28.1298L16.2156 28.0758L16.2516 28.0219L16.3055 27.9679L16.3595 27.8959L16.4134 27.842L16.4674 27.788L16.5033 27.7341L16.5573 27.6801L16.6113 27.6262L16.6832 27.5722L16.7371 27.5003L16.7911 27.4463L16.845 27.3924L16.8991 27.3564L16.9351 27.3024L16.989 27.2485L17.043 27.2125L17.0969 27.1585L17.1689 27.1046L17.2228 27.0327L17.2768 26.9967L17.3307 26.9427L17.3847 26.8888L17.4386 26.8348L17.4926 26.7808L17.5285 26.7269L17.5825 26.6729L17.6544 26.619L17.7084 26.565L17.7443 26.4931L17.7983 26.4391L17.8522 26.3852L17.8882 26.3312L17.9422 26.2953L18.0142 26.2413L18.0682 26.1873L18.1221 26.1334L18.1761 26.0794L18.23 26.0255L18.284 25.9715L18.3379 25.9176L18.4099 25.8456L18.4458 25.8096L18.4998 25.7557L18.5537 25.7017L18.6077 25.6477L18.6616 25.6118L18.7336 25.5578L18.7875 25.5039L18.8235 25.4499L18.8774 25.414L18.9674 25.306L19.0393 25.2701L19.0932 25.2161L19.1473 25.1802L19.1833 25.1262L19.2372 25.0722L19.2732 25.0183L19.3451 24.9643L19.3991 24.9103L19.453 24.8384L19.489 24.7845L19.5429 24.7305L19.6149 24.6766L19.6508 24.6226L19.7048 24.5687L19.7408 24.5147L19.7947 24.4607L19.8667 24.4247L19.9206 24.3708L19.9746 24.3168L20.0285 24.2809L20.0825 24.2269L20.1544 24.1909L20.2084 24.137L20.2623 24.083L20.2984 24.0291L20.3523 23.9751L20.4243 23.9211L20.5142 23.8312L20.5681 23.7952L20.6041 23.7413L20.676 23.6873L20.73 23.6334L20.7839 23.5794L20.8199 23.5255L20.8918 23.4715L20.9278 23.4355L20.9818 23.3816L21.0357 23.3456L21.1077 23.2916L21.1616 23.2377L21.2156 23.1837L21.2695 23.1298H21.3414L21.3954 23.0578L21.4493 23.0219L21.5034 22.9679L21.5753 22.914L21.6293 22.86L21.6653 22.806L21.7192 22.7701L21.7911 22.7161L21.8451 22.6801L21.899 22.6262L21.953 22.5722L22.0249 22.5183L22.0789 22.4643L22.1328 22.4284L22.1868 22.3744L22.2587 22.3204L22.3127 22.2665L22.3666 22.2125L22.4386 22.1765L22.6004 22.0147L22.6725 21.9787L22.7264 21.9248L22.7804 21.8708L22.8523 21.8169L22.9422 21.7269L22.9962 21.6729L23.0681 21.619H23.1221L23.176 21.547L23.2479 21.4931L23.2839 21.4391L23.3379 21.3852L23.3918 21.3312L23.4638 21.2953L23.5177 21.2413L23.5537 21.1873L23.6256 21.1334H23.6797L23.7155 21.0614L23.7876 21.0075L23.8415 20.9535L23.8955 20.8996L23.9674 20.8456L24.0214 20.7917L24.0753 20.7557H24.1472L24.2012 20.6838L24.2552 20.6298L24.3271 20.5758L24.381 20.5398L24.417 20.4859L24.4889 20.4319L24.5429 20.378H24.5968L24.6868 20.2521L24.7227 20.2161L24.7947 20.1622L24.8486 20.1082H24.8847L24.9566 20.0362L25.0106 19.9823L25.0645 19.9283L25.1365 19.8924L25.1904 19.8384L25.2444 19.7845H25.3163L25.3703 19.7125L25.4242 19.6766L25.4961 19.6226L25.5501 19.5687H25.622L25.676 19.4967L25.7299 19.4427L25.8019 19.3888L25.8558 19.3528L25.9098 19.2988H25.9817L26.0358 19.2269L26.1077 19.173L26.1617 19.137L26.2156 19.083H26.2875L26.3415 19.011L26.3954 18.9571L26.4674 18.9031L26.5213 18.8672L26.5933 18.8312L26.6472 18.7773L26.7012 18.7413L26.7731 18.6873H26.8271L26.899 18.6154L26.953 18.5614L27.0069 18.5255L27.0788 18.4715H27.1329L27.2048 18.3995L27.2588 18.3456L27.3127 18.2916H27.3847L27.4386 18.2197L27.5106 18.1657L27.5645 18.1118H27.6005L27.6724 18.0399L27.7264 18.0039L27.7983 17.9499H27.8523L27.9242 17.878L27.9781 17.824L28.0321 17.7701H28.104L28.14 17.6981L28.2119 17.6442L28.2659 17.5902H28.3379L28.3919 17.5183L28.4458 17.4643H28.5178L28.5537 17.3924L28.6257 17.3384L28.6616 17.2844H28.7336L28.7695 17.2125L28.8415 17.1585H28.8954L28.9494 17.0866L29.0213 17.0327L29.0753 16.9787H29.1472L29.2012 16.9068L29.2731 16.8528H29.327L29.3991 16.7808L29.453 16.7269H29.525L29.5789 16.6549L29.6329 16.619L29.7048 16.583L29.7588 16.5291L29.8307 16.4751H29.8846L29.9566 16.4032L30.0105 16.3492H30.0825L30.1364 16.2773L30.2084 16.2413L30.2623 16.2053L30.3342 16.1513L30.3882 16.0974H30.4601L30.4961 16.0255L30.568 15.9715H30.6221L30.694 15.8996L30.748 15.8636H30.8199L30.8739 15.7917L30.9458 15.7377H30.9998L31.0717 15.6657L31.1256 15.6298L31.1976 15.5758L31.2515 15.5219H31.3235L31.3774 15.4499L31.4494 15.396H31.5033L31.5752 15.324L31.6292 15.2881L31.7011 15.2341L31.7552 15.1802H31.8271L31.8811 15.1082H31.953L32.007 15.0362L32.0789 14.9823H32.1328L32.2048 14.9103H32.2587L32.3307 14.8384L32.3846 14.7845L32.4566 14.7485L32.5105 14.7125H32.5824L32.6364 14.6406L32.7083 14.6046L32.7803 14.5686L32.8342 14.5326L32.9063 14.4967L32.9602 14.4607L33.0321 14.4247L33.0861 14.3888L33.158 14.3348H33.212L33.2839 14.2629L33.3379 14.2269L33.4098 14.173H33.4458L33.5177 14.101H33.5896L33.6436 14.0291L33.7155 13.9751H33.7695L33.8414 13.9031L33.8954 13.8672L33.9673 13.8132H34.0214L34.0933 13.7413H34.1652L34.2192 13.6693H34.2911L34.3451 13.5974L34.417 13.5614L34.471 13.5255L34.5429 13.4895L34.6148 13.4535L34.6508 13.4175L34.7227 13.3816H34.7767L34.8486 13.3096H34.9026L34.9745 13.2377H35.0466L35.1004 13.1657L35.1723 13.1298L35.2264 13.0938L35.2983 13.0578L35.3703 13.0219L35.4242 12.9859L35.4962 12.932L35.5501 12.8959L35.622 12.842H35.676L35.7479 12.77H35.8199L35.8738 12.6981H35.9458L35.9997 12.6262H36.0716L36.1436 12.5542H36.1975L36.2696 12.5003L36.3235 12.4643H36.3955L36.4674 12.3924H36.5213L36.5933 12.3204L36.6652 12.2844L36.7192 12.2305H36.7911L36.8451 12.1585L36.917 12.1226H36.9889L37.0429 12.0506H37.1148L37.1688 11.9787H37.2407L37.3126 11.9248L37.3666 11.8708H37.4385L37.5106 11.7989H37.5645L37.6364 11.7269H37.6904L37.7623 11.6909L37.8343 11.637H37.8882L37.9602 11.565H38.0321L38.086 11.5291L38.158 11.4751H38.2299L38.2839 11.4032L38.3558 11.3672H38.4098L38.4817 11.2953H38.5536L38.6077 11.2592L38.6796 11.2233L38.7516 11.1873L38.8055 11.1334H38.8774L38.9494 11.0794L39.0033 11.0255H39.0753L39.1472 10.9895L39.2012 10.9355H39.2731L39.345 10.8996L39.399 10.8456H39.4709L39.5429 10.7917L39.5968 10.7557H39.6687L39.7408 10.7017L39.7947 10.6477H39.8667L39.9386 10.6118L39.9746 10.5578H40.0465L40.1184 10.5218L40.1724 10.4679H40.2443L40.3163 10.4139L40.3702 10.378L40.4422 10.342H40.5141L40.568 10.2701L40.64 10.2341H40.7119L40.7659 10.1622L40.8379 10.1262H40.9098L40.9818 10.0902L41.0177 10.0362H41.0897L41.1616 10.0003L41.2156 9.94633L41.2875 9.91033H41.3594L41.3954 9.85637L41.4673 9.82042L41.5393 9.78447H41.5932L41.6652 9.71251L41.7371 9.67656H41.809L41.863 9.62255L41.9349 9.5686H42.007L42.0609 9.53265L42.1328 9.49669L42.2048 9.44274H42.2587L42.3307 9.40673H42.4026L42.4745 9.33483H42.5285L42.6004 9.29882H42.6724L42.7263 9.22692H42.7983L42.8702 9.19091H42.9421L42.9961 9.15496L43.068 9.10101H43.1401L43.212 9.04705H43.2659L43.3379 8.97509H43.4098L43.4458 8.93914H43.5177L43.5897 8.90314L43.6616 8.84918L43.7155 8.81323H43.7875L43.8594 8.77728L43.9313 8.74127L43.9853 8.68732H44.0572L44.1292 8.65137L44.2011 8.61536H44.2552L44.3271 8.57941L44.399 8.52545H44.453L44.5249 8.4895L44.5969 8.4535H44.6688L44.7227 8.39954L44.7947 8.34559H44.8666L44.9386 8.29163H44.9925L45.0644 8.23768H45.1364L45.2083 8.16572L45.2623 8.12977H45.3342L45.4061 8.09381L45.4782 8.05781H45.5501L45.6041 8.02186H45.676L45.7479 7.9499H45.8199L45.8558 7.89594L45.9278 7.85999H45.9997L46.0716 7.80604H46.1256L46.1975 7.77003L46.2695 7.71608L46.3414 7.68013H46.3954L46.4673 7.62617H46.5392L46.6113 7.59022L46.6832 7.55421H46.7192L46.7911 7.51826H46.863L46.935 7.48231L46.9889 7.42836H47.0609L47.1328 7.37435H47.2047L47.2767 7.33839H47.3126L47.3846 7.30244L47.4565 7.26644H47.5284L47.6004 7.23049H47.6543L47.7264 7.19453H47.7983L47.8702 7.15853H47.9242L47.9961 7.08662H48.0681L48.14 7.05062H48.2119L48.2659 6.99666H48.3378L48.4098 6.96071L48.4817 6.92471H48.5536L48.6076 6.88875H48.6795L48.7335 6.87075L48.7338 0L0.783936 5.48959e-05ZM29.9206 3.41754C29.9206 3.41754 25.1365 5.9355 24.1113 8.61536V7.93195C24.1113 7.93195 25.0825 2.73411 29.9206 3.43555V3.41754ZM25.676 2.75208C25.676 2.75208 23.7335 5.88155 23.6076 7.15853C23.6076 7.1945 23.6076 7.23049 23.6076 7.23049C23.6076 7.2125 23.6076 7.1945 23.6076 7.15853C23.6436 6.58299 23.7875 2.75208 25.676 2.75208ZM23.176 7.19453C23.176 7.19453 23.176 7.23047 23.176 7.26644C23.176 7.26644 23.176 7.2305 23.176 7.19453C23.0501 5.89957 21.1077 2.78804 21.1077 2.78804C22.9782 2.78804 23.122 6.61899 23.176 7.19453ZM14.3091 11.637C16.5034 7.55425 22.1508 9.89238 22.1508 9.89238C18.5717 9.51468 14.3091 11.637 14.3091 11.637ZM17.7084 13.9751C16.7012 10.8636 22.2407 10.5758 22.2407 10.5758C20.1724 10.7917 17.7084 13.9751 17.7084 13.9751ZM14.6869 7.23049C19.3631 4.38876 22.4206 9.35278 22.4206 9.35278C22.4206 9.35278 17.9962 6.90674 14.6869 7.23049ZM22.6545 8.63336C21.6473 5.97149 16.845 3.43555 16.845 3.43555C21.6652 2.75209 22.6545 7.93195 22.6545 7.93195V8.61536V8.63336ZM22.6545 20.2701C22.6545 20.2701 23.0861 10.4859 23.23 9.29882C23.3919 7.98587 23.6797 9.10101 23.6797 9.10101C23.6797 9.22691 24.471 18.5255 24.471 18.5255L22.6545 20.2701ZM24.3631 9.31683C24.3631 9.31683 27.4206 4.33482 32.0969 7.19453C28.7875 6.87079 24.3631 9.31683 24.3631 9.31683ZM29.0573 13.9391C29.0573 13.9391 26.5753 10.7557 24.5249 10.5398C24.5249 10.5398 30.0645 10.8276 29.0573 13.9391ZM24.6328 9.89238C24.6328 9.89238 30.2623 7.53627 32.4745 11.637C32.4745 11.637 28.2299 9.53267 24.6328 9.89238Z" fill="#005298"/>
</svg>
