<svg width="130" height="36" viewBox="0 0 130 36" fill="none" xmlns="http://www.w3.org/2000/svg">
<path d="M68.4033 17.9935C68.4033 27.6534 76.2367 35.487 85.8967 35.487H95.8814L90.3208 30.2241H85.8967C79.1591 30.2241 73.6663 24.7446 73.6663 17.9935C73.6663 11.2558 79.1455 5.76294 85.8967 5.76294H90.3208L95.8814 0.5H85.8967C76.2367 0.5 68.4033 8.33349 68.4033 17.9935Z" fill="#008B8B"/>
<path d="M38.856 11.2148V35.5H44.1054H44.4031V16.4777L38.856 11.2148Z" fill="#008B8B"/>
<path d="M14.7064 5.92567H19.9693H34.6758V0.67627H19.9693H14.7064H0V5.92567H14.7064Z" fill="#979797"/>
<path d="M14.7061 10.2954V35.3382H19.969V10.2954H14.7061Z" fill="#979797"/>
<path d="M114.188 0.810288V6.12732C119.802 7.15555 124.077 12.0937 124.077 17.9925C124.077 23.8913 119.802 28.8296 114.188 29.8578V35.1748C122.725 34.106 129.34 26.8137 129.34 17.9791C129.34 9.14438 122.738 1.86555 114.188 0.783203V0.810288Z" fill="#979797"/>
<path d="M109.819 29.8717C104.204 28.8435 99.929 23.9052 99.929 18.0064C99.929 12.1076 104.204 7.16948 109.819 6.14125V0.824219C101.282 1.89304 94.666 9.18531 94.666 18.02C94.666 26.8547 101.268 34.1335 109.819 35.2158V29.8988V29.8717Z" fill="#979797"/>
<path d="M48.827 0.512695H38.8423L44.403 5.77564H48.827C55.5646 5.77564 61.0576 11.255 61.0576 18.0062C61.0576 24.7573 55.5781 30.2367 48.827 30.2367H48.773V35.4996H48.827C58.4869 35.4996 66.307 27.6661 66.307 18.0062C66.307 8.34619 58.4734 0.512695 48.827 0.512695Z" fill="#008B8B"/>
</svg>
