<svg width="110" height="50" viewBox="0 0 110 50" fill="none" xmlns="http://www.w3.org/2000/svg">
<path d="M86.2067 49.2432V36.053L90.583 32.0448L95.0206 36.1143V49.9896H109.97V20.1123L90.6137 0.255371L71.2578 20.1123V49.9896H86.1965V49.2432H86.2067ZM75.0922 48.4968H72.6177V20.7258L90.6341 2.36171L108.651 20.7258V48.4968H106.176V26.9119L90.6443 11.0632L75.1126 26.9119V48.4968H75.0922ZM78.6198 48.4968H76.0226V27.3413L90.6137 12.5356L105.205 27.3413V48.4968H102.608V31.4109L90.6137 20.1123L78.6198 31.4109V48.4968ZM85.8079 48.4968H79.0288V31.5949L90.6239 20.736L102.219 31.5949V48.4968H95.4194V35.9201L90.583 31.4109L85.7977 35.8587V48.4968H85.8079Z" fill="#043F40"/>
<path d="M62.3623 39.5298H0.0615234V39.949H62.3623V39.5298Z" fill="#043F40"/>
<path d="M0.869097 45.7467H2.14722V44.4686C2.14722 44.1516 2.32105 43.988 2.6687 43.988H2.78116V45.3173H3.28218V43.5586H2.5153C2.21878 43.5586 1.99388 43.6404 1.86095 43.7937C1.7178 43.9471 1.65644 44.1516 1.65644 44.3868V45.3173H1.0225C0.674848 45.3173 0.501014 45.1639 0.501014 44.8469V43.988H0V44.9185C0 45.1536 0.0715873 45.3479 0.204512 45.5115C0.347661 45.6649 0.562338 45.7467 0.858862 45.7467" fill="#043F40"/>
<path d="M1.16603 46.0532H0.654785V46.5031H1.16603V46.0532Z" fill="#043F40"/>
<path d="M1.8716 46.0532H1.36035V46.5031H1.8716V46.0532Z" fill="#043F40"/>
<path d="M4.08035 46.3191C4.2235 46.1759 4.2951 45.951 4.2951 45.6443V43.998H3.79402V45.6647C3.79402 45.7772 3.77358 45.8692 3.74291 45.9408C3.71223 46.0021 3.66115 46.0532 3.58957 46.0839C3.52822 46.1146 3.43618 46.1351 3.31348 46.1555L3.50775 46.5952C3.7327 46.5645 3.91673 46.4827 4.05988 46.3395" fill="#043F40"/>
<path d="M6.68703 43.2412H6.17578V43.6911H6.68703V43.2412Z" fill="#043F40"/>
<path d="M7.3926 43.2412H6.88135V43.6911H7.3926V43.2412Z" fill="#043F40"/>
<path d="M9.03924 45.6133C9.32554 45.7054 9.66301 45.7462 10.0413 45.7462H10.89V43.0366H10.3992V45.327H10.0413C9.84706 45.327 9.69367 45.327 9.5812 45.2963C9.69367 45.2043 9.78571 45.0918 9.84705 44.9793C9.9084 44.8566 9.94928 44.7442 9.94928 44.6317C9.94928 44.509 9.90837 44.3863 9.81635 44.2738C9.72433 44.1613 9.61188 44.0693 9.4585 43.9978C9.30513 43.9262 9.15172 43.8955 8.97789 43.8955C8.83475 43.8955 8.69162 43.9159 8.5587 43.9568C8.42577 43.9977 8.26214 44.0591 8.07809 44.1307L7.96563 44.5908C8.15991 44.9078 8.32349 45.1429 8.45641 45.2963C8.31326 45.3167 8.11902 45.327 7.85317 45.327C7.6998 45.327 7.57707 45.2861 7.5055 45.1941C7.51572 45.1327 7.52597 45.0611 7.52597 44.9998V44.0284C7.21922 43.9773 6.98404 43.9568 6.82044 43.9568C6.63639 43.9568 6.47281 43.9978 6.32966 44.0694C6.17629 44.1512 6.06379 44.2534 5.98199 44.3761C5.90019 44.509 5.85929 44.6419 5.85929 44.7953C5.85929 45.0202 5.9309 45.1941 6.08427 45.3168H5.57303C5.481 45.3168 5.41964 45.2963 5.36851 45.2452C5.31739 45.1941 5.29693 45.1123 5.29693 44.9896V43.0366H4.80615V45.0611C4.80615 45.2656 4.85725 45.4395 4.96972 45.5622C5.07197 45.6849 5.22536 45.7462 5.42986 45.7462H6.84091C7.05564 45.7462 7.21924 45.6747 7.35216 45.5213C7.42373 45.5929 7.50552 45.6542 7.59755 45.6951C7.68957 45.736 7.77137 45.7462 7.85317 45.7462C8.29285 45.7462 8.69159 45.7054 9.03924 45.6133ZM8.42577 44.4988C8.63027 44.4068 8.8041 44.3556 8.94725 44.3556C9.0904 44.3556 9.20285 44.3863 9.3051 44.4477C9.39713 44.509 9.44827 44.5908 9.44827 44.7033C9.44827 44.8158 9.39714 44.9078 9.31534 44.9998C9.22331 45.0918 9.12105 45.1736 8.98813 45.235C8.88588 45.1429 8.78364 45.0203 8.68139 44.8873C8.57914 44.7442 8.49734 44.6215 8.42577 44.4885M7.03519 44.9078C7.03519 44.9998 7.01474 45.0919 6.97384 45.1634C6.93294 45.235 6.8716 45.2861 6.7898 45.3168C6.6671 45.3065 6.56481 45.2554 6.49323 45.1736C6.42166 45.0918 6.38078 44.9896 6.38078 44.8669C6.38078 44.5397 6.52391 44.3863 6.81021 44.3863C6.88178 44.3863 6.95339 44.3863 7.03519 44.4067V44.918V44.9078Z" fill="#043F40"/>
<path d="M12.0039 43.0264H11.5029V45.736H12.0039V43.0264Z" fill="#043F40"/>
<path d="M13.9367 45.634V43.9878H13.4357V45.6545C13.4357 45.7669 13.4152 45.859 13.3845 45.9203C13.3538 45.9817 13.3027 46.0328 13.2312 46.0634C13.1698 46.0941 13.0778 46.1146 12.9551 46.135L13.1494 46.5747C13.3743 46.544 13.5583 46.4622 13.7015 46.3191C13.8446 46.1759 13.9162 45.951 13.9162 45.6442" fill="#043F40"/>
<path d="M18.2315 43.2412H17.7202V43.6911H18.2315V43.2412Z" fill="#043F40"/>
<path d="M18.5573 42.6895H18.0981V43.0976H18.5573V42.6895Z" fill="#043F40"/>
<path d="M18.9473 43.2412H18.436V43.6911H18.9473V43.2412Z" fill="#043F40"/>
<path d="M20.562 43.2412H20.0508V43.6911H20.562V43.2412Z" fill="#043F40"/>
<path d="M19.8565 43.2412H19.3452V43.6911H19.8565V43.2412Z" fill="#043F40"/>
<path d="M22.9856 45.7472H23.7933V43.8454H23.2923V45.328H23.0776C22.9549 45.328 22.8527 45.2973 22.7504 45.2462C22.6482 45.1951 22.597 45.1133 22.5868 45.0213V43.9988H22.0858V44.919C22.0858 45.0417 22.0551 45.144 21.9836 45.2156C21.912 45.2871 21.8404 45.328 21.7382 45.328H21.5234V43.9988H21.0224V45.328H20.6645C20.5316 45.328 20.4293 45.328 20.3578 45.2973C20.2964 45.2769 20.2351 45.236 20.1839 45.1849C20.1942 45.1235 20.2044 45.0622 20.2044 45.0008V43.9578H19.7136V44.919C19.7136 45.0417 19.6829 45.144 19.6114 45.2156C19.5398 45.2871 19.458 45.328 19.366 45.328H19.049C18.9161 45.328 18.8138 45.328 18.7422 45.2973C18.6808 45.2769 18.6195 45.236 18.5684 45.1849C18.5786 45.1235 18.5889 45.0622 18.5889 45.0008V43.9578H18.0981V44.919C18.0981 45.0417 18.0674 45.144 17.9958 45.2156C17.9242 45.2871 17.8424 45.328 17.7504 45.328H17.4334C17.2903 45.328 17.188 45.2974 17.1165 45.2258C17.1574 45.1235 17.1778 45.0008 17.1778 44.8679C17.1778 44.6941 17.1369 44.5407 17.0551 44.4077C16.9733 44.2646 16.8608 44.1624 16.7177 44.0806C16.5745 43.9988 16.4007 43.9681 16.2167 43.9681C16.0531 43.9681 15.8179 43.9885 15.5111 44.0397V45.3383H15.2249C15.1328 45.3383 15.0715 45.3178 15.0203 45.2667C14.9692 45.2155 14.9488 45.1337 14.9488 45.011V43.0581H14.4478V45.0826C14.4478 45.2871 14.4989 45.4609 14.6113 45.5836C14.7136 45.7063 14.867 45.7677 15.0715 45.7677H16.3087C16.5541 45.7677 16.7483 45.6859 16.9119 45.5325C16.9835 45.6143 17.0653 45.6654 17.1573 45.7063C17.2494 45.7472 17.3414 45.7677 17.413 45.7677H17.8833C17.9958 45.7677 18.098 45.7472 18.1901 45.6961C18.2821 45.645 18.3639 45.5836 18.4252 45.5018C18.507 45.6041 18.5888 45.6654 18.6808 45.7063C18.7729 45.7472 18.8854 45.7677 19.0388 45.7677H19.5091C19.6215 45.7677 19.7238 45.7472 19.8159 45.6961C19.9079 45.645 19.9897 45.5836 20.051 45.5018C20.1328 45.6041 20.2146 45.6654 20.3066 45.7063C20.3987 45.7472 20.5111 45.7677 20.6645 45.7677H21.8813C22.096 45.7677 22.2698 45.6859 22.3925 45.5325C22.5254 45.6859 22.7197 45.7677 22.9651 45.7677M16.5439 45.1951C16.4723 45.2769 16.3598 45.3178 16.2269 45.3178H16.0019V44.3976C16.0837 44.3771 16.1553 44.3771 16.2269 44.3771C16.5132 44.3771 16.6563 44.5407 16.6563 44.8576C16.6563 45.0008 16.6154 45.1133 16.5439 45.1951Z" fill="#043F40"/>
<path d="M25.6644 44.3355C25.7871 44.0492 25.8485 43.7731 25.8485 43.4868V42.9653H25.3577V43.4868C25.3577 43.6709 25.327 43.8549 25.2759 44.0696C25.0612 43.9367 24.7442 43.8038 24.325 43.6811V44.1412C24.642 44.2333 24.8976 44.3355 25.0714 44.4582C24.9794 44.5809 24.8567 44.7138 24.6931 44.8569C24.5295 45.0001 24.3863 45.1126 24.2739 45.1944C24.1512 45.2762 24.0898 45.3171 24.0796 45.3171L24.2739 45.7465H26.1451C26.1655 45.6238 26.1757 45.5114 26.1757 45.4091C26.1757 45.2455 26.1348 45.0717 26.053 44.8774C25.9712 44.6831 25.8383 44.4991 25.6644 44.3457M25.6747 45.3171H24.7135C24.9794 45.133 25.2043 44.9387 25.3884 44.724C25.4804 44.8262 25.552 44.9285 25.6031 45.0308C25.6542 45.133 25.6747 45.225 25.6747 45.3171Z" fill="#043F40"/>
<path d="M27.1065 43.0264H26.6055V45.736H27.1065V43.0264Z" fill="#043F40"/>
<path d="M28.6502 45.8997C28.6093 45.9713 28.5377 46.0224 28.4559 46.0531C28.3741 46.0838 28.2514 46.1144 28.1083 46.1349L28.3025 46.5745C28.4968 46.5439 28.6604 46.4928 28.7933 46.4314C28.9262 46.3701 29.0285 46.2678 29.1001 46.1349C29.1716 46.0019 29.2126 45.8282 29.2126 45.6032V44.0183C28.9058 43.9672 28.6706 43.9468 28.507 43.9468C28.3128 43.9468 28.1492 43.9877 28.006 44.0592C27.8629 44.1308 27.7504 44.2433 27.6686 44.3864C27.5868 44.5194 27.5459 44.683 27.5459 44.8466C27.5459 45.0102 27.5868 45.184 27.6584 45.3169C27.7299 45.4498 27.8322 45.5521 27.9651 45.6236C28.098 45.6952 28.2412 45.7361 28.4048 45.7361H28.4559L28.6502 45.3067H28.4968C28.3537 45.3067 28.2514 45.2658 28.1798 45.184C28.1083 45.1022 28.0674 44.9897 28.0674 44.8466C28.0674 44.5194 28.2105 44.366 28.4968 44.366C28.5684 44.366 28.6399 44.366 28.7217 44.3864V45.6135C28.7217 45.7259 28.7013 45.8179 28.6502 45.8895" fill="#043F40"/>
<path d="M31.0836 45.6335C31.2063 45.7051 31.329 45.7358 31.4415 45.7358H32.5356V43.9771H32.0448V45.3063H31.4415C31.2779 45.3063 31.1552 45.2552 31.0836 45.1529V43.9771H30.5826V45.6437C30.5826 45.7562 30.5622 45.8482 30.5315 45.9096C30.5008 45.9709 30.4497 46.0221 30.3781 46.0527C30.3167 46.0834 30.2248 46.1039 30.1021 46.1243L30.2963 46.564C30.5213 46.5333 30.7053 46.4515 30.8485 46.3084C30.9916 46.1652 31.0632 45.9402 31.0632 45.6335" fill="#043F40"/>
<path d="M31.9121 46.0532H31.4009V46.5031H31.9121V46.0532Z" fill="#043F40"/>
<path d="M32.6177 46.0532H32.1064V46.5031H32.6177V46.0532Z" fill="#043F40"/>
<path d="M38.8037 45.6747C38.8957 45.6236 38.9775 45.5622 39.0388 45.4804C39.1206 45.5827 39.2024 45.644 39.2944 45.6849C39.3865 45.7258 39.4989 45.7462 39.6523 45.7462H39.867C40.0818 45.7462 40.2454 45.6747 40.3783 45.5213C40.4499 45.5929 40.5316 45.6542 40.6237 45.6951C40.7157 45.736 40.7975 45.7462 40.8793 45.7462H41.728V43.0366H41.2371V45.327H40.8793C40.7259 45.327 40.6033 45.2861 40.5317 45.1941C40.5419 45.1327 40.5521 45.0611 40.5521 44.9998V43.0366H40.0613V44.918C40.0613 45.0407 40.0306 45.143 39.959 45.2145C39.8874 45.2861 39.8057 45.327 39.7136 45.327H39.642C39.5091 45.327 39.4069 45.327 39.3353 45.2963C39.274 45.2758 39.2126 45.235 39.1615 45.1838C39.1717 45.1225 39.182 45.0611 39.182 44.9998V43.9568H38.6911V44.918C38.6911 45.0407 38.6605 45.143 38.5889 45.2145C38.5173 45.2861 38.4355 45.327 38.3435 45.327H38.0265C37.8834 45.327 37.7812 45.2964 37.7096 45.2248C37.7505 45.1225 37.7709 44.9998 37.7709 44.8669C37.7709 44.693 37.73 44.5397 37.6584 44.4067C37.5868 44.2738 37.4744 44.1613 37.3313 44.0898C37.1881 44.008 37.0143 43.9773 36.8098 43.9773C36.4417 43.9773 36.0531 44.1103 35.6441 44.3863V43.0571H35.1533V45.3475H34.5807V44.0489C34.274 43.9978 34.0388 43.9773 33.8752 43.9773C33.6809 43.9773 33.5173 44.0182 33.3742 44.0898C33.231 44.1716 33.1186 44.2738 33.0368 44.417C32.955 44.5601 32.9141 44.7135 32.9141 44.8771C32.9141 45.0407 32.9549 45.2145 33.0265 45.3475C33.0981 45.4804 33.2003 45.5826 33.3333 45.6542C33.4662 45.7258 33.6093 45.7667 33.7729 45.7667H33.824L34.0183 45.3372H33.865C33.7218 45.3372 33.6196 45.2963 33.548 45.2145C33.4764 45.1327 33.4355 45.0203 33.4355 44.8771C33.4355 44.5499 33.5787 44.3966 33.865 44.3966C33.9366 44.3966 34.0081 44.3965 34.0899 44.417V45.644C34.0899 45.7565 34.0694 45.8485 34.0183 45.9201C33.9774 45.9916 33.9058 46.0427 33.824 46.0734C33.7422 46.1041 33.6196 46.1348 33.4764 46.1552L33.6707 46.5949C33.9468 46.554 34.1615 46.462 34.3149 46.3495C34.4683 46.2268 34.5501 46.0325 34.5705 45.7667H36.912C37.1574 45.7667 37.3517 45.6849 37.5153 45.5315C37.5869 45.6133 37.6687 45.6644 37.7607 45.7053C37.8527 45.7462 37.9447 45.7667 38.0163 45.7667H38.4867C38.5992 45.7667 38.7014 45.7462 38.7934 45.6951M37.1472 45.1941C37.0756 45.2759 36.9631 45.3168 36.8302 45.3168H35.6441V44.7749C35.8282 44.6522 36.002 44.5499 36.1656 44.4783C36.3292 44.4067 36.5132 44.3761 36.728 44.3761C36.8916 44.3761 37.0245 44.417 37.1165 44.509C37.2188 44.601 37.2597 44.7135 37.2699 44.8566C37.2699 44.9998 37.229 45.1123 37.1574 45.1941" fill="#043F40"/>
<path d="M39.5401 43.2412H39.0288V43.6911H39.5401V43.2412Z" fill="#043F40"/>
<path d="M38.8345 43.2412H38.3232V43.6911H38.8345V43.2412Z" fill="#043F40"/>
<path d="M44.2227 43.5381H43.7114V43.988H44.2227V43.5381Z" fill="#043F40"/>
<path d="M46.7588 46.0532H46.2476V46.5031H46.7588V46.0532Z" fill="#043F40"/>
<path d="M46.0532 46.0532H45.542V46.5031H46.0532V46.0532Z" fill="#043F40"/>
<path d="M50.9309 44.0694C50.7877 43.9876 50.6139 43.9568 50.4298 43.9568C50.2662 43.9568 50.0311 43.9773 49.7243 44.0284V45.327H49.5096C49.3562 45.327 49.2539 45.2861 49.1824 45.2146C49.2233 45.1123 49.2437 45.0101 49.2437 44.8976C49.2437 44.6624 49.1619 44.4783 48.9881 44.3454C48.8143 44.2125 48.5893 44.141 48.2928 44.141H47.6486L48.7427 43.0469H48.1394L47.1476 44.141L47.3419 44.5704H48.2212C48.3848 44.5704 48.5178 44.601 48.62 44.6726C48.7223 44.7442 48.7734 44.8362 48.7734 44.9589C48.7734 45.0305 48.753 45.0919 48.7121 45.1532C48.6712 45.2146 48.62 45.2555 48.5587 45.2861C48.4973 45.3168 48.4257 45.3373 48.3644 45.3373H47.0147C46.8818 45.3373 46.7795 45.3372 46.7079 45.3066C46.6466 45.2861 46.5853 45.2452 46.5341 45.1941C46.5444 45.1327 46.5545 45.0714 46.5545 45.0101V43.9773H46.0535V44.9385C46.0535 45.0612 46.0229 45.1634 45.9513 45.235C45.8797 45.3065 45.7979 45.3475 45.7059 45.3475H44.9902V44.0182H44.4993V45.9814H44.0801C43.7325 45.9814 43.5586 45.8178 43.5586 45.5008V44.8874H43.0576V45.5826C43.0576 45.8178 43.1292 46.0121 43.2621 46.1655C43.4053 46.3189 43.62 46.4006 43.9267 46.4006H44.9902V45.7667H45.849C45.9615 45.7667 46.0638 45.7462 46.1558 45.6951C46.2478 45.644 46.3296 45.5826 46.391 45.5008C46.4728 45.6031 46.5546 45.6644 46.6466 45.7053C46.7386 45.7462 46.8511 45.7667 47.0044 45.7667H48.4257C48.6507 45.7667 48.8552 45.6849 49.0188 45.5213C49.0904 45.6031 49.1722 45.6644 49.2744 45.7053C49.3664 45.7462 49.4585 45.7667 49.5403 45.7667H51.2069C51.35 45.3986 51.4216 45.1021 51.4216 44.8771C51.4216 44.7033 51.3807 44.5499 51.2989 44.417C51.2171 44.2738 51.1046 44.1716 50.9615 44.0898M50.8082 45.3168H50.2253V44.3966C50.3071 44.3761 50.3787 44.3761 50.4503 44.3761C50.7365 44.3761 50.8797 44.5397 50.8797 44.8567C50.8797 44.9998 50.8593 45.1532 50.8082 45.3168Z" fill="#043F40"/>
<path d="M55.9821 45.7466H56.7898V43.8447H56.2991V45.3274H56.0741C55.9514 45.3274 55.8491 45.2967 55.7469 45.2455C55.6446 45.1944 55.5935 45.1126 55.5833 45.0104V43.9879H55.0823V44.9082C55.0823 45.0309 55.0516 45.1331 54.98 45.2047C54.9084 45.2762 54.8369 45.3171 54.7346 45.3171H54.5097V43.9879H54.0087V45.9511H53.5996C53.252 45.9511 53.0782 45.7875 53.0782 45.4705V44.857H52.5771V45.5523C52.5771 45.7875 52.6487 45.9817 52.7817 46.1351C52.9248 46.2885 53.1395 46.3703 53.4462 46.3703H54.5097V45.7364H54.8778C55.0925 45.7364 55.2561 45.6545 55.389 45.5012C55.5219 45.6545 55.7162 45.7364 55.9616 45.7364" fill="#043F40"/>
<path d="M57.3013 43.0264V45.0611C57.3013 45.2656 57.3524 45.4292 57.4649 45.5621C57.5671 45.6848 57.7205 45.7462 57.925 45.7462H59.3667C59.5814 45.7462 59.7553 45.6644 59.878 45.511C60.0109 45.6644 60.2052 45.7462 60.4506 45.7462H61.2583V43.8444H60.7675V45.327H60.5425C60.4198 45.327 60.3177 45.2963 60.2154 45.2452C60.1132 45.194 60.062 45.1123 60.0518 45.01V43.9875H59.5508V44.9078C59.5508 45.0305 59.5201 45.1327 59.4485 45.2043C59.377 45.2759 59.3053 45.3168 59.2031 45.3168H58.9884V43.9875H58.4976V45.3168H58.0681C57.9761 45.3168 57.9147 45.2963 57.8636 45.2452C57.8227 45.194 57.792 45.1122 57.792 44.9895V43.0366H57.291L57.3013 43.0264Z" fill="#043F40"/>
<path d="M62.2798 43.5586H61.7788V45.7365H62.2798V43.5586Z" fill="#043F40"/>
<path d="M62.0146 43.1085C62.0146 43.1085 62.0146 43.0778 62.035 43.0574C62.0453 43.0471 62.0657 43.0369 62.0964 43.0369C62.1373 43.0369 62.1884 43.0369 62.26 43.0675L62.3111 42.8426C62.2089 42.8119 62.1271 42.7915 62.0657 42.7915C61.9839 42.7915 61.9226 42.812 61.8715 42.8631C61.8203 42.9142 61.7999 42.9756 61.7999 43.0471C61.7999 43.088 61.8101 43.1289 61.8408 43.1801H61.7078L61.6465 43.405H62.352V43.1801H62.0555C62.0555 43.1801 62.0044 43.1391 62.0044 43.0982" fill="#043F40"/>
<path d="M0.685055 48.0264L0 49.9384H0.419196L0.552126 49.5499H1.25765L1.38035 49.9384H1.80978L1.13496 48.0264H0.685055ZM0.654413 49.2124L0.899802 48.466L1.14519 49.2124H0.654413Z" fill="#043F40"/>
<path d="M3.03697 48.8549L2.69959 48.7731C2.56667 48.7424 2.48487 48.722 2.44397 48.6913C2.38262 48.6606 2.35191 48.6095 2.35191 48.5379C2.35191 48.4664 2.38262 48.405 2.44397 48.3641C2.50532 48.3232 2.58712 48.3027 2.69959 48.3027C2.79161 48.3027 2.87339 48.3232 2.93474 48.3539C3.02677 48.405 3.07786 48.4868 3.08808 48.5993H3.46646C3.46646 48.3948 3.38463 48.2414 3.24148 48.1392C3.09833 48.0369 2.9245 47.9756 2.72 47.9756C2.4746 47.9756 2.29057 48.0369 2.16787 48.1494C2.04517 48.2619 1.98383 48.405 1.98383 48.5788C1.98383 48.7629 2.04518 48.906 2.17811 48.9878C2.24968 49.039 2.3928 49.0901 2.5973 49.131L2.80181 49.1719C2.92451 49.2026 3.00632 49.223 3.06767 49.2639C3.1188 49.2946 3.14943 49.3457 3.14943 49.407C3.14943 49.5195 3.0881 49.5911 2.97562 49.632C2.91427 49.6525 2.83249 49.6627 2.74047 49.6627C2.57687 49.6627 2.46438 49.6218 2.40303 49.5502C2.36213 49.5093 2.34167 49.4377 2.33144 49.3559H1.95312C1.95312 49.5502 2.02472 49.7138 2.16787 49.8263C2.31102 49.9388 2.50531 50.0001 2.76094 50.0001C3.01656 50.0001 3.20061 49.9388 3.33353 49.8263C3.46646 49.7138 3.53798 49.5706 3.53798 49.3968C3.53798 49.223 3.48688 49.1003 3.36418 49.0083C3.2926 48.9469 3.18012 48.9061 3.03697 48.8652" fill="#043F40"/>
<path d="M4.36621 48.0264L3.68115 49.9384H4.10041L4.23334 49.5499H4.9388L5.06156 49.9384H5.49099L4.81611 48.0264H4.36621ZM4.33557 49.2124L4.58095 48.466L4.82634 49.2124H4.33557Z" fill="#043F40"/>
<path d="M6.71763 48.8549L6.38019 48.7731C6.24727 48.7424 6.16547 48.722 6.12457 48.6913C6.06322 48.6606 6.03252 48.6095 6.03252 48.5379C6.03252 48.4664 6.06322 48.405 6.12457 48.3641C6.18592 48.3232 6.26772 48.3027 6.38019 48.3027C6.47222 48.3027 6.554 48.3232 6.61535 48.3539C6.70737 48.405 6.75852 48.4868 6.76875 48.5993H7.14706C7.14706 48.3948 7.06523 48.2414 6.92208 48.1392C6.77893 48.0369 6.60516 47.9756 6.40066 47.9756C6.15526 47.9756 5.97117 48.0369 5.84847 48.1494C5.72577 48.2619 5.66443 48.405 5.66443 48.5788C5.66443 48.7629 5.72578 48.906 5.85871 48.9878C5.93028 49.039 6.07347 49.0901 6.27797 49.131L6.48242 49.1719C6.60512 49.2026 6.68693 49.223 6.74828 49.2639C6.7994 49.2946 6.83009 49.3457 6.83009 49.407C6.83009 49.5195 6.76876 49.5911 6.65629 49.632C6.59494 49.6525 6.51309 49.6627 6.42107 49.6627C6.25747 49.6627 6.14504 49.6218 6.08369 49.5502C6.04279 49.5093 6.02233 49.4377 6.01211 49.3559H5.63379C5.63379 49.5502 5.70532 49.7138 5.84847 49.8263C5.99162 49.9388 6.18591 50.0001 6.44154 50.0001C6.69716 50.0001 6.88121 49.9388 7.01414 49.8263C7.14706 49.7138 7.21865 49.5706 7.21865 49.3968C7.21865 49.223 7.16754 49.1003 7.04484 49.0083C6.97327 48.9469 6.86078 48.9061 6.71763 48.8652" fill="#043F40"/>
<path d="M9.1614 49.5294L8.81379 48.0264H8.23096V49.9384H8.59904V48.6501C8.59904 48.6501 8.59904 48.558 8.59904 48.4967C8.59904 48.4251 8.59904 48.374 8.59904 48.3433L8.95695 49.9487H9.34551L9.70335 48.3433C9.70335 48.3433 9.70335 48.4353 9.70335 48.4967C9.70335 48.558 9.70335 48.6194 9.70335 48.6501V49.9384H10.0714V48.0264H9.49884L9.15123 49.5294H9.1614Z" fill="#043F40"/>
<path d="M10.9918 48.0264L10.3066 49.9384H10.7259L10.8588 49.5499H11.5644L11.687 49.9384H12.1165L11.4417 48.0264H10.9918ZM10.9611 49.2124L11.2064 48.466L11.4519 49.2124H10.9611Z" fill="#043F40"/>
<path d="M14.0081 48.0264H13.4968L12.7606 48.8136V48.0264H12.3618V49.9384H12.7606V49.2943L12.9549 49.1L13.5377 49.9384H14.049L13.231 48.8136L14.0081 48.0264Z" fill="#043F40"/>
<path d="M14.6727 49.1H15.6032V48.7728H14.6727V48.3637H15.685V48.0264H14.2842V49.9384H15.7362V49.5908H14.6727V49.1Z" fill="#043F40"/>
<path d="M16.4422 49.1H17.3727V48.7728H16.4422V48.3637H17.4545V48.0264H16.0537V49.9384H17.5056V49.5908H16.4422V49.1Z" fill="#043F40"/>
<path d="M18.9777 49.3556L18.221 48.0264H17.8018V49.9384H18.1801V48.5785L18.9572 49.9384H19.356V48.0264H18.9777V49.3556Z" fill="#043F40"/>
<path d="M20.46 49.9384H20.8587V49.1306H21.7074V48.8035H20.8587V48.3637H21.8198V48.0264H20.46V49.9384Z" fill="#043F40"/>
<path d="M22.9247 47.9658C22.6486 47.9658 22.4441 48.0374 22.301 48.1907C22.1067 48.3646 22.0146 48.6304 22.0146 48.9781C22.0146 49.3257 22.1067 49.5814 22.301 49.7654C22.4441 49.9188 22.6588 49.9903 22.9247 49.9903C23.1905 49.9903 23.4052 49.9188 23.5484 49.7654C23.7427 49.5814 23.8347 49.3257 23.8347 48.9781C23.8347 48.6304 23.7324 48.3646 23.5484 48.1907C23.4052 48.0374 23.1905 47.9658 22.9247 47.9658ZM23.303 49.4791C23.211 49.5916 23.0883 49.6529 22.9247 49.6529C22.7611 49.6529 22.6384 49.5916 22.5464 49.4791C22.4543 49.3666 22.4032 49.1928 22.4032 48.9781C22.4032 48.7634 22.4543 48.5998 22.5464 48.4771C22.6384 48.3544 22.7611 48.3032 22.9247 48.3032C23.0883 48.3032 23.211 48.3646 23.303 48.4771C23.395 48.5895 23.4462 48.7634 23.4462 48.9781C23.4462 49.1928 23.395 49.3564 23.303 49.4791Z" fill="#043F40"/>
<path d="M25.6238 49.6015V49.4685C25.6238 49.3356 25.6034 49.2334 25.5727 49.172C25.5318 49.1107 25.4704 49.0595 25.3886 49.0186C25.4908 48.9777 25.5727 48.9164 25.6136 48.8346C25.6647 48.7426 25.6852 48.6608 25.6852 48.5687C25.6852 48.4972 25.6749 48.4256 25.6544 48.3642C25.634 48.3029 25.6034 48.2518 25.5625 48.2006C25.5113 48.1393 25.4499 48.0984 25.3886 48.0677C25.317 48.037 25.2148 48.0166 25.0818 48.0166H24.1719V49.9287H24.5604V49.1823H24.9489C25.0614 49.1823 25.133 49.2027 25.1739 49.2436C25.2148 49.2845 25.2352 49.3663 25.2352 49.489V49.6628C25.2352 49.7139 25.2353 49.7753 25.2557 49.8264C25.2557 49.8571 25.2659 49.8878 25.2864 49.9287H25.726V49.8776C25.726 49.8776 25.6647 49.8162 25.6544 49.7651C25.6544 49.7344 25.6544 49.673 25.6544 49.5912M25.1637 48.8448C25.1637 48.8448 25.0614 48.8755 24.9694 48.8755H24.54V48.3642H24.9796C25.0614 48.3642 25.1228 48.3745 25.1637 48.3949C25.2352 48.4358 25.2761 48.5074 25.2761 48.6301C25.2761 48.7323 25.2352 48.8141 25.1637 48.8448Z" fill="#043F40"/>
<path d="M28.2717 49.6015V49.4685C28.2717 49.3356 28.2513 49.2334 28.2206 49.172C28.1797 49.1107 28.1184 49.0595 28.0366 49.0186C28.1388 48.9777 28.2207 48.9164 28.2616 48.8346C28.3127 48.7426 28.3331 48.6608 28.3331 48.5687C28.3331 48.4972 28.3229 48.4256 28.2922 48.3642C28.2718 48.3029 28.2411 48.2518 28.2002 48.2006C28.149 48.1393 28.0877 48.0984 28.0263 48.0677C27.9548 48.037 27.8525 48.0166 27.7196 48.0166H26.8096V49.9287H27.1981V49.1823H27.5867C27.6992 49.1823 27.7708 49.2027 27.8117 49.2436C27.8526 49.2845 27.873 49.3663 27.873 49.489V49.6628C27.873 49.7139 27.873 49.7753 27.8934 49.8264C27.8934 49.8571 27.9037 49.8878 27.9241 49.9287H28.3638V49.8776C28.3638 49.8776 28.3024 49.8162 28.2922 49.7651C28.2922 49.7344 28.2922 49.673 28.2922 49.5912M27.8117 48.8448C27.8117 48.8448 27.7094 48.8755 27.6174 48.8755H27.1879V48.3642H27.6276C27.7094 48.3642 27.7708 48.3745 27.8117 48.3949C27.8832 48.4358 27.9241 48.5074 27.9241 48.6301C27.9241 48.7323 27.8832 48.8141 27.8117 48.8448Z" fill="#043F40"/>
<path d="M29.1102 49.1H30.0407V48.7728H29.1102V48.3637H30.1225V48.0264H28.7217V49.9384H30.1634V49.5908H29.1102V49.1Z" fill="#043F40"/>
<path d="M31.0225 48.0264L30.3374 49.9384H30.7566L30.8895 49.5499H31.5951L31.7177 49.9384H32.1472L31.4724 48.0264H31.0225ZM30.9918 49.2124L31.2372 48.466L31.4826 49.2124H30.9918Z" fill="#043F40"/>
<path d="M32.7914 48.0264H32.3926V49.9384H33.7423V49.5908H32.7914V48.0264Z" fill="#043F40"/>
<path d="M35.1024 49.1H36.0329V48.7728H35.1024V48.3637H36.1147V48.0264H34.7139V49.9384H36.1556V49.5908H35.1024V49.1Z" fill="#043F40"/>
<path d="M37.4544 48.8549L37.117 48.7731C36.9841 48.7424 36.9023 48.722 36.8614 48.6913C36.8 48.6606 36.7693 48.6095 36.7693 48.5379C36.7693 48.4664 36.8 48.405 36.8614 48.3641C36.9227 48.3232 37.0045 48.3027 37.117 48.3027C37.209 48.3027 37.2908 48.3232 37.3522 48.3539C37.4442 48.405 37.4953 48.4868 37.5056 48.5993H37.8839C37.8839 48.3948 37.802 48.2414 37.6589 48.1392C37.5157 48.0369 37.342 47.9756 37.1375 47.9756C36.8921 47.9756 36.708 48.0369 36.5853 48.1494C36.4626 48.2619 36.4012 48.405 36.4012 48.5788C36.4012 48.7629 36.4626 48.906 36.5955 48.9878C36.6671 49.039 36.8103 49.0901 37.0148 49.131L37.2192 49.1719C37.3419 49.2026 37.4237 49.223 37.4851 49.2639C37.5362 49.2946 37.5669 49.3457 37.5669 49.407C37.5669 49.5195 37.5056 49.5911 37.3931 49.632C37.3318 49.6525 37.2499 49.6627 37.1579 49.6627C36.9943 49.6627 36.8819 49.6218 36.8205 49.5502C36.7796 49.5093 36.7591 49.4377 36.7489 49.3559H36.3706C36.3706 49.5502 36.4421 49.7138 36.5853 49.8263C36.7284 49.9388 36.9227 50.0001 37.1784 50.0001C37.434 50.0001 37.618 49.9388 37.751 49.8263C37.8839 49.7138 37.9555 49.5706 37.9555 49.3968C37.9555 49.223 37.9044 49.1003 37.7817 49.0083C37.7101 48.9469 37.5976 48.9061 37.4544 48.8652" fill="#043F40"/>
<path d="M39.6221 48.0264H38.0781V48.3637H38.6507V49.9384H39.0495V48.3637H39.6221V48.0264Z" fill="#043F40"/>
<path d="M40.2046 48.0264L39.5195 49.9384H39.9388L40.0717 49.5499H40.7772L40.8999 49.9384H41.3294L40.6546 48.0264H40.2046ZM40.1842 49.2124L40.4296 48.466L40.675 49.2124H40.1842Z" fill="#043F40"/>
<path d="M41.2275 48.3637H41.8001V49.9384H42.1989V48.3637H42.7715V48.0264H41.2275V48.3637Z" fill="#043F40"/>
<path d="M43.4052 49.1H44.3254V48.7728H43.4052V48.3637H44.4072V48.0264H43.0166V49.9384H44.4583V49.5908H43.4052V49.1Z" fill="#043F40"/>
<path d="M45.8685 48.0264H45.4697V49.9384H45.8685V48.0264Z" fill="#043F40"/>
<path d="M47.4132 49.3556L46.6566 48.0264H46.2373V49.9384H46.6054V48.5785L47.3825 49.9384H47.7813V48.0264H47.4132V49.3556Z" fill="#043F40"/>
<path d="M48.8551 49.4783L48.4461 48.0264H48.0166L48.6608 49.9384H49.0391L49.6833 48.0264H49.2743L48.8551 49.4783Z" fill="#043F40"/>
<path d="M50.327 49.1H51.2575V48.7728H50.327V48.3637H51.3393V48.0264H49.9385V49.9384H51.3802V49.5908H50.327V49.1Z" fill="#043F40"/>
<path d="M52.6791 48.8549L52.3417 48.7731C52.2088 48.7424 52.127 48.722 52.0861 48.6913C52.0247 48.6606 51.994 48.6095 51.994 48.5379C51.994 48.4664 52.0247 48.405 52.0861 48.3641C52.1474 48.3232 52.2292 48.3027 52.3417 48.3027C52.4337 48.3027 52.5155 48.3232 52.5768 48.3539C52.6689 48.405 52.72 48.4868 52.7302 48.5993H53.1086C53.1086 48.3948 53.0267 48.2414 52.8836 48.1392C52.7404 48.0369 52.5666 47.9756 52.3621 47.9756C52.1167 47.9756 51.9327 48.0369 51.81 48.1494C51.6873 48.2619 51.6259 48.405 51.6259 48.5788C51.6259 48.7629 51.6873 48.906 51.8202 48.9878C51.8918 49.039 52.0349 49.0901 52.2394 49.131L52.4439 49.1719C52.5666 49.2026 52.6484 49.223 52.7098 49.2639C52.7609 49.2946 52.7916 49.3457 52.7916 49.407C52.7916 49.5195 52.7302 49.5911 52.6177 49.632C52.5564 49.6525 52.4746 49.6627 52.3826 49.6627C52.219 49.6627 52.1065 49.6218 52.0451 49.5502C52.0042 49.5093 51.9838 49.4377 51.9735 49.3559H51.5952C51.5952 49.5502 51.6668 49.7138 51.81 49.8263C51.9531 49.9388 52.1474 50.0001 52.403 50.0001C52.6587 50.0001 52.8427 49.9388 52.9756 49.8263C53.1085 49.7138 53.1801 49.5706 53.1801 49.3968C53.1801 49.223 53.129 49.1003 53.0063 49.0083C52.9347 48.9469 52.8222 48.9061 52.6791 48.8652" fill="#043F40"/>
<path d="M53.3027 48.3637H53.8753V49.9384H54.2741V48.3637H54.8467V48.0264H53.3027V48.3637Z" fill="#043F40"/>
<path d="M56.0022 49.5294L55.6546 48.0264H55.0718V49.9384H55.4399V48.6501C55.4399 48.6501 55.4399 48.558 55.4399 48.4967C55.4399 48.4251 55.4399 48.374 55.4399 48.3433L55.7978 49.9487H56.1863L56.5442 48.3433C56.5442 48.3433 56.5442 48.4353 56.5442 48.4967C56.5442 48.558 56.5442 48.6194 56.5442 48.6501V49.9384H56.9123V48.0264H56.3397L55.992 49.5294H56.0022Z" fill="#043F40"/>
<path d="M57.6893 49.1H58.6198V48.7728H57.6893V48.3637H58.7016V48.0264H57.3008V49.9384H58.7425V49.5908H57.6893V49.1Z" fill="#043F40"/>
<path d="M60.2252 49.3556L59.4685 48.0264H59.0493V49.9384H59.4276V48.5785L60.2047 49.9384H60.6035V48.0264H60.2252V49.3556Z" fill="#043F40"/>
<path d="M60.8076 48.3637H61.3904V49.9384H61.7892V48.3637H62.3618V48.0264H60.8076V48.3637Z" fill="#043F40"/>
<path d="M14.5298 29.2944L12.1064 36.094H13.5891L14.0492 34.6932H16.5543L17.0042 36.094H18.5482L16.1453 29.2944H14.54H14.5298ZM14.4378 33.5276L15.3171 30.8486L16.176 33.5276H14.4378Z" fill="#043F40"/>
<path d="M25.4194 33.8241L26.1044 33.1288L28.2005 36.094H30.0206L27.0963 32.0961L29.8774 29.2944H28.0472L25.4194 32.0961V29.2944H24.0186V36.094H25.4194V33.8241Z" fill="#043F40"/>
<path d="M40.4908 30.501V29.2944H35.501V36.094H40.6544V34.8671H36.8916V33.2821H40.1943V32.1063H36.8916V30.501H40.4908Z" fill="#043F40"/>
<path d="M51.1148 30.501V29.2944H46.1353V36.094H51.2784V34.8671H47.5156V33.2821H50.8183V32.1063H47.5156V30.501H51.1148Z" fill="#043F40"/>
<path d="M58.2516 29.2944H56.7588V36.094H58.088V31.2678L60.8488 36.094H62.27V29.2944H60.951V34.0388L58.2516 29.2944Z" fill="#043F40"/>
<path d="M13.8446 18.8651H21.4724L22.5256 17.7915L23.5788 18.8651H62.311V6.97344L60.7772 8.53789L60.767 8.55829H52.0349V15.4397H48.4663V8.52765H31.1452V5.01026H45.041V0L43.497 1.58486H27.7301V11.9428H45.0512V15.4397H24.2741V8.50718H19.3559L20.8283 10.0205L20.8589 10.0512V15.4397H13.8651V10.0512L13.9059 10.0103L15.3579 8.51742H8.92638L10.3374 9.96935L10.4295 10.0512V18.8958H3.42534V10.0512L4.91821 8.51742H0V22.3518H13.8344V18.8548L13.8446 18.8651ZM55.4398 11.9837H58.8856V15.45H55.4398V11.9837Z" fill="#043F40"/>
<path d="M24.2534 23.2616L22.5254 21.4927L20.7871 23.2616L22.5254 25.0203L24.2534 23.2616Z" fill="#043F40"/>
<path d="M20.7875 23.2616L19.0596 21.4927L17.3315 23.2616L19.0596 25.0203L20.7875 23.2616Z" fill="#043F40"/>
<path d="M8.67038 3.6605L6.93212 1.8916L5.2041 3.6605L6.93212 5.41917L8.67038 3.6605Z" fill="#043F40"/>
<path d="M6.62543 36.094V29.2944H4.58044L3.35343 34.6421L2.11625 29.2944H0.0507812V36.094H1.36978C1.36978 36.094 1.36978 30.5214 1.36978 30.3885L2.6479 36.094H4.02831L5.31667 30.3885C5.31667 30.5214 5.31667 36.094 5.31667 36.094H6.63566H6.62543Z" fill="#043F40"/>
</svg>
