<svg width="191" height="61" viewBox="0 0 191 61" fill="none" xmlns="http://www.w3.org/2000/svg">
<path d="M18.5702 13.5955C15.9665 15.2098 13.7621 17.4142 12.1478 20.0179L5.604 13.474C7.39183 11.0093 9.56155 8.83959 12.0263 7.05176L18.5702 13.5955Z" fill="url(#paint0_linear_328_3200)"/>
<path d="M29.0712 1.51591C24.3673 1.51591 19.9411 2.64411 16.0183 4.62288L22.9613 11.5659C24.888 10.941 26.9536 10.5939 29.0712 10.5939C34.4 10.5939 39.399 12.6595 43.1656 16.4261L49.5879 10.0037C44.1029 4.51874 36.8301 1.49854 29.0712 1.49854V1.51591Z" fill="url(#paint1_linear_328_3200)"/>
<path d="M33.6188 49.9433C32.1434 50.2904 30.6333 50.464 29.0711 50.464C18.0838 50.464 9.14467 41.5249 9.14467 30.5375C9.14467 28.4026 9.4918 26.337 10.0993 24.4103L3.15628 17.4673C1.16016 21.3901 0.0493164 25.8336 0.0493164 30.5202C0.0493164 46.5238 13.0674 59.542 29.0711 59.542C30.616 59.542 32.1261 59.4205 33.6188 59.1949C35.3546 58.9171 37.0556 58.5006 38.7046 57.9104C44.6409 53.0503 39.5898 47.4612 39.5898 47.4612C37.7499 48.6068 35.7364 49.4399 33.6188 49.9259V49.9433Z" fill="url(#paint2_linear_328_3200)"/>
<path d="M46.29 53.7796C44.1203 55.3765 41.534 56.9213 38.7047 57.9107C44.641 53.0506 39.59 47.4615 39.59 47.4615L15.4629 23.3344C16.9036 20.6093 19.1601 18.3528 21.8852 16.9121L47.1578 42.1847C50.4731 45.5 50.0739 51.0024 46.29 53.7796Z" fill="#3E1E58"/>
<path d="M183.658 31.1111C183.484 29.8267 182.946 28.6464 182.2 27.5876C182.078 27.414 181.957 27.1883 181.661 27.2057C181.609 27.2578 181.54 27.3099 181.523 27.3967C181.349 28.1951 181.175 29.0109 181.019 29.8267C180.967 30.035 181.089 30.2086 181.21 30.3648C181.505 30.7814 181.818 31.198 182.095 31.6319C182.338 32.0138 182.547 32.413 182.72 32.8469C182.981 33.4891 182.929 33.7148 182.356 34.0793C180.967 34.9819 179.474 35.5894 177.773 35.4158C177.287 35.3638 176.819 35.3117 176.333 35.2249C176.177 35.2075 176.02 35.1034 175.829 35.034C175.916 34.8604 175.968 34.7389 176.038 34.6174C176.906 33.2114 177.357 31.6666 177.461 30.0176C177.548 28.4207 176.992 27.0495 176.125 25.7824C175.708 25.1575 175.257 25.0707 174.562 25.3484C174.076 25.5394 173.677 25.8518 173.295 26.2163C172.358 27.1189 171.594 28.1257 170.987 29.2712C169.98 31.1459 169.772 33.1073 170.431 35.1381C170.483 35.2943 170.501 35.4506 170.535 35.6762C170.206 35.7803 169.911 35.8845 169.615 35.9713C168.956 36.1622 168.261 36.1622 167.585 36.1448C165.988 36.0928 164.669 35.4506 163.627 34.2355C163.141 33.6627 162.759 33.0378 162.464 32.3609C161.857 31.0244 161.509 29.6184 161.318 28.1777C160.919 25.1922 158.576 10.3168 157.517 6.06418C157.118 4.44992 156.545 2.9051 155.868 1.39499C155.781 1.20405 155.712 0.978389 155.486 0.891602C155.417 0.961032 155.365 0.995741 155.347 1.04781C155.052 1.96776 154.775 2.90508 154.497 3.82504C154.41 4.10276 154.497 4.3805 154.601 4.65822C154.931 5.54346 155.261 6.41133 155.521 7.31393C157.413 13.8057 158.923 24.8798 159.27 28.0389C159.427 29.5143 159.583 30.9897 159.947 32.4303C160.312 33.9057 160.815 35.329 161.666 36.5961C163.141 38.7832 165.224 39.6858 167.828 39.4775C169.303 39.356 170.657 38.87 171.924 38.1236C172.167 37.9848 172.41 37.8286 172.636 37.7071C172.722 37.7244 172.792 37.7244 172.844 37.7591C174.771 38.7138 176.836 38.9221 178.936 38.6964C181.176 38.4534 182.72 37.221 183.415 35.034C183.831 33.7669 183.866 32.4477 183.692 31.1459L183.658 31.1111ZM173.538 34.0793C172.861 33.6627 172.341 33.2288 171.924 32.6733C171.351 31.9096 171.334 31.25 171.907 30.4863C172.254 30.0176 172.688 29.601 173.104 29.1671C173.243 29.0282 173.417 28.9241 173.59 28.8199C174.076 28.5596 174.458 28.5943 174.805 29.0283C175.448 29.8441 175.881 30.764 176.038 31.7881C176.09 32.1353 175.951 32.413 175.691 32.6039C174.996 33.0899 174.285 33.5586 173.538 34.0793Z" fill="#5E5E5E"/>
<path d="M129.936 27.5002C129.589 27.2572 129.225 26.9968 128.825 26.7365C128.791 26.7191 128.773 26.7018 128.739 26.6844L128.825 26.6323L129.103 26.6844C129.381 26.7365 129.624 26.8753 129.78 27.101C129.867 27.2225 129.919 27.3613 129.936 27.5002Z" fill="#5E5E5E"/>
<path d="M156.476 35.7098C156.268 36.1437 155.973 36.543 155.625 36.8727C155.139 37.3761 154.601 37.8795 154.029 38.2961C150.21 41.0559 146.131 43.2951 141.653 44.7531C139.379 45.4995 137.053 45.8813 134.658 45.6904C133.547 45.6036 132.47 45.3259 131.446 44.8399C129.902 44.0935 128.791 42.9132 127.975 41.4204C126.777 39.2334 126.447 36.9248 126.69 34.4774C126.916 32.273 127.524 30.1727 128.444 28.1766C128.565 27.8989 128.652 27.5864 128.93 27.4128C129.138 27.4476 129.173 27.5865 129.138 27.7253C129.086 28.0378 129.016 28.3502 128.912 28.6279C128.183 30.6761 128.027 32.7937 128.166 34.946C128.235 35.866 128.426 36.7512 128.756 37.6017C129.45 39.4069 130.683 40.6741 132.471 41.3857C133.425 41.7676 134.432 41.9759 135.456 42.0626C137.417 42.2189 139.327 41.9932 141.201 41.4551C142.902 40.9691 144.551 40.3269 146.166 39.5979C148.683 38.4349 151.113 37.1331 153.473 35.6924C154.029 35.3453 154.567 34.9808 155.105 34.5989C155.33 34.4427 155.539 34.2344 155.747 34.0435C156.025 33.7831 156.112 33.4706 156.007 33.1061C155.886 32.6722 155.764 32.2209 155.608 31.8043C155.07 30.3636 154.515 28.9403 153.959 27.4997C153.629 26.6144 153.317 25.7292 153.005 24.844C152.953 24.7051 152.952 24.5315 152.866 24.4447C152.519 24.0802 152.553 23.6636 152.623 23.247C152.744 22.5701 152.866 21.8931 153.005 21.2336C153.057 20.9906 153.178 20.7649 153.248 20.574C153.473 20.4698 153.577 20.574 153.664 20.6955C154.411 21.5286 155.157 22.3445 155.869 23.195C156.094 23.4553 156.25 23.7678 156.407 24.0628C156.459 24.167 156.476 24.3753 156.407 24.4447C156.355 24.5315 156.164 24.5488 156.042 24.5315C155.764 24.4794 155.504 24.3927 155.226 24.3059C155.122 24.601 155.296 24.7919 155.383 24.9828C155.851 26.2152 156.32 27.4302 156.789 28.6626C156.927 29.0271 157.014 29.4263 157.118 29.8082C157.691 31.8564 157.344 33.8178 156.441 35.6924L156.476 35.7098Z" fill="#5E5E5E"/>
<path d="M189.767 37.6538C189.681 37.9663 189.629 38.3308 189.264 38.5564C189.021 38.3655 189.004 38.1224 188.986 37.8794C188.934 37.1157 188.847 36.352 188.83 35.5709C188.795 34.1129 188.587 32.6722 188.379 31.2315C187.945 28.0724 185.393 12.5027 184.942 9.62131C184.716 8.25006 184.508 6.86148 184.317 5.47288C184.265 5.16044 184.213 4.86534 183.97 4.63969C183.762 4.44876 183.71 4.20575 183.814 3.92803C184.196 2.956 184.595 1.96662 184.994 0.994591C185.011 0.942518 185.081 0.925167 185.185 0.838379C185.827 1.63683 188.171 6.56639 188.761 8.33686C188.83 8.57987 188.986 8.80552 188.83 9.1006C188.344 9.1006 188.118 8.70135 187.823 8.42363C187.511 8.12855 187.233 7.81614 186.886 7.46899C186.73 7.76406 186.834 7.98972 186.869 8.18065C187.112 9.5519 187.372 10.9231 187.615 12.2944C188.136 15.3146 190.219 28.3328 190.496 30.7802C190.757 33.1061 190.444 35.38 189.802 37.6191L189.767 37.6538Z" fill="#5E5E5E"/>
<path d="M176.107 19.7931C175.985 20.175 175.777 20.4874 175.603 20.7998C175.43 21.1296 175.239 21.4421 175.065 21.7719C174.892 22.0843 174.701 22.4141 174.51 22.7439C173.868 22.5356 173.364 22.1364 172.826 21.8413C172.288 21.5462 171.75 21.2165 171.108 20.8346C170.605 21.6851 170.171 22.4315 169.702 23.2299C169.025 23.0563 168.539 22.6224 167.966 22.3273C167.393 22.0149 166.838 21.6677 166.3 21.3379C166.491 20.6957 167.393 19.0294 167.914 18.3698C169.025 18.8905 170.049 19.6369 171.195 20.2097C171.82 19.5154 172.097 18.6128 172.67 17.8838C173.295 18.0574 173.816 18.4739 174.371 18.7864C174.944 19.0988 175.499 19.4459 176.107 19.8105V19.7931Z" fill="#5E5E5E"/>
<path d="M184.976 21.9458C184.837 22.5186 183.97 24.1676 183.431 24.8793C182.807 24.6536 180.654 23.4039 180.029 22.9005C180.463 21.9458 181.071 21.0432 181.557 20.0192C180.637 19.3943 179.7 18.9603 178.884 18.3702C179.179 17.6064 180.099 15.9748 180.515 15.4541C181.262 15.7665 183.397 17.0336 183.918 17.4676C183.414 18.4049 182.893 19.3422 182.355 20.3316C183.275 20.887 184.143 21.4251 185.011 21.9458H184.976Z" fill="#5E5E5E"/>
<path d="M142.295 28.1249C142.156 28.663 141.34 30.1731 140.698 31.1104C139.57 30.4508 138.459 29.8259 137.383 29.1837C137.539 28.5762 138.32 27.1008 138.927 26.2329C139.5 26.4065 141.392 27.4653 142.295 28.1249Z" fill="#5E5E5E"/>
<path d="M167.827 30.3632C167.602 31.0575 167.411 31.7692 167.133 32.4288C166.925 32.9321 166.526 33.314 165.883 33.2272C165.345 33.1578 164.929 32.7933 164.859 32.099C164.79 31.3526 164.703 30.5368 164.911 29.8251C165.363 28.2282 165.988 26.6834 166.543 25.1212C166.578 25.0345 166.647 24.9476 166.699 24.8608C166.751 24.8782 166.803 24.8956 166.855 24.9129C166.769 25.2601 166.682 25.6072 166.578 25.9718C166.248 27.1694 165.866 28.3497 165.588 29.5474C165.502 29.9119 165.588 30.3632 165.692 30.7277C165.918 31.5088 166.56 31.6477 167.081 31.0228C167.341 30.7104 167.532 30.3632 167.827 29.9293C167.827 30.1202 167.879 30.2417 167.827 30.3458V30.3632Z" fill="#5E5E5E"/>
<path d="M162.985 6.34075C162.759 7.03506 162.568 7.74672 162.291 8.40631C162.082 8.90968 161.683 9.29153 161.041 9.20474C160.503 9.13531 160.086 8.77081 160.017 8.07651C159.947 7.33014 159.861 6.51433 160.069 5.80267C160.52 4.20578 161.145 2.66091 161.7 1.09873C161.735 1.01194 161.805 0.925167 161.857 0.838379C161.909 0.855736 161.961 0.873092 162.013 0.89045C161.926 1.2376 161.839 1.58478 161.735 1.94929C161.405 3.14696 161.023 4.32727 160.746 5.52495C160.659 5.88945 160.746 6.34074 160.85 6.70525C161.075 7.48634 161.718 7.62522 162.239 7.00035C162.499 6.68791 162.69 6.34075 162.985 5.90681C162.985 6.09775 163.037 6.21923 162.985 6.32338V6.34075Z" fill="#5E5E5E"/>
<path d="M148.456 18.5785C148.231 19.2728 148.04 19.9845 147.762 20.644C147.554 21.1474 147.154 21.5293 146.512 21.4425C145.974 21.3731 145.558 21.0086 145.488 20.3143C145.419 19.5679 145.332 18.7521 145.54 18.0404C145.992 16.4435 146.616 14.8987 147.172 13.3365C147.207 13.2497 147.276 13.163 147.328 13.0762C147.38 13.0935 147.432 13.1109 147.484 13.1282C147.398 13.4754 147.311 13.8225 147.207 14.187C146.877 15.3847 146.495 16.565 146.217 17.7627C146.13 18.1272 146.217 18.5785 146.321 18.943C146.547 19.7241 147.189 19.863 147.71 19.2381C147.97 18.9257 148.161 18.5785 148.456 18.1446C148.456 18.3355 148.508 18.457 148.456 18.5612V18.5785Z" fill="#5E5E5E"/>
<path d="M154.237 15.5239C154.011 16.2182 153.82 16.9298 153.542 17.5894C153.334 18.0927 152.935 18.4746 152.293 18.3878C151.754 18.3184 151.338 17.9539 151.268 17.2596C151.199 16.5132 151.112 15.6974 151.32 14.9857C151.772 13.3888 152.397 11.844 152.952 10.2818C152.987 10.195 153.056 10.1083 153.108 10.0215C153.16 10.0388 153.212 10.0562 153.265 10.0736C153.178 10.4207 153.091 10.7678 152.987 11.1323C152.657 12.33 152.275 13.5104 151.997 14.7081C151.911 15.0726 151.997 15.5238 152.102 15.8884C152.327 16.6694 152.969 16.8083 153.49 16.1834C153.751 15.871 153.941 15.5239 154.237 15.0899C154.237 15.2809 154.289 15.4023 154.237 15.5065V15.5239Z" fill="#5E5E5E"/>
<path d="M141.982 21.4594C141.756 22.1537 141.565 22.8653 141.288 23.5249C141.079 24.0283 140.68 24.4101 140.038 24.3233C139.5 24.2539 139.083 23.8894 139.014 23.1951C138.944 22.4487 138.858 21.6329 139.066 20.9213C139.517 19.3244 140.142 17.7796 140.697 16.2174C140.732 16.1306 140.802 16.0438 140.854 15.957C140.906 15.9744 140.958 15.9917 141.01 16.0091C140.923 16.3563 140.836 16.7034 140.732 17.0679C140.402 18.2656 140.021 19.4459 139.743 20.6435C139.656 21.0081 139.743 21.4593 139.847 21.8238C140.073 22.6049 140.715 22.7438 141.236 22.1189C141.496 21.8065 141.687 21.4594 141.982 21.0254C141.982 21.2163 142.034 21.3378 141.982 21.442V21.4594Z" fill="#5E5E5E"/>
<path d="M139.048 12.5032C138.753 13.1628 138.493 13.8571 138.129 14.482C137.851 14.968 137.417 15.2804 136.809 15.1416C136.289 15.0201 135.907 14.6035 135.907 13.9092C135.907 13.1454 135.924 12.3296 136.202 11.6527C136.827 10.1252 137.608 8.64985 138.337 7.15709C138.372 7.07031 138.458 7.00085 138.51 6.91406C138.562 6.93142 138.615 6.96615 138.667 6.98351C138.528 7.3133 138.406 7.66043 138.267 7.99022C137.799 9.13582 137.313 10.2815 136.896 11.4444C136.775 11.8089 136.809 12.2429 136.879 12.6421C137.018 13.4579 137.643 13.6488 138.233 13.076C138.528 12.7983 138.753 12.4685 139.083 12.0693C139.083 12.2602 139.083 12.3817 139.048 12.4859V12.5032Z" fill="#5E5E5E"/>
<path d="M107.805 21.1293C107.58 21.8236 107.389 22.5352 107.111 23.1948C106.903 23.6982 106.503 24.0801 105.861 23.9933C105.323 23.9238 104.907 23.5593 104.837 22.865C104.768 22.1187 104.681 21.3029 104.889 20.5912C105.34 18.9943 105.965 17.4495 106.521 15.8873C106.555 15.8005 106.625 15.7137 106.677 15.627C106.729 15.6443 106.781 15.6617 106.833 15.679C106.746 16.0262 106.66 16.3733 106.555 16.7378C106.226 17.9355 105.844 19.1158 105.566 20.3135C105.479 20.678 105.566 21.1293 105.67 21.4938C105.896 22.2749 106.538 22.4137 107.059 21.7889C107.319 21.4764 107.51 21.1293 107.805 20.6953C107.805 20.8863 107.857 21.0078 107.805 21.1119V21.1293Z" fill="#5E5E5E"/>
<path d="M102.112 21.4594C101.886 22.1537 101.695 22.8653 101.417 23.5249C101.209 24.0283 100.81 24.4101 100.168 24.3233C99.6295 24.2539 99.2129 23.8894 99.1434 23.1951C99.074 22.4487 98.9873 21.6329 99.1955 20.9213C99.6468 19.3244 100.272 17.7796 100.827 16.2174C100.862 16.1306 100.931 16.0438 100.983 15.957C101.035 15.9744 101.088 15.9917 101.14 16.0091C101.053 16.3563 100.966 16.7034 100.862 17.0679C100.532 18.2656 100.15 19.4459 99.8724 20.6435C99.7856 21.0081 99.8724 21.4593 99.9766 21.8238C100.202 22.6049 100.845 22.7438 101.365 22.1189C101.626 21.8065 101.817 21.4594 102.112 21.0254C102.112 21.2163 102.164 21.3378 102.112 21.442V21.4594Z" fill="#5E5E5E"/>
<path d="M69.4793 33.4184C69.2537 34.1127 69.0627 34.8244 68.785 35.4839C68.5767 35.9873 68.1774 36.3692 67.5352 36.2824C66.9971 36.2129 66.5806 35.8485 66.5112 35.1541C66.4417 34.4078 66.3549 33.592 66.5632 32.8803C67.0145 31.2834 67.6393 29.7386 68.1948 28.1764C68.2295 28.0896 68.299 28.0028 68.3511 27.916C68.4031 27.9334 68.4552 27.9507 68.5073 27.9681C68.4205 28.3152 68.3337 28.6624 68.2295 29.0269C67.8997 30.2246 67.5179 31.4049 67.2401 32.6026C67.1534 32.9671 67.2401 33.4184 67.3443 33.7829C67.5699 34.564 68.2121 34.7028 68.7329 34.0779C68.9932 33.7655 69.1843 33.4184 69.4793 32.9845C69.4793 33.1754 69.5314 33.2969 69.4793 33.401V33.4184Z" fill="#5E5E5E"/>
<path d="M65.5046 26.1112C65.279 26.8055 65.0881 27.5172 64.8104 28.1768C64.6021 28.6801 64.2028 29.062 63.5606 28.9753C63.0225 28.9058 62.606 28.5413 62.5365 27.847C62.4671 27.1006 62.3803 26.2848 62.5886 25.5731C63.0399 23.9762 63.6647 22.4314 64.2202 20.8692C64.2549 20.7825 64.3244 20.6957 64.3764 20.6089C64.4285 20.6262 64.4805 20.6436 64.5326 20.661C64.4458 21.0081 64.3591 21.3552 64.2549 21.7197C63.9251 22.9174 63.5433 24.0977 63.2655 25.2954C63.1787 25.6599 63.2655 26.1112 63.3697 26.4758C63.5953 27.2568 64.2375 27.3957 64.7583 26.7708C65.0186 26.4584 65.2095 26.1112 65.5046 25.6773C65.5046 25.8682 65.5567 25.9897 65.5046 26.0939V26.1112Z" fill="#5E5E5E"/>
<path d="M74.7909 31.5619C74.5652 32.2562 74.3742 32.9679 74.0965 33.6275C73.8882 34.1309 73.4891 34.5127 72.8468 34.4259C72.3087 34.3565 71.8921 33.992 71.8227 33.2977C71.7532 32.5513 71.6664 31.7355 71.8747 31.0239C72.326 29.427 72.9509 27.8821 73.5063 26.3199C73.541 26.2331 73.6105 26.1464 73.6626 26.0596C73.7146 26.0769 73.7668 26.0943 73.8188 26.1116C73.7321 26.4588 73.6452 26.806 73.5411 27.1705C73.2113 28.3682 72.8294 29.5485 72.5517 30.7461C72.4649 31.1106 72.5517 31.5619 72.6558 31.9264C72.8815 32.7075 73.5237 32.8464 74.0444 32.2215C74.3048 31.9091 74.4958 31.5619 74.7909 31.128C74.7909 31.3189 74.8429 31.4404 74.7909 31.5446V31.5619Z" fill="#5E5E5E"/>
<path d="M125.648 30.2602C125.423 30.9545 125.232 31.6662 124.954 32.3257C124.746 32.8291 124.347 33.211 123.704 33.1242C123.166 33.0547 122.75 32.6902 122.68 31.9959C122.611 31.2496 122.524 30.4338 122.732 29.7221C123.184 28.1252 123.809 26.5803 124.364 25.0182C124.399 24.9314 124.468 24.8446 124.52 24.7578C124.572 24.7752 124.624 24.7925 124.676 24.8099C124.59 25.157 124.503 25.5042 124.399 25.8687C124.069 27.0664 123.687 28.2467 123.409 29.4444C123.322 29.8089 123.409 30.2602 123.513 30.6247C123.739 31.4058 124.381 31.5447 124.902 30.9198C125.162 30.6073 125.353 30.2602 125.648 29.8262C125.648 30.0172 125.701 30.1387 125.648 30.2428V30.2602Z" fill="#5E5E5E"/>
<path d="M159.392 42.4794C159.166 43.1737 158.975 43.8853 158.697 44.5449C158.489 45.0483 158.09 45.4302 157.448 45.3434C156.91 45.274 156.493 44.9095 156.423 44.2152C156.354 43.4688 156.267 42.653 156.476 41.9413C156.927 40.3444 157.552 38.7996 158.107 37.2374C158.142 37.1506 158.211 37.0638 158.263 36.9771C158.315 36.9944 158.368 37.0118 158.42 37.0291C158.333 37.3763 158.246 37.7235 158.142 38.088C157.812 39.2856 157.43 40.4659 157.152 41.6636C157.066 42.0281 157.152 42.4794 157.257 42.8439C157.482 43.625 158.125 43.7638 158.645 43.139C158.906 42.8265 159.097 42.4794 159.392 42.0455C159.392 42.2364 159.444 42.3579 159.392 42.4621V42.4794Z" fill="#5E5E5E"/>
<path d="M187.146 42.4794C186.921 43.1737 186.73 43.8853 186.452 44.5449C186.244 45.0483 185.844 45.4302 185.202 45.3434C184.664 45.274 184.248 44.9095 184.178 44.2152C184.109 43.4688 184.022 42.653 184.23 41.9413C184.682 40.3444 185.306 38.7996 185.862 37.2374C185.897 37.1506 185.966 37.0638 186.018 36.9771C186.07 36.9944 186.122 37.0118 186.174 37.0291C186.087 37.3763 186.001 37.7235 185.896 38.088C185.567 39.2856 185.185 40.4659 184.907 41.6636C184.82 42.0281 184.907 42.4794 185.011 42.8439C185.237 43.625 185.879 43.7638 186.4 43.139C186.66 42.8265 186.851 42.4794 187.146 42.0455C187.146 42.2364 187.198 42.3579 187.146 42.4621V42.4794Z" fill="#5E5E5E"/>
<path d="M172.618 2.38367C172.496 2.60932 172.375 2.644 172.184 2.45307C171.524 1.79348 171.264 1.8282 170.986 2.73079C170.778 3.39038 170.622 4.06733 170.483 4.74428C170.084 6.84455 169.077 8.49352 167.307 9.74327C165.762 10.8368 164.009 11.4443 162.273 12.0519C162.203 12.0692 162.134 12.0519 162.065 12.0519C162.065 12.0345 162.047 11.9998 162.03 11.9824C162.203 11.8609 162.36 11.7394 162.533 11.6352C164.338 10.507 166.161 9.4135 167.931 8.25054C168.487 7.88603 168.938 7.34792 169.407 6.86191C169.476 6.79247 169.528 6.61891 169.511 6.49741C169.389 5.36917 168.938 4.36241 168.4 3.39039C168.296 3.21681 168.174 3.14739 167.966 3.28625C167.567 3.54661 167.289 3.23417 167.029 3.00852C166.786 2.78287 166.543 2.52251 166.768 2.14064C166.89 1.94971 167.011 1.75878 167.098 1.55049C167.272 1.20334 167.55 1.0992 167.845 1.29014C168.209 1.53314 168.591 1.81087 168.851 2.15802C169.424 2.92175 169.667 3.82434 169.893 4.76165C169.928 4.60544 169.962 4.44924 169.997 4.29302C170.188 3.54664 170.344 2.78289 170.587 2.05388C170.726 1.61994 170.969 1.20333 171.264 0.838824C171.594 0.4396 172.01 0.491673 172.375 0.838824C172.826 1.30748 172.896 1.82823 172.618 2.38367Z" fill="#5E5E5E"/>
<path d="M128.513 2.03633C128.408 2.2099 128.322 2.24461 128.166 2.0884C127.645 1.55031 127.419 1.58504 127.194 2.31405C127.02 2.85214 126.898 3.39023 126.794 3.94567C126.482 5.62935 125.666 6.98326 124.243 7.97264C122.993 8.85788 121.587 9.34385 120.164 9.82986C120.112 9.84722 120.042 9.82986 119.99 9.82986C119.99 9.8125 119.973 9.79515 119.955 9.77779C120.094 9.691 120.216 9.5869 120.355 9.50012C121.813 8.59752 123.271 7.71226 124.711 6.75759C125.163 6.46251 125.527 6.02858 125.909 5.62936C125.978 5.55993 125.996 5.4384 125.996 5.33425C125.892 4.43166 125.544 3.61589 125.093 2.81744C125.024 2.67858 124.92 2.62647 124.746 2.73062C124.416 2.93891 124.191 2.69595 123.982 2.50501C123.774 2.33144 123.6 2.10575 123.774 1.81067C123.861 1.65445 123.965 1.49823 124.052 1.32466C124.191 1.04694 124.416 0.960158 124.659 1.11638C124.954 1.30731 125.267 1.53295 125.475 1.81067C125.926 2.41818 126.135 3.1646 126.308 3.91097C126.343 3.78947 126.36 3.66797 126.395 3.5291C126.551 2.92159 126.673 2.31404 126.864 1.70653C126.985 1.35938 127.176 1.01223 127.402 0.734508C127.662 0.404714 128.009 0.439429 128.304 0.734508C128.669 1.11637 128.738 1.53296 128.495 1.98426L128.513 2.03633Z" fill="#5E5E5E"/>
<path d="M96.3139 6.34075C96.0883 7.03506 95.8974 7.74672 95.6197 8.40631C95.4114 8.90968 95.0121 9.29153 94.3699 9.20474C93.8318 9.13531 93.4153 8.77081 93.3459 8.07651C93.2764 7.33014 93.1896 6.51433 93.3979 5.80267C93.8492 4.20578 94.4741 2.66091 95.0295 1.09873C95.0642 1.01194 95.1337 0.925167 95.1858 0.838379C95.2378 0.855736 95.2899 0.873092 95.3419 0.89045C95.2551 1.2376 95.1684 1.58478 95.0643 1.94929C94.7345 3.14696 94.3526 4.32727 94.0749 5.52495C93.9881 5.88945 94.0749 6.34074 94.179 6.70525C94.4046 7.48634 95.0469 7.62522 95.5676 7.00035C95.8279 6.68791 96.0189 6.34075 96.3139 5.90681C96.3139 6.09775 96.366 6.21923 96.3139 6.32338V6.34075Z" fill="#5E5E5E"/>
<path d="M121.188 5.50826C120.997 6.09842 120.841 6.70595 120.598 7.26139C120.407 7.69533 120.077 8.00774 119.539 7.93831C119.088 7.88624 118.723 7.57382 118.671 6.98367C118.602 6.34144 118.55 5.64711 118.706 5.05695C119.088 3.70306 119.626 2.40126 120.095 1.06473C120.129 0.995297 120.182 0.925876 120.216 0.856445C120.268 0.856445 120.303 0.891158 120.355 0.908516C120.268 1.20359 120.199 1.49869 120.112 1.79377C119.834 2.80051 119.522 3.80725 119.279 4.83135C119.21 5.14378 119.279 5.52562 119.366 5.83806C119.557 6.49765 120.095 6.61918 120.546 6.08109C120.754 5.82073 120.928 5.52565 121.171 5.16114C121.171 5.33472 121.206 5.42147 121.171 5.50826H121.188Z" fill="#5E5E5E"/>
<path d="M104.941 2.69569C104.82 2.92133 104.698 2.95606 104.507 2.76513C103.848 2.10554 103.587 2.14026 103.31 3.04286C103.101 3.70245 102.945 4.37935 102.806 5.05629C102.407 7.15656 101.4 8.80553 99.6298 10.0553C98.085 11.1488 96.3318 11.7564 94.5961 12.3639C94.5266 12.3812 94.4572 12.3639 94.3878 12.3639C94.3878 12.3465 94.3704 12.3118 94.353 12.2944C94.5266 12.1729 94.6829 12.0514 94.8565 11.9472C96.6617 10.819 98.4842 9.72551 100.255 8.56255C100.81 8.19805 101.261 7.65993 101.73 7.17392C101.799 7.10449 101.851 6.93093 101.834 6.80942C101.713 5.68118 101.261 4.67443 100.723 3.7024C100.619 3.52883 100.498 3.4594 100.289 3.59826C99.8902 3.85862 99.6124 3.54618 99.352 3.32053C99.109 3.09488 98.8661 2.83452 99.0917 2.45265C99.2132 2.26172 99.3347 2.07079 99.4215 1.8625C99.5951 1.51535 99.8728 1.41122 100.168 1.60215C100.532 1.84516 100.914 2.12288 101.175 2.47003C101.747 3.23376 101.99 4.13636 102.216 5.07367C102.251 4.91745 102.285 4.76125 102.32 4.60503C102.511 3.85865 102.667 3.09491 102.91 2.36589C103.049 1.93195 103.292 1.51535 103.587 1.15084C103.917 0.751612 104.334 0.803685 104.698 1.15084C105.149 1.61949 105.219 2.14024 104.941 2.69569Z" fill="#5E5E5E"/>
<path d="M151.945 2.62727C151.824 2.85292 151.702 2.88765 151.511 2.69672C150.852 2.03713 150.591 2.07185 150.314 2.97445C150.105 3.63403 149.949 4.31099 149.81 4.98793C149.602 6.13353 149.203 7.14027 148.595 8.02551C148.508 8.16437 148.422 8.26849 148.231 8.49414C147.519 9.39674 146.981 9.90011 146.287 10.6118C144.725 12.1913 144.586 12.4864 143.336 13.6146C143.041 13.875 142.798 14.0833 142.642 14.2395C142.694 14.118 142.763 13.9097 142.885 13.6667C143.891 11.497 145.714 10.282 147.519 8.30323C147.71 8.09494 148.109 7.64365 148.335 6.94935C148.37 6.82784 148.491 6.46332 148.508 5.95995C148.508 5.95995 148.543 5.12679 147.745 3.63404C147.727 3.58197 147.658 3.49517 147.571 3.46046C147.502 3.4431 147.415 3.46047 147.328 3.5299C146.929 3.79026 146.651 3.47782 146.391 3.25217C146.148 3.02653 145.905 2.76616 146.13 2.38429C146.252 2.19336 146.374 2.00243 146.46 1.79414C146.634 1.44699 146.912 1.3428 147.207 1.53374C147.571 1.77674 147.953 2.05446 148.213 2.40162C148.786 3.16535 149.029 4.06794 149.255 5.00525C149.29 4.84903 149.324 4.69284 149.359 4.53662C149.55 3.79024 149.706 3.02649 149.949 2.29748C150.088 1.86354 150.331 1.44699 150.626 1.08248C150.956 0.683253 151.372 0.735325 151.737 1.08248C152.188 1.55113 152.258 2.07183 151.98 2.62727H151.945Z" fill="#5E5E5E"/>
<path d="M151.425 27.4472C151.303 27.6728 151.182 27.7075 150.991 27.5165C150.331 26.857 150.071 26.8917 149.793 27.7943C149.585 28.4539 149.429 29.1308 149.29 29.8078C148.891 31.908 147.884 33.557 146.113 34.8067C144.569 35.9003 142.815 36.5078 141.08 37.1153C141.01 37.1326 140.941 37.1153 140.871 37.1153C140.871 37.0979 140.854 37.0632 140.837 37.0459C141.01 36.9244 141.166 36.8029 141.34 36.6987C143.145 35.5705 144.968 34.477 146.738 33.314C147.294 32.9495 147.745 32.4114 148.214 31.9254C148.283 31.856 148.335 31.6824 148.318 31.5609C148.196 30.4326 147.745 29.4259 147.207 28.4539C147.103 28.2803 146.981 28.2109 146.773 28.3497C146.374 28.6101 146.096 28.2976 145.836 28.072C145.593 27.8463 145.35 27.586 145.575 27.2041C145.697 27.0132 145.818 26.8223 145.905 26.614C146.079 26.2668 146.356 26.1627 146.651 26.3536C147.016 26.5966 147.398 26.8743 147.658 27.2215C148.231 27.9852 148.474 28.8878 148.7 29.8251C148.734 29.6689 148.769 29.5127 148.804 29.3564C148.995 28.6101 149.151 27.8464 149.394 27.1174C149.533 26.6834 149.776 26.2668 150.071 25.9023C150.401 25.5031 150.817 25.5551 151.182 25.9023C151.633 26.371 151.702 26.8917 151.425 27.4472Z" fill="#5E5E5E"/>
<path d="M83.0876 28.5761C82.9661 28.8017 82.8446 28.8364 82.6537 28.6455C81.9941 27.9859 81.7337 28.0206 81.456 28.9232C81.2477 29.5828 81.0915 30.2597 80.9526 30.9367C80.5534 33.0369 79.5466 34.6859 77.7762 35.9357C76.2314 37.0292 74.4782 37.6367 72.7424 38.2442C72.673 38.2616 72.6036 38.2442 72.5342 38.2442C72.5342 38.2269 72.5169 38.1922 72.4995 38.1748C72.6731 38.0533 72.8293 37.9318 73.0028 37.8276C74.808 36.6994 76.6306 35.6059 78.401 34.4429C78.9565 34.0784 79.4078 33.5403 79.8765 33.0543C79.9459 32.9849 79.998 32.8113 79.9806 32.6898C79.8591 31.5616 79.4078 30.5548 78.8697 29.5828C78.7656 29.4092 78.6441 29.3398 78.4358 29.4786C78.0365 29.739 77.7589 29.4266 77.4985 29.2009C77.2555 28.9753 77.0124 28.7149 77.2381 28.333C77.3596 28.1421 77.4811 27.9512 77.5679 27.7429C77.7415 27.3957 78.0192 27.2916 78.3143 27.4825C78.6788 27.7255 79.0607 28.0032 79.321 28.3504C79.8938 29.1141 80.1368 30.0167 80.3624 30.954C80.3972 30.7978 80.4319 30.6416 80.4666 30.4854C80.6575 29.739 80.8138 28.9753 81.0568 28.2463C81.1956 27.8123 81.4387 27.3957 81.7338 27.0312C82.0635 26.632 82.48 26.6841 82.8446 27.0312C83.2959 27.4999 83.3653 28.0206 83.0876 28.5761Z" fill="#5E5E5E"/>
<path d="M171.646 11.9125C165.953 14.3946 162.724 15.87 161.978 16.356C161.648 16.599 161.492 17.1371 161.492 17.953C161.492 18.1786 161.769 18.4737 162.29 18.8729C162.828 19.2548 163.21 19.4457 163.47 19.4457C163.766 19.4457 163.922 19.1506 163.957 18.5778C163.21 18.3869 162.585 18.0224 162.065 17.519C162.707 17.0156 165.293 15.7659 169.823 13.7698C173.937 11.9472 177.478 10.4718 180.446 9.36093C180.915 8.63191 181.019 8.26741 180.776 8.28477C180.342 8.28477 177.287 9.49981 171.629 11.9299" fill="#5E5E5E"/>
<path d="M104.489 11.1488C98.7962 13.631 95.5676 15.1063 94.8213 15.5924C94.4915 15.8354 94.3352 16.3735 94.3352 17.1893C94.3352 17.4149 94.613 17.71 95.1337 18.1092C95.6718 18.4911 96.0536 18.682 96.314 18.682C96.6091 18.682 96.7653 18.3869 96.8001 17.8141C96.0537 17.6232 95.4288 17.2587 94.908 16.7553C95.5503 16.252 98.1366 15.0022 102.667 13.0061C106.781 11.1836 110.322 9.70815 113.29 8.59726C113.758 7.86824 113.863 7.50374 113.62 7.5211C113.186 7.5211 110.131 8.73614 104.472 11.1662" fill="#5E5E5E"/>
<path d="M75.2081 13.9955C70.8166 15.9048 68.3345 17.0504 67.7443 17.4323C67.484 17.6232 67.3624 18.0225 67.3798 18.6647C67.3798 18.8383 67.5881 19.0812 68.0046 19.3763C68.4212 19.6714 68.7164 19.8276 68.9247 19.8103C69.1503 19.8103 69.2718 19.5846 69.3065 19.1333C68.7337 18.9771 68.2477 18.7168 67.8485 18.3175C68.3519 17.9357 70.3479 16.9636 73.8368 15.4188C76.9958 14.0128 79.7384 12.8672 82.0296 12.0167C82.3941 11.4613 82.4809 11.1836 82.2726 11.1836C81.9428 11.1836 79.5822 12.1209 75.2081 13.9955Z" fill="#5E5E5E"/>
<path d="M75.2081 19.724C70.8166 21.6334 68.3345 22.779 67.7443 23.1608C67.484 23.3518 67.3624 23.751 67.3798 24.3932C67.3798 24.5668 67.5881 24.8098 68.0046 25.1049C68.4212 25.4 68.7164 25.5562 68.9247 25.5388C69.1503 25.5388 69.2718 25.3132 69.3065 24.8619C68.7337 24.7056 68.2477 24.4453 67.8485 24.046C68.3519 23.6642 70.3479 22.6922 73.8368 21.1474C76.9958 19.7414 79.7384 18.5958 82.0296 17.7453C82.3941 17.1898 82.4809 16.9121 82.2726 16.9121C81.9428 16.9121 79.5822 17.8494 75.2081 19.724Z" fill="#5E5E5E"/>
<path d="M179.995 0.855762C179.492 0.821047 179.11 1.49796 178.884 2.88657C178.745 3.63294 178.624 4.37933 178.537 5.12571C178.311 4.70913 178.155 4.32729 178.034 4.01485C177.235 2.45267 176.471 1.68891 175.76 1.70627C175.361 1.70627 175.204 2.12289 175.291 2.93869C175.326 3.11227 175.534 3.32052 175.933 3.54616C176.333 3.77181 176.593 3.87598 176.697 3.84127C176.749 3.78919 176.801 3.71974 176.836 3.65031C177.409 4.13632 177.808 4.81329 178.034 5.68117C178.242 6.37547 178.433 6.70526 178.624 6.70526C178.763 6.73997 178.936 5.9589 179.11 4.39672C179.283 2.83454 179.578 2.03606 180.012 2.03606C180.221 2.03606 180.498 2.2617 180.863 2.73036C180.984 2.73036 181.071 2.5568 181.123 2.20965C181.21 1.84514 181.21 1.61947 181.123 1.53268C180.776 1.08138 180.394 0.855762 180.012 0.855762H179.995Z" fill="#5E5E5E"/>
<path d="M111.155 0.855762C110.652 0.821047 110.27 1.49796 110.045 2.88657C109.906 3.63294 109.784 4.37933 109.697 5.12571C109.472 4.70913 109.315 4.32729 109.194 4.01485C108.395 2.45267 107.632 1.68891 106.92 1.70627C106.521 1.70627 106.365 2.12289 106.451 2.93869C106.486 3.11227 106.694 3.32052 107.094 3.54616C107.493 3.77181 107.753 3.87598 107.857 3.84127C107.91 3.78919 107.962 3.71974 107.996 3.65031C108.569 4.13632 108.968 4.81329 109.194 5.68117C109.402 6.37547 109.593 6.70526 109.784 6.70526C109.923 6.73997 110.097 5.9589 110.27 4.39672C110.444 2.83454 110.739 2.03606 111.173 2.03606C111.381 2.03606 111.659 2.2617 112.023 2.73036C112.145 2.73036 112.232 2.5568 112.284 2.20965C112.37 1.84514 112.37 1.61947 112.284 1.53268C111.936 1.08138 111.555 0.855762 111.173 0.855762H111.155Z" fill="#5E5E5E"/>
<path d="M79.7033 2.9554C79.5818 3.18105 79.4603 3.21578 79.2694 3.02484C78.6098 2.36526 78.3494 2.39998 78.0717 3.30257C77.8634 3.96216 77.7072 4.63911 77.5684 5.31606C77.1691 7.41632 76.1624 9.0653 74.3919 10.315C72.8471 11.4086 71.094 12.0161 69.3583 12.6236C69.2888 12.6409 69.2194 12.6236 69.15 12.6236C69.15 12.6062 69.1326 12.5715 69.1152 12.5541C69.2888 12.4326 69.445 12.3112 69.6186 12.207C71.4238 11.0788 73.2464 9.98522 75.0169 8.82227C75.5723 8.45776 76.0235 7.91969 76.4922 7.43368C76.5616 7.36425 76.6137 7.19064 76.5963 7.06914C76.4748 5.94089 76.0235 4.93419 75.4854 3.96217C75.3813 3.78859 75.2598 3.71917 75.0515 3.85803C74.6523 4.11839 74.3746 3.80595 74.1142 3.5803C73.8712 3.35465 73.6282 3.09429 73.8538 2.71242C73.9753 2.52149 74.0968 2.33056 74.1836 2.12227C74.3572 1.77512 74.6349 1.67093 74.93 1.86186C75.2945 2.10487 75.6764 2.38259 75.9367 2.72974C76.5095 3.49347 76.7525 4.39607 76.9782 5.33338C77.0129 5.17716 77.0476 5.02096 77.0823 4.86474C77.2732 4.11837 77.4295 3.35462 77.6725 2.6256C77.8114 2.19166 78.0544 1.77511 78.3495 1.4106C78.6793 1.01138 79.0959 1.06345 79.4604 1.4106C79.9117 1.87926 79.981 2.39996 79.7033 2.9554Z" fill="#5E5E5E"/>
<path d="M125.058 40.64C124.642 40.6227 124.329 41.1781 124.138 42.3237C124.017 42.9486 123.913 43.5561 123.843 44.181C123.67 43.8339 123.531 43.5214 123.427 43.2611C122.767 41.9592 122.125 41.3344 121.535 41.3517C121.205 41.3517 121.083 41.6989 121.153 42.3758C121.17 42.5147 121.361 42.6883 121.691 42.8792C122.021 43.0701 122.229 43.1569 122.316 43.1222C122.368 43.0701 122.403 43.0181 122.42 42.966C122.889 43.3652 123.218 43.9207 123.427 44.6497C123.6 45.2225 123.757 45.5002 123.913 45.5002C124.034 45.5176 124.173 44.8927 124.312 43.5909C124.451 42.289 124.711 41.6468 125.058 41.6468C125.232 41.6468 125.458 41.8377 125.77 42.2196C125.874 42.2196 125.944 42.0807 125.996 41.7856C126.065 41.4906 126.065 41.2997 125.996 41.2302C125.701 40.8484 125.388 40.6748 125.076 40.6748L125.058 40.64Z" fill="#5E5E5E"/>
<path d="M66.5804 1.11621C65.9729 1.11621 65.6085 1.75847 65.4696 3.04293C65.4349 4.29267 65.4175 5.19525 65.4175 5.73333V5.7854C64.9315 4.69188 64.3413 3.82402 63.647 3.14707C63.0048 2.57427 62.432 2.27919 61.946 2.27919C61.6335 2.27919 61.4773 2.74783 61.4773 3.66778C61.4773 3.80664 61.7551 4.03229 62.2932 4.37944C62.8312 4.70924 63.1784 4.88283 63.2999 4.88283C63.3694 4.88283 63.4388 4.74393 63.4908 4.46621C63.8033 4.63979 64.1678 5.12581 64.6017 5.88954C64.9836 6.53177 65.1919 6.96571 65.2266 7.19136C64.9142 7.19136 64.6364 7.43437 64.4107 7.90303C64.2198 8.26754 64.1157 8.61466 64.1157 8.96181C64.1157 9.11803 64.1157 9.20485 64.1678 9.20485C64.2372 9.20485 64.324 9.06597 64.4629 8.8056C64.6017 8.52788 64.7753 8.40641 64.9836 8.40641C65.3134 8.40641 65.5563 8.47582 65.7299 8.59732C65.1224 8.70147 64.6017 8.97919 64.1678 9.4652C63.6644 10.0033 63.4041 10.6282 63.4041 11.3398C63.4041 11.9126 63.6817 13.3186 64.2198 15.5403C64.7579 18.0572 65.1571 19.9839 65.3827 21.3378C65.4175 21.5113 65.4696 21.6329 65.539 21.6502C65.6432 21.6502 65.6952 21.4419 65.6952 21.0254C65.6952 20.4873 65.0704 17.1893 63.8206 11.1315C63.7859 10.8538 64.1504 10.5587 64.9142 10.2636C65.6779 9.9512 66.4068 9.77766 67.1185 9.70823C67.1879 9.70823 67.2748 9.56935 67.3963 9.30899C67.5178 9.04862 67.5525 8.82297 67.5178 8.64939C67.4831 8.51053 67.2227 8.2502 66.7367 7.81626C66.2507 7.38232 65.9209 7.19136 65.7473 7.19136C65.8167 5.68125 65.8861 4.3621 65.9382 3.25121C65.9382 2.6437 66.1986 2.33126 66.7019 2.33126C67.0491 2.33126 67.3268 2.50482 67.5698 2.85197C67.726 3.07762 67.8476 3.07762 67.917 2.85197C68.0211 2.27917 68.0211 1.93204 67.917 1.84525C67.4483 1.3766 67.0144 1.13359 66.6152 1.13359L66.5804 1.11621Z" fill="#5E5E5E"/>
<path d="M172.341 44.6322L174.545 42.1327C174.545 42.1327 175.135 40.5358 174.094 40.449C173.052 40.3622 171.056 42.393 167.498 42.341C163.94 42.2889 163.089 40.7962 162.898 40.692C162.707 40.5879 162.291 41.6293 162.603 41.855C162.916 42.0806 163.749 43.6602 163.541 44.7537C163.541 44.7537 164.495 43.7469 163.905 42.7055C163.905 42.7055 165.606 44.0941 168.939 43.3998C172.271 42.7055 173.243 41.5599 173.799 41.6467C174.354 41.7335 173.608 42.5319 173.347 42.8443C173.087 43.1568 172.41 44.233 172.341 44.6322Z" fill="#5E5E5E"/>
<path d="M89.0935 42.4794C88.8679 43.1737 88.6769 43.8853 88.3992 44.5449C88.1909 45.0483 87.7917 45.4302 87.1495 45.3434C86.6114 45.274 86.1948 44.9095 86.1254 44.2152C86.0559 43.4688 85.9692 42.653 86.1775 41.9413C86.6288 40.3444 87.2537 38.7996 87.8091 37.2374C87.8438 37.1506 87.9132 37.0638 87.9653 36.9771C88.0173 36.9944 88.0694 37.0118 88.1215 37.0291C88.0347 37.3763 87.9479 37.7235 87.8437 38.088C87.5139 39.2856 87.1321 40.4659 86.8543 41.6636C86.7676 42.0281 86.8543 42.4794 86.9585 42.8439C87.1841 43.625 87.8264 43.7638 88.3472 43.139C88.6075 42.8265 88.7985 42.4794 89.0935 42.0455C89.0935 42.2364 89.1456 42.3579 89.0935 42.4621V42.4794Z" fill="#5E5E5E"/>
<path d="M100.793 44.6322L102.997 42.1327C102.997 42.1327 103.587 40.5358 102.546 40.449C101.504 40.3622 99.5082 42.393 95.9499 42.341C92.3916 42.2889 91.541 40.7962 91.3501 40.692C91.1591 40.5879 90.7426 41.6293 91.055 41.855C91.3675 42.0806 92.2006 43.6602 91.9923 44.7537C91.9923 44.7537 92.947 43.7469 92.3568 42.7055C92.3568 42.7055 94.0578 44.0941 97.3905 43.3998C100.723 42.7055 101.695 41.5599 102.251 41.6467C102.806 41.7335 102.06 42.5319 101.799 42.8443C101.539 43.1568 100.862 44.233 100.793 44.6322Z" fill="#5E5E5E"/>
<path d="M61.4604 58.6741V58.3617C62.3804 58.2922 62.4846 58.2228 62.4846 57.2681V52.894C62.4846 51.9394 62.3804 51.8699 61.4604 51.8005V51.4707H64.5501V51.8005C63.6302 51.8526 63.5434 51.922 63.5434 52.894V57.2681C63.5434 58.2228 63.6476 58.2922 64.5501 58.3617V58.6741H61.4604Z" fill="#3E1E58"/>
<path d="M75.2425 53.2589C75.121 52.7035 74.9995 52.4084 74.8606 52.2174C74.6697 51.9571 74.4787 51.8703 73.6108 51.8703H72.8472V57.2685C72.8472 58.1537 72.9513 58.2752 74.0275 58.3447V58.6571H70.6775V58.3447C71.719 58.2752 71.8057 58.1537 71.8057 57.2685V51.8703H71.1461C70.1567 51.8703 69.9311 51.9744 69.7749 52.2174C69.636 52.4084 69.5318 52.7382 69.393 53.2589H69.0459C69.098 52.5473 69.15 51.8009 69.1673 51.1934H69.4103C69.5839 51.4711 69.7228 51.4711 70.0526 51.4711H74.635C74.9474 51.4711 75.0516 51.4017 75.2252 51.1934H75.4681C75.4681 51.6967 75.5202 52.5646 75.5896 53.2242L75.2425 53.2589Z" fill="#3E1E58"/>
<path d="M87.8088 60.4971C87.236 60.5144 86.6284 60.445 86.2813 60.3408C85.9168 60.2367 85.0141 59.8201 83.6081 58.8307C82.9312 58.8134 81.9072 58.553 81.1781 57.8761C80.4665 57.2339 79.9805 56.2792 79.9805 55.203C79.9805 53.1375 81.4732 51.3149 83.9901 51.3149C85.9688 51.3149 87.7393 52.7903 87.7393 55.0121C87.7393 56.9562 86.4548 58.2406 85.0836 58.6572C85.7605 59.0911 86.8193 59.7681 87.8955 60.2541L87.8088 60.4971ZM84.3893 58.1365C84.5108 58.1885 84.6149 58.258 84.7017 58.3447C85.5869 58.1017 86.5069 57.1297 86.5069 55.3245C86.5069 53.0507 85.2745 51.7315 83.7123 51.7315C82.4105 51.7315 81.2302 52.8424 81.2302 54.8906C81.2302 56.7652 82.2196 58.1191 83.5735 58.3968L84.3893 58.1538V58.1365Z" fill="#3E1E58"/>
<path d="M96.3664 58.6736V58.3612C97.0781 58.2571 97.1649 58.1703 97.026 57.719C96.8698 57.2851 96.6614 56.7296 96.4184 56.0874H93.9884C93.7975 56.5907 93.6412 57.0247 93.5024 57.4586C93.2594 58.1355 93.3462 58.2571 94.2141 58.3438V58.6563H91.7146V58.3438C92.4436 58.2223 92.5998 58.1529 93.0164 57.1635L95.3944 51.3834L95.7936 51.2793C96.5226 53.2407 97.2517 55.2021 97.998 57.1635C98.3625 58.1356 98.5187 58.2571 99.2477 58.3438V58.6563H96.3838L96.3664 58.6736ZM95.2555 52.8415H95.2381C94.8736 53.7615 94.5265 54.6988 94.1793 55.6014H96.2623L95.2729 52.8415H95.2555Z" fill="#3E1E58"/>
<path d="M111.485 51.8183C110.86 51.853 110.582 51.9745 110.53 52.4779C110.496 52.8424 110.461 53.3284 110.461 54.3698V58.7961H110.096L105.115 53.0333V55.7411C105.115 56.7652 105.15 57.2859 105.184 57.5984C105.236 58.1712 105.497 58.31 106.278 58.3794V58.6919H103.57V58.3794C104.23 58.3274 104.507 58.1885 104.559 57.6331C104.611 57.2859 104.646 56.7652 104.646 55.7411V53.3631C104.646 52.5473 104.612 52.4953 104.403 52.2349C104.16 51.9572 103.935 51.8704 103.396 51.8357V51.5059H105.132L109.958 56.9735H109.992V54.3872C109.992 53.3631 109.94 52.8598 109.923 52.5473C109.871 52.0266 109.61 51.8877 108.795 51.8357V51.5059H111.502V51.8357L111.485 51.8183Z" fill="#3E1E58"/>
<path d="M129.762 56.7826C129.606 57.3207 129.294 58.1885 129.103 58.5357C128.773 58.6051 127.766 58.8481 126.933 58.8481C124.017 58.8481 122.715 56.9214 122.715 55.1683C122.715 52.8424 124.607 51.3149 127.228 51.3149C128.2 51.3149 129.016 51.5753 129.328 51.6274C129.415 52.2522 129.502 52.7382 129.571 53.3631L129.224 53.4326C128.912 52.2002 128.148 51.7141 126.916 51.7141C124.989 51.7141 123.947 53.2763 123.947 54.9253C123.947 57.0082 125.232 58.4142 127.002 58.4142C128.183 58.4142 128.825 57.7893 129.415 56.6437L129.745 56.7652L129.762 56.7826Z" fill="#3E1E58"/>
<path d="M138.615 58.6736V58.3612C139.326 58.2571 139.413 58.1703 139.274 57.719C139.118 57.2851 138.91 56.7296 138.667 56.0874H136.237C136.046 56.5907 135.89 57.0247 135.751 57.4586C135.508 58.1355 135.595 58.2571 136.462 58.3438V58.6563H133.963V58.3438C134.692 58.2223 134.848 58.1529 135.265 57.1635L137.643 51.3834L138.042 51.2793C138.771 53.2407 139.5 55.2021 140.246 57.1635C140.611 58.1356 140.767 58.2571 141.496 58.3438V58.6563H138.632L138.615 58.6736ZM137.504 52.8415H137.487C137.122 53.7615 136.775 54.6988 136.428 55.6014H138.511L137.521 52.8415H137.504Z" fill="#3E1E58"/>
<path d="M148.838 51.4705C149.654 51.4705 150.296 51.592 150.747 51.9391C151.199 52.2689 151.494 52.7897 151.494 53.5187C151.494 54.9594 150.383 55.6537 149.289 55.7925C149.116 55.8099 148.873 55.8099 148.751 55.7925L147.901 55.5842V57.2679C147.901 58.2226 148.005 58.2747 149.029 58.3441V58.6565H145.87V58.3441C146.772 58.2747 146.877 58.1705 146.877 57.2505V52.8765C146.877 51.8871 146.773 51.835 145.939 51.7829V51.4531H148.855L148.838 51.4705ZM147.901 55.2024C148.04 55.2544 148.352 55.3412 148.717 55.3412C149.428 55.3412 150.313 54.9593 150.313 53.5534C150.313 52.3557 149.55 51.8524 148.647 51.8524C148.335 51.8524 148.109 51.9044 148.022 51.9912C147.953 52.0606 147.901 52.1822 147.901 52.4946V55.2024Z" fill="#3E1E58"/>
<path d="M155.99 58.6741V58.3617C156.909 58.2922 157.014 58.2228 157.014 57.2681V52.894C157.014 51.9394 156.909 51.8699 155.99 51.8005V51.4707H159.079V51.8005C158.159 51.8526 158.072 51.922 158.072 52.894V57.2681C158.072 58.2228 158.177 58.2922 159.079 58.3617V58.6741H155.99Z" fill="#3E1E58"/>
<path d="M169.754 53.2589C169.633 52.7035 169.511 52.4084 169.372 52.2174C169.181 51.9571 168.99 51.8703 168.122 51.8703H167.359V57.2685C167.359 58.1537 167.463 58.2752 168.539 58.3447V58.6571H165.189V58.3447C166.23 58.2752 166.317 58.1537 166.317 57.2685V51.8703H165.658C164.668 51.8703 164.443 51.9744 164.286 52.2174C164.148 52.4084 164.043 52.7382 163.905 53.2589H163.557C163.609 52.5473 163.662 51.8009 163.679 51.1934H163.922C164.095 51.4711 164.234 51.4711 164.564 51.4711H169.147C169.459 51.4711 169.563 51.4017 169.737 51.1934H169.98C169.98 51.6967 170.032 52.5646 170.101 53.2242L169.754 53.2589Z" fill="#3E1E58"/>
<path d="M178.155 58.6736V58.3612C178.867 58.2571 178.954 58.1703 178.815 57.719C178.659 57.2851 178.45 56.7296 178.207 56.0874H175.777C175.586 56.5907 175.43 57.0247 175.291 57.4586C175.048 58.1355 175.135 58.2571 176.003 58.3438V58.6563H173.503V58.3438C174.232 58.2223 174.389 58.1529 174.805 57.1635L177.183 51.3834L177.582 51.2793C178.311 53.2407 179.04 55.2021 179.787 57.1635C180.151 58.1356 180.308 58.2571 181.037 58.3438V58.6563H178.173L178.155 58.6736ZM177.044 52.8415H177.027C176.662 53.7615 176.315 54.6988 175.968 55.6014H178.051L177.062 52.8415H177.044Z" fill="#3E1E58"/>
<path d="M190.983 56.8865C190.914 57.2684 190.67 58.3272 190.566 58.6743H185.342V58.3619C186.314 58.2925 186.418 58.223 186.418 57.251V52.9116C186.418 51.9569 186.348 51.8875 185.411 51.8181V51.4883H188.484V51.8181C187.598 51.8702 187.477 51.9396 187.477 52.9116V57.2163C187.477 57.8238 187.529 58.0321 187.737 58.1536C187.963 58.2751 188.345 58.2925 188.796 58.2925C189.386 58.2925 189.803 58.223 190.046 57.9453C190.254 57.737 190.462 57.3725 190.653 56.8344L191 56.9039L190.983 56.8865Z" fill="#3E1E58"/>
<path d="M125.076 37.2553C125.076 38.6439 124.711 39.3556 123.982 39.3556H123.965C121.101 39.3556 119.313 36.3874 118.584 30.4685L117.265 19.8977C116.328 12.7811 115.147 6.68864 113.95 3.9635C113.915 3.85936 114.019 3.35596 114.262 2.41865C114.505 1.48135 114.661 1.0127 114.713 1.0127C114.8 1.0127 115.008 1.49872 115.39 2.43603C115.842 3.5122 116.206 4.58838 116.466 5.64719C116.987 7.69538 117.595 11.3405 118.046 14.2045C117.838 14.6037 117.664 15.0376 117.543 15.4889C117.334 16.2179 117.23 16.999 117.23 17.8496C117.23 18.7001 117.508 19.2902 118.029 19.4985C118.133 19.5506 118.237 19.6027 118.358 19.6721C118.515 19.7589 118.688 19.863 118.844 19.9845C119.608 25.6952 120.059 29.0625 120.25 30.0693C120.945 34.3219 122.42 36.4395 124.659 36.4395H124.677C124.937 36.4569 125.058 36.7346 125.058 37.2553H125.076Z" fill="#5E5E5E"/>
<path d="M143.926 3.35594C143.926 4.46683 143.544 5.78598 142.763 7.29609C141.774 9.2575 140.472 11.3751 138.858 13.6143C138.233 14.4474 137.886 14.8466 137.799 14.7772C137.764 14.7598 137.747 14.7252 137.747 14.6557C137.747 14.4301 138.163 13.5101 138.997 11.9132C139.83 10.3163 140.75 8.84093 141.739 7.46968C142.329 6.67123 142.624 6.0637 142.624 5.66448C142.624 4.97017 142.225 4.60569 141.427 4.60569C139.639 4.60569 135.195 6.58442 128.096 10.542C122.299 13.7531 119.383 15.5409 119.383 15.9228C119.383 16.1832 120.667 17.0858 123.219 18.6306C123.739 18.943 123.965 19.1687 123.895 19.3249C123.809 19.4811 123.548 19.4638 123.08 19.2902C122.923 19.2555 122.646 19.2034 122.229 19.1513C122.889 19.7936 125.336 21.5119 129.589 24.3239C132.921 26.5283 134.588 28.7154 134.588 30.9024C134.588 32.7423 134.293 34.0441 133.685 34.8426C132.817 36.0229 131.498 37.047 129.745 37.8801C129.658 37.7066 129.589 37.533 129.519 37.3421C129.294 36.7519 129.137 36.127 129.051 35.5022C129.606 35.2765 130.196 35.0162 130.769 34.7037C132.748 33.6449 133.755 32.8117 133.755 32.1522C133.755 30.8503 132.487 29.2881 129.953 27.483C129.606 27.24 129.242 26.9796 128.842 26.7192C128.808 26.7019 128.79 26.6845 128.756 26.6672C124.59 23.942 121.865 21.8938 120.58 20.5052C119.973 19.8456 119.365 19.3422 118.74 19.0125C118.619 18.943 118.48 18.8736 118.358 18.8215C118.133 18.7174 118.011 18.405 118.011 17.8495C118.011 17.0684 118.098 16.3567 118.289 15.6972C118.497 14.9681 118.827 14.3086 119.261 13.701C120.476 12.0694 124.347 9.5873 130.925 6.272C136.931 3.25178 140.75 1.7417 142.381 1.7417C143.44 1.7417 143.961 2.27977 143.961 3.35594H143.926Z" fill="#5E5E5E"/>
<path d="M125.892 36.3523C125.493 36.4044 125.093 36.4217 124.711 36.4217H124.694C123.965 36.4217 123.601 37.1334 123.601 38.522C123.601 39.0601 123.722 39.3204 123.982 39.3378H124C124.677 39.3378 125.388 39.2684 126.1 39.1295C125.927 38.2443 125.857 37.307 125.874 36.335L125.892 36.3523Z" fill="#5E5E5E"/>
<path d="M93.2592 29.5483C93.2245 29.3226 92.8252 25.9032 92.0615 19.3246C91.4887 14.5687 90.8291 9.25724 90.0133 5.87251C89.7356 4.76163 89.3712 3.63341 88.9025 2.48782C88.5207 1.51579 88.2776 1.02979 88.1734 1.02979C88.1213 1.02979 87.9478 1.51579 87.6527 2.48782C87.3576 3.45984 87.2362 3.99791 87.2709 4.10206C88.8331 7.26114 90.2216 16.721 91.5408 30.0169C92.1657 36.2483 94.4222 39.3727 98.3277 39.3727C99.074 39.3727 99.4385 38.6784 99.4385 37.2724C99.4385 36.7343 99.2996 36.4566 99.0219 36.4566C95.8975 36.4566 93.9882 34.1654 93.2592 29.583" fill="#5E5E5E"/>
<path d="M104.403 26.0771L103.153 28.2468L100.202 26.5285L98.7441 29.1668L101.799 30.9546L103.031 28.7676L106 30.5033L107.458 27.865L104.403 26.0771Z" fill="#5E5E5E"/>
<path d="M110.686 40.1191L109.436 42.3062L106.486 40.5705L105.028 43.2088L108.065 44.9966L109.315 42.8095L112.266 44.5453L113.724 41.9243L110.686 40.1191Z" fill="#5E5E5E"/>
<path d="M105.236 34.7732C104.541 34.0095 104.351 33.2457 104.68 32.4993C104.75 32.3084 104.75 32.1869 104.68 32.1522C104.507 32.048 104.246 32.239 103.917 32.7076C103.274 33.6623 102.754 34.4434 102.372 35.0682C101.539 35.884 100.428 36.3354 99.0391 36.4048C98.2928 36.4048 97.9282 37.0991 97.9282 38.5051C97.9282 39.0431 98.0671 39.3209 98.3448 39.3209C100.358 39.3209 102.094 38.0364 103.569 35.4675C103.743 36.4395 104.003 37.1165 104.333 37.481C104.854 38.0885 105.548 38.4009 106.416 38.453C107.162 38.453 107.527 37.7587 107.527 36.3527C107.527 35.8146 107.388 35.5369 107.11 35.5369C106.364 35.5369 105.739 35.2766 105.236 34.7732Z" fill="#5E5E5E"/>
<path d="M116.432 40.6396L114.974 43.2607L118.029 45.0659L119.487 42.4275L116.432 40.6396Z" fill="#5E5E5E"/>
<path d="M117.022 30.4159C116.71 29.7736 116.484 29.4438 116.328 29.4438C116.258 29.4438 116.12 29.8431 115.963 30.6415C115.79 31.44 115.72 31.9086 115.72 32.0475C116.293 33.0889 116.571 33.6964 116.571 33.8874C116.571 34.0783 116.31 34.2866 115.79 34.4949C115.252 34.7726 114.627 34.9115 113.95 34.9115C113.186 34.9115 112.804 35.6058 112.804 37.0117C112.804 37.5151 112.943 37.7755 113.221 37.7755C116.189 37.7755 117.664 36.2827 117.664 33.2972C117.664 32.2037 117.456 31.249 117.057 30.3985L117.022 30.4159Z" fill="#5E5E5E"/>
<path d="M111.623 33.8348C111.172 33.3141 110.946 32.8628 110.946 32.5156C110.981 32.0643 110.946 31.8214 110.825 31.7867C110.668 31.7519 110.443 32.0817 110.148 32.8107L109.627 34.2341C109.106 35.0672 108.238 35.4838 107.058 35.4838C106.294 35.4838 105.913 36.1781 105.913 37.5841C105.913 38.1569 106.051 38.4346 106.329 38.4346C107.926 38.4346 109.002 37.7403 109.575 36.3343C109.801 35.7268 109.992 35.397 110.096 35.3102C110.703 36.9419 111.745 37.7577 113.22 37.7577C113.949 37.7577 114.296 37.0633 114.296 35.6574C114.296 35.154 114.157 34.8936 113.862 34.8936C112.942 34.8936 112.196 34.5291 111.606 33.8175L111.623 33.8348Z" fill="#5E5E5E"/>
<path d="M84.6497 6.70598C85.101 7.19199 85.4655 7.57386 85.7259 7.85158C86.021 8.16402 86.2292 8.32022 86.3334 8.32022C86.3681 8.164 86.4028 8.04253 86.4549 7.9731C86.1424 7.05315 85.7432 6.04641 85.2572 4.93552C84.181 2.33189 83.6082 1.0127 83.5388 1.0127C83.4347 1.0127 83.2611 1.30775 82.9834 1.91527C82.6362 2.74843 82.3758 3.39069 82.2022 3.84199C82.1328 3.99821 82.2717 4.20649 82.6362 4.48421C82.6362 5.73396 83.2264 10.4205 84.4414 17.6412C85.8127 25.2786 86.5416 30.2255 86.6631 32.482C86.6979 33.1242 86.6631 33.6449 86.5416 34.0615C86.1945 34.9815 84.0769 36.5436 80.2062 38.7654C75.9362 41.2476 72.5688 42.48 70.0867 42.48C65.2092 42.48 62.7791 40.1193 62.7791 35.3807C62.7791 33.94 63.0568 32.4126 63.6296 30.8157C63.7511 30.3991 63.8033 30.104 63.8033 29.913C63.8033 29.7568 63.7685 29.6874 63.6817 29.6874C63.4734 29.6874 63.1957 30.0172 62.9006 30.6594C61.946 32.7944 61.4773 35.0683 61.4773 37.4636C61.4773 37.9149 61.512 38.3836 61.5988 38.8869C62.241 43.3999 64.6537 45.6738 68.8543 45.6738C71.753 45.6738 75.2939 44.4413 79.4945 41.9592C82.9313 39.911 85.2572 38.1405 86.4896 36.6304C87.722 35.1203 88.2948 32.8812 88.1733 29.9304C86.9409 20.9045 85.7953 12.8679 84.6671 6.72335L84.6497 6.70598Z" fill="#5E5E5E"/>
<path d="M130.335 13.4055C130.144 13.5965 129.953 13.8221 129.762 14.0651C129.398 14.5337 129.085 15.0372 128.808 15.5752C128.53 16.1133 128.426 16.7035 128.46 17.311C128.46 17.4672 128.547 17.5887 128.686 17.6581C128.825 17.7276 128.946 17.797 129.085 17.8491C129.554 17.9532 130.023 17.9706 130.491 17.8664C130.96 17.7796 131.428 17.6928 131.88 17.6407C132.314 17.5887 132.748 17.5193 133.164 17.4151C133.581 17.311 134.015 17.3457 134.431 17.5019C134.605 17.554 134.761 17.7102 134.9 17.9532C135.039 18.1962 135.091 18.3351 135.039 18.3524C135.056 18.3524 134.883 18.3872 134.518 18.4392C134.154 18.4913 133.702 18.5607 133.182 18.6649C132.661 18.7517 132.105 18.8558 131.515 18.9426C130.925 19.0294 130.439 19.1162 130.022 19.1856C129.71 19.2203 129.38 19.255 129.068 19.2897C128.755 19.3245 128.426 19.2897 128.113 19.1856C127.801 19.1335 127.506 19.0294 127.245 18.8732C126.985 18.7343 126.69 18.5954 126.377 18.4566C126.499 18.7169 126.655 18.9426 126.811 19.1682C126.968 19.3939 127.141 19.6195 127.315 19.8452C127.488 20.0188 127.697 20.1229 127.94 20.1923C128.183 20.2617 128.408 20.2791 128.634 20.2791C129.554 20.2097 130.474 20.0882 131.394 19.9493C132.314 19.8105 133.216 19.6195 134.084 19.4113C134.275 19.3765 134.431 19.3418 134.588 19.3071C134.744 19.2724 134.9 19.203 135.056 19.0988C135.212 18.9773 135.334 18.8037 135.421 18.5781C135.49 18.3698 135.508 18.1442 135.473 17.9012C135.421 17.6581 135.334 17.4325 135.195 17.2068C135.056 16.9812 134.883 16.7902 134.657 16.6167C134.483 16.4778 134.275 16.3911 134.049 16.3911C133.824 16.3911 133.598 16.391 133.373 16.4257C132.782 16.5125 132.175 16.6167 131.585 16.7382C130.995 16.8423 130.387 16.9117 129.797 16.9465C129.606 16.9465 129.398 16.9465 129.137 16.9118C128.877 16.8597 128.755 16.7555 128.79 16.582C128.842 16.339 128.946 16.0959 129.085 15.8703C129.224 15.6446 129.38 15.419 129.519 15.176C129.71 14.9156 129.918 14.6379 130.127 14.3602C130.335 14.0825 130.595 13.8915 130.908 13.7527C131.029 13.6832 131.116 13.7006 131.168 13.7874C131.22 13.8742 131.29 13.9263 131.342 13.9783C131.394 13.8047 131.446 13.6138 131.515 13.4055C131.585 13.1973 131.567 13.0237 131.446 12.8501C131.376 12.7286 131.307 12.6939 131.22 12.7286C131.133 12.7633 131.029 12.798 130.942 12.8327C130.699 13.0063 130.491 13.1972 130.3 13.3882L130.335 13.4055Z" fill="#5E5E5E"/>
<path d="M113.464 24.6705C113.307 24.6705 113.238 24.8267 113.238 25.1218C113.238 25.8161 112.978 26.1806 112.457 26.1806C111.936 26.1806 111.676 25.7293 111.676 24.8441C111.676 23.8547 111.954 22.657 112.509 21.3031C112.7 20.7477 112.787 19.9492 112.787 18.9251C112.787 17.12 112.318 15.4016 111.398 13.7699C111.138 13.3187 110.947 13.1104 110.843 13.1104C110.773 13.1104 110.669 13.3186 110.53 13.7526C110.409 14.1692 110.339 14.4469 110.339 14.551C110.339 14.6552 110.409 14.794 110.565 14.9329C111.606 16.0785 112.11 17.5365 112.11 19.307C112.11 20.0881 112.023 20.7477 111.832 21.3031C111.311 22.6397 111.051 23.9068 111.051 25.1218C111.051 25.7814 111.225 26.3542 111.554 26.8402C111.815 27.2915 112.092 27.4998 112.388 27.4998C113.203 27.4998 113.603 26.8402 113.603 25.5037C113.603 24.9482 113.55 24.6705 113.429 24.6705" fill="#5E5E5E"/>
<defs>
<linearGradient id="paint0_linear_328_3200" x1="3.19129" y1="6.11445" x2="20.0629" y2="20.1742" gradientUnits="userSpaceOnUse">
<stop stop-color="#B2B2B3"/>
<stop offset="0.15" stop-color="#AEADB0"/>
<stop offset="0.31" stop-color="#A39FA7"/>
<stop offset="0.49" stop-color="#918899"/>
<stop offset="0.68" stop-color="#786986"/>
<stop offset="0.86" stop-color="#59406D"/>
<stop offset="1" stop-color="#3E1E58"/>
</linearGradient>
<linearGradient id="paint1_linear_328_3200" x1="15.81" y1="-0.879453" x2="56.4962" y2="20.8696" gradientUnits="userSpaceOnUse">
<stop stop-color="#B2B2B3"/>
<stop offset="0.13" stop-color="#ACAAAE"/>
<stop offset="0.31" stop-color="#9C97A2"/>
<stop offset="0.54" stop-color="#83768E"/>
<stop offset="0.79" stop-color="#604A73"/>
<stop offset="1" stop-color="#3E1E58"/>
</linearGradient>
<linearGradient id="paint2_linear_328_3200" x1="-1.30457" y1="31.1277" x2="39.3815" y2="52.8767" gradientUnits="userSpaceOnUse">
<stop stop-color="#B2B2B3"/>
<stop offset="0.15" stop-color="#AEADB0"/>
<stop offset="0.31" stop-color="#A39FA7"/>
<stop offset="0.49" stop-color="#918899"/>
<stop offset="0.68" stop-color="#786986"/>
<stop offset="0.86" stop-color="#59406D"/>
<stop offset="1" stop-color="#3E1E58"/>
</linearGradient>
</defs>
</svg>
