<svg width="172" height="65" viewBox="0 0 172 65" fill="none" xmlns="http://www.w3.org/2000/svg">
<path d="M144.009 57.7278H143.057V63.3116H144.009V57.7278Z" fill="#999998"/>
<path d="M101.33 63.3118V60.051H100.349V63.0088H95.9192V60.051H94.1446C93.3366 60.051 92.6729 60.7147 92.6729 61.5227V63.3262H94.9525H101.33V63.3118ZM93.4665 61.3495C93.4665 60.8012 93.9137 60.354 94.462 60.354H94.9525V62.9655H93.4665V61.3495Z" fill="#999998"/>
<path d="M141.225 62.2583C141.225 62.6623 140.907 62.9941 140.532 62.9941H140.46V57.7277H139.508V62.9941H139.436C139.436 62.9941 138.873 62.9941 138.83 62.9941L138.714 62.9652V63.3115H140.994C141.643 63.3115 142.177 62.7777 142.177 62.1285V57.7134H141.225V62.2438V62.2583Z" fill="#999998"/>
<path d="M136.247 62.9941H135.266V60.0796H134.299V62.9941H133.39V60.0363H132.409V62.9941H127.893V60.0363H126.912V62.9941H122.266V60.0363H121.285V62.9941H116.278V60.0796H114.503C113.695 60.0796 113.032 60.7433 113.032 61.5513V62.9941H107.852V57.7134H106.871V63.2971H137.228V60.0363H136.247V62.9941ZM113.811 61.3926C113.811 60.8443 114.258 60.397 114.806 60.397H115.297V63.0086H113.796V61.407L113.811 61.3926Z" fill="#999998"/>
<path d="M103.74 64.0477C103.74 64.3362 103.494 64.5815 103.206 64.5815H101.287V64.8845H103.768C104.288 64.8845 104.706 64.4661 104.706 63.9467V60.0366H103.74V64.0477Z" fill="#999998"/>
<path d="M53.3417 60.051H53.6015V59.9788C53.7025 59.6758 53.8034 59.4306 53.9188 59.2718C54.0343 59.0987 54.1497 58.9833 54.2651 58.9111C54.3805 58.839 54.5104 58.7958 54.6114 58.7813C54.7412 58.7669 54.8422 58.7524 54.9432 58.7524H55.2895V64.1775H56.2707V58.7524H56.6169C56.7179 58.7524 56.8189 58.7525 56.9488 58.7813C57.0642 58.7958 57.1796 58.839 57.295 58.9111C57.4104 58.9833 57.5259 59.1131 57.6413 59.2718C57.7567 59.445 57.8577 59.6758 57.9442 59.9788V60.051H58.2185V58.4351H53.2983V60.051H53.3417Z" fill="#999998"/>
<path d="M77.0899 60.051H77.3497V59.9788C77.4507 59.6758 77.5517 59.4306 77.6671 59.2718C77.7825 59.1131 77.8979 58.9833 78.0134 58.9111C78.1288 58.839 78.2442 58.7958 78.3596 58.7813C78.4895 58.7669 78.6049 58.7524 78.6914 58.7524H79.0379V64.1775H80.0189V58.7524H80.3652C80.4662 58.7524 80.5672 58.7525 80.697 58.7813C80.8124 58.7958 80.9278 58.839 81.0433 58.9111C81.1587 58.9833 81.2741 59.1131 81.3895 59.2718C81.505 59.445 81.6061 59.6758 81.6927 59.9788V60.051H81.9812V58.4351H77.061V60.051H77.0899Z" fill="#999998"/>
<path d="M51.5949 61.2195C51.4506 61.1185 51.3062 61.0319 51.1475 60.9886C51.0032 60.9453 50.8878 60.9021 50.7868 60.8732L49.8923 60.5846C49.7624 60.5414 49.6325 60.498 49.5171 60.4547C49.4017 60.4115 49.2863 60.3393 49.1997 60.2816C49.1132 60.2095 49.041 60.1229 48.9833 60.0364C48.9256 59.9354 48.8968 59.8199 48.8968 59.6756C48.8968 59.5025 48.94 59.3582 48.9977 59.2428C49.0698 59.1274 49.1709 59.0408 49.2719 58.9687C49.3874 58.8965 49.5026 58.8387 49.6469 58.8099C50.0076 58.7233 50.2963 58.7522 50.5272 58.8677C50.6715 58.9398 50.8014 59.0264 50.9023 59.1418C51.0033 59.2572 51.0898 59.4015 51.162 59.5602C51.2341 59.7189 51.2774 59.8777 51.3062 60.0508V60.1374H51.5949V58.4636H50.0076C49.7623 58.4636 49.5315 58.5069 49.3151 58.5935C49.0987 58.6801 48.9255 58.7955 48.7668 58.9398C48.6081 59.0841 48.4927 59.2572 48.4061 59.4592C48.3195 59.6612 48.2763 59.8776 48.2763 60.1229C48.2763 60.4836 48.3917 60.7866 48.6081 61.003C48.8245 61.2195 49.142 61.3926 49.5604 61.5224L50.4117 61.7821C50.5127 61.811 50.6136 61.8543 50.729 61.8976C50.83 61.9409 50.9312 62.013 51.0322 62.0996C51.1187 62.1717 51.1909 62.2728 51.2486 62.3882C51.3063 62.5036 51.3351 62.6334 51.3351 62.7921C51.3351 62.9076 51.3206 63.023 51.2773 63.1528C51.234 63.2827 51.1763 63.3981 51.0897 63.5135C51.0032 63.629 50.8733 63.7155 50.729 63.7877C50.5126 63.8887 50.2096 63.9031 49.8345 63.8887C49.7335 63.8887 49.6325 63.8599 49.5171 63.8455C49.4161 63.8166 49.3007 63.7733 49.1997 63.7156C49.0987 63.6579 48.9978 63.5713 48.8968 63.4559C48.7958 63.3404 48.7091 63.1962 48.6226 63.023C48.536 62.8499 48.4638 62.6335 48.4205 62.3737V62.2872H48.1465V64.1917H48.2474C48.7813 64.1917 49.7912 64.1917 49.8489 64.1917C49.9355 64.1917 50.0222 64.1917 50.1232 64.1917C50.4262 64.1917 50.7002 64.1339 50.9455 64.0329C51.1908 63.9319 51.4073 63.7877 51.566 63.629C51.7391 63.4559 51.869 63.2683 51.9556 63.0375C52.0422 62.8211 52.0998 62.5757 52.0998 62.3304C52.0998 62.0563 52.0421 61.8399 51.9411 61.6523C51.8402 61.4792 51.7103 61.3349 51.566 61.2339" fill="#999998"/>
<path d="M43.8758 61.2485H45.6073V60.9456H43.8758V58.738H46.6894V58.4351H42.9092V64.1631H46.9779V63.8457H43.8758V61.2485Z" fill="#999998"/>
<path d="M67.4661 61.2485H69.183V60.9456H67.4661V58.738H70.2651V58.4351H66.4849V64.1631H70.5538V63.8457H67.4661V61.2485Z" fill="#999998"/>
<path d="M29.6793 58.4351H28.6982V64.1631H29.6793V58.4351Z" fill="#999998"/>
<path d="M34.7718 58.4351V62.4461L32.2902 58.4351H31.3379V64.1631H31.6553L31.6408 59.2718L34.743 64.1198L34.7718 64.1775H35.0892V58.4351H34.7718Z" fill="#999998"/>
<path d="M75.3158 58.4351V62.4317L72.8342 58.4351H71.8818V64.1631H72.1992V59.2718L75.3013 64.1198L75.3302 64.1775H75.6332V58.4351H75.3158Z" fill="#999998"/>
<path d="M62.1424 62.4317L60.7862 58.5072L60.7573 58.4351H59.7041V64.1631H60.0215V59.2863L61.7817 64.3795L63.5564 59.243V64.1631H64.5376V58.4351H63.5132L62.1424 62.4317Z" fill="#999998"/>
<path d="M39.4751 62.7779L37.8014 58.4927L37.7725 58.4351H36.7192L38.9268 64.1054L38.9557 64.1775H39.2875L41.4951 58.4351H41.1488L39.4751 62.7779Z" fill="#999998"/>
<path d="M125.454 58.9255H124.661V59.7191H125.454V58.9255Z" fill="#999998"/>
<path d="M124.488 58.9255H123.694V59.7191H124.488V58.9255Z" fill="#999998"/>
<path d="M119.251 57.9878H118.457V58.7813H119.251V57.9878Z" fill="#999998"/>
<path d="M119.712 58.9255H118.918V59.7191H119.712V58.9255Z" fill="#999998"/>
<path d="M118.745 58.9255H117.952V59.7191H118.745V58.9255Z" fill="#999998"/>
<path d="M98.8776 63.6003H98.084V64.3939H98.8776V63.6003Z" fill="#999998"/>
<path d="M97.9108 63.6003H97.1172V64.3939H97.9108V63.6003Z" fill="#999998"/>
<path d="M95.5583 58.9255H94.7646V59.7191H95.5583V58.9255Z" fill="#999998"/>
<path d="M94.5918 58.9255H93.7983V59.7191H94.5918V58.9255Z" fill="#999998"/>
<path d="M87.4787 57.6128H87.0747V65.0001H87.4787V57.6128Z" fill="#999998"/>
<path d="M80.3943 44.8577C80.3943 45.0453 80.3943 45.2329 80.3654 45.4204C80.3366 45.608 80.3078 45.7811 80.2501 45.9398C80.1923 46.0985 80.1202 46.214 80.0192 46.315C79.9182 46.4016 79.7883 46.4592 79.6296 46.4592C79.3554 46.4592 79.1101 46.315 78.8793 46.012C78.6484 45.6945 78.3888 45.2762 78.1002 44.7279C78.2445 44.4682 78.3743 44.2084 78.5041 43.9487C78.634 43.6746 78.7495 43.3716 78.8217 43.0542C78.9082 42.7367 78.966 42.3905 79.0237 42.0154C79.067 41.6402 79.0957 41.2073 79.0957 40.7168C79.0957 40.3272 79.0813 38.2928 79.0813 38.2928V38.2063H77.0037V38.6102H77.0902C77.4076 38.6102 77.6818 38.6391 77.8838 38.6824C78.0858 38.7257 78.2444 38.8411 78.3599 38.9998C78.4753 39.1585 78.5619 39.4038 78.6196 39.7357C78.6774 40.0675 78.6917 40.5148 78.6917 41.063C78.6917 41.6113 78.634 42.1741 78.5041 42.7368C78.3887 43.2418 78.1868 43.7756 77.8982 44.295L74.9403 38.6535C75.1135 38.5525 75.2866 38.4371 75.4742 38.3217C75.6906 38.1774 75.8927 38.0042 76.0658 37.8022C76.2389 37.6002 76.3833 37.3549 76.4987 37.0808C76.6141 36.8067 76.6719 36.4893 76.6719 36.1286C76.6719 35.5082 76.513 35.0464 76.1812 34.7434C75.8637 34.4549 75.4598 34.2961 74.9981 34.2961C74.6951 34.2961 74.3921 34.3539 74.1036 34.4837C73.8006 34.5991 73.5408 34.7867 73.3099 35.0176C73.0791 35.2484 72.8915 35.5226 72.7472 35.84C72.6029 36.1574 72.5309 36.5326 72.5309 36.9366C72.5309 37.4415 72.6029 37.8744 72.7328 38.2207C72.8482 38.5381 72.9636 38.8266 73.0935 39.0719C72.7328 39.2739 72.3722 39.5048 71.9971 39.7357C71.5931 39.9954 71.2179 40.2984 70.8861 40.6591C70.5542 41.0054 70.2655 41.4238 70.0491 41.8855C69.8327 42.3472 69.7173 42.8955 69.7173 43.5159C69.7173 43.8333 69.7894 44.2373 69.9193 44.6846C70.0492 45.1463 70.28 45.5791 70.5974 45.9975C70.9148 46.4015 71.3332 46.7623 71.8382 47.0508C72.3576 47.3394 72.9926 47.4981 73.7429 47.4981C74.118 47.4981 74.4642 47.4548 74.7817 47.3682C75.0991 47.2817 75.4021 47.1663 75.6618 47.0364C75.9215 46.9066 76.1668 46.7623 76.3832 46.6036C76.5563 46.4737 76.7151 46.3439 76.845 46.2284C76.9748 46.4304 77.0902 46.5891 77.1768 46.7334C77.2922 46.9065 77.4221 47.0509 77.5664 47.1663C77.7107 47.2817 77.8693 47.3683 78.0569 47.426C78.2445 47.4837 78.4608 47.5126 78.7061 47.5126C78.937 47.5126 79.1823 47.4692 79.442 47.3827C79.7017 47.2961 79.9325 47.1518 80.1345 46.9354C80.3365 46.7334 80.4954 46.4593 80.6397 46.1274C80.7695 45.7956 80.8417 45.3771 80.8417 44.8722V44.7856H80.4376V44.8722L80.3943 44.8577ZM73.9738 36.042C73.9738 35.6524 74.0892 35.3206 74.3056 35.0753C74.522 34.8156 74.7673 34.7002 75.0414 34.7002C75.4887 34.7002 75.7917 34.8444 75.9649 35.1186C76.1524 35.4071 76.2389 35.7534 76.2389 36.1286C76.2389 36.4316 76.1957 36.7057 76.1091 36.9221C76.0226 37.153 75.9071 37.3406 75.7629 37.5137C75.6186 37.6869 75.4597 37.8311 75.2722 37.961C75.099 38.0764 74.9259 38.1774 74.7672 38.2784C74.5796 37.8888 74.3921 37.4848 74.2334 37.0952C74.0602 36.6913 73.9882 36.3306 73.9882 36.0276M76.5852 45.8388C76.2678 46.1274 75.9504 46.3582 75.6042 46.5458C75.2435 46.7478 74.8683 46.8488 74.4498 46.8488C74.0891 46.8488 73.714 46.7046 73.3533 46.4016C72.9781 46.0986 72.6463 45.709 72.3433 45.2329C72.0403 44.7567 71.7951 44.2228 71.6075 43.6601C71.4199 43.0974 71.3333 42.5348 71.3333 42.0154C71.3333 41.3517 71.5064 40.8178 71.8527 40.4282C72.1989 40.0386 72.6607 39.6924 73.2235 39.3894L76.5852 45.8388Z" fill="#999998"/>
<path d="M23.5326 40.7888C23.2008 40.5579 22.869 40.3704 22.5227 40.255C22.1764 40.1395 21.9023 40.0385 21.6715 39.9664L19.5504 39.3027C19.2474 39.2162 18.9444 39.1007 18.6558 38.9853C18.3673 38.8698 18.0932 38.7111 17.8624 38.538C17.6315 38.3648 17.4439 38.1484 17.2996 37.8887C17.1554 37.6434 17.0832 37.326 17.0832 36.9653C17.0832 36.5181 17.1698 36.1429 17.3574 35.8543C17.545 35.5658 17.7758 35.3205 18.0644 35.1329C18.353 34.9453 18.6558 34.8155 18.9876 34.7433C19.3195 34.6712 19.6369 34.628 19.8966 34.628C20.3872 34.628 20.8201 34.7145 21.1952 34.8877C21.5704 35.0608 21.8878 35.3061 22.1475 35.5946C22.4073 35.8832 22.6236 36.2295 22.7968 36.6046C22.9699 36.9942 23.0853 37.3981 23.1575 37.8021V37.8743H23.5326V34.2095H19.9111C19.3484 34.2095 18.8146 34.3105 18.324 34.4981C17.8479 34.6856 17.4294 34.9597 17.0687 35.2916C16.7225 35.6235 16.4484 36.0275 16.2608 36.4892C16.0733 36.9509 15.9722 37.4558 15.9722 37.9897C15.9722 38.8121 16.2319 39.4903 16.7225 39.9808C17.213 40.4714 17.9489 40.861 18.9156 41.164L20.9356 41.7844C21.1809 41.8565 21.4405 41.9575 21.7002 42.0729C21.9743 42.2028 22.2196 42.3616 22.4505 42.5635C22.6813 42.7655 22.8689 43.0108 23.0132 43.285C23.1575 43.5591 23.2297 43.9053 23.2297 44.3093C23.2297 44.5835 23.1864 44.8865 23.0854 45.2039C22.9989 45.5213 22.84 45.8243 22.6092 46.1129C22.3783 46.387 22.0755 46.6179 21.6859 46.8055C21.2964 46.9931 20.7913 47.0795 20.1853 47.0795C19.9689 47.0795 19.738 47.0796 19.4783 47.0652C19.2331 47.0652 18.9733 47.0075 18.6991 46.9497C18.425 46.8776 18.1652 46.7766 17.9055 46.6179C17.6458 46.4736 17.3862 46.2572 17.1554 45.9831C16.9101 45.7089 16.6936 45.3482 16.4916 44.9297C16.2896 44.5113 16.1309 43.9775 16.0011 43.3426V43.285H15.6548V47.4836H15.7413C15.7413 47.4836 19.3628 47.4692 19.5504 47.4836C19.7379 47.4836 19.9545 47.4836 20.1998 47.4836C20.8923 47.4836 21.5415 47.3682 22.0898 47.1373C22.6525 46.9065 23.1286 46.589 23.5182 46.1994C23.9077 45.8099 24.2107 45.3626 24.4272 44.8576C24.6292 44.3526 24.7447 43.8044 24.7447 43.2561C24.7447 42.6501 24.6293 42.1307 24.384 41.7411C24.1532 41.3516 23.8645 41.0197 23.5326 40.7888Z" fill="#999998"/>
<path d="M37.715 36.1287C37.1379 35.5372 36.4742 35.061 35.7239 34.7291C34.2811 34.0799 32.7372 34.0366 31.2223 34.7291C30.4864 35.061 29.8227 35.5372 29.2311 36.1287C28.654 36.7203 28.1635 37.4273 27.7883 38.2209C27.4132 39.0289 27.2256 39.9089 27.2256 40.8612C27.2256 41.7125 27.3842 42.5494 27.6872 43.3429C27.9902 44.1365 28.4231 44.8579 28.9714 45.4639C29.5196 46.0698 30.1833 46.5604 30.9336 46.9356C31.6983 47.2963 32.5207 47.4839 33.4152 47.4839C34.3098 47.4839 35.1034 47.2963 35.8537 46.9067C36.604 46.5316 37.2677 46.0266 37.816 45.4062C38.3642 44.7858 38.8116 44.0788 39.129 43.2852C39.4464 42.4917 39.6051 41.6693 39.6051 40.8468C39.6051 39.909 39.4319 39.0144 39.0857 38.2064C38.7394 37.3984 38.2633 36.6914 37.6861 36.0999M37.4552 40.8612C37.4552 41.9 37.3831 42.8235 37.2388 43.6026C37.0945 44.3818 36.8637 45.031 36.5462 45.5504C36.2288 46.0698 35.8104 46.445 35.3054 46.7048C34.8004 46.95 34.1655 47.0798 33.4297 47.0798C32.6938 47.0798 32.0447 46.95 31.5541 46.7048C31.0491 46.4595 30.6451 46.0698 30.3133 45.5504C29.9959 45.031 29.765 44.3818 29.6207 43.6026C29.4765 42.8235 29.4043 41.9 29.4043 40.8612C29.4043 40.0532 29.462 39.2741 29.563 38.5238C29.664 37.7735 29.8659 37.1098 30.1689 36.5327C30.4574 35.9556 30.876 35.4939 31.3954 35.1476C31.9148 34.8013 32.6073 34.6282 33.4441 34.6282C34.281 34.6282 34.9591 34.8013 35.4786 35.1476C35.998 35.4939 36.4019 35.9556 36.7049 36.5327C36.9935 37.1098 37.1956 37.788 37.311 38.5238C37.412 39.2741 37.4697 40.0676 37.4697 40.8612" fill="#999998"/>
<path d="M11.196 36.1287C10.6189 35.5372 9.95514 35.061 9.20487 34.7291C7.76203 34.0799 6.2182 34.0366 4.70323 34.7291C3.96738 35.061 3.30367 35.5372 2.71211 36.1287C2.13497 36.7203 1.64441 37.4273 1.26927 38.2209C0.894133 39.0289 0.706543 39.9089 0.706543 40.8612C0.706543 41.7125 0.865177 42.5494 1.16817 43.3429C1.47117 44.1365 1.90404 44.8579 2.45232 45.4639C3.0006 46.0698 3.66428 46.5604 4.41455 46.9356C5.17926 47.2963 6.00181 47.4839 6.89637 47.4839C7.79092 47.4839 8.5844 47.2963 9.33467 46.9067C10.0849 46.5316 10.7486 46.0266 11.2969 45.4062C11.8452 44.7858 12.2925 44.0788 12.6099 43.2852C12.9274 42.4917 13.086 41.6693 13.086 40.8468C13.086 39.909 12.9129 39.0144 12.5666 38.2064C12.2203 37.3984 11.7442 36.6914 11.1671 36.0999M10.9362 40.8612C10.9362 41.9 10.864 42.8235 10.7197 43.6026C10.5755 44.3818 10.3446 45.031 10.0272 45.5504C9.70978 46.0698 9.29138 46.445 8.78639 46.7048C8.2814 46.95 7.64648 47.0798 6.91063 47.0798C6.17479 47.0798 5.52561 46.95 5.03505 46.7048C4.53006 46.4595 4.1261 46.0698 3.80868 45.5504C3.49125 45.031 3.24582 44.3818 3.11597 43.6026C2.97168 42.8235 2.89968 41.9 2.89968 40.8612C2.89968 40.0532 2.95737 39.2741 3.05837 38.5238C3.15937 37.7735 3.36126 37.1098 3.66425 36.5327C3.95282 35.9556 4.37138 35.4939 4.8908 35.1476C5.41022 34.8013 6.10266 34.6282 6.92507 34.6282C7.74749 34.6282 8.45453 34.8013 8.95952 35.1476C9.47894 35.4939 9.8829 35.9556 10.1859 36.5327C10.4745 37.1098 10.6765 37.788 10.792 38.5238C10.893 39.2741 10.9506 40.0676 10.9506 40.8612" fill="#999998"/>
<path d="M52.3604 36.1287C51.7832 35.5372 51.1195 35.061 50.3692 34.7291C48.9264 34.0799 47.3826 34.0366 45.8676 34.7291C45.1318 35.061 44.468 35.5372 43.8765 36.1287C43.2993 36.7203 42.8088 37.4273 42.4336 38.2209C42.0585 39.0289 41.8711 39.9089 41.8711 40.8612C41.8711 41.7125 42.0297 42.5494 42.3327 43.3429C42.6357 44.1365 43.0686 44.8579 43.6169 45.4639C44.1651 46.0698 44.8288 46.5749 45.5791 46.9356C46.3438 47.2963 47.1662 47.4839 48.0607 47.4839C48.9553 47.4839 49.7489 47.2963 50.4992 46.9067C51.2495 46.5316 51.9132 46.0266 52.4615 45.4062C53.0242 44.7858 53.4571 44.0788 53.7745 43.2852C54.0919 42.4917 54.2506 41.6693 54.2506 40.8468C54.2506 39.909 54.0774 39.0144 53.7312 38.2064C53.3849 37.3984 52.9088 36.6914 52.3317 36.0999M52.1007 40.8612C52.1007 41.9145 52.0286 42.8379 51.8843 43.6026C51.74 44.3673 51.5092 45.031 51.1918 45.5504C50.8743 46.0698 50.4559 46.445 49.9509 46.7048C49.4459 46.95 48.811 47.0798 48.0752 47.0798C47.3393 47.0798 46.6902 46.95 46.1996 46.7048C45.6946 46.4595 45.2905 46.0698 44.9586 45.5504C44.6412 45.031 44.4104 44.3818 44.2661 43.6026C44.1218 42.8235 44.0498 41.9 44.0498 40.8612C44.0498 40.0676 44.1075 39.2741 44.2085 38.5238C44.3095 37.7735 44.5114 37.1098 44.8144 36.5327C45.1029 35.9556 45.5213 35.4939 46.0407 35.1476C46.5602 34.8013 47.2383 34.6282 48.0752 34.6282C48.912 34.6282 49.6046 34.8013 50.1096 35.1476C50.6291 35.4939 51.033 35.9556 51.336 36.5327C51.6246 37.1098 51.8266 37.788 51.9276 38.5238C52.0286 39.2741 52.0863 40.0532 52.0863 40.8612" fill="#999998"/>
<path d="M66.3992 43.2709C66.3415 43.5306 66.2836 43.7615 66.2404 43.9923C66.0816 44.7715 65.952 45.3919 65.5047 45.868C64.9131 46.5173 63.7011 46.8059 62.7633 46.8059H59.7189V34.5273H57.7998V47.2098H66.7599V43.1988H66.4279V43.2565L66.3992 43.2709Z" fill="#999998"/>
<path d="M93.3798 41.2365C93.0191 40.9768 92.6008 40.7604 92.1679 40.6161C91.8649 40.5151 91.5764 40.443 91.2878 40.3997C91.5475 40.342 91.8071 40.2698 92.0524 40.1688C92.4275 40.0101 92.7739 39.8081 93.0625 39.5629C93.351 39.3176 93.5963 39.0146 93.7694 38.6828C93.9426 38.3509 94.029 37.9757 94.029 37.5717C94.029 37.2832 93.9713 36.9513 93.8559 36.6051C93.7405 36.2444 93.5097 35.9125 93.1778 35.6095C92.8604 35.3065 92.4131 35.0467 91.8503 34.8303C91.2876 34.6283 90.5807 34.5129 89.715 34.5129H86.3677V47.3253H89.7005C90.5085 47.3253 91.2444 47.2388 91.8503 47.0512C92.4708 46.8636 92.9903 46.6183 93.3943 46.2864C93.7983 45.969 94.1157 45.565 94.3177 45.1177C94.5197 44.6705 94.6207 44.1655 94.6207 43.6317C94.6207 43.0978 94.5052 42.6505 94.2744 42.261C94.0435 41.8714 93.7405 41.5251 93.3798 41.2654M88.2721 40.6305H90.1335C90.8837 40.6305 91.4608 40.8902 91.8503 41.4096C92.2399 41.9291 92.4275 42.6649 92.4275 43.5739C92.4275 44.2232 92.3698 44.7714 92.2544 45.1899C92.139 45.6083 91.9658 45.9546 91.7205 46.1999C91.4753 46.4452 91.1722 46.6327 90.7971 46.7337C90.4075 46.8347 89.9459 46.8925 89.3976 46.8925C89.0802 46.8925 88.8349 46.8925 88.6762 46.8636C88.5319 46.8492 88.402 46.8347 88.2866 46.8203V40.6161L88.2721 40.6305ZM91.3454 39.6927C91.1578 39.8802 90.9415 40.0246 90.6817 40.0967C90.422 40.1688 90.1191 40.2122 89.8016 40.2122H88.2577V34.9313C88.3876 34.9169 88.5464 34.9025 88.7339 34.9025C89.2534 34.9025 89.7583 34.8881 90.2777 34.9747C90.5807 35.0324 90.8549 35.1478 91.0858 35.3354C91.3311 35.5085 91.5185 35.7826 91.6772 36.1434C91.8359 36.5041 91.9081 36.9802 91.9081 37.5862C91.9081 38.12 91.8504 38.5528 91.7494 38.8991C91.6484 39.231 91.5041 39.5051 91.3165 39.7071" fill="#999998"/>
<path d="M106.596 45.9546L102.152 34.282V34.2244H101.604L96.8571 46.8203L96.7129 47.2243H97.1601L99.0934 42.0878H103.061L104.85 46.8203L105.009 47.2243H107.087L106.596 45.9546ZM102.888 41.6838H99.2521L101.07 36.8648L102.888 41.6838Z" fill="#999998"/>
<path d="M118.903 34.5417H118.341L112.786 40.3852H112.728V34.5417H110.809V47.2242H112.728V40.7892H112.757L117.893 46.8202L118.24 47.2242H120.794L114.128 39.606L118.903 34.5417Z" fill="#999998"/>
<path d="M131.456 40.5439H125.771L125.757 34.5417H123.853V47.2242H125.771V40.9479H131.456V47.2242H133.375V34.5417H131.456V40.5439Z" fill="#999998"/>
<path d="M161.15 34.5417V37.9179H161.482V37.8603C161.698 37.1533 161.929 36.605 162.203 36.201C162.477 35.8114 162.751 35.5229 163.04 35.3353C163.328 35.1477 163.617 35.0467 163.891 35.0034C164.18 34.9601 164.439 34.9457 164.67 34.9457H165.608V47.2242H167.527V34.9457H168.465C168.696 34.9457 168.955 34.9601 169.244 35.0034C169.518 35.0467 169.807 35.1477 170.095 35.3353C170.384 35.5229 170.672 35.8114 170.932 36.201C171.206 36.5905 171.437 37.1533 171.639 37.8603V37.9179H171.985V34.5417H161.135H161.15Z" fill="#999998"/>
<path d="M140.099 40.6305H144.009V40.2264H140.099V34.9457H146.448V34.5417H138.18V47.2242H147.126V46.8202H140.099V40.6305Z" fill="#999998"/>
<path d="M155.942 46.8059C155.942 46.8059 155.797 46.8059 155.725 46.8059H152.479V40.6161H156.389V40.2121H152.479V34.9313H158.827V34.5273H150.56V47.2098H159.491V46.7914H155.927L155.942 46.8059Z" fill="#999998"/>
<path d="M171.856 4.53076H169.201V22.422H171.856V4.53076Z" fill="#27318B"/>
<path d="M153.763 16.7083V21.7727H152.94V18.483H150.848V21.7727H131.168V12.1778H125.584C123.059 12.1778 121.01 14.2267 121.01 16.7516V22.2921H128.513V25.12C128.513 26.231 127.619 27.1256 126.508 27.1256H120.448V27.645H128.34C129.898 27.645 131.182 26.3754 131.182 24.8027V22.2921H166.012V12.1345H158.366C155.841 12.1345 153.792 14.1833 153.792 16.7083M128.513 12.6972V21.7727H123.103V16.2322C123.103 14.2844 124.69 12.6972 126.638 12.6972H128.528H128.513ZM156.461 21.7727V16.1744C156.461 14.2266 158.048 12.6395 159.996 12.6395H163.372V21.7582H156.461V21.7727Z" fill="#27318B"/>
<path d="M82.2986 23.8789H80.2065V25.971H82.2986V23.8789Z" fill="#27318B"/>
<path d="M62.7341 8.48413H60.6421V10.5763H62.7341V8.48413Z" fill="#27318B"/>
<path d="M35.9983 23.8789H33.9062V25.971H35.9983V23.8789Z" fill="#27318B"/>
<path d="M32.9392 23.8789H30.8472V25.971H32.9392V23.8789Z" fill="#27318B"/>
<path d="M16.0154 8.48413H13.9233V10.5763H16.0154V8.48413Z" fill="#27318B"/>
<path d="M12.9563 8.48413H10.8643V10.5763H12.9563V8.48413Z" fill="#27318B"/>
<path d="M81.7365 21.8736H67.914V12.2787H60.6134C58.0884 12.2787 56.0395 14.3276 56.0395 16.8526V17.4152H58.1316V16.3331C58.1316 14.3853 59.7188 12.7982 61.6666 12.7982H65.2304V21.8736H42.3182V12.1489H39.5912V21.8736H26.4036V12.1489H23.6767V21.8736H3.41936V12.1489H0.692383V22.4075H84.4491V12.1489H81.7221V21.8736H81.7365Z" fill="#27318B"/>
<path d="M115.094 24.4131C115.094 25.8992 113.954 27.0967 112.555 27.0967H108.977C107.577 27.0967 106.437 25.8848 106.437 24.4131V17.271H103.782V24.009C103.782 26.0146 105.413 27.6595 107.433 27.6595H114.099C116.104 27.6595 117.749 26.029 117.749 24.009V4.53076H115.094V24.4131Z" fill="#27318B"/>
<path d="M88.8635 16.7083V22.2488H96.3662V25.0767C96.3662 26.1877 95.4718 27.0823 94.3608 27.0823H88.3008V27.6017H96.1931C97.7657 27.6017 99.0356 26.332 99.0356 24.7593V12.1345H93.4518C90.9268 12.1345 88.878 14.1833 88.878 16.7083M90.9555 21.7294V16.1889C90.9555 14.2411 92.5428 12.6539 94.4906 12.6539H96.3806V21.7294H90.97H90.9555Z" fill="#27318B"/>
<path d="M170.889 0.807985H172V0H171.047C170.254 0 169.619 0.63482 169.619 1.41395V2.14981H169.1V3.11649H172V2.14981H170.009V1.71698C170.009 1.21199 170.398 0.807985 170.889 0.807985Z" fill="#27318B"/>
</svg>
