<svg width="116" height="81" viewBox="0 0 116 81" fill="none" xmlns="http://www.w3.org/2000/svg">
<path d="M88.4699 27.6762C82.8122 27.8093 76.8083 29.3668 71.2038 32.3887C66.3049 35.0245 62.1648 38.5656 58.7302 42.932C57.6786 44.2633 57.8516 44.0236 56.9997 42.932C53.2589 38.1796 48.7061 34.4122 43.2747 31.7364C39.0814 29.6597 34.6484 28.4083 30.0024 27.8625C27.4864 27.5697 24.957 27.7694 22.4543 27.4366C18.8866 26.9573 15.5852 25.8524 12.5101 23.9887C8.52972 21.5792 5.41464 18.3576 3.17818 14.2574C0.928405 10.1306 0.0631019 5.69763 0.00985279 1.05165C0.00985279 0.865277 -0.056728 0.638969 0.156268 0.532471C0.409201 0.412661 0.542369 0.652277 0.702117 0.798712C3.00514 2.98192 5.48121 4.89889 8.34334 6.30999C12.1773 8.20033 16.2109 9.15881 20.4841 9.10556C23.293 9.06563 26.0753 9.34519 28.8309 9.83774C34.6351 10.8761 40.133 12.8197 45.2183 15.8283C49.7312 18.4907 53.7515 21.7522 57.2127 25.6927C57.7053 26.2651 57.9848 26.3316 58.5306 25.706C63.576 19.9551 69.6729 15.6552 76.7284 12.7531C80.3361 11.2622 84.0768 10.2504 87.9507 9.69131C90.8661 9.26531 93.7815 9.14551 96.7102 9.05232C99.4392 8.97245 102.035 8.34677 104.631 7.42822C108.478 6.08369 111.7 3.86053 114.628 1.13152C114.788 0.985084 114.948 0.825334 115.121 0.692212C115.241 0.599026 115.374 0.452597 115.547 0.532471C115.747 0.625657 115.667 0.812021 115.667 0.971768C115.627 10.9826 111.607 18.8235 102.98 24.1218C99.6255 26.1719 95.2591 27.7294 88.4432 27.6762H88.4699ZM3.31127 6.54961C3.5642 8.08052 3.96358 9.34518 4.48275 10.5832C6.27991 14.923 9.1021 18.4375 13.0425 21.0467C16.4771 23.3231 20.2312 24.7475 24.3447 24.8273C29.7628 24.9338 35.061 25.5595 40.1729 27.4099C46.7891 29.8194 52.4602 33.6401 57.1727 38.8851C57.8517 39.6439 57.9049 39.6439 58.5838 38.8851C62.1249 34.8648 66.3448 31.7364 71.124 29.3535C76.9947 26.4248 83.1982 24.9605 89.7478 24.9472C92.4901 24.9472 95.1659 24.5478 97.7352 23.5893C104.032 21.233 108.531 16.9598 111.181 10.7563C111.726 9.49163 112.112 8.18702 112.379 6.65611C111.979 6.89573 111.74 7.02885 111.513 7.17529C107.067 9.98418 102.208 11.6083 96.9631 11.8213C93.1558 11.9677 89.3484 12.0609 85.6077 12.9129C83.2781 13.432 81.0017 14.0977 78.7785 14.9363C75.9031 16.0279 73.1607 17.4124 70.5515 19.0498C68.2885 20.4742 66.1851 22.085 64.2149 23.8822C62.0849 25.8258 60.1148 27.9158 58.3709 30.2188C58.0514 30.6448 57.7984 30.8179 57.3857 30.2721C53.8846 25.6261 49.638 21.7788 44.6725 18.7437C37.6436 14.4438 30.029 12.0875 21.7887 11.9278C16.9031 11.8346 12.1906 11.1823 7.73095 9.09226C6.23998 8.40002 4.82887 7.57466 3.31127 6.56292V6.54961Z" fill="#004039"/>
<path d="M2.08656 76.1202C2.08656 76.3998 2.13979 76.6261 2.23298 76.8125C2.33948 76.9988 2.45934 77.1453 2.61909 77.2518C2.77883 77.3583 2.96517 77.4381 3.16485 77.4781C3.36454 77.518 3.57758 77.5447 3.79057 77.5447H5.96048C6.38647 77.5447 6.66598 77.4914 6.82573 77.3716C6.98547 77.2518 7.06534 77.1187 7.06534 76.9589C7.06534 76.8524 7.01208 76.7459 6.89227 76.6261C6.77246 76.5063 6.62607 76.3998 6.4397 76.28C6.25333 76.1602 6.05364 76.027 5.85396 75.8939C5.64096 75.7608 5.44126 75.6011 5.25489 75.4147C5.06852 75.2416 4.92205 75.0419 4.80224 74.8156C4.68243 74.5893 4.62925 74.3364 4.62925 74.0435C4.62925 73.7773 4.68248 73.5376 4.77567 73.3113C4.88217 73.085 5.0153 72.8854 5.20167 72.7123C5.38804 72.5392 5.61435 72.4061 5.86728 72.3129C6.13353 72.2197 6.42636 72.1665 6.74586 72.1665C7.25172 72.1665 7.65112 72.2464 7.94399 72.4061C8.25018 72.5659 8.50305 72.7656 8.71605 73.0185C8.75598 73.0717 8.74273 73.125 8.68948 73.1649L8.10373 73.7373C8.10373 73.7373 7.99726 73.7773 7.95732 73.7373C7.81088 73.5909 7.63775 73.4711 7.46469 73.3779C7.29163 73.298 7.07866 73.2581 6.82573 73.2581C6.57279 73.2581 6.35981 73.3247 6.17344 73.4578C5.98707 73.5909 5.88053 73.7906 5.88053 74.0568C5.88053 74.2299 5.94711 74.3897 6.06692 74.5361C6.18673 74.6825 6.34653 74.8289 6.5329 74.9621C6.71927 75.0952 6.91889 75.2416 7.13188 75.3881C7.34488 75.5345 7.54458 75.6809 7.73095 75.854C7.91732 76.0137 8.06381 76.2001 8.19693 76.3865C8.31674 76.5729 8.38324 76.7992 8.38324 77.0388C8.38324 77.2518 8.34335 77.4648 8.26347 77.6645C8.1836 77.8641 8.05043 78.0372 7.87737 78.1836C7.70431 78.3301 7.47807 78.4499 7.19851 78.5298C6.91895 78.6096 6.59939 78.6496 6.21333 78.6496H3.68405C2.73888 78.6496 2.04662 78.4366 1.58069 77.9973C1.11476 77.558 0.888428 76.9722 0.888428 76.2267C0.888428 75.8407 0.955009 75.4413 1.07482 75.0553C1.19463 74.6692 1.35441 74.3231 1.52747 74.0435C1.56741 73.977 1.62065 73.977 1.68721 74.0169L2.56579 74.363C2.56579 74.363 2.61909 74.4029 2.61909 74.4163C2.61909 74.4429 2.61907 74.4695 2.60576 74.4962C2.48595 74.6958 2.37945 74.9355 2.27296 75.2017C2.16646 75.4679 2.11321 75.7741 2.11321 76.0936L2.08656 76.1202ZM3.52431 80.5C3.45775 80.5 3.41779 80.46 3.41779 80.3935V79.4483C3.41779 79.3684 3.45775 79.3418 3.52431 79.3418H4.44286C4.50942 79.3418 4.5493 79.3817 4.5493 79.4483V80.3935C4.5493 80.46 4.50942 80.5 4.44286 80.5H3.52431ZM4.93541 80.5C4.86885 80.5 4.82889 80.46 4.82889 80.3935V79.4483C4.82889 79.3684 4.86885 79.3418 4.93541 79.3418H5.85396C5.92052 79.3418 5.96048 79.3817 5.96048 79.4483V80.3935C5.96048 80.46 5.92052 80.5 5.85396 80.5H4.93541Z" fill="#004039"/>
<path d="M9.20861 79.4612C9.14205 79.4612 9.10217 79.4213 9.10217 79.3547V78.4894C9.10217 78.4229 9.14205 78.3829 9.20861 78.3829H9.4483C9.75449 78.3829 9.96747 78.303 10.1006 78.1566C10.2337 78.0102 10.3002 77.7705 10.3002 77.4644V72.8716C10.3002 72.8051 10.3402 72.7651 10.4067 72.7651H11.4052C11.4717 72.7651 11.5117 72.8051 11.5117 72.8716V77.4777C11.5117 78.8089 10.8727 79.4612 9.59472 79.4612H9.19537H9.20861Z" fill="#004039"/>
<path d="M12.8961 69.9829C12.8961 69.9164 12.9361 69.8765 13.0027 69.8765H14.0011C14.0676 69.8765 14.1076 69.9164 14.1076 69.9829V75.6007C14.1076 75.8137 14.1475 75.9735 14.2274 76.0534C14.3072 76.1332 14.4403 76.1732 14.6267 76.1732H15.0128C15.1593 76.1732 15.2657 76.2131 15.3323 76.293C15.3989 76.3728 15.4388 76.5193 15.4388 76.7323C15.4388 76.9586 15.3989 77.105 15.3323 77.1716C15.2657 77.2381 15.1592 77.2648 14.9995 77.2648H14.1475C13.6949 77.2648 13.3754 77.1583 13.1757 76.9319C12.976 76.7056 12.8828 76.3595 12.8828 75.8936V69.9829H12.8961Z" fill="#004039"/>
<path d="M17.9548 72.5522C18.7003 72.5522 19.2594 72.7252 19.6455 73.0713C20.0315 73.4175 20.2312 73.8834 20.2312 74.4691C20.2312 74.8286 20.1513 75.148 19.9916 75.4409C19.8318 75.7338 19.6055 75.9734 19.3393 76.1598H20.8835C21.0299 76.1598 21.1364 76.1997 21.203 76.2663C21.2695 76.3328 21.3095 76.4793 21.3095 76.679C21.3095 76.8787 21.2695 77.0384 21.203 77.1183C21.1364 77.1981 21.0299 77.2381 20.8702 77.2381H19.3526C19.0864 77.2381 18.8468 77.2381 18.6071 77.2114C18.3808 77.1848 18.1545 77.1183 17.9415 76.9851C17.7019 77.1183 17.449 77.1981 17.1694 77.2114C16.9031 77.2381 16.6502 77.2381 16.4505 77.2381H14.9995C14.8531 77.2381 14.7466 77.1981 14.68 77.1049C14.6134 77.0118 14.5735 76.8787 14.5735 76.679C14.5735 76.466 14.6134 76.3195 14.68 76.253C14.7466 76.1864 14.8664 76.1465 15.0128 76.1465H16.5437C16.2774 75.9601 16.0644 75.7205 15.8914 75.4276C15.7316 75.1347 15.6518 74.8152 15.6518 74.4558C15.6518 73.8701 15.8515 73.4041 16.2375 73.058C16.6236 72.7119 17.196 72.5389 17.9282 72.5389L17.9548 72.5522ZM16.8366 71.6735C16.77 71.6735 16.7301 71.6336 16.7301 71.567V70.6219C16.7301 70.5553 16.77 70.5154 16.8366 70.5154H17.7551C17.8217 70.5154 17.8616 70.5553 17.8616 70.6219V71.567C17.8616 71.6336 17.8217 71.6735 17.7551 71.6735H16.8366ZM17.9548 73.5239C17.6752 73.5239 17.4223 73.6171 17.2226 73.7902C17.0096 73.9632 16.9165 74.2295 16.9165 74.5756C16.9165 74.9484 17.0229 75.2412 17.2226 75.4675C17.4223 75.6939 17.6752 75.8669 17.9681 76C18.2477 75.8802 18.4873 75.7072 18.7003 75.4675C18.9133 75.2279 19.0065 74.9351 19.0065 74.5756C19.0065 74.2295 18.8999 73.9632 18.7003 73.7902C18.5006 73.6171 18.261 73.5239 17.9681 73.5239H17.9548ZM18.2477 71.6735C18.1811 71.6735 18.1412 71.6336 18.1412 71.567V70.6219C18.1412 70.5553 18.1811 70.5154 18.2477 70.5154H19.1662C19.2328 70.5154 19.2728 70.5553 19.2728 70.6219V71.567C19.2728 71.6336 19.2328 71.6735 19.1662 71.6735H18.2477Z" fill="#004039"/>
<path d="M23.9187 72.552C24.7574 72.552 25.3564 72.7118 25.7425 73.0179C26.1285 73.3241 26.3149 73.7368 26.3149 74.2427C26.3149 74.4557 26.2749 74.6686 26.2084 74.855C26.1418 75.0414 26.0486 75.2278 25.9421 75.3875C25.8356 75.5473 25.7159 75.6937 25.5694 75.8268C25.423 75.96 25.3032 76.0664 25.1701 76.1463C25.2233 76.1596 25.2898 76.1729 25.3564 76.1729H26.9405C27.1136 76.1729 27.2201 76.2129 27.2734 76.3061C27.3266 76.3992 27.3665 76.5457 27.3665 76.7454C27.3665 76.945 27.3267 77.0915 27.2601 77.1581C27.1935 77.2246 27.087 77.2645 26.9405 77.2645H25.3165C25.0502 77.2645 24.8106 77.2379 24.571 77.198C24.3314 77.1447 24.1184 77.0649 23.9054 76.9317C23.6658 77.0649 23.4128 77.1447 23.1466 77.198C22.8803 77.2512 22.6407 77.2645 22.4277 77.2645H20.8568C20.7237 77.2645 20.6172 77.2246 20.5373 77.1581C20.4708 77.0782 20.4309 76.945 20.4309 76.7454C20.4309 76.5457 20.4575 76.4126 20.4975 76.3194C20.5507 76.2262 20.6571 76.1729 20.8568 76.1729H22.1348C22.2546 76.1729 22.3877 76.1729 22.5209 76.1596C22.654 76.1463 22.8404 76.1197 23.0267 76.0797C22.9735 75.8401 22.8936 75.6405 22.7871 75.4674C22.6939 75.2943 22.5741 75.1346 22.4543 75.0015C22.3345 74.8683 22.2014 74.7485 22.055 74.642C21.9085 74.5355 21.7754 74.429 21.629 74.3358C21.5491 74.2826 21.5092 74.2293 21.4959 74.1761C21.4959 74.1229 21.4825 74.0829 21.4825 74.0164V73.3374C21.4825 73.2575 21.5491 73.1777 21.6955 73.0712C21.8286 72.978 22.015 72.8981 22.2414 72.8182C22.4677 72.7384 22.7206 72.6851 23.0135 72.6319C23.3064 72.5786 23.5992 72.552 23.9054 72.552H23.9187ZM24.0918 75.8401C24.2116 75.7736 24.3313 75.6804 24.4512 75.5739C24.571 75.4674 24.6775 75.3609 24.7706 75.2411C24.8638 75.1213 24.9304 74.9881 24.997 74.855C25.0503 74.7219 25.0902 74.5755 25.0902 74.429C25.0902 74.1362 24.9836 73.9232 24.7706 73.8034C24.5576 73.6835 24.2781 73.6303 23.9453 73.6303C23.6524 73.6303 23.3995 73.6569 23.1865 73.7235C22.9735 73.7767 22.8271 73.83 22.7472 73.8699C23.08 74.0829 23.3596 74.3492 23.5992 74.6953C23.8389 75.0281 23.9985 75.4141 24.105 75.8268L24.0918 75.8401Z" fill="#004039"/>
<path d="M26.9538 77.2648C26.8074 77.2648 26.7009 77.2248 26.6344 77.1583C26.5678 77.0917 26.5278 76.9453 26.5278 76.7323C26.5278 76.5193 26.5678 76.3862 26.6344 76.293C26.7009 76.2131 26.8207 76.1732 26.9672 76.1732H27.4997C27.6861 76.1732 27.8192 76.1332 27.899 76.0534C27.9789 75.9735 28.0188 75.8137 28.0188 75.6007V69.9829C28.0188 69.9164 28.0588 69.8765 28.1253 69.8765H29.1237C29.1903 69.8765 29.2303 69.9164 29.2303 69.9829V75.8936C29.2303 76.3595 29.137 76.7056 28.9373 76.9319C28.7377 77.1583 28.4182 77.2648 27.9656 77.2648H26.9538Z" fill="#004039"/>
<path d="M31.866 77.1583C31.866 77.2248 31.8261 77.2648 31.7595 77.2648H30.7611C30.6945 77.2648 30.6547 77.2248 30.6547 77.1583V69.9829C30.6547 69.9164 30.6945 69.8765 30.7611 69.8765H31.7595C31.8261 69.8765 31.866 69.9164 31.866 69.9829V77.1583Z" fill="#004039"/>
<path d="M35.274 79.4612C35.2074 79.4612 35.1675 79.4213 35.1675 79.3547V78.4894C35.1675 78.4229 35.2074 78.3829 35.274 78.3829H35.5136C35.8198 78.3829 36.0328 78.303 36.1659 78.1566C36.299 78.0102 36.3656 77.7705 36.3656 77.4644V72.8716C36.3656 72.8051 36.4056 72.7651 36.4721 72.7651H37.4706C37.5371 72.7651 37.5771 72.8051 37.5771 72.8716V77.4777C37.5771 78.8089 36.9381 79.4612 35.6601 79.4612H35.2607H35.274Z" fill="#004039"/>
<path d="M38.9748 69.9829C38.9748 69.9164 39.0146 69.8765 39.0812 69.8765H40.0796C40.1462 69.8765 40.1861 69.9164 40.1861 69.9829V75.6007C40.1861 75.8137 40.2261 75.9735 40.306 76.0534C40.3859 76.1332 40.519 76.1732 40.7053 76.1732H41.0914C41.2378 76.1732 41.3443 76.2131 41.4108 76.293C41.4774 76.3728 41.5174 76.5193 41.5174 76.7323C41.5174 76.9586 41.4774 77.105 41.4108 77.1716C41.3443 77.2381 41.2378 77.2648 41.078 77.2648H40.2261C39.7735 77.2648 39.4539 77.1583 39.2543 76.9319C39.0546 76.7056 38.9614 76.3595 38.9614 75.8936V69.9829H38.9748Z" fill="#004039"/>
<path d="M42.1963 74.8687C42.1963 74.456 42.2629 74.0966 42.3694 73.8037C42.4759 73.5109 42.6356 73.2712 42.8353 73.0849C43.035 72.8985 43.2747 72.7654 43.5409 72.6855C43.8071 72.6056 44.1 72.5657 44.4195 72.5657C44.739 72.5657 45.0319 72.6056 45.3115 72.6988C45.591 72.792 45.8306 72.9251 46.0303 73.1115C46.23 73.2979 46.3897 73.5508 46.4962 73.857C46.6027 74.1631 46.6693 74.5492 46.6693 74.9885V75.1749C46.6693 75.1749 46.6693 75.2947 46.6693 75.348C46.6693 75.6541 46.7492 75.8671 46.8823 75.9869C47.0154 76.1067 47.1751 76.1733 47.3482 76.1733H47.6677C47.8141 76.1733 47.9206 76.2132 47.9872 76.2931C48.0537 76.373 48.0937 76.5061 48.0937 76.7058C48.0937 76.9188 48.0537 77.0652 47.9872 77.1451C47.9206 77.225 47.8141 77.2649 47.6543 77.2649C47.5345 77.2649 47.4014 77.2649 47.2683 77.2649C47.1352 77.2649 47.0021 77.2383 46.869 77.1984C46.7358 77.1584 46.6027 77.1052 46.4829 77.0253C46.363 76.9454 46.2566 76.8389 46.1634 76.7058C45.9637 76.9454 45.7241 77.1052 45.4312 77.2117C45.1383 77.3182 44.8055 77.3714 44.4328 77.3714C44.0601 77.3714 43.7406 77.3182 43.4477 77.225C43.1548 77.1318 42.9152 76.9587 42.7155 76.7324C42.649 76.8522 42.5558 76.9454 42.4493 77.012C42.3428 77.0919 42.2363 77.1451 42.1298 77.185C42.0233 77.225 41.9035 77.2516 41.797 77.2649C41.6772 77.2782 41.5707 77.2915 41.4775 77.2915H41.0914C40.945 77.2915 40.8385 77.2516 40.7719 77.1717C40.7054 77.0919 40.6654 76.9454 40.6654 76.7457C40.6654 76.5327 40.7054 76.3863 40.7719 76.3197C40.8385 76.2532 40.9583 76.2132 41.1047 76.2132H41.5307C41.7038 76.2132 41.8635 76.1467 41.9966 76.0002C42.1298 75.8538 42.2097 75.6009 42.2097 75.2281C42.2097 75.1749 42.2097 75.1216 42.2097 75.0684V74.9086L42.1963 74.8687ZM44.4328 73.644C44.0867 73.644 43.8337 73.7505 43.6607 73.9768C43.5009 74.2031 43.4077 74.5226 43.4077 74.9486C43.4077 75.4145 43.4876 75.7473 43.6607 75.947C43.8204 76.1467 44.0867 76.2532 44.4328 76.2532C44.7789 76.2532 45.0452 76.1467 45.2049 75.947C45.3647 75.7473 45.4579 75.4145 45.4579 74.9619C45.4579 74.0833 45.1117 73.6573 44.4328 73.6573V73.644Z" fill="#004039"/>
<path d="M49.984 76.7055C49.8775 76.9185 49.7311 77.065 49.5314 77.1448C49.3317 77.2247 49.0522 77.2647 48.7061 77.2647H47.6943C47.5479 77.2647 47.4414 77.2247 47.3748 77.1582C47.3083 77.0916 47.2683 76.9452 47.2683 76.7455C47.2683 76.5458 47.3083 76.386 47.3748 76.3062C47.4414 76.2263 47.5479 76.1864 47.7076 76.1864H48.4131C48.5463 76.1864 48.6395 76.1731 48.7061 76.1331C48.7726 76.0932 48.8258 76.0266 48.8525 75.9468C48.8791 75.8669 48.9057 75.7604 48.9057 75.6272C48.9057 75.4941 48.9057 75.3344 48.9057 75.1347V72.8849C48.9057 72.8849 48.9191 72.8184 48.959 72.7917C48.9989 72.7651 49.0388 72.7651 49.0788 72.7651H50.0106C50.0772 72.7651 50.1172 72.8051 50.1172 72.8716V75.5207C50.1172 75.7337 50.197 75.9068 50.3568 76.0133C50.5165 76.1331 50.7428 76.1864 51.0091 76.1864H51.1954C51.3419 76.1864 51.4484 76.2263 51.5149 76.3062C51.5815 76.386 51.6214 76.5192 51.6214 76.7189C51.6214 76.9319 51.5815 77.0783 51.5149 77.1582C51.4484 77.238 51.3419 77.278 51.1821 77.278C50.9026 77.278 50.6496 77.238 50.4366 77.1715C50.2236 77.1049 50.0639 76.9452 49.9441 76.7189L49.984 76.7055ZM48.3866 71.6735C48.32 71.6735 48.2801 71.6336 48.2801 71.567V70.6218C48.2801 70.5553 48.32 70.5153 48.3866 70.5153H49.3051C49.3717 70.5153 49.4116 70.5553 49.4116 70.6218V71.567C49.4116 71.6336 49.3717 71.6735 49.3051 71.6735H48.3866ZM49.0788 70.2624C49.0122 70.2624 48.9723 70.2225 48.9723 70.1559V69.2107C48.9723 69.1442 49.0122 69.1042 49.0788 69.1042H49.9973C50.0639 69.1042 50.1038 69.1442 50.1038 69.2107V70.1559C50.1038 70.2225 50.0639 70.2624 49.9973 70.2624H49.0788ZM49.7977 71.6735C49.7311 71.6735 49.6912 71.6336 49.6912 71.567V70.6218C49.6912 70.5553 49.7311 70.5153 49.7977 70.5153H50.7162C50.7828 70.5153 50.8227 70.5553 50.8227 70.6218V71.567C50.8227 71.6336 50.7828 71.6735 50.7162 71.6735H49.7977Z" fill="#004039"/>
<path d="M53.5783 76.7056C53.4718 76.9186 53.3255 77.065 53.1258 77.1449C52.9261 77.2248 52.6465 77.2647 52.3004 77.2647H51.2887C51.1422 77.2647 51.0358 77.2248 50.9692 77.1582C50.9026 77.0916 50.8627 76.9452 50.8627 76.7455C50.8627 76.5458 50.9026 76.3861 50.9692 76.3062C51.0358 76.2263 51.1423 76.1864 51.302 76.1864H52.0075C52.1406 76.1864 52.2339 76.1731 52.3004 76.1332C52.367 76.0932 52.4202 76.0267 52.4468 75.9468C52.4735 75.8669 52.5001 75.7604 52.5001 75.6273C52.5001 75.4942 52.5001 75.3344 52.5001 75.1347V72.885C52.5001 72.885 52.5134 72.8184 52.5534 72.7918C52.5933 72.7651 52.6332 72.7652 52.6731 72.7652H53.605C53.6716 72.7652 53.7115 72.8051 53.7115 72.8717V75.5208C53.7115 75.7338 53.7914 75.9069 53.9511 76.0134C54.1109 76.1332 54.3372 76.1864 54.6034 76.1864H54.7898C54.9362 76.1864 55.0427 76.2263 55.1093 76.3062C55.1758 76.3861 55.2158 76.5192 55.2158 76.7189C55.2158 76.9319 55.1758 77.0783 55.1093 77.1582C55.0427 77.2381 54.9362 77.278 54.7765 77.278C54.4969 77.278 54.244 77.2381 54.031 77.1715C53.818 77.105 53.6583 76.9452 53.5384 76.7189L53.5783 76.7056ZM51.9676 71.6735C51.9011 71.6735 51.8611 71.6336 51.8611 71.567V70.6219C51.8611 70.5553 51.9011 70.5154 51.9676 70.5154H52.8862C52.9527 70.5154 52.9926 70.5553 52.9926 70.6219V71.567C52.9926 71.6336 52.9527 71.6735 52.8862 71.6735H51.9676ZM53.392 71.6735C53.3254 71.6735 53.2855 71.6336 53.2855 71.567V70.6219C53.2855 70.5553 53.3254 70.5154 53.392 70.5154H54.3105C54.3771 70.5154 54.417 70.5553 54.417 70.6219V71.567C54.417 71.6336 54.3771 71.6735 54.3105 71.6735H53.392Z" fill="#004039"/>
<path d="M57.4257 75.5075C57.4257 75.9601 57.692 76.1864 58.2112 76.1864C58.3709 76.1864 58.504 76.1864 58.5972 76.1598C58.6904 76.1465 58.7703 76.1065 58.8235 76.0533C58.8768 76 58.9167 75.9201 58.93 75.8136C58.9433 75.7071 58.9567 75.5607 58.9567 75.3743V73.7369C58.9567 73.6704 58.9966 73.6304 59.0631 73.6304H60.0615C60.1281 73.6304 60.1681 73.6704 60.1681 73.7369V75.5208C60.1681 75.7471 60.2346 75.9201 60.381 76.0399C60.5141 76.1464 60.7006 76.213 60.9402 76.213C61.1133 76.213 61.2597 76.213 61.3529 76.1731C61.4461 76.1331 61.5259 76.0932 61.5792 76.0266C61.6324 75.9468 61.659 75.8403 61.6724 75.7071C61.6857 75.574 61.699 75.3876 61.699 75.148V72.8982C61.699 72.8317 61.7389 72.7917 61.8054 72.7917H62.8039C62.8704 72.7917 62.9104 72.8317 62.9104 72.8982V75.9334C62.9104 76.4393 62.8039 76.7854 62.6042 76.9984C62.3912 77.2114 62.0451 77.3046 61.5525 77.3046H61.0866C60.8337 77.3046 60.6207 77.2514 60.4343 77.1582C60.2613 77.065 60.1148 76.9186 60.0216 76.7322C59.9151 76.9452 59.7687 77.0916 59.5823 77.1715C59.3959 77.2514 59.1297 77.2913 58.8102 77.2913H58.331C57.8118 77.2913 57.4657 77.0916 57.2793 76.7056C57.1728 76.9186 57.0397 77.065 56.84 77.1582C56.6403 77.2514 56.3873 77.2913 56.0545 77.2913H54.8165C54.6701 77.2913 54.5636 77.2514 54.497 77.1848C54.4305 77.1182 54.3905 76.9851 54.3905 76.7988C54.3905 76.5858 54.4305 76.426 54.497 76.3328C54.5636 76.2396 54.6834 76.1997 54.8298 76.1997H55.6952C55.9215 76.1997 56.0546 76.1464 56.1212 76.0266C56.1877 75.9068 56.2144 75.6938 56.2144 75.3743V73.7369C56.2144 73.6704 56.2542 73.6304 56.3208 73.6304H57.3192C57.3858 73.6304 57.4257 73.6704 57.4257 73.7369V75.5341V75.5075Z" fill="#004039"/>
<path d="M67.2367 76.1732H68.3682C68.5546 76.1732 68.6878 76.1332 68.7676 76.0534C68.8475 75.9735 68.8874 75.8137 68.8874 75.6007V69.9829C68.8874 69.9164 68.9274 69.8765 68.9939 69.8765H69.9923C70.0589 69.8765 70.0989 69.9164 70.0989 69.9829V75.8936C70.0989 76.3595 70.0056 76.7056 69.806 76.9319C69.6063 77.1583 69.2868 77.2648 68.8342 77.2648H64.055C63.9885 77.2648 63.9486 77.2248 63.9486 77.1583V76.293C63.9486 76.2264 63.9885 76.1865 64.055 76.1865H65.9853V71.5139C65.9853 71.4473 66.0253 71.4074 66.0919 71.4074H67.0903C67.1568 71.4074 67.1968 71.4473 67.1968 71.5139V76.1865L67.2367 76.1732Z" fill="#004039"/>
<path d="M72.7613 77.1583C72.7613 77.2248 72.7213 77.2648 72.6547 77.2648H71.6563C71.5898 77.2648 71.5498 77.2248 71.5498 77.1583V69.9829C71.5498 69.9164 71.5898 69.8765 71.6563 69.8765H72.6547C72.7213 69.8765 72.7613 69.9164 72.7613 69.9829V77.1583Z" fill="#004039"/>
<path d="M78.7251 77.2645C78.379 77.2645 78.0862 77.2246 77.8199 77.1447C77.5537 77.0649 77.3274 76.9451 77.1543 76.7587C76.9679 76.5856 76.8348 76.346 76.7416 76.0664C76.6484 75.7869 76.5952 75.4408 76.5952 75.0281C76.5952 74.5888 76.6484 74.2027 76.7815 73.8965C76.9013 73.577 77.0611 73.3241 77.2741 73.1244C77.4871 72.9247 77.7134 72.7783 77.993 72.6851C78.2592 72.5919 78.5388 72.552 78.845 72.552C79.1778 72.552 79.4707 72.5919 79.7502 72.6851C80.0165 72.7783 80.256 72.9114 80.4557 73.0978C80.6554 73.2842 80.8019 73.5371 80.9084 73.8433C81.0149 74.1495 81.0681 74.5222 81.0681 74.9615V77.5042C81.0681 78.1831 80.895 78.6756 80.5489 78.9951C80.2028 79.3013 79.7103 79.4611 79.058 79.4611H77.5936C77.5271 79.4611 77.4871 79.4211 77.4871 79.3546V78.4893C77.4871 78.4227 77.5271 78.3828 77.5936 78.3828H78.8716C79.018 78.3828 79.1511 78.3828 79.2709 78.3428C79.3907 78.3162 79.4973 78.263 79.5905 78.1831C79.6837 78.1032 79.7502 77.9967 79.7901 77.8503C79.8434 77.7038 79.8567 77.5175 79.8567 77.2779H78.765L78.7251 77.2645ZM78.8317 73.6436C78.4989 73.6436 78.2459 73.7634 78.0595 74.0164C77.8732 74.256 77.7933 74.5888 77.7933 75.0015C77.7933 75.4541 77.8865 75.7602 78.0729 75.9333C78.2592 76.0931 78.5254 76.1862 78.8716 76.1862H79.8434V74.9482C79.8434 74.5222 79.7635 74.2027 79.6037 73.9764C79.444 73.7501 79.1911 73.6436 78.845 73.6436H78.8317Z" fill="#004039"/>
<path d="M85.488 72.858C85.488 72.7914 85.5278 72.7515 85.5944 72.7515H86.5928C86.6594 72.7515 86.6993 72.7914 86.6993 72.858V75.5071C86.6993 75.7201 86.7792 75.8932 86.9389 75.9997C87.0987 76.1195 87.325 76.1727 87.5912 76.1727H87.7776C87.9241 76.1727 88.0306 76.2127 88.1104 76.2925C88.177 76.3724 88.2169 76.5055 88.2169 76.7052C88.2169 76.9182 88.177 77.0646 88.1104 77.1445C88.0439 77.2244 87.9374 77.2643 87.7776 77.2643C87.538 77.2643 87.325 77.2377 87.1387 77.1978C86.9656 77.1578 86.8058 77.0513 86.686 76.9049V77.1179C86.686 77.5039 86.6594 77.8501 86.5928 78.1429C86.5262 78.4358 86.4198 78.6754 86.2733 78.8751C86.1269 79.0748 85.9272 79.2212 85.6876 79.3144C85.448 79.4076 85.1418 79.4609 84.7824 79.4609H84.383C84.3164 79.4609 84.2765 79.4209 84.2765 79.3544V78.4891C84.2765 78.4225 84.3164 78.3826 84.383 78.3826H84.6226C84.8356 78.3826 84.9954 78.3426 85.1152 78.2761C85.235 78.2095 85.3149 78.103 85.3681 77.9566C85.4214 77.8101 85.4613 77.6504 85.4613 77.4507C85.4613 77.251 85.4746 77.0247 85.4746 76.7585V72.8713L85.488 72.858Z" fill="#004039"/>
<path d="M87.8043 77.2643C87.6579 77.2643 87.5514 77.2244 87.4848 77.1578C87.4183 77.0913 87.3783 76.9582 87.3783 76.7585C87.3783 76.5455 87.4183 76.399 87.4848 76.3058C87.5514 76.2127 87.6712 76.1727 87.8176 76.1727H88.5231C88.7095 76.1727 88.8426 76.1328 88.9225 76.0529C89.0024 75.973 89.0423 75.8133 89.0423 75.6003V72.858C89.0423 72.7914 89.0823 72.7515 89.1488 72.7515H90.1473C90.2138 72.7515 90.2537 72.7914 90.2537 72.858V75.8932C90.2537 76.3591 90.1606 76.7052 89.9609 76.9315C89.7612 77.1578 89.4417 77.2643 88.9891 77.2643H87.8043ZM88.217 79.3544C88.1504 79.3544 88.1105 79.3144 88.1105 79.2479V78.3027C88.1105 78.2228 88.1504 78.1962 88.217 78.1962H89.1355C89.2021 78.1962 89.242 78.2361 89.242 78.3027V79.2479C89.242 79.3144 89.2021 79.3544 89.1355 79.3544H88.217ZM89.6281 79.3544C89.5615 79.3544 89.5216 79.3144 89.5216 79.2479V78.3027C89.5216 78.2228 89.5615 78.1962 89.6281 78.1962H90.5466C90.6132 78.1962 90.6531 78.2361 90.6531 78.3027V79.2479C90.6531 79.3144 90.6132 79.3544 90.5466 79.3544H89.6281Z" fill="#004039"/>
<path d="M92.5568 79.4611C92.4902 79.4611 92.4503 79.4211 92.4503 79.3546V78.4893C92.4503 78.4227 92.4902 78.3828 92.5568 78.3828H93.8347C94.0078 78.3828 94.1409 78.3695 94.274 78.3295C94.3938 78.3029 94.5003 78.2363 94.5802 78.1565C94.6601 78.0766 94.7266 77.9701 94.7666 77.8237C94.8065 77.6772 94.8331 77.4908 94.8331 77.2645H93.7415C93.3954 77.2645 93.1025 77.2246 92.8363 77.1447C92.57 77.0649 92.3437 76.9451 92.1707 76.7587C91.9843 76.5856 91.8512 76.346 91.758 76.0664C91.6648 75.7869 91.6116 75.4408 91.6116 75.0281C91.6116 74.5888 91.6782 74.2027 91.798 73.8965C91.9178 73.577 92.0908 73.3241 92.2905 73.1244C92.4902 72.9247 92.7298 72.7783 92.996 72.6851C93.2623 72.5919 93.5418 72.552 93.848 72.552C94.1808 72.552 94.4737 72.5919 94.7532 72.6851C95.0195 72.7783 95.2592 72.9114 95.4588 73.0978C95.6585 73.2842 95.8049 73.5371 95.9114 73.83C96.0179 74.1362 96.0711 74.5089 96.0711 74.9482V76.1729H96.8167C96.9631 76.1729 97.0696 76.2129 97.1362 76.2927C97.2028 76.3726 97.2426 76.5057 97.2426 76.7054C97.2426 76.945 97.2028 77.0915 97.1362 77.1581C97.0696 77.2246 96.9498 77.2645 96.8034 77.2645H96.0579V77.5042C96.0579 78.1831 95.8848 78.6756 95.5387 78.9951C95.1926 79.3013 94.7 79.4611 94.0477 79.4611H92.5833H92.5568ZM93.8215 73.6436C93.502 73.6436 93.2357 73.7634 93.0493 74.0164C92.8629 74.256 92.7697 74.5888 92.7697 75.0015C92.7697 75.4541 92.8629 75.7602 93.0493 75.9333C93.2357 76.0931 93.5019 76.1862 93.848 76.1862H94.8199V74.9482C94.8199 74.5222 94.7399 74.2027 94.5802 73.9764C94.4204 73.7501 94.1676 73.6436 93.8215 73.6436Z" fill="#004039"/>
<path d="M99.1065 73.1645C99.4526 72.9914 99.8386 72.8583 100.251 72.7385C100.664 72.6187 101.09 72.5654 101.529 72.5654C102.009 72.5654 102.421 72.632 102.754 72.7518C103.087 72.8716 103.366 73.0446 103.579 73.271C103.792 73.4973 103.952 73.7635 104.045 74.083C104.139 74.4025 104.192 74.7619 104.192 75.148C104.192 75.2146 104.192 75.2811 104.192 75.3477C104.192 75.4142 104.192 75.4675 104.192 75.5074C104.192 75.7204 104.285 75.8935 104.445 76C104.604 76.1198 104.817 76.173 105.097 76.173H105.283C105.43 76.173 105.536 76.213 105.603 76.2928C105.669 76.3727 105.709 76.5058 105.709 76.7055C105.709 76.9185 105.669 77.065 105.603 77.1448C105.536 77.2247 105.43 77.2646 105.27 77.2646C104.964 77.2646 104.684 77.2247 104.445 77.1315C104.205 77.0383 104.032 76.852 103.926 76.5724C103.846 76.7322 103.752 76.852 103.633 76.9452C103.526 77.0383 103.38 77.1049 103.233 77.1582C103.074 77.2114 102.9 77.238 102.687 77.2513C102.488 77.2646 102.261 77.278 102.009 77.278H99.0932C98.8668 77.278 98.7071 77.2114 98.6139 77.0916C98.4941 77.1848 98.3477 77.2247 98.1879 77.2513C98.0282 77.2646 97.8418 77.278 97.6288 77.278H96.7768C96.6304 77.278 96.5239 77.238 96.4574 77.1715C96.3908 77.1049 96.3508 76.9585 96.3508 76.7588C96.3508 76.5192 96.3908 76.3727 96.4574 76.2928C96.5239 76.2263 96.6437 76.1863 96.7902 76.1863H97.3359C97.469 76.1863 97.5756 76.173 97.6422 76.1331C97.722 76.0932 97.7753 76.0266 97.8152 75.9334C97.8552 75.8402 97.8818 75.7071 97.8818 75.5341C97.8818 75.361 97.8951 75.148 97.8951 74.8817V69.9961C97.8951 69.9296 97.935 69.8896 98.0015 69.8896H99C99.0665 69.8896 99.1065 69.9296 99.1065 69.9961V73.1778V73.1645ZM101.343 73.6437C100.93 73.6437 100.531 73.7103 100.145 73.8301C99.7588 73.9499 99.3993 74.083 99.0932 74.2294V75.7071C99.0932 75.8003 99.0932 75.8802 99.0932 75.96C99.0932 76.0399 99.0798 76.1198 99.0665 76.1863H101.449C101.756 76.1863 102.009 76.1864 102.195 76.173C102.381 76.1597 102.541 76.1198 102.648 76.0532C102.754 75.9867 102.821 75.8802 102.861 75.7337C102.9 75.5873 102.914 75.3743 102.914 75.1081C102.914 74.8817 102.887 74.6688 102.847 74.4957C102.807 74.3226 102.714 74.1629 102.594 74.0431C102.474 73.9233 102.315 73.8301 102.115 73.7635C101.915 73.697 101.662 73.6703 101.37 73.6703L101.343 73.6437Z" fill="#004039"/>
<path d="M107.599 76.7056C107.493 76.9186 107.346 77.065 107.147 77.1449C106.947 77.2248 106.668 77.2647 106.321 77.2647H105.31C105.163 77.2647 105.057 77.2248 104.99 77.1582C104.924 77.0916 104.884 76.9452 104.884 76.7455C104.884 76.5458 104.924 76.3861 104.99 76.3062C105.057 76.2263 105.163 76.1864 105.323 76.1864H106.029C106.162 76.1864 106.255 76.1731 106.321 76.1332C106.388 76.0932 106.441 76.0267 106.468 75.9468C106.495 75.8669 106.521 75.7604 106.521 75.6273C106.521 75.4942 106.521 75.3344 106.521 75.1347V72.885C106.521 72.885 106.534 72.8184 106.574 72.7918C106.614 72.7651 106.654 72.7652 106.694 72.7652H107.626C107.693 72.7652 107.733 72.8051 107.733 72.8717V75.5208C107.733 75.7338 107.812 75.9069 107.972 76.0134C108.132 76.1332 108.358 76.1864 108.625 76.1864H108.811C108.957 76.1864 109.064 76.2263 109.13 76.3062C109.197 76.3861 109.237 76.5192 109.237 76.7189C109.237 76.9319 109.197 77.0783 109.13 77.1582C109.064 77.2381 108.957 77.278 108.798 77.278C108.518 77.278 108.265 77.2381 108.052 77.1715C107.839 77.105 107.679 76.9452 107.559 76.7189L107.599 76.7056ZM106.002 71.6735C105.935 71.6735 105.895 71.6336 105.895 71.567V70.6219C105.895 70.5553 105.935 70.5154 106.002 70.5154H106.921C106.987 70.5154 107.027 70.5553 107.027 70.6219V71.567C107.027 71.6336 106.987 71.6735 106.921 71.6735H106.002ZM107.413 71.6735C107.347 71.6735 107.307 71.6336 107.307 71.567V70.6219C107.307 70.5553 107.347 70.5154 107.413 70.5154H108.332C108.398 70.5154 108.438 70.5553 108.438 70.6219V71.567C108.438 71.6336 108.398 71.6735 108.332 71.6735H107.413Z" fill="#004039"/>
<path d="M109.383 76.1732C109.57 76.1732 109.703 76.1332 109.783 76.0534C109.863 75.9735 109.903 75.8137 109.903 75.6007V69.9829C109.903 69.9164 109.943 69.8765 110.009 69.8765H111.008C111.074 69.8765 111.114 69.9164 111.114 69.9829V75.5075C111.114 75.7205 111.194 75.8936 111.354 76.0134C111.513 76.1332 111.74 76.1865 112.006 76.1865H112.192C112.339 76.1865 112.445 76.2264 112.525 76.3063C112.592 76.3861 112.632 76.5193 112.632 76.719C112.632 76.932 112.592 77.0784 112.525 77.1583C112.459 77.2381 112.352 77.2781 112.192 77.2781C111.913 77.2781 111.66 77.2381 111.447 77.1716C111.234 77.105 111.074 76.9453 110.954 76.719C110.848 76.9187 110.715 77.0651 110.515 77.1583C110.329 77.2381 110.062 77.2781 109.743 77.2781H108.824C108.678 77.2781 108.571 77.2381 108.505 77.1716C108.438 77.105 108.398 76.9453 108.398 76.719C108.398 76.5193 108.438 76.3861 108.505 76.3063C108.571 76.2264 108.691 76.1865 108.838 76.1865H109.37L109.383 76.1732Z" fill="#004039"/>
<path d="M112.219 77.2648C112.072 77.2648 111.966 77.2248 111.899 77.1583C111.833 77.0917 111.793 76.9453 111.793 76.7323C111.793 76.5193 111.833 76.3862 111.899 76.293C111.966 76.2131 112.086 76.1732 112.232 76.1732H112.765C112.951 76.1732 113.084 76.1332 113.164 76.0534C113.244 75.9735 113.284 75.8137 113.284 75.6007V69.9829C113.284 69.9164 113.324 69.8765 113.39 69.8765H114.389C114.455 69.8765 114.495 69.9164 114.495 69.9829V75.8936C114.495 76.3595 114.402 76.7056 114.202 76.9319C114.003 77.1583 113.683 77.2648 113.231 77.2648H112.219Z" fill="#004039"/>
<path d="M10.2737 54.4741C10.2737 54.3143 10.3536 54.2345 10.5133 54.2345H12.7631C12.9229 54.2345 13.0027 54.3143 13.0027 54.4741V58.3612C13.0027 58.8538 13.1891 59.2265 13.5485 59.4795C13.9212 59.7324 14.4005 59.8655 15.0262 59.8655H15.2924C15.6119 59.8655 15.8649 59.9587 16.0246 60.1318C16.1844 60.3181 16.2642 60.611 16.2642 61.0503C16.2642 61.5296 16.1843 61.8624 16.0379 62.0354C15.8781 62.2218 15.6385 62.3017 15.2924 62.3017C14.7998 62.3017 14.3739 62.2484 13.9878 62.1552C13.6018 62.0621 13.269 61.8491 13.0027 61.5163V61.7825C13.0027 62.7144 12.8563 63.5264 12.5767 64.232C12.2972 64.9375 11.8845 65.5099 11.352 65.9759C10.8195 66.4418 10.1938 66.7879 9.46162 67.0142C8.72945 67.2405 7.91746 67.3603 7.02553 67.3603C6.13361 67.3603 5.37476 67.2405 4.64259 67.0142C3.92372 66.7879 3.28476 66.4418 2.75227 65.9759C2.21978 65.5099 1.79378 64.9242 1.50091 64.232C1.19473 63.5264 1.04834 62.7143 1.04834 61.7692C1.04834 60.8906 1.18146 60.012 1.46102 59.1334C1.74057 58.2547 2.08664 57.496 2.48601 56.857C2.56588 56.7105 2.68573 56.6972 2.85879 56.8037L4.8423 57.5891C4.92218 57.6158 4.96208 57.669 4.97539 57.7223C4.97539 57.7755 4.97544 57.8421 4.9355 57.9086C4.66925 58.3612 4.42964 58.8937 4.19002 59.5061C3.95039 60.1185 3.83056 60.7841 3.83056 61.5163C3.83056 62.1553 3.93703 62.6877 4.13671 63.1137C4.3364 63.5397 4.60268 63.8858 4.92217 64.1521C5.24167 64.4183 5.58777 64.5914 5.98714 64.6979C6.37319 64.8044 6.75923 64.8576 7.13197 64.8576C8.06383 64.8576 8.80934 64.6047 9.39507 64.1122C9.9675 63.6196 10.2604 62.8076 10.2604 61.7026V54.4474L10.2737 54.4741ZM6.55956 53.0097C6.39981 53.0097 6.31995 52.9298 6.31995 52.7568V50.6401C6.31995 50.4804 6.39981 50.3872 6.55956 50.3872H8.90253C9.06227 50.3872 9.14214 50.4671 9.14214 50.6401V52.7568C9.14214 52.9165 9.06227 53.0097 8.90253 53.0097H6.55956Z" fill="#004039"/>
<path d="M15.3324 62.3152C15.0129 62.3152 14.7865 62.2353 14.6667 62.0622C14.5469 61.9025 14.4803 61.5963 14.4803 61.1437C14.4803 60.6511 14.5336 60.3183 14.6534 60.132C14.7732 59.9456 14.9995 59.8657 15.3324 59.8657H18.2611C18.5806 59.8657 18.8335 59.9589 18.9932 60.132C19.153 60.3183 19.2328 60.6245 19.2328 61.0638C19.2328 61.5697 19.153 61.9025 19.0065 62.0622C18.8468 62.222 18.6072 62.3019 18.2611 62.3019H15.3324V62.3152Z" fill="#004039"/>
<path d="M18.2609 62.3152C17.9414 62.3152 17.7151 62.2353 17.5953 62.0622C17.4755 61.9025 17.4089 61.5963 17.4089 61.1437C17.4089 60.6511 17.4622 60.3183 17.582 60.132C17.7018 59.9456 17.9281 59.8657 18.2609 59.8657H21.1896C21.5091 59.8657 21.7621 59.9589 21.9218 60.132C22.0816 60.3183 22.1614 60.6245 22.1614 61.0638C22.1614 61.5697 22.0816 61.9025 21.9351 62.0622C21.7754 62.222 21.5357 62.3019 21.1896 62.3019H18.2609V62.3152Z" fill="#004039"/>
<path d="M21.203 62.3152C20.8835 62.3152 20.6572 62.2353 20.5374 62.0622C20.4176 61.9025 20.3511 61.5963 20.3511 61.1437C20.3511 60.6511 20.4042 60.3183 20.5241 60.132C20.6439 59.9456 20.8702 59.8657 21.203 59.8657H24.1317C24.4512 59.8657 24.7041 59.9589 24.8639 60.132C25.0236 60.3183 25.1035 60.6245 25.1035 61.0638C25.1035 61.5697 25.0236 61.9025 24.8772 62.0622C24.7174 62.222 24.4778 62.3019 24.1317 62.3019H21.203V62.3152Z" fill="#004039"/>
<path d="M24.1318 62.3152C23.8123 62.3152 23.586 62.2353 23.4662 62.0622C23.3464 61.9025 23.2798 61.5963 23.2798 61.1437C23.2798 60.6511 23.333 60.3183 23.4529 60.132C23.5727 59.9456 23.799 59.8657 24.1318 59.8657H27.0605C27.38 59.8657 27.6329 59.9589 27.7927 60.132C27.9524 60.3183 28.0323 60.6245 28.0323 61.0638C28.0323 61.5697 27.9524 61.9025 27.806 62.0622C27.6462 62.222 27.4066 62.3019 27.0605 62.3019H24.1318V62.3152Z" fill="#004039"/>
<path d="M27.0605 62.3152C26.741 62.3152 26.5147 62.2353 26.3949 62.0622C26.2751 61.9025 26.2085 61.5963 26.2085 61.1437C26.2085 60.6511 26.2618 60.3183 26.3816 60.132C26.5014 59.9456 26.7277 59.8657 27.0605 59.8657H29.9892C30.3087 59.8657 30.5616 59.9589 30.7214 60.132C30.8811 60.3183 30.961 60.6245 30.961 61.0638C30.961 61.5697 30.8811 61.9025 30.7347 62.0622C30.575 62.222 30.3353 62.3019 29.9892 62.3019H27.0605V62.3152Z" fill="#004039"/>
<path d="M29.9892 62.3152C29.6697 62.3152 29.4434 62.2353 29.3236 62.0622C29.2038 61.9025 29.1372 61.5963 29.1372 61.1437C29.1372 60.6511 29.1905 60.3183 29.3103 60.132C29.4301 59.9456 29.6564 59.8657 29.9892 59.8657H32.9179C33.2374 59.8657 33.4903 59.9589 33.6501 60.132C33.8098 60.3183 33.8897 60.6245 33.8897 61.0638C33.8897 61.5697 33.8098 61.9025 33.6634 62.0622C33.5037 62.222 33.264 62.3019 32.9179 62.3019H29.9892V62.3152Z" fill="#004039"/>
<path d="M32.9178 62.3152C32.5983 62.3152 32.372 62.2353 32.2522 62.0622C32.1324 61.9025 32.0658 61.5963 32.0658 61.1437C32.0658 60.6511 32.1191 60.3183 32.2389 60.132C32.3587 59.9456 32.585 59.8657 32.9178 59.8657H35.8464C36.1659 59.8657 36.4189 59.9589 36.5787 60.132C36.7384 60.3183 36.8183 60.6245 36.8183 61.0638C36.8183 61.5697 36.7384 61.9025 36.5919 62.0622C36.4322 62.222 36.1926 62.3019 35.8464 62.3019H32.9178V62.3152Z" fill="#004039"/>
<path d="M35.8466 62.3152C35.5271 62.3152 35.3007 62.2353 35.1809 62.0622C35.0611 61.9025 34.9946 61.5963 34.9946 61.1437C34.9946 60.6511 35.0478 60.3183 35.1676 60.132C35.2874 59.9456 35.5137 59.8657 35.8466 59.8657H38.7753C39.0948 59.8657 39.3477 59.9589 39.5074 60.132C39.6672 60.3183 39.747 60.6245 39.747 61.0638C39.747 61.5697 39.6672 61.9025 39.5208 62.0622C39.361 62.222 39.1214 62.3019 38.7753 62.3019H35.8466V62.3152Z" fill="#004039"/>
<path d="M38.7885 62.3152C38.469 62.3152 38.2427 62.2353 38.1229 62.0622C38.0031 61.9025 37.9365 61.5963 37.9365 61.1437C37.9365 60.6511 37.9898 60.3183 38.1096 60.132C38.2294 59.9456 38.4557 59.8657 38.7885 59.8657H41.7172C42.0367 59.8657 42.2897 59.9589 42.4494 60.132C42.6091 60.3183 42.689 60.6245 42.689 61.0638C42.689 61.5697 42.6092 61.9025 42.4627 62.0622C42.303 62.222 42.0634 62.3019 41.7172 62.3019H38.7885V62.3152Z" fill="#004039"/>
<path d="M41.7174 62.3152C41.3979 62.3152 41.1716 62.2353 41.0517 62.0622C40.9319 61.9025 40.8654 61.5963 40.8654 61.1437C40.8654 60.6511 40.9186 60.3183 41.0384 60.132C41.1582 59.9456 41.3846 59.8657 41.7174 59.8657H44.6461C44.9656 59.8657 45.2185 59.9589 45.3782 60.132C45.538 60.3183 45.6178 60.6245 45.6178 61.0638C45.6178 61.5697 45.538 61.9025 45.3916 62.0622C45.2318 62.222 44.9922 62.3019 44.6461 62.3019H41.7174V62.3152Z" fill="#004039"/>
<path d="M44.6459 62.3152C44.3265 62.3152 44.1001 62.2353 43.9803 62.0622C43.8605 61.9025 43.7939 61.5963 43.7939 61.1437C43.7939 60.6511 43.8472 60.3183 43.967 60.132C44.0868 59.9456 44.3131 59.8657 44.6459 59.8657H47.5746C47.8941 59.8657 48.1471 59.9589 48.3068 60.132C48.4666 60.3183 48.5464 60.6245 48.5464 61.0638C48.5464 61.5697 48.4665 61.9025 48.3201 62.0622C48.1603 62.222 47.9207 62.3019 47.5746 62.3019H44.6459V62.3152Z" fill="#004039"/>
<path d="M47.5746 62.3152C47.2551 62.3152 47.0288 62.2353 46.909 62.0622C46.7892 61.9025 46.7227 61.5963 46.7227 61.1437C46.7227 60.6511 46.7759 60.3183 46.8957 60.132C47.0155 59.9456 47.2418 59.8657 47.5746 59.8657H50.5033C50.8228 59.8657 51.0757 59.9589 51.2355 60.132C51.3952 60.3183 51.4751 60.6245 51.4751 61.0638C51.4751 61.5697 51.3952 61.9025 51.2488 62.0622C51.089 62.222 50.8494 62.3019 50.5033 62.3019H47.5746V62.3152Z" fill="#004039"/>
<path d="M50.5032 62.3152C50.1838 62.3152 49.9574 62.2353 49.8376 62.0622C49.7178 61.9025 49.6512 61.5963 49.6512 61.1437C49.6512 60.6511 49.7045 60.3183 49.8243 60.132C49.9441 59.9456 50.1704 59.8657 50.5032 59.8657H53.432C53.7515 59.8657 54.0044 59.9589 54.1641 60.132C54.3239 60.3183 54.4037 60.6245 54.4037 61.0638C54.4037 61.5697 54.3239 61.9025 54.1774 62.0622C54.0177 62.222 53.7781 62.3019 53.432 62.3019H50.5032V62.3152Z" fill="#004039"/>
<path d="M53.4454 62.3152C53.1259 62.3152 52.8996 62.2353 52.7798 62.0622C52.66 61.9025 52.5934 61.5963 52.5934 61.1437C52.5934 60.6511 52.6466 60.3183 52.7664 60.132C52.8863 59.9456 53.1126 59.8657 53.4454 59.8657H56.3741C56.6936 59.8657 56.9465 59.9589 57.1063 60.132C57.266 60.3183 57.3459 60.6245 57.3459 61.0638C57.3459 61.5697 57.266 61.9025 57.1196 62.0622C56.9598 62.222 56.7202 62.3019 56.3741 62.3019H53.4454V62.3152Z" fill="#004039"/>
<path d="M56.3742 62.3152C56.0547 62.3152 55.8284 62.2353 55.7086 62.0622C55.5888 61.9025 55.5222 61.5963 55.5222 61.1437C55.5222 60.6511 55.5755 60.3183 55.6953 60.132C55.8151 59.9456 56.0414 59.8657 56.3742 59.8657H59.3029C59.6223 59.8657 59.8753 59.9589 60.0351 60.132C60.1948 60.3183 60.2747 60.6245 60.2747 61.0638C60.2747 61.5697 60.1948 61.9025 60.0483 62.0622C59.8886 62.222 59.649 62.3019 59.3029 62.3019H56.3742V62.3152Z" fill="#004039"/>
<path d="M59.3027 62.3152C58.9832 62.3152 58.7569 62.2353 58.6371 62.0622C58.5173 61.9025 58.4508 61.5963 58.4508 61.1437C58.4508 60.6511 58.5041 60.3183 58.6239 60.132C58.7437 59.9456 58.9699 59.8657 59.3027 59.8657H62.2314C62.5509 59.8657 62.8039 59.9589 62.9636 60.132C63.1233 60.3183 63.2033 60.6245 63.2033 61.0638C63.2033 61.5697 63.1234 61.9025 62.9769 62.0622C62.8172 62.222 62.5776 62.3019 62.2314 62.3019H59.3027V62.3152Z" fill="#004039"/>
<path d="M62.2314 62.3152C61.9119 62.3152 61.6856 62.2353 61.5658 62.0622C61.446 61.9025 61.3794 61.5963 61.3794 61.1437C61.3794 60.6511 61.4327 60.3183 61.5525 60.132C61.6723 59.9456 61.8986 59.8657 62.2314 59.8657H65.1601C65.4796 59.8657 65.7325 59.9589 65.8923 60.132C66.052 60.3183 66.1319 60.6245 66.1319 61.0638C66.1319 61.5697 66.052 61.9025 65.9056 62.0622C65.7459 62.222 65.5062 62.3019 65.1601 62.3019H62.2314V62.3152Z" fill="#004039"/>
<path d="M65.1601 62.3152C64.8406 62.3152 64.6143 62.2353 64.4945 62.0622C64.3747 61.9025 64.3081 61.5963 64.3081 61.1437C64.3081 60.6511 64.3614 60.3183 64.4812 60.132C64.601 59.9456 64.8273 59.8657 65.1601 59.8657H68.0888C68.4083 59.8657 68.6612 59.9589 68.821 60.132C68.9807 60.3183 69.0606 60.6245 69.0606 61.0638C69.0606 61.5697 68.9807 61.9025 68.8343 62.0622C68.6746 62.222 68.4349 62.3019 68.0888 62.3019H65.1601V62.3152Z" fill="#004039"/>
<path d="M68.0888 62.3152C67.7693 62.3152 67.543 62.2353 67.4232 62.0622C67.3034 61.9025 67.2368 61.5963 67.2368 61.1437C67.2368 60.6511 67.2901 60.3183 67.4099 60.132C67.5297 59.9456 67.756 59.8657 68.0888 59.8657H71.0175C71.337 59.8657 71.5899 59.9589 71.7497 60.132C71.9094 60.3183 71.9893 60.6245 71.9893 61.0638C71.9893 61.5697 71.9095 61.9025 71.763 62.0622C71.6033 62.222 71.3637 62.3019 71.0175 62.3019H68.0888V62.3152Z" fill="#004039"/>
<path d="M71.0309 62.3152C70.7114 62.3152 70.4851 62.2353 70.3653 62.0622C70.2455 61.9025 70.179 61.5963 70.179 61.1437C70.179 60.6511 70.2322 60.3183 70.352 60.132C70.4718 59.9456 70.6981 59.8657 71.0309 59.8657H73.9596C74.2791 59.8657 74.532 59.9589 74.6918 60.132C74.8515 60.3183 74.9314 60.6245 74.9314 61.0638C74.9314 61.5697 74.8515 61.9025 74.7051 62.0622C74.5453 62.222 74.3057 62.3019 73.9596 62.3019H71.0309V62.3152Z" fill="#004039"/>
<path d="M73.9597 62.3152C73.6402 62.3152 73.4139 62.2353 73.2941 62.0622C73.1742 61.9025 73.1077 61.5963 73.1077 61.1437C73.1077 60.6511 73.1609 60.3183 73.2807 60.132C73.4005 59.9456 73.6269 59.8657 73.9597 59.8657H76.8884C77.2079 59.8657 77.4608 59.9589 77.6205 60.132C77.7803 60.3183 77.8602 60.6245 77.8602 61.0638C77.8602 61.5697 77.7803 61.9025 77.6339 62.0622C77.4741 62.222 77.2345 62.3019 76.8884 62.3019H73.9597V62.3152Z" fill="#004039"/>
<path d="M76.8883 62.3152C76.5688 62.3152 76.3425 62.2353 76.2226 62.0622C76.1028 61.9025 76.0363 61.5963 76.0363 61.1437C76.0363 60.6511 76.0895 60.3183 76.2093 60.132C76.3291 59.9456 76.5555 59.8657 76.8883 59.8657H79.817C80.1365 59.8657 80.3894 59.9589 80.5491 60.132C80.7089 60.3183 80.7887 60.6245 80.7887 61.0638C80.7887 61.5697 80.7089 61.9025 80.5625 62.0622C80.4027 62.222 80.1631 62.3019 79.817 62.3019H76.8883V62.3152Z" fill="#004039"/>
<path d="M79.8168 62.3152C79.4974 62.3152 79.271 62.2353 79.1512 62.0622C79.0314 61.9025 78.9648 61.5963 78.9648 61.1437C78.9648 60.6511 79.0181 60.3183 79.1379 60.132C79.2577 59.9456 79.484 59.8657 79.8168 59.8657H82.7456C83.0651 59.8657 83.318 59.9589 83.4777 60.132C83.6375 60.3183 83.7173 60.6245 83.7173 61.0638C83.7173 61.5697 83.6375 61.9025 83.491 62.0622C83.3313 62.222 83.0917 62.3019 82.7456 62.3019H79.8168V62.3152Z" fill="#004039"/>
<path d="M82.7457 62.3152C82.4262 62.3152 82.1999 62.2353 82.0801 62.0622C81.9603 61.9025 81.8937 61.5963 81.8937 61.1437C81.8937 60.6511 81.9469 60.3183 82.0667 60.132C82.1866 59.9456 82.4129 59.8657 82.7457 59.8657H85.6743C85.9938 59.8657 86.2468 59.9589 86.4066 60.132C86.5663 60.3183 86.6462 60.6245 86.6462 61.0638C86.6462 61.5697 86.5662 61.9025 86.4198 62.0622C86.2601 62.222 86.0204 62.3019 85.6743 62.3019H82.7457V62.3152Z" fill="#004039"/>
<path d="M85.6744 62.3152C85.3549 62.3152 85.1286 62.2353 85.0088 62.0622C84.889 61.9025 84.8225 61.5963 84.8225 61.1437C84.8225 60.6511 84.8758 60.3183 84.9956 60.132C85.1154 59.9456 85.3416 59.8657 85.6744 59.8657H88.6031C88.9226 59.8657 89.1756 59.9589 89.3353 60.132C89.4951 60.3183 89.575 60.6245 89.575 61.0638C89.575 61.5697 89.4951 61.9025 89.3486 62.0622C89.1889 62.222 88.9493 62.3019 88.6031 62.3019H85.6744V62.3152Z" fill="#004039"/>
<path d="M88.6164 62.3152C88.2969 62.3152 88.0706 62.2353 87.9508 62.0622C87.831 61.9025 87.7644 61.5963 87.7644 61.1437C87.7644 60.6511 87.8177 60.3183 87.9375 60.132C88.0573 59.9456 88.2836 59.8657 88.6164 59.8657H91.5451C91.8646 59.8657 92.1175 59.9589 92.2773 60.132C92.437 60.3183 92.5169 60.6245 92.5169 61.0638C92.5169 61.5697 92.437 61.9025 92.2906 62.0622C92.1309 62.222 91.8912 62.3019 91.5451 62.3019H88.6164V62.3152Z" fill="#004039"/>
<path d="M96.5504 52.0508C97.4157 52.0641 98.2011 52.1306 98.92 52.2371C99.6388 52.3436 100.238 52.5566 100.744 52.8761C101.25 53.1956 101.636 53.6615 101.902 54.2606C102.181 54.8596 102.315 55.6584 102.315 56.6568V58.1211C102.315 58.9332 102.248 59.6121 102.102 60.1446C101.955 60.6771 101.742 61.1031 101.449 61.4359C101.156 61.7687 100.784 61.995 100.331 62.1148C99.8785 62.2346 99.346 62.3145 98.7203 62.3145H91.545C91.2255 62.3145 90.9726 62.2213 90.8129 62.035C90.6531 61.8486 90.5732 61.5158 90.5732 61.0365C90.5732 60.5573 90.6531 60.2511 90.7995 60.1047C90.946 59.9582 91.1989 59.8784 91.545 59.8784H97.6021C98.0414 59.8784 98.3875 59.8517 98.6537 59.7852C98.92 59.7186 99.1197 59.6121 99.2528 59.4657C99.3859 59.3192 99.4791 59.1196 99.519 58.8799C99.559 58.6403 99.5856 58.3341 99.5856 57.9614V56.6435C99.5856 55.9113 99.3859 55.3788 98.9865 55.0327C98.5872 54.6866 97.9615 54.5135 97.0962 54.5135H93.1691C93.0093 54.5135 92.9295 54.4336 92.9295 54.2606V52.5566C92.9295 52.4368 92.9827 52.3303 93.0759 52.2371C93.1691 52.1439 93.249 52.0507 93.3156 51.9709L98.5872 45.7674C98.6804 45.6476 98.7868 45.6342 98.9067 45.6875L100.491 47.0054C100.624 47.0986 100.651 47.2184 100.584 47.3515L96.5638 52.0641L96.5504 52.0508Z" fill="#004039"/>
<path d="M109.636 62.3151C108.864 62.3151 108.185 62.2352 107.6 62.0621C107.001 61.8891 106.508 61.6095 106.095 61.2101C105.683 60.8108 105.376 60.2916 105.15 59.6526C104.937 59.0136 104.817 58.2415 104.817 57.3097C104.817 56.3112 104.951 55.4593 105.217 54.7537C105.483 54.0482 105.856 53.4624 106.322 53.0231C106.788 52.5705 107.32 52.251 107.932 52.0513C108.532 51.8516 109.171 51.7451 109.836 51.7451C110.568 51.7451 111.247 51.8383 111.86 52.038C112.472 52.2377 113.004 52.5439 113.444 52.9698C113.883 53.3958 114.229 53.9416 114.469 54.6339C114.708 55.3128 114.842 56.1515 114.842 57.1499V62.8609C114.842 64.3918 114.456 65.51 113.683 66.2022C112.911 66.9078 111.793 67.2539 110.329 67.2539H107.027C106.868 67.2539 106.788 67.174 106.788 67.0143V65.0574C106.788 64.8976 106.868 64.8178 107.027 64.8178H109.889C110.209 64.8178 110.515 64.7912 110.795 64.7379C111.074 64.6847 111.314 64.5648 111.5 64.3785C111.7 64.2054 111.846 63.9525 111.953 63.6197C112.059 63.3002 112.113 62.8609 112.113 62.3284H109.65L109.636 62.3151ZM109.863 54.1813C109.117 54.1813 108.532 54.4608 108.132 55.0066C107.72 55.5524 107.52 56.2979 107.52 57.2165C107.52 58.2415 107.733 58.9338 108.145 59.3065C108.558 59.6792 109.157 59.8656 109.943 59.8656H112.113V57.0967C112.113 56.1382 111.939 55.4193 111.58 54.9267C111.221 54.4342 110.648 54.1813 109.876 54.1813H109.863Z" fill="#004039"/>
</svg>
