<svg width="159" height="54" viewBox="0 0 159 54" fill="none" xmlns="http://www.w3.org/2000/svg">
<path d="M139.202 23.8387C139.385 24.2465 139.446 24.6334 139.884 24.6334C139.976 24.121 140.067 23.5564 140.067 22.9499C140.067 19.9699 137.685 17.5335 134.742 17.5335C131.8 17.5335 129.417 19.9699 129.417 22.9499C129.417 23.5564 129.509 24.121 129.601 24.6334C130.039 24.6334 130.1 24.257 130.283 23.8387C131.118 22.0298 132.859 20.8586 134.742 20.8586C136.626 20.8586 138.367 22.0298 139.202 23.8387Z" fill="#01355F"/>
<path d="M146.378 23.6741C146.502 24.3488 146.596 24.6334 147.074 24.6334C147.136 24.0852 147.167 23.5476 147.167 22.9678C147.167 16.063 141.599 10.4337 134.743 10.4337C127.886 10.4337 122.318 16.063 122.318 22.9678C122.318 23.5476 122.349 24.0852 122.411 24.6334C122.889 24.6334 122.983 24.3488 123.107 23.6741C124.084 18.0448 128.987 13.7965 134.743 13.7965C140.498 13.7965 145.401 18.0448 146.378 23.6741Z" fill="#01355F"/>
<path d="M134.733 24.7847C134.569 24.7847 134.041 24.7242 133.85 24.6334C133.295 24.9662 132.967 25.7024 132.967 26.2873C132.967 27.5076 133.914 28.1833 134.742 28.1833C135.571 28.1833 136.517 27.5076 136.517 26.2873C136.517 25.7024 136.18 24.9763 135.634 24.6334C135.443 24.7242 134.915 24.7847 134.751 24.7847H134.733Z" fill="#01355F"/>
<path d="M133.408 53.0222C139.294 53.0222 145.978 51.0318 150.717 46.7384C150.591 46.5821 150.465 46.4883 150.265 46.4883C150.108 46.4883 149.845 46.5821 149.561 46.7696C145.21 49.4895 140.345 50.813 135.521 50.813C127.786 50.813 120.198 47.3741 115.048 40.6734C111.465 36.0256 109.71 30.5337 109.71 25.0627C109.71 18.3308 112.368 11.6613 117.644 6.86768C117.959 6.58631 118.159 6.32578 118.159 6.04441C118.159 5.91936 118.128 5.79432 118.033 5.70053C117.581 5.9819 117.077 6.33621 116.593 6.74263C110.256 12.172 106.935 18.9664 106.935 27.0636C106.935 32.7222 108.795 38.1828 112.305 42.7367C117.55 49.5312 125.453 53.0327 133.419 53.0327L133.408 53.0222Z" fill="#01355F"/>
<path d="M97.3385 31.6398C97.019 31.557 96.6166 31.5215 96.1196 31.5215V41.473C96.1196 41.7807 96.2853 41.97 96.6048 42.041C96.9243 42.112 97.3266 42.1593 97.8236 42.1593V32.2078C97.8236 31.9001 97.658 31.7108 97.3385 31.6398Z" fill="#01355F"/>
<path d="M93.918 34.6691C93.5512 34.3141 93.1134 34.0656 92.5927 33.8881C92.0839 33.7224 91.5041 33.6396 90.8769 33.6396C90.2498 33.6396 89.67 33.7343 89.1493 33.8999C88.6287 34.0774 88.179 34.3496 87.8004 34.7046C87.4217 35.0596 87.1377 35.5092 86.9366 36.0654C86.7354 36.6215 86.6289 37.2605 86.6289 38.006C86.6289 38.7515 86.7354 39.3668 86.9366 39.9111C87.1377 40.4436 87.4336 40.8933 87.8122 41.2601C88.1909 41.6269 88.6405 41.8872 89.1612 42.0647C89.6818 42.2304 90.2616 42.3251 90.8888 42.3251C91.1964 42.3251 91.4449 42.3014 91.6343 42.2659C91.8236 42.2304 91.9774 42.1476 92.0958 42.0292C92.2023 41.9109 92.2851 41.7452 92.3206 41.5441C92.3679 41.3311 92.3797 41.0708 92.3797 40.7276H90.8888C90.025 40.7276 89.386 40.4909 88.9837 40.0176C88.5813 39.5443 88.3683 38.8698 88.3683 37.9942C88.3683 37.1185 88.5695 36.4559 88.9837 35.9707C89.386 35.4974 90.025 35.2607 90.8888 35.2607C91.7526 35.2607 92.3916 35.4856 92.8057 35.9234C93.2199 36.373 93.4211 37.0238 93.4211 37.8995V41.4849C93.4211 41.7926 93.5749 41.9819 93.8826 42.0529C94.1902 42.1239 94.5807 42.1712 95.0659 42.1712V37.9942C95.0659 37.2369 94.9712 36.586 94.77 36.0299C94.5689 35.4856 94.2848 35.0359 93.918 34.6809V34.6691Z" fill="#01355F"/>
<path d="M83.4817 33.1189C83.4817 32.8113 83.316 32.6219 82.9965 32.5509C82.6771 32.4799 82.2747 32.4326 81.7896 32.4326V39.2366C81.7896 39.6034 81.8606 39.9584 81.9908 40.3016C82.1328 40.6447 82.3221 40.9642 82.5824 41.2364C82.8427 41.5085 83.1622 41.7334 83.529 41.899C83.9077 42.0647 84.3336 42.1475 84.807 42.1475H85.3395C85.4696 42.1475 85.588 42.1239 85.6827 42.0765C85.7773 42.0292 85.8602 41.9464 85.9075 41.8399C85.9667 41.7215 86.0021 41.5559 86.0258 41.3429C86.0495 41.1299 86.0613 40.8577 86.0613 40.5264H84.9016C84.4402 40.5264 84.0852 40.4081 83.8367 40.1714C83.5764 39.9347 83.458 39.6152 83.458 39.2011V35.3908H85.4105C85.5406 35.3908 85.659 35.3672 85.7537 35.3317C85.8483 35.2962 85.9312 35.2134 85.9785 35.095C86.0377 34.9767 86.0731 34.811 86.0968 34.6099C86.1205 34.3969 86.1323 34.1366 86.1323 33.7934H83.4462V33.1071L83.4817 33.1189Z" fill="#01355F"/>
<path d="M79.9439 33.829C79.6244 33.758 79.2221 33.7107 78.7251 33.7107V41.4613C78.7251 41.7689 78.8907 41.9583 79.2102 42.0293C79.5297 42.1003 79.9321 42.1476 80.4291 42.1476V34.397C80.4291 34.0893 80.2634 33.9 79.9439 33.829Z" fill="#01355F"/>
<path d="M76.6546 34.7283C76.2877 34.3614 75.8381 34.0893 75.3056 33.9118C74.7849 33.7343 74.2051 33.6515 73.5779 33.6515C72.9508 33.6515 72.371 33.7343 71.8267 33.9C71.2942 34.0656 70.8327 34.326 70.4541 34.6691C70.0754 35.0123 69.7796 35.4501 69.5666 35.9944C69.3536 36.5387 69.2471 37.1777 69.2471 37.9114V45.0349C69.2471 45.3425 69.4009 45.5318 69.7086 45.6028C70.0162 45.6738 70.4067 45.7212 70.8919 45.7212V37.8877C70.8919 37.0121 71.1285 36.3613 71.59 35.8998C72.0515 35.4501 72.7141 35.2253 73.5779 35.2253C74.4417 35.2253 75.0808 35.4738 75.4831 35.9589C75.8854 36.4441 76.0865 37.1304 76.0865 37.9942C76.0865 38.503 76.0274 38.929 75.8854 39.2722C75.7552 39.6153 75.5659 39.8993 75.341 40.1123C75.1044 40.3253 74.8323 40.4791 74.5009 40.5738C74.1696 40.6685 73.8264 40.7158 73.4478 40.7158H72.0752C72.0752 41.0471 72.0988 41.3193 72.1343 41.5323C72.1698 41.7453 72.2527 41.8991 72.3592 42.0174C72.4775 42.1358 72.6195 42.2068 72.8207 42.2541C73.01 42.3014 73.2584 42.3132 73.5661 42.3132C74.1932 42.3132 74.7731 42.2304 75.2937 42.0648C75.8144 41.8991 76.2641 41.6388 76.6427 41.2956C77.0095 40.9525 77.3054 40.5146 77.5184 39.9703C77.7313 39.4378 77.826 38.787 77.826 38.0415C77.826 37.2961 77.7195 36.6571 77.5184 36.1009C77.3054 35.5448 77.0214 35.0951 76.6546 34.7283Z" fill="#01355F"/>
<path d="M66.8805 34.6691C66.5137 34.3141 66.0759 34.0656 65.5552 33.8881C65.0464 33.7224 64.4666 33.6396 63.8394 33.6396C63.2122 33.6396 62.6324 33.7343 62.1118 33.8999C61.5911 34.0774 61.1415 34.3496 60.7628 34.7046C60.3842 35.0596 60.1001 35.5092 59.899 36.0654C59.6978 36.6215 59.5913 37.2605 59.5913 38.006C59.5913 38.7515 59.6978 39.3668 59.899 39.9111C60.1001 40.4436 60.396 40.8933 60.7746 41.2601C61.1533 41.6269 61.6029 41.8872 62.1236 42.0647C62.6442 42.2304 63.2241 42.3251 63.8512 42.3251C64.1589 42.3251 64.4074 42.3014 64.5967 42.2659C64.7861 42.2304 64.9398 42.1476 65.0582 42.0292C65.1647 41.9109 65.2475 41.7452 65.283 41.5441C65.3185 41.3311 65.3422 41.0708 65.3422 40.7276H63.8512C62.9874 40.7276 62.3485 40.4909 61.9461 40.0176C61.5438 39.5443 61.3308 38.8698 61.3308 37.9942C61.3308 37.1185 61.532 36.4559 61.9461 35.9707C62.3485 35.4974 62.9874 35.2607 63.8512 35.2607C64.7151 35.2607 65.354 35.4856 65.7682 35.9234C66.1823 36.373 66.3835 37.0238 66.3835 37.8995V41.4849C66.3835 41.7926 66.5373 41.9819 66.845 42.0529C67.1526 42.1239 67.5431 42.1712 68.0283 42.1712V37.9942C68.0283 37.2369 67.9336 36.586 67.7324 36.0299C67.5313 35.4856 67.2473 35.0359 66.8923 34.6809L66.8805 34.6691Z" fill="#01355F"/>
<path d="M58.9518 40.0057C58.8927 39.911 58.8335 39.8164 58.7743 39.7335C58.7151 39.6507 58.656 39.5915 58.6087 39.5324C58.1354 39.911 57.6265 40.195 57.0703 40.408C56.5142 40.621 55.8871 40.7157 55.1889 40.7157C54.6919 40.7157 54.2305 40.6447 53.8045 40.4908C53.3785 40.337 53.0117 40.1122 52.704 39.8282C52.3964 39.5442 52.1478 39.1892 51.9703 38.7632C51.7928 38.3491 51.6982 37.8639 51.6982 37.3433C51.6982 36.8818 51.7692 36.4439 51.923 36.0298C52.0768 35.6156 52.2898 35.2606 52.5738 34.953C52.8578 34.6453 53.2128 34.3968 53.627 34.2193C54.0411 34.0418 54.5145 33.959 55.0469 33.959C55.4848 33.959 55.8397 33.9945 56.1237 34.0773C56.4077 34.1483 56.6799 34.2667 56.9639 34.4205C57.0585 34.4678 57.165 34.5152 57.2952 34.5507C57.4253 34.5862 57.5318 34.6098 57.6028 34.6098C57.7685 34.6098 57.9105 34.5743 58.017 34.4915C58.1354 34.4087 58.23 34.314 58.3129 34.1838C58.3957 34.0655 58.4667 33.9235 58.514 33.7815C58.5732 33.6395 58.6205 33.4975 58.656 33.3674C58.2537 33.1307 57.7685 32.9059 57.165 32.6929C56.5734 32.4799 55.8516 32.3734 55.0232 32.3734C54.2778 32.3734 53.5915 32.4917 52.9762 32.7402C52.349 32.9887 51.8165 33.32 51.3669 33.7697C50.9172 34.2075 50.5622 34.74 50.3137 35.3553C50.0652 35.9706 49.9351 36.6451 49.9351 37.3788C49.9351 38.1124 50.0415 38.7869 50.2663 39.4022C50.4912 40.0057 50.8225 40.5264 51.2604 40.9642C51.6982 41.402 52.2425 41.7333 52.8815 41.9818C53.5205 42.2185 54.2541 42.3368 55.0824 42.3368C55.9107 42.3368 56.6207 42.2303 57.2834 42.0291C57.946 41.8161 58.4785 41.5085 58.9045 41.0943C58.9519 41.047 59.011 40.9642 59.0584 40.8695C59.1057 40.7748 59.1294 40.6683 59.1294 40.5618C59.1294 40.5027 59.1175 40.4198 59.0701 40.3252C59.0346 40.2305 58.9873 40.124 58.9281 40.0294L58.9518 40.0057Z" fill="#01355F"/>
<path d="M43.8058 34.6572C43.4508 34.314 43.0248 34.0537 42.5278 33.8881C42.0308 33.7224 41.4865 33.6396 40.8948 33.6396C40.6582 33.6396 40.4215 33.6632 40.173 33.7106C39.9245 33.7579 39.6761 33.8171 39.4394 33.8999C39.1909 33.9827 38.966 34.0774 38.7412 34.1957C38.5164 34.3141 38.3271 34.4442 38.1614 34.5862V32.1959C38.1614 31.8883 38.0076 31.6989 37.6999 31.628C37.3922 31.5451 37.0018 31.5096 36.5166 31.5096V41.4612C36.5166 41.7689 36.6704 41.9582 36.9781 42.0292C37.2858 42.1002 37.6763 42.1475 38.1614 42.1475V37.7575C38.1614 36.9291 38.4099 36.302 38.9069 35.8642C39.4039 35.4382 40.0784 35.2252 40.9067 35.2252C41.6877 35.2252 42.2793 35.45 42.6816 35.8997C43.084 36.3494 43.2851 37.012 43.2851 37.8876V41.473C43.2851 41.7807 43.439 41.97 43.7466 42.041C44.0543 42.112 44.4448 42.1593 44.9299 42.1593V37.9231C44.9299 37.1895 44.8353 36.5387 44.6341 36.0062C44.433 35.4619 44.1608 35.0241 43.8058 34.6809V34.6572Z" fill="#01355F"/>
<path d="M33.9961 34.6691C33.6293 34.3141 33.1915 34.0656 32.6709 33.8881C32.162 33.7224 31.5823 33.6396 30.9551 33.6396C30.328 33.6396 29.7481 33.7343 29.2275 33.8999C28.7068 34.0774 28.2571 34.3496 27.8785 34.7046C27.4998 35.0596 27.2159 35.5092 27.0147 36.0654C26.8135 36.6215 26.707 37.2605 26.707 38.006C26.707 38.7515 26.8135 39.3668 27.0147 39.9111C27.2159 40.4436 27.5117 40.8933 27.8903 41.2601C28.269 41.6269 28.7187 41.8872 29.2393 42.0647C29.76 42.2304 30.3397 42.3251 30.9669 42.3251C31.2746 42.3251 31.5231 42.3014 31.7124 42.2659C31.9017 42.2304 32.0556 42.1476 32.1739 42.0292C32.2804 41.9109 32.3632 41.7452 32.3987 41.5441C32.4342 41.3311 32.4579 41.0708 32.4579 40.7276H30.9669C30.1031 40.7276 29.4641 40.4909 29.0618 40.0176C28.6595 39.5443 28.4465 38.8698 28.4465 37.9942C28.4465 37.1185 28.6476 36.4559 29.0618 35.9707C29.4641 35.4974 30.1031 35.2607 30.9669 35.2607C31.8307 35.2607 32.4698 35.4856 32.8839 35.9234C33.2981 36.373 33.4992 37.0238 33.4992 37.8995V41.4849C33.4992 41.7926 33.653 41.9819 33.9607 42.0529C34.2683 42.1239 34.6588 42.1712 35.144 42.1712V37.9942C35.144 37.2369 35.0493 36.586 34.8482 36.0299C34.647 35.4856 34.363 35.0359 33.9961 34.6809V34.6691Z" fill="#01355F"/>
<path d="M24.6123 34.7282C24.2455 34.3614 23.7958 34.0892 23.2752 33.9117C22.7545 33.7342 22.1748 33.6514 21.5476 33.6514C21.3109 33.6514 21.0743 33.6751 20.8258 33.7106C20.5773 33.7461 20.3288 33.8052 20.0921 33.8881C19.8436 33.9591 19.6188 34.0537 19.4177 34.172C19.2047 34.2904 19.0272 34.4324 18.8733 34.5862V32.1959C18.8733 31.8883 18.7195 31.6989 18.4118 31.628C18.1042 31.5451 17.7137 31.5096 17.2285 31.5096V41.4612C17.2285 41.7689 17.3824 41.9582 17.69 42.0292C17.9977 42.1002 18.3882 42.1475 18.8733 42.1475V37.7575C18.8733 36.9291 19.11 36.302 19.5951 35.8642C20.0684 35.4264 20.7311 35.2134 21.5594 35.2134C22.3878 35.2134 23.0622 35.4618 23.4645 35.947C23.8669 36.4322 24.068 37.1185 24.068 37.9823C24.068 38.4911 23.997 38.9171 23.8668 39.2603C23.7367 39.6034 23.5474 39.8874 23.3226 40.1004C23.0859 40.3134 22.8137 40.4672 22.4824 40.5619C22.1511 40.6565 21.8079 40.7039 21.4292 40.7039H20.0566C20.0566 41.0352 20.0803 41.3074 20.1158 41.5204C20.1513 41.7334 20.2341 41.8872 20.3406 42.0055C20.4471 42.1238 20.601 42.1949 20.8021 42.2422C20.9914 42.2895 21.2399 42.3013 21.5476 42.3013C22.1748 42.3013 22.7545 42.2185 23.2752 42.0529C23.7958 41.8872 24.2455 41.6269 24.6123 41.2837C24.991 40.9406 25.275 40.5027 25.488 39.9584C25.701 39.4259 25.7956 38.7751 25.7956 38.0296C25.7956 37.2841 25.6892 36.6451 25.488 36.089C25.275 35.5328 24.991 35.0832 24.6123 34.7164V34.7282Z" fill="#01355F"/>
<path d="M15.1464 33.6396C14.5192 33.6396 13.9868 33.7461 13.5489 33.9591C13.1111 34.1721 12.7561 34.4679 12.4839 34.8466C12.2118 35.2252 12.0106 35.6749 11.8923 36.1956C11.774 36.7162 11.7148 37.2723 11.7148 37.864V41.4612C11.7148 41.7689 11.8687 41.9582 12.1763 42.0292C12.484 42.1002 12.8745 42.1476 13.3597 42.1476V38.006C13.3597 37.651 13.3833 37.3078 13.4424 36.9765C13.5016 36.6452 13.6081 36.3494 13.7856 36.1009C13.9631 35.8405 14.1998 35.6394 14.5074 35.4737C14.8151 35.3199 15.2292 35.237 15.738 35.237C16.0102 35.237 16.2232 35.1187 16.3534 34.8821C16.4954 34.6454 16.5782 34.2904 16.6019 33.829C16.3179 33.758 16.0575 33.7106 15.8209 33.6869C15.5842 33.6633 15.3594 33.6514 15.1582 33.6514L15.1464 33.6396Z" fill="#01355F"/>
<path d="M6.50785 32.8587C6.42502 32.764 6.33035 32.693 6.20018 32.6339C6.08185 32.5747 5.92803 32.5392 5.76237 32.5274C5.5967 32.5155 5.38376 32.5037 5.1471 32.5037L0.4375 42.1476H1.21852C1.51435 42.1476 1.78645 42.1121 2.04678 42.0293C2.29527 41.9583 2.49643 41.769 2.63843 41.4613L3.44314 39.7692H8.08167L8.8863 41.4613C9.0283 41.769 9.22946 41.9583 9.47796 42.0293C9.72645 42.1003 10.0104 42.1476 10.2944 42.1476H11.0872L6.72084 33.2137C6.64984 33.0599 6.56701 32.9415 6.49601 32.8469L6.50785 32.8587ZM4.18862 38.2309L5.78606 34.9176L7.33618 38.2309H4.17678H4.18862Z" fill="#01355F"/>
<path d="M97.0068 15.476C96.6873 15.405 96.285 15.3576 95.7998 15.3576V25.2856C95.7998 25.5932 95.9537 25.7825 96.2732 25.8535C96.5926 25.9245 96.9949 25.9719 97.4801 25.9719V16.044C97.4801 15.7363 97.3263 15.547 96.995 15.476H97.0068Z" fill="#01355F"/>
<path d="M96.5928 14.1861C96.4863 14.1625 96.4389 14.1033 96.4389 13.9849C96.4389 13.8193 96.6047 13.7246 96.936 13.7246C97.0425 13.7246 97.149 13.7365 97.2318 13.772C97.3146 13.8075 97.3974 13.8193 97.4684 13.8193C97.5986 13.8193 97.6933 13.7601 97.7525 13.63C97.8116 13.4998 97.859 13.3814 97.9063 13.275C97.788 13.1921 97.6341 13.1211 97.4448 13.062C97.2673 13.0028 97.0661 12.9673 96.865 12.9673C96.7467 12.9673 96.6046 12.9791 96.4508 13.0028C96.297 13.0265 96.155 13.0738 96.0248 13.1448C95.8946 13.2158 95.7881 13.3105 95.6935 13.4288C95.6106 13.5471 95.5633 13.701 95.5633 13.8784C95.5633 14.0086 95.587 14.1151 95.6343 14.1861C95.6816 14.2571 95.7408 14.3163 95.8237 14.3636L95.4568 14.4109C95.3385 14.4109 95.2438 14.4819 95.1965 14.5766C95.1492 14.6831 95.1255 14.8843 95.1255 15.2156L97.5039 14.9908C97.6459 14.9671 97.7406 14.9079 97.7879 14.8133C97.8353 14.7068 97.8589 14.5056 97.8589 14.1861L96.936 14.2216C96.794 14.2216 96.6757 14.2216 96.5692 14.1861H96.5928Z" fill="#01355F"/>
<path d="M87.9429 29.2851C87.9429 29.6164 87.9665 29.8886 88.002 30.1016C88.0375 30.3146 88.1204 30.4802 88.2269 30.5986C88.3452 30.7169 88.4872 30.7997 88.6884 30.847C88.8777 30.8944 89.1262 30.918 89.4338 30.918C90.1793 30.918 90.8302 30.7997 91.3982 30.5631C91.9662 30.3264 92.4394 29.9951 92.8299 29.5573C93.2204 29.1194 93.5162 28.5988 93.7174 27.9953C93.9186 27.3918 94.0132 26.7173 94.0132 25.9837V18.9549C94.0132 18.6472 93.8476 18.4579 93.5399 18.3869C93.2205 18.3159 92.8181 18.2685 92.333 18.2685V25.9955C92.333 26.457 92.2856 26.8948 92.1791 27.2971C92.0726 27.6995 91.9188 28.0545 91.6822 28.3384C91.4573 28.6343 91.1497 28.8591 90.7828 29.0366C90.416 29.2023 89.9663 29.2969 89.4338 29.2969H87.9429V29.2851Z" fill="#01355F"/>
<path d="M87.0904 27.6992C87.0904 27.4034 86.9839 27.1549 86.7827 26.9419C86.5697 26.7289 86.3212 26.6342 86.0254 26.6342C85.7296 26.6342 85.481 26.7408 85.268 26.9419C85.0551 27.1431 84.9604 27.4034 84.9604 27.6992C84.9604 27.995 85.0669 28.2435 85.268 28.4565C85.481 28.6695 85.7296 28.7642 86.0254 28.7642C86.3212 28.7642 86.5697 28.6577 86.7827 28.4565C86.9957 28.2435 87.0904 27.995 87.0904 27.6992Z" fill="#01355F"/>
<path d="M82.7598 25.0607C83.0202 25.3329 83.3397 25.5577 83.7065 25.7234C84.0852 25.889 84.5111 25.9719 84.9845 25.9719H90.191V18.9312C90.191 18.6235 90.0253 18.4342 89.7058 18.3632C89.3863 18.2922 88.9841 18.2449 88.4989 18.2449V23.6526C88.4989 23.8419 88.5462 23.9958 88.6527 24.1023C88.7592 24.2088 88.9959 24.2916 89.3627 24.3389H85.0791C84.6177 24.3389 84.2626 24.2087 84.0141 23.9366C83.7656 23.6644 83.6355 23.3331 83.6355 22.919V16.044C83.6355 15.7363 83.4698 15.547 83.1504 15.476C82.8309 15.405 82.4285 15.3576 81.9434 15.3576V23.061C81.9434 23.4278 82.0144 23.7828 82.1446 24.1259C82.2866 24.4809 82.4759 24.7886 82.7362 25.0607H82.7598Z" fill="#01355F"/>
<path d="M80.8667 28.5988C80.8075 28.4923 80.7483 28.4095 80.6891 28.3267C80.63 28.2438 80.5709 28.1847 80.5235 28.1255C80.062 28.5042 79.5532 28.7882 78.997 29.0012C78.4409 29.2023 77.8138 29.3088 77.1156 29.3088C75.956 29.3088 75.104 29.0367 74.5596 28.4924C74.0153 27.948 73.7077 27.1079 73.6367 25.9719H80.3223C80.4525 25.9719 80.5709 25.9482 80.6655 25.9009C80.7602 25.8536 80.843 25.7708 80.8904 25.6524C80.9495 25.5341 80.985 25.3684 81.0087 25.1554C81.0323 24.9424 81.0442 24.6703 81.0442 24.3389H80.7247C80.2987 24.3389 79.991 24.2206 79.8017 23.9958C79.6123 23.7591 79.5177 23.4397 79.5177 23.0255V21.5819C79.5177 20.8364 79.3994 20.1974 79.1746 19.6767C78.9497 19.1561 78.5947 18.7301 78.1451 18.4106C77.6954 18.0793 77.1156 17.8426 76.4411 17.7006C75.7548 17.5586 74.9738 17.4758 74.0745 17.4758C73.7669 17.4758 73.5184 17.4995 73.329 17.535C73.1397 17.5704 72.9859 17.6533 72.8675 17.7716C72.761 17.89 72.6782 18.0556 72.6427 18.2568C72.6072 18.4698 72.5835 18.7419 72.5835 19.0733H73.9561C74.5596 19.0733 75.1158 19.1088 75.601 19.1798C76.0861 19.2508 76.5003 19.3809 76.8434 19.5584C77.1866 19.7359 77.4469 19.9962 77.6244 20.3157C77.8019 20.6352 77.8966 21.0494 77.8966 21.5582V23.0491C77.8966 23.274 77.9202 23.4988 77.9557 23.7473C77.9912 23.984 78.0977 24.1851 78.2634 24.3389H71.9209V25.6287C71.9209 26.4452 72.0274 27.1907 72.2404 27.8415C72.4534 28.4923 72.7729 29.0485 73.1989 29.4982C73.6249 29.9478 74.1573 30.291 74.8082 30.5395C75.4471 30.788 76.2044 30.9063 77.0564 30.9063C77.861 30.9063 78.5829 30.7998 79.2456 30.5986C79.9082 30.3856 80.4407 30.078 80.8548 29.6638C80.9022 29.6165 80.9613 29.5336 81.0087 29.439C81.056 29.3443 81.0797 29.2378 81.0797 29.1313C81.0797 29.0722 81.0678 28.9893 81.0205 28.8947C80.985 28.8 80.9377 28.6935 80.8785 28.5988H80.8667Z" fill="#01355F"/>
<path d="M65.318 15.3695V25.2974C65.318 25.605 65.4837 25.7944 65.7913 25.8654C66.1108 25.9364 66.5131 25.9837 66.9983 25.9837V16.0558C66.9983 15.7481 66.8326 15.5588 66.5131 15.4878C66.1937 15.4168 65.7913 15.3695 65.3062 15.3695H65.318Z" fill="#01355F"/>
<path d="M49.9118 25.9009C50.0064 25.8535 50.0774 25.7707 50.1366 25.6524C50.1957 25.5341 50.2313 25.3684 50.255 25.1554C50.255 25.0844 50.2668 25.0134 50.2786 24.9424C50.2786 24.9424 50.3023 24.9661 50.3023 24.9779C50.6809 25.3211 51.1306 25.5695 51.6512 25.7352C52.1719 25.9009 52.7517 25.9837 53.3789 25.9837H63.6618V16.0558C63.6618 15.7481 63.4961 15.5588 63.1885 15.4878C62.869 15.4168 62.4666 15.3695 61.9815 15.3695V23.6644C61.9815 23.8537 62.0288 24.0076 62.1353 24.1141C62.2418 24.2206 62.4785 24.3034 62.8453 24.3507H57.6388V21.7593C57.6388 21.0257 57.5323 20.3867 57.3311 19.8424C57.1181 19.298 56.8341 18.8602 56.4673 18.5171C56.1005 18.1739 55.6508 17.9136 55.1302 17.7479C54.6095 17.5822 54.0297 17.4994 53.4025 17.4994C52.7754 17.4994 52.1956 17.5822 51.6749 17.7479C51.1543 17.9136 50.7046 18.1739 50.326 18.5171C49.9473 18.8602 49.6633 19.298 49.4622 19.8424C49.261 20.3867 49.1545 21.0257 49.1545 21.7593C49.1545 22.493 49.261 23.1438 49.4622 23.6763C49.5568 23.9247 49.6751 24.1378 49.8053 24.3507H46.3974C45.9359 24.3507 45.5809 24.2206 45.3324 23.9484C45.0839 23.6763 44.9538 23.3449 44.9538 22.9308V16.0558C44.9538 15.7481 44.7999 15.5588 44.4804 15.4878C44.1609 15.4168 43.7586 15.3695 43.2734 15.3695V23.0728C43.2734 23.4396 43.3445 23.7946 43.4747 24.1378C43.6166 24.4928 43.806 24.8004 44.0663 25.0725C44.3266 25.3447 44.6461 25.5695 45.0129 25.7352C45.3798 25.9009 45.8175 25.9837 46.2908 25.9837H49.5923C49.7225 25.9837 49.8408 25.96 49.9354 25.9127L49.9118 25.9009ZM51.462 19.7359C51.8761 19.2744 52.5151 19.0495 53.3789 19.0495C54.2427 19.0495 54.8817 19.2744 55.2958 19.7359C55.71 20.1974 55.9111 20.86 55.9111 21.7238V23.6644C55.9111 23.8537 55.9584 24.0076 56.0649 24.1141C56.1596 24.2206 56.4081 24.3034 56.775 24.3507H53.4972C53.1067 24.3507 52.7635 24.3152 52.444 24.2324C52.1245 24.1496 51.8406 24.0076 51.6039 23.8064C51.3673 23.6053 51.1779 23.3331 51.0478 22.99C50.9176 22.6468 50.8466 22.2326 50.8466 21.7238C50.8466 20.86 51.0478 20.1855 51.462 19.7359Z" fill="#01355F"/>
<path d="M34.2327 24.8359C34.2919 24.9187 34.3629 24.9897 34.4339 25.0725C34.6942 25.3447 35.0137 25.5695 35.3805 25.7352C35.7592 25.9009 36.1852 25.9837 36.6585 25.9837H41.2971V16.0558C41.2971 15.7481 41.1314 15.5588 40.8119 15.4878C40.4924 15.4168 40.0901 15.3695 39.6049 15.3695V23.6644C39.6049 23.8537 39.6523 24.0076 39.7588 24.1141C39.8653 24.2206 40.1019 24.3034 40.4687 24.3507H36.765C36.3035 24.3507 35.9485 24.2324 35.7001 24.0076C35.4516 23.7709 35.3214 23.4514 35.3214 23.0373V18.1739C35.3214 17.8662 35.1675 17.6769 34.848 17.6059C34.5285 17.5349 34.1262 17.4876 33.641 17.4876V23.0609C33.641 23.4278 33.7121 23.7828 33.8423 24.1259C33.8659 24.1969 33.9014 24.2679 33.9369 24.3389H29.251V17.0852C29.251 16.7776 29.109 16.5883 28.8368 16.5173C28.5647 16.4463 28.1861 16.3989 27.6891 16.3989V18.375H24.3521C23.8315 18.375 23.3463 18.4579 22.8849 18.6236C22.4234 18.7892 22.021 19.0259 21.6779 19.3454C21.3347 19.6649 21.0625 20.0672 20.8614 20.5405C20.6602 21.0257 20.5537 21.57 20.5537 22.1971C20.5537 22.8243 20.6602 23.3686 20.8614 23.8419C21.0625 24.3153 21.3347 24.7057 21.6779 25.0134C22.021 25.3211 22.4234 25.5577 22.8849 25.7234C23.3463 25.8772 23.8315 25.96 24.3521 25.96H33.4991C33.6292 25.96 33.7476 25.9364 33.8423 25.889C33.9369 25.8417 34.0198 25.7589 34.0671 25.6405C34.1263 25.5222 34.1617 25.3565 34.1854 25.1435C34.1972 25.0489 34.2091 24.9305 34.2091 24.8122L34.2327 24.8359ZM24.4941 24.3507C24.2338 24.3507 23.9617 24.3152 23.7013 24.2324C23.441 24.1614 23.2043 24.0312 23.0032 23.8537C22.802 23.6762 22.6364 23.4514 22.5062 23.1793C22.376 22.9071 22.3169 22.5758 22.3169 22.1735C22.3169 21.8658 22.3642 21.57 22.4589 21.286C22.5535 21.0138 22.6955 20.7653 22.873 20.576C23.0505 20.3748 23.2635 20.221 23.5238 20.1027C23.7723 19.9844 24.0563 19.9252 24.3758 19.9252H27.7009V23.6526C27.7009 23.8419 27.7482 23.9958 27.8547 24.1023C27.9612 24.2088 28.1979 24.2916 28.5765 24.3389H24.506L24.4941 24.3507Z" fill="#01355F"/>
<path d="M33.0377 26.6342C32.7418 26.6342 32.4933 26.7408 32.2803 26.9419C32.0673 27.1549 31.9727 27.4034 31.9727 27.6992C31.9727 27.995 32.0792 28.2435 32.2803 28.4565C32.4933 28.6695 32.7418 28.7642 33.0377 28.7642C33.3335 28.7642 33.5819 28.6577 33.7949 28.4565C34.0079 28.2435 34.1026 27.995 34.1026 27.6992C34.1026 27.4034 33.9961 27.1549 33.7949 26.9419C33.5819 26.7289 33.3335 26.6342 33.0377 26.6342Z" fill="#01355F"/>
<path d="M36.8472 27.6992C36.8472 27.4034 36.7407 27.1549 36.5395 26.9419C36.3266 26.7289 36.0781 26.6342 35.7823 26.6342C35.4865 26.6342 35.238 26.7408 35.025 26.9419C34.812 27.1549 34.7173 27.4034 34.7173 27.6992C34.7173 27.995 34.8238 28.2435 35.025 28.4565C35.238 28.6695 35.4865 28.7642 35.7823 28.7642C36.0781 28.7642 36.3266 28.6577 36.5395 28.4565C36.7525 28.2435 36.8472 27.995 36.8472 27.6992Z" fill="#01355F"/>
<path d="M25.3813 17.4876C25.6772 17.4876 25.9257 17.3811 26.1387 17.1799C26.3517 16.9788 26.4463 16.7184 26.4463 16.4226C26.4463 16.1268 26.3398 15.8783 26.1387 15.6653C25.9257 15.4523 25.6772 15.3576 25.3813 15.3576C25.0855 15.3576 24.837 15.4641 24.624 15.6653C24.411 15.8783 24.3164 16.1268 24.3164 16.4226C24.3164 16.7184 24.4228 16.9669 24.624 17.1799C24.837 17.3929 25.0855 17.4876 25.3813 17.4876Z" fill="#01355F"/>
<path d="M22.6484 17.4876C22.9443 17.4876 23.1928 17.3811 23.4058 17.1799C23.6188 16.9788 23.7134 16.7184 23.7134 16.4226C23.7134 16.1268 23.6069 15.8783 23.4058 15.6653C23.1928 15.4523 22.9443 15.3576 22.6484 15.3576C22.3526 15.3576 22.1041 15.4641 21.8911 15.6653C21.6781 15.8783 21.5835 16.1268 21.5835 16.4226C21.5835 16.7184 21.6899 16.9669 21.8911 17.1799C22.1041 17.3929 22.3526 17.4876 22.6484 17.4876Z" fill="#01355F"/>
<path d="M132.802 1.65149C145.135 2.78141 155.515 13.0958 155.515 25.2865C155.515 36.6997 146.51 46.3092 135.006 47.6049C134.335 47.6982 133.925 47.7604 133.925 48.2062C134.471 48.2684 135.006 48.2995 135.584 48.2995C148.483 48.2995 159 37.7985 159 24.8822C159 11.9659 147.182 0.967316 133.443 0.967316C132.865 0.967316 132.319 1.02951 131.784 1.09171C131.784 1.49599 132.131 1.5893 132.802 1.66187V1.65149Z" fill="#01355F"/>
<path d="M142.424 28.3099C142.33 28.2782 142.236 28.2466 142.173 28.2466C141.891 28.2466 141.723 28.4998 141.41 28.9218C139.789 30.9684 137.333 32.055 134.824 32.055C130.047 32.055 126.43 28.12 126.43 23.5415C126.43 23.1301 126.462 22.6765 126.524 22.265C126.556 21.9802 126.587 21.7903 126.587 21.5899C126.587 21.3683 126.524 21.2101 126.273 21.0835C125.228 22.8136 124.685 24.4066 124.685 26.2633C124.685 30.9683 128.531 35.2831 133.685 35.2831C138.075 35.2831 141.222 32.2448 142.434 28.3099H142.424Z" fill="#01355F"/>
<path d="M134.151 37.0581C134.151 37.3713 134.429 37.6497 134.743 37.6497C135.056 37.6497 135.334 37.3783 135.334 37.0581C135.334 36.7379 135.056 36.4664 134.743 36.4664C134.429 36.4664 134.151 36.7379 134.151 37.0581Z" fill="#01355F"/>
<path d="M121.418 32.4244C121.323 32.4244 121.229 32.4557 121.134 32.5182C123.824 38.2431 128.973 42.3829 136.002 42.3829C145.69 42.3829 151.9 34.2597 151.9 26.4493C151.9 23.4461 151.039 20.1613 149.147 17.5335C148.927 17.6587 148.864 17.8151 148.864 18.0132C148.864 18.2113 148.927 18.4512 149.053 18.7744C149.662 20.5159 149.977 22.2886 149.977 24.0196C149.977 31.611 143.746 39.2546 134.594 39.2546C129.761 39.2546 125.064 37.0439 122.185 33.0605C121.901 32.6851 121.67 32.4244 121.418 32.4244Z" fill="#01355F"/>
<path d="M112.852 25.485C112.852 35.6078 121.277 44.7495 131.414 44.7495C131.978 44.7495 132.511 44.7182 133.034 44.6556C133.034 44.186 132.757 44.113 132.101 44.019C122.866 42.5998 116.316 34.9399 116.316 25.5685C116.316 16.1972 123.43 7.44155 133.126 6.67974C133.782 6.61712 134.09 6.6171 134.151 6.13706C133.157 4.17513 130.379 2.1506 126.638 2.1506C124.455 2.1506 122.333 2.6828 119.904 4.17512C119.965 4.39427 120.119 4.4256 120.375 4.4256C120.56 4.4256 120.785 4.36299 121.062 4.26907C122.651 3.63249 124.239 3.47594 125.838 3.47594C128.37 3.47594 130.646 4.70736 131.107 5.94922C121.031 6.77365 112.862 15.1849 112.862 25.4746L112.852 25.485Z" fill="#01355F"/>
</svg>
