<svg width="191" height="61" viewBox="0 0 191 61" fill="none" xmlns="http://www.w3.org/2000/svg">
<path d="M18.5702 13.5108C15.9665 15.1251 13.7621 17.3295 12.1478 19.9332L5.604 13.3893C7.39183 10.9245 9.56155 8.75487 12.0263 6.96704L18.5702 13.5108Z" fill="url(#paint0_linear_328_3568)"/>
<path d="M29.071 1.43095C24.3671 1.43095 19.9409 2.55915 16.0181 4.53792L22.9611 11.4809C24.8878 10.8561 26.9534 10.5089 29.071 10.5089C34.3998 10.5089 39.3987 12.5745 43.1653 16.3411L49.5877 9.91878C44.1027 4.43378 36.8298 1.41357 29.071 1.41357V1.43095Z" fill="url(#paint1_linear_328_3568)"/>
<path d="M33.6188 49.8581C32.1434 50.2052 30.6333 50.3788 29.0711 50.3788C18.0838 50.3788 9.14467 41.4397 9.14467 30.4523C9.14467 28.3174 9.4918 26.2518 10.0993 24.3251L3.15628 17.3821C1.16016 21.3049 0.0493164 25.7484 0.0493164 30.435C0.0493164 46.4386 13.0674 59.4568 29.0711 59.4568C30.616 59.4568 32.1261 59.3353 33.6188 59.1096C35.3546 58.8319 37.0556 58.4154 38.7046 57.8252C44.6409 52.9651 39.5898 47.376 39.5898 47.376C37.7499 48.5216 35.7364 49.3547 33.6188 49.8407V49.8581Z" fill="url(#paint2_linear_328_3568)"/>
<path d="M46.29 53.6944C44.1203 55.2913 41.534 56.8361 38.7047 57.8255C44.641 52.9654 39.59 47.3762 39.59 47.3762L15.4629 23.2492C16.9036 20.5241 19.1601 18.2676 21.8852 16.8269L47.1578 42.0995C50.4731 45.4148 50.0739 50.9172 46.29 53.6944Z" fill="#3E1E58"/>
<path d="M183.658 31.0259C183.484 29.7415 182.946 28.5612 182.2 27.5024C182.078 27.3288 181.957 27.1031 181.661 27.1205C181.609 27.1726 181.54 27.2247 181.523 27.3115C181.349 28.1099 181.175 28.9257 181.019 29.7415C180.967 29.9498 181.089 30.1234 181.21 30.2796C181.505 30.6962 181.818 31.1128 182.095 31.5467C182.338 31.9286 182.547 32.3278 182.72 32.7617C182.981 33.4039 182.929 33.6296 182.356 33.9941C180.967 34.8967 179.474 35.5042 177.773 35.3306C177.287 35.2786 176.819 35.2265 176.333 35.1397C176.177 35.1223 176.02 35.0182 175.829 34.9488C175.916 34.7752 175.968 34.6537 176.038 34.5322C176.906 33.1262 177.357 31.5814 177.461 29.9324C177.548 28.3355 176.992 26.9643 176.125 25.6972C175.708 25.0723 175.257 24.9855 174.562 25.2632C174.076 25.4541 173.677 25.7666 173.295 26.1311C172.358 27.0337 171.594 28.0404 170.987 29.186C169.98 31.0607 169.772 33.0221 170.431 35.0529C170.483 35.2091 170.501 35.3653 170.535 35.591C170.206 35.6951 169.911 35.7993 169.615 35.8861C168.956 36.077 168.261 36.077 167.585 36.0596C165.988 36.0076 164.669 35.3654 163.627 34.1503C163.141 33.5775 162.759 32.9526 162.464 32.2757C161.857 30.9392 161.509 29.5332 161.318 28.0925C160.919 25.107 158.576 10.2316 157.517 5.97897C157.118 4.36472 156.545 2.81989 155.868 1.30978C155.781 1.11885 155.712 0.893184 155.486 0.806396C155.417 0.875827 155.365 0.910536 155.347 0.962608C155.052 1.88256 154.775 2.81988 154.497 3.73983C154.41 4.01755 154.497 4.29529 154.601 4.57301C154.931 5.45825 155.261 6.32613 155.521 7.22872C157.413 13.7205 158.923 24.7946 159.27 27.9537C159.427 29.4291 159.583 30.9045 159.947 32.3451C160.312 33.8205 160.815 35.2438 161.666 36.5109C163.141 38.698 165.224 39.6006 167.828 39.3923C169.303 39.2708 170.657 38.7848 171.924 38.0384C172.167 37.8996 172.41 37.7434 172.636 37.6219C172.722 37.6392 172.792 37.6392 172.844 37.6739C174.771 38.6286 176.836 38.8368 178.936 38.6112C181.176 38.3682 182.72 37.1358 183.415 34.9488C183.831 33.6817 183.866 32.3625 183.692 31.0607L183.658 31.0259ZM173.538 33.9941C172.861 33.5775 172.341 33.1436 171.924 32.5881C171.351 31.8244 171.334 31.1648 171.907 30.4011C172.254 29.9324 172.688 29.5158 173.104 29.0819C173.243 28.943 173.417 28.8389 173.59 28.7347C174.076 28.4744 174.458 28.5091 174.805 28.9431C175.448 29.7589 175.881 30.6788 176.038 31.7029C176.09 32.0501 175.951 32.3278 175.691 32.5187C174.996 33.0047 174.285 33.4733 173.538 33.9941Z" fill="#5E5E5E"/>
<path d="M129.936 27.4152C129.589 27.1722 129.224 26.9119 128.825 26.6515C128.79 26.6341 128.773 26.6168 128.738 26.5994L128.825 26.5474L129.103 26.5994C129.381 26.6515 129.624 26.7904 129.78 27.016C129.867 27.1375 129.919 27.2764 129.936 27.4152Z" fill="#5E5E5E"/>
<path d="M156.476 35.6248C156.268 36.0587 155.973 36.458 155.625 36.7878C155.139 37.2912 154.601 37.7945 154.029 38.2111C150.21 40.971 146.131 43.2101 141.653 44.6681C139.379 45.4145 137.053 45.7963 134.658 45.6054C133.547 45.5186 132.47 45.2409 131.446 44.7549C129.902 44.0085 128.791 42.8282 127.975 41.3355C126.777 39.1484 126.447 36.8399 126.69 34.3924C126.916 32.188 127.524 30.0877 128.444 28.0916C128.565 27.8139 128.652 27.5015 128.93 27.3279C129.138 27.3626 129.173 27.5015 129.138 27.6404C129.086 27.9528 129.016 28.2652 128.912 28.5429C128.183 30.5911 128.027 32.7087 128.166 34.8611C128.235 35.781 128.426 36.6663 128.756 37.5168C129.45 39.322 130.683 40.5891 132.471 41.3008C133.425 41.6826 134.432 41.8909 135.456 41.9777C137.417 42.1339 139.327 41.9082 141.201 41.3702C142.902 40.8841 144.551 40.242 146.166 39.5129C148.683 38.35 151.113 37.0482 153.473 35.6075C154.029 35.2603 154.567 34.8958 155.105 34.5139C155.33 34.3577 155.539 34.1494 155.747 33.9585C156.025 33.6981 156.112 33.3857 156.007 33.0212C155.886 32.5872 155.764 32.1359 155.608 31.7194C155.07 30.2787 154.515 28.8554 153.959 27.4147C153.629 26.5295 153.317 25.6442 153.005 24.759C152.953 24.6201 152.952 24.4465 152.866 24.3598C152.519 23.9952 152.553 23.5787 152.623 23.1621C152.744 22.4851 152.866 21.8082 153.005 21.1486C153.057 20.9056 153.178 20.6799 153.248 20.489C153.473 20.3849 153.577 20.489 153.664 20.6105C154.411 21.4437 155.157 22.2595 155.869 23.11C156.094 23.3704 156.25 23.6828 156.407 23.9779C156.459 24.082 156.476 24.2903 156.407 24.3598C156.355 24.4465 156.164 24.4639 156.042 24.4465C155.764 24.3945 155.504 24.3077 155.226 24.2209C155.122 24.516 155.296 24.7069 155.383 24.8978C155.851 26.1302 156.32 27.3452 156.789 28.5776C156.927 28.9421 157.014 29.3414 157.118 29.7232C157.691 31.7714 157.344 33.7329 156.441 35.6075L156.476 35.6248Z" fill="#5E5E5E"/>
<path d="M189.767 37.5691C189.681 37.8816 189.629 38.246 189.264 38.4717C189.021 38.2808 189.004 38.0377 188.986 37.7947C188.934 37.031 188.847 36.2673 188.83 35.4862C188.795 34.0282 188.587 32.5875 188.379 31.1468C187.945 27.9877 185.393 12.4179 184.942 9.53659C184.716 8.16534 184.508 6.77676 184.317 5.38816C184.265 5.07572 184.213 4.78062 183.97 4.55498C183.762 4.36404 183.71 4.12103 183.814 3.84331C184.196 2.87128 184.595 1.8819 184.994 0.909874C185.011 0.857801 185.081 0.84045 185.185 0.753662C185.827 1.55211 188.171 6.48168 188.761 8.25215C188.83 8.49515 188.986 8.72081 188.83 9.01589C188.344 9.01589 188.118 8.61664 187.823 8.33891C187.511 8.04384 187.233 7.73142 186.886 7.38427C186.73 7.67935 186.834 7.905 186.869 8.09594C187.112 9.46719 187.372 10.8384 187.615 12.2097C188.136 15.2299 190.219 28.2481 190.496 30.6955C190.757 33.0214 190.444 35.2952 189.802 37.5344L189.767 37.5691Z" fill="#5E5E5E"/>
<path d="M176.107 19.7084C175.985 20.0903 175.777 20.4027 175.603 20.7151C175.43 21.0449 175.239 21.3574 175.065 21.6872C174.892 21.9996 174.701 22.3294 174.51 22.6592C173.868 22.4509 173.364 22.0517 172.826 21.7566C172.288 21.4615 171.75 21.1317 171.108 20.7499C170.605 21.6004 170.171 22.3467 169.702 23.1452C169.025 22.9716 168.539 22.5377 167.966 22.2426C167.393 21.9302 166.838 21.583 166.3 21.2532C166.491 20.611 167.393 18.9447 167.914 18.2851C169.025 18.8058 170.049 19.5522 171.195 20.125C171.82 19.4307 172.097 18.5281 172.67 17.7991C173.295 17.9726 173.816 18.3892 174.371 18.7016C174.944 19.0141 175.499 19.3612 176.107 19.7257V19.7084Z" fill="#5E5E5E"/>
<path d="M184.976 21.8611C184.837 22.4339 183.97 24.0829 183.431 24.7945C182.807 24.5689 180.654 23.3192 180.029 22.8158C180.463 21.8611 181.071 20.9585 181.557 19.9344C180.637 19.3096 179.7 18.8756 178.884 18.2854C179.179 17.5217 180.099 15.8901 180.515 15.3694C181.262 15.6818 183.397 16.9489 183.918 17.3829C183.414 18.3202 182.893 19.2575 182.355 20.2469C183.275 20.8023 184.143 21.3404 185.011 21.8611H184.976Z" fill="#5E5E5E"/>
<path d="M142.295 28.0402C142.156 28.5782 141.34 30.0884 140.698 31.0257C139.57 30.3661 138.459 29.7412 137.383 29.099C137.539 28.4915 138.32 27.0161 138.928 26.1482C139.5 26.3218 141.392 27.3806 142.295 28.0402Z" fill="#5E5E5E"/>
<path d="M167.827 30.2785C167.602 30.9728 167.411 31.6845 167.133 32.3441C166.925 32.8474 166.526 33.2293 165.883 33.1425C165.345 33.0731 164.929 32.7086 164.859 32.0143C164.79 31.2679 164.703 30.4521 164.911 29.7404C165.363 28.1435 165.988 26.5987 166.543 25.0365C166.578 24.9497 166.647 24.8629 166.699 24.7761C166.751 24.7935 166.803 24.8108 166.855 24.8282C166.769 25.1753 166.682 25.5225 166.578 25.887C166.248 27.0847 165.866 28.265 165.588 29.4627C165.502 29.8272 165.588 30.2785 165.692 30.643C165.918 31.4241 166.56 31.563 167.081 30.9381C167.341 30.6257 167.532 30.2785 167.827 29.8446C167.827 30.0355 167.879 30.157 167.827 30.2611V30.2785Z" fill="#5E5E5E"/>
<path d="M162.985 6.25604C162.759 6.95034 162.569 7.662 162.291 8.32159C162.083 8.82496 161.683 9.20681 161.041 9.12003C160.503 9.0506 160.086 8.6861 160.017 7.99179C159.948 7.24542 159.861 6.42962 160.069 5.71796C160.52 4.12106 161.145 2.5762 161.701 1.01402C161.735 0.927227 161.805 0.84045 161.857 0.753662C161.909 0.77102 161.961 0.788375 162.013 0.805733C161.926 1.15288 161.839 1.50006 161.735 1.86457C161.406 3.06225 161.024 4.24256 160.746 5.44023C160.659 5.80474 160.746 6.25602 160.85 6.62053C161.076 7.40162 161.718 7.54051 162.239 6.91563C162.499 6.6032 162.69 6.25604 162.985 5.8221C162.985 6.01303 163.037 6.13452 162.985 6.23866V6.25604Z" fill="#5E5E5E"/>
<path d="M148.456 18.4933C148.231 19.1876 148.04 19.8993 147.762 20.5588C147.554 21.0622 147.154 21.4441 146.512 21.3573C145.974 21.2878 145.558 20.9233 145.488 20.229C145.419 19.4827 145.332 18.6669 145.54 17.9552C145.992 16.3583 146.616 14.8135 147.172 13.2513C147.207 13.1645 147.276 13.0778 147.328 12.991C147.38 13.0083 147.432 13.0257 147.484 13.043C147.398 13.3902 147.311 13.7373 147.207 14.1018C146.877 15.2995 146.495 16.4798 146.217 17.6775C146.13 18.042 146.217 18.4933 146.321 18.8578C146.547 19.6389 147.189 19.7778 147.71 19.1529C147.97 18.8404 148.161 18.4933 148.456 18.0593C148.456 18.2503 148.508 18.3718 148.456 18.476V18.4933Z" fill="#5E5E5E"/>
<path d="M154.237 15.4389C154.011 16.1332 153.82 16.8448 153.542 17.5044C153.334 18.0078 152.935 18.3897 152.293 18.3029C151.754 18.2335 151.338 17.869 151.268 17.1747C151.199 16.4283 151.112 15.6124 151.32 14.9008C151.772 13.3039 152.397 11.7591 152.952 10.1969C152.987 10.1101 153.056 10.0233 153.108 9.93652C153.16 9.95388 153.212 9.97124 153.265 9.98859C153.178 10.3357 153.091 10.6829 152.987 11.0474C152.657 12.2451 152.275 13.4254 151.997 14.6231C151.911 14.9876 151.997 15.4389 152.102 15.8034C152.327 16.5845 152.969 16.7233 153.49 16.0984C153.751 15.786 153.941 15.4389 154.237 15.005C154.237 15.1959 154.289 15.3174 154.237 15.4215V15.4389Z" fill="#5E5E5E"/>
<path d="M141.982 21.3746C141.757 22.0689 141.566 22.7806 141.288 23.4402C141.08 23.9436 140.68 24.3254 140.038 24.2386C139.5 24.1692 139.084 23.8047 139.014 23.1104C138.945 22.364 138.858 21.5482 139.066 20.8366C139.517 19.2397 140.142 17.6948 140.698 16.1327C140.732 16.0459 140.802 15.9591 140.854 15.8723C140.906 15.8897 140.958 15.907 141.01 15.9244C140.923 16.2715 140.837 16.6187 140.732 16.9832C140.403 18.1808 140.021 19.3612 139.743 20.5588C139.656 20.9233 139.743 21.3746 139.847 21.7391C140.073 22.5202 140.715 22.6591 141.236 22.0342C141.496 21.7218 141.687 21.3746 141.982 20.9407C141.982 21.1316 142.034 21.2531 141.982 21.3573V21.3746Z" fill="#5E5E5E"/>
<path d="M139.048 12.4182C138.753 13.0778 138.493 13.7722 138.129 14.397C137.851 14.883 137.417 15.1955 136.809 15.0566C136.289 14.9351 135.907 14.5185 135.907 13.8242C135.907 13.0605 135.924 12.2447 136.202 11.5677C136.827 10.0403 137.608 8.56488 138.337 7.07213C138.372 6.98535 138.458 6.91589 138.51 6.8291C138.562 6.84646 138.615 6.88119 138.667 6.89855C138.528 7.22834 138.406 7.57547 138.267 7.90526C137.799 9.05086 137.313 10.1965 136.896 11.3595C136.775 11.724 136.809 12.1579 136.879 12.5571C137.018 13.3729 137.643 13.5639 138.233 12.9911C138.528 12.7134 138.753 12.3835 139.083 11.9843C139.083 12.1752 139.083 12.2968 139.048 12.4009V12.4182Z" fill="#5E5E5E"/>
<path d="M107.805 21.0441C107.58 21.7384 107.389 22.45 107.111 23.1096C106.903 23.613 106.504 23.9948 105.861 23.9081C105.323 23.8386 104.907 23.4741 104.837 22.7798C104.768 22.0335 104.681 21.2176 104.889 20.506C105.341 18.9091 105.966 17.3643 106.521 15.8021C106.556 15.7153 106.625 15.6285 106.677 15.5417C106.729 15.5591 106.781 15.5765 106.833 15.5938C106.747 15.941 106.66 16.2881 106.556 16.6526C106.226 17.8503 105.844 19.0306 105.566 20.2283C105.48 20.5928 105.566 21.0441 105.67 21.4086C105.896 22.1897 106.538 22.3285 107.059 21.7037C107.319 21.3912 107.51 21.0441 107.805 20.6101C107.805 20.8011 107.857 20.9225 107.805 21.0267V21.0441Z" fill="#5E5E5E"/>
<path d="M102.112 21.3746C101.886 22.0689 101.695 22.7806 101.417 23.4402C101.209 23.9436 100.81 24.3254 100.168 24.2386C99.6295 24.1692 99.2129 23.8047 99.1434 23.1104C99.074 22.364 98.9873 21.5482 99.1955 20.8366C99.6468 19.2397 100.272 17.6948 100.827 16.1327C100.862 16.0459 100.931 15.9591 100.983 15.8723C101.035 15.8897 101.088 15.907 101.14 15.9244C101.053 16.2715 100.966 16.6187 100.862 16.9832C100.532 18.1808 100.15 19.3612 99.8724 20.5588C99.7856 20.9233 99.8724 21.3746 99.9766 21.7391C100.202 22.5202 100.845 22.6591 101.365 22.0342C101.626 21.7218 101.817 21.3746 102.112 20.9407C102.112 21.1316 102.164 21.2531 102.112 21.3573V21.3746Z" fill="#5E5E5E"/>
<path d="M69.4793 33.3334C69.2537 34.0277 69.0627 34.7394 68.785 35.399C68.5767 35.9024 68.1774 36.2842 67.5352 36.1974C66.9971 36.128 66.5806 35.7635 66.5112 35.0692C66.4417 34.3228 66.3549 33.507 66.5632 32.7953C67.0145 31.1985 67.6393 29.6536 68.1948 28.0914C68.2295 28.0046 68.299 27.9178 68.3511 27.8311C68.4031 27.8484 68.4552 27.8658 68.5073 27.8831C68.4205 28.2303 68.3337 28.5775 68.2295 28.942C67.8997 30.1396 67.5179 31.3199 67.2401 32.5176C67.1534 32.8821 67.2401 33.3334 67.3443 33.6979C67.5699 34.479 68.2121 34.6178 68.7329 33.993C68.9932 33.6805 69.1843 33.3334 69.4793 32.8995C69.4793 33.0904 69.5314 33.2119 69.4793 33.3161V33.3334Z" fill="#5E5E5E"/>
<path d="M65.5046 26.0265C65.279 26.7208 65.0881 27.4325 64.8104 28.092C64.6021 28.5954 64.2028 28.9773 63.5606 28.8905C63.0225 28.8211 62.606 28.4566 62.5365 27.7622C62.4671 27.0159 62.3803 26.2001 62.5886 25.4884C63.0399 23.8915 63.6647 22.3467 64.2202 20.7845C64.2549 20.6977 64.3244 20.611 64.3764 20.5242C64.4285 20.5415 64.4805 20.5589 64.5326 20.5762C64.4458 20.9234 64.3591 21.2705 64.2549 21.635C63.9251 22.8327 63.5433 24.013 63.2655 25.2107C63.1787 25.5752 63.2655 26.0265 63.3697 26.391C63.5953 27.1721 64.2375 27.311 64.7583 26.6861C65.0186 26.3737 65.2095 26.0265 65.5046 25.5926C65.5046 25.7835 65.5567 25.905 65.5046 26.0092V26.0265Z" fill="#5E5E5E"/>
<path d="M74.7909 31.4772C74.5652 32.1715 74.3742 32.8832 74.0965 33.5428C73.8882 34.0462 73.4891 34.428 72.8468 34.3412C72.3087 34.2718 71.8921 33.9073 71.8227 33.213C71.7532 32.4666 71.6664 31.6508 71.8747 30.9391C72.326 29.3423 72.9509 27.7974 73.5063 26.2352C73.541 26.1484 73.6105 26.0616 73.6626 25.9749C73.7146 25.9922 73.7668 26.0096 73.8188 26.0269C73.7321 26.3741 73.6452 26.7213 73.5411 27.0858C73.2113 28.2834 72.8294 29.4637 72.5517 30.6614C72.4649 31.0259 72.5517 31.4772 72.6558 31.8417C72.8815 32.6228 73.5237 32.7617 74.0444 32.1368C74.3048 31.8244 74.4958 31.4772 74.7909 31.0433C74.7909 31.2342 74.8429 31.3557 74.7909 31.4599V31.4772Z" fill="#5E5E5E"/>
<path d="M125.648 30.1752C125.423 30.8695 125.232 31.5812 124.954 32.2408C124.746 32.7442 124.346 33.126 123.704 33.0392C123.166 32.9698 122.749 32.6053 122.68 31.911C122.611 31.1646 122.524 30.3488 122.732 29.6371C123.183 28.0402 123.808 26.4954 124.364 24.9332C124.398 24.8464 124.468 24.7596 124.52 24.6729C124.572 24.6902 124.624 24.7076 124.676 24.7249C124.589 25.0721 124.503 25.4193 124.398 25.7838C124.069 26.9814 123.687 28.1617 123.409 29.3594C123.322 29.7239 123.409 30.1752 123.513 30.5397C123.739 31.3208 124.381 31.4597 124.902 30.8348C125.162 30.5224 125.353 30.1752 125.648 29.7413C125.648 29.9322 125.7 30.0537 125.648 30.1579V30.1752Z" fill="#5E5E5E"/>
<path d="M159.391 42.3942C159.166 43.0885 158.975 43.8001 158.697 44.4597C158.489 44.9631 158.09 45.345 157.447 45.2582C156.909 45.1888 156.493 44.8243 156.423 44.13C156.354 43.3836 156.267 42.5677 156.475 41.8561C156.927 40.2592 157.552 38.7144 158.107 37.1522C158.142 37.0654 158.211 36.9786 158.263 36.8918C158.315 36.9092 158.367 36.9266 158.419 36.9439C158.333 37.2911 158.246 37.6382 158.142 38.0028C157.812 39.2004 157.43 40.3807 157.152 41.5784C157.065 41.9429 157.152 42.3942 157.256 42.7587C157.482 43.5398 158.124 43.6786 158.645 43.0538C158.905 42.7413 159.096 42.3942 159.391 41.9603C159.391 42.1512 159.443 42.2727 159.391 42.3768V42.3942Z" fill="#5E5E5E"/>
<path d="M187.146 42.3942C186.921 43.0885 186.73 43.8001 186.452 44.4597C186.244 44.9631 185.844 45.345 185.202 45.2582C184.664 45.1888 184.248 44.8243 184.178 44.13C184.109 43.3836 184.022 42.5677 184.23 41.8561C184.682 40.2592 185.306 38.7144 185.862 37.1522C185.897 37.0654 185.966 36.9786 186.018 36.8918C186.07 36.9092 186.122 36.9266 186.174 36.9439C186.087 37.2911 186.001 37.6382 185.896 38.0028C185.567 39.2004 185.185 40.3807 184.907 41.5784C184.82 41.9429 184.907 42.3942 185.011 42.7587C185.237 43.5398 185.879 43.6786 186.4 43.0538C186.66 42.7413 186.851 42.3942 187.146 41.9603C187.146 42.1512 187.198 42.2727 187.146 42.3768V42.3942Z" fill="#5E5E5E"/>
<path d="M172.618 2.29871C172.496 2.52436 172.375 2.55904 172.184 2.36811C171.524 1.70852 171.264 1.74324 170.986 2.64583C170.778 3.30542 170.622 3.98237 170.483 4.65932C170.084 6.75958 169.077 8.40856 167.307 9.65831C165.762 10.7518 164.009 11.3594 162.273 11.9669C162.203 11.9843 162.134 11.9669 162.065 11.9669C162.065 11.9495 162.047 11.9148 162.03 11.8974C162.203 11.7759 162.36 11.6544 162.533 11.5503C164.338 10.422 166.161 9.32854 167.931 8.16558C168.487 7.80107 168.938 7.26296 169.407 6.77694C169.476 6.70751 169.528 6.53395 169.511 6.41245C169.389 5.28421 168.938 4.27745 168.4 3.30543C168.296 3.13185 168.174 3.06243 167.966 3.20129C167.567 3.46165 167.289 3.14921 167.029 2.92356C166.786 2.69791 166.543 2.43755 166.768 2.05568C166.89 1.86475 167.011 1.67382 167.098 1.46553C167.272 1.11838 167.55 1.01424 167.845 1.20518C168.209 1.44818 168.591 1.7259 168.851 2.07306C169.424 2.83679 169.667 3.73938 169.893 4.67669C169.928 4.52047 169.962 4.36428 169.997 4.20806C170.188 3.46168 170.344 2.69793 170.587 1.96891C170.726 1.53498 170.969 1.11837 171.264 0.753863C171.594 0.354639 172.01 0.406712 172.375 0.753863C172.826 1.22252 172.896 1.74327 172.618 2.29871Z" fill="#5E5E5E"/>
<path d="M128.513 1.95136C128.409 2.12494 128.322 2.15965 128.166 2.00344C127.645 1.46535 127.419 1.50007 127.194 2.22909C127.02 2.76718 126.899 3.30527 126.794 3.86071C126.482 5.54439 125.666 6.8983 124.243 7.88768C122.993 8.77292 121.587 9.25889 120.164 9.7449C120.112 9.76226 120.042 9.7449 119.99 9.7449C119.99 9.72754 119.973 9.71019 119.956 9.69283C120.094 9.60604 120.216 9.50194 120.355 9.41515C121.813 8.51256 123.271 7.62729 124.712 6.67263C125.163 6.37755 125.527 5.94362 125.909 5.5444C125.979 5.47497 125.996 5.35344 125.996 5.24929C125.892 4.3467 125.545 3.53093 125.093 2.73248C125.024 2.59362 124.92 2.54151 124.746 2.64566C124.416 2.85395 124.191 2.61099 123.983 2.42005C123.774 2.24648 123.601 2.02079 123.774 1.72571C123.861 1.56949 123.965 1.41327 124.052 1.2397C124.191 0.961977 124.417 0.875197 124.66 1.03142C124.955 1.22235 125.267 1.44799 125.475 1.72571C125.927 2.33322 126.135 3.07964 126.308 3.82601C126.343 3.70451 126.361 3.583 126.395 3.44414C126.551 2.83663 126.673 2.22908 126.864 1.62157C126.985 1.27442 127.176 0.927268 127.402 0.649547C127.662 0.319753 128.009 0.354468 128.305 0.649547C128.669 1.03141 128.739 1.448 128.496 1.89929L128.513 1.95136Z" fill="#5E5E5E"/>
<path d="M96.3137 6.25604C96.0881 6.95034 95.8972 7.662 95.6195 8.32159C95.4112 8.82496 95.0119 9.20681 94.3697 9.12003C93.8316 9.0506 93.4151 8.6861 93.3456 7.99179C93.2762 7.24542 93.1894 6.42962 93.3976 5.71796C93.8489 4.12106 94.4738 2.5762 95.0293 1.01402C95.064 0.927227 95.1335 0.84045 95.1855 0.753662C95.2376 0.77102 95.2896 0.788375 95.3417 0.805733C95.2549 1.15288 95.1682 1.50006 95.064 1.86457C94.7342 3.06225 94.3523 4.24256 94.0746 5.44023C93.9878 5.80474 94.0746 6.25602 94.1788 6.62053C94.4044 7.40162 95.0466 7.54051 95.5673 6.91563C95.8277 6.6032 96.0186 6.25604 96.3137 5.8221C96.3137 6.01303 96.3658 6.13452 96.3137 6.23866V6.25604Z" fill="#5E5E5E"/>
<path d="M121.188 5.4233C120.997 6.01346 120.841 6.62099 120.598 7.17643C120.407 7.61037 120.077 7.92278 119.539 7.85335C119.088 7.80128 118.723 7.48886 118.671 6.89871C118.602 6.25648 118.55 5.56215 118.706 4.97199C119.088 3.6181 119.626 2.3163 120.095 0.979767C120.129 0.910337 120.182 0.840915 120.216 0.771484C120.268 0.771484 120.303 0.806197 120.355 0.823555C120.268 1.11863 120.199 1.41373 120.112 1.70881C119.834 2.71555 119.522 3.72229 119.279 4.74638C119.21 5.05882 119.279 5.44066 119.366 5.7531C119.557 6.41269 120.095 6.53422 120.546 5.99613C120.754 5.73577 120.928 5.44069 121.171 5.07618C121.171 5.24976 121.206 5.33651 121.171 5.4233H121.188Z" fill="#5E5E5E"/>
<path d="M104.941 2.61097C104.82 2.83662 104.698 2.87135 104.507 2.68041C103.848 2.02083 103.587 2.05555 103.31 2.95814C103.101 3.61773 102.945 4.29463 102.806 4.97157C102.407 7.07184 101.4 8.72082 99.6298 9.97056C98.085 11.0641 96.3318 11.6716 94.5961 12.2792C94.5266 12.2965 94.4572 12.2792 94.3878 12.2792C94.3878 12.2618 94.3704 12.2271 94.353 12.2097C94.5266 12.0882 94.6829 11.9667 94.8565 11.8625C96.6617 10.7343 98.4842 9.64079 100.255 8.47784C100.81 8.11333 101.261 7.57521 101.73 7.0892C101.799 7.01977 101.851 6.84621 101.834 6.72471C101.713 5.59646 101.261 4.58971 100.723 3.61768C100.619 3.44411 100.498 3.37468 100.289 3.51354C99.8902 3.77391 99.6124 3.46146 99.352 3.23582C99.109 3.01017 98.8661 2.7498 99.0917 2.36794C99.2132 2.177 99.3347 1.98608 99.4215 1.77779C99.5951 1.43063 99.8728 1.3265 100.168 1.51743C100.532 1.76044 100.914 2.03816 101.175 2.38531C101.747 3.14905 101.99 4.05164 102.216 4.98895C102.251 4.83273 102.285 4.67653 102.32 4.52031C102.511 3.77394 102.667 3.01019 102.91 2.28117C103.049 1.84723 103.292 1.43063 103.587 1.06612C103.917 0.666895 104.334 0.718968 104.698 1.06612C105.149 1.53477 105.219 2.05553 104.941 2.61097Z" fill="#5E5E5E"/>
<path d="M151.945 2.54207C151.824 2.76772 151.702 2.80245 151.511 2.61151C150.852 1.95193 150.591 1.98665 150.314 2.88924C150.105 3.54883 149.949 4.22578 149.81 4.90273C149.602 6.04833 149.203 7.05506 148.595 7.9403C148.508 8.07916 148.422 8.18329 148.231 8.40894C147.519 9.31153 146.981 9.8149 146.287 10.5266C144.725 12.1061 144.586 12.4012 143.336 13.5294C143.041 13.7898 142.798 13.9981 142.642 14.1543C142.694 14.0328 142.763 13.8245 142.885 13.5815C143.891 11.4118 145.714 10.1968 147.519 8.21803C147.71 8.00974 148.109 7.55844 148.335 6.86414C148.37 6.74264 148.491 6.37812 148.508 5.87475C148.508 5.87475 148.543 5.04159 147.745 3.54884C147.727 3.49676 147.658 3.40997 147.571 3.37525C147.502 3.35789 147.415 3.37527 147.328 3.4447C146.929 3.70506 146.651 3.39262 146.391 3.16697C146.148 2.94132 145.905 2.68096 146.13 2.29909C146.252 2.10816 146.374 1.91723 146.46 1.70894C146.634 1.36179 146.912 1.2576 147.207 1.44853C147.571 1.69154 147.953 1.96926 148.213 2.31641C148.786 3.08014 149.029 3.98274 149.255 4.92005C149.29 4.76383 149.324 4.60763 149.359 4.45141C149.55 3.70504 149.706 2.94129 149.949 2.21227C150.088 1.77833 150.331 1.36178 150.626 0.997272C150.956 0.598047 151.372 0.65012 151.737 0.997272C152.188 1.46593 152.258 1.98663 151.98 2.54207H151.945Z" fill="#5E5E5E"/>
<path d="M151.425 27.3624C151.303 27.5881 151.181 27.6228 150.991 27.4318C150.331 26.7722 150.071 26.807 149.793 27.7096C149.585 28.3691 149.428 29.0461 149.29 29.723C148.89 31.8233 147.884 33.4723 146.113 34.722C144.568 35.8156 142.815 36.423 141.079 37.0306C141.01 37.0479 140.94 37.0306 140.871 37.0306C140.871 37.0132 140.854 36.9785 140.836 36.9612C141.01 36.8397 141.166 36.7181 141.34 36.614C143.145 35.4858 144.967 34.3923 146.738 33.2293C147.293 32.8648 147.745 32.3267 148.213 31.8407C148.283 31.7712 148.335 31.5977 148.318 31.4762C148.196 30.3479 147.745 29.3412 147.207 28.3691C147.102 28.1956 146.981 28.1261 146.773 28.265C146.373 28.5254 146.096 28.2129 145.835 27.9873C145.592 27.7616 145.349 27.5013 145.575 27.1194C145.697 26.9285 145.818 26.7375 145.905 26.5293C146.078 26.1821 146.356 26.078 146.651 26.2689C147.016 26.5119 147.398 26.7896 147.658 27.1368C148.231 27.9005 148.474 28.8031 148.699 29.7404C148.734 29.5842 148.769 29.4279 148.803 29.2717C148.994 28.5253 149.151 27.7617 149.394 27.0326C149.533 26.5987 149.776 26.1821 150.071 25.8176C150.4 25.4184 150.817 25.4704 151.181 25.8176C151.633 26.2862 151.702 26.807 151.425 27.3624Z" fill="#5E5E5E"/>
<path d="M83.0876 28.4911C82.9661 28.7167 82.8446 28.7515 82.6537 28.5605C81.9941 27.901 81.7337 27.9356 81.456 28.8382C81.2477 29.4978 81.0915 30.1748 80.9526 30.8517C80.5534 32.952 79.5466 34.6009 77.7762 35.8507C76.2314 36.9442 74.4782 37.5518 72.7424 38.1593C72.673 38.1766 72.6036 38.1593 72.5342 38.1593C72.5342 38.1419 72.5169 38.1072 72.4995 38.0898C72.6731 37.9683 72.8293 37.8468 73.0028 37.7427C74.808 36.6144 76.6306 35.5209 78.401 34.358C78.9565 33.9935 79.4078 33.4553 79.8765 32.9693C79.9459 32.8999 79.998 32.7263 79.9806 32.6048C79.8591 31.4766 79.4078 30.4698 78.8697 29.4978C78.7656 29.3242 78.6441 29.2548 78.4358 29.3937C78.0365 29.654 77.7589 29.3416 77.4985 29.1159C77.2555 28.8903 77.0124 28.6299 77.2381 28.2481C77.3596 28.0571 77.4811 27.8662 77.5679 27.6579C77.7415 27.3108 78.0192 27.2066 78.3143 27.3976C78.6788 27.6406 79.0607 27.9183 79.321 28.2654C79.8938 29.0292 80.1368 29.9318 80.3624 30.8691C80.3972 30.7129 80.4319 30.5567 80.4666 30.4004C80.6575 29.6541 80.8138 28.8903 81.0568 28.1613C81.1956 27.7274 81.4387 27.3108 81.7338 26.9462C82.0635 26.547 82.48 26.5991 82.8446 26.9462C83.2959 27.4149 83.3653 27.9357 83.0876 28.4911Z" fill="#5E5E5E"/>
<path d="M171.646 11.8275C165.953 14.3097 162.724 15.7851 161.978 16.2711C161.648 16.5141 161.492 17.0522 161.492 17.868C161.492 18.0936 161.769 18.3887 162.29 18.7879C162.828 19.1698 163.21 19.3607 163.47 19.3607C163.766 19.3607 163.922 19.0656 163.957 18.4928C163.21 18.3019 162.585 17.9374 162.065 17.4341C162.707 16.9307 165.293 15.6809 169.823 13.6848C173.937 11.8623 177.478 10.3869 180.446 9.27597C180.915 8.54695 181.019 8.18245 180.776 8.19981C180.342 8.19981 177.287 9.41485 171.629 11.8449" fill="#5E5E5E"/>
<path d="M104.489 11.0641C98.7959 13.5462 95.5674 15.0216 94.821 15.5076C94.4912 15.7506 94.335 16.2888 94.335 17.1046C94.335 17.3302 94.6127 17.6253 95.1334 18.0245C95.6715 18.4064 96.0534 18.5973 96.3137 18.5973C96.6088 18.5973 96.7651 18.3022 96.7998 17.7294C96.0534 17.5385 95.4285 17.174 94.9078 16.6706C95.55 16.1673 98.1364 14.9175 102.667 12.9214C106.78 11.0988 110.321 9.62343 113.29 8.51254C113.758 7.78353 113.862 7.41903 113.619 7.43638C113.185 7.43638 110.13 8.65142 104.472 11.0815" fill="#5E5E5E"/>
<path d="M75.2078 13.9106C70.8164 15.8199 68.3343 16.9655 67.7441 17.3473C67.4837 17.5383 67.3622 17.9375 67.3796 18.5797C67.3796 18.7533 67.5878 18.9963 68.0044 19.2914C68.421 19.5864 68.7161 19.7427 68.9244 19.7253C69.1501 19.7253 69.2715 19.4997 69.3062 19.0484C68.7334 18.8922 68.2475 18.6318 67.8482 18.2326C68.3516 17.8507 70.3477 16.8787 73.8365 15.3338C76.9956 13.9279 79.7382 12.7823 82.0294 11.9318C82.3939 11.3763 82.4807 11.0986 82.2724 11.0986C81.9426 11.0986 79.5819 12.0359 75.2078 13.9106Z" fill="#5E5E5E"/>
<path d="M75.2078 19.6388C70.8164 21.5482 68.3343 22.6938 67.7441 23.0756C67.4837 23.2666 67.3622 23.6658 67.3796 24.308C67.3796 24.4816 67.5878 24.7246 68.0044 25.0197C68.421 25.3148 68.7161 25.471 68.9244 25.4536C69.1501 25.4536 69.2715 25.2279 69.3062 24.7767C68.7334 24.6204 68.2475 24.3601 67.8482 23.9608C68.3516 23.579 70.3477 22.607 73.8365 21.0622C76.9956 19.6562 79.7382 18.5106 82.0294 17.6601C82.3939 17.1046 82.4807 16.8269 82.2724 16.8269C81.9426 16.8269 79.5819 17.7642 75.2078 19.6388Z" fill="#5E5E5E"/>
<path d="M179.995 0.770801C179.492 0.736086 179.11 1.413 178.884 2.80161C178.745 3.54798 178.624 4.29437 178.537 5.04075C178.312 4.62417 178.155 4.24233 178.034 3.92989C177.235 2.36771 176.472 1.60395 175.76 1.62131C175.361 1.62131 175.205 2.03793 175.291 2.85373C175.326 3.02731 175.534 3.23556 175.934 3.4612C176.333 3.68685 176.593 3.79102 176.697 3.75631C176.749 3.70423 176.801 3.63478 176.836 3.56535C177.409 4.05136 177.808 4.72833 178.034 5.5962C178.242 6.29051 178.433 6.6203 178.624 6.6203C178.763 6.65501 178.936 5.87394 179.11 4.31176C179.284 2.74958 179.579 1.9511 180.013 1.9511C180.221 1.9511 180.499 2.17674 180.863 2.6454C180.985 2.6454 181.071 2.47184 181.123 2.12469C181.21 1.76018 181.21 1.53451 181.123 1.44772C180.776 0.996422 180.394 0.770801 180.013 0.770801H179.995Z" fill="#5E5E5E"/>
<path d="M111.155 0.770801C110.652 0.736086 110.27 1.413 110.045 2.80161C109.906 3.54798 109.784 4.29437 109.697 5.04075C109.472 4.62417 109.315 4.24233 109.194 3.92989C108.395 2.36771 107.632 1.60395 106.92 1.62131C106.521 1.62131 106.365 2.03793 106.451 2.85373C106.486 3.02731 106.694 3.23556 107.094 3.4612C107.493 3.68685 107.753 3.79102 107.857 3.75631C107.91 3.70423 107.962 3.63478 107.996 3.56535C108.569 4.05136 108.968 4.72833 109.194 5.5962C109.402 6.29051 109.593 6.6203 109.784 6.6203C109.923 6.65501 110.097 5.87394 110.27 4.31176C110.444 2.74958 110.739 1.9511 111.173 1.9511C111.381 1.9511 111.659 2.17674 112.023 2.6454C112.145 2.6454 112.232 2.47184 112.284 2.12469C112.37 1.76018 112.37 1.53451 112.284 1.44772C111.936 0.996422 111.555 0.770801 111.173 0.770801H111.155Z" fill="#5E5E5E"/>
<path d="M79.7033 2.87068C79.5818 3.09633 79.4603 3.13106 79.2694 2.94013C78.6098 2.28054 78.3494 2.31526 78.0717 3.21785C77.8634 3.87744 77.7072 4.55439 77.5684 5.23134C77.1691 7.33161 76.1624 8.98058 74.3919 10.2303C72.8471 11.3239 71.094 11.9313 69.3583 12.5389C69.2888 12.5562 69.2194 12.5389 69.15 12.5389C69.15 12.5215 69.1326 12.4868 69.1152 12.4694C69.2888 12.3479 69.445 12.2264 69.6186 12.1223C71.4238 10.9941 73.2464 9.90051 75.0169 8.73755C75.5723 8.37304 76.0235 7.83498 76.4922 7.34897C76.5616 7.27954 76.6137 7.10592 76.5963 6.98442C76.4748 5.85618 76.0235 4.84947 75.4854 3.87745C75.3813 3.70388 75.2598 3.63445 75.0515 3.77331C74.6523 4.03367 74.3746 3.72123 74.1142 3.49558C73.8712 3.26993 73.6282 3.00957 73.8538 2.6277C73.9753 2.43677 74.0968 2.24584 74.1836 2.03755C74.3572 1.6904 74.6349 1.58621 74.93 1.77715C75.2945 2.02015 75.6764 2.29787 75.9367 2.64502C76.5095 3.40876 76.7525 4.31135 76.9782 5.24866C77.0129 5.09244 77.0476 4.93624 77.0823 4.78003C77.2732 4.03365 77.4295 3.2699 77.6725 2.54088C77.8114 2.10694 78.0544 1.69039 78.3495 1.32588C78.6793 0.926661 79.0959 0.978733 79.4604 1.32588C79.9117 1.79454 79.981 2.31524 79.7033 2.87068Z" fill="#5E5E5E"/>
<path d="M125.058 40.5548C124.641 40.5375 124.329 41.0929 124.138 42.2385C124.017 42.8634 123.912 43.4709 123.843 44.0958C123.669 43.7486 123.531 43.4362 123.426 43.1758C122.767 41.874 122.125 41.2491 121.535 41.2665C121.205 41.2665 121.083 41.6136 121.153 42.2906C121.17 42.4295 121.361 42.603 121.691 42.794C122.02 42.9849 122.229 43.0717 122.316 43.037C122.368 42.9849 122.402 42.9329 122.42 42.8808C122.888 43.28 123.218 43.8355 123.426 44.5645C123.6 45.1373 123.756 45.415 123.913 45.415C124.034 45.4323 124.173 44.8075 124.312 43.5056C124.451 42.2038 124.711 41.5616 125.058 41.5616C125.232 41.5616 125.457 41.7525 125.77 42.1344C125.874 42.1344 125.943 41.9955 125.995 41.7004C126.065 41.4054 126.065 41.2145 125.995 41.145C125.7 40.7632 125.388 40.5896 125.075 40.5896L125.058 40.5548Z" fill="#5E5E5E"/>
<path d="M66.5807 1.03125C65.9732 1.03125 65.6087 1.67351 65.4699 2.95797C65.4352 4.20771 65.4177 5.11029 65.4177 5.64837V5.70044C64.9317 4.60691 64.3415 3.73905 63.6472 3.06211C63.005 2.48931 62.4322 2.19423 61.9462 2.19423C61.6338 2.19423 61.4775 2.66286 61.4775 3.58282C61.4775 3.72168 61.7553 3.94733 62.2934 4.29448C62.8315 4.62428 63.1787 4.79787 63.3002 4.79787C63.3696 4.79787 63.439 4.65897 63.4911 4.38125C63.8035 4.55482 64.168 5.04085 64.602 5.80458C64.9839 6.44681 65.1921 6.88075 65.2268 7.1064C64.9144 7.1064 64.6366 7.34941 64.411 7.81807C64.22 8.18258 64.1159 8.5297 64.1159 8.87685C64.1159 9.03307 64.116 9.11989 64.168 9.11989C64.2375 9.11989 64.3242 8.98101 64.4631 8.72064C64.602 8.44292 64.7755 8.32145 64.9838 8.32145C65.3136 8.32145 65.5566 8.39086 65.7302 8.51236C65.1227 8.61651 64.602 8.89423 64.168 9.38024C63.6647 9.91832 63.4043 10.5432 63.4043 11.2549C63.4043 11.8277 63.682 13.2336 64.2201 15.4554C64.7582 17.9722 65.1573 19.8989 65.383 21.2528C65.4177 21.4264 65.4698 21.5479 65.5393 21.5653C65.6434 21.5653 65.6954 21.357 65.6954 20.9404C65.6954 20.4023 65.0706 17.1043 63.8209 11.0466C63.7862 10.7688 64.1507 10.4738 64.9144 10.1787C65.6781 9.86624 66.4071 9.6927 67.1188 9.62327C67.1882 9.62327 67.275 9.48439 67.3965 9.22403C67.518 8.96366 67.5528 8.73801 67.518 8.56443C67.4833 8.42557 67.2229 8.16524 66.7369 7.7313C66.2509 7.29736 65.9211 7.1064 65.7475 7.1064C65.817 5.59629 65.8864 4.27714 65.9384 3.16625C65.9384 2.55874 66.1988 2.2463 66.7022 2.2463C67.0493 2.2463 67.3271 2.41986 67.5701 2.76701C67.7263 2.99266 67.8478 2.99266 67.9172 2.76701C68.0214 2.19421 68.0214 1.84708 67.9172 1.76029C67.4486 1.29164 67.0146 1.04862 66.6154 1.04862L66.5807 1.03125Z" fill="#5E5E5E"/>
<path d="M172.34 44.5472L174.545 42.0477C174.545 42.0477 175.135 40.4508 174.094 40.364C173.052 40.2772 171.056 42.3081 167.498 42.256C163.939 42.2039 163.089 40.7112 162.898 40.6071C162.707 40.5029 162.29 41.5443 162.603 41.77C162.915 41.9956 163.749 43.5752 163.54 44.6687C163.54 44.6687 164.495 43.662 163.905 42.6205C163.905 42.6205 165.606 44.0091 168.938 43.3148C172.271 42.6205 173.243 41.4749 173.799 41.5617C174.354 41.6485 173.608 42.447 173.347 42.7594C173.087 43.0718 172.41 44.148 172.34 44.5472Z" fill="#5E5E5E"/>
<path d="M89.0935 42.3942C88.8679 43.0885 88.6769 43.8001 88.3992 44.4597C88.1909 44.9631 87.7917 45.345 87.1495 45.2582C86.6114 45.1888 86.1948 44.8243 86.1254 44.13C86.0559 43.3836 85.9692 42.5677 86.1775 41.8561C86.6288 40.2592 87.2537 38.7144 87.8091 37.1522C87.8438 37.0654 87.9132 36.9786 87.9653 36.8918C88.0173 36.9092 88.0694 36.9266 88.1215 36.9439C88.0347 37.2911 87.9479 37.6382 87.8437 38.0028C87.5139 39.2004 87.1321 40.3807 86.8543 41.5784C86.7676 41.9429 86.8543 42.3942 86.9585 42.7587C87.1841 43.5398 87.8264 43.6786 88.3472 43.0538C88.6075 42.7413 88.7985 42.3942 89.0935 41.9603C89.0935 42.1512 89.1456 42.2727 89.0935 42.3768V42.3942Z" fill="#5E5E5E"/>
<path d="M100.793 44.5472L102.997 42.0477C102.997 42.0477 103.587 40.4508 102.546 40.364C101.504 40.2772 99.5082 42.3081 95.9499 42.256C92.3916 42.2039 91.541 40.7112 91.3501 40.6071C91.1591 40.5029 90.7426 41.5443 91.055 41.77C91.3675 41.9956 92.2006 43.5752 91.9923 44.6687C91.9923 44.6687 92.947 43.662 92.3568 42.6205C92.3568 42.6205 94.0578 44.0091 97.3905 43.3148C100.723 42.6205 101.695 41.4749 102.251 41.5617C102.806 41.6485 102.06 42.447 101.799 42.7594C101.539 43.0718 100.862 44.148 100.793 44.5472Z" fill="#5E5E5E"/>
<path d="M61.4604 58.5891V58.2767C62.3804 58.2073 62.4846 58.1378 62.4846 57.1832V52.8091C62.4846 51.8544 62.3804 51.785 61.4604 51.7155V51.3857H64.5501V51.7155C63.6302 51.7676 63.5434 51.8371 63.5434 52.8091V57.1832C63.5434 58.1378 63.6476 58.2073 64.5501 58.2767V58.5891H61.4604Z" fill="#3E1E58"/>
<path d="M75.2425 53.174C75.121 52.6185 74.9995 52.3234 74.8606 52.1325C74.6697 51.8721 74.4787 51.7853 73.6108 51.7853H72.8472V57.1835C72.8472 58.0688 72.9513 58.1903 74.0275 58.2597V58.5721H70.6775V58.2597C71.719 58.1903 71.8057 58.0688 71.8057 57.1835V51.7853H71.1461C70.1567 51.7853 69.9311 51.8895 69.7749 52.1325C69.636 52.3234 69.5318 52.6532 69.393 53.174H69.0459C69.098 52.4623 69.15 51.7159 69.1673 51.1084H69.4103C69.5839 51.3861 69.7228 51.3861 70.0526 51.3861H74.635C74.9474 51.3861 75.0516 51.3167 75.2252 51.1084H75.4681C75.4681 51.6118 75.5202 52.4796 75.5896 53.1392L75.2425 53.174Z" fill="#3E1E58"/>
<path d="M87.8088 60.4121C87.236 60.4295 86.6284 60.36 86.2813 60.2559C85.9168 60.1517 85.0141 59.7352 83.6081 58.7458C82.9312 58.7284 81.9072 58.4681 81.1781 57.7911C80.4665 57.1489 79.9805 56.1942 79.9805 55.1181C79.9805 53.0525 81.4732 51.23 83.9901 51.23C85.9688 51.23 87.7393 52.7054 87.7393 54.9272C87.7393 56.8712 86.4548 58.1556 85.0836 58.5722C85.7605 59.0061 86.8193 59.6831 87.8955 60.1691L87.8088 60.4121ZM84.3893 58.0515C84.5108 58.1036 84.6149 58.173 84.7017 58.2598C85.5869 58.0168 86.5069 57.0448 86.5069 55.2396C86.5069 52.9657 85.2745 51.6465 83.7123 51.6465C82.4105 51.6465 81.2302 52.7574 81.2302 54.8056C81.2302 56.6803 82.2196 58.0341 83.5735 58.3118L84.3893 58.0689V58.0515Z" fill="#3E1E58"/>
<path d="M96.3662 58.5889V58.2765C97.0778 58.1724 97.1646 58.0856 97.0258 57.6343C96.8696 57.2003 96.6612 56.6449 96.4182 56.0027H93.9882C93.7973 56.506 93.641 56.9399 93.5021 57.3739C93.2591 58.0508 93.346 58.1723 94.2139 58.2591V58.5715H91.7144V58.2591C92.4434 58.1376 92.5996 58.0682 93.0162 57.0788L95.3942 51.2987L95.7933 51.1946C96.5224 53.156 97.2514 55.1174 97.9978 57.0788C98.3623 58.0508 98.5185 58.1723 99.2475 58.2591V58.5715H96.3835L96.3662 58.5889ZM95.2553 52.7568H95.2379C94.8734 53.6768 94.5263 54.6141 94.1791 55.5167H96.262L95.2726 52.7568H95.2553Z" fill="#3E1E58"/>
<path d="M111.485 51.7331C110.86 51.7678 110.582 51.8893 110.53 52.3927C110.496 52.7572 110.461 53.2432 110.461 54.2846V58.7109H110.096L105.115 52.9481V55.6559C105.115 56.68 105.15 57.2007 105.184 57.5132C105.236 58.086 105.497 58.2248 106.278 58.2942V58.6067H103.57V58.2942C104.23 58.2422 104.507 58.1033 104.559 57.5479C104.611 57.2007 104.646 56.68 104.646 55.6559V53.2779C104.646 52.4621 104.612 52.4101 104.403 52.1497C104.16 51.872 103.935 51.7852 103.396 51.7505V51.4207H105.132L109.958 56.8883H109.992V54.302C109.992 53.2779 109.94 52.7746 109.923 52.4621C109.871 51.9414 109.61 51.8025 108.795 51.7505V51.4207H111.502V51.7505L111.485 51.7331Z" fill="#3E1E58"/>
<path d="M129.762 56.6976C129.606 57.2357 129.293 58.1036 129.102 58.4507C128.773 58.5202 127.766 58.7632 126.933 58.7632C124.017 58.7632 122.715 56.8365 122.715 55.0834C122.715 52.7574 124.607 51.23 127.228 51.23C128.2 51.23 129.016 51.4903 129.328 51.5424C129.415 52.1673 129.502 52.6533 129.571 53.2782L129.224 53.3476C128.911 52.1152 128.148 51.6292 126.915 51.6292C124.989 51.6292 123.947 53.1914 123.947 54.8403C123.947 56.9232 125.232 58.3292 127.002 58.3292C128.182 58.3292 128.825 57.7043 129.415 56.5587L129.745 56.6802L129.762 56.6976Z" fill="#3E1E58"/>
<path d="M138.615 58.5889V58.2765C139.326 58.1724 139.413 58.0856 139.274 57.6343C139.118 57.2003 138.91 56.6449 138.667 56.0027H136.237C136.046 56.506 135.89 56.9399 135.751 57.3739C135.508 58.0508 135.595 58.1723 136.462 58.2591V58.5715H133.963V58.2591C134.692 58.1376 134.848 58.0682 135.265 57.0788L137.643 51.2987L138.042 51.1946C138.771 53.156 139.5 55.1174 140.246 57.0788C140.611 58.0508 140.767 58.1723 141.496 58.2591V58.5715H138.632L138.615 58.5889ZM137.504 52.7568H137.487C137.122 53.6768 136.775 54.6141 136.428 55.5167H138.511L137.521 52.7568H137.504Z" fill="#3E1E58"/>
<path d="M148.838 51.3858C149.654 51.3858 150.296 51.5073 150.747 51.8544C151.198 52.1842 151.494 52.7049 151.494 53.434C151.494 54.8746 150.383 55.5689 149.289 55.7078C149.116 55.7252 148.873 55.7252 148.751 55.7078L147.901 55.4995V57.1832C147.901 58.1379 148.005 58.1899 149.029 58.2594V58.5718H145.87V58.2594C146.772 58.1899 146.876 58.0858 146.876 57.1658V52.7917C146.876 51.8024 146.772 51.7503 145.939 51.6982V51.3684H148.855L148.838 51.3858ZM147.901 55.1177C148.039 55.1697 148.352 55.2565 148.716 55.2565C149.428 55.2565 150.313 54.8746 150.313 53.4687C150.313 52.271 149.549 51.7677 148.647 51.7677C148.334 51.7677 148.109 51.8197 148.022 51.9065C147.953 51.9759 147.901 52.0974 147.901 52.4099V55.1177Z" fill="#3E1E58"/>
<path d="M155.989 58.5891V58.2767C156.909 58.2073 157.013 58.1378 157.013 57.1832V52.8091C157.013 51.8544 156.909 51.785 155.989 51.7155V51.3857H159.079V51.7155C158.159 51.7676 158.072 51.8371 158.072 52.8091V57.1832C158.072 58.1378 158.176 58.2073 159.079 58.2767V58.5891H155.989Z" fill="#3E1E58"/>
<path d="M169.754 53.174C169.633 52.6185 169.511 52.3234 169.372 52.1325C169.182 51.8721 168.991 51.7853 168.123 51.7853H167.359V57.1835C167.359 58.0688 167.463 58.1903 168.539 58.2597V58.5721H165.189V58.2597C166.231 58.1903 166.318 58.0688 166.318 57.1835V51.7853H165.658C164.669 51.7853 164.443 51.8895 164.287 52.1325C164.148 52.3234 164.044 52.6532 163.905 53.174H163.558C163.61 52.4623 163.662 51.7159 163.679 51.1084H163.922C164.096 51.3861 164.235 51.3861 164.564 51.3861H169.147C169.459 51.3861 169.563 51.3167 169.737 51.1084H169.98C169.98 51.6118 170.032 52.4796 170.101 53.1392L169.754 53.174Z" fill="#3E1E58"/>
<path d="M178.155 58.5889V58.2765C178.867 58.1724 178.954 58.0856 178.815 57.6343C178.659 57.2003 178.45 56.6449 178.207 56.0027H175.777C175.586 56.506 175.43 56.9399 175.291 57.3739C175.048 58.0508 175.135 58.1723 176.003 58.2591V58.5715H173.503V58.2591C174.232 58.1376 174.389 58.0682 174.805 57.0788L177.183 51.2987L177.582 51.1946C178.311 53.156 179.04 55.1174 179.787 57.0788C180.151 58.0508 180.308 58.1723 181.037 58.2591V58.5715H178.173L178.155 58.5889ZM177.044 52.7568H177.027C176.662 53.6768 176.315 54.6141 175.968 55.5167H178.051L177.062 52.7568H177.044Z" fill="#3E1E58"/>
<path d="M190.983 56.8016C190.914 57.1834 190.67 58.2422 190.566 58.5894H185.342V58.277C186.314 58.2075 186.418 58.1381 186.418 57.166V52.8267C186.418 51.872 186.348 51.8025 185.411 51.7331V51.4033H188.484V51.7331C187.598 51.7852 187.477 51.8546 187.477 52.8267V57.1314C187.477 57.7389 187.529 57.9472 187.737 58.0687C187.963 58.1902 188.345 58.2075 188.796 58.2075C189.386 58.2075 189.803 58.1381 190.046 57.8603C190.254 57.652 190.462 57.2876 190.653 56.7495L191 56.8189L190.983 56.8016Z" fill="#3E1E58"/>
<path d="M125.076 37.1701C125.076 38.5587 124.711 39.2704 123.982 39.2704H123.965C121.101 39.2704 119.313 36.3022 118.584 30.3833L117.265 19.8125C116.327 12.6959 115.147 6.60344 113.949 3.8783C113.915 3.77415 114.019 3.27076 114.262 2.33345C114.505 1.39614 114.661 0.92749 114.713 0.92749C114.8 0.92749 115.008 1.41352 115.39 2.35082C115.841 3.42699 116.206 4.50317 116.466 5.56199C116.987 7.61018 117.594 11.2553 118.046 14.1193C117.837 14.5185 117.664 14.9524 117.542 15.4037C117.334 16.1327 117.23 16.9138 117.23 17.7644C117.23 18.6149 117.508 19.205 118.028 19.4133C118.133 19.4654 118.237 19.5175 118.358 19.5869C118.514 19.6737 118.688 19.7778 118.844 19.8993C119.608 25.6099 120.059 28.9773 120.25 29.9841C120.944 34.2367 122.42 36.3543 124.659 36.3543H124.676C124.937 36.3717 125.058 36.6494 125.058 37.1701H125.076Z" fill="#5E5E5E"/>
<path d="M143.926 3.27074C143.926 4.38162 143.544 5.70078 142.763 7.21089C141.774 9.17229 140.472 11.2899 138.858 13.5291C138.233 14.3622 137.886 14.7614 137.799 14.692C137.764 14.6746 137.747 14.64 137.747 14.5705C137.747 14.3449 138.163 13.4249 138.997 11.828C139.83 10.2311 140.75 8.75572 141.739 7.38447C142.329 6.58602 142.624 5.97849 142.624 5.57927C142.624 4.88497 142.225 4.52048 141.427 4.52048C139.639 4.52048 135.195 6.49922 128.096 10.4567C122.299 13.6679 119.383 15.4557 119.383 15.8376C119.383 16.098 120.667 17.0006 123.219 18.5454C123.739 18.8578 123.965 19.0835 123.895 19.2397C123.809 19.3959 123.548 19.3786 123.08 19.205C122.923 19.1703 122.646 19.1182 122.229 19.0661C122.889 19.7084 125.336 21.4267 129.589 24.2387C132.921 26.4431 134.588 28.6301 134.588 30.8172C134.588 32.6571 134.293 33.9589 133.685 34.7574C132.817 35.9377 131.498 36.9618 129.745 37.7949C129.658 37.6213 129.589 37.4478 129.519 37.2568C129.294 36.6667 129.137 36.0418 129.051 35.4169C129.606 35.1913 130.196 34.931 130.769 34.6185C132.748 33.5597 133.755 32.7265 133.755 32.0669C133.755 30.7651 132.487 29.2029 129.953 27.3978C129.606 27.1547 129.242 26.8944 128.842 26.634C128.808 26.6167 128.79 26.5993 128.756 26.5819C124.59 23.8568 121.865 21.8086 120.58 20.42C119.973 19.7604 119.365 19.257 118.74 18.9272C118.619 18.8578 118.48 18.7884 118.358 18.7363C118.133 18.6322 118.011 18.3198 118.011 17.7643C118.011 16.9832 118.098 16.2715 118.289 15.6119C118.497 14.8829 118.827 14.2234 119.261 13.6158C120.476 11.9842 124.347 9.50209 130.925 6.1868C136.931 3.16658 140.75 1.65649 142.381 1.65649C143.44 1.65649 143.961 2.19457 143.961 3.27074H143.926Z" fill="#5E5E5E"/>
<path d="M125.892 36.2671C125.493 36.3192 125.093 36.3365 124.711 36.3365H124.694C123.965 36.3365 123.601 37.0482 123.601 38.4368C123.601 38.9749 123.722 39.2352 123.982 39.2526H124C124.677 39.2526 125.388 39.1832 126.1 39.0443C125.927 38.1591 125.857 37.2218 125.874 36.2498L125.892 36.2671Z" fill="#5E5E5E"/>
<path d="M93.2592 29.4633C93.2245 29.2377 92.8252 25.8182 92.0615 19.2397C91.4887 14.4837 90.8291 9.17228 90.0133 5.78755C89.7356 4.67666 89.3712 3.54845 88.9025 2.40285C88.5207 1.43083 88.2776 0.944824 88.1734 0.944824C88.1213 0.944824 87.9478 1.43083 87.6527 2.40285C87.3576 3.37488 87.2362 3.91295 87.2709 4.0171C88.8331 7.17617 90.2216 16.636 91.5408 29.9319C92.1657 36.1633 94.4222 39.2877 98.3277 39.2877C99.074 39.2877 99.4385 38.5934 99.4385 37.1875C99.4385 36.6494 99.2996 36.3716 99.0219 36.3716C95.8975 36.3716 93.9882 34.0804 93.2592 29.498" fill="#5E5E5E"/>
<path d="M104.403 25.9922L103.153 28.1619L100.202 26.4435L98.7441 29.0818L101.799 30.8697L103.031 28.6826L106 30.4183L107.458 27.78L104.403 25.9922Z" fill="#5E5E5E"/>
<path d="M110.686 40.0344L109.436 42.2215L106.485 40.4857L105.027 43.1241L108.065 44.9119L109.315 42.7248L112.265 44.4606L113.724 41.8396L110.686 40.0344Z" fill="#5E5E5E"/>
<path d="M105.236 34.6885C104.541 33.9247 104.351 33.161 104.68 32.4146C104.75 32.2237 104.75 32.1022 104.68 32.0675C104.507 31.9633 104.246 32.1543 103.917 32.6229C103.274 33.5776 102.754 34.3586 102.372 34.9835C101.539 35.7993 100.428 36.2507 99.0391 36.3201C98.2928 36.3201 97.9282 37.0144 97.9282 38.4203C97.9282 38.9584 98.0671 39.2361 98.3448 39.2361C100.358 39.2361 102.094 37.9517 103.569 35.3828C103.743 36.3548 104.003 37.0317 104.333 37.3962C104.854 38.0038 105.548 38.3162 106.416 38.3683C107.162 38.3683 107.527 37.674 107.527 36.268C107.527 35.7299 107.388 35.4522 107.11 35.4522C106.364 35.4522 105.739 35.1918 105.236 34.6885Z" fill="#5E5E5E"/>
<path d="M116.432 40.5544L114.974 43.1755L118.029 44.9807L119.487 42.3423L116.432 40.5544Z" fill="#5E5E5E"/>
<path d="M117.022 30.3309C116.71 29.6887 116.484 29.3589 116.328 29.3589C116.258 29.3589 116.12 29.7581 115.963 30.5566C115.79 31.355 115.72 31.8237 115.72 31.9625C116.293 33.004 116.571 33.6115 116.571 33.8024C116.571 33.9934 116.31 34.2017 115.79 34.4099C115.252 34.6877 114.627 34.8265 113.95 34.8265C113.186 34.8265 112.804 35.5208 112.804 36.9268C112.804 37.4301 112.943 37.6905 113.221 37.6905C116.189 37.6905 117.664 36.1978 117.664 33.2123C117.664 32.1187 117.456 31.1641 117.057 30.3135L117.022 30.3309Z" fill="#5E5E5E"/>
<path d="M111.623 33.7499C111.172 33.2291 110.946 32.7778 110.946 32.4307C110.981 31.9794 110.946 31.7364 110.825 31.7017C110.668 31.667 110.443 31.9968 110.148 32.7258L109.627 34.1491C109.106 34.9823 108.238 35.3989 107.058 35.3989C106.294 35.3989 105.913 36.0932 105.913 37.4991C105.913 38.0719 106.051 38.3496 106.329 38.3496C107.926 38.3496 109.002 37.6553 109.575 36.2494C109.801 35.6419 109.992 35.3121 110.096 35.2253C110.703 36.8569 111.745 37.6727 113.22 37.6727C113.949 37.6727 114.296 36.9784 114.296 35.5724C114.296 35.069 114.157 34.8087 113.862 34.8087C112.942 34.8087 112.196 34.4442 111.606 33.7325L111.623 33.7499Z" fill="#5E5E5E"/>
<path d="M84.65 6.62077C85.1013 7.10678 85.4658 7.48866 85.7261 7.76638C86.0212 8.07881 86.2295 8.23501 86.3336 8.23501C86.3683 8.0788 86.403 7.95732 86.4551 7.88789C86.1427 6.96794 85.7434 5.9612 85.2574 4.85032C84.1813 2.24668 83.6085 0.92749 83.5391 0.92749C83.4349 0.92749 83.2613 1.22255 82.9836 1.83007C82.6364 2.66323 82.3761 3.30549 82.2025 3.75678C82.1331 3.913 82.2719 4.12128 82.6364 4.399C82.6364 5.64875 83.2266 10.3353 84.4417 17.556C85.8129 25.1934 86.5419 30.1403 86.6634 32.3968C86.6981 33.039 86.6634 33.5597 86.5419 33.9763C86.1947 34.8963 84.0772 36.4584 80.2064 38.6802C75.9365 41.1623 72.5691 42.3948 70.0869 42.3948C65.2095 42.3948 62.7794 40.0341 62.7794 35.2955C62.7794 33.8548 63.0571 32.3274 63.6299 30.7305C63.7514 30.3139 63.8035 30.0188 63.8035 29.8278C63.8035 29.6716 63.7688 29.6022 63.682 29.6022C63.4737 29.6022 63.196 29.932 62.9009 30.5742C61.9462 32.7092 61.4775 34.9831 61.4775 37.3784C61.4775 37.8297 61.5123 38.2984 61.5991 38.8017C62.2413 43.3147 64.654 45.5885 68.8545 45.5885C71.7532 45.5885 75.2942 44.3561 79.4947 41.874C82.9315 39.8258 85.2575 38.0553 86.4899 36.5452C87.7222 35.0351 88.295 32.796 88.1735 29.8452C86.9411 20.8193 85.7956 12.7827 84.6673 6.63815L84.65 6.62077Z" fill="#5E5E5E"/>
<path d="M130.335 13.3206C130.144 13.5115 129.953 13.7371 129.762 13.9801C129.398 14.4488 129.085 14.9522 128.808 15.4903C128.53 16.0284 128.426 16.6185 128.46 17.226C128.46 17.3823 128.547 17.5037 128.686 17.5732C128.825 17.6426 128.946 17.712 129.085 17.7641C129.554 17.8683 130.023 17.8856 130.491 17.7814C130.96 17.6947 131.428 17.6079 131.88 17.5558C132.314 17.5037 132.748 17.4343 133.164 17.3302C133.581 17.226 134.015 17.2607 134.431 17.4169C134.605 17.469 134.761 17.6253 134.9 17.8683C135.039 18.1113 135.091 18.2501 135.039 18.2675C135.056 18.2675 134.883 18.3022 134.518 18.3543C134.154 18.4063 133.702 18.4758 133.182 18.5799C132.661 18.6667 132.105 18.7708 131.515 18.8576C130.925 18.9444 130.439 19.0312 130.022 19.1006C129.71 19.1354 129.38 19.1701 129.068 19.2048C128.755 19.2395 128.426 19.2048 128.113 19.1006C127.801 19.0486 127.506 18.9444 127.245 18.7882C126.985 18.6494 126.69 18.5105 126.377 18.3716C126.499 18.632 126.655 18.8576 126.811 19.0833C126.968 19.3089 127.141 19.5346 127.315 19.7602C127.488 19.9338 127.697 20.0379 127.94 20.1074C128.183 20.1768 128.408 20.1942 128.634 20.1942C129.554 20.1247 130.474 20.0032 131.394 19.8644C132.314 19.7255 133.216 19.5346 134.084 19.3263C134.275 19.2916 134.431 19.2569 134.588 19.2222C134.744 19.1874 134.9 19.118 135.056 19.0139C135.212 18.8924 135.334 18.7188 135.421 18.4931C135.49 18.2848 135.508 18.0592 135.473 17.8162C135.421 17.5732 135.334 17.3475 135.195 17.1218C135.056 16.8962 134.883 16.7053 134.657 16.5317C134.483 16.3928 134.275 16.3061 134.049 16.3061C133.824 16.3061 133.598 16.3061 133.373 16.3408C132.782 16.4276 132.175 16.5317 131.585 16.6532C130.995 16.7574 130.387 16.8268 129.797 16.8615C129.606 16.8615 129.398 16.8615 129.137 16.8268C128.877 16.7747 128.755 16.6706 128.79 16.497C128.842 16.254 128.946 16.011 129.085 15.7853C129.224 15.5597 129.38 15.334 129.519 15.091C129.71 14.8307 129.918 14.553 130.127 14.2752C130.335 13.9975 130.595 13.8066 130.908 13.6677C131.029 13.5983 131.116 13.6157 131.168 13.7025C131.22 13.7892 131.29 13.8413 131.342 13.8934C131.394 13.7198 131.446 13.5289 131.515 13.3206C131.585 13.1123 131.567 12.9387 131.446 12.7651C131.376 12.6436 131.307 12.6089 131.22 12.6436C131.133 12.6783 131.029 12.713 130.942 12.7478C130.699 12.9213 130.491 13.1123 130.3 13.3032L130.335 13.3206Z" fill="#5E5E5E"/>
<path d="M113.464 24.5858C113.307 24.5858 113.238 24.742 113.238 25.0371C113.238 25.7314 112.978 26.0959 112.457 26.0959C111.936 26.0959 111.676 25.6446 111.676 24.7594C111.676 23.77 111.954 22.5723 112.509 21.2184C112.7 20.663 112.787 19.8645 112.787 18.8404C112.787 17.0352 112.318 15.3168 111.398 13.6852C111.138 13.2339 110.947 13.0256 110.843 13.0256C110.773 13.0256 110.669 13.2339 110.53 13.6679C110.409 14.0844 110.339 14.3621 110.339 14.4663C110.339 14.5704 110.409 14.7093 110.565 14.8482C111.606 15.9938 112.11 17.4518 112.11 19.2223C112.11 20.0034 112.023 20.663 111.832 21.2184C111.311 22.5549 111.051 23.8221 111.051 25.0371C111.051 25.6967 111.225 26.2695 111.554 26.7555C111.815 27.2068 112.092 27.4151 112.388 27.4151C113.203 27.4151 113.603 26.7555 113.603 25.419C113.603 24.8635 113.55 24.5858 113.429 24.5858" fill="#5E5E5E"/>
<defs>
<linearGradient id="paint0_linear_328_3568" x1="3.19129" y1="6.02973" x2="20.0629" y2="20.0894" gradientUnits="userSpaceOnUse">
<stop stop-color="#B2B2B3"/>
<stop offset="0.15" stop-color="#AEADB0"/>
<stop offset="0.31" stop-color="#A39FA7"/>
<stop offset="0.49" stop-color="#918899"/>
<stop offset="0.68" stop-color="#786986"/>
<stop offset="0.86" stop-color="#59406D"/>
<stop offset="1" stop-color="#3E1E58"/>
</linearGradient>
<linearGradient id="paint1_linear_328_3568" x1="15.8098" y1="-0.964414" x2="56.496" y2="20.7847" gradientUnits="userSpaceOnUse">
<stop stop-color="#B2B2B3"/>
<stop offset="0.13" stop-color="#ACAAAE"/>
<stop offset="0.31" stop-color="#9C97A2"/>
<stop offset="0.54" stop-color="#83768E"/>
<stop offset="0.79" stop-color="#604A73"/>
<stop offset="1" stop-color="#3E1E58"/>
</linearGradient>
<linearGradient id="paint2_linear_328_3568" x1="-1.30457" y1="31.0425" x2="39.3815" y2="52.7915" gradientUnits="userSpaceOnUse">
<stop stop-color="#B2B2B3"/>
<stop offset="0.15" stop-color="#AEADB0"/>
<stop offset="0.31" stop-color="#A39FA7"/>
<stop offset="0.49" stop-color="#918899"/>
<stop offset="0.68" stop-color="#786986"/>
<stop offset="0.86" stop-color="#59406D"/>
<stop offset="1" stop-color="#3E1E58"/>
</linearGradient>
</defs>
</svg>
