<svg width="148" height="46" viewBox="0 0 148 46" fill="none" xmlns="http://www.w3.org/2000/svg">
<path d="M126.157 0.532715C132.865 0.532715 139.574 0.532715 146.29 0.532715C146.511 0.532715 146.741 0.532715 146.962 0.532715C147.107 0.532715 147.2 0.644834 147.209 0.800079C147.209 0.955324 147.209 1.11918 147.209 1.27443C147.209 4.73294 147.209 8.19145 147.209 11.6586C147.209 12.4866 147.209 12.5038 146.443 12.2364C144.683 11.6241 142.924 11.0203 141.164 10.408C140.994 10.3476 140.823 10.2786 140.653 10.2355C140.5 10.201 140.339 10.1838 140.186 10.1924C139.965 10.201 139.812 10.339 139.727 10.5374C139.633 10.7357 139.667 10.9341 139.803 11.1152C139.914 11.2618 140.058 11.3653 140.237 11.4257C140.517 11.5206 140.79 11.6155 141.062 11.7103C142.779 12.2968 144.505 12.8833 146.222 13.4784C146.495 13.5733 146.767 13.6768 147.039 13.7803C147.124 13.8148 147.183 13.8837 147.192 13.9872C147.192 14.0735 147.209 14.1684 147.209 14.2632C147.209 18.5238 147.209 22.7758 147.209 27.0364C147.209 27.1486 147.2 27.2607 147.192 27.3728C147.192 27.4591 147.098 27.5453 147.013 27.5453C146.903 27.5453 146.784 27.5625 146.682 27.5453C145.959 27.39 145.219 27.3383 144.496 27.1917C144.063 27.1055 143.612 27.0709 143.17 27.0106C142.728 26.9502 142.286 26.8726 141.844 26.8036C141.487 26.7432 141.138 26.6742 140.781 26.6311C140.602 26.6052 140.424 26.6138 140.245 26.6138C140.075 26.6138 139.948 26.7001 139.846 26.8381C139.574 27.2262 139.786 27.7609 140.254 27.8386C140.517 27.8817 140.781 27.9162 141.053 27.9679C141.47 28.0455 141.895 28.08 142.32 28.149C142.762 28.218 143.204 28.2957 143.646 28.3647C144.063 28.4336 144.488 28.4854 144.905 28.5458C145.372 28.6148 145.831 28.6924 146.299 28.7614C146.545 28.7959 146.784 28.8218 147.03 28.8563C147.115 28.8649 147.2 28.9511 147.2 29.0374C147.2 29.1754 147.217 29.3134 147.217 29.4427C147.217 32.3579 147.217 35.2731 147.217 38.1882C147.217 38.3435 147.2 38.5073 147.183 38.6626C147.183 38.6971 147.132 38.7402 147.09 38.7574C147.03 38.7833 146.962 38.7919 146.894 38.8006C146.716 38.8006 146.537 38.8006 146.358 38.8006C132.891 38.8006 119.432 38.8006 105.964 38.8006C105.743 38.8006 105.514 38.7919 105.293 38.7747C105.216 38.7747 105.123 38.6712 105.123 38.5935C105.123 38.1623 105.123 37.7311 105.123 37.2998C105.123 37.1705 105.259 37.0584 105.395 37.0411C105.48 37.0325 105.573 37.0239 105.667 37.0239C106.092 37.0066 106.517 36.998 106.942 36.929C107.274 36.8686 107.614 36.8945 107.954 36.8859C108.311 36.8772 108.668 36.86 109.025 36.7996C109.331 36.7479 109.654 36.7651 109.969 36.7479C110.326 36.7306 110.683 36.7306 111.04 36.6616C111.321 36.6099 111.618 36.6271 111.916 36.6099C112.366 36.5926 112.809 36.5926 113.259 36.515C113.565 36.4633 113.888 36.4805 114.203 36.4719C114.543 36.4633 114.875 36.446 115.206 36.3943C115.512 36.3425 115.835 36.3511 116.15 36.3425C116.575 36.3253 117 36.3167 117.425 36.2477C117.757 36.1873 118.097 36.2131 118.429 36.2045C118.743 36.1959 119.049 36.1786 119.364 36.1269C119.67 36.0751 119.993 36.0838 120.299 36.0751C120.682 36.0579 121.056 36.0493 121.438 35.9889C121.744 35.9371 122.068 35.9544 122.382 35.9371C122.739 35.9285 123.096 35.9113 123.453 35.8509C123.802 35.7991 124.168 35.8078 124.525 35.7991C124.882 35.7819 125.239 35.7733 125.596 35.7129C125.928 35.6611 126.268 35.6698 126.599 35.6612C126.939 35.6525 127.271 35.6611 127.603 35.5749C127.73 35.5404 127.866 35.549 128.002 35.5404C129.192 35.48 130.383 35.5145 131.573 35.5404C131.616 35.5404 131.667 35.5404 131.709 35.5404C132.423 35.6784 133.137 35.6267 133.86 35.6612C134.149 35.6698 134.438 35.687 134.727 35.7388C134.982 35.7819 135.212 35.6698 135.382 35.4714C135.68 35.1264 135.484 34.6952 135.17 34.5658C134.94 34.471 134.702 34.4278 134.447 34.4278C133.928 34.4278 133.418 34.4106 132.899 34.3933C132.627 34.3933 132.364 34.3933 132.1 34.3243C131.947 34.2898 131.786 34.2898 131.633 34.2898C130.468 34.264 129.303 34.2122 128.13 34.2812C127.815 34.2984 127.509 34.3071 127.194 34.3588C126.914 34.4106 126.616 34.3933 126.319 34.4106C125.919 34.4278 125.511 34.4278 125.111 34.5054C124.805 34.5658 124.482 34.5399 124.168 34.5572C123.768 34.5744 123.36 34.5831 122.96 34.6434C122.612 34.7038 122.246 34.6866 121.889 34.6952C121.6 34.7038 121.311 34.7211 121.022 34.7642C120.69 34.8159 120.35 34.8073 120.019 34.8246C119.661 34.8418 119.304 34.8504 118.947 34.9108C118.599 34.9712 118.233 34.9539 117.876 34.9626C117.519 34.9798 117.162 34.9884 116.805 35.0488C116.473 35.1092 116.133 35.0919 115.801 35.1006C115.461 35.1092 115.13 35.1006 114.798 35.1868C114.628 35.2299 114.441 35.2127 114.262 35.2213C113.684 35.2472 113.098 35.2213 112.52 35.3334C112.213 35.3938 111.89 35.3593 111.576 35.3765C111.261 35.3852 110.955 35.411 110.641 35.4542C110.266 35.5059 109.884 35.4973 109.501 35.5145C109.212 35.5232 108.923 35.549 108.634 35.5922C108.277 35.6439 107.92 35.6353 107.563 35.6525C107.18 35.6698 106.806 35.6784 106.423 35.7388C106.092 35.7905 105.752 35.7733 105.42 35.7819C105.259 35.7819 105.157 35.6957 105.157 35.5404C105.157 35.1092 105.157 34.6779 105.157 34.2467C105.157 34.1346 105.259 34.0483 105.378 34.0311C105.956 33.9535 106.534 33.8672 107.104 33.781C107.614 33.7033 108.124 33.6689 108.634 33.5999C109.144 33.5395 109.654 33.4705 110.164 33.3842C110.521 33.3239 110.879 33.3152 111.227 33.2462C111.729 33.1514 112.247 33.1255 112.758 33.0651C113.115 33.022 113.472 32.9961 113.82 32.9185C114.322 32.8064 114.849 32.8322 115.351 32.6942C115.419 32.677 115.487 32.6684 115.555 32.6684C116.184 32.6253 116.796 32.5131 117.417 32.4183C117.927 32.3407 118.437 32.2975 118.947 32.2371C119.1 32.2199 119.253 32.194 119.415 32.1682C119.551 32.1509 119.678 32.1164 119.814 32.1078C120.393 32.0646 120.971 31.9698 121.54 31.8663C121.651 31.849 121.761 31.8404 121.872 31.8318C122.119 31.8145 122.365 31.8059 122.603 31.7283C122.688 31.7024 122.782 31.7024 122.867 31.6938C123.47 31.642 124.066 31.5472 124.661 31.4523C124.856 31.4178 125.069 31.4437 125.264 31.4005C125.766 31.2798 126.285 31.2884 126.795 31.1849C127.279 31.0901 127.773 31.0642 128.257 31.0038C128.368 30.9866 128.478 30.9866 128.589 30.9607C129.26 30.8055 129.924 30.84 130.595 30.9607C130.748 30.9866 130.91 30.9952 131.063 31.0038C131.378 31.0211 131.692 31.0124 131.998 31.1073C132.058 31.1246 132.134 31.1246 132.202 31.1246C132.491 31.1246 132.772 30.9003 132.84 30.6157C132.908 30.3224 132.729 29.9947 132.44 29.9171C132.245 29.8653 132.049 29.805 131.845 29.805C131.148 29.805 130.468 29.6239 129.771 29.6239C129.32 29.6239 128.869 29.6066 128.436 29.7273C128.368 29.7446 128.3 29.7532 128.24 29.7532C127.594 29.7963 126.956 29.9085 126.31 30.012C125.783 30.0896 125.239 30.1327 124.712 30.1931C124.448 30.2276 124.185 30.288 123.913 30.3138C123.666 30.3397 123.419 30.357 123.181 30.4173C122.858 30.495 122.518 30.4863 122.187 30.5467C121.685 30.6416 121.166 30.6761 120.656 30.7364C120.214 30.7882 119.763 30.8313 119.321 30.9176C119.075 30.9607 118.828 30.9693 118.59 31.0124C118.063 31.1073 117.519 31.1246 116.992 31.2281C116.575 31.3057 116.15 31.3488 115.725 31.4005C115.461 31.4264 115.189 31.4609 114.926 31.5041C114.509 31.5731 114.084 31.5989 113.659 31.6679C113.174 31.7542 112.673 31.7455 112.196 31.849C111.686 31.9612 111.168 31.9094 110.666 32.0733C110.649 32.0733 110.624 32.0733 110.598 32.0733C109.952 32.1164 109.306 32.2285 108.668 32.332C108.158 32.4096 107.648 32.4441 107.138 32.5131C106.67 32.5735 106.211 32.6425 105.743 32.7115C105.607 32.7288 105.48 32.746 105.344 32.7546C105.267 32.7546 105.165 32.6598 105.157 32.5908C105.157 32.5649 105.148 32.5476 105.148 32.5218C105.148 32.0905 105.148 31.6593 105.148 31.2281C105.148 31.1332 105.208 31.0556 105.301 31.0297C105.454 30.9779 105.599 30.9262 105.752 30.9003C106.9 30.7192 108.039 30.4605 109.178 30.2276C109.969 30.0723 110.76 29.9344 111.55 29.7791C112.341 29.6239 113.132 29.4427 113.922 29.3047C114.756 29.1495 115.589 28.9511 116.431 28.8218C116.958 28.7355 117.485 28.6148 118.012 28.5113C118.803 28.3474 119.593 28.1835 120.384 28.0283C121.481 27.8127 122.578 27.597 123.674 27.3814C124.729 27.1744 125.783 26.9416 126.837 26.7691C127.611 26.6397 128.376 26.4672 129.141 26.2947C129.388 26.243 129.635 26.2257 129.873 26.2775C130.4 26.3896 130.935 26.4327 131.463 26.519C131.93 26.5966 132.389 26.6828 132.857 26.7518C133.299 26.8208 133.741 26.8639 134.192 26.9329C134.387 26.9588 134.591 27.0106 134.787 27.0451C134.948 27.0709 135.093 27.0364 135.238 26.9588C135.646 26.7605 135.629 26.1912 135.365 25.9842C135.297 25.9325 135.221 25.8721 135.135 25.8462C134.923 25.7859 134.702 25.7341 134.481 25.7083C134.192 25.6824 133.903 25.6134 133.614 25.5875C132.857 25.5099 132.109 25.3287 131.352 25.2598C130.91 25.2166 130.468 25.1045 130.026 25.0441C129.694 24.9924 129.354 24.9838 129.022 25.0441C128.58 25.1304 128.147 25.2166 127.705 25.3029C127.092 25.4236 126.48 25.553 125.86 25.6737C125.069 25.829 124.278 25.9756 123.487 26.1309C122.85 26.2516 122.212 26.381 121.574 26.5103C120.809 26.6656 120.036 26.8122 119.27 26.9675C118.395 27.1399 117.519 27.3297 116.635 27.4849C115.903 27.6057 115.181 27.7696 114.458 27.9162C113.557 28.1059 112.664 28.2957 111.754 28.4423C111.287 28.5199 110.828 28.6234 110.368 28.7183C109.603 28.8735 108.838 29.046 108.064 29.2013C107.163 29.3824 106.262 29.5462 105.361 29.7101C105.225 29.736 105.14 29.6756 105.131 29.5462C105.131 29.5204 105.131 29.5031 105.131 29.4772C105.131 29.4341 105.131 29.3824 105.131 29.3392C105.174 27.7696 104.842 28.1232 106.372 27.7178C108.277 27.2176 110.19 26.726 112.094 26.2171C114.348 25.6134 116.601 25.0269 118.854 24.4318C121.277 23.7936 123.708 23.1553 126.132 22.5171C127.194 22.2411 128.257 21.9651 129.32 21.6719C129.482 21.6287 129.618 21.6374 129.779 21.6719C130.502 21.8271 131.224 21.9737 131.947 22.1204C132.058 22.1376 132.168 22.1462 132.279 22.129C132.542 22.1031 132.772 21.8702 132.823 21.5942C132.865 21.3528 132.67 20.9992 132.44 20.9302C132.202 20.8612 131.964 20.818 131.718 20.7663C131.148 20.6455 130.578 20.542 130.009 20.4127C129.669 20.335 129.354 20.3437 129.014 20.4299C127.475 20.8525 125.936 21.2579 124.406 21.6633C123.47 21.9048 122.535 22.1462 121.608 22.3877C120.112 22.7845 118.624 23.1812 117.128 23.5779C116.192 23.8194 115.257 24.0609 114.331 24.3024C113.03 24.6474 111.729 24.9924 110.428 25.3374C109.476 25.5875 108.515 25.829 107.563 26.0791C106.934 26.243 106.304 26.4155 105.675 26.5793C105.565 26.6052 105.454 26.6138 105.344 26.6225C105.267 26.6225 105.148 26.5362 105.148 26.4672C105.148 26.036 105.14 25.6047 105.148 25.1735C105.148 25.0786 105.216 25.0096 105.301 24.9665C105.429 24.9148 105.548 24.8716 105.675 24.8285C107.716 24.1558 109.765 23.4744 111.814 22.8017C113.863 22.129 115.903 21.4476 117.952 20.7749C119.61 20.2229 121.277 19.6796 122.943 19.1362C124.61 18.5928 126.268 18.0409 127.934 17.4975C128.385 17.3509 128.835 17.2129 129.277 17.0749C129.456 17.0145 129.626 17.0059 129.805 17.0577C130 17.118 130.196 17.1525 130.391 17.2043C131.786 17.5493 133.171 17.8943 134.566 18.2306C134.651 18.2479 134.736 18.2824 134.829 18.291C135.144 18.3341 135.459 18.1013 135.527 17.7821C135.578 17.5234 135.374 17.1525 135.11 17.0835C134.787 17.0059 134.464 16.911 134.132 16.8334C132.721 16.4798 131.301 16.1348 129.898 15.7726C129.626 15.7036 129.371 15.7122 129.107 15.8071C128.665 15.9709 128.215 16.1089 127.764 16.2555C125.843 16.8852 123.93 17.5234 122.008 18.153C120.35 18.705 118.684 19.2483 117.017 19.7917C115.351 20.335 113.693 20.887 112.026 21.4304C110.385 21.9737 108.745 22.5171 107.104 23.0518C106.525 23.2416 105.947 23.4141 105.369 23.5952C105.259 23.6297 105.14 23.5348 105.14 23.4227C105.14 23.0173 105.14 22.6033 105.14 22.198C105.14 22.0427 105.242 21.9479 105.378 21.8961C105.692 21.7754 106.007 21.6546 106.321 21.5339C107.58 21.0423 108.83 20.5507 110.088 20.059C111.176 19.6278 112.256 19.1966 113.344 18.7653C114.679 18.2392 116.022 17.7131 117.357 17.187C118.718 16.6523 120.069 16.1089 121.421 15.5656C122.697 15.0653 123.972 14.5651 125.247 14.0649C126.395 13.6078 127.543 13.1507 128.691 12.7022C128.861 12.6332 129.031 12.5814 129.192 12.5038C129.456 12.383 129.711 12.4003 129.975 12.4779C130.595 12.6677 131.224 12.8488 131.845 13.0299C131.973 13.0644 132.109 13.0989 132.236 13.1075C132.432 13.1248 132.585 13.0385 132.695 12.8747C132.984 12.4607 132.746 12.0639 132.415 11.9173C132.355 11.8914 132.287 11.8742 132.219 11.8569C131.403 11.6154 130.587 11.374 129.771 11.1152C129.592 11.0635 129.422 11.0635 129.252 11.1325C128.521 11.4257 127.79 11.7017 127.058 11.9949C126.013 12.4003 124.967 12.8143 123.921 13.2283C122.773 13.6768 121.625 14.1339 120.478 14.591C119.185 15.0998 117.884 15.6087 116.592 16.1175C115.257 16.6437 113.922 17.1784 112.588 17.7045C111.499 18.1358 110.411 18.5583 109.331 18.981C108.2 19.4294 107.078 19.8779 105.947 20.3178C105.888 20.3437 105.82 20.3696 105.76 20.3954C105.131 20.6283 105.123 20.6542 105.131 19.9814C105.131 19.8434 105.131 19.7054 105.131 19.5674C105.131 18.8688 105.123 18.9896 105.692 18.7308C106.466 18.3772 107.24 18.0064 108.013 17.6441C109.195 17.1008 110.385 16.566 111.567 16.0227C112.137 15.7639 112.707 15.4966 113.285 15.2292C114.594 14.6255 115.895 14.0304 117.204 13.4266C117.731 13.1852 118.267 12.935 118.794 12.6935C120.061 12.1071 121.319 11.512 122.586 10.9341C123.768 10.3908 124.958 9.85602 126.14 9.31267C126.837 8.99355 127.526 8.66582 128.215 8.3467C128.58 8.17421 128.954 8.01895 129.32 7.84645C129.499 7.76021 129.66 7.76022 129.839 7.82921C130.646 8.11383 131.454 8.38119 132.262 8.65718C133.027 8.92455 133.784 9.19192 134.549 9.45066C134.676 9.49379 134.804 9.52829 134.94 9.53692C135.212 9.55417 135.476 9.34717 135.535 9.07981C135.595 8.77794 135.484 8.4933 135.246 8.38118C135.084 8.30356 134.914 8.24319 134.744 8.19144C133.809 7.87232 132.874 7.55322 131.939 7.23411C131.241 6.99261 130.536 6.75974 129.839 6.501C129.609 6.41475 129.413 6.432 129.192 6.52687C128.232 6.97536 127.271 7.41523 126.31 7.85509C125.128 8.39844 123.938 8.93318 122.756 9.47654C122.204 9.72665 121.651 9.9854 121.107 10.2355C120.376 10.5805 119.644 10.9255 118.905 11.2619C117.723 11.8052 116.533 12.3399 115.351 12.8833C114.841 13.1161 114.33 13.3576 113.82 13.5905C113.166 13.8924 112.52 14.1943 111.865 14.4961C110.658 15.0481 109.45 15.6001 108.251 16.1521C107.452 16.5143 106.661 16.8938 105.871 17.2647C105.709 17.3423 105.539 17.394 105.369 17.4544C105.293 17.4803 105.174 17.394 105.165 17.325C105.157 17.256 105.14 17.187 105.14 17.1267C105.14 16.9714 105.14 16.8075 105.14 16.6523C105.14 11.5551 105.14 6.45788 105.14 1.35205C105.14 1.14505 105.148 0.946693 105.157 0.7397C105.157 0.653452 105.25 0.567213 105.335 0.558588C105.539 0.549963 105.735 0.541322 105.939 0.541322C107.461 0.541322 108.991 0.541322 110.513 0.541322C115.742 0.541322 120.971 0.541322 126.2 0.541322L126.157 0.532715ZM136.98 14.1252C136.98 14.3754 137.108 14.5565 137.321 14.6686C137.397 14.7117 137.491 14.729 137.576 14.7549C137.814 14.8239 138.043 14.9015 138.281 14.9705C139.633 15.3758 140.977 15.7812 142.328 16.1866C142.524 16.2469 142.72 16.2987 142.915 16.3418C143 16.359 143.102 16.359 143.179 16.3418C143.519 16.2297 143.833 15.7553 143.527 15.3586C143.459 15.2724 143.366 15.1947 143.272 15.1516C143.043 15.0567 142.813 14.9791 142.575 14.9101C141.657 14.6341 140.73 14.3668 139.812 14.0908C139.208 13.9183 138.613 13.7371 138.009 13.5646C137.882 13.5301 137.746 13.5043 137.61 13.5043C137.236 13.487 136.972 13.7544 136.98 14.1339V14.1252ZM140.449 18.4117C140.322 18.4117 140.271 18.4117 140.228 18.4117C139.931 18.4204 139.693 18.6791 139.684 18.9896C139.684 19.2828 139.837 19.533 140.109 19.6106C140.407 19.6968 140.721 19.7658 141.019 19.8348C142.49 20.2057 143.969 20.5852 145.44 20.956C145.508 20.9733 145.568 20.9819 145.636 20.9905C145.916 21.025 146.171 20.8612 146.324 20.5507C146.409 20.3868 146.35 20.1108 146.171 19.9297C146.112 19.8693 146.035 19.8089 145.95 19.7744C145.831 19.7227 145.695 19.6796 145.568 19.6537C144.896 19.4898 144.216 19.3259 143.544 19.1621C142.634 18.9378 141.725 18.705 140.806 18.4721C140.653 18.4376 140.5 18.4117 140.432 18.4031L140.449 18.4117ZM142.941 24.2938C143.043 24.2765 143.162 24.2765 143.264 24.2334C143.451 24.1472 143.587 23.9919 143.655 23.7936C143.672 23.7332 143.68 23.6556 143.672 23.5952C143.604 23.3451 143.493 23.1295 143.213 23.0605C143.043 23.0173 142.864 22.9742 142.694 22.9397C142.141 22.8276 141.597 22.7241 141.045 22.612C140.084 22.4136 139.115 22.2066 138.154 22.0169C137.958 21.9738 137.754 21.9737 137.55 21.9737C137.278 21.9737 137.031 22.2066 136.997 22.474C136.963 22.7931 137.091 23.0173 137.346 23.1467C137.406 23.1726 137.474 23.1898 137.542 23.1985C138.196 23.3365 138.859 23.4744 139.514 23.6038C140.305 23.7677 141.096 23.9229 141.886 24.0868C142.235 24.1558 142.592 24.2248 142.949 24.3024L142.941 24.2938ZM142.728 32.2027C142.856 32.2027 142.907 32.2027 142.949 32.2027C143.281 32.2199 143.493 32.0388 143.638 31.7542C143.655 31.711 143.672 31.6679 143.672 31.6248C143.697 31.4178 143.51 31.0814 143.315 31.0124C143.085 30.9348 142.847 30.8658 142.592 30.8658C142.32 30.8658 142.048 30.8658 141.793 30.8054C141.461 30.7364 141.121 30.7364 140.789 30.7106C140.458 30.6847 140.126 30.6243 139.786 30.5898C139.472 30.5639 139.166 30.5467 138.851 30.495C138.434 30.426 138.001 30.426 137.576 30.3915C137.55 30.3915 137.533 30.3915 137.508 30.3915C137.193 30.4432 136.963 30.7192 136.972 30.9952C136.972 31.3143 137.176 31.5817 137.465 31.6334C137.508 31.6334 137.55 31.6507 137.601 31.6507C138.162 31.6765 138.706 31.8232 139.268 31.8059C139.336 31.8059 139.404 31.8145 139.463 31.8318C139.744 31.918 140.041 31.9094 140.33 31.9267C140.534 31.9439 140.73 31.9698 140.934 31.9956C141.555 32.0819 142.184 32.0647 142.719 32.194L142.728 32.2027ZM145.304 36.2735V36.2908C145.415 36.2908 145.525 36.2908 145.644 36.2908C146.001 36.2908 146.222 36.1183 146.333 35.756C146.358 35.6784 146.35 35.5749 146.333 35.4887C146.273 35.2472 146.112 35.0919 145.882 35.0316C145.755 34.9971 145.619 34.9712 145.491 34.9626C145.092 34.9453 144.684 34.9453 144.284 34.9367C144.08 34.9367 143.876 34.9539 143.68 34.9108C143.077 34.7987 142.473 34.8246 141.869 34.8073C141.487 34.7901 141.104 34.8073 140.73 34.7211C140.628 34.6952 140.509 34.6952 140.398 34.7124C140.143 34.7469 139.922 34.8504 139.786 35.0833C139.684 35.2558 139.676 35.4369 139.769 35.6008C139.914 35.8509 140.118 36.0061 140.415 36.0148C140.704 36.0148 141.002 36.0234 141.291 36.032C141.495 36.032 141.699 36.0148 141.895 36.0579C142.405 36.1614 142.924 36.1441 143.434 36.1614C143.927 36.1786 144.42 36.1614 144.905 36.2649C145.032 36.2908 145.177 36.2649 145.304 36.2649V36.2735Z" fill="#C7B380"/>
<path d="M59.1222 24.2354C54.0708 24.2354 49.0004 24.2354 43.949 24.2354C43.7194 24.2354 43.4707 24.2354 43.2411 24.2354C43.1071 24.2354 43.0306 24.1396 43.0306 24.0057C43.0306 23.1829 43.0306 22.3602 43.0306 21.5183C43.0306 21.3461 43.0306 21.193 43.0115 21.0208C43.0115 21.0017 42.9349 20.9634 42.8967 20.9634C42.8393 20.9825 42.7627 21.0208 42.7244 21.0782C42.4948 21.3078 42.2461 21.5375 42.0165 21.7671C40.9832 22.7429 39.8161 23.47 38.4576 23.8718C37.7114 24.1014 36.946 24.2354 36.1615 24.2354C35.7597 24.2354 35.3578 24.2354 34.956 24.2354C25.7335 24.2354 16.53 24.2354 7.30749 24.2354C7.09702 24.2354 6.88663 24.2354 6.67615 24.2354C4.38008 24.2545 2.14141 22.9533 0.935976 20.906C0.361959 19.9302 0.0366211 18.8778 0.0366211 17.7489C0.0366211 16.907 0.0366211 16.046 0.0366211 15.2041C0.0366211 15.0893 0.0366398 14.9745 0.0557737 14.8597C0.0940416 14.6109 0.228021 14.4197 0.457628 14.3048C1.03165 13.9796 1.72047 14.3622 1.77787 14.9936C1.77787 15.1658 1.77787 15.3189 1.77787 15.4911C1.77787 16.2182 1.77787 16.9644 1.77787 17.6915C1.77787 19.7389 3.25118 21.6905 5.24111 22.3028C5.68119 22.4368 6.12127 22.5133 6.56136 22.5133C6.96317 22.5133 7.36499 22.5324 7.7668 22.475C7.99641 22.4367 8.24514 22.475 8.47475 22.475C14.6741 22.475 20.8543 22.475 27.0537 22.475C27.3216 22.475 27.5704 22.4559 27.8383 22.4368C27.8383 22.4368 27.8956 22.3411 27.8765 22.322C27.7617 22.2072 27.6469 22.0923 27.5321 21.9775C26.5562 21.1165 25.81 20.1024 25.2551 18.9352C24.7576 17.8637 24.4898 16.754 24.4707 15.5868C24.4707 15.1658 24.4707 14.7449 24.4707 14.3048C24.4515 12.468 24.9873 10.8033 26.0205 9.31086C27.3982 7.32093 29.2541 6.03898 31.6268 5.50323C32.2008 5.36929 32.7939 5.29272 33.387 5.29272C34.1907 5.29272 34.9943 5.29272 35.7979 5.29272C38.1514 5.29272 40.1796 6.1155 41.9017 7.70362C43.3558 9.04299 44.2934 10.6694 44.6761 12.6211C44.7909 13.1568 44.8291 13.6926 44.8482 14.2474C44.8482 14.4388 44.8482 14.6301 44.8482 14.8214C44.8482 17.0601 44.8482 19.3179 44.8482 21.5566C44.8482 22.6281 44.7144 22.4942 45.7859 22.4942C47.2018 22.4942 48.6177 22.4942 50.0336 22.4942C50.244 22.4942 50.4546 22.4942 50.665 22.4942C50.7416 22.4942 50.8372 22.3985 50.8372 22.3028C50.8372 22.2263 50.8372 22.1688 50.8372 22.0923C50.8372 21.8818 50.8372 21.6714 50.8372 21.4609C50.8372 16.6009 50.8372 11.7217 50.8372 6.86172C50.8372 6.67038 50.8372 6.47907 50.8372 6.28773C50.8372 6.19206 50.8372 6.0964 50.8563 6.00073C50.9137 5.67545 51.1051 5.44581 51.4495 5.36928C51.7365 5.29274 52.0235 5.331 52.2722 5.48408C52.4827 5.61801 52.5975 5.82848 52.6166 6.07722C52.6357 6.30683 52.6358 6.55556 52.6549 6.78517C52.6549 6.84257 52.7698 6.89999 52.808 6.86172C52.8463 6.84259 52.8846 6.82344 52.9228 6.78517C53.0568 6.6895 53.1907 6.57475 53.3055 6.47908C54.3196 5.75199 55.4294 5.38843 56.6731 5.33103C56.807 5.33103 56.9601 5.33103 57.094 5.33103C62.7194 5.33103 68.3448 5.33103 73.9701 5.33103C74.659 5.33103 75.3478 5.38844 76.0175 5.52238C77.3377 5.79026 78.524 6.34513 79.6147 7.12962C81.2793 8.33506 82.4464 9.88487 83.1352 11.8174C83.8241 13.8073 83.8241 15.8164 83.1352 17.8063C82.1786 20.5807 80.3417 22.5324 77.6438 23.6805C76.5915 24.1205 75.4817 24.331 74.3337 24.331C69.2441 24.331 64.1735 24.331 59.0839 24.331L59.1222 24.2354ZM63.8674 22.4368C66.9862 22.4368 70.1051 22.4368 73.2239 22.4368C73.5492 22.4368 73.8936 22.4368 74.2189 22.4368C74.6207 22.4368 75.0225 22.4176 75.4243 22.3411C77.1464 22.0349 78.6197 21.2313 79.8251 19.9493C81.0497 18.6291 81.7577 17.041 81.8725 15.2424C81.9873 13.5969 81.5854 12.0471 80.667 10.6694C79.4424 8.79429 77.7204 7.64624 75.5391 7.18702C74.9842 7.07222 74.4102 7.07222 73.8553 7.07222C68.3256 7.07222 62.796 7.07222 57.2663 7.07222C57.0749 7.07222 56.8835 7.07222 56.6921 7.07222C56.3286 7.07222 55.9842 7.12962 55.6398 7.24442C54.1856 7.70364 53.2289 8.67943 52.7889 10.1336C52.6549 10.5928 52.6358 11.0712 52.6358 11.5304C52.6358 14.9171 52.6358 18.2847 52.6358 21.6714C52.6358 22.5516 52.5593 22.4559 53.4395 22.4559C56.9027 22.4559 60.3851 22.4559 63.8483 22.4559L63.8674 22.4368ZM34.6691 7.05307C34.1525 7.05307 33.6359 7.05307 33.1193 7.05307C32.5644 7.05307 32.0477 7.14875 31.512 7.30182C29.8282 7.7993 28.4697 8.77513 27.4747 10.2293C26.7476 11.3008 26.2884 12.4871 26.231 13.7882C26.1927 14.5727 26.1927 15.338 26.2693 16.1225C26.2884 16.3139 26.3267 16.5052 26.3649 16.6774C26.5563 17.5767 26.9198 18.3804 27.4173 19.1457C28.6418 21.0209 30.938 22.475 33.4445 22.4176C34.2481 22.4176 35.0518 22.4176 35.8554 22.4176C36.2572 22.4176 36.659 22.3985 37.0608 22.322C37.9219 22.1689 38.7445 21.8436 39.4908 21.4035C41.4233 20.2746 43.1071 17.9211 43.0306 15.2424C43.0306 14.8406 43.0306 14.4388 43.0306 14.0369C43.0306 13.5203 42.954 13.0037 42.82 12.5063C42.38 10.8416 41.4616 9.5022 40.1031 8.46896C38.8402 7.51227 37.4243 6.99565 35.8171 7.03392C35.4344 7.03392 35.0708 7.03392 34.6881 7.03392L34.6691 7.05307Z" fill="#5E5E60"/>
<path d="M126.183 44.5416C119.46 44.5416 112.729 44.5416 106.006 44.5416C105.785 44.5416 105.556 44.534 105.335 44.5263C105.25 44.5263 105.157 44.4421 105.148 44.3733C105.14 44.2967 105.123 44.2125 105.123 44.136C105.123 43.1487 105.123 42.1537 105.123 41.1664C105.123 41.1052 105.123 41.044 105.131 40.9827C105.148 40.8297 105.259 40.7302 105.446 40.7225C105.666 40.7149 105.896 40.7148 106.117 40.7148C112.661 40.7148 119.214 40.7148 125.758 40.7148C132.302 40.7148 139.39 40.7148 146.206 40.7148C146.452 40.7148 146.699 40.7148 146.945 40.7301C147.081 40.7301 147.2 40.8449 147.209 40.9674C147.209 41.0516 147.217 41.1281 147.217 41.2123C147.217 42.1843 147.217 43.1487 147.217 44.1207C147.217 44.1972 147.209 44.2814 147.2 44.358C147.2 44.4345 147.107 44.511 147.03 44.5187C146.962 44.5187 146.894 44.534 146.826 44.534C146.622 44.534 146.427 44.534 146.223 44.534C139.543 44.534 132.863 44.534 126.174 44.534L126.183 44.5416Z" fill="#C7B380"/>
<path d="M91.1161 24.5799C91.1161 28.4641 91.1161 32.3291 91.1161 36.2133C91.1161 36.7873 91.097 37.3422 91.0013 37.9163C90.6761 39.9253 89.7767 41.6282 88.3034 43.025C87.1171 44.1539 85.7203 44.9192 84.113 45.3019C83.6347 45.4167 83.1372 45.5124 82.6397 45.5124C81.8361 45.5124 81.0325 45.5124 80.2289 45.5124C80.1141 45.5124 79.9992 45.5124 79.8844 45.4933C79.6165 45.4359 79.4252 45.2828 79.3296 45.0149C79.2339 44.7279 79.2339 44.4601 79.3296 44.1922C79.4252 43.9817 79.5783 43.8478 79.7888 43.7904C79.9801 43.7521 80.1715 43.733 80.3437 43.733C80.9177 43.733 81.4725 43.733 82.0465 43.733C82.8119 43.733 83.5582 43.6373 84.2853 43.3885C87.1554 42.4127 88.8582 40.0018 89.2218 37.591C89.26 37.304 89.2792 37.0169 89.2792 36.7491C89.2792 36.4621 89.2792 36.175 89.2792 35.9072C89.2792 28.1388 89.2792 20.3513 89.2792 12.583C89.2792 12.3725 89.2792 12.162 89.2792 11.9515C89.2792 11.7984 89.3175 11.6262 89.3749 11.4732C89.4514 11.2627 89.6236 11.1288 89.8341 11.0714C90.0445 11.014 90.255 11.014 90.4655 11.0714C90.7717 11.1479 90.963 11.3392 91.0395 11.6454C91.0587 11.741 91.0587 11.8367 91.0778 11.9324C91.0778 12.1428 91.0778 12.3533 91.0778 12.5638C91.0778 16.5819 91.0778 20.6 91.0778 24.6182L91.1161 24.5799Z" fill="#5E5E60"/>
<path d="M50.1686 45.5303C49.2502 45.5303 48.3317 45.5303 47.4133 45.5303C47.0115 45.5303 46.6097 45.492 46.227 45.3581C44.9642 44.9563 43.8353 43.6743 43.7588 42.1245C43.7588 42.0479 43.7588 41.9905 43.7588 41.914C43.7588 41.4165 44.1415 40.9573 44.8303 41.1487C45.0982 41.2252 45.2703 41.4165 45.3277 41.7035C45.3659 41.8948 45.366 42.0862 45.4043 42.2584C45.5382 43.0812 46.1505 43.7126 46.9733 43.8848C47.1837 43.9231 47.3941 43.9422 47.6046 43.9422C49.3267 43.9422 51.0487 43.9422 52.7708 43.9422C52.8856 43.9422 53.0004 43.9422 53.1152 43.9422C54.1293 43.8465 54.9713 43.0046 54.9904 41.8949C54.9904 41.1104 54.6842 40.5172 53.9762 40.1728C53.7466 40.058 53.4979 39.9432 53.2683 39.8667C52.7708 39.7136 52.2542 39.6179 51.7376 39.5605C51.221 39.5031 50.7044 39.4075 50.2069 39.3309C49.8051 39.2735 49.4224 39.2161 49.0206 39.1587C48.3701 39.0631 47.7195 38.9291 47.0881 38.7378C46.8011 38.6421 46.514 38.5465 46.227 38.4125C45.9974 38.3169 45.7678 38.1829 45.5382 38.049C43.6631 36.9009 43.6248 34.8153 44.2562 33.5142C44.7345 32.5192 45.4999 31.8687 46.5714 31.5626C46.9158 31.4669 47.2602 31.4478 47.6238 31.4478C48.6379 31.4478 49.652 31.4478 50.6661 31.4478C51.3741 31.4478 52.082 31.4478 52.7899 31.4478C53.1918 31.4478 53.5936 31.4669 53.9762 31.6008C55.2773 32.06 56.1002 32.9593 56.4254 34.2987C56.4828 34.5857 56.5019 34.8536 56.4828 35.1406C56.4636 35.4659 56.2532 35.7146 55.9471 35.8294C55.6218 35.9442 55.2582 35.8294 55.0477 35.5615C54.9712 35.4659 54.9329 35.3511 54.8946 35.2363C54.8564 35.0258 54.8373 34.8153 54.799 34.6048C54.665 33.7629 53.7657 33.0741 53.0004 33.0358C52.8856 33.0358 52.7708 33.0358 52.6368 33.0358C50.9913 33.0358 49.3267 33.0358 47.6812 33.0358C47.3751 33.0358 47.0689 33.0359 46.7819 33.1698C46.0165 33.4951 45.5765 34.05 45.4999 34.8727C45.4234 35.7529 45.7679 36.3843 46.5141 36.8244C47.0498 37.1305 47.6238 37.341 48.2361 37.4367C49.1354 37.5898 50.0538 37.7237 50.9722 37.8576C51.7376 37.9724 52.5221 38.0872 53.2683 38.2786C53.6892 38.3742 54.0719 38.5273 54.4737 38.6995C54.8564 38.8717 55.2199 39.1205 55.5261 39.4075C56.081 39.905 56.4254 40.4981 56.5402 41.2252C56.6933 42.201 56.5401 43.1194 55.9661 43.9231C55.2582 44.9371 54.2824 45.492 53.0387 45.5303C52.0629 45.5303 51.1061 45.5303 50.1303 45.5303H50.1686Z" fill="#5E5E60"/>
<path d="M0 39.4657C0 37.9541 0 36.4426 0 34.931C0 34.7014 1.86859e-05 34.4526 0.0191526 34.223C0.133956 32.6541 1.53081 31.4868 2.85105 31.4294C3.04239 31.4294 3.23371 31.4294 3.42505 31.4294C4.80269 31.4294 6.16113 31.4294 7.53877 31.4294C8.05539 31.4294 8.5721 31.4486 9.06958 31.6208C10.8108 32.2139 11.9205 33.4194 12.3797 35.1988C12.8198 37.5906 11.5378 39.6953 9.49047 40.5372C9.31826 40.6137 9.12698 40.652 8.95478 40.7286C8.89738 40.7286 8.85905 40.8625 8.89732 40.9008C8.99299 41.0156 9.06957 41.1112 9.18438 41.226C10.0454 42.087 10.9255 42.9672 11.7866 43.8282C11.9205 43.9622 12.0545 44.0961 12.1693 44.2492C12.3223 44.4597 12.3988 44.7084 12.3223 44.9763C12.2266 45.2824 12.0161 45.4546 11.7291 45.512C11.4612 45.5694 11.2125 45.512 11.002 45.3015C10.8872 45.1867 10.7724 45.0719 10.6576 44.9571C9.47131 43.7708 8.28503 42.5846 7.09873 41.3983C7.00306 41.3026 6.88831 41.2069 6.79264 41.0921C6.62043 40.8816 6.42906 40.8434 6.16118 40.8434C4.78354 40.8434 3.42499 40.8434 2.04734 40.8434C1.97081 40.8434 1.91343 40.8434 1.8369 40.8434C1.74123 40.8434 1.64561 40.9199 1.64561 41.0156C1.64561 41.2069 1.64561 41.3982 1.64561 41.5895C1.64561 42.508 1.64561 43.4264 1.64561 44.3448C1.64561 44.517 1.64561 44.6701 1.64561 44.8423C1.60734 45.1676 1.33941 45.4546 0.995001 45.4929C0.880198 45.4929 0.765408 45.4929 0.650605 45.4929C0.363596 45.4546 0.134031 45.2059 0.095763 44.938C0.0574952 44.7275 0.0574578 44.5171 0.0574578 44.3066C0.0574578 42.6993 0.0574578 41.0921 0.0574578 39.4849L0 39.4657ZM4.86009 39.2361C5.68285 39.2361 6.50559 39.2361 7.34748 39.2361C7.48142 39.2361 7.63455 39.2361 7.76849 39.2361C8.70605 39.1787 9.50963 38.8152 10.1219 38.0881C10.7151 37.3801 10.9638 36.5574 10.7916 35.6389C10.562 34.3952 9.8157 33.5724 8.61027 33.1706C8.26585 33.0558 7.92147 33.0176 7.55792 33.0367C6.16115 33.0367 4.76437 33.0367 3.36759 33.0367C3.23365 33.0367 3.08064 33.0367 2.9467 33.0367C2.16221 33.1324 1.6073 33.8212 1.6073 34.4526C1.6073 34.5483 1.6073 34.644 1.6073 34.7396C1.6073 36.0599 1.6073 37.3801 1.6073 38.7004C1.6073 38.8152 1.6073 38.93 1.6073 39.0448C1.6073 39.1213 1.70292 39.217 1.79859 39.217C1.9708 39.217 2.12389 39.217 2.29609 39.217C3.13799 39.217 3.99905 39.217 4.84094 39.217L4.86009 39.2361Z" fill="#5E5E60"/>
<path d="M28.1072 31.4094C29.217 31.4477 30.0015 31.8877 30.5181 32.787C30.6329 32.9784 30.7095 33.1697 30.786 33.361C32.2593 36.9582 33.7518 40.5554 35.2251 44.1526C35.2825 44.3057 35.3399 44.4587 35.3973 44.6118C35.4738 44.8031 35.4164 44.9945 35.3208 45.1475C35.1677 45.4154 34.8998 45.5111 34.5937 45.4919C34.3449 45.4919 34.1536 45.358 34.0197 45.1284C33.9623 45.0327 33.924 44.9179 33.8857 44.8031C33.5604 44.0187 33.2351 43.2341 32.9099 42.4497C32.8525 42.3157 32.7951 42.1818 32.7377 42.0669C32.6995 41.9713 32.6038 41.933 32.5081 41.9139C32.4125 41.9139 32.3167 41.9139 32.2211 41.9139C29.5615 41.9139 26.8827 41.9139 24.2231 41.9139C23.783 41.9139 23.7448 41.8756 23.5535 42.3731C23.2473 43.1193 22.9411 43.8464 22.6158 44.5926C22.5393 44.7648 22.4819 44.9371 22.3862 45.1093C22.2331 45.3963 21.8887 45.5302 21.5252 45.4728C21.2382 45.4154 20.9894 45.1475 20.9512 44.8222C20.9512 44.7266 20.9512 44.6309 20.9703 44.5352C21.0277 44.363 21.0852 44.1717 21.1617 43.9995C22.6542 40.4023 24.1657 36.8243 25.6582 33.2271C25.6964 33.1123 25.7538 33.0166 25.7921 32.9018C26.2705 31.9069 27.0932 31.4476 28.0691 31.3711L28.1072 31.4094ZM28.2412 40.4023C29.2553 40.4023 30.2694 40.4023 31.2835 40.4023C31.4749 40.4023 31.6662 40.4023 31.8575 40.4023C31.9149 40.4023 31.9723 40.3067 31.9532 40.2493C31.9149 40.1536 31.8958 40.077 31.8575 39.9814C30.9965 37.9149 30.1355 35.8485 29.2553 33.782C29.2171 33.6672 29.1596 33.5715 29.1022 33.4567C28.9683 33.2462 28.777 33.0932 28.5474 33.0549C27.9925 32.9401 27.4759 33.0932 27.1888 33.6863C27.1314 33.8203 27.0741 33.9542 27.0167 34.069C26.7488 34.7195 26.4809 35.3701 26.1938 36.0207C25.6772 37.2644 25.1606 38.5081 24.644 39.7518C24.5866 39.9048 24.5293 40.0579 24.4719 40.211C24.4336 40.3066 24.5101 40.4023 24.6058 40.4023C24.7972 40.4023 24.9885 40.4023 25.1798 40.4023C26.1939 40.4023 27.2079 40.4023 28.222 40.4023H28.2412Z" fill="#5E5E60"/>
<path d="M67.5986 40.8625C67.5986 39.7336 67.5986 38.5856 67.5986 37.4567C67.5986 35.7346 68.2492 34.2804 69.4929 33.0941C70.373 32.2522 71.4063 31.7165 72.5926 31.506C72.9178 31.4486 73.2432 31.4294 73.5876 31.4294C74.2955 31.4294 75.0034 31.4294 75.7114 31.4294C75.8262 31.4294 75.941 31.4294 76.0558 31.4294C76.5341 31.4677 76.7256 31.8695 76.7256 32.2139C76.7256 32.6732 76.4385 32.9985 75.9985 33.0176C75.7114 33.0176 75.4244 33.0176 75.1566 33.0176C74.6399 33.0176 74.1233 33.0176 73.6067 33.0176C71.5594 33.0176 69.8564 34.51 69.3781 36.2895C69.3015 36.5956 69.2441 36.8826 69.2441 37.1888C69.2441 38.1072 69.2441 39.0256 69.2441 39.9441C69.2441 39.9823 69.2441 40.0397 69.2441 40.078C69.2441 40.1737 69.3398 40.2693 69.4164 40.2693C69.6269 40.2693 69.8374 40.2885 70.0478 40.2885C71.8273 40.2885 73.5875 40.2885 75.367 40.2885C75.5775 40.2885 75.788 40.2885 75.9985 40.2885C76.4768 40.3267 76.8021 40.7668 76.7064 41.2452C76.6299 41.6278 76.362 41.8575 75.9601 41.8766C75.7688 41.8766 75.5775 41.8766 75.3862 41.8766C73.5684 41.8766 71.7508 41.8766 69.933 41.8766C69.7991 41.8766 69.646 41.8766 69.512 41.8766C69.3016 41.8766 69.2251 41.9531 69.2251 42.1827C69.2251 42.8524 69.2251 43.503 69.2251 44.1726C69.2251 44.3448 69.2251 44.4979 69.2251 44.6701C69.1868 45.1868 68.8615 45.4738 68.3257 45.4355C68.1727 45.4355 68.0578 45.3781 67.9239 45.3015C67.7517 45.1867 67.6561 45.0145 67.6369 44.8423C67.5987 44.651 67.5986 44.4596 67.5986 44.2874C67.5986 43.1394 67.5986 41.9722 67.5986 40.8242V40.8625Z" fill="#5E5E60"/>
<path d="M90.198 2.46C89.1074 2.46 88.0167 2.46 86.9452 2.46C86.7348 2.46 86.5244 2.46 86.3139 2.4026C85.9121 2.32606 85.6251 1.94336 85.606 1.54155C85.606 1.10147 85.9312 0.718786 86.3712 0.642251C86.5243 0.623117 86.6965 0.604004 86.8687 0.604004C89.0883 0.604004 91.3078 0.604004 93.5273 0.604004C93.7187 0.604004 93.9101 0.603983 94.0823 0.642251C94.4841 0.718786 94.7711 1.10149 94.7902 1.5033C94.7902 1.90511 94.5032 2.30691 94.1014 2.38345C93.891 2.42171 93.6804 2.44084 93.47 2.44084C92.3793 2.44084 91.2887 2.44084 90.2172 2.44084L90.198 2.46Z" fill="#5E5E60"/>
<path d="M33.9798 0.624268C34.3816 0.624268 34.7834 0.624268 35.1852 0.624268C35.3766 0.624268 35.568 0.624247 35.7402 0.662514C36.142 0.73905 36.429 1.12171 36.4098 1.54266C36.4098 1.94447 36.1419 2.30802 35.7784 2.38456C35.6253 2.42282 35.4531 2.44196 35.2809 2.44196C34.3816 2.44196 33.4823 2.44196 32.5831 2.44196C32.4491 2.44196 32.2961 2.44198 32.1622 2.40371C31.7412 2.32717 31.4541 1.96362 31.4541 1.56181C31.4541 1.1026 31.7411 0.719916 32.1812 0.662514C32.3343 0.64338 32.5065 0.624268 32.6787 0.624268C33.0996 0.624268 33.5206 0.624268 33.9606 0.624268H33.9798Z" fill="#5E5E60"/>
</svg>
