<svg width="159" height="53" viewBox="0 0 159 53" fill="none" xmlns="http://www.w3.org/2000/svg">
<path d="M139.202 22.8713C139.385 23.2791 139.446 23.666 139.884 23.666C139.976 23.1536 140.067 22.589 140.067 21.9825C140.067 19.0025 137.685 16.5662 134.742 16.5662C131.8 16.5662 129.417 19.0025 129.417 21.9825C129.417 22.589 129.509 23.1536 129.601 23.666C130.039 23.666 130.1 23.2896 130.283 22.8713C131.118 21.0624 132.859 19.8913 134.742 19.8913C136.626 19.8913 138.367 21.0624 139.202 22.8713Z" fill="#01355F"/>
<path d="M146.378 22.7067C146.502 23.3813 146.596 23.666 147.074 23.666C147.136 23.1178 147.167 22.5802 147.167 22.0004C147.167 15.0956 141.599 9.46631 134.743 9.46631C127.886 9.46631 122.318 15.0956 122.318 22.0004C122.318 22.5802 122.349 23.1178 122.411 23.666C122.889 23.666 122.983 23.3813 123.107 22.7067C124.084 17.0774 128.987 12.8291 134.743 12.8291C140.498 12.8291 145.401 17.0774 146.378 22.7067Z" fill="#01355F"/>
<path d="M134.733 23.8173C134.569 23.8173 134.041 23.7568 133.85 23.666C133.295 23.9988 132.967 24.735 132.967 25.32C132.967 26.5403 133.914 27.2159 134.742 27.2159C135.571 27.2159 136.517 26.5403 136.517 25.32C136.517 24.735 136.18 24.0089 135.634 23.666C135.443 23.7568 134.915 23.8173 134.751 23.8173H134.733Z" fill="#01355F"/>
<path d="M133.408 52.0549C139.294 52.0549 145.978 50.0645 150.717 45.771C150.591 45.6147 150.465 45.5209 150.265 45.5209C150.108 45.5209 149.845 45.6147 149.561 45.8023C145.21 48.5221 140.345 49.8456 135.521 49.8456C127.786 49.8456 120.198 46.4067 115.048 39.706C111.465 35.0582 109.71 29.5664 109.71 24.0953C109.71 17.3634 112.368 10.694 117.644 5.9003C117.959 5.61893 118.159 5.3584 118.159 5.07703C118.159 4.95198 118.128 4.82694 118.033 4.73315C117.581 5.01452 117.077 5.36883 116.593 5.77525C110.256 11.2046 106.935 17.9991 106.935 26.0962C106.935 31.7548 108.795 37.2154 112.305 41.7694C117.55 48.5638 125.453 52.0653 133.419 52.0653L133.408 52.0549Z" fill="#01355F"/>
<path d="M97.3385 30.6725C97.019 30.5897 96.6166 30.5542 96.1196 30.5542V40.5058C96.1196 40.8134 96.2853 41.0028 96.6048 41.0737C96.9243 41.1447 97.3266 41.1921 97.8236 41.1921V31.2405C97.8236 30.9328 97.658 30.7435 97.3385 30.6725Z" fill="#01355F"/>
<path d="M93.918 33.7018C93.5512 33.3468 93.1134 33.0983 92.5927 32.9208C92.0839 32.7552 91.5041 32.6724 90.8769 32.6724C90.2498 32.6724 89.67 32.767 89.1493 32.9327C88.6287 33.1102 88.179 33.3823 87.8004 33.7373C87.4217 34.0923 87.1377 34.542 86.9366 35.0981C86.7354 35.6543 86.6289 36.2933 86.6289 37.0388C86.6289 37.7842 86.7354 38.3995 86.9366 38.9439C87.1377 39.4763 87.4336 39.926 87.8122 40.2928C88.1909 40.6597 88.6405 40.92 89.1612 41.0975C89.6818 41.2631 90.2616 41.3578 90.8888 41.3578C91.1964 41.3578 91.4449 41.3341 91.6343 41.2986C91.8236 41.2631 91.9774 41.1803 92.0958 41.062C92.2023 40.9437 92.2851 40.778 92.3206 40.5768C92.3679 40.3638 92.3797 40.1035 92.3797 39.7603H90.8888C90.025 39.7603 89.386 39.5237 88.9837 39.0504C88.5813 38.577 88.3683 37.9026 88.3683 37.0269C88.3683 36.1513 88.5695 35.4886 88.9837 35.0035C89.386 34.5302 90.025 34.2935 90.8888 34.2935C91.7526 34.2935 92.3916 34.5183 92.8057 34.9561C93.2199 35.4058 93.4211 36.0566 93.4211 36.9322V40.5177C93.4211 40.8253 93.5749 41.0146 93.8826 41.0856C94.1902 41.1566 94.5807 41.204 95.0659 41.204V37.0269C95.0659 36.2696 94.9712 35.6188 94.77 35.0626C94.5689 34.5183 94.2848 34.0687 93.918 33.7137V33.7018Z" fill="#01355F"/>
<path d="M83.4817 32.1517C83.4817 31.844 83.316 31.6547 82.9965 31.5837C82.6771 31.5127 82.2747 31.4653 81.7896 31.4653V38.2693C81.7896 38.6362 81.8606 38.9912 81.9908 39.3343C82.1328 39.6775 82.3221 39.997 82.5824 40.2691C82.8427 40.5413 83.1622 40.7661 83.529 40.9318C83.9077 41.0974 84.3336 41.1803 84.807 41.1803H85.3395C85.4696 41.1803 85.588 41.1566 85.6827 41.1093C85.7773 41.062 85.8602 40.9791 85.9075 40.8726C85.9667 40.7543 86.0021 40.5886 86.0258 40.3756C86.0495 40.1626 86.0613 39.8904 86.0613 39.5591H84.9016C84.4402 39.5591 84.0852 39.4408 83.8367 39.2041C83.5764 38.9675 83.458 38.648 83.458 38.2338V34.4236H85.4105C85.5406 34.4236 85.659 34.3999 85.7537 34.3644C85.8483 34.3289 85.9312 34.2461 85.9785 34.1278C86.0377 34.0094 86.0731 33.8438 86.0968 33.6426C86.1205 33.4296 86.1323 33.1693 86.1323 32.8262H83.4462V32.1398L83.4817 32.1517Z" fill="#01355F"/>
<path d="M79.9439 32.8617C79.6244 32.7907 79.2221 32.7434 78.7251 32.7434V40.494C78.7251 40.8017 78.8907 40.991 79.2102 41.062C79.5297 41.133 79.9321 41.1804 80.4291 41.1804V33.4297C80.4291 33.122 80.2634 32.9327 79.9439 32.8617Z" fill="#01355F"/>
<path d="M76.6546 33.7609C76.2877 33.3941 75.8381 33.1219 75.3056 32.9444C74.7849 32.7669 74.2051 32.6841 73.5779 32.6841C72.9508 32.6841 72.371 32.7669 71.8267 32.9326C71.2942 33.0983 70.8327 33.3586 70.4541 33.7017C70.0754 34.0449 69.7796 34.4827 69.5666 35.027C69.3536 35.5714 69.2471 36.2103 69.2471 36.944V44.0675C69.2471 44.3752 69.4009 44.5645 69.7086 44.6355C70.0162 44.7065 70.4067 44.7538 70.8919 44.7538V36.9203C70.8919 36.0447 71.1285 35.3939 71.59 34.9324C72.0515 34.4827 72.7141 34.2579 73.5779 34.2579C74.4417 34.2579 75.0808 34.5064 75.4831 34.9915C75.8854 35.4767 76.0865 36.163 76.0865 37.0268C76.0865 37.5356 76.0274 37.9616 75.8854 38.3048C75.7552 38.6479 75.5659 38.932 75.341 39.1449C75.1044 39.3579 74.8323 39.5118 74.5009 39.6064C74.1696 39.7011 73.8264 39.7484 73.4478 39.7484H72.0752C72.0752 40.0797 72.0988 40.3519 72.1343 40.5649C72.1698 40.7779 72.2527 40.9317 72.3592 41.05C72.4775 41.1684 72.6195 41.2394 72.8207 41.2867C73.01 41.3341 73.2584 41.3459 73.5661 41.3459C74.1932 41.3459 74.7731 41.2631 75.2937 41.0974C75.8144 40.9317 76.2641 40.6714 76.6427 40.3282C77.0095 39.9851 77.3054 39.5472 77.5184 39.0029C77.7313 38.4704 77.826 37.8196 77.826 37.0742C77.826 36.3287 77.7195 35.6897 77.5184 35.1335C77.3054 34.5774 77.0214 34.1277 76.6546 33.7609Z" fill="#01355F"/>
<path d="M66.8805 33.7018C66.5137 33.3468 66.0759 33.0983 65.5552 32.9208C65.0464 32.7552 64.4666 32.6724 63.8394 32.6724C63.2122 32.6724 62.6324 32.767 62.1118 32.9327C61.5911 33.1102 61.1415 33.3823 60.7628 33.7373C60.3842 34.0923 60.1001 34.542 59.899 35.0981C59.6978 35.6543 59.5913 36.2933 59.5913 37.0388C59.5913 37.7842 59.6978 38.3995 59.899 38.9439C60.1001 39.4763 60.396 39.926 60.7746 40.2928C61.1533 40.6597 61.6029 40.92 62.1236 41.0975C62.6442 41.2631 63.2241 41.3578 63.8512 41.3578C64.1589 41.3578 64.4074 41.3341 64.5967 41.2986C64.7861 41.2631 64.9398 41.1803 65.0582 41.062C65.1647 40.9437 65.2475 40.778 65.283 40.5768C65.3185 40.3638 65.3422 40.1035 65.3422 39.7603H63.8512C62.9874 39.7603 62.3485 39.5237 61.9461 39.0504C61.5438 38.577 61.3308 37.9026 61.3308 37.0269C61.3308 36.1513 61.532 35.4886 61.9461 35.0035C62.3485 34.5302 62.9874 34.2935 63.8512 34.2935C64.7151 34.2935 65.354 34.5183 65.7682 34.9561C66.1823 35.4058 66.3835 36.0566 66.3835 36.9322V40.5177C66.3835 40.8253 66.5373 41.0146 66.845 41.0856C67.1526 41.1566 67.5431 41.204 68.0283 41.204V37.0269C68.0283 36.2696 67.9336 35.6188 67.7324 35.0626C67.5313 34.5183 67.2473 34.0687 66.8923 33.7137L66.8805 33.7018Z" fill="#01355F"/>
<path d="M58.9518 39.0383C58.8927 38.9437 58.8335 38.849 58.7743 38.7662C58.7151 38.6833 58.656 38.6241 58.6087 38.565C58.1354 38.9436 57.6265 39.2277 57.0703 39.4406C56.5142 39.6536 55.8871 39.7483 55.1889 39.7483C54.6919 39.7483 54.2305 39.6773 53.8045 39.5235C53.3785 39.3696 53.0117 39.1448 52.704 38.8608C52.3964 38.5768 52.1478 38.2218 51.9703 37.7958C51.7928 37.3817 51.6982 36.8965 51.6982 36.3759C51.6982 35.9144 51.7692 35.4766 51.923 35.0624C52.0768 34.6483 52.2898 34.2933 52.5738 33.9856C52.8578 33.6779 53.2128 33.4295 53.627 33.252C54.0411 33.0745 54.5145 32.9916 55.0469 32.9916C55.4848 32.9916 55.8397 33.0271 56.1237 33.11C56.4077 33.181 56.6799 33.2993 56.9639 33.4531C57.0585 33.5005 57.165 33.5478 57.2952 33.5833C57.4253 33.6188 57.5318 33.6424 57.6028 33.6424C57.7685 33.6424 57.9105 33.607 58.017 33.5241C58.1354 33.4413 58.23 33.3466 58.3129 33.2165C58.3957 33.0981 58.4667 32.9561 58.514 32.8141C58.5732 32.6721 58.6205 32.5301 58.656 32.4C58.2537 32.1633 57.7685 31.9385 57.165 31.7255C56.5734 31.5125 55.8516 31.406 55.0232 31.406C54.2778 31.406 53.5915 31.5243 52.9762 31.7728C52.349 32.0213 51.8165 32.3526 51.3669 32.8023C50.9172 33.2401 50.5622 33.7726 50.3137 34.3879C50.0652 35.0032 49.9351 35.6777 49.9351 36.4114C49.9351 37.145 50.0415 37.8195 50.2663 38.4348C50.4912 39.0383 50.8225 39.559 51.2604 39.9968C51.6982 40.4346 52.2425 40.7659 52.8815 41.0144C53.5205 41.2511 54.2541 41.3694 55.0824 41.3694C55.9107 41.3694 56.6207 41.2629 57.2834 41.0618C57.946 40.8488 58.4785 40.5411 58.9045 40.1269C58.9519 40.0796 59.011 39.9968 59.0584 39.9021C59.1057 39.8075 59.1294 39.7009 59.1294 39.5944C59.1294 39.5353 59.1175 39.4525 59.0701 39.3578C59.0346 39.2631 58.9873 39.1566 58.9281 39.062L58.9518 39.0383Z" fill="#01355F"/>
<path d="M43.8058 33.6898C43.4508 33.3467 43.0248 33.0864 42.5278 32.9207C42.0308 32.755 41.4865 32.6722 40.8948 32.6722C40.6582 32.6722 40.4215 32.6959 40.173 32.7432C39.9245 32.7905 39.6761 32.8497 39.4394 32.9325C39.1909 33.0154 38.966 33.11 38.7412 33.2284C38.5164 33.3467 38.3271 33.4768 38.1614 33.6188V31.2286C38.1614 30.9209 38.0076 30.7316 37.6999 30.6606C37.3922 30.5777 37.0018 30.5422 36.5166 30.5422V40.4938C36.5166 40.8015 36.6704 40.9908 36.9781 41.0618C37.2858 41.1328 37.6763 41.1802 38.1614 41.1802V36.7901C38.1614 35.9618 38.4099 35.3346 38.9069 34.8968C39.4039 34.4708 40.0784 34.2578 40.9067 34.2578C41.6877 34.2578 42.2793 34.4827 42.6816 34.9323C43.084 35.382 43.2851 36.0446 43.2851 36.9203V40.5057C43.2851 40.8133 43.439 41.0026 43.7466 41.0736C44.0543 41.1446 44.4448 41.192 44.9299 41.192V36.9558C44.9299 36.2221 44.8353 35.5713 44.6341 35.0388C44.433 34.4945 44.1608 34.0567 43.8058 33.7135V33.6898Z" fill="#01355F"/>
<path d="M33.9961 33.7018C33.6293 33.3468 33.1915 33.0983 32.6709 32.9208C32.162 32.7552 31.5823 32.6724 30.9551 32.6724C30.328 32.6724 29.7481 32.767 29.2275 32.9327C28.7068 33.1102 28.2571 33.3823 27.8785 33.7373C27.4998 34.0923 27.2159 34.542 27.0147 35.0981C26.8135 35.6543 26.707 36.2933 26.707 37.0388C26.707 37.7842 26.8135 38.3995 27.0147 38.9439C27.2159 39.4763 27.5117 39.926 27.8903 40.2928C28.269 40.6597 28.7187 40.92 29.2393 41.0975C29.76 41.2631 30.3397 41.3578 30.9669 41.3578C31.2746 41.3578 31.5231 41.3341 31.7124 41.2986C31.9017 41.2631 32.0556 41.1803 32.1739 41.062C32.2804 40.9437 32.3632 40.778 32.3987 40.5768C32.4342 40.3638 32.4579 40.1035 32.4579 39.7603H30.9669C30.1031 39.7603 29.4641 39.5237 29.0618 39.0504C28.6595 38.577 28.4465 37.9026 28.4465 37.0269C28.4465 36.1513 28.6476 35.4886 29.0618 35.0035C29.4641 34.5302 30.1031 34.2935 30.9669 34.2935C31.8307 34.2935 32.4698 34.5183 32.8839 34.9561C33.2981 35.4058 33.4992 36.0566 33.4992 36.9322V40.5177C33.4992 40.8253 33.653 41.0146 33.9607 41.0856C34.2683 41.1566 34.6588 41.204 35.144 41.204V37.0269C35.144 36.2696 35.0493 35.6188 34.8482 35.0626C34.647 34.5183 34.363 34.0687 33.9961 33.7137V33.7018Z" fill="#01355F"/>
<path d="M24.6123 33.7608C24.2455 33.394 23.7958 33.1218 23.2752 32.9443C22.7545 32.7668 22.1748 32.684 21.5476 32.684C21.3109 32.684 21.0743 32.7077 20.8258 32.7432C20.5773 32.7787 20.3288 32.8379 20.0921 32.9207C19.8436 32.9917 19.6188 33.0863 19.4177 33.2047C19.2047 33.323 19.0272 33.465 18.8733 33.6188V31.2286C18.8733 30.9209 18.7195 30.7316 18.4118 30.6606C18.1042 30.5777 17.7137 30.5422 17.2285 30.5422V40.4938C17.2285 40.8015 17.3824 40.9908 17.69 41.0618C17.9977 41.1328 18.3882 41.1802 18.8733 41.1802V36.7901C18.8733 35.9618 19.11 35.3346 19.5951 34.8968C20.0684 34.459 20.7311 34.246 21.5594 34.246C22.3878 34.246 23.0622 34.4945 23.4645 34.9796C23.8669 35.4648 24.068 36.1511 24.068 37.0149C24.068 37.5237 23.997 37.9497 23.8668 38.2929C23.7367 38.6361 23.5474 38.92 23.3226 39.133C23.0859 39.346 22.8137 39.4998 22.4824 39.5945C22.1511 39.6892 21.8079 39.7365 21.4292 39.7365H20.0566C20.0566 40.0679 20.0803 40.34 20.1158 40.553C20.1513 40.766 20.2341 40.9198 20.3406 41.0381C20.4471 41.1565 20.601 41.2275 20.8021 41.2748C20.9914 41.3221 21.2399 41.334 21.5476 41.334C22.1748 41.334 22.7545 41.2511 23.2752 41.0855C23.7958 40.9198 24.2455 40.6595 24.6123 40.3163C24.991 39.9732 25.275 39.5354 25.488 38.991C25.701 38.4586 25.7956 37.8077 25.7956 37.0623C25.7956 36.3168 25.6892 35.6778 25.488 35.1216C25.275 34.5655 24.991 34.1158 24.6123 33.749V33.7608Z" fill="#01355F"/>
<path d="M15.1464 32.6724C14.5192 32.6724 13.9868 32.7788 13.5489 32.9918C13.1111 33.2048 12.7561 33.5007 12.4839 33.8793C12.2118 34.258 12.0106 34.7076 11.8923 35.2283C11.774 35.749 11.7148 36.3051 11.7148 36.8967V40.494C11.7148 40.8016 11.8687 40.991 12.1763 41.062C12.484 41.133 12.8745 41.1803 13.3597 41.1803V37.0388C13.3597 36.6838 13.3833 36.3406 13.4424 36.0093C13.5016 35.6779 13.6081 35.3821 13.7856 35.1336C13.9631 34.8733 14.1998 34.6721 14.5074 34.5065C14.8151 34.3526 15.2292 34.2698 15.738 34.2698C16.0102 34.2698 16.2232 34.1515 16.3534 33.9148C16.4954 33.6782 16.5782 33.3232 16.6019 32.8617C16.3179 32.7907 16.0575 32.7433 15.8209 32.7197C15.5842 32.696 15.3594 32.6842 15.1582 32.6842L15.1464 32.6724Z" fill="#01355F"/>
<path d="M6.50785 31.8914C6.42502 31.7967 6.33035 31.7257 6.20018 31.6666C6.08185 31.6074 5.92803 31.5719 5.76237 31.5601C5.5967 31.5482 5.38376 31.5364 5.1471 31.5364L0.4375 41.1803H1.21852C1.51435 41.1803 1.78645 41.1448 2.04678 41.062C2.29527 40.991 2.49643 40.8017 2.63843 40.494L3.44314 38.8019H8.08167L8.8863 40.494C9.0283 40.8017 9.22946 40.991 9.47796 41.062C9.72645 41.133 10.0104 41.1803 10.2944 41.1803H11.0872L6.72084 32.2464C6.64984 32.0925 6.56701 31.9742 6.49601 31.8795L6.50785 31.8914ZM4.18862 37.2636L5.78606 33.9503L7.33618 37.2636H4.17678H4.18862Z" fill="#01355F"/>
<path d="M97.0068 14.5087C96.6873 14.4377 96.285 14.3904 95.7998 14.3904V24.3183C95.7998 24.626 95.9537 24.8153 96.2732 24.8863C96.5926 24.9573 96.9949 25.0046 97.4801 25.0046V15.0767C97.4801 14.7691 97.3263 14.5797 96.995 14.5087H97.0068Z" fill="#01355F"/>
<path d="M96.5928 13.2188C96.4863 13.1951 96.4389 13.136 96.4389 13.0176C96.4389 12.852 96.6047 12.7573 96.936 12.7573C97.0425 12.7573 97.149 12.7691 97.2318 12.8046C97.3146 12.8401 97.3974 12.852 97.4684 12.852C97.5986 12.852 97.6933 12.7928 97.7525 12.6626C97.8116 12.5325 97.859 12.4141 97.9063 12.3076C97.788 12.2248 97.6341 12.1538 97.4448 12.0946C97.2673 12.0355 97.0661 12 96.865 12C96.7467 12 96.6046 12.0118 96.4508 12.0355C96.297 12.0592 96.155 12.1065 96.0248 12.1775C95.8946 12.2485 95.7881 12.3431 95.6935 12.4615C95.6106 12.5798 95.5633 12.7336 95.5633 12.9111C95.5633 13.0413 95.587 13.1478 95.6343 13.2188C95.6816 13.2898 95.7408 13.349 95.8237 13.3963L95.4568 13.4436C95.3385 13.4436 95.2438 13.5146 95.1965 13.6093C95.1492 13.7158 95.1255 13.9169 95.1255 14.2483L97.5039 14.0234C97.6459 13.9998 97.7406 13.9406 97.7879 13.846C97.8353 13.7395 97.8589 13.5383 97.8589 13.2188L96.936 13.2543C96.794 13.2543 96.6757 13.2543 96.5692 13.2188H96.5928Z" fill="#01355F"/>
<path d="M87.9429 28.3178C87.9429 28.6491 87.9665 28.9213 88.002 29.1343C88.0375 29.3473 88.1204 29.513 88.2269 29.6313C88.3452 29.7496 88.4872 29.8325 88.6884 29.8798C88.8777 29.9271 89.1262 29.9508 89.4338 29.9508C90.1793 29.9508 90.8302 29.8325 91.3982 29.5958C91.9662 29.3592 92.4394 29.0278 92.8299 28.59C93.2204 28.1522 93.5162 27.6315 93.7174 27.028C93.9186 26.4245 94.0132 25.7501 94.0132 25.0164V17.9876C94.0132 17.6799 93.8476 17.4906 93.5399 17.4196C93.2205 17.3486 92.8181 17.3013 92.333 17.3013V25.0282C92.333 25.4897 92.2856 25.9276 92.1791 26.3299C92.0726 26.7322 91.9188 27.0872 91.6822 27.3712C91.4573 27.667 91.1497 27.8918 90.7828 28.0693C90.416 28.235 89.9663 28.3297 89.4338 28.3297H87.9429V28.3178Z" fill="#01355F"/>
<path d="M87.0904 26.732C87.0904 26.4361 86.9839 26.1877 86.7827 25.9747C86.5697 25.7617 86.3212 25.667 86.0254 25.667C85.7296 25.667 85.481 25.7735 85.268 25.9747C85.0551 26.1758 84.9604 26.4361 84.9604 26.732C84.9604 27.0278 85.0669 27.2763 85.268 27.4893C85.481 27.7023 85.7296 27.797 86.0254 27.797C86.3212 27.797 86.5697 27.6905 86.7827 27.4893C86.9957 27.2763 87.0904 27.0278 87.0904 26.732Z" fill="#01355F"/>
<path d="M82.7598 24.0935C83.0202 24.3656 83.3397 24.5905 83.7065 24.7561C84.0852 24.9218 84.5111 25.0046 84.9845 25.0046H90.191V17.9639C90.191 17.6563 90.0253 17.467 89.7058 17.396C89.3863 17.325 88.9841 17.2776 88.4989 17.2776V22.6854C88.4989 22.8747 88.5462 23.0285 88.6527 23.135C88.7592 23.2415 88.9959 23.3243 89.3627 23.3717H85.0791C84.6177 23.3717 84.2626 23.2415 84.0141 22.9693C83.7656 22.6972 83.6355 22.3659 83.6355 21.9517V15.0767C83.6355 14.7691 83.4698 14.5797 83.1504 14.5087C82.8309 14.4377 82.4285 14.3904 81.9434 14.3904V22.0937C81.9434 22.4605 82.0144 22.8155 82.1446 23.1587C82.2866 23.5137 82.4759 23.8213 82.7362 24.0935H82.7598Z" fill="#01355F"/>
<path d="M80.8667 27.6316C80.8075 27.5251 80.7483 27.4423 80.6891 27.3594C80.63 27.2766 80.5709 27.2174 80.5235 27.1583C80.062 27.5369 79.5532 27.8209 78.997 28.0339C78.4409 28.2351 77.8138 28.3416 77.1156 28.3416C75.956 28.3416 75.104 28.0694 74.5596 27.5251C74.0153 26.9808 73.7077 26.1406 73.6367 25.0047H80.3223C80.4525 25.0047 80.5709 24.981 80.6655 24.9337C80.7602 24.8863 80.843 24.8035 80.8904 24.6852C80.9495 24.5668 80.985 24.4012 81.0087 24.1882C81.0323 23.9752 81.0442 23.703 81.0442 23.3717H80.7247C80.2987 23.3717 79.991 23.2534 79.8017 23.0285C79.6123 22.7919 79.5177 22.4724 79.5177 22.0582V20.6146C79.5177 19.8691 79.3994 19.2301 79.1746 18.7095C78.9497 18.1888 78.5947 17.7629 78.1451 17.4434C77.6954 17.112 77.1156 16.8754 76.4411 16.7334C75.7548 16.5914 74.9738 16.5085 74.0745 16.5085C73.7669 16.5085 73.5184 16.5322 73.329 16.5677C73.1397 16.6032 72.9859 16.686 72.8675 16.8044C72.761 16.9227 72.6782 17.0884 72.6427 17.2895C72.6072 17.5025 72.5835 17.7747 72.5835 18.106H73.9561C74.5596 18.106 75.1158 18.1415 75.601 18.2125C76.0861 18.2835 76.5003 18.4136 76.8434 18.5911C77.1866 18.7686 77.4469 19.029 77.6244 19.3485C77.8019 19.668 77.8966 20.0821 77.8966 20.5909V22.0819C77.8966 22.3067 77.9202 22.5315 77.9557 22.78C77.9912 23.0167 78.0977 23.2179 78.2634 23.3717H71.9209V24.6615C71.9209 25.478 72.0274 26.2234 72.2404 26.8743C72.4534 27.5251 72.7729 28.0813 73.1989 28.5309C73.6249 28.9806 74.1573 29.3237 74.8082 29.5722C75.4471 29.8207 76.2044 29.939 77.0564 29.939C77.861 29.939 78.5829 29.8325 79.2456 29.6314C79.9082 29.4184 80.4407 29.1107 80.8548 28.6966C80.9022 28.6492 80.9613 28.5664 81.0087 28.4717C81.056 28.3771 81.0797 28.2706 81.0797 28.1641C81.0797 28.1049 81.0678 28.0221 81.0205 27.9274C80.985 27.8328 80.9377 27.7263 80.8785 27.6316H80.8667Z" fill="#01355F"/>
<path d="M65.318 14.4021V24.33C65.318 24.6377 65.4837 24.827 65.7913 24.898C66.1108 24.969 66.5131 25.0163 66.9983 25.0163V15.0884C66.9983 14.7807 66.8326 14.5914 66.5131 14.5204C66.1937 14.4494 65.7913 14.4021 65.3062 14.4021H65.318Z" fill="#01355F"/>
<path d="M49.9118 24.9335C50.0064 24.8862 50.0774 24.8033 50.1366 24.685C50.1957 24.5667 50.2313 24.401 50.255 24.188C50.255 24.117 50.2668 24.046 50.2786 23.975C50.2786 23.975 50.3023 23.9987 50.3023 24.0105C50.6809 24.3537 51.1306 24.6022 51.6512 24.7678C52.1719 24.9335 52.7517 25.0163 53.3789 25.0163H63.6618V15.0884C63.6618 14.7807 63.4961 14.5914 63.1885 14.5204C62.869 14.4494 62.4666 14.4021 61.9815 14.4021V22.697C61.9815 22.8864 62.0288 23.0402 62.1353 23.1467C62.2418 23.2532 62.4785 23.336 62.8453 23.3834H57.6388V20.7919C57.6388 20.0583 57.5323 19.4193 57.3311 18.875C57.1181 18.3307 56.8341 17.8928 56.4673 17.5497C56.1005 17.2065 55.6508 16.9462 55.1302 16.7805C54.6095 16.6149 54.0297 16.532 53.4025 16.532C52.7754 16.532 52.1956 16.6149 51.6749 16.7805C51.1543 16.9462 50.7046 17.2065 50.326 17.5497C49.9473 17.8928 49.6633 18.3307 49.4622 18.875C49.261 19.4193 49.1545 20.0583 49.1545 20.7919C49.1545 21.5256 49.261 22.1764 49.4622 22.7089C49.5568 22.9574 49.6751 23.1704 49.8053 23.3834H46.3974C45.9359 23.3834 45.5809 23.2532 45.3324 22.9811C45.0839 22.7089 44.9538 22.3775 44.9538 21.9634V15.0884C44.9538 14.7807 44.7999 14.5914 44.4804 14.5204C44.1609 14.4494 43.7586 14.4021 43.2734 14.4021V22.1054C43.2734 22.4722 43.3445 22.8272 43.4747 23.1704C43.6166 23.5254 43.806 23.833 44.0663 24.1052C44.3266 24.3773 44.6461 24.6022 45.0129 24.7678C45.3798 24.9335 45.8175 25.0163 46.2908 25.0163H49.5923C49.7225 25.0163 49.8408 24.9927 49.9354 24.9453L49.9118 24.9335ZM51.462 18.7685C51.8761 18.307 52.5151 18.0822 53.3789 18.0822C54.2427 18.0822 54.8817 18.307 55.2958 18.7685C55.71 19.23 55.9111 19.8926 55.9111 20.7564V22.697C55.9111 22.8864 55.9584 23.0402 56.0649 23.1467C56.1596 23.2532 56.4081 23.336 56.775 23.3834H53.4972C53.1067 23.3834 52.7635 23.3479 52.444 23.265C52.1245 23.1822 51.8406 23.0402 51.6039 22.8391C51.3673 22.6379 51.1779 22.3657 51.0478 22.0226C50.9176 21.6794 50.8466 21.2653 50.8466 20.7564C50.8466 19.8926 51.0478 19.2181 51.462 18.7685Z" fill="#01355F"/>
<path d="M34.2327 23.8685C34.2919 23.9514 34.3629 24.0223 34.4339 24.1052C34.6942 24.3773 35.0137 24.6022 35.3805 24.7678C35.7592 24.9335 36.1852 25.0163 36.6585 25.0163H41.2971V15.0884C41.2971 14.7807 41.1314 14.5914 40.8119 14.5204C40.4924 14.4494 40.0901 14.4021 39.6049 14.4021V22.697C39.6049 22.8864 39.6523 23.0402 39.7588 23.1467C39.8653 23.2532 40.1019 23.336 40.4687 23.3834H36.765C36.3035 23.3834 35.9485 23.265 35.7001 23.0402C35.4516 22.8035 35.3214 22.484 35.3214 22.0699V17.2065C35.3214 16.8989 35.1675 16.7095 34.848 16.6385C34.5285 16.5675 34.1262 16.5202 33.641 16.5202V22.0936C33.641 22.4604 33.7121 22.8154 33.8423 23.1585C33.8659 23.2295 33.9014 23.3005 33.9369 23.3715H29.251V16.1179C29.251 15.8102 29.109 15.6209 28.8368 15.5499C28.5647 15.4789 28.1861 15.4316 27.6891 15.4316V17.4077H24.3521C23.8315 17.4077 23.3463 17.4905 22.8849 17.6562C22.4234 17.8218 22.021 18.0585 21.6779 18.378C21.3347 18.6975 21.0625 19.0998 20.8614 19.5731C20.6602 20.0583 20.5537 20.6026 20.5537 21.2297C20.5537 21.8569 20.6602 22.4012 20.8614 22.8746C21.0625 23.3479 21.3347 23.7384 21.6779 24.046C22.021 24.3537 22.4234 24.5903 22.8849 24.756C23.3463 24.9098 23.8315 24.9926 24.3521 24.9926H33.4991C33.6292 24.9926 33.7476 24.969 33.8423 24.9216C33.9369 24.8743 34.0198 24.7915 34.0671 24.6732C34.1263 24.5548 34.1617 24.3892 34.1854 24.1762C34.1972 24.0815 34.2091 23.9632 34.2091 23.8448L34.2327 23.8685ZM24.4941 23.3834C24.2338 23.3834 23.9617 23.3479 23.7013 23.265C23.441 23.194 23.2043 23.0639 23.0032 22.8864C22.802 22.7089 22.6364 22.4841 22.5062 22.2119C22.376 21.9398 22.3169 21.6084 22.3169 21.2061C22.3169 20.8984 22.3642 20.6026 22.4589 20.3186C22.5535 20.0465 22.6955 19.798 22.873 19.6086C23.0505 19.4075 23.2635 19.2536 23.5238 19.1353C23.7723 19.017 24.0563 18.9578 24.3758 18.9578H27.7009V22.6852C27.7009 22.8746 27.7482 23.0284 27.8547 23.1349C27.9612 23.2414 28.1979 23.3242 28.5765 23.3715H24.506L24.4941 23.3834Z" fill="#01355F"/>
<path d="M33.0377 25.667C32.7418 25.667 32.4933 25.7735 32.2803 25.9747C32.0673 26.1877 31.9727 26.4361 31.9727 26.732C31.9727 27.0278 32.0792 27.2763 32.2803 27.4893C32.4933 27.7023 32.7418 27.797 33.0377 27.797C33.3335 27.797 33.5819 27.6905 33.7949 27.4893C34.0079 27.2763 34.1026 27.0278 34.1026 26.732C34.1026 26.4361 33.9961 26.1877 33.7949 25.9747C33.5819 25.7617 33.3335 25.667 33.0377 25.667Z" fill="#01355F"/>
<path d="M36.8472 26.732C36.8472 26.4361 36.7407 26.1877 36.5395 25.9747C36.3266 25.7617 36.0781 25.667 35.7823 25.667C35.4865 25.667 35.238 25.7735 35.025 25.9747C34.812 26.1877 34.7173 26.4361 34.7173 26.732C34.7173 27.0278 34.8238 27.2763 35.025 27.4893C35.238 27.7023 35.4865 27.797 35.7823 27.797C36.0781 27.797 36.3266 27.6905 36.5395 27.4893C36.7525 27.2763 36.8472 27.0278 36.8472 26.732Z" fill="#01355F"/>
<path d="M25.3813 16.5203C25.6772 16.5203 25.9257 16.4138 26.1387 16.2127C26.3517 16.0115 26.4463 15.7512 26.4463 15.4553C26.4463 15.1595 26.3398 14.911 26.1387 14.6981C25.9257 14.4851 25.6772 14.3904 25.3813 14.3904C25.0855 14.3904 24.837 14.4969 24.624 14.6981C24.411 14.911 24.3164 15.1595 24.3164 15.4553C24.3164 15.7512 24.4228 15.9997 24.624 16.2127C24.837 16.4257 25.0855 16.5203 25.3813 16.5203Z" fill="#01355F"/>
<path d="M22.6484 16.5203C22.9443 16.5203 23.1928 16.4138 23.4058 16.2127C23.6188 16.0115 23.7134 15.7512 23.7134 15.4553C23.7134 15.1595 23.6069 14.911 23.4058 14.6981C23.1928 14.4851 22.9443 14.3904 22.6484 14.3904C22.3526 14.3904 22.1041 14.4969 21.8911 14.6981C21.6781 14.911 21.5835 15.1595 21.5835 15.4553C21.5835 15.7512 21.6899 15.9997 21.8911 16.2127C22.1041 16.4257 22.3526 16.5203 22.6484 16.5203Z" fill="#01355F"/>
<path d="M132.802 0.684174C145.135 1.81409 155.515 12.1285 155.515 24.3192C155.515 35.7324 146.51 45.3418 135.006 46.6376C134.335 46.7309 133.925 46.7931 133.925 47.2388C134.471 47.301 135.006 47.3321 135.584 47.3321C148.483 47.3321 159 36.8312 159 23.9149C159 10.9986 147.182 0 133.443 0C132.865 0 132.319 0.0621922 131.784 0.12439C131.784 0.528672 132.131 0.621987 132.802 0.69455V0.684174Z" fill="#01355F"/>
<path d="M142.424 27.3426C142.33 27.311 142.236 27.2793 142.173 27.2793C141.891 27.2793 141.723 27.5325 141.41 27.9545C139.789 30.0011 137.333 31.0877 134.824 31.0877C130.047 31.0877 126.43 27.1527 126.43 22.5743C126.43 22.1628 126.462 21.7092 126.524 21.2978C126.556 21.0129 126.587 20.823 126.587 20.6226C126.587 20.4011 126.524 20.2428 126.273 20.1162C125.228 21.8463 124.685 23.4393 124.685 25.296C124.685 30.0011 128.531 34.3159 133.685 34.3159C138.075 34.3159 141.222 31.2776 142.434 27.3426H142.424Z" fill="#01355F"/>
<path d="M134.151 36.0907C134.151 36.4039 134.429 36.6823 134.743 36.6823C135.056 36.6823 135.334 36.4109 135.334 36.0907C135.334 35.7705 135.056 35.499 134.743 35.499C134.429 35.499 134.151 35.7705 134.151 36.0907Z" fill="#01355F"/>
<path d="M121.418 31.457C121.323 31.457 121.229 31.4883 121.134 31.5509C123.824 37.2757 128.973 41.4155 136.002 41.4155C145.69 41.4155 151.9 33.2923 151.9 25.4819C151.9 22.4787 151.039 19.194 149.147 16.5662C148.927 16.6913 148.864 16.8477 148.864 17.0458C148.864 17.244 148.927 17.4838 149.053 17.8071C149.662 19.5485 149.977 21.3212 149.977 23.0522C149.977 30.6437 143.746 38.2872 134.594 38.2872C129.761 38.2872 125.064 36.0765 122.185 32.0931C121.901 31.7177 121.67 31.457 121.418 31.457Z" fill="#01355F"/>
<path d="M112.852 24.5178C112.852 34.6405 121.277 43.7823 131.414 43.7823C131.978 43.7823 132.511 43.751 133.034 43.6884C133.034 43.2188 132.757 43.1457 132.101 43.0518C122.866 41.6325 116.316 33.9726 116.316 24.6013C116.316 15.2299 123.43 6.4743 133.126 5.71248C133.782 5.64987 134.09 5.64985 134.151 5.1698C133.157 3.20787 130.379 1.18335 126.638 1.18335C124.455 1.18335 122.333 1.71555 119.904 3.20787C119.965 3.42702 120.119 3.45835 120.375 3.45835C120.56 3.45835 120.785 3.39574 121.062 3.30182C122.651 2.66523 124.239 2.50869 125.838 2.50869C128.37 2.50869 130.646 3.7401 131.107 4.98197C121.031 5.80639 112.862 14.2176 112.862 24.5073L112.852 24.5178Z" fill="#01355F"/>
</svg>
