<svg width="104" height="50" viewBox="0 0 104 50" fill="none" xmlns="http://www.w3.org/2000/svg">
<path d="M30.5536 0C30.2882 0.561454 29.9922 1.11267 29.7676 1.69454C29.6145 2.07225 29.3797 2.24581 28.9816 2.34789C26.8991 2.87872 24.8166 3.45039 22.7341 4.01184C22.683 4.02205 22.632 4.03223 22.5605 4.05265C22.5912 3.98119 22.6116 3.91995 22.6422 3.86891C22.9383 3.25641 23.2343 2.64393 23.5201 2.03143C23.5712 1.92935 23.6324 1.85788 23.7549 1.82726C25.9497 1.24539 28.1342 0.653336 30.329 0.0714653C30.4005 0.0510488 30.4617 0.0204165 30.523 0C30.5332 0 30.5434 0 30.5639 0H30.5536Z" fill="#28292B"/>
<path d="M83.5954 19.4979C82.4725 19.6408 78.6852 21.2436 77.1948 22.2031C77.1948 22.2236 77.205 22.244 77.2254 22.2644C77.6541 22.8054 77.6848 23.4281 77.5929 24.0814C77.3479 25.7862 76.5721 27.2358 75.3267 28.3893C73.5504 30.0431 71.5496 31.3906 69.2527 32.2174C68.6096 32.4522 67.9461 32.5951 67.252 32.493C66.9968 32.4522 66.7415 32.3705 66.5272 32.2378C66.1188 32.003 65.9861 31.5948 66.129 31.1456C66.4863 30.0737 67.0886 29.1549 67.793 28.2872C69.0588 26.7458 70.5594 25.4799 72.1825 24.3264C72.7848 23.8977 73.3973 23.5098 74.0098 23.1015C74.0609 23.0708 74.1017 23.03 74.1731 22.9891C73.8975 22.8156 73.6117 22.8258 73.336 22.8769C73.0502 22.9279 72.7644 22.9994 72.499 23.1015C71.7742 23.3567 71.08 23.6731 70.4573 24.1223C69.7734 24.6225 69.0895 25.1227 68.4055 25.6331C67.6501 26.1946 67.0478 26.8989 66.568 27.6952C65.7309 29.1141 64.7713 30.4616 64.1078 31.9725C63.7301 32.8402 63.0972 33.422 62.2295 33.7691C60.8922 34.3101 59.5039 34.7083 58.0645 34.8512C57.9318 34.8614 57.7991 34.8512 57.6664 34.8512C57.3193 34.8206 57.207 34.7082 57.2274 34.3714C57.2479 33.9937 57.2683 33.6058 57.3397 33.2383C57.6255 31.6866 57.9216 30.1451 58.2176 28.6037C58.2176 28.5526 58.2278 28.5119 58.238 28.4608C58.2176 28.4608 58.1972 28.4608 58.1972 28.4608C57.0131 29.6348 55.9105 30.8699 55.0837 32.3297C54.706 32.9933 54.4201 33.6976 54.0731 34.3816C53.8076 34.9226 53.532 35.4637 53.2462 35.9945C53.1952 36.0864 53.0829 36.1782 52.9706 36.1986C51.9702 36.4743 50.9596 36.7397 49.9081 37.0255C52.1948 31.707 54.461 26.4294 56.7374 21.1211C56.6762 21.1415 56.6251 21.1517 56.5843 21.1721C55.7779 21.5396 54.9714 21.9173 54.1547 22.2848C54.0118 22.346 53.92 22.4379 53.8587 22.5808C52.5521 25.6535 51.2454 28.716 49.9285 31.7887C49.1323 33.6568 48.3361 35.5351 47.5398 37.4033C47.4786 37.5462 47.4071 37.6176 47.2539 37.6585C46.274 37.9137 45.294 38.1688 44.3242 38.4342C44.2833 38.4444 44.2425 38.4547 44.1813 38.4649C44.2017 38.3832 44.2221 38.322 44.2425 38.2607C44.559 37.097 44.9061 35.9435 45.1817 34.7695C45.3859 33.9018 45.4267 33.0034 45.2225 32.1153C44.9265 30.7985 44.0179 30.0022 42.6807 29.8389C41.7823 29.7266 40.9044 29.8899 40.0367 30.0737C39.7611 30.1349 39.4854 30.1962 39.1996 30.2575C39.1282 30.2677 39.067 30.2574 38.9955 30.2676C38.9955 30.2472 38.9751 30.237 38.9648 30.2166C39.0261 30.1451 39.0873 30.0635 39.1588 30.0023C39.4957 29.7675 39.8223 29.5225 40.1796 29.2979C42.3642 27.9504 44.6304 26.756 46.8865 25.5514C48.0706 24.9185 49.265 24.2958 50.4594 23.6731C50.5921 23.6017 50.6839 23.5098 50.7452 23.3669C52.062 20.3861 53.3891 17.4155 54.706 14.4347C54.7672 14.2918 54.8591 14.2101 55.002 14.159C55.9514 13.8324 56.9008 13.4955 57.8501 13.1688C57.9114 13.1484 57.9625 13.128 58.0747 13.0973C56.7987 15.9761 55.5329 18.8242 54.2466 21.7131C56.3802 20.7025 58.4728 19.7225 60.6064 18.7119C59.1058 21.8764 57.6153 25.0104 56.1249 28.1341C56.1453 28.1341 56.1555 28.1545 56.176 28.1647C56.2168 28.1239 56.2678 28.0933 56.3087 28.0525C56.6353 27.7972 56.9518 27.542 57.2785 27.2868C57.993 26.7458 58.8199 26.4804 59.6672 26.266C60.3104 26.1027 60.9534 25.9394 61.6068 25.7658C61.6578 25.7556 61.7088 25.7454 61.8007 25.7352C61.7088 26.1639 61.617 26.5723 61.5251 26.9704C61.2392 28.2464 60.9126 29.5122 60.6676 30.7985C60.5247 31.5335 60.4941 32.2889 60.4124 33.0341C60.4022 33.1362 60.4124 33.2485 60.4124 33.4118C60.5043 33.3403 60.5553 33.2995 60.6064 33.2586C61.1372 32.7891 61.5047 32.197 61.8517 31.5948C64.1282 27.6544 66.4046 23.7037 68.6709 19.7531C69.804 17.7829 70.9167 15.8025 72.0396 13.8324C72.0805 13.7609 72.1519 13.6792 72.2234 13.6588C73.2034 13.3628 74.1935 13.0769 75.1837 12.7809C75.2042 12.7809 75.2246 12.7809 75.2859 12.7707C72.8767 16.8132 70.4777 20.825 68.0584 24.8777C68.1401 24.8267 68.2013 24.796 68.2523 24.7552C69.6611 23.8467 71.0903 22.9789 72.6215 22.3052C73.3769 21.9683 74.1528 21.6927 74.9796 21.5805C75.4288 21.5192 75.8677 21.5192 76.3169 21.6315C76.4088 21.6519 76.5313 21.6314 76.6231 21.5906C78.1748 20.7739 79.7265 19.9777 81.3598 19.3244C82.6869 18.7936 84.0445 18.3342 85.4635 18.1301C86.0351 18.0484 86.6068 18.0382 87.1784 17.9973C87.2499 17.9973 87.3112 18.0177 87.4031 18.0279C87.3724 18.0586 87.3622 18.079 87.352 18.0892C86.6068 18.4363 86.0045 18.9569 85.4124 19.5184C85.1062 19.8042 84.8204 20.1104 84.5141 20.3963C83.6974 21.1823 83.136 22.1521 82.5949 23.1218C82.2377 23.765 81.9008 24.4285 81.6048 25.1023C81.2883 25.8168 81.2066 26.5723 81.3189 27.3481C81.3597 27.6135 81.4516 27.6748 81.7068 27.5625C81.9008 27.4706 82.0947 27.3583 82.2683 27.2256C83.0441 26.6335 83.677 25.9189 84.2793 25.1635C85.7595 23.3158 86.9539 21.2844 87.8114 19.0692C87.842 18.9875 87.9135 18.8854 87.9849 18.865C88.9547 18.4975 89.9347 18.1402 90.9147 17.7829C90.9147 17.7829 90.9351 17.7829 90.9453 17.7829C90.6799 18.3546 90.4043 18.916 90.1389 19.4877C89.5366 20.825 88.9445 22.1623 88.5056 23.571C88.4239 23.8262 88.3728 24.1019 88.3218 24.3673C88.3013 24.4694 88.3013 24.5714 88.3218 24.6735C88.3422 24.745 88.3933 24.8573 88.4443 24.8675C88.5158 24.8879 88.6281 24.8368 88.6791 24.7756C89.2508 24.061 89.8122 23.3464 90.1491 22.4787C91.4353 19.2223 92.7522 15.9659 94.0792 12.7298C94.9163 10.678 95.7943 8.64654 96.6517 6.60489C96.6926 6.49259 96.7538 6.43133 96.8763 6.40071C97.7848 6.13529 98.7036 5.8699 99.6121 5.59428C99.6529 5.58407 99.704 5.57388 99.7755 5.55347C97.7644 10.5555 95.6922 15.5065 93.7832 20.5188C93.7934 20.5188 93.8138 20.529 93.824 20.5392C93.8649 20.4984 93.9057 20.4473 93.9465 20.4065C95.1613 19.2019 96.3659 17.9973 97.5807 16.7928C97.7542 16.6294 97.9584 16.4967 98.1728 16.3844C98.8465 16.0373 99.5305 15.7107 100.204 15.3738C100.347 15.3024 100.5 15.2615 100.643 15.2104C100.755 15.4248 100.766 15.629 100.664 15.8332C100.613 15.9455 100.562 16.0577 100.5 16.1598C100.296 16.4661 100.235 16.7928 100.296 17.1603C100.51 18.518 100.878 19.8348 101.552 21.0496C101.705 21.3252 101.889 21.5804 102.093 21.8254C102.317 22.1011 102.603 22.3256 103.032 22.3664C102.94 22.4073 102.889 22.4379 102.838 22.4583C102.185 22.785 101.521 23.1014 100.868 23.4383C100.47 23.6425 100.112 23.6119 99.7448 23.3975C98.9384 22.9177 98.3361 22.2644 98.1625 21.3048C98.0298 20.5596 97.9379 19.8042 97.8257 19.059C97.795 18.8446 97.7644 18.62 97.7236 18.3546C97.5909 18.5179 97.4888 18.6405 97.3867 18.7732C95.8861 20.7127 94.3957 22.6625 92.8849 24.6021C92.6297 24.9389 92.3541 25.2656 92.0682 25.5821C91.956 25.7046 91.813 25.8066 91.6599 25.8679C91.0678 26.0822 90.4655 26.266 89.8632 26.46C89.802 26.4804 89.7408 26.4906 89.6489 26.5008C89.6999 25.6841 89.9551 24.9287 90.1082 24.1019C90.047 24.1835 90.0163 24.2142 89.9857 24.255C89.7816 24.5511 89.5876 24.8471 89.363 25.1329C88.771 25.8985 88.0156 26.4906 87.2295 27.0418C86.7906 27.3481 86.2597 27.44 85.7289 27.3073C85.4941 27.246 85.2695 27.1031 85.0245 26.9806C83.922 28.0014 82.5337 28.5731 81.0535 28.9303C80.6656 29.0222 80.2675 29.0733 79.8694 29.1243C79.1854 29.1958 78.6138 28.6956 78.4913 27.93C78.3994 27.3685 78.5117 26.8173 78.6546 26.2762C79.0629 24.8267 79.8183 23.5506 80.7473 22.3767C81.5639 21.3252 82.4623 20.3452 83.5137 19.5286C83.5341 19.5184 83.5443 19.498 83.5647 19.4673L83.5954 19.4979ZM74.6938 23.5302C74.6325 23.5608 74.5815 23.5915 74.5305 23.6221C74.1732 23.8263 73.8057 24.0406 73.4484 24.2448C71.6313 25.286 69.9775 26.5212 68.5586 28.0729C67.9869 28.6854 67.4663 29.3387 67.0988 30.1043C66.9661 30.3902 66.864 30.7168 66.8232 31.0332C66.7721 31.4007 66.9457 31.5641 67.3234 31.5029C67.6297 31.462 67.9359 31.4008 68.2217 31.2783C70.5696 30.2881 72.499 28.767 73.9281 26.6335C74.3875 25.9393 74.704 25.1839 74.8163 24.3468C74.8571 24.0712 74.8571 23.7956 74.704 23.52L74.6938 23.5302ZM50.3369 24.2958C50.2348 24.3469 50.1837 24.3673 50.1327 24.3979C49.4794 24.745 48.8158 25.0921 48.1625 25.4596C46.4169 26.4192 44.6508 27.3481 42.9869 28.4404C42.7929 28.5629 42.6194 28.716 42.4357 28.8589C42.3846 28.8997 42.3744 28.9814 42.3438 29.0325C42.4152 29.0427 42.4969 29.0835 42.5684 29.0733C42.7317 29.0427 42.895 29.0018 43.0686 28.961C44.0077 28.7262 44.9571 28.5527 45.9371 28.6548C46.6925 28.7364 47.3662 29.0018 47.8766 29.5939C47.8971 29.6143 47.9175 29.6245 47.9583 29.6552C48.7444 27.8789 49.5304 26.1129 50.3369 24.306V24.2958Z" fill="#28292B"/>
<path d="M23.3773 44.0078C23.6427 42.5786 23.8979 41.1801 24.1633 39.7917C24.1531 39.7917 24.1429 39.7815 24.1327 39.7713C24.0204 39.8938 23.9081 40.0265 23.7958 40.149C22.7648 41.2719 21.7541 42.4153 20.6925 43.5178C20.1514 44.0792 19.5288 44.559 18.9265 45.049C18.7836 45.1715 18.5794 45.2532 18.3956 45.3042C17.4565 45.5594 16.5173 45.8044 15.568 46.0596C15.5476 46.0596 15.5169 46.0596 15.4761 46.0698C15.4863 46.0086 15.4965 45.9575 15.5169 45.9065C17.0176 40.8636 18.5283 35.8309 20.0085 30.7778C20.131 30.3695 20.3148 30.1858 20.7231 30.0939C21.5806 29.8999 22.4279 29.6549 23.2752 29.4405C23.3058 29.4405 23.3364 29.4304 23.3977 29.4202C22.0808 33.6566 20.764 37.8726 19.4573 42.0886C19.4675 42.0886 19.4879 42.109 19.4981 42.109C19.5594 42.0376 19.6308 41.9763 19.6921 41.9049C20.6415 40.7003 21.6317 39.5263 22.5198 38.2809C24.1837 35.9534 25.7864 33.5851 27.4095 31.2372C27.4912 31.1249 27.5729 31.0535 27.7158 31.0127C28.6753 30.7677 29.6248 30.5022 30.5741 30.247C30.615 30.2368 30.6558 30.2266 30.7272 30.2164C30.6864 30.2878 30.666 30.3287 30.6455 30.3797C30.4924 30.635 30.3495 30.8902 30.176 31.1351C29.5737 32.0131 29.1654 32.9726 28.8285 33.9832C28.2364 35.7697 27.6954 37.5765 27.3075 39.414C27.2769 39.5569 27.2564 39.6999 27.2666 39.853C27.3176 39.7917 27.3789 39.7305 27.43 39.6692C29.6145 37.0866 31.8093 34.5039 33.9939 31.911C41.5786 22.8563 49.1532 13.7913 56.7277 4.7366C56.84 4.60389 56.9523 4.53238 57.1156 4.49155C58.0752 4.24655 59.0348 4.00156 60.0454 3.73615C59.9739 3.82802 59.9228 3.88928 59.882 3.94032C55.2475 9.53445 50.6129 15.1286 45.9784 20.7329C39.9657 28.0012 33.9428 35.2695 27.9302 42.5378C27.7873 42.7113 27.6239 42.8236 27.3993 42.8849C26.0722 43.2524 24.7554 43.6198 23.3875 43.9975L23.3773 44.0078Z" fill="#28292B"/>
<path d="M0 37.495C0.428747 36.9948 0.847286 36.4844 1.27603 35.9842C8.65661 27.246 16.0372 18.5179 23.4178 9.7898C24.3569 8.6771 25.3267 7.58483 26.2965 6.48234C26.3782 6.38026 26.5108 6.29863 26.6435 6.268C27.6439 5.99238 28.6443 5.72692 29.6856 5.45129C28.1033 10.6167 26.5313 15.7413 24.9592 20.8658C24.9796 20.876 24.9898 20.8964 25.0102 20.9066C25.0511 20.8454 25.0919 20.7841 25.143 20.7331C26.8784 18.9058 28.3585 16.8846 29.7162 14.7714C30.2369 13.965 30.7065 13.1382 31.2067 12.3215C31.4619 11.9132 31.7272 11.5048 31.9927 11.1067C32.0437 11.0353 32.1356 10.9638 32.2173 10.9433C33.2279 10.6677 34.2487 10.3921 35.3103 10.1165C35.2695 10.1981 35.2491 10.239 35.2287 10.2798C34.9837 10.678 34.7489 11.0761 34.4937 11.4742C33.7587 12.6277 33.3095 13.9038 32.9522 15.2002C32.5949 16.5273 32.3193 17.8748 32.0131 19.2121C32.0131 19.2529 32.0029 19.2937 31.9927 19.3754C32.0539 19.3243 32.0947 19.2937 32.1254 19.2529C35.0041 16.3639 37.3418 13.0973 39.0976 9.4121C39.1487 9.31002 39.1997 9.2284 39.3222 9.19777C40.3226 8.94256 41.323 8.67713 42.3234 8.41171C42.3438 8.41171 42.354 8.41171 42.3949 8.41171C42.3847 8.44234 42.3745 8.47298 42.3643 8.4934C40.0674 13.1892 36.9641 17.2623 32.9114 20.5902C31.6252 21.6518 31.6048 21.6314 30.0021 22.0499C29.4406 22.1929 28.8791 22.346 28.2871 22.4991C28.5014 21.4272 28.7056 20.3758 28.92 19.3243C28.9098 19.3243 28.8996 19.3141 28.8894 19.3039C28.8281 19.3754 28.7567 19.4468 28.6954 19.5183C27.4092 20.9066 26.0106 22.1724 24.4284 23.2035C24.2548 23.3158 24.0609 23.4076 23.8567 23.4689C22.8971 23.7343 21.9376 23.9793 20.9372 24.255C22.4071 19.4571 23.8669 14.7 25.3369 9.93274C25.3267 9.93274 25.3165 9.9123 25.3063 9.9123C25.2654 9.95313 25.2246 10.0042 25.1838 10.045C22.3459 13.475 19.508 16.8948 16.6803 20.3247C12.2193 25.7351 7.75826 31.1557 3.29725 36.5763C3.236 36.6579 3.13391 36.7192 3.03182 36.7396C2.08246 37.0051 1.12289 37.2603 0.173523 37.5155C0.122482 37.5257 0.0714155 37.5359 0.0203742 37.5461C0.0203742 37.5359 0.0204265 37.5257 0.0102182 37.5053L0 37.495Z" fill="#28292B"/>
<path d="M34.6367 21.2637C39.1488 19.2221 42.8544 16.18 45.8148 12.2192C45.4677 12.3111 45.1308 12.403 44.7837 12.4847C44.4571 12.5663 44.1406 12.6378 43.8037 12.6991C43.62 12.7297 43.426 12.7399 43.2423 12.7296C42.691 12.699 42.3542 12.3213 42.4256 11.7701C42.4665 11.4536 42.5583 11.127 42.6911 10.8309C43.2423 9.60593 44.1304 8.64635 45.1819 7.82969C46.0496 7.14574 46.9989 6.61489 48.0912 6.34948C48.9997 6.13511 49.8879 5.86968 50.7964 5.63489C50.9597 5.59406 51.1434 5.58387 51.317 5.59408C51.562 5.61449 51.7253 5.78803 51.7151 6.03303C51.7151 6.27802 51.6641 6.52304 51.5926 6.75784C51.1435 8.17678 50.4289 9.4732 49.5714 10.6778C46.5191 14.9857 42.6094 18.2727 37.7502 20.3961C37.3623 20.5696 36.9335 20.6512 36.515 20.7635C35.8923 20.9371 35.2696 21.1004 34.6367 21.2637ZM48.4996 6.97217C48.4996 6.97217 48.4587 6.95179 48.4383 6.95179C48.326 7.04367 48.2137 7.12529 48.1014 7.22738C47.1929 8.0032 46.4273 8.89133 45.9271 9.98362C45.7637 10.3409 45.6514 10.7084 45.6821 11.1066C45.7025 11.4434 45.8964 11.6884 46.1925 11.7701C46.3048 11.6067 46.4272 11.4332 46.5395 11.2597C47.2745 10.1572 47.9074 9.00361 48.326 7.73779C48.4076 7.49279 48.4485 7.22738 48.5097 6.97217H48.4996Z" fill="#28292B"/>
<path d="M33.5341 7.81962C33.5341 7.81962 33.5852 7.73797 33.6158 7.70734C34.8919 6.09444 36.1577 4.48154 37.4337 2.86863C37.6379 2.61343 37.8829 2.43989 38.2095 2.35822C39.1691 2.11322 40.1287 1.84781 41.0883 1.5926C41.3333 1.53135 41.4149 1.55177 41.4966 1.78656C41.6803 2.3276 41.8641 2.87883 41.9968 3.43008C42.1602 4.14465 42.2724 4.86943 42.3949 5.584C42.4459 5.88004 42.4358 5.88004 42.1499 5.96171C41.1699 6.22712 40.1899 6.49256 39.1997 6.74776C39.0772 5.89027 38.9547 5.05321 38.822 4.21613C38.8016 4.21613 38.7914 4.21612 38.771 4.20591C38.7302 4.25696 38.6893 4.2978 38.6485 4.34885C38.036 5.17571 37.4337 6.01279 36.8212 6.83966C36.7702 6.90091 36.6987 6.97233 36.6273 6.99275C35.6269 7.26837 34.6265 7.53383 33.626 7.79924C33.5954 7.79924 33.5648 7.79924 33.5239 7.79924L33.5341 7.81962Z" fill="#28292B"/>
<path d="M77.052 44.6204C76.9805 44.2019 77.0928 43.8651 77.348 43.5792C77.644 43.2526 78.0626 43.3342 78.2259 43.7323C78.3076 43.9365 78.3586 44.1611 78.4301 44.3652C78.5117 44.6 78.6037 44.6613 78.7976 44.6409C79.0426 44.6205 79.1753 44.5184 79.2059 44.2836C79.2365 44.0999 79.2366 43.9161 79.257 43.7119H79.502C79.4816 43.9263 79.4815 44.1305 79.4509 44.3346C79.4305 44.4469 79.4714 44.5082 79.5632 44.5388C79.6551 44.5796 79.7572 44.6204 79.8592 44.6307C80.237 44.6919 80.4207 44.549 80.4717 44.1713C80.4921 44.0181 80.4922 43.8753 80.5024 43.7119H80.7576C80.7372 43.9161 80.7372 44.1305 80.7065 44.3346C80.6861 44.4469 80.727 44.5082 80.8188 44.549C80.8597 44.5695 80.9107 44.5899 80.9515 44.6103C81.3292 44.7328 81.5436 44.6103 81.5844 44.2121C81.6049 44.059 81.6049 43.8957 81.6049 43.7323H81.8601C81.8601 43.8752 81.8601 44.008 81.8397 44.1509C81.8294 44.2836 81.7988 44.4163 81.7784 44.5694C81.8805 44.6 81.9928 44.6409 82.1051 44.6613C82.4011 44.7124 82.5747 44.5796 82.6155 44.2836C82.6359 44.0999 82.6461 43.9263 82.6563 43.7323H82.9115C82.8809 44.0079 82.8605 44.2734 82.8299 44.5796C82.9422 44.6103 83.0749 44.6511 83.2076 44.6613C83.524 44.6817 83.6567 44.549 83.6465 44.2325C83.6363 44.0079 83.6057 43.7834 83.5751 43.569C83.5751 43.4976 83.5648 43.4261 83.5546 43.3444H83.8405C83.8609 43.7119 83.9222 44.0692 83.9017 44.4265C83.8915 44.7838 83.5648 44.9982 83.1667 44.9573C83.1463 44.9573 83.1157 44.9573 83.0952 44.9471C82.8502 44.8348 82.6257 44.794 82.3603 44.9471C82.1663 45.0492 81.9519 44.9471 81.758 44.8451C81.7171 44.8246 81.6355 44.8042 81.6049 44.8348C81.2884 45.0696 80.9924 44.988 80.6963 44.794C80.6657 44.7736 80.6351 44.7532 80.6044 44.7328C80.1451 45.0696 79.849 45.0696 79.3999 44.7634C79.2059 44.8348 79.0324 44.9267 78.8486 44.9675C78.6445 45.0186 78.4607 44.9471 78.3178 44.7328C78.2872 45.0492 78.083 44.9778 77.9197 44.9675C77.9094 44.9675 77.8993 44.9675 77.8788 44.9675C77.5624 44.9267 77.2357 44.7532 76.9193 44.9675C76.8682 44.9982 76.7866 44.9778 76.7253 44.9778C73.7649 44.9778 70.8045 44.9778 67.8543 44.9778C67.742 44.9778 67.6196 44.9777 67.5175 44.9471C67.2725 44.8961 67.1091 44.7226 67.0989 44.4776C67.0785 43.8447 67.0989 43.2117 67.0989 42.5584H67.3541C67.3541 42.6197 67.3643 42.6809 67.3643 42.7422C67.3643 43.2321 67.3643 43.7221 67.3643 44.2121C67.3643 44.5898 67.446 44.6817 67.8339 44.6817C70.3758 44.6817 72.9278 44.6817 75.4697 44.6817C75.8985 44.6817 76.3272 44.6817 76.756 44.6817C76.858 44.6817 76.9601 44.6613 77.0622 44.6511L77.052 44.6204ZM78.2259 44.6919L78.2565 44.6204C78.1647 44.3754 78.0932 44.1203 77.9911 43.8753C77.889 43.6303 77.6645 43.5996 77.5114 43.814C77.4093 43.9569 77.3583 44.1407 77.2766 44.2938C77.2358 44.3857 77.2765 44.4469 77.3582 44.4674C77.644 44.5388 77.9401 44.6102 78.2259 44.6817V44.6919Z" fill="#28292B"/>
<path d="M30.8701 23.7138C30.7169 24.02 30.574 24.3263 30.4311 24.6223C30.2474 25.0001 30.0738 25.3777 29.8798 25.7452C29.8492 25.8065 29.7778 25.878 29.7165 25.8882C28.7059 26.1638 27.6953 26.4394 26.6847 26.7048C26.6643 26.7048 26.6439 26.7048 26.603 26.7048C26.6234 26.664 26.6336 26.6232 26.6438 26.5925C26.9501 25.9494 27.2564 25.3063 27.5728 24.6632C27.6034 24.6019 27.6749 24.5406 27.7361 24.5202C28.7467 24.2446 29.7676 23.969 30.7884 23.6934C30.8088 23.6934 30.819 23.6934 30.8599 23.6934L30.8701 23.7138Z" fill="#28292B"/>
<path d="M99.1531 44.7734C99.0204 44.9061 98.8264 44.947 98.6223 44.947C95.7333 44.947 92.8546 44.947 89.9657 44.947C89.8125 44.947 89.6594 44.8755 89.4961 44.8347C89.445 44.8245 89.3838 44.8347 89.3328 44.8347C89.1898 44.8653 89.0469 44.9367 88.8937 44.9367C88.3833 44.9572 88.0975 44.5591 88.2608 44.0691C88.3935 43.6709 88.6998 43.4872 89.0776 43.3953C89.2205 43.3647 89.3327 43.3341 89.3021 43.1401H89.5573C89.5573 43.1912 89.5675 43.2422 89.5675 43.2932C89.5675 43.6097 89.5675 43.9363 89.5675 44.2528C89.5675 44.5591 89.639 44.6305 89.9554 44.6305C90.4148 44.6305 90.8639 44.6305 91.3233 44.6305C93.7325 44.6305 96.1314 44.6305 98.5406 44.6305C98.9795 44.6305 99.0816 44.5387 99.1122 44.0895C99.1122 43.967 99.1327 43.8343 99.1429 43.6914H99.3981C99.3777 43.9159 99.3572 44.1405 99.3164 44.3549C99.2858 44.4876 99.3266 44.5488 99.4491 44.5795C99.541 44.5999 99.6431 44.6203 99.735 44.6203C100.011 44.6203 100.296 44.6203 100.572 44.6203C100.939 44.6203 101.052 44.4978 101.021 44.1303C101.001 43.9057 100.97 43.671 100.94 43.4464C100.94 43.3953 100.94 43.3545 100.929 43.2932H101.225C101.246 43.6709 101.287 44.0588 101.276 44.4365C101.276 44.702 101.031 44.8857 100.725 44.8959C100.358 44.9061 100 44.9163 99.6329 44.8959C99.4797 44.8959 99.3266 44.804 99.1429 44.7428L99.1531 44.7734ZM89.3021 43.6301C88.8734 43.6607 88.5569 43.8955 88.5059 44.212C88.4651 44.4366 88.5671 44.6101 88.7917 44.6305C88.9652 44.6509 89.1388 44.6101 89.3021 44.5999V43.6403V43.6301Z" fill="#28292B"/>
<path d="M65.8335 47.54C66.1908 47.4992 66.1908 47.4991 66.2622 47.8258C66.3847 48.3464 66.4971 48.8773 66.6196 49.3979C66.6196 49.4285 66.64 49.4591 66.6706 49.5408C66.7829 49.0304 66.885 48.571 66.987 48.1219C67.0177 47.9585 67.0687 47.8054 67.0891 47.6421C67.1095 47.4991 67.2014 47.5196 67.2831 47.5298C67.3749 47.5298 67.4974 47.4685 67.5383 47.6421C67.6608 48.1933 67.7935 48.7548 67.9262 49.306C67.9364 49.3673 67.9568 49.4387 68.0079 49.5C68.1508 48.8466 68.2937 48.1933 68.4468 47.5298H68.7939C68.7735 47.6114 68.7632 47.6829 68.7428 47.7543C68.5795 48.4077 68.406 49.0712 68.2631 49.7245C68.2222 49.8981 68.1507 49.9695 67.9772 49.9389C67.9262 49.9389 67.8649 49.9389 67.8037 49.9389C67.6506 49.2958 67.4974 48.6527 67.3545 48.0095C67.3443 48.0095 67.3239 48.0095 67.3137 48.0095C67.1606 48.6527 67.0177 49.2958 66.8645 49.9287H66.4562C66.252 49.1222 66.0479 48.326 65.8437 47.5196L65.8335 47.54Z" fill="#28292B"/>
<path d="M86.7501 42.5176C86.842 42.5176 86.9237 42.5176 86.9951 42.5176C86.9951 42.5176 87.0156 42.538 87.0156 42.5482C87.0156 43.1607 87.036 43.7732 87.0156 44.3857C86.9951 44.8757 86.4031 45.1207 85.9437 44.8451C85.8314 44.7838 85.7599 44.7838 85.6476 44.8247C85.1985 44.988 84.7493 44.9676 84.29 44.8655C84.1062 44.8247 84.1981 44.692 84.1675 44.5797C84.4329 44.6103 84.6779 44.6409 84.9637 44.6716C84.9229 44.0693 84.7187 43.5282 84.6268 42.9667C84.8922 42.9055 84.9024 42.9157 84.9535 43.1709C85.0556 43.6507 85.1475 44.1407 85.2496 44.6511C85.3823 44.6307 85.5252 44.6103 85.6783 44.5797V42.538H85.9437C85.9437 42.6401 85.9437 42.7422 85.9437 42.8442C85.9437 43.324 85.9437 43.8039 85.9437 44.2836C85.9437 44.5593 86.0662 44.6716 86.352 44.6716C86.6276 44.6716 86.7501 44.5593 86.7501 44.2939C86.7501 43.7835 86.7501 43.2628 86.7501 42.7524C86.7501 42.6912 86.7501 42.6197 86.7501 42.5482V42.5176Z" fill="#28292B"/>
<path d="M94.171 49.9491H93.8749C93.8749 49.6837 93.8749 49.4285 93.8749 49.1733C93.8749 49.0304 93.875 48.8875 93.8545 48.7344C93.8341 48.571 93.7524 48.4587 93.5891 48.4281C93.4054 48.3975 93.2318 48.4281 93.1502 48.6119C93.0889 48.7446 93.0582 48.8977 93.048 49.0406C93.0276 49.3366 93.048 49.6327 93.048 49.9389H92.7725V48.2137H93.0379C93.0379 48.2852 93.0481 48.3464 93.0583 48.4179C93.5176 48.0708 93.8443 48.0912 94.12 48.4689C94.2731 48.2954 94.4466 48.1729 94.6916 48.1729C95.0387 48.1729 95.2632 48.326 95.2837 48.6629C95.3143 49.0814 95.2837 49.5102 95.2837 49.9389H94.9979C94.9979 49.7245 94.9979 49.4999 94.9979 49.2754C94.9979 49.0916 94.9978 48.9079 94.9774 48.7344C94.957 48.571 94.8652 48.4587 94.6916 48.4281C94.5079 48.3975 94.3445 48.4485 94.2628 48.6221C94.2016 48.7548 94.171 48.8977 94.171 49.0406C94.1608 49.3366 94.171 49.6327 94.171 49.9389V49.9491Z" fill="#28292B"/>
<path d="M75.0714 49.7347C75.0714 49.8061 75.0612 49.8776 75.051 49.9491H74.7856V47.5399H75.0612V48.3872C75.245 48.3157 75.4083 48.2137 75.5921 48.183C75.9494 48.132 76.225 48.3259 76.3475 48.673C76.4394 48.9486 76.4496 49.2243 76.3475 49.4897C76.1535 50.0307 75.541 50.1634 75.1327 49.7653C75.1225 49.7551 75.1021 49.7449 75.0817 49.7244L75.0714 49.7347ZM76.1025 49.0915C76.0923 48.9997 76.0821 48.9078 76.0617 48.8261C76.0004 48.5607 75.8371 48.428 75.6023 48.4178C75.3573 48.4178 75.1429 48.5403 75.1021 48.7955C75.0715 48.9997 75.0816 49.2243 75.1327 49.4284C75.1837 49.6428 75.3981 49.7449 75.6227 49.7347C75.837 49.7244 75.9902 49.602 76.0515 49.3876C76.0821 49.2855 76.0923 49.1834 76.1025 49.0915Z" fill="#28292B"/>
<path d="M96.1924 49.1529C96.1822 49.4081 96.2842 49.5919 96.4884 49.6837C96.7028 49.7756 96.9887 49.7552 97.1112 49.5817C97.2235 49.4285 97.3357 49.4285 97.4786 49.5C97.3868 49.9185 96.8866 50.0308 96.5293 49.9696C96.0495 49.8777 95.7841 49.4285 95.8759 48.8671C95.9576 48.3771 96.3659 48.1015 96.8763 48.1729C97.3051 48.2342 97.5909 48.6527 97.5297 49.1529H96.2026H96.1924ZM97.203 48.8977C97.203 48.5914 96.9887 48.3975 96.6518 48.4281C96.366 48.4485 96.172 48.6527 96.2128 48.8977H97.203Z" fill="#28292B"/>
<path d="M88.8115 49.5102C88.6992 49.8777 88.2602 50.0717 87.811 49.9594C87.3619 49.8471 87.0965 49.3877 87.1985 48.8773C87.2904 48.3771 87.6885 48.1015 88.1989 48.1729C88.6277 48.2342 88.9135 48.6323 88.8625 49.1427H87.5354C87.5048 49.3775 87.6069 49.5714 87.8212 49.6735C88.0458 49.7756 88.3316 49.7552 88.4541 49.5714C88.5664 49.4081 88.6788 49.4387 88.8217 49.5L88.8115 49.5102ZM88.5358 48.8977C88.5256 48.5812 88.3215 48.4077 87.9948 48.4281C87.6988 48.4383 87.515 48.6322 87.5252 48.8977H88.5358Z" fill="#28292B"/>
<path d="M102.052 45.682V45.4063C102.43 45.3451 102.848 45.3655 102.95 44.8347C102.889 44.8449 102.848 44.8551 102.818 44.8653C102.522 44.9674 102.236 44.9775 102.001 44.7428C101.756 44.508 101.756 44.2018 101.827 43.8955C101.94 43.477 102.307 43.2626 102.705 43.3647C102.981 43.4361 103.155 43.6811 103.175 44.0282C103.195 44.2834 103.195 44.5489 103.195 44.8041C103.195 45.2022 103.022 45.4472 102.644 45.5595C102.46 45.6105 102.266 45.6309 102.052 45.6717V45.682ZM102.94 44.3753C102.91 44.2119 102.91 44.0486 102.859 43.8955C102.767 43.6301 102.44 43.5688 102.236 43.7526C102.083 43.8955 102.021 44.1916 102.113 44.4059C102.185 44.5795 102.358 44.6713 102.613 44.6509C102.654 44.6509 102.695 44.6305 102.736 44.6305C102.899 44.6305 102.991 44.559 102.95 44.3753H102.94Z" fill="#28292B"/>
<path d="M74.0813 49.9491H73.7852C73.7852 49.7755 73.7852 49.6122 73.7852 49.4489C73.7852 49.2345 73.7853 49.0099 73.7649 48.7955C73.7445 48.5709 73.6525 48.4689 73.4688 48.4382C73.2442 48.3974 73.0503 48.4893 72.9686 48.6832C72.9176 48.8057 72.8971 48.9384 72.8971 49.0712C72.8971 49.357 72.8971 49.653 72.8971 49.9491H72.6113V47.5399H72.8971V48.4586C73.0911 48.2238 73.3055 48.1524 73.5505 48.1728C73.8261 48.1932 74.0098 48.3259 74.0404 48.5913C74.0813 48.8874 74.0711 49.1936 74.0813 49.4999C74.0813 49.6428 74.0813 49.7857 74.0813 49.9491Z" fill="#28292B"/>
<path d="M79.3898 49.9491H79.104V47.5399H79.3898V48.4586C79.5838 48.234 79.7982 48.1626 80.0534 48.183C80.3086 48.2035 80.4821 48.3259 80.523 48.5811C80.5638 48.7955 80.5536 49.0303 80.5638 49.2447C80.5638 49.4591 80.5638 49.6836 80.5638 49.898C80.5638 49.9082 80.5638 49.9184 80.5536 49.9491H80.278C80.278 49.7653 80.278 49.5714 80.278 49.3876C80.278 49.1937 80.278 48.9997 80.2678 48.8057C80.2473 48.5607 80.1453 48.4587 79.9411 48.4382C79.7063 48.4178 79.5225 48.5097 79.451 48.724C79.4102 48.8363 79.4 48.9588 79.4 49.0813C79.4 49.3671 79.4 49.6632 79.4 49.9593L79.3898 49.9491Z" fill="#28292B"/>
<path d="M78.4299 49.9491H78.1543C78.1441 49.8777 78.1338 49.8164 78.1134 49.7143C77.9297 49.9491 77.6949 50.0308 77.4295 49.9899C77.2968 49.9695 77.1539 49.9185 77.0518 49.8368C76.7864 49.6225 76.8374 49.2039 77.1539 49.0712C77.3886 48.9691 77.6439 48.9385 77.8889 48.8773C77.991 48.8568 78.0931 48.8466 78.1033 48.7037C78.1033 48.571 78.042 48.4893 77.9195 48.4383C77.6234 48.3158 77.358 48.4281 77.2253 48.7548C77.1436 48.7548 77.062 48.7548 76.96 48.7445C76.9702 48.5404 77.0722 48.3873 77.2253 48.2954C77.5009 48.1218 77.8072 48.1218 78.0931 48.2443C78.2768 48.3158 78.3584 48.4689 78.3686 48.6629C78.3891 48.9793 78.3891 49.306 78.3993 49.6224C78.3993 49.7347 78.4095 49.8368 78.4197 49.9593L78.4299 49.9491ZM78.1134 49.061C77.8786 49.112 77.6541 49.163 77.4295 49.2141C77.2968 49.2447 77.205 49.3366 77.2152 49.4897C77.2356 49.6531 77.3376 49.7245 77.4907 49.7552C77.8889 49.8164 78.1543 49.5408 78.1033 49.061H78.1134Z" fill="#28292B"/>
<path d="M69.4467 48.7547C69.365 48.7547 69.2833 48.7547 69.1812 48.7445C69.1812 48.5505 69.2731 48.4076 69.4161 48.3157C69.7019 48.1217 70.0183 48.1218 70.3348 48.2443C70.5185 48.3157 70.6002 48.479 70.6002 48.6628C70.6002 49.0813 70.6002 49.5101 70.6002 49.9388H70.3654C70.3552 49.8674 70.345 49.8061 70.3246 49.7041C70.1511 49.9286 69.9163 50.0103 69.6611 49.9796C69.559 49.9694 69.4467 49.9388 69.3548 49.8878C69.1813 49.7959 69.0996 49.6428 69.0996 49.4386C69.0996 49.2447 69.2016 49.1018 69.3752 49.0507C69.61 48.969 69.855 48.9282 70.0898 48.867C70.1919 48.8466 70.3042 48.8364 70.3144 48.6934C70.3246 48.5505 70.2429 48.4688 70.1204 48.4178C69.8244 48.2953 69.5691 48.4178 69.4364 48.7343L69.4467 48.7547ZM70.3144 49.0609C70.0796 49.112 69.8448 49.163 69.61 49.2345C69.4773 49.2753 69.4059 49.3672 69.4263 49.5101C69.4467 49.6428 69.5283 49.7245 69.6611 49.7551C70.0796 49.8572 70.3961 49.5407 70.3144 49.0711V49.0609Z" fill="#28292B"/>
<path d="M90.7918 48.6425C90.6897 48.6731 90.6182 48.6935 90.5162 48.7139C90.4039 48.4179 90.1589 48.3669 89.8935 48.4281C89.8016 48.4485 89.6995 48.5404 89.6689 48.6221C89.6382 48.7446 89.7505 48.8058 89.8628 48.8364C90.0466 48.8875 90.2304 48.9079 90.4141 48.9589C90.6999 49.0406 90.8428 49.2039 90.8326 49.4387C90.8326 49.6837 90.6591 49.8675 90.3834 49.9389C89.873 50.0716 89.4545 49.8675 89.332 49.4387C89.5566 49.3264 89.5668 49.3264 89.6995 49.5408C89.8424 49.7654 90.3018 49.8062 90.4754 49.6123C90.5774 49.5 90.5468 49.3367 90.3937 49.2652C90.261 49.204 90.1181 49.1835 89.9752 49.1427C89.8424 49.1019 89.6995 49.0815 89.577 49.01C89.3422 48.8875 89.281 48.5812 89.4443 48.3872C89.6587 48.132 89.9649 48.1219 90.261 48.1627C90.5162 48.2035 90.6897 48.3465 90.7816 48.6221L90.7918 48.6425Z" fill="#28292B"/>
<path d="M101.46 49.4284C101.562 49.408 101.644 49.3875 101.736 49.3671C101.766 49.4182 101.787 49.4794 101.817 49.5304C101.95 49.7652 102.409 49.8265 102.603 49.6326C102.716 49.5203 102.685 49.3467 102.522 49.2752C102.389 49.214 102.246 49.1936 102.103 49.1527C101.96 49.1119 101.817 49.0813 101.695 49.0099C101.47 48.8772 101.429 48.5709 101.593 48.377C101.94 47.9788 102.736 48.132 102.909 48.6322C102.828 48.6526 102.736 48.6832 102.634 48.7138C102.522 48.4075 102.277 48.3667 102.011 48.428C101.929 48.4484 101.817 48.5403 101.797 48.6219C101.756 48.7444 101.878 48.8057 101.991 48.8363C102.164 48.8873 102.348 48.9077 102.522 48.9588C102.828 49.0404 102.96 49.2038 102.95 49.4386C102.95 49.6938 102.777 49.8673 102.481 49.9388C102.021 50.0511 101.613 49.8776 101.47 49.5203C101.46 49.4897 101.46 49.459 101.45 49.4079L101.46 49.4284Z" fill="#28292B"/>
<path d="M84.7797 49.9491H84.504C84.504 49.7143 84.504 49.4897 84.504 49.2549C84.504 49.1018 84.504 48.9487 84.4938 48.8058C84.4938 48.622 84.4122 48.4893 84.2284 48.4383C84.0141 48.3872 83.7997 48.4689 83.718 48.6526C83.6568 48.7853 83.6363 48.9384 83.6261 49.0916C83.6159 49.3774 83.6261 49.653 83.6261 49.9491H83.3403V48.2137H83.6057C83.6057 48.2749 83.6261 48.3362 83.6363 48.4383C83.8099 48.2443 84.0038 48.1626 84.2488 48.1728C84.5449 48.1831 84.749 48.326 84.7695 48.622C84.8001 49.0508 84.7695 49.4897 84.7695 49.9491H84.7797Z" fill="#28292B"/>
<path d="M98.1426 48.2136H98.4079C98.4079 48.285 98.4182 48.3463 98.4284 48.4483C98.6121 48.2442 98.8163 48.1626 99.0613 48.183C99.3369 48.2034 99.5411 48.3259 99.5615 48.5913C99.5921 49.0404 99.5615 49.4896 99.5615 49.949H99.2961C99.2961 49.7652 99.2961 49.5815 99.2961 49.4079C99.2961 49.214 99.2961 49.02 99.2961 48.826C99.2858 48.6015 99.1838 48.4688 99.0103 48.4382C98.7857 48.3973 98.5713 48.479 98.4998 48.6832C98.4488 48.7955 98.4284 48.9282 98.4284 49.0507C98.4284 49.3467 98.4284 49.6427 98.4284 49.949H98.1527V48.2136H98.1426Z" fill="#28292B"/>
<path d="M85.2591 48.2238C85.4565 48.1898 85.5858 48.2578 85.6471 48.428C85.7798 48.775 85.9023 49.1323 86.0452 49.5202C86.0758 49.4488 86.1065 49.4182 86.1167 49.3773C86.2392 49.0507 86.3617 48.7342 86.4638 48.4075C86.525 48.2034 86.6373 48.1727 86.8313 48.234C86.8006 48.3157 86.77 48.3973 86.7394 48.479C86.5658 48.9282 86.3923 49.3773 86.2187 49.8367C86.1881 49.9286 86.1371 49.9694 86.035 49.9694C85.9329 49.9694 85.8921 49.9388 85.8512 49.8367C85.6573 49.3365 85.4633 48.8363 85.2694 48.3258C85.2592 48.2952 85.249 48.2544 85.2388 48.2238H85.2591Z" fill="#28292B"/>
<path d="M92.1504 48.4383H91.8441C91.8441 48.5404 91.8339 48.6322 91.8339 48.7241C91.8339 48.9385 91.8339 49.1631 91.8339 49.3774C91.8339 49.602 91.9462 49.7211 92.1708 49.7347V49.9593C92.0687 49.9593 91.987 49.9797 91.8951 49.9797C91.6706 49.9797 91.5685 49.8878 91.5583 49.6632C91.5379 49.3468 91.5481 49.0304 91.5379 48.7241C91.5379 48.6424 91.5379 48.5608 91.5379 48.4587C91.446 48.4587 91.3643 48.4383 91.2725 48.4383V48.2239C91.3541 48.2239 91.4358 48.2035 91.5379 48.1933V47.7645H91.8441V48.1933C91.9666 48.1933 92.0585 48.2035 92.1708 48.2137V48.4383H92.1504Z" fill="#28292B"/>
<path d="M72.0091 48.2137V48.4281C71.9071 48.4281 71.805 48.4382 71.6825 48.4484C71.6825 48.8363 71.6825 49.214 71.6825 49.5917C71.6825 49.6428 71.7641 49.6938 71.8254 49.7245C71.8764 49.7449 71.9479 49.7245 71.9989 49.7245C72.05 49.9388 72.0398 49.9593 71.8356 49.9695C71.5192 50.0001 71.3864 49.8878 71.3762 49.5612C71.3762 49.1937 71.3762 48.8261 71.3762 48.4484C71.2741 48.4484 71.1925 48.4281 71.1006 48.4281V48.2239C71.1823 48.2137 71.2741 48.2035 71.3762 48.1831V47.7543H71.6621V48.1831C71.7846 48.1933 71.8866 48.2034 71.9989 48.2137H72.0091Z" fill="#28292B"/>
<path d="M100.368 47.7543H100.664V48.1831C100.776 48.1831 100.878 48.2035 100.991 48.2137V48.4281C100.888 48.4281 100.786 48.4382 100.674 48.4485C100.674 48.8364 100.674 49.2141 100.674 49.5918C100.674 49.6428 100.756 49.6939 100.807 49.7245C100.858 49.7449 100.919 49.7245 100.991 49.7245V49.9491C100.888 49.9491 100.797 49.9695 100.695 49.9695C100.48 49.9593 100.378 49.8675 100.368 49.6531C100.347 49.3366 100.358 49.0201 100.347 48.7037C100.347 48.622 100.347 48.5404 100.347 48.4383C100.256 48.4383 100.174 48.4178 100.082 48.4076V48.2035C100.164 48.2035 100.245 48.1831 100.347 48.1729V47.7441L100.368 47.7543Z" fill="#28292B"/>
<path d="M82.248 47.5297H82.5645V49.9389H82.248V47.5297Z" fill="#28292B"/>
<path d="M65.7617 45.6514V45.4064C65.8332 45.3962 65.8842 45.386 65.9455 45.3656C66.1905 45.2942 66.3334 45.1104 66.3232 44.8143C66.3027 44.3754 66.2619 43.9364 66.2313 43.4771H66.5069C66.5375 43.9568 66.5886 44.4469 66.5886 44.9267C66.5886 45.386 66.2619 45.6514 65.7719 45.6514H65.7617Z" fill="#28292B"/>
<path d="M89.0263 42.885C88.9446 42.8033 88.8732 42.7318 88.8018 42.6502C88.8834 42.5685 88.9651 42.4971 89.057 42.4154C89.1182 42.4766 89.1999 42.5481 89.2917 42.6298C89.3734 42.5481 89.4448 42.4766 89.5367 42.395C89.6184 42.4766 89.6899 42.5583 89.7716 42.6399C89.6899 42.7114 89.6184 42.7931 89.5367 42.8748C89.4551 42.8033 89.3734 42.7318 89.2917 42.6502C89.2101 42.7216 89.1284 42.8033 89.0365 42.885H89.0263Z" fill="#28292B"/>
<path d="M80.8391 43.3954C80.7676 43.3342 80.6961 43.2627 80.6042 43.181C80.5226 43.2627 80.4409 43.3341 80.349 43.4158C80.2776 43.3341 80.2061 43.2525 80.1143 43.1606C80.1857 43.0993 80.2674 43.0279 80.3592 42.9564C80.4307 43.0177 80.5124 43.0891 80.5941 43.1708C80.6757 43.0891 80.7574 43.0177 80.8493 42.936C80.931 43.0177 81.0024 43.0994 81.0738 43.181C80.9922 43.2525 80.9105 43.3239 80.8186 43.4056L80.8391 43.3954Z" fill="#28292B"/>
<path d="M101.541 42.793C101.46 42.8849 101.388 42.9564 101.296 43.0482C101.225 42.9564 101.153 42.8747 101.072 42.7726C101.133 42.7215 101.215 42.6501 101.296 42.5991C101.368 42.6603 101.449 42.7318 101.541 42.8032V42.793Z" fill="#28292B"/>
<path d="M99.1835 45.6923C99.1223 45.6209 99.0509 45.5392 98.959 45.4473C99.0304 45.3962 99.1121 45.3248 99.1938 45.2635C99.255 45.3248 99.3367 45.3963 99.4285 45.4882C99.3571 45.5494 99.2754 45.6209 99.1835 45.6923Z" fill="#28292B"/>
<path d="M79.6343 42.9258C79.716 43.0177 79.7772 43.0993 79.8589 43.181C79.7874 43.2422 79.7058 43.3137 79.6343 43.3852C79.5731 43.3239 79.5016 43.2422 79.4199 43.1503C79.4812 43.0891 79.5526 43.0177 79.6445 42.9258H79.6343Z" fill="#28292B"/>
<path d="M79.2978 43.2015C79.2366 43.2525 79.1651 43.3239 79.0732 43.4056C79.012 43.3341 78.9406 43.2423 78.8589 43.1504C78.9201 43.1096 79.0018 43.0381 79.0937 42.9769C79.1447 43.0279 79.2162 43.1096 79.2978 43.2015Z" fill="#28292B"/>
<path d="M100.745 42.548C100.827 42.6398 100.899 42.7113 100.99 42.8032C100.909 42.8644 100.817 42.9359 100.715 43.0074C100.664 42.9563 100.592 42.8848 100.5 42.8032C100.582 42.7215 100.654 42.6398 100.745 42.548Z" fill="#28292B"/>
<path d="M79.5429 42.7828C79.5429 42.7828 79.4306 42.8747 79.3489 42.9461C79.2979 42.8747 79.2571 42.8134 79.1958 42.7215C79.2366 42.6909 79.2979 42.6399 79.3796 42.5684C79.4204 42.6195 79.4715 42.6909 79.5429 42.7828Z" fill="#28292B"/>
<path d="M101.062 42.2215C101.062 42.2215 101.144 42.3236 101.205 42.4052C101.154 42.4461 101.082 42.4971 101.001 42.5686C100.96 42.5278 100.899 42.4665 100.827 42.395C100.899 42.3338 100.97 42.293 101.052 42.2215H101.062Z" fill="#28292B"/>
</svg>
