<svg width="229" height="50" viewBox="0 0 229 50" fill="none" xmlns="http://www.w3.org/2000/svg">
<path d="M42.2675 0L42.1778 0.0716707L36.4948 3.97986L30.8118 7.87021L35.6343 7.11717C31.744 18.9852 20.5931 27.5546 7.41637 27.5546C4.92445 27.5546 2.52212 27.2498 0.209473 26.6762C3.95633 28.3793 8.09752 29.3115 12.4718 29.3115C25.6665 29.3115 36.8533 20.7062 40.7077 8.80237L42.3929 11.4915L42.2495 0H42.2675Z" fill="#0089A8"/>
<path d="M5.30078 30.6742V50.0001H14.7666V35.3532L30.005 50.0001H39.148V17.1748C39.148 17.1748 34.2 23.9873 29.8436 26.049V35.7836L23.4793 29.4192C23.4793 29.4192 15.8063 32.8613 5.30078 30.6742Z" fill="#00385B"/>
<path d="M51.9662 27.7339C51.9662 28.0207 51.9482 28.2718 51.9124 28.4869C51.8765 28.702 51.787 28.8991 51.6794 29.0784C51.5539 29.2398 51.3746 29.3833 51.1415 29.4908C50.9085 29.5984 50.5858 29.6701 50.1914 29.7239L50.299 30.6919C50.7651 30.6202 51.1595 30.5306 51.5001 30.3872C51.8407 30.2617 52.1276 30.0645 52.3427 29.8135C52.5579 29.5625 52.7191 29.2577 52.8267 28.8633C52.9343 28.4868 52.9881 28.0028 52.9881 27.4471V24.0229H51.9842V27.7339H51.9662Z" fill="#00385B"/>
<path d="M80.5425 21.5841C80.5425 21.5841 80.4529 21.7097 80.417 21.7814C80.3812 21.8531 80.3633 21.9249 80.3633 22.0145C80.3633 22.1758 80.417 22.3192 80.5425 22.4447C80.6501 22.5523 80.7935 22.624 80.9728 22.624C81.0624 22.624 81.1341 22.624 81.2058 22.5702C81.2775 22.5344 81.3492 22.4985 81.403 22.4447C81.4568 22.391 81.4926 22.3371 81.5285 22.2654C81.5644 22.1937 81.5823 22.122 81.5823 22.0323C81.5823 21.9427 81.5823 21.871 81.5285 21.7993C81.4747 21.7275 81.4568 21.6559 81.403 21.6021C81.3492 21.5483 81.2775 21.5124 81.2058 21.4766C81.1341 21.4407 81.0624 21.4229 80.9728 21.4229C80.8831 21.4229 80.8114 21.4228 80.7397 21.4766C80.668 21.5304 80.5963 21.5483 80.5605 21.6021L80.5425 21.5841Z" fill="#00385B"/>
<path d="M80.1477 21.1182C80.1477 21.1182 80.309 21.1182 80.3807 21.0644C80.4525 21.0106 80.5243 20.9927 80.578 20.9389C80.6318 20.8851 80.6677 20.8314 80.7035 20.7596C80.7394 20.6879 80.7573 20.6162 80.7573 20.5266C80.7573 20.4369 80.7573 20.3652 80.7035 20.2935C80.6677 20.2218 80.6318 20.1501 80.578 20.0963C80.5243 20.0426 80.4525 20.0067 80.3807 19.9708C80.309 19.935 80.2373 19.917 80.1477 19.917C80.058 19.917 79.9864 19.917 79.9147 19.9708C79.843 20.0067 79.7712 20.0426 79.7354 20.0963C79.6816 20.1501 79.6457 20.2218 79.6099 20.2935C79.574 20.3652 79.5562 20.4369 79.5562 20.5266C79.5562 20.6879 79.6099 20.8313 79.7354 20.9568C79.8429 21.0644 79.9864 21.1361 80.1656 21.1361L80.1477 21.1182Z" fill="#00385B"/>
<path d="M79.3602 22.6064C79.3602 22.6064 79.5214 22.6064 79.5932 22.5527C79.6649 22.5168 79.7367 22.4809 79.7904 22.4272C79.8442 22.3734 79.8801 22.3195 79.9159 22.2478C79.9518 22.1761 79.9697 22.1045 79.9697 22.0149C79.9697 21.9252 79.9697 21.8535 79.9159 21.7818C79.8622 21.7101 79.8442 21.6383 79.7904 21.5845C79.7367 21.5307 79.6649 21.4949 79.5932 21.459C79.5214 21.4231 79.4498 21.4053 79.3602 21.4053C79.2706 21.4053 79.1988 21.4052 79.1271 21.459C79.0554 21.5128 78.9836 21.5307 78.9478 21.5845C78.894 21.6383 78.8581 21.7101 78.8223 21.7818C78.7864 21.8535 78.7686 21.9252 78.7686 22.0149C78.7686 22.1762 78.8223 22.3196 78.9478 22.4451C79.0733 22.5706 79.1988 22.6243 79.378 22.6243L79.3602 22.6064Z" fill="#00385B"/>
<path d="M84.9885 22.6064C84.9885 22.6064 85.1499 22.6064 85.2216 22.5527C85.2933 22.5168 85.365 22.4809 85.4187 22.4272C85.4725 22.3734 85.5084 22.3195 85.5443 22.2478C85.5801 22.1761 85.5981 22.1045 85.5981 22.0149C85.5981 21.9252 85.598 21.8535 85.5443 21.7818C85.5084 21.7101 85.4725 21.6383 85.4187 21.5845C85.365 21.5307 85.2933 21.4949 85.2216 21.459C85.1499 21.4231 85.0781 21.4053 84.9885 21.4053C84.8989 21.4053 84.8271 21.4052 84.7554 21.459C84.6837 21.4949 84.6121 21.5307 84.5762 21.5845C84.5224 21.6383 84.4866 21.7101 84.4507 21.7818C84.4148 21.8535 84.397 21.9252 84.397 22.0149C84.397 22.1762 84.4507 22.3196 84.5762 22.4451C84.7017 22.5706 84.8272 22.6243 85.0064 22.6243L84.9885 22.6064Z" fill="#00385B"/>
<path d="M83.3939 22.6064C83.3939 22.6064 83.5551 22.6064 83.6268 22.5527C83.6986 22.5168 83.7703 22.4809 83.8241 22.4272C83.8779 22.3734 83.9138 22.3195 83.9496 22.2478C83.9855 22.1761 84.0034 22.1045 84.0034 22.0149C84.0034 21.9252 84.0034 21.8535 83.9496 21.7818C83.9138 21.7101 83.8779 21.6383 83.8241 21.5845C83.7703 21.5307 83.6986 21.4949 83.6268 21.459C83.5551 21.4231 83.4835 21.4053 83.3939 21.4053C83.3042 21.4053 83.2325 21.4052 83.1608 21.459C83.0891 21.5128 83.0173 21.5307 82.9815 21.5845C82.9277 21.6383 82.8918 21.7101 82.856 21.7818C82.8201 21.8535 82.8022 21.9252 82.8022 22.0149C82.8022 22.1762 82.856 22.3196 82.9815 22.4451C83.089 22.5527 83.2324 22.6243 83.4117 22.6243L83.3939 22.6064Z" fill="#00385B"/>
<path d="M94.6693 27.3397H93.8625C93.5757 27.3397 93.3247 27.3218 93.0737 27.268C92.8227 27.2142 92.6076 27.1245 92.4283 26.9991V24.6326H91.4244V26.7123C91.4244 26.9274 91.3885 27.0887 91.3168 27.1962C91.2451 27.3038 91.1554 27.3576 91.0299 27.3576H90.6356C90.3667 27.3576 90.1157 27.3396 89.8647 27.2858C89.6137 27.2321 89.3986 27.1425 89.2014 26.9991V25.1167H88.1974V26.7123C88.1974 26.9274 88.1616 27.0887 88.0899 27.1962C88.0182 27.3038 87.9285 27.3576 87.803 27.3576H86.1716H86.1357C85.813 27.3576 85.5441 27.3218 85.311 27.268C85.078 27.2142 84.8809 27.1246 84.7195 27.017V24.0589H83.7156V26.7301C83.7156 26.9452 83.6797 27.1066 83.608 27.2142C83.5363 27.3217 83.4466 27.3756 83.3211 27.3756H82.1917H82.1559C81.8332 27.3756 81.5642 27.3396 81.3312 27.2858C81.0981 27.2321 80.9009 27.1425 80.7395 27.0349V24.0769H79.7356V26.748C79.7356 26.9632 79.6998 27.1246 79.628 27.2321C79.5563 27.3397 79.4667 27.3935 79.3412 27.3935H78.158C77.8173 27.3935 77.5305 27.3576 77.2975 27.3038C77.0644 27.2321 76.8492 27.1425 76.6879 27.017C76.7596 26.7839 76.7955 26.5688 76.7955 26.3716C76.7955 26.2103 76.7776 26.0489 76.7417 25.8696C76.7059 25.6903 76.652 25.5111 76.5624 25.3497C76.4907 25.1705 76.3832 25.0091 76.2577 24.8477C76.1322 24.6864 76.0067 24.543 75.8454 24.4175C75.684 24.292 75.5047 24.2024 75.2896 24.1307C75.0924 24.059 74.8593 24.0231 74.6084 24.0231C74.5008 24.0231 74.3753 24.0231 74.2318 24.0589C74.0884 24.0768 73.945 24.1307 73.8016 24.2024C73.6582 24.2741 73.4968 24.3637 73.3534 24.4892C73.1921 24.6146 73.0486 24.776 72.9052 24.9732C72.7618 25.1704 72.6184 25.4215 72.475 25.7083C72.3316 25.9952 72.224 26.3357 72.1164 26.748C72.0447 26.9811 71.9371 27.1425 71.7578 27.2501C71.5786 27.3576 71.3635 27.4113 71.1484 27.4113H56.3223C56.2147 27.4113 56.1072 27.4114 56.0355 27.3576C55.9638 27.3218 55.9099 27.2679 55.8561 27.1962C55.8203 27.1245 55.7844 27.017 55.7665 26.8915C55.7665 26.766 55.7486 26.5867 55.7486 26.3895V20.3838H54.7446V26.7839C54.7446 27.017 54.7805 27.2321 54.8342 27.4293C54.888 27.6265 54.9777 27.8058 55.1032 27.9493C55.2287 28.0927 55.3721 28.2003 55.5514 28.2899C55.7307 28.3795 55.9458 28.4153 56.1968 28.4153H71.3455C71.5069 28.4153 71.6323 28.4154 71.7578 28.3795C71.8833 28.3616 71.9909 28.3078 72.0985 28.254C72.206 28.2002 72.2957 28.1106 72.3854 28.0209C72.475 27.9313 72.5647 27.8058 72.6364 27.6624C72.726 27.752 72.8336 27.8596 72.9591 27.9493C73.0845 28.0568 73.2459 28.1285 73.4072 28.2181C73.5686 28.3077 73.7658 28.3615 73.9809 28.4153C74.1961 28.4691 74.4111 28.4871 74.6621 28.4871C75.0565 28.4871 75.3971 28.4154 75.666 28.2719C75.9349 28.1285 76.168 27.9313 76.3473 27.7162C76.4369 27.8238 76.5446 27.9133 76.6521 28.003C76.7597 28.0926 76.9031 28.1643 77.0465 28.2361C77.1899 28.3078 77.3513 28.3616 77.5485 28.3974C77.7278 28.4333 77.9429 28.4512 78.1759 28.4512H79.5743C79.8074 28.4512 80.0045 28.3975 80.1658 28.2899C80.3272 28.1823 80.4527 28.0568 80.5424 27.9134C80.7216 28.0747 80.9368 28.2003 81.2057 28.2899C81.4567 28.3975 81.7793 28.4332 82.1737 28.4332H83.5721C83.8052 28.4332 84.0024 28.3795 84.1638 28.2719C84.3251 28.1644 84.4505 28.0388 84.5402 27.8954C84.7194 28.0568 84.9346 28.1823 85.2035 28.2719C85.4545 28.3795 85.7772 28.4153 86.1716 28.4153H88.0719C88.305 28.4153 88.5021 28.3616 88.6635 28.2719C88.8248 28.1644 88.9504 28.0388 89.04 27.8954C89.1476 27.9851 89.2731 28.0747 89.3986 28.1464C89.5241 28.2181 89.6674 28.2719 89.8109 28.3077C89.9543 28.3436 90.0977 28.3795 90.2411 28.3974C90.3845 28.4154 90.528 28.4332 90.6715 28.4332H91.2809C91.514 28.4332 91.7112 28.3795 91.8726 28.2899C92.0339 28.1823 92.1593 28.0747 92.249 27.9134C92.3745 28.0209 92.5 28.1106 92.6434 28.1644C92.7869 28.2361 92.9303 28.2898 93.0737 28.3257C93.2171 28.3615 93.3605 28.3974 93.5039 28.4153C93.6473 28.4332 93.7729 28.4332 93.8984 28.4332H95.7269V24.1127H94.723V27.4293L94.6693 27.3397ZM75.8095 26.8915C75.7378 27.017 75.6482 27.1245 75.5227 27.1962C75.3972 27.2679 75.2538 27.3218 75.0745 27.3576C74.8952 27.3935 74.7159 27.4113 74.5008 27.4113C74.3574 27.4113 74.196 27.4114 74.0347 27.3576C73.8733 27.3218 73.7119 27.2859 73.5685 27.2501C73.4251 27.1963 73.2997 27.1424 73.1921 27.0887C73.0846 27.0349 73.0127 26.9812 72.9769 26.9274C73.0127 26.6764 73.0845 26.4253 73.1742 26.1743C73.2638 25.9234 73.3893 25.7083 73.5148 25.529C73.6403 25.3497 73.8195 25.1884 73.9988 25.0808C74.178 24.9732 74.3753 24.9016 74.5904 24.9016C74.8235 24.9016 75.0207 24.9553 75.1821 25.0628C75.3434 25.1704 75.4868 25.296 75.5943 25.4573C75.7019 25.6187 75.7736 25.7799 75.8274 25.9592C75.8812 26.1385 75.8991 26.2819 75.8991 26.4254C75.8991 26.6226 75.8633 26.7839 75.8095 26.9094V26.8915Z" fill="#00385B"/>
<path d="M100.693 30.5846C100.586 30.5487 100.514 30.4949 100.442 30.4412C100.371 30.3874 100.317 30.3157 100.299 30.244C100.263 30.1723 100.245 30.1006 100.245 30.0289C100.245 29.8854 100.299 29.7779 100.407 29.7062C100.514 29.6345 100.64 29.6166 100.801 29.6166C100.873 29.6166 100.944 29.6166 100.998 29.6166C101.052 29.6166 101.106 29.6166 101.124 29.6345L101.195 29.1684C101.195 29.1684 101.034 29.1504 100.962 29.1325C100.891 29.1146 100.819 29.1325 100.765 29.1325C100.604 29.1325 100.442 29.1504 100.335 29.2042C100.209 29.24 100.102 29.3118 100.03 29.3835C99.9405 29.4552 99.8867 29.5269 99.8509 29.6345C99.815 29.7241 99.797 29.8137 99.797 29.9213C99.797 30.0289 99.7971 30.1006 99.8329 30.1903C99.8509 30.262 99.8867 30.3337 99.9226 30.4054C99.9584 30.4592 99.9943 30.5129 100.048 30.5667C100.084 30.6025 100.12 30.6383 100.156 30.6563H99.5103V31.1224H101.249V30.6563H101.088C100.944 30.6563 100.819 30.6384 100.729 30.6025L100.693 30.5846Z" fill="#00385B"/>
<path d="M106.932 27.3396H105.408H105.372C104.996 27.3396 104.691 27.3037 104.44 27.2141C104.189 27.1424 103.974 27.0168 103.794 26.8555V20.312H102.79V26.7122C102.79 26.9273 102.755 27.0886 102.683 27.1961C102.611 27.3037 102.522 27.3575 102.396 27.3575H100.908V22.4991H99.9042V27.3575H97.4302V28.3615H102.611C102.88 28.3615 103.077 28.3076 103.257 28.1821C103.418 28.0566 103.544 27.9132 103.633 27.7339C103.723 27.8236 103.83 27.9132 103.938 27.9849C104.045 28.0566 104.171 28.1283 104.314 28.1821C104.458 28.2359 104.619 28.2897 104.781 28.3076C104.96 28.3435 105.139 28.3615 105.354 28.3615H107.936V20.33H106.932V27.3575V27.3396Z" fill="#00385B"/>
<path d="M116.99 31.7321C116.99 31.7321 116.865 31.6424 116.793 31.6066C116.721 31.5707 116.65 31.5527 116.56 31.5527C116.47 31.5527 116.399 31.5528 116.327 31.6066C116.255 31.6424 116.183 31.6783 116.147 31.7321C116.094 31.7859 116.058 31.8575 116.022 31.9293C115.986 32.001 115.968 32.0727 115.968 32.1623C115.968 32.3237 116.022 32.4671 116.147 32.5926C116.255 32.7001 116.398 32.7719 116.578 32.7719C116.667 32.7719 116.739 32.7718 116.811 32.7181C116.883 32.6822 116.954 32.6463 117.008 32.5926C117.062 32.5388 117.098 32.485 117.133 32.4133C117.169 32.3416 117.187 32.2699 117.187 32.1803C117.187 32.0906 117.187 32.0189 117.133 31.9472C117.098 31.8755 117.062 31.8038 117.008 31.75L116.99 31.7321Z" fill="#00385B"/>
<path d="M115.412 31.7321C115.412 31.7321 115.286 31.6424 115.214 31.6066C115.143 31.5707 115.071 31.5527 114.981 31.5527C114.892 31.5527 114.82 31.5528 114.748 31.6066C114.677 31.6424 114.605 31.6783 114.569 31.7321C114.515 31.7859 114.479 31.8575 114.443 31.9293C114.408 32.001 114.39 32.0727 114.39 32.1623C114.39 32.3237 114.443 32.4671 114.569 32.5926C114.676 32.7001 114.82 32.7719 114.999 32.7719C115.089 32.7719 115.16 32.7718 115.232 32.7181C115.304 32.6822 115.376 32.6463 115.429 32.5926C115.483 32.5388 115.519 32.485 115.555 32.4133C115.591 32.3416 115.609 32.2699 115.609 32.1803C115.609 32.0906 115.609 32.0189 115.555 31.9472C115.519 31.8755 115.483 31.8038 115.429 31.75L115.412 31.7321Z" fill="#00385B"/>
<path d="M146.803 29.5978C146.803 29.5978 146.678 29.5081 146.606 29.4723C146.534 29.4364 146.462 29.4185 146.373 29.4185C146.283 29.4185 146.212 29.4185 146.14 29.4723C146.068 29.5081 145.996 29.544 145.96 29.5978C145.907 29.6516 145.871 29.7233 145.835 29.795C145.799 29.8667 145.781 29.9384 145.781 30.028C145.781 30.1894 145.835 30.3328 145.96 30.4583C146.068 30.5658 146.211 30.6376 146.391 30.6376C146.48 30.6376 146.552 30.6376 146.624 30.5838C146.696 30.5479 146.767 30.5121 146.821 30.4583C146.875 30.4045 146.911 30.3508 146.946 30.2791C146.982 30.2073 147 30.1356 147 30.046C147 29.9563 147 29.8846 146.946 29.8129C146.911 29.7412 146.875 29.6695 146.821 29.6157L146.803 29.5978Z" fill="#00385B"/>
<path d="M145.207 29.5978C145.207 29.5978 145.082 29.5081 145.01 29.4723C144.939 29.4364 144.867 29.4185 144.777 29.4185C144.688 29.4185 144.616 29.4185 144.544 29.4723C144.472 29.5081 144.401 29.544 144.365 29.5978C144.311 29.6516 144.275 29.7233 144.239 29.795C144.203 29.8667 144.186 29.9384 144.186 30.028C144.186 30.1894 144.239 30.3328 144.365 30.4583C144.472 30.5658 144.616 30.6376 144.795 30.6376C144.885 30.6376 144.956 30.6376 145.028 30.5838C145.1 30.5479 145.172 30.5121 145.225 30.4583C145.279 30.4045 145.315 30.3508 145.351 30.2791C145.387 30.2073 145.405 30.1356 145.405 30.046C145.405 29.9563 145.405 29.8846 145.351 29.8129C145.315 29.7412 145.279 29.6695 145.225 29.6157L145.207 29.5978Z" fill="#00385B"/>
<path d="M150.747 22.6064C150.747 22.6064 150.908 22.6064 150.98 22.5527C151.052 22.5168 151.123 22.4809 151.177 22.4272C151.231 22.3734 151.267 22.3195 151.303 22.2478C151.338 22.1761 151.356 22.1045 151.356 22.0149C151.356 21.9252 151.356 21.8535 151.303 21.7818C151.267 21.7101 151.231 21.6383 151.177 21.5845C151.123 21.5307 151.052 21.4949 150.98 21.459C150.908 21.4231 150.836 21.4053 150.747 21.4053C150.657 21.4053 150.585 21.4052 150.514 21.459C150.442 21.4949 150.37 21.5307 150.335 21.5845C150.281 21.6383 150.245 21.7101 150.209 21.7818C150.173 21.8535 150.155 21.9252 150.155 22.0149C150.155 22.1762 150.209 22.3196 150.335 22.4451C150.442 22.5527 150.585 22.6243 150.765 22.6243L150.747 22.6064Z" fill="#00385B"/>
<path d="M156.018 22.6064C156.018 22.6064 156.179 22.6064 156.251 22.5527C156.323 22.5168 156.394 22.4809 156.448 22.4272C156.502 22.3734 156.538 22.3195 156.574 22.2478C156.609 22.1761 156.627 22.1045 156.627 22.0149C156.627 21.9252 156.627 21.8535 156.574 21.7818C156.538 21.7101 156.502 21.6383 156.448 21.5845C156.394 21.5307 156.323 21.4949 156.251 21.459C156.179 21.4231 156.107 21.4053 156.018 21.4053C155.928 21.4053 155.856 21.4052 155.785 21.459C155.713 21.5128 155.641 21.5307 155.606 21.5845C155.552 21.6383 155.516 21.7101 155.48 21.7818C155.444 21.8535 155.426 21.9252 155.426 22.0149C155.426 22.1762 155.48 22.3196 155.606 22.4451C155.713 22.5527 155.856 22.6243 156.036 22.6243L156.018 22.6064Z" fill="#00385B"/>
<path d="M159.549 27.3402H158.025H157.99C157.667 27.3402 157.398 27.3043 157.165 27.2506C156.932 27.1968 156.735 27.1071 156.573 26.9996V24.0415H155.569V26.7128C155.569 26.9279 155.534 27.0892 155.462 27.1967C155.39 27.3043 155.3 27.3581 155.175 27.3581H152.611C152.611 27.3581 152.683 27.1788 152.737 27.0712C152.791 26.9637 152.827 26.8383 152.862 26.7128C152.898 26.5873 152.934 26.4438 152.97 26.2824C153.006 26.139 153.006 25.9777 153.006 25.8164C153.006 25.5475 152.97 25.2964 152.88 25.0454C152.791 24.8123 152.665 24.5973 152.504 24.418C152.342 24.2387 152.127 24.0953 151.876 23.9877C151.625 23.8802 151.338 23.8263 151.016 23.8263C150.639 23.8263 150.317 23.8802 150.012 24.0057C149.707 24.1312 149.456 24.2745 149.259 24.4897C149.044 24.6869 148.9 24.9199 148.775 25.1889C148.649 25.4578 148.613 25.7447 148.613 26.0315C148.613 26.1211 148.613 26.2287 148.649 26.3362C148.667 26.4438 148.703 26.5693 148.757 26.6948C148.811 26.8203 148.865 26.9279 148.936 27.0354C149.008 27.143 149.098 27.2505 149.187 27.3402L147.627 27.3581H147.592C147.269 27.3581 147 27.3223 146.767 27.2685C146.534 27.2147 146.337 27.1251 146.175 27.0175V24.0594H145.171V26.7306C145.171 26.9457 145.136 27.1071 145.064 27.2147C144.992 27.3222 144.903 27.3761 144.777 27.3761H129.001C128.821 27.3761 128.642 27.3761 128.463 27.3581C128.284 27.3402 128.122 27.3222 127.979 27.3043C127.818 27.2864 127.692 27.2505 127.567 27.2147C127.441 27.1788 127.334 27.143 127.244 27.1071C127.531 26.8203 127.746 26.5693 127.907 26.3183C128.069 26.0673 128.194 25.8522 128.284 25.655C128.373 25.4578 128.427 25.2785 128.463 25.1172C128.499 24.9558 128.499 24.8304 128.499 24.7049C128.499 24.5435 128.445 24.4 128.337 24.2745C128.23 24.149 128.086 24.0594 127.925 23.9698C127.764 23.8981 127.567 23.8264 127.369 23.7906C127.172 23.7547 126.957 23.7367 126.76 23.7367C126.491 23.7367 126.24 23.7547 125.989 23.7906C125.756 23.8264 125.523 23.8801 125.326 23.9339C125.128 23.9877 124.931 24.0595 124.77 24.1312C124.609 24.2029 124.465 24.2746 124.358 24.3284C124.322 24.3463 124.286 24.4001 124.25 24.4718C124.214 24.5435 124.178 24.6331 124.142 24.7227C124.107 24.8124 124.071 24.92 124.053 25.0096C124.017 25.1172 123.999 25.1888 123.981 25.2785C124.053 25.3502 124.142 25.4757 124.25 25.6191C124.358 25.7804 124.483 25.9418 124.609 26.1211C124.734 26.3004 124.895 26.4796 125.039 26.641C125.2 26.8203 125.362 26.9637 125.523 27.0892C125.487 27.125 125.415 27.1609 125.326 27.1788C125.236 27.2146 125.11 27.2327 124.967 27.2685C124.824 27.2864 124.662 27.3222 124.483 27.3222C124.304 27.3222 124.107 27.3402 123.909 27.3402H122.583C122.475 27.3402 122.386 27.3401 122.314 27.3043C122.242 27.2864 122.17 27.2327 122.135 27.161C122.081 27.0892 122.045 26.9816 122.027 26.8561C122.009 26.7306 121.991 26.5334 121.991 26.3183V24.0236H120.503C119.714 24.0236 119.141 24.2029 118.764 24.5794C118.388 24.9559 118.191 25.5116 118.191 26.2466V28.1111C118.191 28.3262 118.137 28.5234 118.029 28.7206C117.922 28.9178 117.76 29.0791 117.563 29.2405C117.366 29.4018 117.097 29.5094 116.81 29.5991C116.523 29.6887 116.183 29.7425 115.806 29.7425C115.43 29.7425 115.089 29.7066 114.802 29.6528C114.515 29.5811 114.282 29.5095 114.067 29.4019C113.852 29.2943 113.709 29.1688 113.565 29.0254C113.44 28.882 113.332 28.7386 113.26 28.5951C113.189 28.4517 113.135 28.2904 113.099 28.1469C113.063 28.0035 113.063 27.86 113.063 27.7345C113.063 27.5911 113.063 27.4477 113.099 27.3043C113.135 27.1609 113.153 27.0175 113.189 26.874C113.225 26.7306 113.278 26.6052 113.332 26.4797C113.386 26.3542 113.458 26.2466 113.529 26.1391L112.705 25.6909C112.615 25.8164 112.525 25.9418 112.436 26.1032C112.364 26.2645 112.292 26.4259 112.221 26.6052C112.149 26.7845 112.113 26.9816 112.077 27.1788C112.041 27.376 112.023 27.5912 112.023 27.7884C112.023 27.9497 112.041 28.129 112.095 28.3441C112.131 28.5592 112.221 28.7744 112.31 28.9895C112.4 29.2046 112.561 29.4198 112.741 29.635C112.92 29.8501 113.153 30.0293 113.422 30.2085C113.691 30.3699 114.031 30.5134 114.408 30.603C114.784 30.6926 115.232 30.7465 115.752 30.7465C116.29 30.7465 116.774 30.6747 117.187 30.5134C117.617 30.352 117.975 30.1548 118.262 29.8859C118.549 29.6349 118.782 29.3301 118.925 29.0074C119.087 28.6847 119.159 28.3441 119.159 27.9855V26.3362C119.159 26.0494 119.194 25.7984 119.266 25.6191C119.338 25.4398 119.445 25.2964 119.589 25.1889C119.732 25.0813 119.894 25.0275 120.091 24.9917C120.288 24.9558 120.503 24.9378 120.754 24.9378H120.951V26.6948C120.951 26.9996 120.987 27.2506 121.077 27.4657C121.166 27.6808 121.274 27.8421 121.399 27.9676C121.525 28.0931 121.686 28.1828 121.866 28.2366C122.045 28.2903 122.206 28.3262 122.403 28.3262H123.838C124.089 28.3262 124.322 28.3262 124.555 28.2724C124.788 28.2366 125.003 28.1828 125.2 28.129C125.397 28.0752 125.595 28.0035 125.774 27.9139C125.953 27.8422 126.114 27.7525 126.276 27.6629C126.365 27.7166 126.473 27.7704 126.634 27.86C126.796 27.9497 126.975 28.0035 127.172 28.0752C127.369 28.1469 127.62 28.2007 127.871 28.2545C128.122 28.3083 128.409 28.3262 128.714 28.3262H144.992C145.225 28.3262 145.422 28.2725 145.584 28.1649C145.745 28.0573 145.871 27.9318 145.96 27.7884C146.14 27.9497 146.355 28.0753 146.624 28.1649C146.875 28.2725 147.197 28.3082 147.592 28.3082H148.237C148.506 28.3082 148.757 28.3082 149.026 28.3082C149.295 28.3082 149.564 28.3083 149.815 28.2724C150.084 28.2724 150.335 28.2365 150.568 28.2186C150.819 28.2007 151.052 28.1649 151.249 28.129C151.554 28.2007 151.876 28.2366 152.235 28.2724C152.593 28.3083 152.988 28.3082 153.436 28.3082H155.372C155.605 28.3082 155.802 28.2545 155.964 28.1469C156.125 28.0394 156.251 27.9138 156.34 27.7704C156.52 27.9318 156.735 28.0573 157.004 28.1469C157.255 28.2545 157.577 28.2904 157.972 28.2904H160.553V20.2588H159.549V27.2863V27.3402ZM126.832 26.2824C126.688 26.4258 126.527 26.5334 126.365 26.641C126.204 26.5513 126.061 26.4259 125.899 26.2646C125.738 26.1032 125.595 25.9418 125.451 25.7805C125.308 25.6191 125.182 25.4578 125.075 25.2964C124.967 25.1351 124.895 25.0276 124.842 24.92C125.129 24.7945 125.397 24.7048 125.648 24.6511C125.899 24.5973 126.132 24.5614 126.33 24.5614C126.509 24.5614 126.67 24.5793 126.814 24.6152C126.957 24.651 127.083 24.7048 127.172 24.7586C127.262 24.8124 127.352 24.8841 127.405 24.9558C127.459 25.0275 127.477 25.1171 127.477 25.1889C127.477 25.2606 127.459 25.3503 127.405 25.4758C127.352 25.6013 127.28 25.7267 127.172 25.8522C127.065 25.9777 126.957 26.1211 126.814 26.2466L126.832 26.2824ZM151.93 26.39C151.894 26.5334 151.858 26.6589 151.823 26.7665C151.787 26.892 151.733 26.9995 151.679 27.0892C151.625 27.1788 151.572 27.2685 151.536 27.3222H151.177C150.944 27.3222 150.729 27.2864 150.532 27.2147C150.335 27.143 150.155 27.0534 150.012 26.9279C149.868 26.8024 149.743 26.641 149.653 26.4797C149.564 26.3183 149.528 26.1032 149.528 25.8881C149.528 25.6909 149.564 25.5116 149.635 25.3682C149.707 25.2248 149.815 25.0993 149.922 25.0096C150.048 24.92 150.173 24.8483 150.335 24.7945C150.478 24.7407 150.639 24.7227 150.783 24.7227C150.926 24.7227 151.088 24.7587 151.231 24.8124C151.374 24.8662 151.5 24.9378 151.607 25.0454C151.715 25.153 151.805 25.2785 151.876 25.4399C151.948 25.6012 151.966 25.7805 151.966 25.9777C151.966 26.1211 151.966 26.2645 151.912 26.4079L151.93 26.39Z" fill="#00385B"/>
<path d="M163.458 20.312H162.454V28.3435H163.458V20.312Z" fill="#00385B"/>
<path d="M171.489 22.3379C171.489 22.3379 171.65 22.3379 171.722 22.2841C171.794 22.2483 171.865 22.2124 171.919 22.1586C171.973 22.1048 172.009 22.0511 172.045 21.9794C172.081 21.9077 172.099 21.8359 172.099 21.7463C172.099 21.6567 172.099 21.5849 172.045 21.5132C172.009 21.4415 171.973 21.3698 171.919 21.3161C171.865 21.2623 171.794 21.2264 171.722 21.1906C171.65 21.1547 171.579 21.1367 171.489 21.1367C171.399 21.1367 171.328 21.1368 171.256 21.1906C171.184 21.2264 171.113 21.2623 171.077 21.3161C171.023 21.3698 170.987 21.4415 170.951 21.5132C170.915 21.5849 170.897 21.6567 170.897 21.7463C170.897 21.9077 170.951 22.0511 171.077 22.1765C171.184 22.2841 171.328 22.3558 171.507 22.3558L171.489 22.3379Z" fill="#00385B"/>
<path d="M169.894 22.3379C169.894 22.3379 170.055 22.3379 170.127 22.2841C170.199 22.2483 170.27 22.2124 170.324 22.1586C170.378 22.1048 170.414 22.0511 170.45 21.9794C170.485 21.9077 170.503 21.8359 170.503 21.7463C170.503 21.6567 170.503 21.5849 170.45 21.5132C170.414 21.4415 170.378 21.3698 170.324 21.3161C170.27 21.2623 170.199 21.2264 170.127 21.1906C170.055 21.1547 169.984 21.1367 169.894 21.1367C169.804 21.1367 169.733 21.1368 169.661 21.1906C169.589 21.2264 169.517 21.2623 169.481 21.3161C169.428 21.3698 169.392 21.4415 169.356 21.5132C169.32 21.5849 169.302 21.6567 169.302 21.7463C169.302 21.9077 169.356 22.0511 169.481 22.1765C169.589 22.2841 169.732 22.3558 169.912 22.3558L169.894 22.3379Z" fill="#00385B"/>
<path d="M186.871 27.2322C186.692 27.1605 186.531 27.0709 186.405 26.9454C186.28 26.8199 186.172 26.6764 186.1 26.5151C186.029 26.3537 185.993 26.1565 185.993 25.9593C185.993 25.7442 186.029 25.547 186.1 25.4036C186.172 25.2601 186.262 25.1346 186.369 25.045C186.477 24.9553 186.602 24.9016 186.746 24.8657C186.871 24.8299 187.015 24.812 187.14 24.812C187.212 24.812 187.302 24.812 187.409 24.812C187.517 24.812 187.606 24.8299 187.714 24.8478C187.821 24.8478 187.911 24.8837 188.019 24.9016C188.108 24.9196 188.198 24.9375 188.27 24.9733L188.377 23.9156C188.377 23.9156 188.252 23.8797 188.162 23.8618C188.072 23.8618 187.983 23.8259 187.875 23.8259C187.768 23.8259 187.66 23.8081 187.571 23.7901C187.463 23.7901 187.373 23.7901 187.302 23.7901C186.979 23.7901 186.674 23.8439 186.405 23.9694C186.136 24.0949 185.903 24.2563 185.706 24.4714C185.509 24.6865 185.365 24.9195 185.258 25.2064C185.15 25.4932 185.097 25.7801 185.097 26.1028C185.097 26.3 185.114 26.5151 185.168 26.7123C185.222 26.9275 185.294 27.1426 185.383 27.3398H172.87C172.709 27.3398 172.583 27.3397 172.475 27.3039C172.386 27.2859 172.296 27.2321 172.243 27.1784C172.189 27.1246 172.153 27.035 172.135 26.9454C172.135 26.8378 172.117 26.7123 172.117 26.5689V23.1089H171.113V23.7004C170.916 23.7542 170.683 23.826 170.45 23.8977C170.199 23.9694 169.948 24.059 169.697 24.1486C169.446 24.2562 169.195 24.3637 168.944 24.4892C168.693 24.6147 168.478 24.7761 168.298 24.9554C168.101 25.1346 167.958 25.3319 167.85 25.547C167.743 25.7621 167.671 26.0131 167.671 26.2999C167.671 26.6047 167.725 26.8557 167.85 27.0708C167.976 27.2859 168.119 27.4653 168.298 27.5908C168.478 27.7163 168.693 27.8238 168.908 27.8955C169.141 27.9672 169.356 27.9851 169.589 27.9851C169.84 27.9851 170.091 27.9493 170.342 27.8776C170.593 27.8059 170.862 27.6803 171.131 27.519C171.167 27.6266 171.203 27.7342 171.274 27.8418C171.346 27.9493 171.418 28.0389 171.543 28.1106C171.651 28.1823 171.794 28.2541 171.974 28.29C172.153 28.3438 172.368 28.3616 172.601 28.3616H188.825V27.3577H187.481C187.266 27.3577 187.069 27.3219 186.871 27.2501V27.2322ZM171.095 26.6406C170.916 26.766 170.719 26.8557 170.486 26.9275C170.27 26.9992 170.019 27.035 169.751 27.035C169.607 27.035 169.464 27.035 169.338 26.9991C169.195 26.9633 169.069 26.9274 168.962 26.8557C168.854 26.784 168.764 26.6944 168.693 26.5868C168.621 26.4793 168.585 26.3358 168.585 26.1744C168.585 25.9772 168.639 25.798 168.765 25.6366C168.89 25.4753 169.051 25.3319 169.284 25.2064C169.5 25.0809 169.768 24.9733 170.073 24.8657C170.378 24.7582 170.719 24.6864 171.095 24.6147V26.6764V26.6406Z" fill="#00385B"/>
<path d="M220.378 29.5978C220.378 29.5978 220.252 29.5081 220.181 29.4723C220.109 29.4364 220.037 29.4185 219.948 29.4185C219.858 29.4185 219.786 29.4185 219.715 29.4723C219.643 29.5081 219.571 29.544 219.535 29.5978C219.481 29.6516 219.446 29.7233 219.41 29.795C219.374 29.8667 219.356 29.9384 219.356 30.028C219.356 30.1894 219.41 30.3328 219.535 30.4583C219.643 30.5658 219.786 30.6376 219.966 30.6376C220.055 30.6376 220.127 30.6376 220.199 30.5838C220.27 30.5479 220.342 30.5121 220.396 30.4583C220.45 30.4045 220.485 30.3508 220.521 30.2791C220.557 30.2073 220.575 30.1356 220.575 30.046C220.575 29.9563 220.575 29.8846 220.521 29.8129C220.468 29.7412 220.45 29.6695 220.396 29.6157L220.378 29.5978Z" fill="#00385B"/>
<path d="M228.982 25.7791C228.946 25.5998 228.893 25.4206 228.803 25.2593C228.731 25.08 228.624 24.9186 228.498 24.7572C228.373 24.5959 228.247 24.4525 228.086 24.327C227.924 24.2015 227.745 24.1118 227.53 24.0401C227.333 23.9684 227.1 23.9325 226.849 23.9325C226.741 23.9325 226.616 23.9326 226.472 23.9684C226.329 23.9863 226.185 24.0402 226.042 24.1119C225.899 24.1836 225.737 24.2732 225.594 24.3987C225.433 24.5242 225.289 24.6855 225.146 24.8827C225.002 25.0799 224.859 25.3309 224.715 25.6177C224.59 25.9046 224.464 26.2452 224.357 26.6575C224.285 26.8906 224.178 27.052 223.998 27.1596C223.819 27.2671 223.604 27.3209 223.389 27.3209H222.6C222.457 27.3209 222.349 27.267 222.259 27.1774C222.17 27.0878 222.098 26.9444 222.044 26.7831C221.99 26.6217 221.937 26.4245 221.901 26.2094C221.865 25.9942 221.829 25.7612 221.793 25.5281C221.757 25.2592 221.686 25.0262 221.578 24.8111C221.471 24.5959 221.345 24.3987 221.184 24.2374C221.022 24.076 220.843 23.9505 220.61 23.8609C220.395 23.7712 220.126 23.7354 219.839 23.7354C219.552 23.7354 219.301 23.7533 219.068 23.8071C218.835 23.8609 218.62 23.9147 218.405 23.9864V24.9007C218.405 24.9007 218.548 24.8469 218.656 24.8111C218.746 24.7931 218.853 24.7572 218.961 24.7393C219.068 24.7214 219.176 24.7035 219.283 24.6856C219.391 24.6856 219.481 24.6676 219.57 24.6676C219.857 24.6676 220.09 24.7213 220.269 24.8289C220.449 24.9365 220.592 25.08 220.682 25.2413C220.771 25.4027 220.861 25.6177 220.897 25.8328C220.951 26.048 220.987 26.2632 221.004 26.4783C221.04 26.7114 221.076 26.8906 221.13 27.0341C221.184 27.1596 221.237 27.2671 221.327 27.3567H210.212C209.872 27.3567 209.585 27.3209 209.352 27.2671C209.118 27.2133 208.903 27.1057 208.742 26.9802C208.814 26.7472 208.85 26.5321 208.85 26.3349C208.85 26.1735 208.832 26.0121 208.796 25.8328C208.76 25.6536 208.706 25.4743 208.617 25.313C208.545 25.1337 208.437 24.9724 208.312 24.8111C208.186 24.6497 208.061 24.5062 207.899 24.3807C207.738 24.2552 207.559 24.1656 207.344 24.0939C207.146 24.0222 206.913 23.9864 206.662 23.9864C206.555 23.9864 206.429 23.9864 206.286 24.0223C206.143 24.0402 205.999 24.0939 205.856 24.1656C205.712 24.2373 205.551 24.327 205.408 24.4525C205.246 24.578 205.103 24.7393 204.959 24.9365C204.816 25.1337 204.672 25.3847 204.529 25.6716C204.404 25.9584 204.278 26.299 204.171 26.7114C204.099 26.9444 203.991 27.1057 203.812 27.2133C203.633 27.3209 203.418 27.3747 203.202 27.3747H194.651V26.4245C194.651 26.0839 194.615 25.7791 194.561 25.5102C194.508 25.2412 194.418 25.0261 194.31 24.8289C194.203 24.6317 194.077 24.4884 193.952 24.3629C193.808 24.2374 193.665 24.1477 193.504 24.076C193.342 24.0043 193.199 23.9505 193.038 23.9325C192.876 23.8967 192.733 23.8967 192.571 23.8967C192.213 23.8967 191.872 23.9505 191.585 24.076C191.299 24.2015 191.048 24.3629 190.832 24.578C190.617 24.7931 190.456 25.0441 190.348 25.313C190.241 25.5998 190.187 25.9046 190.187 26.2273C190.187 26.4783 190.223 26.7472 190.313 26.9982C190.402 27.2671 190.546 27.5002 190.725 27.6974C190.922 27.9125 191.173 28.0738 191.496 28.1993C191.818 28.3248 192.195 28.3966 192.661 28.3966H193.575C193.45 28.8089 193.163 29.1316 192.715 29.3646C192.249 29.6156 191.639 29.759 190.886 29.8128L190.994 30.7809C191.442 30.7271 191.872 30.6554 192.267 30.5657C192.661 30.4582 193.02 30.3148 193.324 30.1355C193.629 29.9562 193.898 29.7231 194.113 29.4363C194.328 29.1495 194.49 28.8089 194.579 28.3966H203.382C203.543 28.3966 203.669 28.3965 203.794 28.3607C203.92 28.3248 204.027 28.289 204.135 28.2352C204.242 28.1814 204.332 28.0917 204.421 28.0021C204.511 27.8945 204.601 27.787 204.672 27.6435C204.762 27.7332 204.87 27.8408 204.995 27.9304C205.121 28.038 205.282 28.1096 205.443 28.1993C205.605 28.271 205.802 28.3428 206.017 28.3966C206.232 28.4504 206.447 28.4682 206.698 28.4682C207.093 28.4682 207.433 28.3965 207.702 28.2531C207.971 28.1097 208.204 27.9125 208.383 27.6974C208.473 27.8049 208.581 27.8945 208.688 27.9842C208.796 28.0738 208.939 28.1455 209.083 28.2172C209.226 28.2889 209.387 28.3428 209.585 28.3786C209.764 28.4145 209.979 28.4324 210.212 28.4324H223.532C223.694 28.4324 223.819 28.4324 223.945 28.3966C224.07 28.3786 224.178 28.3249 224.285 28.2711C224.393 28.2173 224.482 28.1276 224.572 28.038C224.662 27.9304 224.751 27.8228 224.823 27.6794C224.913 27.7691 225.02 27.8766 225.146 27.9662C225.271 28.0738 225.433 28.1455 225.594 28.2352C225.755 28.3069 225.952 28.3786 226.168 28.4324C226.383 28.4861 226.598 28.5041 226.849 28.5041C227.1 28.5041 227.333 28.4682 227.53 28.4144C227.727 28.3427 227.924 28.2711 228.086 28.1635C228.247 28.0559 228.391 27.9304 228.498 27.787C228.624 27.6436 228.713 27.5001 228.785 27.3388C228.857 27.1775 228.91 27.034 228.946 26.8547C228.982 26.6754 229 26.532 229 26.3886C229 26.2272 228.982 26.066 228.946 25.8867L228.982 25.7791ZM193.665 27.3388H192.661C192.392 27.3388 192.159 27.303 191.98 27.2312C191.8 27.1595 191.639 27.0698 191.514 26.9623C191.388 26.8547 191.316 26.7114 191.245 26.5679C191.191 26.4245 191.155 26.2631 191.155 26.0839C191.155 25.8867 191.191 25.7074 191.245 25.546C191.299 25.3847 191.388 25.2413 191.514 25.1338C191.621 25.0262 191.747 24.9365 191.908 24.8648C192.052 24.7931 192.213 24.7752 192.392 24.7752C192.554 24.7752 192.697 24.7931 192.84 24.8468C192.984 24.9006 193.127 24.9903 193.235 25.1338C193.36 25.2772 193.45 25.4743 193.522 25.7253C193.593 25.9763 193.629 26.299 193.629 26.6934V27.3209L193.665 27.3388ZM207.881 26.8906C207.81 27.0161 207.72 27.1236 207.595 27.1954C207.469 27.2671 207.326 27.3209 207.146 27.3567C206.967 27.3926 206.788 27.4105 206.573 27.4105C206.429 27.4105 206.268 27.4105 206.107 27.3567C205.945 27.3209 205.784 27.285 205.641 27.2492C205.497 27.1954 205.372 27.1416 205.264 27.0878C205.157 27.034 205.085 26.9803 205.049 26.9265C205.085 26.6755 205.157 26.4245 205.246 26.1735C205.336 25.9225 205.461 25.7074 205.587 25.5281C205.712 25.3488 205.892 25.1875 206.071 25.0799C206.25 24.9724 206.447 24.9007 206.662 24.9007C206.895 24.9007 207.093 24.9544 207.254 25.062C207.415 25.1695 207.559 25.2951 207.666 25.4564C207.774 25.6178 207.846 25.7791 207.899 25.9583C207.953 26.1376 207.971 26.2811 207.971 26.4245C207.971 26.6217 207.935 26.7831 207.881 26.9086V26.8906ZM228.032 26.8906C227.96 27.0161 227.871 27.1236 227.745 27.1954C227.62 27.2671 227.476 27.3209 227.297 27.3567C227.118 27.3926 226.938 27.4105 226.723 27.4105C226.58 27.4105 226.419 27.4105 226.257 27.3567C226.096 27.3209 225.935 27.285 225.791 27.2492C225.648 27.1954 225.522 27.1416 225.415 27.0878C225.307 27.034 225.235 26.9803 225.2 26.9265C225.235 26.6755 225.307 26.4245 225.397 26.1735C225.486 25.9225 225.612 25.7074 225.737 25.5281C225.881 25.3309 226.042 25.1875 226.221 25.0799C226.401 24.9724 226.598 24.9007 226.813 24.9007C227.046 24.9007 227.243 24.9544 227.405 25.062C227.566 25.1695 227.709 25.2951 227.817 25.4564C227.925 25.6178 227.996 25.7791 228.05 25.9583C228.104 26.1376 228.122 26.2811 228.122 26.4245C228.122 26.6217 228.086 26.7831 228.032 26.9086V26.8906Z" fill="#00385B"/>
<path d="M54.1357 36.6436L50.4067 44.5495H51.0521L52.2712 41.968H55.5878L56.771 44.5495H58.0976L54.4584 36.6436H54.1357ZM52.5222 41.484L53.9743 38.4184L55.3727 41.484H52.5222Z" fill="#0089A8"/>
<path d="M60.482 36.8232H59.1733V44.55H64.3723V44.0481H60.482V36.8232Z" fill="#0089A8"/>
<path d="M67.5986 41.4302H64.7661V42.1114H67.5986V41.4302Z" fill="#0089A8"/>
<path d="M74.7877 42.4884H74.734L69.6784 36.8232H68.9434V44.55H69.535V38.4547H69.5709L75.0567 44.7293H75.3614V36.8232H74.7877V42.4884Z" fill="#0089A8"/>
<path d="M77.459 44.55H82.8372V44.0481H78.7678V40.5881H81.4927V40.0861H78.7678V37.3253H82.8372V36.8232H77.459V44.55Z" fill="#0089A8"/>
<path d="M84.2896 44.55H85.5803V40.5881H88.3053V40.0861H85.5803V37.3253H89.345V36.8232H84.2896V44.55Z" fill="#0089A8"/>
<path d="M93.1634 36.6436L89.4346 44.5495H90.0799L91.299 41.968H94.6155L95.7988 44.5495H97.1254L93.4861 36.6436H93.1634ZM91.5321 41.484L92.9842 38.4184L94.3825 41.484H91.5321Z" fill="#0089A8"/>
<path d="M99.4925 36.8232H98.2017V44.55H99.4925V36.8232Z" fill="#0089A8"/>
<path d="M101.607 44.55H106.968V44.0481H102.898V40.5881H105.623V40.0861H102.898V37.3253H106.968V36.8232H101.607V44.55Z" fill="#0089A8"/>
<path d="M112.238 36.8232H110.948V44.55H112.238V36.8232Z" fill="#0089A8"/>
<path d="M120.198 42.4884H120.145L115.089 36.8232H114.354V44.55H114.946V38.4547H114.982L120.467 44.7293H120.772V36.8232H120.198V42.4884Z" fill="#0089A8"/>
<path d="M126.132 42.9724L123.21 36.8232H121.848L125.613 44.7293H125.953L129.467 36.8232H128.839L126.132 42.9724Z" fill="#0089A8"/>
<path d="M130.543 44.55H135.903V44.0481H131.834V40.5881H134.559V40.0861H131.834V37.3253H135.903V36.8232H130.543V44.55Z" fill="#0089A8"/>
<path d="M141.963 41.18C141.765 41.0007 141.514 40.8215 141.263 40.6781C140.994 40.5168 140.725 40.3733 140.457 40.2299C140.188 40.0865 139.919 39.9431 139.65 39.7997C139.381 39.6563 139.148 39.5128 138.951 39.3694C138.754 39.226 138.574 39.0646 138.449 38.8854C138.323 38.724 138.269 38.5268 138.269 38.3296C138.269 38.1862 138.305 38.0428 138.359 37.8994C138.413 37.7559 138.503 37.6304 138.628 37.5228C138.754 37.4153 138.897 37.3257 139.094 37.254C139.273 37.1823 139.489 37.1463 139.74 37.1463C140.008 37.1463 140.259 37.1823 140.475 37.254C140.69 37.3257 140.887 37.4333 141.048 37.5767C141.21 37.7201 141.353 37.8814 141.478 38.0786C141.604 38.2758 141.694 38.4909 141.783 38.724L142.446 38.4192C142.357 38.1324 142.231 37.8635 142.088 37.6483C141.945 37.4332 141.747 37.236 141.532 37.0926C141.317 36.9492 141.066 36.8237 140.779 36.752C140.492 36.6803 140.17 36.6265 139.793 36.6265C139.381 36.6265 139.022 36.6803 138.718 36.7879C138.413 36.8954 138.144 37.0388 137.929 37.2181C137.714 37.3974 137.552 37.6125 137.445 37.8814C137.337 38.1324 137.283 38.4014 137.283 38.7061C137.283 39.0109 137.337 39.2619 137.463 39.4949C137.588 39.728 137.75 39.9251 137.947 40.1044C138.144 40.2837 138.377 40.463 138.628 40.6064C138.879 40.7499 139.148 40.8933 139.399 41.0367C139.668 41.1801 139.919 41.3056 140.17 41.449C140.421 41.5924 140.654 41.7358 140.851 41.8792C141.048 42.0406 141.21 42.202 141.335 42.3812C141.46 42.5605 141.514 42.7756 141.514 43.0087C141.514 43.2059 141.478 43.3852 141.389 43.5286C141.299 43.672 141.174 43.7975 141.03 43.905C140.887 44.0126 140.708 44.0843 140.528 44.1381C140.349 44.1919 140.152 44.2098 139.955 44.2098C139.704 44.2098 139.471 44.1739 139.238 44.1022C139.022 44.0305 138.807 43.9229 138.628 43.7795C138.449 43.6361 138.287 43.4748 138.144 43.2776C138.001 43.0804 137.893 42.8473 137.821 42.5964L137.122 42.8832C137.23 43.17 137.355 43.421 137.516 43.654C137.678 43.8692 137.875 44.0664 138.09 44.2277C138.305 44.3891 138.574 44.4967 138.861 44.5863C139.148 44.6759 139.489 44.7118 139.865 44.7118C140.331 44.7118 140.726 44.6581 141.066 44.5326C141.407 44.4071 141.694 44.2636 141.927 44.0664C142.16 43.8692 142.339 43.6361 142.446 43.3672C142.554 43.0983 142.626 42.8115 142.626 42.5067C142.626 42.2378 142.572 41.9868 142.446 41.7717C142.321 41.5565 142.16 41.3415 141.945 41.1622L141.963 41.18Z" fill="#0089A8"/>
<path d="M143.63 37.3253H146.427V44.55H147.735V37.3253H150.532V36.8232H143.63V37.3253Z" fill="#0089A8"/>
<path d="M156.197 42.7572H156.125L153.131 36.8232H151.805V44.55H152.378V38.2754H152.468L155.659 44.55H155.928L159.101 38.2216H159.137V44.55H160.446V36.8232H159.137L156.197 42.7572Z" fill="#0089A8"/>
<path d="M162.543 44.55H167.921V44.0481H163.852V40.5881H166.577V40.0861H163.852V37.3253H167.921V36.8232H162.543V44.55Z" fill="#0089A8"/>
<path d="M175.29 42.4884H175.236L170.18 36.8232H169.445V44.55H170.037V38.4547H170.091L175.559 44.7293H175.863V36.8232H175.29V42.4884Z" fill="#0089A8"/>
<path d="M177.154 37.3253H179.951V44.55H181.242V37.3253H184.038V36.8232H177.154V37.3253Z" fill="#0089A8"/>
<path d="M192.464 41.0534H193.934V43.7604C193.719 43.9396 193.468 44.0652 193.199 44.1548C192.93 44.2445 192.625 44.2983 192.285 44.2983C191.819 44.2983 191.388 44.2086 190.976 44.0473C190.564 43.8859 190.205 43.6528 189.918 43.3481C189.614 43.0433 189.38 42.6668 189.201 42.2366C189.022 41.8063 188.95 41.3043 188.95 40.7665C188.95 40.2287 189.022 39.7446 189.183 39.2964C189.345 38.8662 189.56 38.4897 189.847 38.1849C190.133 37.8802 190.474 37.6472 190.868 37.4679C191.263 37.3065 191.693 37.2169 192.159 37.2169C192.679 37.2169 193.127 37.3603 193.54 37.6471C193.934 37.934 194.293 38.4001 194.633 39.0276L195.189 38.6511C195.028 38.3821 194.83 38.1491 194.615 37.8981C194.4 37.6651 194.149 37.4499 193.862 37.2706C193.576 37.0913 193.253 36.9479 192.912 36.8224C192.572 36.7149 192.195 36.6611 191.783 36.6611C191.37 36.6611 190.958 36.7149 190.564 36.8046C190.187 36.9121 189.829 37.0556 189.506 37.2348C189.183 37.4141 188.896 37.6292 188.645 37.8802C188.394 38.1312 188.179 38.418 188 38.7227C187.821 39.0275 187.677 39.3503 187.588 39.6909C187.498 40.0315 187.444 40.39 187.444 40.7486C187.444 41.1071 187.498 41.4657 187.588 41.8063C187.695 42.1469 187.839 42.4696 188.018 42.7564C188.197 43.0433 188.43 43.3122 188.699 43.5632C188.968 43.8142 189.255 44.0114 189.596 44.1907C189.918 44.37 190.277 44.4954 190.671 44.603C191.066 44.7106 191.46 44.7465 191.89 44.7465C192.303 44.7465 192.661 44.7464 192.966 44.6926C193.289 44.6568 193.576 44.603 193.844 44.5492C194.113 44.4954 194.364 44.4057 194.579 44.3161C194.813 44.2265 195.028 44.1189 195.261 43.9934V40.5873H192.5V41.0534H192.464Z" fill="#0089A8"/>
<path d="M201.571 40.5163C201.804 40.3908 202.001 40.2474 202.163 40.0861C202.324 39.9247 202.45 39.7275 202.539 39.5124C202.629 39.2972 202.683 39.0821 202.683 38.8311C202.683 38.5443 202.629 38.2755 202.503 38.0245C202.378 37.7735 202.216 37.5583 201.983 37.379C201.75 37.1997 201.464 37.0563 201.105 36.9667C200.746 36.8591 200.352 36.8232 199.886 36.8232H197.197V44.55H198.488V40.9108H199.402L202.091 44.55H203.597L200.782 40.8032C201.069 40.7315 201.32 40.6418 201.553 40.5163H201.571ZM200.065 40.4087C199.814 40.4805 199.545 40.5343 199.258 40.5343H198.505V37.3073H199.653C199.886 37.3073 200.101 37.3432 200.316 37.4328C200.513 37.5045 200.693 37.6121 200.836 37.7555C200.979 37.8989 201.087 38.0603 201.177 38.2575C201.248 38.4547 201.302 38.6698 201.302 38.9029C201.302 39.1539 201.248 39.3869 201.159 39.5842C201.051 39.7814 200.926 39.9606 200.728 40.104C200.549 40.2474 200.334 40.355 200.083 40.4267L200.065 40.4087Z" fill="#0089A8"/>
<path d="M212.274 38.6331C212.095 38.3463 211.862 38.0773 211.611 37.8264C211.36 37.5754 211.073 37.3782 210.75 37.1989C210.428 37.0197 210.087 36.8942 209.729 36.8046C209.37 36.7149 208.976 36.6611 208.581 36.6611C208.187 36.6611 207.792 36.7149 207.434 36.8046C207.075 36.8942 206.735 37.0376 206.412 37.1989C206.089 37.3782 205.802 37.5754 205.551 37.8264C205.3 38.0773 205.067 38.3463 204.888 38.6331C204.709 38.92 204.565 39.2427 204.458 39.5833C204.35 39.924 204.314 40.2824 204.314 40.641C204.314 41.1967 204.422 41.7346 204.637 42.2366C204.852 42.7385 205.157 43.1689 205.534 43.5274C205.91 43.9039 206.358 44.1907 206.878 44.4058C207.398 44.621 207.954 44.7285 208.545 44.7285C208.94 44.7285 209.334 44.6747 209.693 44.5851C210.051 44.4954 210.392 44.352 210.715 44.1728C211.037 43.9935 211.324 43.7784 211.575 43.5274C211.826 43.2764 212.059 43.0075 212.238 42.7027C212.418 42.3979 212.561 42.0753 212.669 41.7347C212.776 41.394 212.812 41.0354 212.812 40.6589C212.812 40.2825 212.758 39.9419 212.669 39.6013C212.579 39.2606 212.436 38.9379 212.238 38.6511L212.274 38.6331ZM211.145 42.129C211.019 42.5772 210.858 42.9716 210.625 43.2943C210.392 43.617 210.105 43.8859 209.764 44.0652C209.424 44.2445 209.029 44.3341 208.599 44.3341C208.169 44.3341 207.757 44.2445 207.416 44.0652C207.075 43.8859 206.788 43.617 206.555 43.2943C206.322 42.9716 206.143 42.5772 206.036 42.129C205.91 41.6808 205.856 41.1788 205.856 40.641C205.856 40.1032 205.91 39.6191 206.036 39.1709C206.143 38.7227 206.322 38.3463 206.555 38.0236C206.788 37.7009 207.075 37.4499 207.416 37.2706C207.757 37.0913 208.151 37.0018 208.599 37.0018C209.047 37.0018 209.442 37.0913 209.764 37.2706C210.105 37.4499 210.392 37.7009 210.625 38.0236C210.858 38.3463 211.037 38.7227 211.145 39.1709C211.27 39.6191 211.324 40.1032 211.324 40.641C211.324 41.1788 211.27 41.6629 211.145 42.129Z" fill="#0089A8"/>
<path d="M220.593 41.843C220.593 42.1657 220.539 42.4884 220.431 42.7752C220.324 43.062 220.162 43.3131 219.947 43.5282C219.732 43.7434 219.481 43.9226 219.194 44.0481C218.907 44.1736 218.567 44.2453 218.19 44.2453C217.814 44.2453 217.491 44.1736 217.204 44.0481C216.899 43.9226 216.649 43.7434 216.451 43.5282C216.236 43.3131 216.075 43.062 215.967 42.7752C215.86 42.4884 215.806 42.1837 215.806 41.843V36.8232H214.515V41.8071C214.515 42.2195 214.587 42.596 214.73 42.9545C214.874 43.3131 215.089 43.6178 215.358 43.8867C215.627 44.1556 215.985 44.3529 216.398 44.5142C216.81 44.6756 217.276 44.7473 217.814 44.7473C218.405 44.7473 218.925 44.6756 219.356 44.5142C219.786 44.3529 220.127 44.1556 220.413 43.8867C220.682 43.6178 220.879 43.313 221.023 42.9724C221.148 42.6138 221.22 42.2553 221.22 41.8609V36.8412H220.646V41.8609L220.593 41.843Z" fill="#0089A8"/>
<path d="M228.266 38.0961C228.122 37.8272 227.907 37.5941 227.656 37.3969C227.387 37.1997 227.082 37.0743 226.724 36.9667C226.365 36.8771 225.989 36.8232 225.594 36.8232H223.138V44.55H224.429V40.9824C224.429 40.9824 224.59 41.0183 224.716 41.0363C224.841 41.0363 224.967 41.0721 225.092 41.0721C225.236 41.0721 225.361 41.09 225.523 41.09C225.666 41.09 225.809 41.09 225.953 41.09C226.276 41.09 226.58 41.0541 226.885 40.9645C227.19 40.8749 227.459 40.7494 227.692 40.5881C227.925 40.4088 228.122 40.1937 228.266 39.9427C228.409 39.6917 228.481 39.369 228.481 39.0284C228.481 38.6878 228.409 38.365 228.248 38.0961H228.266ZM226.993 39.7454C226.921 39.9426 226.813 40.1041 226.688 40.2654C226.544 40.4088 226.365 40.5343 226.168 40.606C225.953 40.6957 225.72 40.7314 225.433 40.7314C225.254 40.7314 225.092 40.7315 224.913 40.6777C224.752 40.6418 224.59 40.606 224.447 40.5522V37.3969H225.361C225.594 37.3969 225.827 37.4328 226.042 37.5224C226.258 37.6121 226.437 37.7196 226.598 37.8631C226.76 38.0065 226.885 38.1857 226.975 38.4009C227.064 38.616 227.1 38.8491 227.1 39.1001C227.1 39.3152 227.064 39.5303 226.993 39.7275V39.7454Z" fill="#0089A8"/>
</svg>
