<svg width="228" height="63" viewBox="0 0 228 63" fill="none" xmlns="http://www.w3.org/2000/svg">
<path d="M215.752 5.83978C214.683 6.23433 213.764 5.95558 212.996 5.0035C212.479 4.36021 211.767 4.11575 210.978 4.11575C210.072 4.11575 209.153 4.24441 208.247 4.23154C206.669 4.23154 206.164 3.70406 206.19 2.16015C205.698 2.22448 205.388 2.55899 205.077 2.88064C204.586 3.36954 204.094 3.8713 203.486 4.23154C202.023 5.10642 200.173 4.5918 199.63 2.99643C199.086 1.41392 198.168 1.311 196.835 2.19875C196.693 2.28881 196.602 2.4818 196.382 2.40461C196.822 0.590513 199.319 -0.644648 200.536 0.358893C199.332 1.05365 199.319 1.81275 200.471 2.6619C201.532 3.44672 202.748 3.48534 203.861 2.72625C204.404 2.35314 204.896 1.8771 205.452 1.51686C206.332 0.925024 207.277 0.590487 208.338 1.13085C208.286 1.47823 207.989 1.49112 207.82 1.63264C207.562 1.8385 207.238 2.03147 207.29 2.41745C207.329 2.82915 207.665 3.0479 208.014 3.16369C208.532 3.34381 209.063 3.38239 209.632 3.3052C211.34 3.08648 212.854 3.30519 213.682 5.10641C213.992 5.77544 214.497 5.91699 215.183 5.56961C215.701 5.29942 216.244 4.99063 216.891 5.15789C216.546 6.06708 217.003 6.59029 218.263 6.72753C217.952 7.2679 217.447 7.48662 216.956 7.65388C216.309 7.88546 216.244 8.23285 216.619 8.74749C217.059 9.36505 217.9 9.76388 217.396 10.8189C217.227 11.1663 217.965 11.5265 218.392 11.7452C219.802 12.4657 221.187 13.212 222.248 14.4214C222.649 14.8717 223.063 15.3219 223.438 15.798C224.228 16.7887 224.965 17.8308 226.608 17.2776C226.376 18.0495 226 18.4741 225.47 18.7186C224.732 19.0531 225.03 19.3747 225.431 19.6835C225.845 20.0052 226.35 20.1209 226.893 20.1081C227.048 20.1081 227.281 20.0052 227.346 20.2496C227.398 20.4426 227.255 20.5841 227.113 20.7128C226.712 21.073 226.207 21.1888 225.703 21.3303C224.81 21.5748 224.266 22.0637 224.357 23.0672C224.396 23.569 224.228 23.9678 223.723 24.2638C222.17 25.1515 221.912 25.8205 222.351 27.5446C222.494 28.0978 222.701 28.6253 222.973 29.14C223.464 30.0406 223.167 30.6067 222.157 30.7868C221.847 30.8383 221.601 30.9926 221.355 31.1856C221.122 31.3786 220.85 31.3915 220.579 31.2628C220.255 31.0956 220.346 30.8254 220.411 30.5552C220.514 30.1692 220.553 29.7832 220.411 29.3972C220.191 28.8311 219.699 28.4966 219.155 28.4838C218.599 28.4838 218.69 29.0885 218.599 29.4744C218.483 29.9376 218.677 30.6453 217.81 30.4137C217.124 30.2207 217.137 29.6674 217.266 29.0756C217.357 28.6124 217.719 28.2264 217.616 27.6989C217.434 26.7726 217.279 25.9492 216.309 25.3831C215.325 24.7913 214.963 23.7234 214.989 22.5526C215.015 20.7256 213.449 19.6964 211.715 20.3654C210.602 20.79 209.942 21.6134 209.645 22.7198C208.868 25.6018 209.412 28.3423 210.564 31.0184C211.676 33.5787 213.54 35.6372 215.183 37.8502C217.176 40.5134 218.806 43.3568 219.414 46.689C220.203 50.9991 217.978 55.7209 214.29 57.4192C214.122 57.0589 214.368 56.7888 214.51 56.5186C214.898 55.7724 215.312 55.0261 215.726 54.2928C217.577 50.9605 217.525 47.6025 215.869 44.2188C215.131 42.7135 214.251 41.3111 213.268 39.9601C213.126 39.7672 213.022 39.4584 212.763 39.497C212.466 39.5485 212.453 39.8958 212.362 40.1403C211.871 41.3497 212.026 42.5719 212.31 43.7942C212.595 45.0036 212.854 46.213 212.776 47.461C212.686 48.902 212.013 49.9956 210.758 50.7032C209.477 51.4494 208.144 51.2436 207.096 50.1886C206.889 49.9698 206.695 49.7511 206.475 49.5067C206.229 49.8412 206.048 50.2014 205.776 50.4587C205.452 50.7546 205.427 50.9991 205.595 51.398C206.371 53.1992 206.526 55.0776 206.138 56.9946C205.802 58.6543 204.987 60.0567 203.292 60.5971C201.519 61.1632 199.94 60.6357 198.646 59.3105C197.508 58.1525 196.964 56.6858 196.537 55.0004C195.256 56.4414 194.014 57.7408 192.487 58.7187C190.921 59.7222 189.239 60.2626 187.195 60.0953C187.764 59.5421 188.359 59.3105 188.89 59.0146C193.354 56.5701 195.864 52.6845 197.184 47.9241C197.482 46.8434 197.43 46.8306 196.291 46.689C194.402 46.4703 193.108 45.7112 191.426 43.8328C190.365 45.8913 188.67 47.3195 186.858 48.6575C186.198 49.1464 185.823 49.185 185.707 48.2201C185.254 48.5932 184.879 48.9534 184.465 49.2493C182.744 50.4845 182.032 52.0284 182.808 54.1255C183.235 55.2835 183.326 56.48 182.666 57.6379C181.773 59.1947 180.039 59.6321 178.331 58.7187C176.921 57.9596 176.067 56.7116 175.42 55.322C173.803 51.8225 173.376 48.1429 173.828 44.3474C173.841 44.2316 173.841 44.1158 173.854 43.9486C173.117 44 172.405 44.1287 171.706 43.8457C171.033 43.5755 170.542 43.0995 170.05 42.4433C169.765 42.9451 169.558 43.3954 169.274 43.7942C168.433 44.9907 167.359 45.8913 165.793 45.7112C163.49 45.4668 162.39 42.5977 163.749 40.5391C163.969 40.2175 164.214 39.883 164.525 39.6514C167.022 37.7344 167.436 35.1226 167.061 32.2406C167.022 31.9447 166.906 31.6616 167.216 31.1985C168.549 33.5915 168.834 36.3063 170.257 38.5835C171.163 37.5671 171.849 36.3835 173.479 36.2934C172.858 37.1425 172.043 37.7086 171.629 38.5706C171.357 39.1367 170.788 39.6771 171.409 40.3719C172.017 41.0538 172.729 41.0152 173.492 40.7321C174.1 40.5005 174.631 40.166 175.058 39.6771C175.601 39.0467 175.782 38.3776 175.42 37.5928C175.265 37.2712 175.135 36.9238 175.071 36.5636C175.019 36.2162 175.161 35.8431 175.51 35.753C175.847 35.6629 175.873 36.0747 175.976 36.2934C176.17 36.7051 176.364 37.1168 176.494 37.5542C176.688 38.1975 176.986 38.0946 177.4 37.7601C178.59 36.8209 178.901 35.5729 178.28 34.029C178.021 33.3857 177.891 32.7681 178.461 32.0348C179.366 33.7331 180.453 35.277 180.44 37.2326C180.44 38.635 178.655 40.8608 177.426 41.1953C177.037 41.2982 177.154 40.8608 176.856 40.7836C176.339 41.8129 175.64 42.7521 174.657 43.4211C174.411 43.5883 174.411 43.8199 174.411 44.0644C174.437 47.3323 174.902 50.5102 176.3 53.4951C176.714 54.37 177.231 55.2063 178.085 55.7466C178.758 56.1712 179.496 56.4028 180.233 55.9525C180.971 55.5022 181.294 54.7817 181.178 53.9325C181.1 53.3407 180.945 52.7489 180.751 52.1828C180.091 50.3043 180.492 48.7605 182.11 47.5125C182.692 47.0622 183.365 46.6762 183.805 45.9557C183.222 45.7241 182.679 45.7884 182.148 45.8142C181.954 45.8142 181.734 45.9171 181.566 45.7112C181.152 45.2223 181.1 43.2152 181.514 42.7006C182.226 41.8128 183.067 41.0795 184.167 40.6935C185.293 40.2947 185.966 40.642 186.341 41.7742C186.6 42.5333 186.677 43.3053 186.703 44.0901C186.703 44.4118 186.626 44.7592 186.936 45.0551C188.01 44.2188 189.006 43.3053 189.86 42.2374C190.378 41.5813 190.378 41.0409 189.77 40.4233C187.958 38.5964 186.134 36.7823 184.516 34.7623C180.906 30.2979 179.975 25.3316 181.476 19.8508C181.786 18.7186 182.11 17.5606 181.126 16.6214C180.104 15.6436 178.849 15.7851 177.607 16.1325C175.717 16.66 174.605 18.0238 173.906 19.7478C172.314 23.7105 172.366 27.6346 174.152 31.533C174.333 31.9318 174.669 32.2921 174.618 32.781H174.631C172.793 31.7003 171.784 30.0148 171.163 28.0721C170.309 25.4088 170.412 22.707 171.046 20.018C171.176 19.4519 171.24 18.8858 171.189 18.3068C171.033 16.8916 169.908 16.2097 168.562 16.7243C167.734 17.0331 167.139 17.6378 166.634 18.3326C165.728 19.6063 165.172 21.0344 164.758 22.5397C164.641 22.9643 164.525 23.4017 164.383 23.9421C163.606 20.6227 164.46 16.184 166.349 13.688C167.449 12.247 168.86 11.2435 170.684 10.9089C170.852 10.8704 171.034 10.8189 171.253 10.999C171.008 11.4236 170.697 11.8353 170.568 12.337C170.309 13.3149 170.71 14.164 171.693 14.3699C173.621 14.7816 175.821 14.3828 177.024 12.3757C177.749 11.1792 177.529 10.2914 176.352 9.55805C175.549 9.05628 174.851 8.43872 174.54 7.55097C174.605 7.34511 174.747 7.34511 174.851 7.38371C177.141 7.97554 179.043 7.07493 180.738 5.69827C181.941 4.72047 183.261 4.01282 184.723 3.58825C185.966 3.21514 187.221 3.18939 188.334 3.89702C190.262 5.11928 192.099 5.01638 193.949 3.76839C194.053 3.70406 194.156 3.63972 194.273 3.60113C194.324 3.57539 194.389 3.60113 194.467 3.60113C194.751 4.33448 194.208 4.84911 193.949 5.51813C194.933 5.5696 195.722 5.08071 196.667 4.81052C196.576 5.71114 196.084 6.35443 195.45 6.8176C194.959 7.16498 195.075 7.42227 195.373 7.75679C195.45 7.84685 195.528 7.94979 195.631 8.01412C196.835 8.78608 197.223 9.75101 196.628 11.1405C196.253 12.0154 196.822 12.7745 197.404 13.4307C197.909 14.0096 198.543 14.4214 199.216 14.7816C200.083 15.2319 200.225 15.7594 199.643 16.4927C199.384 16.8144 199.203 17.1361 199.216 17.5478C199.229 18.1267 198.853 18.3326 198.349 18.4098C197.766 18.4869 197.624 18.1525 197.585 17.6635C197.572 17.4706 197.443 17.2647 197.326 17.0974C197.132 16.8273 196.835 16.6986 196.524 16.8144C196.149 16.9431 196.382 17.2776 196.382 17.522C196.382 17.6378 196.46 17.7536 196.485 17.8694C196.55 18.1267 196.692 18.4484 196.317 18.5642C196.007 18.6542 195.813 18.4226 195.67 18.1782C195.58 18.0238 195.541 17.8437 195.489 17.6635C195.217 16.6343 194.648 16.081 193.561 16.1196C191.827 16.184 190.585 15.5407 189.744 14.0096C189.33 13.2505 188.631 13.0704 187.79 13.2892C186.38 13.6365 185.422 14.5629 184.749 15.7208C181.721 20.8929 181.773 26.0392 185.008 31.1213C186.483 33.45 188.346 35.47 190.236 37.6443C190.546 36.6794 190.844 35.8688 191.4 35.1869C191.711 34.8009 191.323 34.5822 191.128 34.3506C189.446 32.2278 187.919 30.0148 187.182 27.3645C186.289 24.1994 186.393 21.1502 188.178 18.2811C188.424 17.8823 188.644 17.4448 189.252 17.136C188.683 18.5256 188.321 19.8121 188.269 21.1888C188.165 24.1094 189.071 26.734 190.585 29.1657C191.452 30.5552 192.435 31.8675 193.328 33.2313C193.587 33.6301 193.833 33.7073 194.299 33.5529C194.997 33.3085 195.735 33.167 196.563 32.9611C192.992 28.7797 191.374 24.3281 193.936 19.1303C194.221 19.156 194.195 19.2589 194.182 19.3361C193.147 23.6204 194.765 27.21 197.158 30.5938C197.352 30.864 197.572 31.1213 197.779 31.3786C198.84 32.6523 199.125 32.7038 200.626 32.0605C200.988 31.9061 201.066 31.7646 200.859 31.4043C199.694 29.4358 199.022 27.2872 199.047 25.0228C199.086 20.6613 200.277 16.6729 203.602 13.585C204.741 12.53 206.177 12.1184 207.717 12.2084C208.506 12.247 209.037 12.633 209.166 13.4564C209.373 14.7559 210.072 15.4249 211.417 15.6565C212.595 15.8623 213.384 16.6857 213.591 17.9337C213.63 18.2039 213.669 18.4741 213.773 18.7186C213.837 18.8858 214.031 18.9887 214.225 18.9759C214.497 18.963 214.432 18.7314 214.432 18.5642C214.432 18.1396 214.445 17.715 214.316 17.3033C214.251 17.0846 214.135 16.8144 214.471 16.6986C214.808 16.5828 215.079 16.7244 215.222 17.0331C215.429 17.4706 215.338 17.9209 215.209 18.3583C215.118 18.6542 215.053 18.963 215.468 19.1045C215.804 19.2203 216.128 19.2846 216.309 18.8601C216.49 18.4355 216.904 18.2682 217.24 18.0109C217.835 17.5606 217.874 17.0846 217.344 16.5699C215.662 14.9102 215.532 13.0318 216.568 11.0247C216.917 10.3557 216.93 9.80247 216.386 9.21064C215.519 8.25856 215.48 7.1521 215.946 5.99417C215.972 5.9427 216.05 5.87839 216.037 5.85266C215.972 5.73687 215.895 5.78833 215.817 5.85266L215.752 5.83978ZM206.552 39.8958C207.794 39.2783 208.597 38.0946 209.735 37.3741C210.589 36.8338 210.447 36.4606 209.942 35.7401C206.759 31.1599 205.246 26.3995 208.48 21.1631C208.946 20.404 209.037 19.5162 208.933 18.6156C208.817 17.5477 208.17 16.853 207.122 16.6214C205.077 16.184 202.696 17.4834 201.622 19.632C200.212 22.4754 200.988 27.699 203.201 30.0534C203.913 29.2943 204.068 28.3036 204.443 27.1843C204.56 28.4323 204.378 29.423 203.964 30.3622C203.77 30.7868 203.744 31.1341 204.042 31.533C205.867 34.0032 206.915 36.7051 206.475 39.8315C206.462 39.883 206.436 39.9216 206.423 39.973C206.462 39.9473 206.501 39.9344 206.539 39.9087L206.552 39.8958ZM200.134 33.9775C200.225 34.119 200.264 34.1962 200.315 34.2606C200.497 34.4664 200.691 34.6594 200.872 34.8524C202.58 36.6407 203.46 38.7122 203.059 41.1953C202.709 43.3696 201.868 45.2609 199.694 46.2387C199.319 46.406 199.267 46.6504 199.242 47.0236C199.138 49.3523 198.633 51.5652 197.43 53.598C197.288 53.8425 197.21 54.0741 197.301 54.37C197.818 56.1455 198.866 57.4321 200.717 57.921C201.622 58.1654 202.528 58.0882 203.305 57.4578C204.443 56.5314 205.232 53.2893 204.184 51.9383C203.68 52.4144 203.149 52.8518 202.476 53.1091C201.752 53.3793 201.17 53.1992 200.704 52.6074C199.72 51.3722 199.656 48.7476 200.574 47.4481C201.079 46.7405 201.687 46.599 202.476 47.0107C203.123 47.3452 203.499 47.9499 203.952 48.4645C204.172 48.709 204.249 49.2622 204.715 49.0821C205.207 48.8891 205.556 48.4903 205.595 47.9113C205.634 47.3838 205.44 46.8949 205.336 46.3931C205.271 46.0843 205.22 45.8013 205.388 45.5182C205.491 45.3381 205.582 45.1065 205.828 45.1194C206.022 45.1451 206.074 45.3638 206.138 45.5311C206.423 46.3288 206.669 47.1393 207.225 47.8084C208.027 48.799 209.179 48.7476 209.865 47.6797C210.421 46.8048 210.602 45.8399 210.538 44.8235C210.447 43.4211 210.175 42.0316 210.525 40.4491C208.752 41.5298 207.38 42.8421 205.854 44.0001C205.478 43.1895 205.362 42.4047 205.491 41.6327C205.97 38.828 204.896 36.5764 203.072 34.5307C201.816 33.1155 201.868 33.0769 200.121 33.9775H200.134ZM194.609 35.084C196.602 37.6443 198.271 40.2175 198.892 43.331C198.983 43.8071 199.28 43.5883 199.5 43.434C200.16 42.9708 200.639 42.3403 200.872 41.5684C201.726 38.6993 199.901 36.8466 198.219 35.0325C197.21 33.9389 195.916 34.9682 194.596 35.084H194.609ZM196.317 44.2574C197.081 44.4375 197.197 44.0644 196.964 43.3696C196.175 40.938 194.7 38.9051 193.173 36.9109C192.5 36.036 192.215 36.0361 191.814 37.0911C190.689 40.0888 192.047 43.9229 196.304 44.2702L196.317 44.2574ZM167.928 37.194C167.592 38.9695 166.634 40.2175 165.366 41.2596C165.107 41.4655 164.848 41.6713 164.628 41.9158C163.994 42.6234 164.163 43.0994 165.055 43.3182C166.673 43.7041 168.898 42.1988 169.093 40.5906C169.105 40.4491 169.054 40.2947 169.002 40.1532C168.666 39.2268 168.329 38.2876 167.928 37.1811V37.194Z" fill="#B69759"/>
<path d="M144.108 35.7965C141.929 35.7965 139.749 35.7965 137.553 35.7965C136.759 35.7965 135.965 35.8472 135.272 35.3234C135.171 35.239 134.951 35.1714 134.85 35.2221C132.704 36.3202 130.389 35.5937 128.176 35.7796C127.619 35.8303 127.061 35.8134 126.504 35.7796C125.27 35.7289 124.104 35.5599 123.851 37.3677C123.716 38.3307 122.668 38.7025 121.722 38.8207C120.861 38.9221 119.982 38.8883 119.12 38.9559C118.546 38.9897 118.36 38.77 118.36 38.1956C118.36 37.6212 118.664 37.5536 119.12 37.5705C119.762 37.5705 120.388 37.5705 121.03 37.5705C121.536 37.5705 121.959 37.3846 122.263 36.9792C122.482 36.692 122.702 36.3371 122.567 35.9992C122.432 35.6444 122.01 35.8472 121.722 35.7965C121.283 35.7458 120.861 35.712 120.421 35.6614C118.445 35.3741 117.279 34.1577 117.177 32.2992C117.059 29.9677 118.039 28.5316 120.1 28.0417C121.232 27.7713 122.381 27.7882 123.53 27.8896C124.155 27.9403 124.324 28.1768 124.307 28.7681C124.273 30.3225 124.307 31.8599 124.29 33.4143C124.273 34.107 124.459 34.3942 125.219 34.3773C127.602 34.3435 129.984 34.3435 132.366 34.3773C133.363 34.3773 133.701 33.9211 133.667 32.9919C133.633 31.6065 133.701 30.2042 133.65 28.8188C133.616 28.0754 133.954 27.991 134.562 27.9741C135.255 27.9572 135.323 28.2951 135.306 28.8357C135.289 30.2718 135.34 31.691 135.289 33.1271C135.255 33.9381 135.576 34.3435 136.353 34.3435C139.209 34.3435 142.064 34.3435 144.936 34.3435C145.392 34.3435 145.561 34.2084 145.443 33.7015C145.223 32.823 145.122 31.9106 144.919 31.0152C144.615 29.6636 143.956 29.1398 142.588 29.1229C141.912 29.1229 141.236 29.1905 140.577 29.275C140.273 29.3088 139.918 29.4946 139.884 28.9709C139.868 28.633 139.817 28.2951 140.239 28.0586C142.588 26.8083 145.815 28.2106 146.389 30.7956C146.474 31.1841 146.524 31.5727 146.592 31.9613C147.048 34.4787 147.42 34.6983 150.005 34.3604C150.782 34.259 150.596 33.7353 150.596 33.3129C150.596 30.0522 150.596 26.8083 150.596 23.5476C150.596 23.0407 150.478 22.5001 151.322 22.517C151.981 22.517 152.218 22.7028 152.218 23.3955C152.184 27.2138 152.184 31.0152 152.218 34.8335C152.218 35.5599 152.015 35.7965 151.272 35.7796C148.89 35.7458 146.507 35.7796 144.125 35.7796L144.108 35.7965ZM122.685 31.7586C122.685 31.1166 122.685 30.4915 122.685 29.8494C122.685 29.4609 122.652 29.1905 122.145 29.1061C119.847 28.7344 118.242 30.5083 118.85 32.7385C119.171 33.9042 120.489 34.6307 122.043 34.3773C123.277 34.1915 122.432 33.1777 122.651 32.5695C122.736 32.3161 122.651 32.012 122.651 31.7417L122.685 31.7586Z" fill="#747577"/>
<path d="M82.7963 34.3769C80.4985 31.2006 80.2621 29.9504 81.5799 28.717C82.8977 27.5006 86.2597 27.4837 87.6113 28.6663C88.8784 29.7814 88.6082 31.1161 86.3949 34.36C88 34.36 89.4697 34.36 90.9565 34.36C91.7337 34.36 91.5142 33.718 91.5311 33.2956C91.5311 30.0348 91.5649 26.791 91.5311 23.5302C91.5311 22.7193 91.8014 22.4997 92.5617 22.5503C93.1192 22.5841 93.2206 22.8207 93.2037 23.2937C93.2037 27.2303 93.1868 31.1499 93.2037 35.0865C93.2037 35.796 92.815 35.8468 92.2913 35.813C89.8077 35.6778 87.3072 36.0326 84.8236 35.4751C83.8437 35.2554 82.7286 35.7623 81.6642 35.7961C79.8058 35.8637 77.9305 35.8299 76.0721 35.7961C75.4131 35.7961 75.0244 35.8636 74.8555 36.6746C74.5344 38.2289 73.5208 38.9554 71.9665 38.9554C71.5948 38.9554 71.2232 38.9723 71.2401 38.4317C71.2401 38.0431 71.1555 37.587 71.7637 37.5532C73.166 37.4856 73.4025 36.5563 73.3856 35.4075C73.3856 33.228 73.4027 31.0486 73.3689 28.8522C73.3689 28.1595 73.6053 27.9906 74.2642 27.9906C74.9231 27.9906 75.0584 28.244 75.0415 28.8353C75.0077 30.339 75.0584 31.8595 75.0246 33.3632C75.0077 34.0897 75.1427 34.4276 75.9875 34.4107C78.1839 34.3431 80.3972 34.3938 82.8301 34.3938L82.7963 34.3769ZM84.6209 29.1732C83.2692 29.1732 82.4415 29.7814 82.4077 30.812C82.3739 31.6737 83.9789 33.87 84.6378 33.8531C85.2629 33.8531 86.6989 31.7751 86.7158 30.8458C86.7496 29.7308 86.04 29.1732 84.6209 29.1732Z" fill="#747577"/>
<path d="M55.1899 34.3773C56.305 34.3773 57.42 34.3435 58.5182 34.3773C59.4305 34.4111 59.836 33.9887 59.8191 33.1102C59.8191 31.6741 59.836 30.2549 59.8191 28.8188C59.8191 28.2106 59.9711 27.974 60.6132 27.974C61.2214 27.974 61.441 28.1599 61.4241 28.785C61.3903 30.2211 61.4578 31.6403 61.3903 33.0764C61.3396 34.0394 61.7957 34.3604 62.6405 34.3604C64.1104 34.3604 65.5802 34.3266 67.0501 34.3604C67.7935 34.3773 68.0132 34.0901 67.9963 33.3805C67.9625 31.8768 68.0132 30.3563 67.9794 28.8526C67.9625 28.1937 68.1315 27.9572 68.8411 27.9572C69.5506 27.9572 69.5843 28.2951 69.5843 28.8357C69.5674 30.8631 69.5505 32.8905 69.5843 34.901C69.5843 35.5937 69.348 35.7796 68.6891 35.7796C66.8306 35.7458 64.9214 36.0161 63.1136 35.6951C61.6268 35.4248 60.2583 35.6782 58.8391 35.7458C56.4231 35.8472 53.9903 35.7796 51.5743 35.7627C50.7803 35.7627 49.9692 35.6782 49.361 35.0531C49.04 34.7321 48.6682 34.7321 48.2628 34.7321C47.6207 34.7321 46.9956 34.7321 46.3536 34.6645C44.3769 34.4786 43.3294 33.4819 43.2111 31.7417C43.0929 29.7143 43.9885 28.4471 45.9145 27.991C46.2186 27.9234 46.5395 27.8558 46.8436 27.822C50.0875 27.4334 50.4085 27.7037 50.3916 30.88C50.3916 34.7828 50.1889 34.3266 53.8382 34.3435C54.2775 34.3435 54.7168 34.3435 55.1561 34.3435L55.1899 34.3773ZM48.7866 31.3193C48.7866 31.1165 48.7866 30.9307 48.7866 30.7279C48.7866 29.0553 48.6684 28.954 46.962 29.1905C46.8775 29.1905 46.8099 29.1905 46.7255 29.2243C45.3907 29.4777 44.7655 30.3225 44.9345 31.691C45.0865 32.9412 46.2354 33.6508 48.06 33.4988C49.5299 33.3636 48.4487 32.1809 48.7697 31.5727C48.8035 31.5051 48.7697 31.4207 48.7697 31.3362L48.7866 31.3193Z" fill="#747577"/>
<path d="M101.438 59.3811C100.132 59.5388 99.2531 59.0489 98.8025 57.9113C98.352 56.7737 97.4286 56.1598 96.0319 56.0697C95.6771 56.0697 95.3054 56.1204 94.9675 56.0697C92.6867 55.6811 91.1154 56.2893 90.693 58.8574C90.5072 59.9894 89.5104 59.3643 88.8346 59.4656C88.7839 58.8574 89.088 58.4181 89.2739 57.9619C90.7269 54.3633 92.1798 50.7647 93.6327 47.166C93.8355 46.6761 94.0214 46.203 94.714 46.3044C95.2209 46.3888 95.846 46.0678 96.1501 46.7943C97.9072 50.9843 99.6643 55.1743 101.438 59.3811ZM94.866 47.9939C94.0382 50.1564 93.2779 52.1331 92.5007 54.1099C92.298 54.6505 92.5683 54.7012 92.9907 54.7012C94.2578 54.7012 95.525 54.6843 96.7921 54.7012C97.3834 54.7012 97.451 54.5323 97.2314 54.0085C96.4542 52.0825 95.6939 50.1395 94.8491 47.9769L94.866 47.9939Z" fill="#747577"/>
<path d="M0 59.3474C1.7064 55.1743 3.39589 51.0351 5.05161 46.8958C5.28814 46.3044 5.6937 46.2706 6.18365 46.3044C6.67361 46.3382 7.18048 46.1524 7.4677 46.8282C9.12341 50.8154 10.8129 54.7689 12.4855 58.7561C12.5869 58.9926 12.8741 59.4657 12.3166 59.4488C11.7252 59.4488 10.9311 59.8881 10.5425 59.0095C10.2553 58.3168 9.96811 57.6241 9.73158 56.9145C9.52884 56.3063 9.22479 56.036 8.53209 56.0529C7.02843 56.1036 5.5247 56.1036 4.02104 56.0529C3.37902 56.036 2.97359 56.1881 2.80464 56.8639C2.70327 57.2862 2.43292 57.6579 2.34844 58.0803C2.07812 59.3305 1.36852 59.8036 0.0169116 59.3474H0ZM6.16674 47.9939C5.30509 50.2241 4.59553 52.0994 3.86904 53.9917C3.68319 54.4647 3.71703 54.7182 4.34215 54.7182C5.79513 54.7013 7.24795 54.7182 8.83609 54.7182C7.95755 52.488 7.12978 50.41 6.18365 48.0109L6.16674 47.9939Z" fill="#747577"/>
<path d="M135.786 58.4866C135.499 58.9259 135.6 59.6186 134.738 59.5172C134.079 59.4327 133.86 59.2976 133.877 58.6218C133.927 54.8542 133.927 51.0865 133.944 47.3358C133.944 46.7445 133.91 46.2884 134.772 46.2715C135.617 46.2715 135.634 46.6938 135.617 47.3021C135.583 48.5523 135.617 49.8194 135.617 51.4921C136.783 50.3939 137.864 49.9715 139.08 50.1236C139.503 50.1742 139.959 50.2418 140.348 50.4107C142.088 51.1879 142.933 53.435 142.476 55.9692C142.088 58.1318 140.685 59.5172 138.726 59.6693C137.577 59.7537 136.647 59.2807 135.803 58.4866H135.786ZM140.804 54.5838C140.787 54.4149 140.787 53.9756 140.685 53.5533C140.347 52.0665 139.452 51.2724 138.219 51.3062C136.985 51.34 136.073 52.2016 135.769 53.6208C135.701 53.9249 135.634 54.2459 135.6 54.5501C135.363 56.8985 136.631 58.5542 138.506 58.3345C139.942 58.1656 140.787 56.8985 140.787 54.567L140.804 54.5838Z" fill="#747577"/>
<path d="M113.055 29.19C113.055 27.2471 113.072 25.3042 113.055 23.3613C113.055 22.7362 113.258 22.5503 113.883 22.5503C114.474 22.5503 114.745 22.6855 114.745 23.3444C114.728 27.1458 114.779 30.9641 114.711 34.7655C114.694 36.3705 114.238 37.9079 112.498 38.4992C110.47 39.1919 108.426 39.2764 106.635 37.8572C105.841 37.2321 105.571 36.286 105.537 35.3061C105.486 34.191 105.537 33.0759 105.503 31.9777C105.503 31.4371 105.638 31.1837 106.23 31.1837C106.787 31.1837 107.125 31.2681 107.108 31.944C107.074 33.0083 107.091 34.0896 107.176 35.154C107.311 36.8773 108.24 37.5869 110.2 37.5531C112.143 37.5193 112.971 36.8773 113.038 35.1202C113.123 33.1435 113.055 31.1499 113.055 29.1731V29.19Z" fill="#747577"/>
<path d="M30.2927 51.4244C31.4753 50.3431 32.6073 50.0221 33.8913 50.1742C35.3443 50.36 36.2059 51.1203 36.4256 52.5732C36.7466 54.6682 36.51 56.7632 36.5776 58.8751C36.5945 59.5847 36.1214 59.4664 35.6821 59.4833C35.2259 59.4833 34.8204 59.5171 34.8204 58.8413C34.8542 57.2194 34.8542 55.5806 34.8204 53.9586C34.7866 52.2185 34.246 51.5258 32.9451 51.4413C31.5935 51.3737 30.6474 52.1847 30.4108 53.7221C30.1574 55.3441 30.3265 56.966 30.3096 58.5879C30.3096 59.2299 30.1575 59.5002 29.4648 59.4833C28.8059 59.4833 28.5693 59.3144 28.5693 58.6217C28.6031 54.7696 28.6031 50.9175 28.5693 47.0823C28.5693 46.3052 28.9242 46.2883 29.5156 46.2714C30.1576 46.2545 30.3434 46.4741 30.3096 47.0992C30.2758 48.434 30.3096 49.7518 30.3096 51.4244H30.2927Z" fill="#747577"/>
<path d="M20.4599 54.2282C21.6257 53.1131 22.6395 52.2684 23.4842 51.2885C24.2952 50.3593 25.2075 49.9538 26.6436 50.3255C25.6468 51.2547 24.7345 52.1332 23.8053 52.978C22.4537 54.2113 22.4367 54.1944 23.6362 55.5629C24.7175 56.7963 25.8157 58.0296 27.0152 59.3643C25.6805 59.6516 24.7683 59.4826 23.9742 58.4182C22.9774 57.0666 21.7777 55.8332 20.4599 54.3296C20.4599 55.9684 20.4261 57.3369 20.4599 58.7054C20.4768 59.3474 20.2403 59.5164 19.6321 59.4995C19.0576 59.4995 18.7704 59.3812 18.7873 58.7223C18.8211 54.8364 18.8211 50.9506 18.7873 47.0647C18.7873 46.372 19.1083 46.3213 19.649 46.2875C20.2741 46.2537 20.4599 46.4734 20.443 47.0985C20.4092 49.3455 20.443 51.6095 20.443 54.2282H20.4599Z" fill="#747577"/>
<path d="M113.062 58.5359C111.778 59.7016 110.359 59.9382 108.804 59.4989C107.605 59.161 106.929 58.3501 106.845 57.0998C106.76 55.9172 107.267 55.0386 108.314 54.4811C109.48 53.8728 110.764 53.7884 112.015 53.8222C112.927 53.856 112.994 53.4504 112.91 52.7746C112.792 51.9299 112.352 51.3724 111.491 51.271C110.612 51.1696 109.649 51.1358 109.311 52.2002C109.007 53.1632 108.247 52.9267 107.774 52.7409C107.183 52.5043 107.639 51.913 107.825 51.5413C108.45 50.308 110.173 49.8011 112.183 50.2066C113.603 50.4769 114.363 51.3048 114.447 52.8422C114.549 54.9034 114.346 56.9646 114.684 59.0089C114.735 59.2961 114.65 59.4989 114.346 59.482C113.974 59.4482 113.535 59.7016 113.265 59.2455C113.163 59.0596 113.13 58.8231 113.045 58.5528L113.062 58.5359ZM111.643 54.9203C110.883 54.9035 110.156 55.0048 109.463 55.3596C108.788 55.7144 108.5 56.255 108.551 56.9984C108.619 57.7756 109.092 58.198 109.784 58.4176C111.271 58.8907 112.606 58.0121 112.876 56.3902C113.113 55.0048 112.994 54.8697 111.643 54.9203Z" fill="#747577"/>
<path d="M156.28 55.3274C156.33 56.4425 156.314 57.5407 156.466 58.6558C156.499 58.9261 156.719 59.3653 156.246 59.4329C155.857 59.4836 155.266 59.7201 155.114 59.1626C154.928 58.453 154.675 58.7064 154.32 58.9599C153.239 59.737 152.056 59.8384 150.806 59.5343C149.488 59.1964 148.761 58.3686 148.66 57.1521C148.559 55.8681 149.167 54.8713 150.417 54.3306C151.414 53.8913 152.495 53.9083 153.56 53.7562C153.982 53.6886 154.725 54.2124 154.793 53.3507C154.861 52.5905 154.675 51.8132 153.914 51.4078C152.884 50.8502 151.566 51.205 151.11 52.2863C150.738 53.148 150.046 52.8607 149.623 52.7256C149.015 52.5397 149.471 51.9822 149.623 51.6443C150.198 50.3603 151.803 49.8196 153.914 50.1575C155.384 50.3941 156.128 51.1543 156.263 52.6918C156.347 53.5534 156.263 54.432 156.263 55.3105L156.28 55.3274ZM152.326 58.5206C153.864 58.5206 154.709 57.5407 154.81 55.6991C154.861 54.9219 154.506 54.8712 153.914 54.8881C151.6 54.9219 150.383 55.5639 150.35 56.7973C150.333 57.811 151.127 58.5037 152.326 58.5206Z" fill="#747577"/>
<path d="M129.552 58.537C128.268 59.7028 126.916 59.9224 125.446 59.5338C124.162 59.1959 123.469 58.385 123.385 57.2361C123.3 55.817 123.79 54.9891 125.058 54.3978C126.173 53.874 127.355 53.8234 128.538 53.8234C129.349 53.8234 129.585 53.6206 129.433 52.8096C129.264 51.9142 128.842 51.3397 127.913 51.2553C127.018 51.1708 126.105 51.2046 125.784 52.2859C125.514 53.1982 124.77 52.8941 124.331 52.759C123.757 52.59 124.128 52.0325 124.297 51.6946C124.855 50.4443 126.342 49.9037 128.453 50.174C129.906 50.3599 130.751 51.0526 130.954 52.4549C131.258 54.6512 130.819 56.8983 131.241 59.0946C131.309 59.4156 131.089 59.5339 130.819 59.5001C130.464 59.4494 130.008 59.7366 129.805 59.196C129.738 59.0101 129.67 58.8412 129.569 58.554L129.552 58.537ZM128.065 54.9215C127.457 54.8877 126.798 54.9891 126.173 55.2763C125.362 55.648 124.889 56.2394 125.074 57.1517C125.26 58.0471 125.919 58.4357 126.798 58.5202C128.268 58.6385 129.146 57.8951 129.383 56.3576C129.586 54.9046 129.569 54.8708 128.082 54.9215H128.065Z" fill="#747577"/>
<path d="M43.2008 59.686C40.4638 59.6691 38.6559 57.7261 38.6559 54.8202C38.6559 51.9649 40.5312 50.0389 43.2851 50.022C46.0221 50.022 47.8469 51.9649 47.8131 54.8709C47.7793 57.743 45.904 59.6859 43.2008 59.669V59.686ZM45.9716 54.9215C45.9885 52.3873 44.7043 51.0018 42.6769 51.3566C41.2746 51.6101 40.4469 52.9786 40.4807 54.9722C40.5145 56.8983 41.4773 58.3174 42.8458 58.5033C42.9303 58.5033 42.9979 58.5033 43.0824 58.5033C44.8226 58.5878 45.9547 57.1686 45.9716 54.9046V54.9215Z" fill="#747577"/>
<path d="M73.5105 59.6856C70.7735 59.6856 68.9489 57.7934 68.9151 54.8705C68.8813 52.0322 70.7566 50.0554 73.5105 50.0385C76.2475 50.0047 78.123 51.9646 78.0892 54.8536C78.0723 57.7258 76.2137 59.6856 73.5105 59.7025V59.6856ZM76.2306 54.7692C76.2306 52.6911 75.3014 51.4239 73.7302 51.3226C71.8886 51.1874 70.7397 52.5052 70.7228 54.7692C70.7228 57.05 71.7872 58.5199 73.4767 58.5199C75.1831 58.5199 76.2475 57.0669 76.2306 54.7692Z" fill="#747577"/>
<path d="M67.3946 54.9043C67.3946 57.8272 65.5869 59.7026 62.8161 59.6857C60.0115 59.6857 58.3051 57.7596 58.3389 54.7016C58.3727 51.8801 60.2311 50.0047 62.9343 50.0385C65.7389 50.0723 67.4284 51.897 67.4115 54.9043H67.3946ZM62.8668 58.5199C64.5901 58.5199 65.8402 56.7459 65.6713 54.5665C65.5192 52.7418 64.7083 51.576 63.3905 51.3563C61.5827 51.0522 60.4001 52.1166 60.096 54.3299C59.775 56.5769 61.076 58.5199 62.8668 58.5199Z" fill="#747577"/>
<path d="M53.2024 57.5569C54.0979 55.2085 54.8752 53.1811 55.6693 51.1537C55.7875 50.8327 55.8043 50.3934 56.2267 50.3089C56.6491 50.2414 57.1728 50.1062 57.4769 50.3934C57.7473 50.6638 57.3756 51.0523 57.2573 51.3564C55.7874 54.9551 54.3176 58.5368 52.8308 62.1186C52.7125 62.4058 52.6787 62.7944 52.3408 62.8789C51.9184 62.9971 51.4115 63.0985 51.0736 62.8282C50.7188 62.5579 51.0738 62.1355 51.2428 61.8821C52.3747 60.1757 52.1551 58.5537 51.2428 56.7966C50.3473 55.0902 49.6546 53.2487 48.9451 51.4409C48.8099 51.103 48.1002 50.5455 48.8774 50.3089C49.4518 50.1231 50.2798 49.9203 50.6346 50.934C51.2428 52.6911 51.9522 54.4144 52.6112 56.1546C52.7632 56.5601 52.949 56.9487 53.2024 57.5232V57.5569Z" fill="#747577"/>
<path d="M97.7141 29.1731C97.7141 31.0823 97.7141 32.9745 97.7141 34.8837C97.7141 35.5088 97.6127 35.8298 96.8863 35.8298C96.1598 35.8298 96.0415 35.5257 96.0415 34.9006C96.0584 31.0992 96.0584 27.2809 96.0415 23.4795C96.0415 22.8544 96.1767 22.5503 96.8863 22.5503C97.6127 22.5503 97.731 22.8544 97.7141 23.4795C97.6803 25.3886 97.7141 27.2809 97.7141 29.19V29.1731Z" fill="#747577"/>
<path d="M104.631 52.8086C104.631 54.7515 104.597 56.6945 104.631 58.6205C104.631 59.2963 104.428 59.499 103.753 59.4821C103.077 59.4821 102.874 59.2625 102.891 58.5867C102.925 54.7515 102.925 50.8995 102.891 47.0643C102.891 46.2871 103.263 46.2871 103.837 46.2533C104.479 46.2195 104.631 46.4898 104.631 47.0811C104.597 48.9734 104.631 50.8825 104.631 52.7748V52.8086Z" fill="#747577"/>
<path d="M156.695 29.2236C156.695 31.1327 156.695 33.0249 156.695 34.9341C156.695 35.4916 156.611 35.8126 155.935 35.8295C155.243 35.8295 155.057 35.593 155.057 34.9341C155.09 31.1327 155.074 27.3144 155.057 23.513C155.057 22.9048 155.124 22.5669 155.884 22.5669C156.645 22.5669 156.695 22.9385 156.695 23.5299C156.679 25.439 156.695 27.3313 156.695 29.2404V29.2236Z" fill="#747577"/>
<path d="M188.344 53.1437C188.492 53.5903 188.21 53.8254 187.889 54.0722C187.366 54.4719 186.856 54.895 186.574 55.4592C186.239 56.1409 186.588 56.5405 187.459 56.423C188.68 56.2584 189.699 55.7177 190.557 54.942C190.959 54.5776 191.335 54.178 191.777 53.7549C191.831 53.9077 191.898 54.0017 191.871 54.0488C191.174 55.4357 190.101 56.517 188.546 57.187C188.237 57.3162 187.889 57.3985 187.553 57.422C185.797 57.5748 185.18 56.8696 185.89 55.4357C186.105 54.989 186.199 54.7892 185.569 54.5424C184.737 54.2133 185.274 53.6374 185.488 53.2025C185.729 52.7206 186.065 52.2269 186.829 52.415C187.164 52.4973 187.392 52.697 187.272 53.0262C187.164 53.3317 186.977 53.5081 186.574 53.2847C186.373 53.179 186.092 53.179 186.011 53.4023C185.917 53.6961 186.226 53.7314 186.467 53.8019C187.272 54.0017 187.687 53.3318 188.344 53.1555V53.1437Z" fill="#B69759"/>
<path d="M80.252 52.8436C80.252 50.9344 80.2689 49.0422 80.252 47.133C80.252 46.5079 80.4379 46.3052 81.063 46.3052C81.705 46.3052 81.9754 46.4403 81.9585 47.1499C81.9247 51.002 81.9247 54.8372 81.9585 58.6892C81.9585 59.3144 81.7727 59.5002 81.1475 59.5002C80.5224 59.5002 80.2352 59.382 80.252 58.6555C80.3027 56.7125 80.252 54.7696 80.252 52.8267V52.8436Z" fill="#747577"/>
<path d="M15.9322 52.9268C15.9322 54.8359 15.8985 56.7281 15.9322 58.6373C15.9322 59.3131 15.7464 59.499 15.0706 59.5159C14.361 59.5159 14.2258 59.2455 14.2258 58.6204C14.2427 54.819 14.2596 51.0176 14.2258 47.1993C14.2258 46.5404 14.4117 46.3208 15.0875 46.3208C15.7971 46.3208 15.9322 46.5911 15.9322 47.2331C15.8985 49.1422 15.9322 51.0345 15.9322 52.9436V52.9268Z" fill="#747577"/>
<path d="M119.127 51.4233C119.921 50.6292 120.699 50.2068 121.662 50.1899C122.236 50.1899 122.439 50.4096 122.405 50.9672C122.371 51.4064 122.456 51.8626 121.746 51.7781C119.955 51.5922 119.144 52.606 119.11 54.6165C119.077 55.9174 119.094 57.2352 119.11 58.5361C119.11 59.1105 119.111 59.4822 118.333 59.4991C117.522 59.4991 117.455 59.1444 117.455 58.5023C117.455 56.1708 117.421 53.8224 117.455 51.4909C117.455 51.0347 117.083 50.342 118.063 50.2575C118.874 50.19 119.178 50.5279 119.144 51.4402L119.127 51.4233Z" fill="#747577"/>
<path d="M144.757 54.8359C144.757 53.5687 144.791 52.3016 144.757 51.0345C144.74 50.3587 145.061 50.2573 145.619 50.2573C146.176 50.2573 146.497 50.3418 146.48 51.0345C146.447 53.6025 146.447 56.1706 146.48 58.7555C146.48 59.4482 146.142 59.4989 145.602 59.4989C145.044 59.4989 144.706 59.4482 144.74 58.7555C144.791 57.4546 144.74 56.1368 144.74 54.8359H144.757Z" fill="#747577"/>
<path d="M205.394 9.42625C200.754 9.55666 200.842 9.97397 198.636 11.8258C198.636 10.6391 198.951 9.63491 199.922 9.0611C201.788 7.96566 203.616 8.48731 205.394 9.4393V9.42625Z" fill="#B69759"/>
<path d="M164.897 30.3931C163.92 30.4108 163.173 29.6855 163.156 28.6949C163.156 27.775 163.866 27.0498 164.79 27.0321C165.75 27.0144 166.479 27.6689 166.532 28.6065C166.585 29.5971 165.874 30.3931 164.897 30.4108V30.3931Z" fill="#B69759"/>
<path d="M212.152 55.7793C212.152 56.6545 211.769 57.4247 211.325 57.4422C210.827 57.4597 210.462 56.742 210.462 55.7442C210.462 54.8165 210.818 54.0988 211.271 54.0638C211.751 54.0463 212.143 54.799 212.143 55.7617L212.152 55.7793Z" fill="#B69759"/>
<path d="M210.462 58.2929C210.462 58.7843 209.688 59.1506 208.702 59.1327C207.77 59.1149 207.066 58.7485 207.083 58.2839C207.083 57.8103 207.805 57.4529 208.72 57.444C209.723 57.4351 210.462 57.8014 210.462 58.2929Z" fill="#B69759"/>
<path d="M178.362 45.5817C178.362 46.532 177.983 47.3063 177.508 47.3063C177.068 47.3063 176.69 46.5496 176.673 45.6521C176.655 44.737 177.068 43.9099 177.535 43.9275C177.974 43.9275 178.362 44.7018 178.362 45.5817Z" fill="#B69759"/>
<path d="M166.534 32.1431C166.517 33.08 165.668 33.8401 164.731 33.787C163.829 33.734 163.122 32.9385 163.157 32.037C163.192 31.1354 163.935 30.4106 164.837 30.4106C165.827 30.4106 166.552 31.1531 166.534 32.1431Z" fill="#B69759"/>
<path d="M169.995 48.9953C170.978 49.0131 171.621 49.3523 171.603 49.8432C171.603 50.3431 170.799 50.718 169.817 50.6823C168.906 50.6555 168.173 50.236 168.227 49.7897C168.298 49.3166 169.049 48.9864 169.995 48.9953Z" fill="#B69759"/>
<path d="M173.292 52.4447C173.257 53.4419 172.461 54.1309 171.437 54.0584C170.483 54.004 169.864 53.2787 169.917 52.2634C169.97 51.2844 170.677 50.6498 171.666 50.686C172.567 50.7223 173.327 51.5382 173.292 52.4266V52.4447Z" fill="#B69759"/>
<path d="M145.754 46.3053C146.429 46.1702 146.565 46.4912 146.598 47.1501C146.632 47.9611 146.261 48.0117 145.619 48.0286C144.909 48.0286 144.672 47.8259 144.655 47.0994C144.655 46.2209 145.145 46.2715 145.754 46.3053Z" fill="#747577"/>
<path d="M134.242 37.9751C134.141 38.5664 133.87 38.9719 133.245 38.9719C132.586 38.9719 132.215 38.5664 132.232 37.9244C132.265 37.3162 132.654 37.0121 133.262 37.029C133.904 37.029 134.141 37.4682 134.242 37.992V37.9751Z" fill="#747577"/>
<path d="M55.3755 37.9926C55.3079 38.5501 55.0375 38.9556 54.4124 38.9725C53.7365 38.9894 53.3649 38.5839 53.3818 37.9588C53.3818 37.3844 53.7703 37.0127 54.3785 37.0127C54.9868 37.0127 55.291 37.4013 55.3755 37.9926Z" fill="#747577"/>
<path d="M56.5577 37.0283C57.2842 37.0283 57.6898 37.3324 57.7067 37.9238C57.7404 38.5489 57.4024 38.9882 56.7097 38.9882C56.1015 38.9882 55.7636 38.6165 55.7299 38.0251C55.713 37.4169 56.0508 37.0959 56.5408 37.0452L56.5577 37.0283Z" fill="#747577"/>
<path d="M136.539 38.1272C136.506 38.6679 136.151 38.9889 135.56 38.9889C134.951 38.9889 134.597 38.6003 134.597 38.009C134.597 37.3501 134.985 36.9953 135.661 37.0291C136.286 37.0629 136.556 37.4514 136.539 38.1272Z" fill="#747577"/>
<path d="M142.909 26.6049C142.283 26.5711 141.963 26.25 141.946 25.6418C141.946 25.0336 142.267 24.6619 142.858 24.645C143.5 24.645 143.889 24.966 143.872 25.6587C143.872 26.2839 143.483 26.5542 142.909 26.6049Z" fill="#747577"/>
<path d="M49.31 25.6081C49.2593 26.1994 48.9891 26.5879 48.364 26.5879C47.7727 26.5879 47.401 26.3007 47.3672 25.6925C47.3334 25.0167 47.7051 24.645 48.3471 24.645C48.9553 24.645 49.2593 25.0167 49.31 25.6081Z" fill="#747577"/>
<path d="M46.9449 25.6594C46.8942 26.2507 46.59 26.6055 45.9649 26.5886C45.3566 26.5886 45.0019 26.2338 44.985 25.6425C44.9681 24.9836 45.3567 24.6119 46.0156 24.6457C46.6238 24.6626 46.9111 25.0512 46.9449 25.6594Z" fill="#747577"/>
<path d="M65.9687 36.9292C66.5938 37.0137 66.9316 37.3346 66.9316 37.9429C66.9316 38.5511 66.5767 38.9228 65.9854 38.9228C65.3434 38.9228 64.9717 38.5511 65.0055 37.8753C65.0224 37.2502 65.4447 36.9968 65.9854 36.9292H65.9687Z" fill="#747577"/>
<path d="M208.763 36.3343C208.763 36.7741 208.364 37.17 207.919 37.17C207.474 37.17 207.083 36.7829 207.083 36.3343C207.074 35.8329 207.447 35.4635 207.955 35.4811C208.427 35.4987 208.773 35.8593 208.773 36.3343H208.763Z" fill="#B69759"/>
</svg>
