<svg width="78" height="79" viewBox="0 0 78 79" fill="none" xmlns="http://www.w3.org/2000/svg">
<path d="M20.24 43C19.9 43 19.7 43.26 19.46 43.43C12.21 48.69 6.08999 55.07 0.799988 62.28C0.609988 62.53 0.51 62.89 0 62.99C0.18 62.62 0.319971 62.32 0.469971 62.03C7.45997 48.53 17.23 37.62 30.46 29.96C37.09 26.12 44.28 23.76 51.73 22.11C53.91 21.63 56.11 21.19 58.22 20.46C58.77 20.27 59.3 20.05 59.82 19.79C62.25 18.55 62.92 16.41 62.26 14.83C62.19 14.48 61.75 13.92 61.5 13.69C55.28 8.05999 48.07 6.19 40.06 8.63C31.99 11.09 27.02 16.7 25.05 24.93C24.72 26.33 24.56 27.76 24.56 29.2C24.56 29.47 24.61 29.74 24.35 29.96C21.93 32 19.85 34.36 17.91 37.02C17.46 35.77 17.3 34.59 17.14 33.41C15.32 20.22 22.8 7.24999 35.1 2.21999C38.19 0.949994 41.41 0.240001 44.75 0.0400009C44.95 0.0300009 44.9 0.07 45.49 0H47.32C48.02 0 48.53 0.0499994 49.22 0.139999C61.59 1.71 69.92 8.4 74.36 20C74.65 20.75 74.89 21.51 75.08 22.29C75.48 23.87 75.01 24.97 73.6 25.79C72.07 26.67 70.35 26.99 68.63 27.28C63.43 28.14 58.17 28.64 52.98 29.59C44.02 31.24 35.44 33.98 27.44 38.39C27.18 38.54 26.93 38.71 26.67 38.87C25.86 39.33 25.01 39.74 24.23 40.26C22.89 41.16 21.4 41.86 20.24 43.02V43Z" fill="#054466"/>
<path d="M20.2402 42.9996C21.4002 41.8396 22.8902 41.1396 24.2302 40.2396C25.0002 39.7196 25.8502 39.3096 26.6702 38.8496C29.9102 45.4396 35.1303 49.5896 42.3203 50.9496C53.0703 52.9896 63.3002 47.0296 66.9902 36.7896C67.6302 35.0096 68.0302 33.1796 68.1602 31.2996C68.2002 30.6696 68.4802 30.5196 68.9902 30.4596C70.5802 30.2496 72.1502 29.9396 73.6902 29.4896C74.4002 29.2796 75.0903 28.9996 75.8303 28.5996C75.9703 30.2196 75.8802 31.7496 75.6702 33.2696C74.7502 39.9796 71.9402 45.7796 67.1002 50.5396C62.2602 55.2896 56.4703 58.2096 49.7103 58.7996C37.0003 59.9096 27.3302 54.8396 20.6802 43.9796C20.5002 43.6796 20.2702 43.3896 20.2502 43.0096L20.2402 42.9996Z" fill="#0CA4B8"/>
<path d="M17.8201 72.5102C17.8201 72.3602 17.81 72.2102 17.8 72.0702C17.8 71.9302 17.8 71.7902 17.8 71.6602H18.8701C18.8701 71.6602 18.8701 71.7602 18.8701 71.8702C18.8701 71.9802 18.8701 72.1102 18.8801 72.2502C18.8801 72.4002 18.8901 72.5602 18.8901 72.7302C18.8901 72.9002 18.8901 73.0602 18.9001 73.2102C18.9001 73.3602 18.9 73.4902 18.91 73.6102C18.91 73.7302 18.91 73.8002 18.91 73.8402C18.91 73.9002 18.91 73.9702 18.91 74.0502C18.91 74.1302 18.91 74.2102 18.91 74.2902C18.91 74.3702 18.91 74.4502 18.91 74.5302C18.91 74.6102 18.91 74.6802 18.91 74.7402H19.8201V75.8102H18.7701C18.6801 76.2201 18.5601 76.6102 18.4001 76.9702C18.2401 77.3302 18.0301 77.6402 17.7801 77.9202C17.5201 78.1902 17.21 78.4102 16.85 78.5702C16.49 78.7302 16.0601 78.8202 15.5601 78.8302V77.7502C15.9101 77.7302 16.2101 77.6702 16.4601 77.5502C16.7101 77.4302 16.9201 77.2802 17.0901 77.0902C17.2601 76.9002 17.4001 76.6802 17.5001 76.4202C17.6001 76.1702 17.6801 75.8902 17.7401 75.6102C17.8001 75.3202 17.83 75.0202 17.85 74.7102C17.87 74.4002 17.8701 74.0902 17.8701 73.7902C17.8701 73.5702 17.8701 73.3502 17.8701 73.1402C17.8701 72.9202 17.86 72.7102 17.85 72.5102H17.8201Z" fill="#054466"/>
<path d="M19.7202 74.74H21.7502V71.02H22.8203V75.22C22.8203 75.22 22.8203 75.25 22.8203 75.27C22.8203 75.35 22.8103 75.42 22.7803 75.48C22.7503 75.55 22.7102 75.6 22.6602 75.65C22.6102 75.7 22.5502 75.74 22.4902 75.76C22.4202 75.79 22.3503 75.8 22.2803 75.8H19.7202V74.73V74.74ZM19.7202 77.6C19.7202 77.43 19.7803 77.29 19.8903 77.18C20.0003 77.07 20.1402 77.01 20.3102 77.01C20.4802 77.01 20.6202 77.07 20.7302 77.18C20.8402 77.29 20.9003 77.43 20.9003 77.6C20.9003 77.77 20.8402 77.91 20.7302 78.02C20.6202 78.13 20.4802 78.19 20.3102 78.19C20.1402 78.19 20.0003 78.13 19.8903 78.02C19.7803 77.91 19.7202 77.77 19.7202 77.6ZM21.3602 77.6C21.3602 77.43 21.4203 77.29 21.5303 77.18C21.6403 77.07 21.7803 77.01 21.9503 77.01C22.1203 77.01 22.2602 77.07 22.3702 77.18C22.4802 77.29 22.5402 77.43 22.5402 77.6C22.5402 77.77 22.4802 77.91 22.3702 78.02C22.2602 78.13 22.1203 78.19 21.9503 78.19C21.7803 78.19 21.6403 78.13 21.5303 78.02C21.4203 77.91 21.3602 77.77 21.3602 77.6Z" fill="#054466"/>
<path d="M28.5102 75.8098C28.4202 76.2198 28.3002 76.5998 28.1402 76.9698C27.9802 77.3298 27.7702 77.6498 27.5202 77.9198C27.2702 78.1898 26.9502 78.4098 26.5902 78.5698C26.2302 78.7298 25.8002 78.8198 25.3002 78.8298V77.7598C25.6302 77.7498 25.9002 77.6898 26.1302 77.5898C26.3602 77.4898 26.5602 77.3498 26.7202 77.1798C26.8802 77.0098 27.0202 76.7998 27.1302 76.5698C27.2402 76.3398 27.3402 76.0898 27.4302 75.8198C27.2202 75.8398 27.0102 75.8598 26.8202 75.8798C26.6302 75.8898 26.4402 75.8998 26.2702 75.8998C26.1002 75.8998 25.9302 75.8998 25.7702 75.8798C25.6102 75.8698 25.4402 75.8498 25.2702 75.8298C25.2702 75.8298 25.2002 75.8198 25.1602 75.8098C25.1202 75.8098 25.0802 75.8098 25.0502 75.7898C24.9202 75.7698 24.7902 75.7498 24.6502 75.7198C24.5202 75.6898 24.3902 75.6598 24.2902 75.6098C24.1802 75.5598 24.1002 75.4998 24.0302 75.4298C23.9602 75.3498 23.9302 75.2498 23.9302 75.1298V73.1798C23.9302 72.8598 23.9902 72.5498 24.1102 72.2698C24.2302 71.9798 24.4002 71.7398 24.6102 71.5198C24.8202 71.2998 25.0702 71.1398 25.3502 71.0198C25.6302 70.8998 25.9402 70.8398 26.2602 70.8398H27.8902C27.9902 70.8398 28.0802 70.8598 28.1702 70.8998C28.2602 70.9398 28.3302 70.9898 28.4002 71.0498C28.4602 71.1098 28.5102 71.1898 28.5502 71.2798C28.5902 71.3698 28.6102 71.4598 28.6102 71.5598C28.6102 71.7098 28.6102 71.8698 28.6102 72.0398C28.6102 72.2098 28.6102 72.3798 28.6302 72.5598C28.6302 72.7698 28.6502 72.9798 28.6502 73.1898C28.6502 73.4098 28.6602 73.6298 28.6602 73.8598C28.6602 74.1098 28.6602 74.3498 28.6402 74.5998V74.7498H29.6202V75.8198H28.4902L28.5102 75.8098ZM26.2802 74.8098C26.4902 74.8098 26.7102 74.7998 26.9302 74.7798C27.1502 74.7598 27.3602 74.7298 27.5802 74.6798C27.5802 74.5498 27.5902 74.3998 27.6002 74.2298C27.6002 74.0598 27.6002 73.9098 27.6002 73.7698C27.6002 73.5098 27.6002 73.2398 27.5902 72.9598C27.5902 72.6798 27.5702 72.4298 27.5702 72.1898V72.1298C27.5702 72.1298 27.5702 72.0698 27.5702 72.0398C27.5702 72.0098 27.5702 71.9798 27.5702 71.9498V71.8798H26.2902C26.1202 71.8798 25.9502 71.9098 25.8002 71.9798C25.6502 72.0498 25.5102 72.1398 25.3902 72.2598C25.2702 72.3798 25.1802 72.5098 25.1202 72.6698C25.0602 72.8298 25.0202 72.9898 25.0202 73.1598V74.6698C25.1702 74.6998 25.2902 74.7298 25.4002 74.7398C25.5102 74.7598 25.6102 74.7698 25.7002 74.7798C25.7902 74.7798 25.8802 74.7898 25.9602 74.7898C26.0402 74.7898 26.1302 74.7898 26.2302 74.7898H26.3002L26.2802 74.8098Z" fill="#054466"/>
<path d="M29.54 75.8099V74.7399H30.5801V68.6499H31.6501V72.1299C31.6801 71.9799 31.7701 71.8299 31.9001 71.6799C32.0301 71.5299 32.1801 71.3799 32.3701 71.2599C32.5501 71.1299 32.75 71.0299 32.97 70.9499C33.18 70.8699 33.4 70.8299 33.61 70.8299C34.01 70.8299 34.4101 70.8299 34.8101 70.8399C35.2101 70.8399 35.6101 70.8399 36.0201 70.8599C36.0901 70.8599 36.16 70.8699 36.23 70.8999C36.3 70.9299 36.3501 70.9699 36.4001 71.0099C36.4501 71.0599 36.4901 71.1099 36.5101 71.1799C36.5401 71.2399 36.55 71.3099 36.55 71.3799V74.7399H37.42V75.8099H29.55H29.54ZM33.5701 71.8899C33.3301 71.8899 33.0901 71.9199 32.8701 71.9799C32.6401 72.0399 32.4401 72.1399 32.2701 72.2599C32.0901 72.3899 31.9501 72.5499 31.8401 72.7399C31.7301 72.9299 31.67 73.1599 31.66 73.4199V74.7299H35.48V71.8999C34.87 71.8999 34.4001 71.8899 34.0801 71.8899C33.7601 71.8899 33.5901 71.8899 33.5701 71.8899Z" fill="#054466"/>
<path d="M37.3301 75.81V74.74H38.5701V71.02H39.6401V74.74H40.7501V75.81H37.3301ZM37.5101 69.3C37.5101 69.13 37.5701 68.99 37.6801 68.88C37.7901 68.77 37.93 68.71 38.1 68.71C38.27 68.71 38.4101 68.77 38.5201 68.88C38.6301 68.99 38.6901 69.13 38.6901 69.3C38.6901 69.47 38.6301 69.61 38.5201 69.72C38.4101 69.83 38.27 69.89 38.1 69.89C37.93 69.89 37.7901 69.83 37.6801 69.72C37.5701 69.61 37.5101 69.47 37.5101 69.3ZM39.16 69.3C39.16 69.13 39.2201 68.99 39.3301 68.88C39.4401 68.77 39.5801 68.71 39.7401 68.71C39.8201 68.71 39.9 68.72 39.97 68.75C40.04 68.78 40.1 68.82 40.16 68.88C40.22 68.94 40.26 69 40.29 69.07C40.32 69.14 40.3301 69.22 40.3301 69.3C40.3301 69.38 40.32 69.46 40.29 69.53C40.26 69.6 40.22 69.66 40.16 69.71C40.1 69.76 40.04 69.81 39.97 69.84C39.9 69.87 39.8201 69.88 39.7401 69.88C39.5801 69.88 39.4401 69.82 39.3301 69.71C39.2201 69.6 39.16 69.46 39.16 69.29V69.3Z" fill="#054466"/>
<path d="M40.6902 75.8099V74.7399H41.9002V68.6499H42.9702V74.7399H44.0902V75.8099H40.6902Z" fill="#054466"/>
<path d="M44.0002 74.7399H45.1702V68.6499H46.2402V75.2199C46.2402 75.2199 46.2402 75.2499 46.2402 75.2699C46.2402 75.4199 46.1903 75.5499 46.0803 75.6499C45.9703 75.7499 45.8503 75.7999 45.7003 75.7999H43.9902V74.7299L44.0002 74.7399Z" fill="#054466"/>
<path d="M52.7502 71.6597C52.7502 71.8097 52.7502 71.9497 52.7502 72.0797C52.7502 72.2097 52.7502 72.3597 52.7702 72.5397C52.7702 72.7497 52.7902 72.9596 52.7902 73.1696C52.7902 73.3896 52.8002 73.6097 52.8002 73.8397C52.8002 74.1697 52.7902 74.4997 52.7602 74.8397C52.7402 75.1797 52.6902 75.5196 52.6202 75.8596C52.5402 76.2496 52.4202 76.6297 52.2602 76.9797C52.1002 77.3297 51.8902 77.6397 51.6402 77.9097C51.3802 78.1797 51.0702 78.3897 50.7102 78.5497C50.3502 78.7097 49.9202 78.7996 49.4202 78.8096V77.7297C49.7702 77.7097 50.0702 77.6496 50.3202 77.5296C50.5702 77.4096 50.7802 77.2597 50.9502 77.0697C51.1202 76.8797 51.2602 76.6597 51.3602 76.3997C51.4602 76.1497 51.5402 75.8697 51.6002 75.5897C51.6602 75.2997 51.6902 74.9997 51.7102 74.6897C51.7302 74.3797 51.7302 74.0697 51.7302 73.7697C51.7302 73.5497 51.7302 73.3297 51.7302 73.1197C51.7302 72.8997 51.7302 72.6897 51.7102 72.4897C51.7102 72.3397 51.7002 72.1897 51.6902 72.0497C51.6902 71.9097 51.6902 71.7696 51.6902 71.6396H52.7602L52.7502 71.6597Z" fill="#054466"/>
<path d="M56.1203 75.8102H54.3803C54.2303 75.8102 54.1103 75.7602 54.0003 75.6602C53.8903 75.5602 53.8403 75.4302 53.8403 75.2802C53.8403 75.2602 53.8403 75.2402 53.8403 75.2302V68.6602H54.9103V74.7502H56.1103V75.8202L56.1203 75.8102Z" fill="#054466"/>
<path d="M56.0303 75.8099V74.7399H57.0402V73.1199C57.0402 72.8499 57.1002 72.5799 57.2202 72.2999C57.3402 72.0199 57.5103 71.7699 57.7103 71.5499C57.9203 71.3299 58.1603 71.1499 58.4503 71.0099C58.7303 70.8699 59.0402 70.8099 59.3602 70.8199C59.6702 70.8199 59.9802 70.8199 60.2902 70.8299C60.6002 70.8299 60.9102 70.8299 61.2202 70.8499C61.2902 70.8499 61.3602 70.8599 61.4302 70.8899C61.5002 70.9199 61.5502 70.9599 61.6002 70.9999C61.6502 71.0499 61.6903 71.0999 61.7103 71.1699C61.7403 71.2299 61.7502 71.2999 61.7502 71.3699V74.7299H62.6802V75.7999H56.0203L56.0303 75.8099ZM58.1202 74.7399H60.6902V71.9099C60.5802 71.9099 60.4702 71.9099 60.3702 71.9099C60.2602 71.9099 60.1602 71.9099 60.0602 71.9099C59.9602 71.9099 59.8703 71.9099 59.7803 71.9099H59.5803C59.4803 71.9099 59.4203 71.9099 59.4003 71.9099H59.3602C59.2102 71.9099 59.0502 71.9499 58.9102 72.0199C58.7602 72.0899 58.6303 72.1799 58.5203 72.2999C58.4003 72.4099 58.3102 72.5399 58.2402 72.6899C58.1702 72.8399 58.1403 72.9899 58.1403 73.1399V74.7699L58.1202 74.7399Z" fill="#054466"/>
<path d="M64.0302 74.7401C63.9102 74.4901 63.8201 74.2501 63.7601 74.0101C63.7001 73.7701 63.6701 73.5401 63.6701 73.3301C63.6701 73.0101 63.7201 72.7001 63.8201 72.4001C63.9201 72.1001 64.0701 71.8301 64.2601 71.6001C64.4501 71.3701 64.6901 71.1801 64.9801 71.0401C65.2701 70.9001 65.6001 70.8301 65.9801 70.8301L68.0901 71.0701V72.1401L65.9801 71.9001C65.7701 71.9001 65.5801 71.9401 65.4301 72.0301C65.2801 72.1101 65.1501 72.2201 65.0501 72.3601C64.9501 72.5001 64.8701 72.6501 64.8201 72.8201C64.7701 72.9901 64.7501 73.1601 64.7501 73.3401C64.7501 73.5201 64.7701 73.6901 64.8201 73.8601C64.8701 74.0301 64.9401 74.1801 65.0401 74.3201C65.1401 74.4601 65.2701 74.5601 65.4301 74.6401C65.5901 74.7201 65.7701 74.7601 65.9901 74.7601H68.2301L68.2901 75.8301H62.6101V74.7601H64.0501L64.0302 74.7401Z" fill="#054466"/>
<path d="M71.5602 75.2002C71.5602 74.6902 71.5102 74.1802 71.4202 73.6702C71.3402 73.1602 71.2102 72.6602 71.0402 72.1802C70.8702 71.6902 70.6502 71.2302 70.3802 70.7702C70.1102 70.3202 69.7902 69.9002 69.4102 69.5102C69.4802 69.4402 69.5502 69.3702 69.6102 69.3102C69.6702 69.2502 69.7302 69.1902 69.7902 69.1302C69.8502 69.0702 69.9102 69.0102 69.9702 68.9502C70.0302 68.8902 70.1002 68.8202 70.1602 68.7602C70.5002 69.1102 70.8002 69.4802 71.0602 69.8902C71.3202 70.2902 71.5502 70.7102 71.7402 71.1502C71.9302 71.5802 72.0902 72.0202 72.2202 72.4702C72.3502 72.9202 72.4402 73.3602 72.5102 73.8002C72.5302 73.9602 72.5502 74.1302 72.5702 74.3002C72.5902 74.4802 72.6002 74.6602 72.6102 74.8602C72.8502 74.6602 73.0402 74.4302 73.1802 74.1802C73.3202 73.9302 73.4002 73.6402 73.4202 73.3002V68.6602H74.4902V73.3802C74.4502 73.7902 74.3802 74.1502 74.2802 74.4502C74.1702 74.7502 74.0402 75.0002 73.8702 75.2202C73.7002 75.4302 73.4902 75.6102 73.2602 75.7502C73.0202 75.8902 72.7502 76.0102 72.4602 76.1102C72.1602 76.2102 71.8302 76.2902 71.4702 76.3702C71.1102 76.4402 70.7202 76.5102 70.3102 76.5802C70.2802 76.3902 70.2502 76.2102 70.2302 76.0502C70.2102 75.8902 70.1802 75.7102 70.1502 75.5302C70.4002 75.5002 70.6302 75.4602 70.8502 75.4202C71.0702 75.3802 71.2702 75.3302 71.4602 75.2902L71.5702 75.2202L71.5602 75.2002ZM69.9802 78.3002C69.9802 78.3002 69.9502 78.2102 69.9402 78.1602C69.9402 78.1102 69.9402 78.0602 69.9402 78.0202C69.9402 77.9202 69.9602 77.8202 69.9902 77.7302C70.0202 77.6402 70.0702 77.5502 70.1302 77.4802C70.1902 77.4102 70.2702 77.3502 70.3602 77.3002C70.4502 77.2602 70.5602 77.2302 70.6802 77.2302H71.3402V77.7202H70.6802C70.5702 77.7202 70.5002 77.7402 70.4502 77.8102C70.4002 77.8702 70.3802 77.9402 70.3802 78.0102C70.3802 78.0802 70.4002 78.1402 70.4502 78.1902C70.4902 78.2502 70.5602 78.2802 70.6602 78.2902H71.4002V78.7802H69.7702V78.2902H70.0002L69.9802 78.3002Z" fill="#054466"/>
<path d="M77.0102 75.7999H75.9502V68.6499H77.0102V75.7999Z" fill="#054466"/>
</svg>
