<svg width="85" height="80" viewBox="0 0 85 80" fill="none" xmlns="http://www.w3.org/2000/svg">
<path d="M41.9643 25.4819C46.068 25.4819 50.1618 25.4819 54.2654 25.4819C54.4902 25.4819 54.5488 25.5601 54.5488 25.775C54.5488 33.8358 54.5488 41.9062 54.5488 49.967C54.5488 50.2992 54.5489 50.2991 54.2069 50.2991C51.9987 50.2991 49.8003 50.2991 47.5922 50.2991C47.0646 50.2991 47.0645 50.2991 47.0645 49.7715C47.0645 45.5213 47.0645 41.2712 47.0645 37.021C47.0645 35.7801 47.0645 34.5393 47.0645 33.3082C47.0645 33.0932 47.0158 33.015 46.7813 33.015C41.1827 33.015 35.5939 33.015 29.9954 33.015C29.3994 33.015 29.3994 33.015 29.3994 32.419C29.3994 30.2793 29.3994 28.1395 29.3994 25.99C29.3994 25.4819 29.3994 25.4917 29.9173 25.4917C33.9232 25.4917 37.9389 25.4917 41.9448 25.4917L41.9643 25.4819Z" fill="black"/>
<path d="M54.52 23.3028C54.3929 23.3028 54.3051 23.3028 54.2171 23.3028C51.9699 23.3028 49.7226 23.3028 47.4754 23.3028C47.026 23.3028 47.026 23.3028 46.8892 22.8924C45.6483 19.2578 44.4172 15.6231 43.1763 11.9787C42.8051 10.8844 42.4435 9.78035 42.0723 8.68604C42.043 8.59811 42.0039 8.51994 41.9355 8.37338C41.7498 8.9303 41.6033 9.42862 41.4372 9.91714C40.4308 12.8679 39.4245 15.8186 38.4181 18.7693C37.9393 20.186 37.4508 21.5929 36.9818 23.0097C36.9134 23.2246 36.8059 23.3028 36.5812 23.3028C34.2754 23.3028 31.9598 23.3028 29.6539 23.293C29.5855 23.293 29.5171 23.2735 29.4194 23.2637C29.5465 22.9022 29.6637 22.57 29.7907 22.2378C30.7092 19.717 31.6373 17.1962 32.5557 14.6754C33.3472 12.5259 34.1288 10.3763 34.9203 8.23658C35.9071 5.56921 36.8938 2.90185 37.8807 0.234484C37.949 0.0488433 38.0664 0 38.2423 0C38.7601 0 39.2877 0 39.8055 0C41.7401 0 43.6844 0 45.619 0C45.8339 0 45.9512 0.0683725 46.0294 0.283325C47.026 3.00931 48.0225 5.74506 49.0289 8.46128C49.9669 11.0114 50.9244 13.5615 51.8722 16.1116C52.7417 18.4468 53.5918 20.782 54.4614 23.1171C54.4809 23.1562 54.4906 23.1953 54.52 23.3028Z" fill="black"/>
<path d="M36.8152 60.2549C36.825 60.3623 36.8446 60.4503 36.8446 60.5285C36.8446 62.209 36.8446 63.8895 36.8446 65.57C36.8446 65.8241 36.8836 66.0879 36.9716 66.3224C37.1084 66.723 37.4308 66.9379 37.8412 66.9574C38.486 66.9868 39.1309 66.977 39.7757 66.977C39.9809 66.977 40.1764 66.977 40.4402 66.977C40.3522 66.8598 40.2837 66.7523 40.2056 66.6643C39.463 65.785 39.3947 64.7981 39.8148 63.782C40.2057 62.8538 40.9872 62.5607 41.935 62.6291C43.3419 62.7366 43.9086 64.1338 43.7718 65.2379C43.7035 65.8143 43.4983 66.3322 43.088 66.7523C43.0293 66.8109 42.9804 66.8891 42.912 66.9868H48.0709C47.9732 66.8695 47.9048 66.8011 47.8462 66.723C47.3284 66.1367 46.8007 65.5701 46.3122 64.9741C46.0191 64.6223 46.0484 64.3781 46.3317 64.0166C46.8203 63.3912 47.3967 62.8929 48.1784 62.7073C49.4779 62.4044 50.5429 62.8245 51.3929 63.8309C51.4906 63.9482 51.5786 64.0654 51.6665 64.1826C51.8229 64.3976 51.8229 64.6809 51.6665 64.8959C51.178 65.5505 50.6894 66.1953 50.0446 66.7132C49.9664 66.7718 49.9078 66.8597 49.8101 66.9672C50.5918 66.9672 51.3245 66.9672 52.0573 66.9672C52.4872 66.9672 52.9269 66.9672 53.3568 66.9672C54.0408 66.9477 54.4804 66.5374 54.5292 65.8436C54.5586 65.3844 54.5488 64.9252 54.5488 64.466C54.5488 63.274 54.5488 62.0722 54.5488 60.8802C54.5488 60.6848 54.6172 60.5578 54.7833 60.4796C54.9298 60.4112 55.0862 60.333 55.262 60.2451C55.2718 60.3428 55.2816 60.4014 55.2816 60.4698C55.2816 62.209 55.2621 63.9383 55.2816 65.6775C55.3011 66.6155 54.5976 67.7098 53.2981 67.6512C52.2429 67.6121 51.1877 67.6512 50.1423 67.6414C49.8589 67.6414 49.5658 67.5535 49.2825 67.5242C49.0675 67.5046 48.8525 67.4948 48.6376 67.5144C48.3151 67.5437 47.9927 67.6414 47.6703 67.6414C44.4655 67.6512 41.2608 67.6414 38.0561 67.6414C36.8641 67.6414 36.1509 66.9086 36.1509 65.7166C36.1509 64.1143 36.1509 62.5119 36.1509 60.9095C36.1509 60.6653 36.229 60.5382 36.4439 60.4503C36.5709 60.4014 36.6882 60.3233 36.8543 60.2354L36.8152 60.2549ZM48.9112 63.2838C48.022 63.2349 47.3967 63.7527 46.83 64.3781C46.7812 64.4367 46.7714 64.593 46.8105 64.6516C47.3772 65.3649 47.9537 66.0684 48.7354 66.5667C48.8819 66.6644 48.9795 66.635 49.1163 66.5471C49.8882 66.039 50.4745 65.3453 51.0314 64.6223C51.0705 64.5637 51.0705 64.4074 51.0314 64.3585C50.4647 63.7527 49.8394 63.2447 48.9112 63.2838ZM40.2153 64.8568C40.2153 64.8568 40.2643 64.8763 40.2936 64.8861C40.2643 65.7264 40.6257 66.342 41.339 66.7719C41.5539 66.8989 41.7494 66.8988 41.9643 66.7914C42.9707 66.3028 43.3908 65.0034 42.8925 64.0068C42.4235 63.059 41.0166 63.0493 40.5574 63.8798C40.3913 64.1826 40.3326 64.5344 40.2153 64.8568Z" fill="black"/>
<path d="M29.5953 62.7758C29.5953 63.2447 29.5953 63.6551 29.5953 64.0557C29.5953 64.6712 29.5953 65.277 29.5953 65.8926C29.5953 66.8501 28.8039 67.6708 27.7975 67.661C25.2083 67.6415 22.6094 67.661 20.0202 67.661C15.086 67.661 10.1617 67.661 5.22753 67.661C4.59245 67.661 4.07457 67.4363 3.72283 66.8892C3.70329 66.8501 3.66424 66.8208 3.63493 66.7914C3.62516 66.7817 3.60557 66.7719 3.58603 66.7622C3.38085 66.8892 3.18543 67.026 2.97048 67.1237C1.80778 67.6904 0.478998 67.0553 0.176111 65.8144C0.0393228 65.2672 0.0295522 64.7103 0.176111 64.1632C0.498539 62.893 1.85669 62.2872 3.02916 62.8734C3.13663 62.9321 3.24408 62.9907 3.36132 63.0396C3.40041 62.8149 3.38087 62.5706 3.48835 62.424C3.60559 62.2677 3.84984 62.209 4.08434 62.082C4.08434 62.2188 4.09412 62.3068 4.09412 62.3849C4.09412 63.4792 4.09412 64.5833 4.09412 65.6776C4.09412 66.3224 4.39697 66.7719 4.91481 66.9283C5.08091 66.9771 5.26659 66.9869 5.44246 66.9869C9.53632 66.9869 13.6205 66.9869 17.7143 66.9869C20.9679 66.9869 24.2313 66.9869 27.4849 66.9869C27.6803 66.9869 27.8757 66.9869 28.0613 66.938C28.5205 66.8208 28.7551 66.469 28.8332 66.0196C28.8626 65.8437 28.8722 65.6678 28.8722 65.4919C28.8722 64.7885 28.8722 64.0948 28.8625 63.3913C28.8625 63.1959 28.9211 63.0786 29.1067 63.0102C29.2533 62.9614 29.3901 62.8735 29.5855 62.7758H29.5953ZM3.40044 65.0034C3.40044 64.8178 3.40044 64.6322 3.40044 64.4466C3.41999 63.9189 3.22453 63.7137 2.86302 63.489C2.20839 63.0982 1.45609 63.274 1.06527 63.9189C0.713525 64.5149 0.703731 65.15 0.918683 65.7851C0.987077 65.9903 1.11408 66.1857 1.27041 66.342C1.76871 66.8306 2.55041 66.8012 3.16596 66.2931C3.32229 66.1564 3.41999 66.0196 3.40044 65.7949C3.3809 65.5311 3.40044 65.2672 3.40044 65.0034Z" fill="black"/>
<path d="M0.0391538 72.3903C-0.0585518 72.0678 0.127117 72.0678 0.312758 72.0678C1.97375 72.0678 3.64451 72.0678 5.3055 72.0678C31.5199 72.0678 57.7343 72.0678 83.9487 72.0678C84.1344 72.0678 84.3201 72.058 84.5057 72.0678C84.5741 72.0678 84.6425 72.1655 84.7109 72.2241C84.6425 72.273 84.5741 72.3609 84.5057 72.3707C84.0172 72.3805 83.5287 72.3805 83.0499 72.3805C55.5556 72.3805 28.0612 72.3805 0.557022 72.3805H0.0391538V72.3903Z" fill="black"/>
<path d="M69.5174 60.2456C69.5174 60.4019 69.5369 60.4997 69.5369 60.5974C69.5369 62.1509 69.5369 63.6946 69.5369 65.2481C69.5369 65.5315 69.537 65.8149 69.5858 66.0982C69.6738 66.6258 70.0353 66.958 70.5629 66.9775C71.5399 66.9971 72.5268 66.9873 73.5136 66.9971C75.8488 66.9971 78.1839 66.9971 80.5288 66.9971C80.6949 66.9971 80.861 66.9971 81.0467 66.9971C81.0174 66.9482 81.0076 66.8994 80.9783 66.8505C80.3139 65.9223 80.3237 64.8964 80.6949 63.8901C81.0467 62.9228 81.8478 62.5417 82.8346 62.6492C83.9485 62.7664 84.4762 63.3624 84.5055 64.4861C84.5153 64.9844 84.5153 65.4729 84.5055 65.9712C84.4859 66.9092 83.7043 67.6615 82.7761 67.6615C78.7506 67.6615 74.7154 67.6517 70.6899 67.6713C69.7128 67.6713 68.8335 66.9873 68.8139 65.8832C68.7846 64.2027 68.7944 62.5222 68.8139 60.8417C68.8139 60.7342 68.9117 60.6072 69.0094 60.5388C69.156 60.4313 69.3318 60.3629 69.5565 60.2554L69.5174 60.2456ZM83.8019 65.1504C83.7726 64.8182 83.7726 64.4763 83.714 64.1441C83.6554 63.7631 83.4405 63.4504 83.0595 63.3527C82.2974 63.1573 81.7501 63.3038 81.3788 64.0561C81.0857 64.6424 81.1053 65.2677 81.2518 65.8735C81.457 66.7235 81.9944 67.085 82.8249 66.9775C83.2743 66.9189 83.6554 66.5867 83.7238 66.1373C83.7726 65.8149 83.7824 65.4924 83.8019 65.1602V65.1504Z" fill="black"/>
<path d="M63.1572 68.9899C63.3428 69.0485 63.5284 69.0974 63.7042 69.156C64.2416 69.3221 64.7496 69.283 65.2382 68.9899C65.7365 68.687 66.1175 67.8565 65.9807 67.2996C65.9123 67.3094 65.844 67.3191 65.7854 67.3387C65.3262 67.5439 64.8377 67.5537 64.3491 67.4853C63.6457 67.3778 63.1864 66.9381 62.9226 66.303C62.5806 65.4627 62.6002 64.6127 62.9519 63.7725C63.5967 62.258 65.7561 62.3362 66.4009 63.3132C66.6452 63.6845 66.7527 64.0851 66.7624 64.515C66.7722 65.4041 66.7917 66.303 66.7624 67.1922C66.7331 67.964 66.5963 68.7164 65.9905 69.2733C65.3652 69.8498 64.6324 69.9865 63.8215 69.7911C63.7433 69.7716 63.6652 69.7422 63.5968 69.7227C63.1571 69.6055 63.0985 69.498 63.1572 68.9801V68.9899ZM66.0296 65.326C66.0296 65.326 66.0296 65.326 66.0199 65.326C66.0199 65.0328 66.0296 64.7397 66.0199 64.4564C66.0003 63.9092 65.6779 63.4012 65.2577 63.3328C64.5347 63.2155 64.0951 63.2742 63.714 63.8995C63.3623 64.4857 63.333 65.1306 63.4991 65.795C63.7727 66.8502 64.9158 67.2507 65.8049 66.5961C65.9613 66.4789 66.0394 66.3519 66.0296 66.1467C66.0199 65.8731 66.0296 65.5995 66.0296 65.326Z" fill="black"/>
<path d="M12.6138 77.2751C12.6529 76.6791 12.7702 76.1124 13.0731 75.5945C13.4932 74.8617 14.1282 74.4807 14.9685 74.5002C15.8283 74.51 16.4732 74.9106 16.8543 75.6922C17.3233 76.6595 17.3623 77.6561 16.9324 78.6429C16.5123 79.62 15.7502 80.0597 14.7242 79.9815C13.8254 79.9131 13.1024 79.2976 12.8288 78.3498C12.7311 78.0079 12.6919 77.6463 12.6235 77.2848L12.6138 77.2751ZM13.2293 77.2555C13.2977 77.6268 13.3369 78.0079 13.4444 78.3694C13.6398 78.9556 14.0208 79.3855 14.6657 79.4832C15.3594 79.5907 15.8968 79.3269 16.2485 78.7211C16.5905 78.1153 16.6197 77.4607 16.5416 76.7866C16.4927 76.3567 16.3755 75.9463 16.1019 75.5847C15.5645 74.8813 14.4995 74.7836 13.884 75.4187C13.3857 75.9267 13.2586 76.5716 13.2195 77.2653L13.2293 77.2555Z" fill="black"/>
<path d="M28.1393 79.8352C27.8364 80.0111 27.602 79.9524 27.4749 79.6593C27.2014 79.0438 26.9277 78.438 26.6443 77.8322C26.615 77.7736 26.537 77.7052 26.4881 77.7052C26.1754 77.6954 25.853 77.7052 25.511 77.7052C25.511 77.9299 25.511 78.1547 25.511 78.3794C25.511 78.7995 25.4915 79.2099 25.511 79.63C25.5306 79.9329 25.3645 79.9232 25.1495 79.9427C24.9053 79.9622 24.9053 79.8157 24.9053 79.6398C24.9053 78.1449 24.9053 76.65 24.9053 75.1551C24.9053 74.5786 24.9052 74.5493 25.4719 74.5396C25.9995 74.5396 26.5369 74.5396 27.045 74.6471C27.6605 74.7741 28.0025 75.3017 28.0514 75.927C28.1002 76.6207 27.8852 77.1581 27.2599 77.5098C27.1133 77.588 27.1232 77.6857 27.1916 77.8225C27.5042 78.4967 27.8168 79.1708 28.1295 79.8547L28.1393 79.8352ZM25.511 77.2265C25.8823 77.2265 26.234 77.2558 26.5858 77.2265C27.0059 77.1874 27.3185 76.8845 27.3869 76.4546C27.426 76.2201 27.4162 75.9759 27.3869 75.7414C27.3478 75.3994 27.1329 75.1649 26.8007 75.0476C26.3806 74.9011 25.9507 74.9109 25.511 75.0086V77.2167V77.2265Z" fill="black"/>
<path d="M52.3413 77.2757C52.3413 76.4843 52.3413 75.6831 52.3413 74.8917C52.3413 74.667 52.4195 74.5985 52.6345 74.6083C53.4845 74.6083 54.3345 74.6083 55.1846 74.6083C55.3409 74.6083 55.4874 74.5888 55.4874 74.8233C55.4874 75.0578 55.3702 75.0968 55.165 75.0968C54.5397 75.0871 53.9046 75.0969 53.2792 75.0773C53.0252 75.0773 52.9569 75.1555 52.9666 75.3997C52.9862 75.8101 52.9764 76.2303 52.9666 76.6504C52.9666 76.8556 53.035 76.9142 53.2207 76.9142C53.7385 76.9142 54.2661 76.9142 54.7839 76.9142C54.95 76.9142 55.0576 76.924 55.0673 77.1291C55.0673 77.3246 54.9891 77.393 54.7937 77.393C54.2759 77.393 53.7679 77.393 53.25 77.393C53.0448 77.393 52.9471 77.432 52.9569 77.6665C52.9764 78.1746 52.9666 78.6924 52.9569 79.2005C52.9569 79.3861 53.0155 79.4448 53.2011 79.4448C53.8948 79.435 54.5788 79.4447 55.2725 79.4252C55.4777 79.4252 55.595 79.4545 55.5852 79.689C55.5852 79.9137 55.4777 79.9431 55.2823 79.9431C54.3931 79.9431 53.5138 79.9431 52.6247 79.9431C52.4 79.9431 52.3413 79.8844 52.3413 79.6597C52.3511 78.8683 52.3413 78.0866 52.3413 77.2952V77.2757Z" fill="black"/>
<path d="M9.98558 79.845C9.53613 79.9916 9.43836 79.9525 9.31135 79.5617C9.24295 79.3565 9.17459 79.1415 9.09642 78.9364C9.02803 78.7312 8.91084 78.6335 8.66657 78.6335C8.07057 78.653 7.4647 78.6432 6.85893 78.6335C6.67328 78.6335 6.58539 78.6921 6.53654 78.868C6.47792 79.0927 6.39 79.3174 6.31184 79.5421C6.18482 79.9525 6.08715 80.0013 5.61816 79.845C5.76472 79.4151 5.91123 78.9853 6.05779 78.5554C6.50724 77.3047 6.96646 76.0541 7.40613 74.7936C7.46476 74.6178 7.56241 74.569 7.71874 74.5885C7.89461 74.608 8.09011 74.5298 8.17805 74.7839C8.70566 76.2788 9.24304 77.7737 9.77065 79.2686C9.83905 79.4542 9.89763 79.6301 9.9758 79.8353L9.98558 79.845ZM6.7808 78.1449H8.81304C8.48084 77.1679 8.16819 76.2299 7.84576 75.292C7.81645 75.292 7.79695 75.2919 7.76764 75.2822C7.43544 76.2299 7.113 77.1777 6.7808 78.1449Z" fill="black"/>
<path d="M30.3968 69.0388C30.7681 69.1072 31.1394 69.2244 31.5106 69.244C32.4193 69.2831 33.0055 68.775 33.2107 67.8272C33.2498 67.6514 33.2595 67.4755 33.2595 67.2997C33.2595 66.0393 33.279 64.7886 33.2595 63.5282C33.2595 63.2156 33.3474 63.0397 33.621 62.9517C33.7382 62.9127 33.8457 62.8638 33.9825 62.8149C33.9825 63.1081 33.9825 63.3621 33.9825 63.6161C33.9825 64.9645 34.0021 66.3128 33.9533 67.6514C33.8849 69.4101 32.2824 70.3969 30.5628 69.6543C30.3576 69.5664 30.3186 69.3417 30.4163 69.0486L30.3968 69.0388Z" fill="black"/>
<path d="M31.666 78.1744C31.6074 79.0244 32.3109 79.6497 33.1903 79.5618C33.4443 79.5325 33.6886 79.4348 33.9329 79.3859C34.0208 79.3664 34.1087 79.4152 34.2065 79.4348C34.1674 79.5227 34.1478 79.64 34.0794 79.6888C33.4443 80.0992 32.3988 80.0796 31.8126 79.6693C31.1677 79.21 30.8551 78.3698 31.0798 77.5491C31.1677 77.2266 31.2948 76.8846 31.5 76.6208C31.9104 76.0737 32.4965 75.8979 33.1512 76.0542C33.7862 76.2105 34.1087 76.6892 34.265 77.2852C34.3139 77.4806 34.3236 77.6858 34.3529 77.891C34.3822 78.0962 34.3335 78.1939 34.0892 78.1939C33.376 78.1743 32.6529 78.1939 31.9396 78.1939C31.8517 78.1939 31.7637 78.1939 31.666 78.1939V78.1744ZM33.7863 77.7054C33.7765 77.3243 33.7081 76.9726 33.4345 76.7283C33.2782 76.5817 33.0535 76.4743 32.8386 76.445C32.1155 76.3277 31.6759 76.9921 31.627 77.5881C31.6172 77.7444 31.6954 77.764 31.8224 77.764C32.3695 77.764 32.9167 77.764 33.4639 77.764C33.5616 77.764 33.669 77.7347 33.7863 77.7249V77.7054Z" fill="black"/>
<path d="M57.3726 67.661V67.3776C57.3726 65.2184 57.3726 63.0591 57.3726 60.8998C57.3726 60.6848 57.4312 60.5773 57.6266 60.5089C57.7829 60.4503 57.9197 60.3624 58.1054 60.2646V67.6708H57.3823L57.3726 67.661Z" fill="black"/>
<path d="M83.2644 78.1843C82.8833 78.1843 82.5022 78.1843 82.1212 78.1843C81.8573 78.1843 81.8281 78.2332 81.8965 78.4872C82.1896 79.5913 83.2351 79.7672 84.1339 79.4057C84.2512 79.3568 84.3684 79.2591 84.4466 79.4252C84.5247 79.5815 84.4075 79.6596 84.2805 79.728C83.2546 80.2752 82.0235 79.9724 81.5252 79.0442C81.0659 78.2039 81.2614 77.0216 81.9649 76.3865C82.6684 75.7514 83.792 75.8882 84.2512 76.709C84.4564 77.0705 84.515 77.5199 84.6225 77.9401C84.6713 78.1159 84.5639 78.1941 84.3782 78.1843C84.0069 78.1746 83.6356 78.1843 83.2644 78.1843ZM82.9614 77.7447C83.2545 77.7447 83.5477 77.7544 83.831 77.7447C83.8994 77.7447 84.0265 77.6665 84.0363 77.6176C84.0753 77.0021 83.6258 76.4549 83.108 76.4256C82.4729 76.3963 81.9062 76.8946 81.8573 77.5297C81.8476 77.6958 81.9258 77.7447 82.0822 77.7447C82.3753 77.7447 82.6683 77.7447 82.9516 77.7447H82.9614Z" fill="black"/>
<path d="M39.9516 77.5001C39.9028 77.2851 39.8831 77.1386 39.8342 77.0018C39.7365 76.7086 39.5411 76.523 39.2285 76.4644C38.8181 76.3862 38.4371 76.4351 38.0756 76.6598C37.9584 76.7282 37.8216 76.8259 37.7434 76.6403C37.7141 76.5719 37.8117 76.4156 37.8899 76.3569C38.3882 76.0052 38.9452 75.8977 39.5314 76.0638C40.1665 76.2396 40.3815 76.7673 40.4108 77.3535C40.4499 78.1254 40.4401 78.907 40.4304 79.6887C40.4304 79.7668 40.3228 79.8548 40.2642 79.9329C40.1763 79.8645 40.0786 79.8059 40.0102 79.718C39.9711 79.6692 39.9711 79.5909 39.9418 79.4835C39.8441 79.5519 39.7757 79.6105 39.6976 79.6593C39.1797 80.0306 38.6032 80.0893 38.0365 79.8645C37.6164 79.6984 37.3916 79.3272 37.3916 78.8582C37.3916 78.3599 37.6164 77.9984 38.0561 77.7639C38.4957 77.5294 38.9745 77.5391 39.4533 77.5391C39.6096 77.5391 39.7562 77.5196 39.9418 77.5099L39.9516 77.5001ZM39.932 78.4576C39.932 78.3306 39.9418 78.2133 39.932 78.0863C39.932 78.0277 39.8637 77.9202 39.8148 77.9202C39.3067 77.8909 38.7889 77.8615 38.3199 78.1351C38.0268 78.311 37.9584 78.5944 37.9975 78.9168C38.0463 79.2783 38.2222 79.4639 38.5544 79.5421C39.3458 79.7277 39.932 79.2588 39.932 78.4576Z" fill="black"/>
<path d="M72.2528 79.5812C71.9401 79.7082 71.647 79.845 71.3441 79.9427C71.2073 79.9916 71.051 79.9818 70.8947 79.9818C70.2205 79.9622 69.8102 79.6203 69.7223 78.9949C69.6441 78.3696 69.9568 77.842 70.5821 77.6857C71.012 77.5782 71.4712 77.5782 71.9206 77.5489C72.2528 77.5294 72.2723 77.5196 72.2039 77.1972C72.0964 76.7282 71.8131 76.4742 71.3441 76.4546C71.0021 76.4351 70.6699 76.4741 70.3768 76.6793C70.2596 76.7575 70.1228 76.8259 70.0446 76.65C70.0153 76.5914 70.0935 76.4351 70.1717 76.3862C70.67 76.0247 71.2464 75.9075 71.8326 76.0736C72.3309 76.2103 72.6339 76.5914 72.6632 77.0994C72.7121 77.9788 72.6924 78.8679 72.7022 79.7473C72.7022 79.8059 72.6241 79.9329 72.5947 79.9232C72.5068 79.9134 72.4091 79.8743 72.3505 79.8059C72.2919 79.7375 72.2723 79.6398 72.2528 79.5812ZM72.2332 78.4674C72.2332 78.3403 72.243 78.2231 72.2332 78.0961C72.2332 78.0277 72.1649 77.9202 72.1258 77.9202C71.5884 77.8909 71.0413 77.8518 70.5625 78.1742C70.2792 78.3697 70.2303 78.6628 70.2889 78.9754C70.3378 79.249 70.5136 79.4249 70.7774 79.5128C71.1878 79.6398 71.5591 79.5323 71.9108 79.3272C72.2528 79.122 72.2528 78.7996 72.2235 78.4674H72.2332Z" fill="black"/>
<path d="M0 77.2557C0 76.4643 0 75.6631 0 74.8717C0 74.6763 0.0586329 74.6177 0.254044 74.6177C1.10408 74.6177 1.95411 74.6177 2.80415 74.6177C2.98979 74.6177 3.06796 74.6763 3.05819 74.8619C3.05819 75.028 2.98979 75.116 2.80415 75.1062C2.12998 75.0867 1.45575 75.1062 0.791354 75.0769C0.625254 75.0769 0.54709 75.116 0.54709 75.2918C0.54709 75.7804 0.54709 76.2689 0.54709 76.7477C0.54709 76.9138 0.625225 76.9235 0.762013 76.9235C1.32871 76.9137 1.89539 76.9236 2.46208 76.904C2.64772 76.904 2.72591 76.9626 2.72591 77.1385C2.72591 77.3437 2.62828 77.3925 2.44264 77.3925C1.9248 77.3828 1.39709 77.3925 0.879255 77.373C0.61545 77.3632 0.54709 77.4609 0.54709 77.7051C0.55686 78.3402 0.54709 78.9753 0.54709 79.6202C0.54709 79.7863 0.547109 79.9329 0.322386 79.9231C0.126974 79.9231 9.54178e-06 79.8742 0.0097801 79.6202C0.0293212 78.8288 0.0097801 78.0472 0.0097801 77.2557H0Z" fill="black"/>
<path d="M60.011 75.9565C60.3042 76.0445 60.6071 76.1129 60.8904 76.2204C60.9588 76.2497 60.9881 76.3864 61.037 76.4841C60.9393 76.5037 60.8415 76.5428 60.7438 76.533C60.3921 76.5233 60.0502 76.4646 59.6984 76.4744C59.4639 76.4744 59.3565 76.6796 59.3271 76.8945C59.2978 77.1193 59.3076 77.3537 59.5518 77.471C59.7375 77.5589 59.9231 77.6273 60.1087 77.7055C60.3334 77.8032 60.568 77.8814 60.7927 77.9888C61.2226 78.194 61.3789 78.5555 61.3398 79.0147C61.3007 79.474 61.0174 79.7573 60.5972 79.8941C60.0012 80.0895 59.4248 79.9918 58.8874 79.6987C58.8288 79.6694 58.819 79.5326 58.7897 79.4544C58.8679 79.4349 58.9558 79.3958 59.0242 79.4056C59.4248 79.4544 59.8255 79.5521 60.2163 79.5521C60.568 79.5521 60.7732 79.3371 60.8221 79.0538C60.8807 78.6727 60.7829 78.4773 60.4117 78.321C60.1967 78.2233 59.9525 78.1842 59.7278 78.1061C59.591 78.0572 59.4444 77.9986 59.3174 77.9302C58.8875 77.6762 58.6628 77.256 58.7409 76.8554C58.8191 76.4451 59.2099 76.1129 59.6886 76.0347C59.7864 76.0152 59.8841 76.0152 59.9818 76.0054C59.9818 75.9956 59.9915 75.9761 60.0013 75.9663L60.011 75.9565Z" fill="black"/>
<path d="M65.5015 75.0474C65.5015 75.3014 65.5113 75.5555 65.5015 75.8095C65.4917 76.0342 65.5504 76.1319 65.7947 76.1124C66.0096 76.0929 66.2343 76.0929 66.459 76.1124C66.5469 76.1222 66.6154 76.2296 66.6936 76.2883C66.6154 76.3664 66.5469 76.4934 66.459 76.5032C66.2245 76.5325 65.9803 76.5227 65.7458 76.5032C65.5601 76.5032 65.5015 76.5618 65.5015 76.7474C65.5015 77.4412 65.4917 78.1447 65.5015 78.8384C65.5015 79.4832 65.736 79.6493 66.3711 79.5125C66.459 79.493 66.5763 79.5711 66.674 79.6102C66.6154 79.6884 66.5763 79.8154 66.4981 79.8447C65.6969 80.1574 64.9739 79.9033 64.9934 78.8872C65.0032 78.1837 64.9934 77.4705 64.9934 76.767C64.9934 76.5423 64.9251 76.4934 64.7199 76.5032C64.6222 76.5032 64.4658 76.4837 64.417 76.4153C64.3095 76.2785 64.4268 76.1124 64.6125 76.1026C64.873 76.0896 64.9999 75.9528 64.9934 75.6922C64.9836 75.2037 65.0325 75.1451 65.5113 75.0376L65.5015 75.0474Z" fill="black"/>
<path d="M77.1192 76.513C77.1192 76.6888 77.1192 76.8354 77.1192 76.9819C77.1192 77.617 77.0997 78.2521 77.0997 78.897C77.0997 79.493 77.3538 79.6689 77.9303 79.5223C77.9987 79.5028 78.0768 79.4832 78.1354 79.5028C78.194 79.5223 78.2625 79.5809 78.282 79.6298C78.2918 79.6786 78.2428 79.7763 78.194 79.7959C77.8227 79.9815 77.432 80.0695 77.0509 79.8838C76.7089 79.7177 76.5917 79.3855 76.5917 79.0142C76.5917 78.2912 76.5917 77.5682 76.5917 76.8354C76.5917 76.5911 76.5232 76.4739 76.2594 76.5032C76.1129 76.5227 75.9956 76.5032 75.9956 76.3078C75.9956 76.0928 76.1227 76.0733 76.279 76.0928C76.5428 76.1417 76.6405 76.0342 76.6014 75.7802C76.6014 75.7313 76.6014 75.6727 76.6014 75.6239C76.5916 75.2135 76.66 75.1255 77.129 75.0376C77.129 75.3112 77.1486 75.5848 77.129 75.8486C77.1095 76.0733 77.1876 76.1026 77.3733 76.0928C77.598 76.0831 77.8325 76.0928 78.067 76.0928C78.2331 76.0928 78.3113 76.1905 78.282 76.3175C78.2625 76.3957 78.1451 76.4934 78.067 76.4934C77.7738 76.5129 77.4808 76.4934 77.1388 76.4934L77.1192 76.513Z" fill="black"/>
<path d="M44.4753 74.5981C44.4753 74.8229 44.4753 75.0378 44.4753 75.2625C44.4753 76.7086 44.4753 78.1449 44.4753 79.5909C44.4753 79.9231 44.4168 79.9915 44.1432 79.9133C44.0748 79.8938 43.9868 79.7961 43.9868 79.7277C43.9868 78.1351 43.9868 76.5425 43.9868 74.9499C43.9868 74.6568 44.28 74.6959 44.407 74.5591C44.4265 74.5689 44.446 74.5884 44.4753 74.5981Z" fill="black"/>
<path d="M27.0933 69.381C27.0933 69.1074 27.2984 68.912 27.572 68.9315C27.8163 68.9315 28.0214 69.1465 28.0117 69.4005C28.0117 69.6643 27.7967 69.8695 27.5329 69.8695C27.2691 69.8695 27.0835 69.6643 27.0835 69.381H27.0933Z" fill="black"/>
<path d="M42.7653 60.7432C42.7653 61.0461 42.6286 61.2025 42.3551 61.2123C42.0717 61.2123 41.8665 61.0266 41.8763 60.7334C41.8763 60.4696 42.0815 60.2645 42.3453 60.2743C42.6189 60.2743 42.7653 60.4501 42.7653 60.7432Z" fill="black"/>
<path d="M41.4565 60.7535C41.4565 61.0271 41.2904 61.2127 41.0266 61.2127C40.753 61.2127 40.5381 61.0075 40.5381 60.7339C40.5381 60.4799 40.7628 60.2747 41.0266 60.2845C41.2709 60.2845 41.4467 60.4799 41.4565 60.7535Z" fill="black"/>
<path d="M28.4131 69.381C28.4131 69.1074 28.5987 68.9217 28.8821 68.9315C29.1556 68.9315 29.312 69.1269 29.312 69.42C29.312 69.6936 29.1361 69.8597 28.8625 69.8597C28.5889 69.8597 28.4131 69.6839 28.4229 69.381H28.4131Z" fill="black"/>
<path d="M82.6002 61.2025C82.3266 61.2025 82.1312 60.9876 82.141 60.7238C82.141 60.4502 82.3461 60.2645 82.6197 60.2743C82.8738 60.2841 83.0595 60.4892 83.0497 60.753C83.0497 61.0071 82.8444 61.2123 82.5904 61.2025H82.6002Z" fill="black"/>
<path d="M3.18492 60.2261C3.46827 60.2261 3.61477 60.3726 3.61477 60.6658C3.61477 60.9491 3.44872 61.1152 3.17514 61.1152C2.87225 61.1152 2.70605 60.9393 2.70605 60.6364C2.70605 60.3628 2.86248 60.2261 3.17514 60.2261H3.18492Z" fill="black"/>
<path d="M1.87574 60.226C2.15908 60.226 2.28614 60.3628 2.28614 60.656C2.28614 60.9393 2.13955 61.1054 1.88552 61.1054C1.58263 61.1054 1.38721 60.9197 1.38721 60.6462C1.38721 60.3628 1.56308 60.2163 1.87574 60.226Z" fill="black"/>
</svg>
