<svg width="129" height="90" viewBox="0 0 129 90" fill="none" xmlns="http://www.w3.org/2000/svg">
<path d="M73.925 0.103577C73.5945 -0.248248 73.3706 0.402095 73.2853 0.487385C64.9375 9.14439 54.564 16.6713 45.1394 23.6438C53.6898 19.4859 61.0461 14.1339 68.1679 8.54735C68.1679 8.67529 68.0613 8.69661 68.0399 8.80322C62.2402 23.0148 58.9351 39.7318 58.8285 59.6471C62.9438 59.2313 66.9205 59.0181 70.7692 58.9861C66.3981 40.6486 66.8779 15.232 73.9144 0.103577H73.925Z" fill="#23569F"/>
<path fill-rule="evenodd" clip-rule="evenodd" d="M56.7824 23.0999C53.552 25.8399 49.2555 28.6225 45.3961 31.1599C44.6925 40.286 45.6093 49.7213 47.4431 57.1309C44.7138 49.668 43.2852 40.915 43.4771 30.5202C48.0508 28.1854 52.5925 25.8186 56.7824 23.0999Z" fill="#23569F"/>
<path fill-rule="evenodd" clip-rule="evenodd" d="M58.5307 30.9147C56.1745 32.919 53.04 34.9447 50.2254 36.7998C49.7137 43.4631 50.3747 50.3503 51.718 55.7556C49.7244 50.3077 48.6795 43.9109 48.8181 36.3307C52.1551 34.6249 55.4709 32.8977 58.5307 30.9147Z" fill="#23569F"/>
<path d="M30.7892 69.4021H22.7292C39.1584 63.0267 55.1717 59.9242 71.6221 59.9242C76.9315 59.9242 82.3368 60.2547 87.9446 60.9264C84.565 60.7025 81.2387 60.5852 77.923 60.5852C61.0888 60.5852 45.6724 63.4744 30.7785 69.4021H30.7892Z" fill="#23569F"/>
<path d="M43.6043 69.4024H35.4697C50.5449 64.189 64.0741 61.7582 77.9339 61.7582C82.8487 61.7582 87.7636 62.0354 93.542 62.6644C91.0686 62.5685 88.5419 62.5045 85.9725 62.5045C71.0786 62.5045 58.0078 64.6368 43.5937 69.4024H43.6043Z" fill="#23569F"/>
<path d="M5.69332 79.4135C5.69332 79.84 5.54401 80.2131 5.24549 80.5543C4.95764 80.8848 4.58451 81.0767 4.13674 81.1407H2.94267C2.2177 81.1407 1.66333 80.9168 1.29018 80.4797C0.949016 80.0745 0.789062 79.5095 0.789062 78.7845V77.4305H1.53537V78.7738C1.53537 79.3602 1.6633 79.8187 1.92983 80.1598C2.19637 80.501 2.5695 80.6716 3.04926 80.6716H3.96619C4.25404 80.6289 4.49924 80.4797 4.69115 80.2238C4.84041 80.0106 4.92567 79.7867 4.92567 79.5628H4.17936C3.77423 79.5628 3.45441 79.4455 3.19854 79.2003C2.92134 78.9338 2.78273 78.5819 2.78273 78.1342C2.78273 77.5904 2.95334 77.1427 3.28384 76.8122C3.61435 76.4817 4.05143 76.3004 4.5845 76.3004H5.3308L5.20287 76.8015H4.5312C3.89152 76.8015 3.58233 77.196 3.58233 77.9956C3.58233 78.6139 3.81692 78.9338 4.29668 78.9338H5.70399V79.4242L5.69332 79.4135ZM2.63352 82.6972C2.51624 82.6972 2.40958 82.6546 2.31363 82.5693C2.21767 82.484 2.17502 82.3774 2.17502 82.2495C2.17502 82.1109 2.21767 82.0149 2.31363 81.9296C2.40958 81.8443 2.51624 81.791 2.63352 81.791C2.75079 81.791 2.86801 81.8336 2.97462 81.9189C3.07058 82.0042 3.11323 82.1215 3.11323 82.2495C3.11323 82.3774 3.07058 82.484 2.97462 82.5586C2.87867 82.6439 2.77212 82.6972 2.63352 82.6972ZM3.85953 82.6972C3.7316 82.6972 3.625 82.6546 3.53971 82.5693C3.44375 82.484 3.4011 82.3774 3.4011 82.2495C3.4011 82.1215 3.44374 82.0149 3.52903 81.9296C3.62499 81.8443 3.7316 81.791 3.85953 81.791C3.98747 81.791 4.10474 81.8336 4.19003 81.9189C4.28598 82.0042 4.32863 82.1215 4.32863 82.2495C4.32863 82.3774 4.28599 82.484 4.2007 82.5586C4.10475 82.6439 3.99813 82.6972 3.85953 82.6972Z" fill="#264C96"/>
<path d="M7.98554 79.1363C7.98554 80.1492 7.43116 80.8102 6.33304 81.1087L6.1731 80.8208C6.87674 80.6076 7.22862 80.1172 7.22862 79.3815V77.5051L7.06868 76.503L7.98554 76.3004V79.147V79.1363Z" fill="#264C96"/>
<path d="M9.88296 79.4452C9.53114 79.4452 9.25391 79.3492 9.05134 79.1573C8.84878 78.9547 8.74219 78.6882 8.74219 78.3364V75.7883L8.61426 74.8288L9.50977 74.6262V78.1551C9.50977 78.5709 9.69104 78.7735 10.0642 78.7735H10.48V79.4452H9.88296Z" fill="#264C96"/>
<path d="M13.5397 79.4452C13.5397 79.4452 13.3052 79.4132 12.9001 79.3599C12.5269 79.4238 12.3137 79.4452 12.2497 79.4452H10.3093V78.7735H11.6207C11.3648 78.5176 11.2263 78.1978 11.2263 77.8033C11.2263 77.3662 11.3755 77.0037 11.674 76.7159C11.9725 76.428 12.3883 76.2787 12.9001 76.2787C13.4118 76.2787 13.8276 76.4173 14.1261 76.7159C14.4246 77.0037 14.5739 77.3555 14.5739 77.8033C14.5739 78.1978 14.4459 78.5176 14.1794 78.7735H15.2562V79.4452H13.5504H13.5397ZM12.2817 75.5324C12.1644 75.5324 12.0578 75.4898 11.9619 75.4045C11.8659 75.3192 11.8126 75.2126 11.8126 75.0847C11.8126 74.9567 11.8553 74.8501 11.9512 74.7648C12.0472 74.6795 12.1644 74.6262 12.2817 74.6262C12.399 74.6262 12.5163 74.6689 12.6122 74.7542C12.7082 74.8395 12.7615 74.9567 12.7615 75.0847C12.7615 75.2126 12.7188 75.3192 12.6229 75.3938C12.5269 75.4791 12.4203 75.5324 12.2817 75.5324ZM12.8894 76.7905C12.6549 76.7905 12.4629 76.8651 12.303 77.0144C12.1217 77.185 12.0365 77.4408 12.0365 77.7607C12.0365 78.4963 12.3244 78.8588 12.9001 78.8588C13.1773 78.8588 13.3905 78.7415 13.5397 78.4963C13.6677 78.2937 13.7423 78.0485 13.7423 77.7607C13.7423 77.4408 13.6463 77.1956 13.4651 77.0144C13.3158 76.8651 13.124 76.7905 12.8894 76.7905ZM13.5077 75.5324C13.3905 75.5324 13.2732 75.4898 13.1772 75.4045C13.0813 75.3192 13.0386 75.2126 13.0386 75.0847C13.0386 74.9461 13.0813 74.8501 13.1772 74.7648C13.2732 74.6795 13.3798 74.6262 13.5077 74.6262C13.625 74.6262 13.7423 74.6689 13.8382 74.7542C13.9342 74.8395 13.9768 74.9567 13.9768 75.0847C13.9768 75.2126 13.9342 75.3192 13.8489 75.3938C13.7529 75.4791 13.6463 75.5324 13.5077 75.5324Z" fill="#264C96"/>
<path d="M18.4871 79.4451C18.2845 79.4451 18.0074 79.3811 17.6875 79.2532C17.6342 79.2852 17.453 79.2959 17.1544 79.2852C16.9306 79.2852 16.8133 79.3278 16.8133 79.4451H14.9155V78.7734H16.696C16.824 78.7734 16.9199 78.7734 16.9945 78.7415L16.5467 78.3363L15.7151 77.5687C15.7151 77.2169 15.9071 76.897 16.2909 76.6092C16.6854 76.3213 17.1545 76.1827 17.6982 76.1827C18.2419 76.1827 18.711 76.3213 19.1054 76.6199C19.4786 76.8971 19.6598 77.2169 19.6705 77.5687L18.3698 78.7308L18.5191 78.7521C18.5191 78.7521 18.5724 78.7521 18.5937 78.7521H20.2995V79.4238H18.4764L18.4871 79.4451ZM18.8389 77.4408C18.8069 77.2808 18.711 77.1529 18.5404 77.0463C18.3165 76.9077 18.0393 76.8437 17.7088 76.8437C17.3783 76.8437 17.0905 76.9077 16.8772 77.0463C16.6853 77.1636 16.5787 77.3022 16.5574 77.4408L17.3357 78.1657C17.4636 78.2937 17.5915 78.4003 17.7088 78.4962L18.8496 77.4408H18.8389Z" fill="#264C96"/>
<path d="M22.5375 78.3366C22.5375 78.6778 22.4416 78.955 22.2284 79.1469C22.0258 79.3494 21.7486 79.4454 21.3968 79.4454H19.9575V78.7737H21.2049C21.578 78.7737 21.7699 78.5711 21.7699 78.1553V75.7779L21.6313 74.7864L22.5269 74.5731V78.3259L22.5375 78.3366Z" fill="#264C96"/>
<path d="M24.1689 75.6073V79.4454H23.4119V75.618L23.2947 74.6905L24.2542 74.6158L24.1795 75.6073H24.1689Z" fill="#264C96"/>
<path d="M28.4763 79.4453C28.3163 79.4453 28.1884 79.4346 28.0925 79.3919C27.9965 80.2555 27.4527 80.8312 26.4506 81.0978L26.28 80.8099C26.9943 80.5967 27.3462 80.1169 27.3462 79.3706V77.4942L27.1862 76.4921L28.1031 76.2895V78.1552C28.1031 78.571 28.2843 78.7736 28.6575 78.7736H29.084V79.4453H28.4656H28.4763Z" fill="#264C96"/>
<path d="M29.7664 80.65C29.7664 80.7566 29.7237 80.8632 29.6278 80.9592C29.5318 81.0551 29.4253 81.0978 29.2867 81.0978C29.1694 81.0978 29.0521 81.0551 28.9562 80.9698C28.8602 80.8845 28.8069 80.7779 28.8069 80.6393C28.8069 80.5114 28.8495 80.4048 28.9562 80.3301C29.0521 80.2449 29.1587 80.1915 29.276 80.1915C29.3933 80.1915 29.5105 80.2342 29.6172 80.3195C29.7131 80.4048 29.7558 80.5221 29.7558 80.65H29.7664ZM31.2057 78.3578C31.2057 78.6883 31.1097 78.9442 30.8965 79.1467C30.6939 79.3386 30.4167 79.4346 30.0649 79.4346H28.8815V78.7629H29.873C30.2462 78.7629 30.438 78.571 30.438 78.1766V77.4409L30.2994 76.4814L31.1843 76.2895V78.3578H31.2057ZM30.9818 80.65C30.9818 80.7673 30.9391 80.8632 30.8432 80.9592C30.7472 81.0551 30.6406 81.0978 30.5127 81.0978C30.3847 81.0978 30.2781 81.0551 30.1715 80.9698C30.0756 80.8845 30.0223 80.7779 30.0223 80.6393C30.0223 80.5114 30.0649 80.4048 30.1715 80.3301C30.2675 80.2449 30.3741 80.1915 30.502 80.1915C30.6193 80.1915 30.7365 80.2342 30.8325 80.3195C30.9285 80.4048 30.9711 80.5221 30.9711 80.65H30.9818Z" fill="#264C96"/>
<path d="M34.9381 79.4451C34.8101 80.3087 34.2664 80.8631 33.3175 81.0976L33.1576 80.8098C33.808 80.5645 34.1598 80.1168 34.2024 79.4451H33.4775C33.0617 79.4451 32.7312 79.3278 32.4753 79.0826C32.1875 78.8161 32.0488 78.4643 32.0488 78.0165C32.0488 77.4728 32.2088 77.0356 32.5393 76.6945C32.8698 76.3533 33.3069 76.1827 33.8399 76.1827H34.9594V78.7628H35.8443V79.4345H34.9381V79.4451ZM34.1811 76.6305H33.7866C33.4775 76.6305 33.2429 76.7478 33.0723 76.9717C32.9018 77.1956 32.8165 77.5047 32.8165 77.8885C32.8165 78.4749 33.051 78.7841 33.5308 78.7841H34.1704V76.6412L34.1811 76.6305Z" fill="#264C96"/>
<path d="M35.5879 79.4451V78.7734H36.7393V75.8522L36.6114 74.9354L37.5816 74.8501L37.4856 75.8416V78.0165C37.6989 77.6327 38.0294 77.2702 38.4771 76.897C39.0102 76.4706 39.5219 76.2574 40.0017 76.2574C40.5561 76.2574 40.9932 76.3746 41.3237 76.6199C41.6649 76.8651 41.8461 77.2062 41.8461 77.622V78.7628H42.5711V79.4345H35.5986L35.5879 79.4451ZM41.0678 77.75C41.0678 77.1849 40.652 76.897 39.8311 76.897C39.394 76.897 38.9035 77.1529 38.3598 77.6647C38.1146 77.8886 37.9334 78.0911 37.7948 78.2617C37.6669 78.4323 37.5603 78.6029 37.4856 78.7734H41.0572V77.75H41.0678Z" fill="#264C96"/>
<path d="M44.7452 79.4452C44.4361 79.4452 44.1908 79.3705 43.9989 79.2213C43.7964 79.3705 43.5512 79.4452 43.2633 79.4452H42.3464V78.7735H43.0501C43.4232 78.7735 43.6151 78.5816 43.6151 78.1871V77.4621L43.4552 76.492L44.3721 76.2894V78.1871C44.3721 78.5816 44.5533 78.7735 44.9265 78.7735H45.3209V79.4452H44.7452ZM42.8582 75.5324C42.7302 75.5324 42.6236 75.4898 42.5383 75.4045C42.4424 75.3192 42.3997 75.2126 42.3997 75.074C42.3997 74.9461 42.4424 74.8395 42.5277 74.7648C42.6236 74.6795 42.7302 74.6262 42.8582 74.6262C42.9861 74.6262 43.1034 74.6689 43.1887 74.7542C43.2846 74.8395 43.3273 74.9567 43.3273 75.0847C43.3273 75.2126 43.2846 75.3192 43.1993 75.3938C43.1034 75.4791 42.9968 75.5324 42.8582 75.5324ZM44.0842 75.5324C43.9563 75.5324 43.8496 75.4898 43.7643 75.4045C43.6684 75.3192 43.6257 75.2126 43.6257 75.074C43.6257 74.9461 43.6684 74.8395 43.7537 74.7648C43.8496 74.6795 43.9563 74.6262 44.0842 74.6262C44.2122 74.6262 44.3294 74.6689 44.4147 74.7542C44.5107 74.8395 44.5533 74.9567 44.5533 75.0847C44.5533 75.2126 44.5106 75.3192 44.4253 75.3938C44.3294 75.4791 44.2228 75.5324 44.0842 75.5324Z" fill="#264C96"/>
<path d="M47.5285 79.4452C47.2194 79.4452 46.9635 79.3705 46.7716 79.2106C46.5797 79.3705 46.3451 79.4452 46.0466 79.4452H45.1084V78.7735H45.844C46.2172 78.7735 46.3984 78.5709 46.3984 78.1551V75.831L46.2492 74.8288L47.166 74.6262V78.1551C47.166 78.5709 47.3473 78.7735 47.7204 78.7735H48.0509V79.4452H47.5392H47.5285Z" fill="#264C96"/>
<path d="M50.3959 78.3366C50.3959 78.6778 50.2999 78.955 50.0867 79.1469C49.8842 79.3494 49.607 79.4454 49.2552 79.4454H47.8159V78.7737H49.0633C49.4364 78.7737 49.6283 78.5711 49.6283 78.1553V75.7779L49.4897 74.7864L50.3853 74.5731V78.3259L50.3959 78.3366Z" fill="#264C96"/>
<path d="M56.1006 79.4455C55.6955 79.4455 55.3757 79.3175 55.1305 79.0617C54.8746 79.2003 54.5441 79.2749 54.139 79.2749C53.7232 79.2749 53.4033 79.147 53.1687 78.8911C52.9342 78.6246 52.8169 78.2727 52.8169 77.8143C52.8169 77.3239 52.9768 76.9401 53.3073 76.6522C53.6485 76.3537 54.0857 76.2044 54.6081 76.2044H54.8639L54.8106 75.8633C55.1518 75.778 55.4503 75.714 55.7275 75.6607V78.1661C55.7275 78.5713 55.9087 78.7738 56.2925 78.7738H56.7829V79.4455H56.1113H56.1006ZM54.4055 74.9038C54.4055 75.0104 54.3628 75.117 54.2776 75.2129C54.1816 75.3089 54.075 75.3515 53.9471 75.3515C53.8191 75.3515 53.7018 75.3089 53.6059 75.2129C53.5099 75.1276 53.4673 75.0104 53.4673 74.8824C53.4673 74.7652 53.5099 74.6585 53.6059 74.5732C53.7018 74.4773 53.8085 74.4347 53.9364 74.4347C54.0537 74.4347 54.1709 74.4773 54.2669 74.5626C54.3522 74.6479 54.3948 74.7652 54.3948 74.9038H54.4055ZM54.5654 76.7055C54.2882 76.7055 54.0643 76.8121 53.883 76.9934C53.6911 77.1853 53.5952 77.4092 53.5952 77.6864C53.5952 78.3367 53.8297 78.6672 54.2988 78.6672C54.5334 78.6672 54.7466 78.6352 54.9705 78.5819V76.6949H54.5654V76.7055ZM55.6315 74.9038C55.6315 75.0104 55.5889 75.117 55.5036 75.2129C55.4076 75.3089 55.301 75.3515 55.1731 75.3515C55.0451 75.3515 54.9279 75.3089 54.8319 75.2129C54.736 75.117 54.6826 75.0104 54.6826 74.8824C54.6826 74.7652 54.7253 74.6585 54.8212 74.5732C54.9172 74.4773 55.0238 74.4347 55.1624 74.4347C55.2797 74.4347 55.3863 74.4773 55.4822 74.5626C55.5782 74.6479 55.6208 74.7652 55.6208 74.9038H55.6315Z" fill="#264C96"/>
<path d="M57.4963 80.6502C57.4963 80.7568 57.4537 80.8634 57.3577 80.9594C57.2618 81.0553 57.1552 81.098 57.0166 81.098C56.8993 81.098 56.782 81.0553 56.6861 80.97C56.5901 80.8847 56.5369 80.7781 56.5369 80.6395C56.5369 80.5116 56.5795 80.405 56.6861 80.3303C56.782 80.2451 56.8887 80.1917 57.006 80.1917C57.1232 80.1917 57.2405 80.2344 57.3471 80.3197C57.443 80.405 57.4857 80.5223 57.4857 80.6502H57.4963ZM58.989 79.4455C58.6798 79.4455 58.4346 79.3708 58.2427 79.2216C58.0401 79.3708 57.7949 79.4455 57.507 79.4455H56.5902V78.7738H57.3045C57.6776 78.7738 57.8695 78.5819 57.8695 78.1874V77.4198L57.7096 76.4496L58.6264 76.2577V78.1874C58.6264 78.5819 58.8077 78.7738 59.1809 78.7738H59.5753V79.4455H58.9996H58.989ZM58.7118 80.6502C58.7118 80.7675 58.6691 80.8634 58.5732 80.9594C58.4772 81.0553 58.3706 81.098 58.2427 81.098C58.1254 81.098 58.0081 81.0553 57.9122 80.97C57.8162 80.8847 57.7736 80.7781 57.7736 80.6395C57.7736 80.5116 57.8162 80.405 57.9122 80.3303C58.0081 80.2451 58.1147 80.1917 58.232 80.1917C58.3493 80.1917 58.4665 80.2344 58.5625 80.3197C58.6584 80.405 58.7011 80.5223 58.7011 80.6502H58.7118Z" fill="#264C96"/>
<path d="M61.7289 79.4452C61.4197 79.4452 61.1745 79.3705 60.9826 79.2213C60.78 79.3705 60.5348 79.4452 60.2469 79.4452H59.3301V78.7735H60.0444C60.4175 78.7735 60.5988 78.5816 60.5988 78.1871V77.4621L60.4495 76.492L61.3664 76.2894V78.1871C61.3664 78.5816 61.5476 78.7735 61.9208 78.7735H62.3046V79.4452H61.7289ZM60.844 75.5324C60.7267 75.5324 60.6094 75.4898 60.5135 75.4045C60.4175 75.3192 60.3642 75.2126 60.3642 75.074C60.3642 74.9461 60.4068 74.8395 60.5028 74.7648C60.5988 74.6795 60.716 74.6262 60.844 74.6262C60.9612 74.6262 61.0678 74.6689 61.1638 74.7542C61.2597 74.8395 61.3131 74.9567 61.3131 75.0847C61.3131 75.2126 61.2704 75.3192 61.1851 75.3938C61.0892 75.4791 60.9826 75.5324 60.844 75.5324Z" fill="#264C96"/>
<path d="M62.0918 79.4452V78.7735H66.4737V77.686C66.4737 77.1103 66.0472 76.8225 65.1729 76.8225H62.4757C62.7315 76.5879 62.9447 76.3747 63.126 76.1828L63.7017 75.6177C64.0535 75.2553 64.352 74.9247 64.5973 74.6262H65.6847L64.5973 75.5005L63.9149 76.1721H65.3435C65.9512 76.1721 66.4097 76.2894 66.7402 76.5346C67.0707 76.7798 67.2306 77.121 67.2306 77.5474V78.7628H67.9555V79.4345H62.0918V79.4452Z" fill="#264C96"/>
<path d="M74.0857 79.445C73.7872 79.445 73.5313 79.3704 73.3181 79.2211C73.1262 79.3704 72.8917 79.445 72.5931 79.445C72.1987 79.445 71.8468 79.3064 71.5696 79.0186C71.3671 79.3064 71.0579 79.445 70.6421 79.445C70.2476 79.445 69.9064 79.2957 69.6079 79.0079L69.4587 79.1678C69.2348 79.3597 68.9576 79.4557 68.6378 79.4557H67.7422V78.784H68.4459C68.819 78.784 69.0003 78.5921 69.0003 78.1976V76.7583L69.7679 76.5984V78.5495C69.9598 78.72 70.1837 78.8053 70.4395 78.8053C70.802 78.8053 70.9833 78.6134 70.9833 78.219V76.769L71.7402 76.6091V78.5388C71.9321 78.7307 72.1454 78.816 72.4013 78.816C72.7744 78.816 72.9556 78.6241 72.9556 78.2296V77.494L72.8063 76.5238L73.7232 76.3212V78.2296C73.7232 78.6134 73.9044 78.816 74.2776 78.816H74.5122V79.4876H74.107L74.0857 79.445Z" fill="#264C96"/>
<path d="M76.8354 78.3366C76.8354 78.6778 76.7395 78.955 76.5262 79.1469C76.3237 79.3494 76.0464 79.4454 75.6946 79.4454H74.2554V78.7737H75.5027C75.8759 78.7737 76.0678 78.5711 76.0678 78.1553V75.7779L75.9292 74.7864L76.8247 74.5731V78.3259L76.8354 78.3366Z" fill="#264C96"/>
<path d="M78.4785 75.6073V79.4454H77.7216V75.618L77.6042 74.6905L78.5638 74.6158L78.4892 75.6073H78.4785Z" fill="#264C96"/>
<path d="M84.6077 79.445C84.1919 79.445 83.7228 79.1891 83.2111 78.688L82.7953 78.2722L82.1343 78.72C81.8997 78.8799 81.7931 79.0612 81.7825 79.2957C81.7612 79.6902 81.9104 80.0207 82.2409 80.2979C82.5181 80.5325 82.8806 80.671 83.3497 80.7244L83.1258 81.0655C82.5714 81.0016 82.1236 80.8523 81.7718 80.6177C81.3134 80.3086 81.0681 79.8821 81.0255 79.3277C80.9935 78.8693 81.1961 78.5068 81.6119 78.2296C81.6545 78.1763 81.8784 78.0377 82.2729 77.7925L81.2601 76.8436C81.2601 76.5025 81.4413 76.2039 81.7931 75.9268C82.145 75.6496 82.5821 75.5216 83.0938 75.5216C83.6055 75.5216 84.0107 75.6602 84.3732 75.9374C84.7357 76.2146 84.9062 76.5131 84.9062 76.8543L83.339 77.9098L83.9254 78.4535C84.1493 78.6667 84.3731 78.7733 84.6184 78.7733H85.3114V79.445H84.5971H84.6077ZM84.0427 76.6304C83.8934 76.3532 83.5736 76.2146 83.0938 76.2146C82.9659 76.2146 82.8379 76.2146 82.742 76.2466L82.6567 76.2679C82.6567 76.2679 82.6034 76.2786 82.5821 76.2892C82.5288 76.2999 82.4861 76.3319 82.4541 76.3532C82.3795 76.3959 82.3049 76.4385 82.2302 76.5131C82.1769 76.5771 82.1343 76.6517 82.1236 76.737L82.8486 77.43L84.0427 76.6411V76.6304Z" fill="#264C96"/>
<path d="M85.9417 80.65C85.9417 80.7566 85.899 80.8632 85.8031 80.9592C85.7071 81.0551 85.6005 81.0978 85.462 81.0978C85.3447 81.0978 85.2274 81.0551 85.1315 80.9698C85.0355 80.8845 84.9822 80.7779 84.9822 80.6393C84.9822 80.5114 85.0248 80.4048 85.1315 80.3301C85.2274 80.2449 85.334 80.1915 85.4513 80.1915C85.5686 80.1915 85.6858 80.2342 85.7924 80.3195C85.8884 80.4048 85.9311 80.5221 85.9311 80.65H85.9417ZM87.3703 78.3578C87.3703 78.6883 87.2744 78.9442 87.0612 79.1467C86.8586 79.3386 86.5814 79.4346 86.2295 79.4346H85.0461V78.7629H86.0376C86.4108 78.7629 86.6027 78.571 86.6027 78.1766V77.4409L86.4641 76.4814L87.349 76.2895V78.3578H87.3703ZM87.1571 80.65C87.1571 80.7673 87.1144 80.8632 87.0185 80.9592C86.9225 81.0551 86.8159 81.0978 86.688 81.0978C86.56 81.0978 86.4534 81.0551 86.3468 80.9698C86.2508 80.8845 86.1976 80.7779 86.1976 80.6393C86.1976 80.5114 86.2402 80.4048 86.3468 80.3301C86.4427 80.2449 86.5494 80.1915 86.6773 80.1915C86.7946 80.1915 86.9118 80.2342 87.0078 80.3195C87.1037 80.4048 87.1464 80.5221 87.1464 80.65H87.1571Z" fill="#264C96"/>
<path d="M89.6732 79.1363C89.6732 80.1492 89.1188 80.8102 88.0207 81.1087L87.8608 80.8208C88.5645 80.6076 88.9163 80.1172 88.9163 79.3815V77.5051L88.7564 76.503L89.6732 76.3004V79.147V79.1363Z" fill="#264C96"/>
<path d="M91.5592 79.4452C91.2074 79.4452 90.9302 79.3492 90.7277 79.1573C90.5251 78.9547 90.4185 78.6882 90.4185 78.3364V75.7883L90.2905 74.8288L91.1861 74.6262V78.1551C91.1861 78.5709 91.3673 78.7735 91.7405 78.7735H92.1563V79.4452H91.5592Z" fill="#264C96"/>
<path d="M98.3191 79.4453C98.0206 79.4453 97.7647 79.3707 97.5514 79.2214C97.3595 79.3707 97.125 79.4453 96.8265 79.4453C96.432 79.4453 96.0802 79.3067 95.803 79.0189C95.6004 79.3067 95.2912 79.4453 94.8754 79.4453C94.481 79.4453 94.1398 79.2961 93.8413 79.0082L93.692 79.1681C93.4682 79.36 93.1909 79.456 92.8711 79.456H91.9756V78.7843H92.6792C93.0524 78.7843 93.2336 78.5924 93.2336 78.198V76.7587L94.0012 76.5988V78.5498C94.1931 78.7204 94.417 78.8056 94.6729 78.8056C95.0354 78.8056 95.2166 78.6137 95.2166 78.2193V76.7693L95.9736 76.6094V78.5391C96.1655 78.731 96.3787 78.8163 96.6346 78.8163C97.0077 78.8163 97.189 78.6244 97.189 78.2299V77.4943L97.0397 76.5241L97.9566 76.3215V78.2299C97.9566 78.6137 98.1378 78.8163 98.511 78.8163H98.7455V79.488H98.3404L98.3191 79.4453ZM95.3659 75.0848C95.3659 75.2128 95.3232 75.3194 95.2273 75.394C95.1313 75.4793 95.0247 75.5326 94.8968 75.5326C94.7795 75.5326 94.6622 75.49 94.5556 75.4047C94.4597 75.3194 94.4063 75.2128 94.4063 75.0742C94.4063 74.9462 94.449 74.8396 94.5556 74.765C94.6516 74.6797 94.7582 74.6264 94.8861 74.6264C95.0034 74.6264 95.1207 74.6691 95.2166 74.7543C95.3126 74.8396 95.3552 74.9569 95.3552 75.0848H95.3659ZM95.9736 73.9227C95.9736 74.04 95.9309 74.1466 95.835 74.2319C95.739 74.3172 95.6324 74.3705 95.5045 74.3705C95.3872 74.3705 95.2699 74.3279 95.174 74.2426C95.078 74.1573 95.0354 74.0507 95.0354 73.9227C95.0354 73.7948 95.078 73.6882 95.174 73.6029C95.2699 73.507 95.3765 73.4643 95.4938 73.4643C95.6218 73.4643 95.739 73.507 95.835 73.6029C95.9203 73.6882 95.9629 73.7948 95.9629 73.9334L95.9736 73.9227ZM96.1122 75.5326C95.9949 75.5326 95.8776 75.49 95.7817 75.4047C95.6857 75.3194 95.6324 75.2128 95.6324 75.0742C95.6324 74.9462 95.6751 74.8396 95.7817 74.765C95.8776 74.6797 95.9842 74.6264 96.1015 74.6264C96.2188 74.6264 96.3361 74.6691 96.4427 74.7543C96.5386 74.8503 96.592 74.9569 96.592 75.0848C96.592 75.2128 96.5493 75.3194 96.4534 75.394C96.3574 75.4793 96.2508 75.5326 96.1122 75.5326Z" fill="#264C96"/>
<path d="M102.957 79.4452C102.659 79.4452 102.424 79.3706 102.232 79.2107C101.859 79.6478 101.4 79.861 100.878 79.861C100.452 79.861 100.121 79.6691 99.8973 79.3066C99.7267 79.3919 99.5348 79.4452 99.3216 79.4452H98.522V78.7736H99.1083C99.4495 78.7736 99.6307 78.6137 99.6414 78.2832C99.6627 77.7394 99.844 77.3236 100.174 77.0145C100.505 76.7053 100.963 76.556 101.55 76.556C101.891 76.556 102.275 76.62 102.669 76.7266L102.573 77.5049V78.1765C102.573 78.571 102.754 78.7629 103.128 78.7629H103.511V79.4346H102.957V79.4452ZM101.816 77.5475L101.752 77.1317C101.656 77.0891 101.539 77.0784 101.379 77.0784C100.74 77.0784 100.409 77.4622 100.409 78.2512C100.409 78.5604 100.473 78.8162 100.59 78.9868C100.718 79.168 100.867 79.2533 101.049 79.2533C101.337 79.2533 101.582 79.1361 101.795 78.9122V77.5475H101.816Z" fill="#264C96"/>
<path d="M105.856 78.3366C105.856 78.6778 105.76 78.955 105.547 79.1469C105.345 79.3494 105.068 79.4454 104.716 79.4454H103.276V78.7737H104.524C104.897 78.7737 105.089 78.5711 105.089 78.1553V75.7779L104.95 74.7864L105.846 74.5731V78.3259L105.856 78.3366Z" fill="#264C96"/>
<path d="M107.488 75.6073V79.4454H106.731V75.618L106.613 74.6905L107.573 74.6158L107.498 75.6073H107.488Z" fill="#264C96"/>
<path d="M113.362 79.4455C112.957 79.4455 112.637 79.3175 112.392 79.0617C112.136 79.2003 111.806 79.2749 111.401 79.2749C110.985 79.2749 110.665 79.147 110.43 78.8911C110.196 78.6352 110.079 78.2727 110.079 77.8143C110.079 77.3239 110.239 76.9401 110.569 76.6522C110.91 76.3537 111.347 76.2044 111.87 76.2044H112.126L112.072 75.8633C112.413 75.778 112.712 75.714 112.989 75.6607V78.1661C112.989 78.5713 113.17 78.7738 113.544 78.7738H114.034V79.4455H113.362ZM111.667 74.9038C111.667 75.0104 111.625 75.117 111.539 75.2129C111.443 75.3089 111.337 75.3515 111.209 75.3515C111.081 75.3515 110.963 75.3089 110.868 75.2129C110.772 75.1276 110.729 75.0104 110.729 74.8824C110.729 74.7652 110.772 74.6585 110.868 74.5732C110.963 74.4773 111.07 74.4347 111.198 74.4347C111.315 74.4347 111.433 74.4773 111.529 74.5626C111.614 74.6479 111.656 74.7652 111.656 74.9038H111.667ZM111.827 76.7055C111.55 76.7055 111.326 76.8121 111.145 76.9934C110.953 77.1853 110.857 77.4092 110.857 77.6864C110.857 78.3367 111.091 78.6672 111.561 78.6672C111.795 78.6672 112.008 78.6352 112.232 78.5819V76.6949H111.827V76.7055ZM112.893 74.9038C112.893 75.0104 112.851 75.117 112.765 75.2129C112.669 75.3089 112.563 75.3515 112.435 75.3515C112.307 75.3515 112.19 75.3089 112.094 75.2129C111.998 75.117 111.944 75.0104 111.944 74.8824C111.944 74.7652 111.987 74.6585 112.083 74.5732C112.179 74.4773 112.286 74.4347 112.424 74.4347C112.541 74.4347 112.648 74.4773 112.744 74.5626C112.84 74.6479 112.883 74.7652 112.883 74.9038H112.893Z" fill="#264C96"/>
<path d="M113.821 79.4452V78.7735H118.213V77.686C118.213 77.1103 117.787 76.8225 116.913 76.8225H114.205L114.866 76.1828C115.1 75.9696 115.292 75.767 115.431 75.6177C115.783 75.2553 116.081 74.9247 116.326 74.6262H117.425L116.337 75.5005L115.644 76.1721H117.073C117.68 76.1721 118.149 76.2894 118.469 76.5346C118.8 76.7798 118.96 77.121 118.96 77.5474V79.4452H113.81H113.821Z" fill="#264C96"/>
<path d="M121.412 79.4453C121.252 79.4453 121.124 79.4346 121.028 79.3919C120.932 80.2555 120.389 80.8312 119.386 81.0978L119.216 80.8099C119.93 80.5967 120.282 80.1169 120.282 79.3706V77.4942L120.122 76.4921L121.039 76.2895V78.1552C121.039 78.571 121.22 78.7736 121.593 78.7736H122.02V79.4453H121.401H121.412Z" fill="#264C96"/>
<path d="M127.787 78.3579C127.787 78.6884 127.691 78.9442 127.488 79.1468C127.286 79.3494 127.009 79.4453 126.678 79.4453C126.273 79.4453 125.932 79.3067 125.644 79.0189C125.442 79.3067 125.132 79.4453 124.717 79.4453C124.322 79.4453 123.97 79.2961 123.672 78.9976L123.522 79.1575C123.32 79.3494 123.043 79.4453 122.702 79.4453H121.817V78.7737H122.52C122.883 78.7737 123.064 78.5818 123.075 78.1873V76.748L123.842 76.5881V78.5285C124.034 78.699 124.269 78.795 124.525 78.795C124.887 78.795 125.068 78.6031 125.068 78.2086V76.7587L125.815 76.5988V78.5285C126.007 78.7204 126.22 78.8056 126.476 78.8056C126.838 78.8056 127.019 78.6138 127.019 78.2193V77.4836L126.881 76.5135L127.787 76.3109V78.3899V78.3579ZM124.738 75.5326C124.621 75.5326 124.503 75.49 124.407 75.4047C124.311 75.3194 124.258 75.2128 124.258 75.0742C124.258 74.9462 124.301 74.8396 124.397 74.765C124.493 74.6797 124.61 74.6264 124.738 74.6264C124.855 74.6264 124.962 74.6691 125.058 74.7543C125.154 74.8396 125.207 74.9569 125.207 75.0848C125.207 75.2128 125.164 75.3194 125.079 75.394C124.983 75.4793 124.876 75.5326 124.738 75.5326ZM125.346 74.3705C125.218 74.3705 125.111 74.3279 125.026 74.2426C124.93 74.1573 124.887 74.0507 124.887 73.9227C124.887 73.8055 124.93 73.6989 125.015 73.6029C125.111 73.507 125.218 73.4643 125.346 73.4643C125.484 73.4643 125.591 73.507 125.676 73.6029C125.772 73.6882 125.815 73.8055 125.815 73.9334C125.815 74.0507 125.772 74.1466 125.687 74.2426C125.591 74.3279 125.484 74.3812 125.346 74.3812V74.3705ZM125.964 75.5326C125.847 75.5326 125.74 75.49 125.644 75.4047C125.548 75.3194 125.495 75.2128 125.495 75.0742C125.495 74.9462 125.537 74.8396 125.633 74.765C125.729 74.6797 125.847 74.6264 125.964 74.6264C126.081 74.6264 126.198 74.6691 126.294 74.7543C126.39 74.8396 126.444 74.9569 126.444 75.0848C126.444 75.2128 126.401 75.3194 126.305 75.394C126.209 75.4793 126.103 75.5326 125.964 75.5326Z" fill="#264C96"/>
<path d="M2.35618 88.7418L1.51389 86.6628H0.511723V88.7418H0V84.1361H1.41798C1.66319 84.1361 1.86572 84.1681 2.04696 84.232C2.21754 84.296 2.36683 84.3813 2.47344 84.4879C2.59071 84.5945 2.66532 84.7224 2.71863 84.8717C2.77194 85.021 2.80394 85.1809 2.80394 85.3515C2.80394 85.6606 2.72931 85.9165 2.60137 86.1298C2.46277 86.343 2.27088 86.4922 2.01501 86.5775L2.94254 88.7311H2.35618V88.7418ZM2.27087 85.3941C2.27087 85.1702 2.19623 84.989 2.05763 84.8397C1.90837 84.6905 1.68452 84.6158 1.36468 84.6158H0.511723V86.2257H1.50329C1.64188 86.2257 1.75911 86.2044 1.85506 86.1511C1.95101 86.1084 2.03635 86.0445 2.10032 85.9592C2.16429 85.8739 2.20694 85.7886 2.23892 85.6926C2.2709 85.5967 2.28154 85.4901 2.28154 85.3834L2.27087 85.3941Z" fill="#717677"/>
<path d="M3.99788 87.1C3.99788 87.3132 4.02988 87.4944 4.08319 87.6544C4.13649 87.8143 4.21114 87.9422 4.29643 88.0595C4.38172 88.1661 4.4883 88.2514 4.59491 88.3047C4.70152 88.358 4.81882 88.39 4.94675 88.39C5.10667 88.39 5.26661 88.3473 5.42653 88.2727C5.58645 88.1981 5.73571 88.0488 5.89563 87.8463L6.22613 88.1661C6.04488 88.4113 5.85293 88.5819 5.6397 88.6778C5.42647 88.7738 5.19194 88.8271 4.92541 88.8271C4.73351 88.8271 4.54165 88.7845 4.37106 88.7098C4.20048 88.6352 4.05118 88.5179 3.92324 88.3687C3.7953 88.2194 3.68871 88.0275 3.61409 87.8036C3.53946 87.5797 3.49683 87.3239 3.49683 87.0253C3.49683 86.7268 3.52878 86.4923 3.60341 86.2684C3.66738 86.0445 3.77402 85.8633 3.89129 85.714C4.01923 85.5647 4.1578 85.4475 4.32838 85.3622C4.49896 85.2769 4.68021 85.2449 4.87212 85.2449C5.12799 85.2449 5.35186 85.2982 5.52244 85.4155C5.70368 85.5328 5.84231 85.6713 5.94892 85.8526C6.05553 86.0338 6.13013 86.2257 6.18344 86.4496C6.23675 86.6735 6.25808 86.8867 6.25808 87.1H3.99788ZM5.74635 86.7161C5.71437 86.3963 5.62908 86.1405 5.47982 85.9485C5.33056 85.7566 5.128 85.6607 4.88279 85.6607C4.63758 85.6607 4.44569 85.7566 4.29643 85.9592C4.13651 86.1511 4.05121 86.407 4.01922 86.7161H5.74635Z" fill="#717677"/>
<path d="M9.06283 87.7609C9.06283 87.9315 9.03088 88.0914 8.96692 88.2194C8.90295 88.3473 8.81766 88.4646 8.70038 88.5499C8.59377 88.6352 8.46578 88.6991 8.31652 88.7524C8.16727 88.8058 8.02869 88.8164 7.86877 88.8164C7.64488 88.8164 7.43168 88.7738 7.22911 88.6778C7.02655 88.5819 6.8453 88.4539 6.69604 88.2727L6.97319 87.9528C7.11178 88.0914 7.25042 88.1981 7.41034 88.2727C7.57026 88.3473 7.71951 88.3793 7.86877 88.3793C7.95406 88.3793 8.03934 88.3686 8.12463 88.3367C8.20992 88.3047 8.28457 88.2727 8.34854 88.2194C8.41251 88.1661 8.46578 88.1128 8.50842 88.0381C8.55107 87.9635 8.57239 87.8889 8.57239 87.8036C8.57239 87.6437 8.51911 87.5157 8.40183 87.4411C8.28456 87.3558 8.13532 87.2812 7.95408 87.2066L7.60223 87.068C7.48496 87.0253 7.37837 86.972 7.29308 86.9187C7.19713 86.8654 7.12245 86.8014 7.04782 86.7375C6.98385 86.6628 6.93059 86.5882 6.88794 86.4922C6.8453 86.3963 6.83465 86.2897 6.83465 86.1617C6.83465 86.0232 6.85591 85.8952 6.90922 85.7886C6.96253 85.6713 7.02651 85.5754 7.12246 85.4794C7.21841 85.3835 7.3357 85.3302 7.4743 85.2769C7.6129 85.2342 7.77284 85.2022 7.96475 85.2022C8.16731 85.2022 8.35919 85.2449 8.54044 85.3195C8.72168 85.3941 8.88162 85.5221 9.03088 85.6926L8.75368 86.0125C8.62574 85.8632 8.48714 85.7673 8.34854 85.714C8.20994 85.6607 8.08201 85.6287 7.95408 85.6287C7.86878 85.6287 7.79411 85.6287 7.70882 85.6607C7.63419 85.682 7.57022 85.714 7.50625 85.746C7.45295 85.7886 7.3997 85.8312 7.36771 85.8952C7.33573 85.9592 7.31436 86.0232 7.31436 86.0978C7.31436 86.2257 7.35702 86.3217 7.46363 86.3963C7.55958 86.4709 7.6875 86.5349 7.84742 86.5989L8.18859 86.7375C8.31653 86.7908 8.42315 86.8441 8.52976 86.8974C8.63638 86.9507 8.72168 87.0146 8.80697 87.0893C8.8816 87.1639 8.94556 87.2492 8.99887 87.3558C9.04151 87.4624 9.0735 87.5904 9.0735 87.729L9.06283 87.7609Z" fill="#717677"/>
<path d="M9.73364 84.5734V84.0616H10.256V84.5734H9.73364ZM9.75499 88.742V85.2984H10.2454V88.742H9.75499Z" fill="#717677"/>
<path d="M13.2313 88.742V88.3048C13.1033 88.4861 12.9647 88.614 12.8155 88.6886C12.6556 88.7633 12.485 88.8059 12.2931 88.8059C12.1012 88.8059 11.9305 88.7633 11.7706 88.678C11.6107 88.5927 11.4722 88.4754 11.3549 88.3155C11.2376 88.1556 11.1416 87.9743 11.0777 87.7504C11.0137 87.5266 10.9817 87.2814 10.9817 87.0148C10.9817 86.7483 11.0137 86.4924 11.0777 86.2685C11.1416 86.0446 11.2376 85.8634 11.3549 85.7035C11.4722 85.5436 11.6107 85.4263 11.7706 85.341C11.9305 85.2557 12.1012 85.2131 12.2931 85.2131C12.4956 85.2131 12.6768 85.2557 12.8368 85.3303C12.986 85.4156 13.1247 85.5222 13.2313 85.6608V84.0403H13.7217V88.7313H13.2419L13.2313 88.742ZM13.2206 86.1086C13.0927 85.9807 12.9647 85.8847 12.8368 85.7994C12.7088 85.7141 12.5489 85.6715 12.3783 85.6715C12.2397 85.6715 12.1118 85.7035 12.0052 85.7674C11.8986 85.8314 11.8026 85.9274 11.728 86.0446C11.6534 86.1619 11.5894 86.3112 11.5468 86.4711C11.5041 86.6417 11.4828 86.8229 11.4828 87.0255C11.4828 87.228 11.5041 87.3986 11.5468 87.5586C11.5894 87.7185 11.6427 87.8677 11.728 87.985C11.8026 88.1023 11.8986 88.1982 12.0052 88.2622C12.1118 88.3262 12.2397 88.3582 12.3783 88.3582C12.5382 88.3582 12.6875 88.3155 12.8261 88.2302C12.9647 88.1449 13.0927 88.0276 13.2206 87.8677V86.098V86.1086Z" fill="#717677"/>
<path d="M14.9151 87.1C14.9151 87.3132 14.9471 87.4944 15.0004 87.6544C15.0537 87.8143 15.1284 87.9422 15.2137 88.0595C15.299 88.1661 15.4055 88.2514 15.5121 88.3047C15.6188 88.358 15.7361 88.39 15.864 88.39C16.0239 88.39 16.1838 88.3473 16.3438 88.2727C16.5037 88.1981 16.6529 88.0488 16.8129 87.8463L17.1434 88.1661C16.9621 88.4113 16.7702 88.5819 16.557 88.6778C16.3438 88.7738 16.1092 88.8271 15.8426 88.8271C15.6507 88.8271 15.4589 88.7845 15.2883 88.7098C15.1177 88.6352 14.9684 88.5179 14.8405 88.3687C14.7125 88.2194 14.606 88.0275 14.5313 87.8036C14.4567 87.5797 14.4141 87.3239 14.4141 87.0253C14.4141 86.7268 14.446 86.4923 14.5206 86.2684C14.5846 86.0445 14.6913 85.8633 14.8085 85.714C14.9365 85.5647 15.075 85.4475 15.2456 85.3622C15.4162 85.2769 15.5974 85.2449 15.7894 85.2449C16.0452 85.2449 16.2691 85.2982 16.4397 85.4155C16.6103 85.5328 16.7595 85.6713 16.8662 85.8526C16.9728 86.0338 17.0474 86.2257 17.1007 86.4496C17.154 86.6735 17.1753 86.8867 17.1753 87.1H14.9151ZM16.6636 86.7161C16.6316 86.3963 16.5463 86.1405 16.3971 85.9485C16.2478 85.7566 16.0452 85.6607 15.8 85.6607C15.5548 85.6607 15.3629 85.7566 15.2137 85.9592C15.0537 86.1511 14.9684 86.407 14.9365 86.7161H16.6636Z" fill="#717677"/>
<path d="M19.8833 88.7421V86.4072C19.8833 86.1834 19.8407 86.0128 19.7554 85.8848C19.6701 85.7569 19.5208 85.7036 19.297 85.7036C19.1477 85.7036 18.9878 85.7462 18.8279 85.8209C18.6679 85.8955 18.5186 86.0021 18.38 86.1194V88.7421H17.8896V85.2985H18.3587V85.6929C18.508 85.5757 18.6679 85.469 18.8385 85.3731C19.009 85.2771 19.201 85.2345 19.4142 85.2345C19.7234 85.2345 19.9579 85.3305 20.1285 85.5117C20.2991 85.6929 20.3737 85.9488 20.3737 86.2686V88.7527H19.8833V88.7421Z" fill="#717677"/>
<path d="M22.3787 88.8059C22.3041 88.8059 22.2401 88.8165 22.1762 88.8165C22.0163 88.8165 21.8777 88.7952 21.771 88.7632C21.6644 88.7313 21.5791 88.6673 21.5152 88.5927C21.4512 88.518 21.4086 88.4221 21.3872 88.3048C21.3659 88.1875 21.3553 88.0489 21.3553 87.889V85.7354H20.8435V85.309H21.3553V84.5307L21.8457 84.2642V85.309H22.5706V85.7354H21.8457V87.8783C21.8457 88.0596 21.8777 88.1982 21.931 88.2728C21.995 88.3474 22.0909 88.3901 22.2401 88.3901C22.2934 88.3901 22.3468 88.3901 22.4108 88.3794C22.4747 88.3794 22.528 88.3581 22.5706 88.3474V88.7845C22.5173 88.7952 22.4534 88.8059 22.3787 88.8165V88.8059Z" fill="#717677"/>
<path d="M23.1877 84.5734V84.0616H23.7101V84.5734H23.1877ZM23.2091 88.742V85.2984H23.6995V88.742H23.2091Z" fill="#717677"/>
<path d="M26.397 88.7421V88.3476C26.2264 88.5075 26.0559 88.6248 25.8853 88.6994C25.7147 88.7741 25.5441 88.806 25.3522 88.806C25.203 88.806 25.0644 88.7847 24.9364 88.7314C24.8191 88.6781 24.7126 88.6141 24.6273 88.5182C24.542 88.4329 24.4779 88.3263 24.4353 88.209C24.3927 88.0917 24.3713 87.9638 24.3713 87.8359C24.3713 87.6333 24.4034 87.4521 24.478 87.3135C24.5526 87.1749 24.6485 87.0576 24.7871 86.9723C24.9257 86.8763 25.0857 86.8124 25.2883 86.7591C25.4908 86.7058 25.7147 86.6631 25.9705 86.6311L26.365 86.5778V86.3859C26.365 86.2473 26.3437 86.1301 26.301 86.0448C26.2584 85.9488 26.2051 85.8742 26.1412 85.8209C26.0772 85.7676 26.0025 85.7249 25.9172 85.6929C25.832 85.6716 25.7467 85.661 25.6614 85.661C25.4801 85.661 25.3096 85.7036 25.1603 85.7782C25.0111 85.8529 24.8618 85.9701 24.7125 86.1194L24.446 85.7782C24.8085 85.4157 25.2136 85.2345 25.6721 85.2345C25.8533 85.2345 26.0132 85.2558 26.1518 85.3091C26.2904 85.3624 26.4183 85.4371 26.5249 85.533C26.6316 85.629 26.7062 85.7462 26.7701 85.8955C26.8341 86.0448 26.8554 86.2047 26.8554 86.3859V88.7527H26.3757L26.397 88.7421ZM26.3757 86.951L26.1091 86.9829C25.8746 87.0149 25.672 87.0576 25.5228 87.1002C25.3735 87.1429 25.2456 87.2068 25.1497 87.2708C25.0537 87.3348 24.9897 87.4201 24.9578 87.5054C24.9151 87.6013 24.9044 87.6973 24.9044 87.8145C24.9044 87.9745 24.9577 88.1131 25.0644 88.2197C25.171 88.3263 25.3095 88.3796 25.5014 88.3796C25.6614 88.3796 25.8107 88.3476 25.9493 88.273C26.0879 88.1983 26.2371 88.0917 26.397 87.9425V86.9403L26.3757 86.951Z" fill="#717677"/>
<path d="M27.7202 88.7417V84.0507H28.2107V88.7417H27.7202Z" fill="#717677"/>
<path d="M33.1455 85.4794C33.1455 85.6713 33.1135 85.8526 33.0602 86.0231C33.0069 86.1937 32.9216 86.3323 32.815 86.4603C32.7084 86.5775 32.5805 86.6735 32.4206 86.7481C32.2606 86.8227 32.09 86.8547 31.8981 86.8547H30.8853V88.7418H30.3735V84.1361H31.7808C32.0261 84.1361 32.2393 84.1787 32.4099 84.2533C32.5805 84.328 32.7297 84.4346 32.8363 84.5519C32.9429 84.6798 33.0283 84.8184 33.0816 84.9783C33.1349 85.1382 33.1562 85.3088 33.1562 85.4794H33.1455ZM32.6231 85.5007C32.6231 85.3834 32.6018 85.2768 32.5698 85.1596C32.5378 85.053 32.4845 84.957 32.4099 84.8717C32.3353 84.7864 32.2393 84.7225 32.1327 84.6798C32.0154 84.6265 31.8875 84.6052 31.7275 84.6052H30.8959V86.4069H31.8448C31.9834 86.4069 32.1007 86.3856 32.1966 86.3323C32.2926 86.279 32.3779 86.215 32.4418 86.1298C32.5058 86.0445 32.5591 85.9485 32.5804 85.8419C32.6124 85.7353 32.6231 85.618 32.6231 85.5007Z" fill="#717677"/>
<path d="M35.3962 85.8315C35.3962 85.8315 35.3003 85.7782 35.2576 85.7676C35.215 85.7569 35.1617 85.7462 35.0871 85.7462C35.0125 85.7462 34.9485 85.7569 34.8739 85.7889C34.7992 85.8209 34.7352 85.8635 34.6606 85.9168C34.586 85.9701 34.522 86.0341 34.458 86.0981C34.3941 86.1727 34.3301 86.2473 34.2768 86.322V88.7421H33.7864V85.2985H34.2662V85.8315C34.3195 85.7569 34.3727 85.6823 34.4367 85.6183C34.5007 85.5437 34.5753 85.4797 34.6499 85.4264C34.7246 85.3731 34.8098 85.3198 34.8951 85.2878C34.9804 85.2558 35.0657 85.2345 35.1617 85.2345C35.2576 85.2345 35.3323 85.2345 35.3962 85.2558C35.4709 85.2771 35.5348 85.2985 35.5988 85.3518L35.3856 85.8315H35.3962Z" fill="#717677"/>
<path d="M38.8283 87.0256C38.8283 87.3028 38.7964 87.548 38.7217 87.7719C38.6471 87.9958 38.5511 88.177 38.4232 88.3369C38.2952 88.4969 38.146 88.6141 37.9648 88.6888C37.7835 88.7741 37.5916 88.8167 37.3784 88.8167C37.1652 88.8167 36.9626 88.7741 36.792 88.6888C36.6108 88.6035 36.4615 88.4862 36.3336 88.3369C36.2057 88.177 36.1097 87.9958 36.0351 87.7719C35.9604 87.548 35.9285 87.3028 35.9285 87.0256C35.9285 86.7484 35.9604 86.5032 36.0351 86.29C36.1097 86.0767 36.2057 85.8848 36.3336 85.7249C36.4615 85.565 36.6108 85.4477 36.792 85.3624C36.9733 85.2771 37.1652 85.2345 37.3784 85.2345C37.5916 85.2345 37.7942 85.2771 37.9648 85.3624C38.146 85.4477 38.2952 85.565 38.4232 85.7249C38.5511 85.8848 38.6471 86.0661 38.7217 86.29C38.7964 86.5139 38.8283 86.7591 38.8283 87.0256ZM38.3166 87.0256C38.3166 86.823 38.2953 86.6418 38.2526 86.4712C38.21 86.3006 38.146 86.162 38.0607 86.0448C37.9754 85.9275 37.8795 85.8315 37.7622 85.7676C37.6449 85.7036 37.517 85.6716 37.3784 85.6716C37.2398 85.6716 37.1119 85.7036 36.9946 85.7676C36.8773 85.8315 36.7813 85.9275 36.6961 86.0448C36.6108 86.162 36.5575 86.3006 36.5042 86.4712C36.4615 86.6418 36.4402 86.823 36.4402 87.0256C36.4402 87.2282 36.4615 87.4094 36.5042 87.58C36.5468 87.7506 36.6108 87.8892 36.6961 88.0064C36.7813 88.1237 36.8773 88.2197 36.9946 88.2836C37.1119 88.3476 37.2398 88.3796 37.3784 88.3796C37.517 88.3796 37.6449 88.3476 37.7622 88.2836C37.8795 88.2197 37.9754 88.1237 38.0607 88.0064C38.146 87.8892 38.1993 87.7506 38.2526 87.58C38.2953 87.4094 38.3166 87.2282 38.3166 87.0256Z" fill="#717677"/>
<path d="M40.0652 88.9126C40.0652 89.2431 39.9905 89.4989 39.8413 89.7015C39.692 89.9041 39.4575 90 39.127 90C39.0097 90 38.8924 89.9787 38.7751 89.9467C38.6579 89.9147 38.5513 89.8721 38.4553 89.8081L38.6153 89.435C38.7006 89.4776 38.7858 89.5096 38.8605 89.5309C38.9457 89.5522 39.0203 89.5629 39.095 89.5629C39.2442 89.5629 39.3615 89.5096 39.4468 89.3923C39.5321 89.2857 39.5641 89.1044 39.5641 88.8486V85.2877H40.0545V88.9019L40.0652 88.9126ZM39.5641 84.5734V84.0616H40.0865V84.5734H39.5641Z" fill="#717677"/>
<path d="M41.2908 87.1C41.2908 87.3132 41.3228 87.4944 41.3762 87.6544C41.4295 87.8143 41.5041 87.9422 41.5894 88.0595C41.6747 88.1661 41.7813 88.2514 41.8879 88.3047C41.9945 88.358 42.1118 88.39 42.2397 88.39C42.3996 88.39 42.5596 88.3473 42.7195 88.2727C42.8794 88.1981 43.0287 88.0488 43.1886 87.8463L43.5191 88.1661C43.3379 88.4113 43.146 88.5819 42.9327 88.6778C42.7195 88.7738 42.485 88.8271 42.2184 88.8271C42.0265 88.8271 41.8346 88.7845 41.664 88.7098C41.4935 88.6352 41.3442 88.5179 41.2163 88.3687C41.0883 88.2194 40.9817 88.0275 40.9071 87.8036C40.8324 87.5797 40.7898 87.3239 40.7898 87.0253C40.7898 86.7268 40.8218 86.4923 40.8964 86.2684C40.9604 86.0445 41.067 85.8633 41.1843 85.714C41.3122 85.5647 41.4508 85.4475 41.6213 85.3622C41.7919 85.2769 41.9732 85.2449 42.1651 85.2449C42.421 85.2449 42.6449 85.2982 42.8155 85.4155C42.9861 85.5328 43.1353 85.6713 43.2419 85.8526C43.3485 86.0338 43.4232 86.2257 43.4765 86.4496C43.5298 86.6735 43.5511 86.8867 43.5511 87.1H41.2908ZM43.0393 86.7161C43.0073 86.3963 42.922 86.1405 42.7728 85.9485C42.6235 85.7566 42.421 85.6607 42.1758 85.6607C41.9305 85.6607 41.7387 85.7566 41.5894 85.9592C41.4295 86.1511 41.3442 86.407 41.3122 86.7161H43.0393Z" fill="#717677"/>
<path d="M46.5904 88.3369C46.5051 88.4329 46.4091 88.5075 46.3132 88.5821C46.2066 88.6568 46.0999 88.7101 45.972 88.7527C45.8441 88.7954 45.7055 88.8167 45.5562 88.8167C45.3536 88.8167 45.1618 88.7741 44.9805 88.6888C44.8099 88.6035 44.65 88.4862 44.5221 88.3369C44.3941 88.1877 44.2982 87.9958 44.2235 87.7719C44.1489 87.548 44.1169 87.3028 44.1169 87.0256C44.1169 86.7484 44.1489 86.5032 44.2235 86.29C44.2982 86.0661 44.3941 85.8848 44.5221 85.7249C44.65 85.565 44.7993 85.4477 44.9805 85.3624C45.1618 85.2771 45.3536 85.2345 45.5669 85.2345C45.8334 85.2345 46.068 85.2985 46.2706 85.4264C46.4731 85.5543 46.6437 85.7356 46.7823 85.9701L46.4304 86.2367C46.3345 86.0661 46.2173 85.9382 46.0787 85.8315C45.9401 85.7249 45.7801 85.6716 45.5775 85.6716C45.4496 85.6716 45.3217 85.7036 45.2151 85.7569C45.1085 85.8102 45.0018 85.9062 44.9165 86.0128C44.8313 86.1301 44.7673 86.2686 44.714 86.4392C44.6713 86.6098 44.6393 86.8124 44.6393 87.0363C44.6393 87.2388 44.6607 87.4201 44.7033 87.58C44.7459 87.7399 44.8099 87.8785 44.8952 87.9958C44.9805 88.1131 45.0765 88.1984 45.1937 88.2623C45.311 88.3263 45.4389 88.3583 45.5775 88.3583C45.6842 88.3583 45.7801 88.3369 45.8654 88.305C45.9507 88.273 46.036 88.2197 46.1106 88.1664C46.1852 88.1131 46.2492 88.0384 46.3132 87.9638C46.3771 87.8892 46.4411 87.8145 46.4944 87.7293L46.8249 88.0278C46.7609 88.1344 46.6757 88.2303 46.5904 88.3263V88.3369Z" fill="#717677"/>
<path d="M48.5831 88.8059C48.5085 88.8059 48.4445 88.8165 48.3805 88.8165C48.2206 88.8165 48.082 88.7952 47.9754 88.7632C47.8688 88.7313 47.7835 88.6673 47.7195 88.5927C47.6556 88.518 47.6129 88.4221 47.5916 88.3048C47.5703 88.1875 47.5596 88.0489 47.5596 87.889V85.7354H47.0479V85.309H47.5596V84.5307L48.05 84.2642V85.309H48.775V85.7354H48.05V87.8783C48.05 88.0596 48.082 88.1982 48.1353 88.2728C48.1993 88.3474 48.2952 88.3901 48.4445 88.3901C48.4978 88.3901 48.5511 88.3901 48.6151 88.3794C48.6791 88.3794 48.7323 88.3581 48.775 88.3474V88.7845C48.7217 88.7952 48.6577 88.8059 48.5831 88.8165V88.8059Z" fill="#717677"/>
<path d="M51.483 87.7609C51.483 87.9315 51.451 88.0914 51.3871 88.2194C51.3231 88.3473 51.2378 88.4646 51.1205 88.5499C51.0139 88.6352 50.886 88.6991 50.7368 88.7524C50.5875 88.8058 50.4489 88.8164 50.2889 88.8164C50.065 88.8164 49.8518 88.7738 49.6493 88.6778C49.4467 88.5819 49.2655 88.4539 49.1162 88.2727L49.3934 87.9528C49.532 88.0914 49.6706 88.1981 49.8305 88.2727C49.9904 88.3473 50.1397 88.3793 50.2889 88.3793C50.3742 88.3793 50.4596 88.3686 50.5449 88.3367C50.6301 88.3047 50.7047 88.2727 50.7687 88.2194C50.8327 88.1661 50.886 88.1128 50.9287 88.0381C50.9713 87.9635 50.9926 87.8889 50.9926 87.8036C50.9926 87.6437 50.9393 87.5157 50.822 87.4411C50.7047 87.3558 50.5555 87.2812 50.3742 87.2066L50.0224 87.068C49.9051 87.0253 49.7985 86.972 49.7132 86.9187C49.6173 86.8654 49.5427 86.8014 49.4681 86.7375C49.4041 86.6628 49.3508 86.5882 49.3081 86.4922C49.2655 86.3963 49.2548 86.2897 49.2548 86.1617C49.2548 86.0232 49.2761 85.8952 49.3295 85.7886C49.3828 85.6713 49.4467 85.5754 49.5427 85.4794C49.6386 85.3835 49.7559 85.3302 49.8945 85.2769C50.0331 85.2342 50.193 85.2022 50.3849 85.2022C50.5875 85.2022 50.7794 85.2449 50.9606 85.3195C51.1418 85.3941 51.3018 85.5221 51.451 85.6926L51.1738 86.0125C51.0459 85.8632 50.9073 85.7673 50.7687 85.714C50.6301 85.6607 50.5022 85.6287 50.3742 85.6287C50.289 85.6287 50.2143 85.6287 50.1291 85.6607C50.0544 85.682 49.9905 85.714 49.9265 85.746C49.8732 85.7886 49.8199 85.8312 49.7879 85.8952C49.7559 85.9592 49.7346 86.0232 49.7346 86.0978C49.7346 86.2257 49.7772 86.3217 49.8838 86.3963C49.9797 86.4709 50.1077 86.5349 50.2677 86.5989L50.6088 86.7375C50.7368 86.7908 50.8433 86.8441 50.9499 86.8974C51.0565 86.9507 51.1418 87.0146 51.2271 87.0893C51.3018 87.1639 51.3657 87.2492 51.419 87.3558C51.4617 87.4624 51.4937 87.5904 51.4937 87.729L51.483 87.7609Z" fill="#717677"/>
<path d="M55.8125 88.7418L54.9702 86.6628H53.968V88.7418H53.4563V84.1361H54.8743C55.1195 84.1361 55.322 84.1681 55.5033 84.232C55.6738 84.296 55.8231 84.3813 55.9297 84.4879C56.047 84.5945 56.1216 84.7224 56.1749 84.8717C56.2282 85.021 56.2602 85.1809 56.2602 85.3515C56.2602 85.6606 56.1963 85.9165 56.0577 86.1298C55.9191 86.343 55.7272 86.4922 55.4713 86.5775L56.3988 88.7311H55.8125V88.7418ZM55.7378 85.3941C55.7378 85.1702 55.6632 84.989 55.5139 84.8397C55.3647 84.6905 55.1408 84.6158 54.8209 84.6158H53.968V86.2257H54.9595C55.0981 86.2257 55.2154 86.2044 55.3114 86.1511C55.4073 86.1084 55.4926 86.0445 55.5566 85.9592C55.6205 85.8845 55.6632 85.7886 55.6952 85.6926C55.7271 85.5967 55.7378 85.4901 55.7378 85.3834V85.3941Z" fill="#717677"/>
<path d="M57.4638 87.1C57.4638 87.3132 57.4957 87.4944 57.549 87.6544C57.6023 87.8143 57.677 87.9422 57.7622 88.0595C57.8475 88.1661 57.9542 88.2514 58.0608 88.3047C58.1674 88.358 58.2846 88.39 58.4126 88.39C58.5725 88.39 58.7324 88.3473 58.8923 88.2727C59.0523 88.1981 59.2015 88.0488 59.3614 87.8463L59.6919 88.1661C59.5107 88.4113 59.3188 88.5819 59.1056 88.6778C58.8924 88.7738 58.6578 88.8271 58.3913 88.8271C58.1994 88.8271 58.0075 88.7845 57.8369 88.7098C57.6663 88.6352 57.5171 88.5179 57.3891 88.3687C57.2612 88.2194 57.1545 88.0275 57.0799 87.8036C57.0053 87.5797 56.9626 87.3239 56.9626 87.0253C56.9626 86.7268 56.9947 86.4923 57.0693 86.2684C57.1333 86.0445 57.2398 85.8633 57.3571 85.714C57.485 85.5647 57.6237 85.4475 57.7943 85.3622C57.9648 85.2769 58.1461 85.2449 58.338 85.2449C58.5939 85.2449 58.8177 85.2982 58.9883 85.4155C59.1589 85.5328 59.3081 85.6713 59.4147 85.8526C59.5214 86.0338 59.596 86.2257 59.6493 86.4496C59.7026 86.6735 59.724 86.8867 59.724 87.1H57.4638ZM59.2122 86.7161C59.1802 86.3963 59.0949 86.1405 58.9456 85.9485C58.7964 85.7566 58.5938 85.6607 58.3486 85.6607C58.1034 85.6607 57.9115 85.7566 57.7622 85.9592C57.6023 86.1511 57.517 86.407 57.485 86.7161H59.2122Z" fill="#717677"/>
<path d="M62.2518 88.7421V88.3476C62.0812 88.5075 61.9106 88.6248 61.74 88.6994C61.5694 88.7741 61.3989 88.806 61.207 88.806C61.0577 88.806 60.9191 88.7847 60.7912 88.7314C60.6739 88.6781 60.5672 88.6141 60.4819 88.5182C60.3966 88.4329 60.3327 88.3263 60.29 88.209C60.2474 88.0917 60.2261 87.9638 60.2261 87.8359C60.2261 87.6333 60.2581 87.4521 60.3327 87.3135C60.4074 87.1749 60.5033 87.0576 60.6419 86.9723C60.7805 86.8763 60.9404 86.8124 61.143 86.7591C61.3456 86.7058 61.5694 86.6631 61.8253 86.6311L62.2197 86.5778V86.3859C62.2197 86.2473 62.1984 86.1301 62.1558 86.0448C62.1131 85.9488 62.0599 85.8742 61.9959 85.8209C61.9319 85.7676 61.8573 85.7249 61.772 85.6929C61.6867 85.6716 61.6014 85.661 61.5161 85.661C61.3349 85.661 61.1643 85.7036 61.015 85.7782C60.8657 85.8529 60.7165 85.9701 60.5672 86.1194L60.3007 85.7782C60.6632 85.4157 61.0684 85.2345 61.5268 85.2345C61.708 85.2345 61.868 85.2558 62.0066 85.3091C62.1452 85.3624 62.2731 85.4371 62.3797 85.533C62.4863 85.629 62.5609 85.7462 62.6249 85.8955C62.6888 86.0448 62.7102 86.2047 62.7102 86.3859V88.7527H62.2304L62.2518 88.7421ZM62.2304 86.951L61.9639 86.9829C61.7293 87.0149 61.5268 87.0576 61.3775 87.1002C61.2176 87.1429 61.1003 87.2068 61.0044 87.2708C60.9084 87.3348 60.8444 87.4201 60.8124 87.5054C60.7698 87.6013 60.7591 87.6973 60.7591 87.8145C60.7591 87.9745 60.8125 88.1131 60.9191 88.2197C61.0257 88.3263 61.1643 88.3796 61.3562 88.3796C61.5161 88.3796 61.6654 88.3476 61.804 88.273C61.9426 88.1983 62.0918 88.0917 62.2518 87.9425V86.9403L62.2304 86.951Z" fill="#717677"/>
<path d="M63.573 88.7417V84.0507H64.0634V88.7417H63.573Z" fill="#717677"/>
<path d="M66.2283 88.7418V84.1361H68.6698V84.5732H66.7401V86.0871H68.3605V86.5242H66.7401V88.2833H68.7443V88.7311H66.2283V88.7418Z" fill="#717677"/>
<path d="M71.6114 87.7609C71.6114 87.9315 71.5795 88.0914 71.5155 88.2194C71.4515 88.3473 71.3662 88.4646 71.249 88.5499C71.1317 88.6352 71.0144 88.6991 70.8652 88.7524C70.7159 88.8058 70.5773 88.8164 70.4174 88.8164C70.1935 88.8164 69.9803 88.7738 69.7777 88.6778C69.5751 88.5819 69.3939 88.4539 69.2446 88.2727L69.5218 87.9528C69.6604 88.0914 69.799 88.1981 69.9589 88.2727C70.1188 88.3473 70.2681 88.3793 70.4174 88.3793C70.5026 88.3793 70.5879 88.3686 70.6732 88.3367C70.7585 88.3047 70.8332 88.2727 70.8971 88.2194C70.9611 88.1661 71.0144 88.1128 71.0571 88.0381C71.0997 87.9635 71.121 87.8889 71.121 87.8036C71.121 87.6437 71.0677 87.5157 70.9504 87.4411C70.8331 87.3558 70.6839 87.2812 70.5027 87.2066L70.1508 87.068C70.0335 87.0253 69.927 86.972 69.8417 86.9187C69.7457 86.8654 69.6711 86.8014 69.5965 86.7375C69.5325 86.6628 69.4792 86.5882 69.4365 86.4922C69.4045 86.3963 69.3832 86.2897 69.3832 86.1617C69.3832 86.0232 69.4046 85.8952 69.4579 85.7886C69.5112 85.6713 69.5858 85.5754 69.6817 85.4794C69.7777 85.3835 69.895 85.3302 70.0336 85.2769C70.1722 85.2342 70.3321 85.2022 70.524 85.2022C70.7266 85.2022 70.9184 85.2449 71.0997 85.3195C71.2809 85.3941 71.4409 85.5221 71.5901 85.6926L71.3129 86.0125C71.185 85.8632 71.0464 85.7673 70.9185 85.714C70.7799 85.6607 70.6519 85.6287 70.524 85.6287C70.4387 85.6287 70.364 85.6287 70.2787 85.6607C70.2041 85.682 70.1401 85.714 70.0762 85.746C70.0229 85.7886 69.9696 85.8312 69.9376 85.8952C69.9057 85.9592 69.8843 86.0232 69.8843 86.0978C69.8843 86.2257 69.9269 86.3217 70.0229 86.3963C70.1188 86.4709 70.2468 86.5349 70.4067 86.5989L70.7478 86.7375C70.8651 86.7908 70.9824 86.8441 71.089 86.8974C71.1956 86.9507 71.2916 87.0146 71.3662 87.0893C71.4409 87.1639 71.5048 87.2492 71.5581 87.3558C71.6008 87.4624 71.6221 87.5904 71.6221 87.729L71.6114 87.7609Z" fill="#717677"/>
<path d="M73.467 88.8059C73.3924 88.8059 73.3284 88.8165 73.2645 88.8165C73.1046 88.8165 72.966 88.7952 72.8593 88.7632C72.7527 88.7313 72.6675 88.6673 72.6035 88.5927C72.5395 88.518 72.4968 88.4221 72.4755 88.3048C72.4542 88.1875 72.4329 88.0489 72.4329 87.889V85.7354H71.9211V85.309H72.4329V84.5307L72.9233 84.2642V85.309H73.6483V85.7354H72.9233V87.8783C72.9233 88.0596 72.9552 88.1982 73.0086 88.2728C73.0725 88.3474 73.1685 88.3901 73.3178 88.3901C73.3711 88.3901 73.4244 88.3901 73.4883 88.3794C73.5523 88.3794 73.6056 88.3581 73.6483 88.3474V88.7845C73.595 88.7952 73.531 88.8059 73.4564 88.8165L73.467 88.8059Z" fill="#717677"/>
<path d="M76.1004 88.7421V88.3476C75.9298 88.5075 75.7592 88.6248 75.5887 88.6994C75.4181 88.7741 75.2475 88.806 75.0556 88.806C74.9063 88.806 74.7677 88.7847 74.6398 88.7314C74.5225 88.6781 74.4159 88.6141 74.3306 88.5182C74.2453 88.4329 74.1813 88.3263 74.1387 88.209C74.096 88.0917 74.0747 87.9638 74.0747 87.8359C74.0747 87.6333 74.1067 87.4521 74.1814 87.3135C74.256 87.1749 74.3519 87.0576 74.4905 86.9723C74.6291 86.8763 74.7891 86.8124 74.9916 86.7591C75.1942 86.7058 75.418 86.6631 75.6739 86.6311L76.0684 86.5778V86.3859C76.0684 86.2473 76.0471 86.1301 76.0044 86.0448C75.9618 85.9488 75.9085 85.8742 75.8445 85.8209C75.7806 85.7676 75.7059 85.7249 75.6206 85.6929C75.5353 85.6716 75.45 85.661 75.3648 85.661C75.1835 85.661 75.013 85.7036 74.8637 85.7782C74.7144 85.8529 74.5651 85.9701 74.4159 86.1194L74.1493 85.7782C74.5118 85.4157 74.917 85.2345 75.3754 85.2345C75.5567 85.2345 75.7166 85.2558 75.8552 85.3091C75.9938 85.3624 76.1217 85.4371 76.2283 85.533C76.3349 85.629 76.4095 85.7462 76.4735 85.8955C76.5375 86.0448 76.5588 86.2047 76.5588 86.3859V88.7527H76.079L76.1004 88.7421ZM76.079 86.951L75.8125 86.9829C75.578 87.0149 75.3754 87.0576 75.2261 87.1002C75.0769 87.1429 74.949 87.2068 74.853 87.2708C74.7571 87.3348 74.6931 87.4201 74.6611 87.5054C74.6185 87.6013 74.6078 87.6973 74.6078 87.8145C74.6078 87.9745 74.6611 88.1131 74.7677 88.2197C74.8743 88.3263 75.0129 88.3796 75.2048 88.3796C75.3647 88.3796 75.514 88.3476 75.6526 88.273C75.7912 88.1983 75.9405 88.0917 76.1004 87.9425V86.9403L76.079 86.951Z" fill="#717677"/>
<path d="M78.5738 88.8059C78.4992 88.8059 78.4352 88.8165 78.3712 88.8165C78.2113 88.8165 78.0727 88.7952 77.9661 88.7632C77.8595 88.7313 77.7742 88.6673 77.7102 88.5927C77.6463 88.518 77.6036 88.4221 77.5823 88.3048C77.561 88.1875 77.5503 88.0489 77.5503 87.889V85.7354H77.0386V85.309H77.5503V84.5307L78.0407 84.2642V85.309H78.7657V85.7354H78.0407V87.8783C78.0407 88.0596 78.0727 88.1982 78.1261 88.2728C78.19 88.3474 78.2859 88.3901 78.4352 88.3901C78.4885 88.3901 78.5418 88.3901 78.6058 88.3794C78.6697 88.3794 78.7231 88.3581 78.7657 88.3474V88.7845C78.7124 88.7952 78.6484 88.8059 78.5738 88.8165V88.8059Z" fill="#717677"/>
<path d="M79.7262 87.1C79.7262 87.3132 79.7582 87.4944 79.8115 87.6544C79.8648 87.8143 79.9394 87.9422 80.0247 88.0595C80.11 88.1661 80.2166 88.2514 80.3232 88.3047C80.4299 88.358 80.5471 88.39 80.675 88.39C80.8349 88.39 80.9949 88.3473 81.1548 88.2727C81.3147 88.1981 81.464 88.0488 81.6239 87.8463L81.9544 88.1661C81.7732 88.4113 81.5813 88.5819 81.368 88.6778C81.1548 88.7738 80.9203 88.8271 80.6537 88.8271C80.4618 88.8271 80.2699 88.7845 80.0993 88.7098C79.9288 88.6352 79.7795 88.5179 79.6516 88.3687C79.5236 88.2194 79.417 88.0275 79.3424 87.8036C79.2677 87.5797 79.2251 87.3239 79.2251 87.0253C79.2251 86.7268 79.2571 86.4923 79.3318 86.2684C79.3957 86.0445 79.5023 85.8633 79.6196 85.714C79.7475 85.5647 79.8861 85.4475 80.0567 85.3622C80.2273 85.2769 80.4085 85.2449 80.6005 85.2449C80.8563 85.2449 81.0802 85.2982 81.2508 85.4155C81.432 85.5328 81.5706 85.6713 81.6772 85.8526C81.7838 86.0338 81.8585 86.2257 81.9118 86.4496C81.9651 86.6735 81.9864 86.8867 81.9864 87.1H79.7262ZM81.4746 86.7161C81.4426 86.3963 81.3573 86.1405 81.2081 85.9485C81.0588 85.7566 80.8563 85.6607 80.6111 85.6607C80.3658 85.6607 80.174 85.7566 80.0247 85.9592C79.8648 86.1511 79.7795 86.407 79.7475 86.7161H81.4746Z" fill="#717677"/>
<path d="M87.1565 86.4603C87.1565 86.7694 87.1246 87.0573 87.05 87.3345C86.9753 87.6117 86.8687 87.8569 86.7195 88.0595C86.5702 88.2727 86.3889 88.4326 86.1544 88.5605C85.9198 88.6885 85.6639 88.7418 85.3441 88.7418H83.9795V84.1361H85.2695C85.5787 84.1361 85.8452 84.1894 86.0797 84.3067C86.3143 84.4239 86.5062 84.5838 86.6661 84.7864C86.826 84.989 86.9433 85.2342 87.0179 85.522C87.1032 85.8099 87.1352 86.1191 87.1352 86.4496L87.1565 86.4603ZM86.6235 86.4603C86.6235 85.8845 86.5062 85.4261 86.261 85.0956C86.0158 84.7651 85.6746 84.6052 85.2269 84.6052H84.5126V88.2727H85.2801C85.4827 88.2727 85.664 88.23 85.8239 88.1554C85.9838 88.0808 86.1331 87.9635 86.2504 87.8142C86.3676 87.665 86.4636 87.4731 86.5276 87.2492C86.5915 87.0253 86.6235 86.7588 86.6235 86.4603Z" fill="#717677"/>
<path d="M88.255 87.1C88.255 87.3132 88.287 87.4944 88.3403 87.6544C88.3936 87.8143 88.4682 87.9422 88.5535 88.0595C88.6388 88.1661 88.7454 88.2514 88.8521 88.3047C88.9587 88.358 89.0759 88.39 89.2038 88.39C89.3638 88.39 89.5237 88.3473 89.6836 88.2727C89.8435 88.1981 89.9928 88.0488 90.1527 87.8463L90.4832 88.1661C90.302 88.4113 90.1101 88.5819 89.8968 88.6778C89.6836 88.7738 89.4491 88.8271 89.1826 88.8271C88.9907 88.8271 88.7987 88.7845 88.6281 88.7098C88.4576 88.6352 88.3083 88.5179 88.1804 88.3687C88.0524 88.2194 87.9458 88.0275 87.8712 87.8036C87.7965 87.5797 87.7539 87.3239 87.7539 87.0253C87.7539 86.7268 87.7859 86.4923 87.8606 86.2684C87.9245 86.0445 88.0311 85.8633 88.1484 85.714C88.2763 85.5647 88.4149 85.4475 88.5855 85.3622C88.7561 85.2769 88.9374 85.2449 89.1293 85.2449C89.3851 85.2449 89.609 85.2982 89.7796 85.4155C89.9502 85.5328 90.0994 85.6713 90.206 85.8526C90.3126 86.0338 90.3873 86.2257 90.4406 86.4496C90.4939 86.6735 90.5152 86.8867 90.5152 87.1H88.255ZM90.0034 86.7161C89.9714 86.3963 89.8862 86.1405 89.7369 85.9485C89.5876 85.7566 89.3851 85.6607 89.1399 85.6607C88.8947 85.6607 88.7028 85.7566 88.5535 85.9592C88.3936 86.1511 88.3083 86.407 88.2763 86.7161H90.0034Z" fill="#717677"/>
<path d="M92.5505 88.7421H92.0921L90.9087 85.2985H91.4311L92.3373 88.0491L93.2542 85.2985H93.7553L92.5505 88.7421Z" fill="#717677"/>
<path d="M94.6615 87.1C94.6615 87.3132 94.6935 87.4944 94.7468 87.6544C94.8001 87.8143 94.8747 87.9422 94.96 88.0595C95.0453 88.1661 95.1519 88.2514 95.2585 88.3047C95.3652 88.358 95.4824 88.39 95.6103 88.39C95.7702 88.39 95.9302 88.3473 96.0901 88.2727C96.25 88.1981 96.3993 88.0488 96.5592 87.8463L96.8897 88.1661C96.7085 88.4113 96.5166 88.5819 96.3033 88.6778C96.0901 88.7738 95.8556 88.8271 95.589 88.8271C95.3971 88.8271 95.2052 88.7845 95.0346 88.7098C94.8641 88.6352 94.7148 88.5179 94.5869 88.3687C94.4589 88.2194 94.3523 88.0275 94.2777 87.8036C94.203 87.5797 94.1604 87.3239 94.1604 87.0253C94.1604 86.7268 94.1924 86.4923 94.267 86.2684C94.331 86.0445 94.4376 85.8633 94.5549 85.714C94.6828 85.5647 94.8214 85.4475 94.992 85.3622C95.1626 85.2769 95.3438 85.2449 95.5357 85.2449C95.7916 85.2449 96.0155 85.2982 96.1861 85.4155C96.3673 85.5328 96.5059 85.6713 96.6125 85.8526C96.7191 86.0338 96.7938 86.2257 96.8471 86.4496C96.9004 86.6735 96.9217 86.8867 96.9217 87.1H94.6615ZM96.4099 86.7161C96.3779 86.3963 96.2927 86.1405 96.1434 85.9485C95.9941 85.7566 95.7916 85.6607 95.5464 85.6607C95.3012 85.6607 95.1093 85.7566 94.96 85.9592C94.8001 86.1511 94.7148 86.407 94.6828 86.7161H96.4099Z" fill="#717677"/>
<path d="M97.6472 88.7417V84.0507H98.1376V88.7417H97.6472Z" fill="#717677"/>
<path d="M101.752 87.0256C101.752 87.3028 101.72 87.548 101.646 87.7719C101.571 87.9958 101.475 88.177 101.347 88.3369C101.219 88.4969 101.07 88.6141 100.889 88.6888C100.707 88.7741 100.515 88.8167 100.302 88.8167C100.089 88.8167 99.8864 88.7741 99.7159 88.6888C99.5346 88.6035 99.3854 88.4862 99.2574 88.3369C99.1295 88.177 99.0335 87.9958 98.9589 87.7719C98.8843 87.548 98.8523 87.3028 98.8523 87.0256C98.8523 86.7484 98.8843 86.5032 98.9589 86.29C99.0335 86.0767 99.1295 85.8848 99.2574 85.7249C99.3854 85.565 99.5346 85.4477 99.7159 85.3624C99.8971 85.2771 100.089 85.2345 100.302 85.2345C100.515 85.2345 100.718 85.2771 100.889 85.3624C101.07 85.4477 101.219 85.565 101.347 85.7249C101.475 85.8848 101.571 86.0661 101.646 86.29C101.72 86.5139 101.752 86.7591 101.752 87.0256ZM101.24 87.0256C101.24 86.823 101.219 86.6418 101.176 86.4712C101.134 86.3006 101.07 86.162 100.985 86.0448C100.899 85.9275 100.803 85.8315 100.686 85.7676C100.569 85.7036 100.441 85.6716 100.302 85.6716C100.164 85.6716 100.036 85.7036 99.9184 85.7676C99.8012 85.8315 99.7052 85.9275 99.6199 86.0448C99.5346 86.162 99.4813 86.3006 99.428 86.4712C99.3853 86.6418 99.364 86.823 99.364 87.0256C99.364 87.2282 99.3853 87.4094 99.428 87.58C99.4706 87.7506 99.5346 87.8892 99.6199 88.0064C99.7052 88.1237 99.8012 88.2197 99.9184 88.2836C100.036 88.3476 100.164 88.3796 100.302 88.3796C100.441 88.3796 100.569 88.3476 100.686 88.2836C100.803 88.2197 100.899 88.1237 100.985 88.0064C101.07 87.8892 101.123 87.7506 101.176 87.58C101.219 87.4094 101.24 87.2282 101.24 87.0256Z" fill="#717677"/>
<path d="M105.206 87.0253C105.206 87.3025 105.174 87.5477 105.11 87.7716C105.046 87.9955 104.951 88.1768 104.833 88.3367C104.716 88.4966 104.577 88.6139 104.417 88.6885C104.258 88.7738 104.087 88.8164 103.895 88.8164C103.692 88.8164 103.511 88.7738 103.362 88.6992C103.213 88.6245 103.074 88.5179 102.967 88.3793V89.9998H102.477V85.3089H102.946V85.7033C103.095 85.5327 103.245 85.4155 103.394 85.3515C103.543 85.2769 103.714 85.2449 103.895 85.2449C104.076 85.2449 104.258 85.2875 104.417 85.3728C104.577 85.4581 104.716 85.5754 104.833 85.7353C104.951 85.8952 105.046 86.0765 105.11 86.3004C105.174 86.5242 105.206 86.7695 105.206 87.036V87.0253ZM104.695 87.0147C104.695 86.8228 104.673 86.6415 104.631 86.4709C104.588 86.3004 104.535 86.1618 104.449 86.0445C104.375 85.9272 104.279 85.8313 104.172 85.7673C104.066 85.7033 103.938 85.6713 103.799 85.6713C103.628 85.6713 103.479 85.714 103.351 85.7886C103.223 85.8632 103.085 85.9699 102.957 86.1085V87.9316C103.085 88.0595 103.213 88.1554 103.341 88.2407C103.469 88.326 103.628 88.3687 103.799 88.3687C103.938 88.3687 104.066 88.3367 104.172 88.2727C104.279 88.2087 104.375 88.1128 104.449 87.9955C104.524 87.8782 104.588 87.729 104.631 87.5691C104.673 87.3985 104.695 87.2172 104.695 87.0147Z" fill="#717677"/>
<path d="M109.524 88.7421V86.3752C109.524 85.9275 109.364 85.7036 109.033 85.7036C108.905 85.7036 108.767 85.7462 108.618 85.8315C108.468 85.9168 108.33 86.0128 108.202 86.13C108.202 86.1514 108.202 86.1727 108.202 86.2047V88.7421H107.711V86.3752C107.711 86.162 107.679 86.0021 107.605 85.8848C107.53 85.7675 107.402 85.7036 107.221 85.7036C107.093 85.7036 106.965 85.7356 106.827 85.8102C106.688 85.8848 106.549 85.9808 106.4 86.1194V88.7421H105.91V85.2985H106.379V85.6929C106.517 85.565 106.667 85.4584 106.827 85.3624C106.997 85.2665 107.168 85.2238 107.338 85.2238C107.541 85.2238 107.711 85.2771 107.829 85.3731C107.957 85.469 108.042 85.597 108.106 85.7462C108.17 85.6823 108.244 85.6183 108.33 85.565C108.404 85.501 108.49 85.4477 108.575 85.3944C108.66 85.3411 108.756 85.2985 108.852 85.2665C108.948 85.2345 109.044 85.2132 109.14 85.2132C109.247 85.2132 109.364 85.2345 109.46 85.2665C109.566 85.2985 109.652 85.3624 109.737 85.437C109.812 85.5223 109.876 85.6289 109.929 85.7569C109.982 85.8848 110.004 86.0554 110.004 86.2366V88.7207H109.513L109.524 88.7421Z" fill="#717677"/>
<path d="M111.198 87.1C111.198 87.3132 111.23 87.4944 111.283 87.6544C111.336 87.8143 111.411 87.9422 111.496 88.0595C111.582 88.1661 111.688 88.2514 111.795 88.3047C111.901 88.358 112.019 88.39 112.147 88.39C112.307 88.39 112.467 88.3473 112.626 88.2727C112.786 88.1981 112.936 88.0488 113.096 87.8463L113.426 88.1661C113.245 88.4113 113.053 88.5819 112.84 88.6778C112.626 88.7738 112.392 88.8271 112.125 88.8271C111.933 88.8271 111.742 88.7845 111.571 88.7098C111.4 88.6352 111.251 88.5179 111.123 88.3687C110.995 88.2194 110.889 88.0275 110.814 87.8036C110.739 87.5797 110.697 87.3239 110.697 87.0253C110.697 86.7268 110.729 86.4923 110.803 86.2684C110.867 86.0445 110.974 85.8633 111.091 85.714C111.219 85.5647 111.358 85.4475 111.528 85.3622C111.699 85.2769 111.88 85.2449 112.072 85.2449C112.328 85.2449 112.552 85.2982 112.722 85.4155C112.893 85.5328 113.042 85.6713 113.149 85.8526C113.255 86.0338 113.33 86.2257 113.383 86.4496C113.437 86.6735 113.458 86.8867 113.458 87.1H111.198ZM112.946 86.7161C112.914 86.3963 112.829 86.1405 112.68 85.9485C112.531 85.7566 112.328 85.6607 112.083 85.6607C111.838 85.6607 111.646 85.7566 111.496 85.9592C111.336 86.1511 111.251 86.407 111.219 86.7161H112.946Z" fill="#717677"/>
<path d="M116.156 88.7421V86.4072C116.156 86.1834 116.113 86.0128 116.028 85.8848C115.943 85.7676 115.783 85.7036 115.57 85.7036C115.42 85.7036 115.26 85.7462 115.101 85.8209C114.941 85.8955 114.791 86.0021 114.653 86.1194V88.7421H114.162V85.2985H114.631V85.6929C114.781 85.5757 114.941 85.469 115.111 85.3731C115.282 85.2771 115.474 85.2345 115.687 85.2345C115.996 85.2345 116.231 85.3305 116.401 85.5117C116.572 85.6929 116.646 85.9488 116.646 86.2686V88.7527H116.156V88.7421Z" fill="#717677"/>
<path d="M118.661 88.8059C118.586 88.8059 118.522 88.8165 118.458 88.8165C118.298 88.8165 118.159 88.7952 118.053 88.7632C117.946 88.7313 117.861 88.6673 117.797 88.5927C117.733 88.518 117.69 88.4221 117.669 88.3048C117.648 88.1875 117.626 88.0489 117.626 87.889V85.7354H117.115V85.309H117.626V84.5307L118.117 84.2642V85.309H118.842V85.7354H118.117V87.8783C118.117 88.0596 118.149 88.1982 118.202 88.2728C118.266 88.3474 118.362 88.3901 118.511 88.3901C118.565 88.3901 118.618 88.3901 118.682 88.3794C118.746 88.3794 118.799 88.3581 118.842 88.3474V88.7845C118.789 88.7952 118.725 88.8059 118.65 88.8165L118.661 88.8059Z" fill="#717677"/>
<path d="M123.181 88.6244C122.946 88.763 122.68 88.8377 122.392 88.8377C122.104 88.8377 121.848 88.7843 121.624 88.6671C121.4 88.5498 121.208 88.3899 121.059 88.1767C120.91 87.9634 120.793 87.7182 120.707 87.4304C120.622 87.1425 120.59 86.8227 120.59 86.4708C120.59 86.119 120.633 85.7779 120.718 85.4793C120.803 85.1808 120.931 84.925 121.081 84.7117C121.24 84.4985 121.432 84.3386 121.646 84.2213C121.87 84.104 122.115 84.0507 122.392 84.0507C122.701 84.0507 122.957 84.1147 123.17 84.2533C123.383 84.3919 123.565 84.5731 123.725 84.8183L123.351 85.1168C123.223 84.9356 123.085 84.7864 122.936 84.6904C122.776 84.5944 122.594 84.5411 122.392 84.5411C122.2 84.5411 122.029 84.5838 121.88 84.6797C121.731 84.765 121.592 84.893 121.486 85.0529C121.379 85.2128 121.294 85.4154 121.23 85.6499C121.166 85.8845 121.134 86.151 121.134 86.4495C121.134 86.748 121.166 87.0146 121.23 87.2491C121.294 87.4837 121.379 87.6862 121.496 87.8462C121.603 88.0061 121.742 88.134 121.901 88.2193C122.061 88.3046 122.232 88.3579 122.413 88.3579C122.648 88.3579 122.84 88.2939 123 88.1767C123.159 88.0594 123.309 87.8888 123.447 87.6756L123.81 87.9954C123.639 88.2726 123.437 88.4858 123.202 88.6244H123.181Z" fill="#717677"/>
<path d="M127.159 87.0256C127.159 87.3028 127.127 87.548 127.052 87.7719C126.977 87.9958 126.881 88.177 126.753 88.3369C126.625 88.4969 126.476 88.6141 126.295 88.6888C126.114 88.7741 125.922 88.8167 125.709 88.8167C125.495 88.8167 125.293 88.7741 125.122 88.6888C124.941 88.6035 124.792 88.4862 124.664 88.3369C124.536 88.1877 124.44 87.9958 124.376 87.7719C124.301 87.548 124.269 87.3028 124.269 87.0256C124.269 86.7484 124.301 86.5032 124.376 86.29C124.44 86.0661 124.546 85.8848 124.664 85.7249C124.792 85.565 124.941 85.4477 125.122 85.3624C125.303 85.2771 125.495 85.2345 125.709 85.2345C125.922 85.2345 126.124 85.2771 126.295 85.3624C126.476 85.4477 126.625 85.565 126.753 85.7249C126.881 85.8848 126.977 86.0661 127.052 86.29C127.116 86.5139 127.159 86.7591 127.159 87.0256ZM126.647 87.0256C126.647 86.823 126.625 86.6418 126.583 86.4712C126.54 86.3006 126.476 86.162 126.391 86.0448C126.306 85.9275 126.21 85.8315 126.103 85.7676C125.986 85.7036 125.858 85.6716 125.719 85.6716C125.581 85.6716 125.453 85.7036 125.335 85.7676C125.218 85.8315 125.122 85.9275 125.048 86.0448C124.962 86.162 124.909 86.3006 124.856 86.4712C124.813 86.6418 124.792 86.823 124.792 87.0256C124.792 87.2282 124.813 87.4094 124.856 87.58C124.898 87.7506 124.962 87.8892 125.048 88.0064C125.133 88.1237 125.229 88.2197 125.335 88.2836C125.453 88.3476 125.581 88.3796 125.719 88.3796C125.858 88.3796 125.986 88.3476 126.103 88.2836C126.22 88.2197 126.316 88.1237 126.391 88.0064C126.476 87.8892 126.529 87.7506 126.583 87.58C126.625 87.4094 126.647 87.2282 126.647 87.0256Z" fill="#717677"/>
<path d="M127.787 88.4005C127.787 88.3046 127.819 88.2193 127.883 88.1553C127.947 88.0913 128.022 88.0487 128.107 88.0487C128.192 88.0487 128.267 88.0807 128.331 88.1553C128.395 88.2193 128.427 88.3046 128.427 88.4005C128.427 88.4965 128.395 88.5711 128.331 88.6457C128.267 88.7097 128.192 88.7417 128.107 88.7417C128.022 88.7417 127.947 88.7097 127.883 88.6457C127.819 88.5818 127.787 88.4965 127.787 88.4005Z" fill="#717677"/>
</svg>
