<svg width="80" height="85" viewBox="0 0 80 85" fill="none" xmlns="http://www.w3.org/2000/svg">
<path d="M54.8519 27.7212C54.9537 27.6194 54.9537 27.5401 54.8858 27.4156C54.716 27.1214 54.4331 27.0195 54.1388 26.929C52.7581 26.5216 50.902 27.4156 49.6117 27.891C47.9707 28.5021 46.0127 29.2717 44.066 30.0527C36.619 32.9953 26.2293 37.3866 18.8954 32.3615C16.6997 30.8449 15.2624 28.4456 15.3077 24.7899C15.3416 22.0963 16.2244 19.7762 17.5599 17.5466C17.7297 17.2523 17.9108 16.9694 18.1032 16.6751C18.9407 15.3962 19.3142 15.4981 18.669 16.8562C17.4354 19.4819 16.3829 21.7794 17.6844 24.7673C18.7709 27.2572 20.8986 28.6379 23.3433 29.3396C31.3676 31.6258 39.3692 27.891 46.5899 24.756C50.5624 23.0357 54.6368 21.5757 56.3571 22.8319C59.1752 24.8918 54.2859 29.9168 53.1315 31.6371C51.5357 34.0025 50.4719 35.6323 49.8607 36.3793C49.7702 34.9419 53.5277 29.0228 54.8405 27.7099" fill="#610D24"/>
<path d="M35.4421 15.9169L39.358 18.6105C39.358 18.6105 39.4146 18.7123 39.3806 18.7576L37.2416 21.9492C37.2416 21.9492 37.1397 22.0058 37.0944 21.9719L33.1785 19.2782C33.1785 19.2782 33.1219 19.1764 33.1559 19.1311L35.2949 15.9395C35.2949 15.9395 35.3968 15.8829 35.4421 15.9169Z" fill="#610D24"/>
<path d="M41.7346 15.4073L45.6505 18.101C45.6505 18.101 45.7071 18.2028 45.6731 18.2481L43.5341 21.4397C43.5341 21.4397 43.4322 21.4963 43.3869 21.4623L39.471 18.7687C39.471 18.7687 39.4144 18.6668 39.4483 18.6216L41.5874 15.43C41.5874 15.43 41.6893 15.3734 41.7346 15.4073Z" fill="#610D24"/>
<path d="M54.5916 53.3328C55.2367 52.8009 59.7299 48.7491 59.7186 48.2738C59.7072 47.7645 59.5714 47.2892 59.4582 46.8025C59.0621 45.003 58.3604 43.4185 57.206 41.9811C56.9231 41.6303 56.6288 41.2681 56.2893 40.9626C56.1988 40.8833 56.1874 40.8041 56.2101 40.7022C56.4477 39.6497 56.6288 38.5745 56.9231 37.5333C57.0023 37.2503 57.0589 36.9674 57.1268 36.6844C57.1494 36.6165 57.1607 36.5486 57.1947 36.492C57.2513 36.3902 57.3192 36.3902 57.4097 36.4694C58.6207 37.7709 59.4243 39.8308 61.2012 40.1477C62.3216 40.3514 65.4001 39.5365 66.2715 38.3029C66.2715 38.0539 65.5699 37.0692 65.434 36.9221C65.0945 36.5147 64.7436 36.1072 64.3136 35.7903C64.223 35.7224 64.2117 35.6545 64.2343 35.5527C64.3701 34.8849 64.4946 34.2059 64.6305 33.5381C64.755 32.9383 64.8795 32.3271 65.004 31.7273C65.0266 31.6254 65.0492 31.5122 65.0832 31.4104C65.1398 31.2406 65.2077 31.218 65.3322 31.3198C65.5132 31.4556 65.6943 31.5802 65.8641 31.7386C67.1883 32.9496 67.8221 34.4661 67.9579 36.0959C68.0371 37.1032 67.8334 38.3368 67.4712 39.4686C66.4187 42.7394 64.9021 43.6901 61.4615 44.007C61.337 44.0297 61.2917 44.0976 61.2917 44.2107C61.2917 44.3918 61.2917 44.5729 61.2917 44.7653C61.371 46.6214 60.8843 48.7152 60.3184 50.4468C59.911 51.6805 59.5601 52.4387 59.0169 53.1744C56.0856 57.1809 46.4429 64.8769 40.7614 62.7039C36.9133 61.2326 35.3741 57.1356 35.4533 53.231C35.4873 51.6691 35.7476 49.9828 36.155 48.3078C37.2189 43.9391 40.9085 36.5713 38.0904 45.2746C37.2755 47.7985 36.8115 50.6053 37.4 53.0273C38.4639 57.3959 41.0669 58.7653 44.0774 58.5277C47.6425 58.256 51.8754 55.5285 54.5916 53.2989" fill="#610D24"/>
<path d="M46.6578 40.4648C46.6125 40.363 46.5559 40.329 46.5107 40.2724C46.1938 39.9329 45.8316 39.6613 45.4694 39.3896C44.8696 38.9369 44.315 38.654 43.7831 38.6653C43.2851 38.6766 42.7984 38.9369 42.3118 39.3896C41.7572 39.8989 41.6893 40.08 42.5608 40.3403C43.6359 40.6572 44.9149 40.4988 46.0353 40.4648C46.239 40.4648 46.4427 40.4648 46.6691 40.4648M26.3877 45.2296C25.5729 47.7535 25.1088 50.5603 25.6973 52.9823C27.61 60.8254 34.4686 58.9807 39.7992 55.608C43.9415 52.9936 48.446 49.2248 49.9739 47.2215C50.0192 47.1536 50.0757 47.0857 50.1097 47.0178C50.2568 46.418 49.1703 45.7842 48.8874 45.6371C48.5818 45.4673 48.2536 45.3428 47.9027 45.2749C46.9634 45.0938 46.0127 45.0485 45.062 45.0938C44.4282 45.1164 43.7944 45.1504 43.1606 45.1277C42.5834 45.1164 42.0288 45.0259 41.4969 44.7882C37.762 43.1019 39.6068 38.1221 41.5648 35.9151C46.8615 29.962 52.9504 39.8763 51.3773 46.6556C50.9585 48.4778 50.5398 49.8246 49.657 51.1488C47.9707 53.6726 43.9076 57.1019 39.969 59.6484C36.5737 61.8327 32.6464 64.051 29.0361 62.6702C25.1881 61.1989 23.6488 57.1019 23.7394 53.1973C23.7733 51.6354 24.0336 49.9491 24.4411 48.2741C25.5049 43.9054 29.1945 36.5376 26.3764 45.2409" fill="#610D24"/>
<path d="M59.7072 24.6087L63.6231 27.3024C63.6231 27.3024 63.6797 27.4042 63.6458 27.4495L61.5067 30.6411C61.5067 30.6411 61.4049 30.6977 61.3596 30.6637L57.4436 27.9701C57.4436 27.9701 57.3871 27.8682 57.421 27.823L59.5601 24.6314C59.5601 24.6314 59.6619 24.5748 59.7072 24.6087Z" fill="#610D24"/>
<path d="M66.0114 24.0995L69.9273 26.7931C69.9273 26.7931 69.9839 26.8949 69.95 26.9402L67.8109 30.1318C67.8109 30.1318 67.709 30.1884 67.6638 30.1544L63.7478 27.4608C63.7478 27.4608 63.6913 27.359 63.7252 27.3137L65.8642 24.1221C65.8642 24.1221 65.9661 24.0655 66.0114 24.0995Z" fill="#610D24"/>
<path d="M61.6652 19.5045L65.5811 22.1981C65.5811 22.1981 65.6377 22.3 65.6038 22.3452L63.4647 25.5368C63.4647 25.5368 63.3628 25.5934 63.3176 25.5595L59.4016 22.8658C59.4016 22.8658 59.3451 22.764 59.379 22.7187L61.518 19.5271C61.518 19.5271 61.6199 19.4705 61.6652 19.5045Z" fill="#610D24"/>
<path d="M29.7379 0.252919C29.7605 0.0152468 29.4436 -0.0979361 29.3192 0.105783C28.2779 1.7129 26.999 4.74606 27.3725 9.40896C28.6514 27.0194 30.3038 38.5182 30.915 55.1553C30.915 55.2571 30.9828 55.359 31.0734 55.3929C31.1752 55.4269 31.2658 55.3703 31.3224 55.2797C33.4841 51.1148 32.9861 40.8044 32.0694 30.8108C31.4469 24.0541 30.6546 17.4332 30.2698 12.974C30.2019 12.2384 29.9982 10.0994 29.8284 7.82449C29.636 5.43644 29.5342 2.85599 29.7492 0.24159" fill="#610D24"/>
<path d="M6.31025 76.3985C6.31025 75.7534 6.32157 75.1083 6.3442 74.4971C7.49861 74.4971 8.68699 74.5197 9.68295 74.6216C9.63768 74.35 9.60371 74.2028 9.60371 74.0104C9.60371 73.8746 9.63768 73.6596 9.68295 73.3654C8.07583 73.4446 6.60451 73.4672 5.21243 73.4672C3.92221 73.4672 2.06612 73.4446 0.741943 73.3654C0.787214 73.5691 0.821141 73.7841 0.821141 73.9878C0.821141 74.1915 0.787214 74.4066 0.741943 74.6103C1.60209 74.5197 3.20921 74.4858 3.35634 74.4858H4.19384C4.20516 75.1422 4.22779 75.7421 4.22779 76.3645V81.0953C4.23911 82.3856 4.14856 83.6871 4.08065 84.9773C4.68049 84.9094 4.94081 84.8755 5.22376 84.8755C5.42748 84.8755 5.95939 84.9207 6.44606 84.9773C6.40079 84.502 6.33291 83.9474 6.33291 82.6572V76.3872L6.31025 76.3985ZM19.3823 82.0008C19.3823 82.6232 19.269 84.6717 19.2464 84.9773C19.5973 84.9434 20.0273 84.8755 20.3895 84.8755C20.7856 84.8755 21.2044 84.9434 21.6119 84.9773C21.4421 83.755 21.4421 82.3177 21.4421 80.9822C21.4421 79.2166 21.4647 75.1196 21.6798 73.354C21.3629 73.388 20.8083 73.4559 20.5027 73.4559C20.1405 73.4559 19.5973 73.388 19.2804 73.354C19.3483 74.6103 19.3596 74.7461 19.3596 75.2667C19.3709 75.6855 19.3936 77.734 19.3936 78.1754C18.375 78.2093 17.3677 78.2433 16.3378 78.2433C15.5003 78.2433 14.6401 78.2093 13.8026 78.1754C13.8026 75.0064 13.8705 74.2821 13.9497 73.3427C13.7347 73.3766 13.1122 73.4445 12.7953 73.4445C12.5237 73.4445 11.9239 73.3766 11.5843 73.3427C11.6975 74.6442 11.7541 75.9345 11.7541 77.2587C11.7541 79.8278 11.7314 82.3969 11.6069 84.966C12.0031 84.9321 12.3879 84.8642 12.7953 84.8642C13.2594 84.8642 13.7007 84.9434 13.9497 84.966C13.8705 83.9022 13.8026 83.1325 13.8026 80.9482V79.2506C14.7533 79.2166 15.7153 79.1826 16.666 79.1826C17.5714 79.1826 18.4768 79.2166 19.3823 79.2506L19.3596 81.9781L19.3823 82.0008ZM31.6846 84.9887C31.9902 84.966 32.4542 84.8868 32.9296 84.8868C33.4049 84.8868 33.9821 84.966 34.2311 84.9887C33.4728 83.3476 32.375 80.7898 31.7299 79.3072C31.13 77.8811 30.1228 75.5157 29.3192 73.1956C29.1381 73.2408 28.9684 73.2748 28.7873 73.2748C28.5836 73.2748 28.4138 73.2408 28.2327 73.1956C27.8366 74.5876 26.8633 76.7833 25.1656 80.62L23.219 84.9887C23.4566 84.9547 23.6943 84.8868 23.9773 84.8868C24.2489 84.8868 24.5658 84.9547 24.7808 84.9887C25.0524 84.0266 25.5844 82.6119 26.1163 81.3104C26.784 81.2764 27.4518 81.2425 28.1308 81.2425C28.8552 81.2425 29.5569 81.2764 30.2812 81.3104L30.9829 83.1099L31.6846 84.9887ZM29.7833 80.2578C29.2626 80.2918 28.7646 80.3258 28.244 80.3258C27.6555 80.3258 27.0896 80.2805 26.5011 80.2578L28.2101 76.0929L29.7833 80.2578ZM38.147 74.2821C38.396 74.2594 39.0185 74.1915 39.3354 74.1915C39.89 74.1915 40.4445 74.2821 40.8972 74.6103C41.4858 75.0517 41.5989 75.6629 41.5989 76.3759C41.5989 77.4737 40.9765 78.7186 39.3014 78.7186C38.8714 78.7186 38.4639 78.6847 38.147 78.6734V74.2821ZM40.8972 79.2279C42.4251 78.9337 43.8172 77.9717 43.8172 76.0929C43.8172 75.3799 43.5456 74.6895 43.0476 74.1915C42.3233 73.5011 41.5084 73.3654 40.4219 73.3654C40.0371 73.3654 38.0905 73.4445 37.6604 73.4445C36.8002 73.4445 36.3702 73.3993 35.9854 73.3654C36.0985 75.5497 36.0985 75.7873 36.0985 78.0056C36.0985 81.2764 36.0872 81.6499 35.9514 84.9887C36.3249 84.9321 36.721 84.8868 37.1058 84.8868C37.5246 84.8868 37.8981 84.9547 38.2263 84.9887C38.2263 84.5473 38.1584 82.3629 38.1584 81.8649V79.4656H38.5658C39.4712 80.7558 40.5125 82.2385 41.3613 83.5853C41.6103 83.9701 41.9838 84.6038 42.2328 84.9887C42.7307 84.9207 42.9344 84.8868 43.5909 84.8868C44.1907 84.8868 44.6095 84.9321 45.0848 84.9887C44.0323 83.6532 43.5796 83.0533 42.2554 81.1746C42.0064 80.8237 41.6329 80.2579 41.3839 79.907L40.9199 79.2279H40.8972ZM50.0533 81.0274C49.2724 78.6734 48.1746 75.3686 47.6539 73.3766C47.2352 73.4446 46.873 73.4785 46.4769 73.4785C46.0808 73.4785 45.5036 73.4106 45.1754 73.3766C45.8657 75.2101 46.443 76.8286 46.8957 78.1188C47.6653 80.3257 48.1746 81.8423 48.7744 83.7097L49.1932 85C49.4308 84.9547 49.6911 84.8981 49.8835 84.8981C50.0759 84.8981 50.2344 84.9321 50.5173 85C50.7889 84.1172 51.1058 83.0307 51.3322 82.3403C51.9886 80.405 52.0679 80.1333 52.928 77.734L53.426 76.3306C53.6071 76.8738 53.9353 77.734 54.1164 78.2772C54.2975 78.7979 55.1576 81.3896 55.3613 81.9668C55.6329 82.7251 55.7008 82.9515 56.312 85C56.4591 84.9773 56.7874 84.8981 57.0364 84.8981C57.274 84.8981 57.4551 84.9434 57.7041 85C58.3379 82.9854 58.4058 82.7817 59.3452 80.0654C60.2619 77.4284 60.8391 75.9118 61.8464 73.3766C61.5974 73.4446 61.3484 73.4785 61.0881 73.4785C60.7712 73.4785 60.4996 73.4332 60.3185 73.3766C59.7186 75.5836 59.4131 76.6475 58.9264 78.1075C58.1455 80.4842 58.0436 80.7445 57.557 82.0347C57.025 80.5748 56.5044 79.1034 56.0178 77.6095C55.7461 76.7946 54.7275 73.4106 54.7162 73.3766C54.4786 73.4219 54.3088 73.4785 53.9805 73.4785C53.675 73.4785 53.4599 73.4106 53.2449 73.3766C52.7469 75.4478 50.97 80.4276 50.8003 80.8803L50.3815 81.9781L50.0646 81.0274H50.0533ZM69.2708 84.9887C69.5764 84.966 70.0404 84.8868 70.5158 84.8868C70.9911 84.8868 71.5684 84.966 71.8173 84.9887C71.0591 83.3476 69.9612 80.7898 69.3161 79.3185C68.7163 77.8924 67.709 75.527 66.9054 73.2069C66.7243 73.2522 66.5546 73.2861 66.3735 73.2861C66.1698 73.2861 66 73.2522 65.8189 73.2069C65.4115 74.599 64.4381 76.7946 62.7518 80.62L60.8051 84.9887C61.0428 84.9547 61.2805 84.8868 61.5634 84.8868C61.8351 84.8868 62.152 84.9547 62.367 84.9887C62.6386 84.0266 63.1705 82.6119 63.7025 81.3104C64.3702 81.2764 65.038 81.2425 65.7171 81.2425C66.4414 81.2425 67.1431 81.2764 67.8674 81.3104L68.5691 83.1099L69.2708 84.9887ZM67.3807 80.2578C66.8601 80.2918 66.3622 80.3258 65.8415 80.3258C65.253 80.3258 64.6871 80.2692 64.0986 80.2578L65.8076 76.0929L67.3807 80.2578ZM76.6274 76.3985C76.6274 75.7534 76.6387 75.1083 76.6613 74.4971C77.8157 74.4971 79.0041 74.5197 80 74.6216C79.9548 74.35 79.9208 74.2028 79.9208 74.0104C79.9208 73.8746 79.9548 73.6596 80 73.3654C78.3929 73.4446 76.9216 73.4672 75.5295 73.4672C74.2393 73.4672 72.3832 73.4446 71.059 73.3654C71.1043 73.5691 71.1382 73.7841 71.1382 73.9878C71.1382 74.1915 71.1043 74.4066 71.059 74.6103C71.9192 74.5197 73.515 74.4858 73.6734 74.4858H74.5109C74.5335 75.1422 74.5449 75.7421 74.5449 76.3645V81.0953C74.5562 82.3856 74.4543 83.6871 74.3978 84.9773C74.9976 84.9094 75.2579 84.8755 75.5409 84.8755C75.7446 84.8755 76.2765 84.9207 76.7632 84.9773C76.7179 84.502 76.65 83.9474 76.65 82.6572V76.3872L76.6274 76.3985Z" fill="#4E4E4E"/>
</svg>
