<svg width="212" height="51" viewBox="0 0 212 51" fill="none" xmlns="http://www.w3.org/2000/svg">
<path d="M17.3595 25.7596H17.2649C17.2649 25.7596 17.1547 25.8069 17.1547 25.8699C17.1232 26.563 16.9971 27.0198 16.7766 27.2719C16.5561 27.5082 16.1938 27.6342 15.7054 27.6342H14.6185C14.0199 27.6342 13.5946 27.5239 13.3583 27.3349C13.122 27.1301 13.0116 26.7835 13.0116 26.2794V19.994C13.0116 19.6632 13.0274 19.553 13.0432 19.5057C13.0589 19.4585 13.1062 19.3954 13.185 19.3639C13.2323 19.3324 13.3425 19.3009 13.5946 19.3009C13.6576 19.3009 13.7048 19.2536 13.7048 19.1906V19.0961C13.7048 19.0961 13.6576 18.9858 13.5946 18.9858H11.2001C11.2001 18.9858 11.0898 19.0331 11.0898 19.0961V19.1906C11.0898 19.1906 11.1371 19.3009 11.2001 19.3009C11.5782 19.3009 11.6727 19.3955 11.6885 19.427C11.7515 19.5215 11.7672 19.6947 11.7672 19.931V27.2561C11.7672 27.5397 11.72 27.6657 11.6727 27.7287C11.6097 27.8075 11.4522 27.839 11.2159 27.839C11.1529 27.839 11.1056 27.8862 11.1056 27.9492V28.0437C11.1056 28.0437 11.1529 28.154 11.2159 28.154H17.391C17.391 28.154 17.5013 28.1068 17.5013 28.0437V25.8856C17.5013 25.8856 17.454 25.7754 17.391 25.7754L17.3595 25.7596Z" fill="black"/>
<path d="M29.3788 27.8074C29.1425 27.7917 29.048 27.7287 29.0165 27.6814C28.9692 27.6342 28.9062 27.4767 28.8432 27.0828L27.898 20.2933C27.8822 20.1358 27.8666 19.994 27.8666 19.8838C27.8666 19.4742 28.0555 19.2694 28.4808 19.2379C28.5439 19.2379 28.5911 19.1907 28.5911 19.1276V19.0331C28.5911 19.0331 28.5439 18.9229 28.4808 18.9229H27.0631C27.0631 18.9229 26.9844 18.9543 26.9686 18.9858L23.9126 26.0746L20.8565 18.9858C20.8565 18.9858 20.7935 18.9229 20.762 18.9229H19.0764C19.0764 18.9229 18.9661 18.9701 18.9661 19.0331V19.1276C18.9661 19.1276 19.0134 19.2379 19.0764 19.2379C19.2182 19.2379 19.3599 19.2694 19.5175 19.3482C19.612 19.3954 19.7695 19.5372 19.9586 19.994L18.9346 27.2088C18.9346 27.3349 18.9031 27.4609 18.8716 27.5712C18.8401 27.6657 18.8086 27.7287 18.7613 27.7602C18.7613 27.7602 18.6825 27.8074 18.4305 27.8074C18.3675 27.8074 18.3203 27.8547 18.3203 27.9177V28.0122C18.3203 28.0122 18.3675 28.1225 18.4305 28.1225H19.8011C19.8011 28.1225 19.9113 28.0753 19.9113 28.0122V27.9177C19.9113 27.9177 19.8641 27.8074 19.8011 27.8074C19.5333 27.8074 19.5018 27.6972 19.5018 27.5712C19.5018 27.4451 19.5017 27.3349 19.5175 27.2404L20.3682 21.0022L23.44 28.0437C23.44 28.0437 23.503 28.1068 23.5345 28.1068H23.5975C23.5975 28.1068 23.6762 28.0752 23.692 28.0437L26.7481 20.9865L27.6145 27.1773C27.646 27.3979 27.646 27.4767 27.646 27.5239C27.646 27.7287 27.5673 27.8074 27.3782 27.8074H27.3624C27.3309 27.8074 27.3152 27.8075 27.2837 27.839C27.268 27.8547 27.2522 27.8862 27.2522 27.9177V28.0122C27.2522 28.0122 27.2994 28.1225 27.3624 28.1225H29.3788C29.3788 28.1225 29.489 28.0753 29.489 28.0122V27.9177C29.489 27.9177 29.4418 27.8074 29.3945 27.8074H29.3788Z" fill="black"/>
<path d="M41.6348 18.9546H39.2245C39.2245 18.9546 39.1142 19.0019 39.1142 19.0649V19.1594C39.1142 19.1594 39.1615 19.2697 39.2245 19.2697C39.5238 19.2697 39.6498 19.3326 39.6971 19.3799C39.7286 19.4114 39.8074 19.5375 39.8074 19.9943V28.2331C39.8074 29.131 39.6813 29.7768 39.4135 30.1391C39.1615 30.5015 38.7992 30.6747 38.2952 30.6747C38.0904 30.6747 37.9328 30.659 37.8383 30.6275C37.8383 30.6275 37.8226 30.6275 37.8068 30.6275C37.7911 30.6275 37.7595 30.6275 37.7437 30.6432C37.7122 30.659 37.6965 30.6905 37.6965 30.722V30.8323C37.6965 30.8323 37.6965 30.9268 37.7595 30.9426C38.1376 31.0686 38.5157 31.1316 38.8938 31.1316C39.2876 31.1316 39.6341 31.0371 39.9334 30.8795C40.2327 30.7062 40.469 30.4857 40.6423 30.2022C40.8156 29.9186 40.9416 29.5878 40.9888 29.2254C41.0361 28.8631 41.0677 28.3276 41.0677 27.5872V19.9628C41.0677 19.7108 41.0992 19.5217 41.1622 19.4114C41.2094 19.3169 41.3827 19.2697 41.6505 19.2697C41.7135 19.2697 41.7607 19.2224 41.7607 19.1594V19.0649C41.7607 19.0649 41.7135 18.9546 41.6505 18.9546H41.6348Z" fill="black"/>
<path d="M51.3385 19.9943C50.8817 19.632 50.3304 19.3642 49.716 19.2066C49.1016 19.0334 48.2667 18.9546 47.2113 18.9546H43.0998C43.0998 18.9546 42.9895 19.0019 42.9895 19.0649V19.1594C42.9895 19.1594 43.0368 19.2697 43.0998 19.2697C43.3203 19.2697 43.4778 19.3169 43.5408 19.3799C43.5723 19.4114 43.6353 19.569 43.6353 20.1991V26.7207C43.6353 27.2721 43.5881 27.5242 43.5408 27.6344C43.5093 27.7132 43.4306 27.8235 43.2101 27.8235H43.0998C43.0998 27.8235 42.9895 27.8707 42.9895 27.9337V28.0283C42.9895 28.0283 43.0368 28.1385 43.0998 28.1385H47.3058C48.4085 28.1385 49.2276 28.0598 49.7632 27.8865C50.2988 27.7132 50.8187 27.3981 51.2913 26.9255C51.7639 26.4687 52.1577 25.9016 52.4255 25.2557C52.709 24.6099 52.8508 23.9483 52.8508 23.2866C52.8508 22.625 52.709 21.9634 52.4412 21.3963C52.1734 20.8292 51.7953 20.3724 51.3385 20.0101V19.9943ZM50.6611 26.4214C49.9995 27.2563 48.8496 27.6659 47.2113 27.6659C46.6127 27.6659 46.1401 27.6187 45.7936 27.5242C45.4627 27.4296 45.2265 27.3036 45.1004 27.0988C44.9587 26.9098 44.8956 26.5947 44.8956 26.1852V19.3484H46.1558C47.9989 19.3484 49.3852 19.7738 50.2831 20.6402C51.181 21.4908 51.6378 22.5147 51.6378 23.6647C51.6378 24.6571 51.307 25.5708 50.6454 26.4214H50.6611Z" fill="black"/>
<path d="M56.5526 18.9546H54.1583C54.1583 18.9546 54.048 19.0019 54.048 19.0649V19.1594C54.048 19.1594 54.0479 19.2224 54.0794 19.2381C54.0952 19.2539 54.1268 19.2697 54.1583 19.2697C54.1583 19.2697 54.2055 19.2697 54.237 19.2697C54.4261 19.2697 54.552 19.3169 54.5993 19.3957C54.6466 19.4744 54.7096 19.6792 54.7096 20.1675V26.9728C54.7096 27.4769 54.6466 27.6502 54.6151 27.6975C54.5836 27.7447 54.4891 27.8235 54.1425 27.8235C54.111 27.8235 54.0795 27.8235 54.0638 27.855C54.048 27.8865 54.0322 27.9022 54.0322 27.9337V28.0283C54.0322 28.0283 54.0795 28.1385 54.1425 28.1385H56.5369C56.5369 28.1385 56.6472 28.0913 56.6472 28.0283V27.9337C56.6472 27.9337 56.5999 27.8235 56.5369 27.8235C56.2848 27.8235 56.1746 27.7919 56.1274 27.7604C56.0644 27.7132 56.0171 27.6659 56.0013 27.6029C56.0013 27.5714 55.9698 27.4454 55.9698 26.9571V20.0888C55.9698 19.6477 55.9856 19.506 56.0013 19.4587C56.0171 19.3957 56.0801 19.3484 56.1904 19.3169C56.3006 19.2854 56.3951 19.2697 56.4739 19.2697C56.4897 19.2697 56.5054 19.2697 56.5369 19.2697C56.5369 19.2697 56.5842 19.2696 56.6157 19.2381C56.6315 19.2224 56.6472 19.1909 56.6472 19.1594V19.0649C56.6472 19.0649 56.5999 18.9546 56.5369 18.9546H56.5526Z" fill="black"/>
<path d="M75.4561 18.9546H73.1719C73.1719 18.9546 73.0617 19.0019 73.0617 19.0649V19.1594C73.0617 19.1594 73.1089 19.2697 73.1719 19.2697C73.4082 19.2697 73.5657 19.3169 73.5973 19.4114C73.6288 19.4902 73.676 19.6792 73.676 20.1046V23.2079H68.9817V19.821C68.9817 19.5375 69.0447 19.4429 69.0762 19.3957C69.1234 19.3484 69.2494 19.3012 69.533 19.2697C69.596 19.2697 69.6275 19.2224 69.6275 19.1594V19.0649C69.6275 19.0649 69.5803 18.9546 69.5173 18.9546H67.2016C67.2016 18.9546 67.0913 19.0019 67.0913 19.0649V19.1594C67.0913 19.1594 67.1386 19.2697 67.2016 19.2697C67.5324 19.2697 67.627 19.3642 67.6427 19.3957C67.6742 19.4429 67.7215 19.6162 67.7215 20.1203V27.3194C67.7215 27.6659 67.5796 27.8235 67.2646 27.8235C67.2488 27.8235 67.2173 27.8235 67.2016 27.8235C67.1701 27.8235 67.1544 27.8235 67.1228 27.855C67.1071 27.8707 67.0913 27.9022 67.0913 27.9337V28.0283C67.0913 28.0283 67.1386 28.1385 67.2016 28.1385H69.5173C69.5173 28.1385 69.6275 28.0913 69.6275 28.0283V27.9337C69.6275 27.9337 69.5803 27.8235 69.5173 27.8235C69.2968 27.8235 69.1864 27.7919 69.1392 27.7604C69.0762 27.7132 69.029 27.6502 69.0132 27.5872C68.9975 27.5399 68.9659 27.4139 68.9659 27.0043V23.6647H73.6602V26.9571C73.6602 27.5242 73.5972 27.6659 73.5657 27.7132C73.5027 27.792 73.361 27.8235 73.1562 27.8235C73.0932 27.8235 73.0459 27.8707 73.0459 27.9337V28.0283C73.0459 28.0283 73.0932 28.1385 73.1562 28.1385H75.4403C75.4403 28.1385 75.5506 28.0913 75.5506 28.0283V27.9337C75.5506 27.9337 75.5033 27.8235 75.4403 27.8235C75.2198 27.8235 75.1253 27.7762 75.0938 27.7604C75.0308 27.7132 74.9835 27.6659 74.9677 27.6029C74.9677 27.5714 74.9205 27.4454 74.9205 26.9728V20.1046C74.9205 19.6477 74.952 19.506 74.9677 19.4587C74.9835 19.3957 75.0308 19.3484 75.0938 19.3169C75.1411 19.2854 75.2513 19.2697 75.4561 19.2697C75.5191 19.2697 75.5664 19.2224 75.5664 19.1594V19.0649C75.5664 19.0649 75.5191 18.9546 75.4561 18.9546Z" fill="black"/>
<path d="M90.1378 27.2879H90.1062C90.0905 27.2879 90.0748 27.2879 90.059 27.2879C89.681 27.5084 89.3659 27.6187 89.0824 27.6187C88.7988 27.6187 88.4995 27.5399 88.2002 27.3666C87.8851 27.1933 87.444 26.705 86.8611 25.9016C86.2783 25.0825 85.916 24.5626 85.7742 24.3106L85.2071 23.4284C85.6639 23.1448 86.042 22.7983 86.2941 22.4045C86.5776 21.9791 86.7194 21.5223 86.7194 21.0497C86.7194 20.6402 86.6406 20.2778 86.4673 19.9943C86.3098 19.7107 86.0578 19.4744 85.7428 19.3012C85.4277 19.1279 85.1126 19.0334 84.8133 19.0018C84.5297 18.9703 84.0414 18.9546 83.4113 18.9546H80.8751C80.8751 18.9546 80.7648 19.0019 80.7648 19.0649V19.1594C80.7648 19.1594 80.8121 19.2697 80.8751 19.2697C81.0484 19.2697 81.269 19.3011 81.332 19.4429C81.3792 19.5847 81.4107 19.758 81.4107 19.9785V27.0988C81.4107 27.4927 81.3635 27.6502 81.3162 27.7132C81.2847 27.7604 81.1901 27.8235 80.8593 27.8392C80.7963 27.8392 80.749 27.8865 80.749 27.9495V28.044C80.749 28.044 80.7963 28.1543 80.8593 28.1543H83.175C83.175 28.1543 83.2853 28.107 83.2853 28.044V27.9495C83.2853 27.9495 83.238 27.8392 83.175 27.8392C82.9545 27.8392 82.7969 27.7919 82.7497 27.7132C82.7024 27.6502 82.6552 27.4927 82.6552 27.1776V23.8695H84.0099L84.8606 25.1612C84.8606 25.1612 84.8605 25.1927 84.892 25.2085C85.8215 26.5947 86.4674 27.4297 86.8455 27.7447C87.2393 28.0598 87.7118 28.2331 88.2474 28.2331C89.0508 28.2331 89.7124 28.0282 90.2165 27.6187C90.248 27.5872 90.2638 27.5399 90.2481 27.5084L90.2165 27.3824C90.2165 27.3824 90.185 27.3194 90.1535 27.3194L90.1378 27.2879ZM83.4743 23.3811H82.6394V19.3957H83.2695C84.1202 19.3957 84.703 19.632 85.0339 20.0888C85.3647 20.5614 85.538 21.0655 85.538 21.5853C85.538 22.1052 85.3647 22.562 85.0339 22.877C84.703 23.2079 84.1674 23.3654 83.4586 23.3654L83.4743 23.3811Z" fill="black"/>
<path d="M97.1164 26.6731H97.0219C97.0219 26.6731 96.9274 26.7046 96.9116 26.7677C96.8486 27.1615 96.7698 27.319 96.7226 27.382C96.6438 27.4766 96.5335 27.5238 96.4233 27.5553C96.3288 27.5711 96.0925 27.6026 95.4939 27.6026H93.9186C93.5878 27.6026 93.3357 27.5868 93.1782 27.5396C93.0364 27.5081 92.9419 27.4135 92.8789 27.256C92.8159 27.0827 92.7686 26.7992 92.7686 26.3896V23.7274H95.4781C95.7144 23.7274 95.8089 23.7589 95.8404 23.7746C95.8877 23.7904 95.9192 23.8534 95.9349 23.9322C95.9349 23.9794 95.9822 24.0267 96.0452 24.0267H96.1397C96.1397 24.0267 96.25 23.9794 96.25 23.9164V23.0658C96.25 23.0658 96.2027 22.9555 96.1397 22.9555H96.0452C96.0452 22.9555 95.9349 23.0027 95.9349 23.05C95.9349 23.1288 95.8877 23.176 95.872 23.1918C95.8405 23.2075 95.7617 23.2548 95.4152 23.2548H92.7844V19.4583H95.6356C96.0295 19.4583 96.1398 19.5214 96.1713 19.5529C96.2028 19.5844 96.2973 19.7262 96.4548 20.309C96.4548 20.3563 96.5021 20.3878 96.5651 20.3878H96.6596C96.6596 20.3878 96.7699 20.3405 96.7699 20.2775V19.0488C96.7699 19.0488 96.7226 18.9385 96.6596 18.9385H91.0358C91.0358 18.9385 90.9255 18.9857 90.9255 19.0488V19.159C90.9255 19.159 90.9728 19.2693 91.0358 19.2693C91.2879 19.2693 91.4454 19.3166 91.4769 19.4111C91.5242 19.5214 91.5557 19.7419 91.5557 20.057V27.2875C91.5557 27.6183 91.4769 27.6971 91.4454 27.7128C91.3509 27.7759 91.2091 27.8074 91.0201 27.8074C90.957 27.8074 90.9255 27.8546 90.9255 27.9176V28.0121C90.9255 28.0121 90.9728 28.1224 91.0358 28.1224H97.1637C97.1637 28.1224 97.274 28.0752 97.274 28.0121V26.7834C97.274 26.7834 97.2267 26.6731 97.1637 26.6731H97.1164Z" fill="black"/>
<path d="M102.457 23.1447C102.11 22.9872 101.48 22.7508 100.566 22.4358C100.047 22.231 99.7157 22.0105 99.5582 21.79C99.4006 21.5694 99.3219 21.3016 99.3219 20.9865C99.3219 20.514 99.4952 20.1359 99.826 19.8051C100.157 19.4743 100.629 19.301 101.212 19.301C101.559 19.301 101.874 19.364 102.142 19.49C102.409 19.616 102.662 19.7893 102.882 20.0099C102.977 20.1044 103.181 20.3249 103.213 20.3564C103.213 20.3564 103.213 20.3564 103.229 20.3722C103.244 20.3879 103.276 20.4037 103.292 20.4037C103.292 20.4037 103.292 20.4037 103.307 20.4037H103.386C103.386 20.4037 103.449 20.3722 103.465 20.3407C103.481 20.3092 103.481 20.2777 103.465 20.2462L103.04 19.1277C103.04 19.1277 102.977 19.0489 102.945 19.0489C102.929 19.0489 102.866 19.0174 102.331 18.9072C101.984 18.8441 101.638 18.7969 101.338 18.7969C100.535 18.7969 99.889 19.0489 99.3849 19.5373C98.8966 20.0256 98.6446 20.64 98.6446 21.3646C98.6446 21.7584 98.7391 22.1523 98.9439 22.5146C99.1329 22.8926 99.3849 23.1762 99.6842 23.3652C99.9678 23.5543 100.456 23.759 101.149 24.0111C101.827 24.2474 102.283 24.4364 102.52 24.594C102.756 24.7515 102.929 24.9248 103.071 25.1296C103.197 25.3343 103.26 25.5706 103.26 25.8542C103.26 26.3268 103.071 26.7363 102.709 27.0829C102.331 27.4295 101.779 27.6027 101.039 27.6027C100.236 27.6027 99.6369 27.4452 99.2589 27.1144C98.8966 26.7993 98.6918 26.2165 98.6918 25.3973C98.6918 25.3343 98.6445 25.2871 98.5815 25.2871H98.487C98.487 25.2871 98.3767 25.3343 98.3767 25.3973V27.9965C98.3767 27.9965 98.424 28.1068 98.487 28.1068H100.881C101.007 28.1068 101.275 28.0911 101.669 28.0438C102.079 27.9965 102.378 27.9336 102.567 27.8391C102.756 27.7445 102.945 27.6185 103.134 27.4452C103.323 27.272 103.481 27.0829 103.607 26.8623C103.733 26.6576 103.827 26.4213 103.89 26.2007C103.953 25.9802 103.985 25.7282 103.985 25.4761C103.985 24.8618 103.812 24.3577 103.481 23.9796C103.15 23.6015 102.819 23.318 102.457 23.1605V23.1447Z" fill="black"/>
<path d="M107.545 18.9546H105.15C105.15 18.9546 105.04 19.0019 105.04 19.0649V19.1594C105.04 19.1594 105.04 19.2224 105.072 19.2381C105.087 19.2539 105.119 19.2697 105.15 19.2697C105.15 19.2697 105.198 19.2697 105.229 19.2697C105.418 19.2697 105.544 19.3169 105.591 19.3957C105.639 19.4744 105.702 19.6792 105.702 20.1833V26.9886C105.702 27.4927 105.639 27.6659 105.607 27.7132C105.576 27.7604 105.481 27.8392 105.135 27.8392C105.103 27.8392 105.072 27.8392 105.056 27.8707C105.04 27.8865 105.024 27.918 105.024 27.9495V28.044C105.024 28.044 105.072 28.1543 105.135 28.1543H107.529C107.529 28.1543 107.639 28.107 107.639 28.044V27.9495C107.639 27.9495 107.592 27.8392 107.529 27.8392C107.277 27.8392 107.167 27.8077 107.12 27.7762C107.057 27.729 107.009 27.6817 106.994 27.6187C106.994 27.5872 106.962 27.4611 106.962 26.9728V20.1046C106.962 19.6792 106.978 19.5217 106.994 19.4745C107.009 19.4115 107.104 19.3641 107.183 19.3326C107.293 19.3011 107.387 19.2854 107.466 19.2854C107.482 19.2854 107.498 19.2854 107.529 19.2854C107.529 19.2854 107.576 19.2854 107.608 19.2539C107.624 19.2381 107.639 19.2067 107.639 19.1752V19.0806C107.639 19.0806 107.592 18.9704 107.529 18.9704L107.545 18.9546Z" fill="black"/>
<path d="M117.264 19.9943C116.808 19.632 116.256 19.3642 115.642 19.2066C115.027 19.0334 114.193 18.9546 113.137 18.9546H109.026C109.026 18.9546 108.915 19.0019 108.915 19.0649V19.1594C108.915 19.1594 108.963 19.2697 109.026 19.2697C109.246 19.2697 109.404 19.3011 109.467 19.3799C109.498 19.4114 109.561 19.569 109.561 20.1991V26.7207C109.561 27.1618 109.53 27.4769 109.467 27.6344C109.435 27.7132 109.356 27.8235 109.136 27.8235H109.026C109.026 27.8235 108.915 27.8707 108.915 27.9337V28.0283C108.915 28.0283 108.963 28.1385 109.026 28.1385H113.232C114.334 28.1385 115.153 28.0598 115.673 27.8865C116.209 27.7132 116.729 27.3981 117.201 26.9255C117.674 26.4687 118.068 25.9016 118.336 25.2557C118.619 24.6099 118.761 23.9483 118.761 23.2866C118.761 22.625 118.619 21.9634 118.351 21.3963C118.084 20.8292 117.705 20.3724 117.249 20.0101L117.264 19.9943ZM116.571 26.4214C115.91 27.2563 114.76 27.6659 113.121 27.6659C112.523 27.6659 112.05 27.6187 111.704 27.5242C111.373 27.4296 111.136 27.3036 111.01 27.0988C110.884 26.9098 110.806 26.5947 110.806 26.1852V19.3484H112.066C113.909 19.3484 115.295 19.7738 116.193 20.6402C117.091 21.4908 117.548 22.5147 117.548 23.6647C117.548 24.6571 117.217 25.5708 116.555 26.4214H116.571Z" fill="black"/>
<path d="M125.944 26.6731H125.85C125.85 26.6731 125.755 26.7046 125.739 26.7677C125.676 27.1615 125.597 27.319 125.55 27.382C125.471 27.4766 125.361 27.5238 125.251 27.5553C125.156 27.5711 124.92 27.6026 124.322 27.6026H122.746C122.415 27.6026 122.179 27.5868 122.006 27.5396C121.864 27.5081 121.77 27.4135 121.707 27.256C121.628 27.0827 121.596 26.7992 121.596 26.3896V23.7274H124.306C124.542 23.7274 124.637 23.7589 124.668 23.7746C124.715 23.7904 124.747 23.8534 124.763 23.9322C124.763 23.9794 124.81 24.0267 124.873 24.0267H124.967C124.967 24.0267 125.078 23.9794 125.078 23.9164V23.0658C125.078 23.0658 125.03 22.9555 124.967 22.9555H124.873C124.873 22.9555 124.763 23.0028 124.763 23.0658C124.763 23.1288 124.731 23.176 124.7 23.2075C124.684 23.2075 124.589 23.2548 124.243 23.2548H121.612V19.4583H124.463C124.857 19.4583 124.967 19.5214 124.999 19.5529C125.03 19.5844 125.125 19.7104 125.282 20.309C125.282 20.3563 125.345 20.3878 125.393 20.3878H125.487C125.487 20.3878 125.598 20.3405 125.598 20.2775V19.0488C125.598 19.0488 125.55 18.9385 125.487 18.9385H119.863C119.863 18.9385 119.753 18.9857 119.753 19.0488V19.159C119.753 19.159 119.8 19.2693 119.863 19.2693C120.116 19.2693 120.273 19.3166 120.305 19.4111C120.352 19.5214 120.383 19.7419 120.383 20.057V27.2875C120.383 27.6183 120.305 27.6971 120.273 27.7128C120.179 27.7759 120.037 27.8074 119.848 27.8074C119.785 27.8074 119.753 27.8546 119.753 27.9176V28.0121C119.753 28.0121 119.8 28.1224 119.863 28.1224H125.991C125.991 28.1224 126.102 28.0752 126.102 28.0121V26.7834C126.102 26.7834 126.054 26.6731 125.991 26.6731H125.944Z" fill="black"/>
<path d="M136.577 18.9546H134.844C134.844 18.9546 134.734 19.0019 134.734 19.0649V19.1594C134.734 19.1594 134.781 19.2697 134.844 19.2697C135.018 19.2697 135.144 19.3012 135.254 19.3642C135.285 19.3799 135.38 19.4902 135.38 19.8998V25.9489L128.858 19.0018C128.858 19.0018 128.811 18.9704 128.779 18.9704H127.094C127.094 18.9704 126.984 19.0176 126.984 19.0806V19.1752C126.984 19.1752 126.984 19.2381 127.015 19.2539C127.031 19.2697 127.062 19.2854 127.094 19.2854C127.094 19.2854 127.157 19.2854 127.188 19.2854C127.614 19.2854 127.881 19.4114 128.008 19.695C128.149 20.01 128.228 20.4353 128.228 20.9552V27.0201C128.228 27.5241 128.165 27.6975 128.134 27.7447C128.102 27.7762 128.008 27.855 127.645 27.855C127.582 27.855 127.535 27.9022 127.535 27.9652V28.0598C127.535 28.0598 127.582 28.17 127.645 28.17H129.362C129.362 28.17 129.473 28.1228 129.473 28.0598V27.9652C129.473 27.9652 129.441 27.8707 129.378 27.855C129.063 27.8077 128.984 27.7762 128.969 27.7604C128.937 27.7447 128.906 27.6817 128.874 27.6187C128.843 27.5242 128.827 27.3824 128.827 27.1934V20.845L135.789 28.2488C135.789 28.2488 135.837 28.2803 135.868 28.2803C135.868 28.2803 135.9 28.2803 135.915 28.2803C135.963 28.2646 135.979 28.2173 135.979 28.1858V20.0258C135.979 19.6477 136.042 19.5059 136.105 19.4429C136.183 19.3642 136.341 19.3169 136.577 19.3012C136.64 19.3012 136.687 19.2539 136.687 19.1909V19.0964C136.687 19.0964 136.64 18.9861 136.577 18.9861V18.9546Z" fill="black"/>
<path d="M147.037 26.6103C147.037 26.6103 147.021 26.6103 147.006 26.6103C146.974 26.6103 146.943 26.6103 146.927 26.6418C146.628 26.9884 146.155 27.2719 145.525 27.4767C144.895 27.6815 144.233 27.7918 143.587 27.7918C142.595 27.7918 141.728 27.524 141.035 27.0199C140.326 26.5 139.807 25.8384 139.492 25.0193C139.161 24.2159 139.003 23.4913 139.003 22.8611C139.003 21.8687 139.366 21.0023 140.09 20.3092C140.815 19.6003 141.791 19.2537 142.973 19.2537C144.154 19.2537 145.115 19.679 145.966 20.5139C145.982 20.5297 146.013 20.5455 146.045 20.5455H146.139C146.139 20.5455 146.202 20.5297 146.234 20.4982C146.249 20.4667 146.265 20.4352 146.234 20.4037L145.903 19.4585C145.903 19.4585 145.903 19.4428 145.903 19.427C145.887 19.3955 145.856 19.3797 145.824 19.3797L145.43 19.2222C145.178 19.1277 144.863 19.0332 144.501 18.9386C144.123 18.8441 143.682 18.7969 143.178 18.7969C142.154 18.7969 141.24 19.0174 140.452 19.4585C139.649 19.8996 139.035 20.514 138.609 21.2859C138.184 22.0577 137.979 22.8611 137.979 23.696C137.979 24.9248 138.405 26.0117 139.224 26.8939C140.043 27.776 141.429 28.2329 143.335 28.2329C143.855 28.2329 144.265 28.2171 144.564 28.1699C144.863 28.1383 145.493 28.0123 146.549 27.776C146.58 27.776 146.596 27.7603 146.612 27.7288L147.242 26.7678C147.242 26.7678 147.258 26.7048 147.242 26.6733C147.242 26.6418 147.21 26.6103 147.179 26.6103L147.1 26.5788L147.037 26.6103Z" fill="black"/>
<path d="M154.394 26.6735H154.299C154.299 26.6735 154.205 26.705 154.189 26.768C154.126 27.1618 154.047 27.3194 154 27.3824C153.921 27.4612 153.811 27.5241 153.701 27.5556C153.575 27.5872 153.26 27.6029 152.771 27.6029H151.196C150.865 27.6029 150.629 27.5872 150.456 27.5399C150.314 27.5084 150.219 27.4139 150.156 27.2563C150.093 27.0831 150.046 26.7995 150.046 26.3899V23.7277H152.756C152.992 23.7277 153.086 23.7592 153.118 23.775C153.165 23.7907 153.197 23.8537 153.197 23.9325C153.197 23.9798 153.244 24.027 153.307 24.027H153.401C153.401 24.027 153.512 23.9797 153.512 23.9167V23.0661C153.512 23.0661 153.464 22.9558 153.401 22.9558H153.307C153.307 22.9558 153.197 23.0031 153.197 23.0661C153.197 23.1291 153.165 23.1764 153.134 23.2079C153.102 23.2236 153.023 23.2709 152.677 23.2709H150.046V19.4745H152.897C153.291 19.4745 153.401 19.5375 153.433 19.569C153.464 19.6005 153.559 19.7422 153.716 20.3251C153.716 20.3723 153.764 20.4039 153.827 20.4039H153.921C153.921 20.4039 154.032 20.3566 154.032 20.2936V19.0649C154.032 19.0649 153.984 18.9546 153.921 18.9546H148.297C148.297 18.9546 148.187 19.0019 148.187 19.0649V19.1752C148.187 19.1752 148.234 19.2854 148.297 19.2854C148.549 19.2854 148.707 19.3327 148.739 19.4272C148.786 19.5375 148.817 19.758 148.817 20.073V27.3036C148.817 27.6187 148.754 27.7132 148.707 27.729C148.613 27.792 148.471 27.8235 148.282 27.8235C148.219 27.8235 148.187 27.8707 148.187 27.9337V28.0283C148.187 28.0283 148.234 28.1385 148.297 28.1385H154.425C154.425 28.1385 154.536 28.0913 154.536 28.0283V26.7995C154.536 26.7995 154.488 26.6893 154.425 26.6893L154.394 26.6735Z" fill="black"/>
<path d="M35.5383 11.5193H41.2723C41.2723 11.5193 41.3196 11.5193 41.3354 11.4878C41.3354 11.472 41.3511 11.4563 41.3511 11.4248L41.1621 10.2748V7.99065C41.1621 6.88795 40.8627 5.99003 40.2956 5.32841C39.7285 4.61953 38.9882 4.27295 38.0745 4.27295H37.9958C37.9958 4.27295 37.917 4.30447 37.917 4.33597L37.791 5.50167C37.791 5.50167 37.7909 5.56471 37.8224 5.58046C37.8224 5.58046 37.854 5.58046 37.8697 5.58046H37.9012L38.0587 5.50167C38.2478 5.40715 38.4368 5.34418 38.6258 5.34418C39.3504 5.34418 39.8704 6.32086 39.8704 7.70711V10.2748V10.4323H35.7588C35.7588 10.4323 35.6958 10.4638 35.68 10.4954L35.4595 11.4405C35.4595 11.4405 35.4595 11.4878 35.4595 11.5035C35.4595 11.5193 35.491 11.5351 35.5225 11.5351L35.5383 11.5193Z" fill="black"/>
<path d="M57.8917 14.1654C57.8917 13.677 57.4979 13.2832 57.0096 13.2832C56.4582 13.2832 56.1431 13.5983 56.1431 14.1654C56.1431 14.7325 56.4582 15.0318 57.0096 15.0318C57.5609 15.0318 57.8917 14.7325 57.8917 14.1654Z" fill="black"/>
<path d="M58.5217 14.1654C58.5217 14.7167 58.8368 15.0318 59.3881 15.0318C59.9395 15.0318 60.2546 14.7167 60.2546 14.1654C60.2546 13.677 59.8607 13.2832 59.3881 13.2832C58.8368 13.2832 58.5217 13.5983 58.5217 14.1654Z" fill="black"/>
<path d="M45.3997 11.346C45.6675 11.4563 45.9667 11.5035 46.329 11.5035H59.1677C60.5224 11.5035 61.3572 10.6056 61.3572 9.15631V5.42289C61.3572 5.42289 61.3573 5.37562 61.3258 5.35986C61.3258 5.35986 61.2942 5.35986 61.2785 5.35986C61.2785 5.35986 61.2785 5.35986 61.2627 5.35986L59.8765 5.70643C59.8765 5.70643 59.8135 5.75372 59.8135 5.78522L60.0813 7.81731V8.88854C60.0813 9.94398 59.6718 10.4323 58.7738 10.4323H46.7229C45.8407 10.4323 45.4153 9.94395 45.4153 8.90426V5.43866C45.4153 5.43866 45.4154 5.39138 45.3839 5.37563C45.3839 5.37563 45.3523 5.35986 45.3366 5.35986C45.3366 5.35986 45.3366 5.35986 45.3208 5.35986L43.9189 5.70643C43.9189 5.70643 43.8558 5.75372 43.8558 5.78522L44.1236 7.83308V11.283C44.1236 11.8343 43.9819 12.3541 43.6983 12.8425C43.3045 13.5041 42.7373 13.961 41.9655 14.2445L41.8709 14.276C41.8709 14.276 41.8395 14.3075 41.8237 14.3233C41.8237 14.339 41.8237 14.3705 41.8237 14.3863L42.1702 14.9691C42.1702 14.9691 42.2018 15.0006 42.2333 15.0006C42.2333 15.0006 42.2333 15.0006 42.2491 15.0006H42.3121C44.1709 14.465 45.2106 13.2521 45.3839 11.346H45.3997Z" fill="black"/>
<path d="M75.5034 2.25636C76.0547 2.25636 76.354 1.95709 76.354 1.40574C76.354 0.901646 75.9759 0.507812 75.5034 0.507812C74.952 0.507812 74.637 0.822851 74.637 1.3742C74.637 1.92555 74.9362 2.25636 75.5034 2.25636Z" fill="black"/>
<path d="M31.4583 11.5192C32.8131 11.5192 33.6638 10.6213 33.6638 9.17208V5.43866C33.6638 5.43866 33.6637 5.39138 33.6322 5.37563C33.6322 5.37563 33.6008 5.35986 33.585 5.35986C33.585 5.35986 33.585 5.35986 33.5693 5.35986L32.183 5.70643C32.183 5.70643 32.1199 5.75372 32.1199 5.78522L32.3878 7.81731V8.88854C32.3878 9.94398 31.9624 10.4323 31.0645 10.4323H19.7066C18.8245 10.4323 18.3992 9.95973 18.3992 8.9358V5.43866C18.3992 5.43866 18.3992 5.39138 18.3677 5.37563C18.3677 5.37563 18.3362 5.37563 18.3205 5.37563C18.3205 5.37563 18.3205 5.37563 18.3047 5.37563L16.9027 5.7222C16.9027 5.7222 16.8397 5.76944 16.8397 5.80094L17.1232 7.84884V8.87277C17.1232 9.89671 16.7294 10.385 15.863 10.385C15.3589 10.385 14.8391 10.1015 14.335 9.53437V6.11602C14.335 6.11602 14.3349 6.06875 14.3034 6.05299C14.3034 6.05299 14.272 6.03727 14.2562 6.03727C14.2562 6.03727 14.2562 6.03727 14.2404 6.03727L13.122 6.32081C13.122 6.32081 13.059 6.3523 13.059 6.39956V8.87277C13.059 9.89671 12.6494 10.385 11.7672 10.385C11.3419 10.385 10.9009 10.1645 10.4283 9.70767V6.11602C10.4283 6.11602 10.4282 6.06875 10.3967 6.05299C10.3967 6.05299 10.3653 6.05299 10.3495 6.05299C10.3495 6.05299 10.3495 6.05299 10.3338 6.05299L9.19951 6.33653C9.19951 6.33653 9.13653 6.36807 9.13653 6.41533V9.97549C9.13653 11.283 8.80566 12.3226 8.1913 13.0788C7.59269 13.8507 6.85238 14.2445 6.00172 14.2445C4.93053 14.2445 4.1113 13.8349 3.55995 13.0473C2.99285 12.2281 2.70933 11.1569 2.70933 9.81795V7.94336C2.70933 7.94336 2.67784 7.86456 2.63058 7.86456H1.51209C1.51209 7.86456 1.43335 7.8961 1.43335 7.94336V9.88093C1.43335 13.2836 2.89838 15.0006 5.78116 15.0006C7.24618 15.0006 8.36459 14.5753 9.18374 13.6931C9.90837 12.9213 10.3022 11.9761 10.3967 10.7946C10.9166 11.2672 11.5152 11.5035 12.1611 11.5035C13.059 11.5035 13.7049 11.1254 14.0672 10.385C14.6185 11.1254 15.3431 11.5035 16.2096 11.5035C16.8397 11.5035 17.3438 11.3144 17.7219 10.9206C18.1157 11.3144 18.6355 11.5035 19.2972 11.5035H31.4111L31.4583 11.5192Z" fill="black"/>
<path d="M44.738 2.66579C45.2893 2.66579 45.6044 2.36649 45.6044 1.83089C45.6044 1.34255 45.2106 0.94873 44.738 0.94873C44.1866 0.94873 43.8716 1.26377 43.8716 1.81512C43.8716 2.36647 44.1709 2.66579 44.738 2.66579Z" fill="black"/>
<path d="M31.8679 2.66579C32.4192 2.66579 32.7342 2.36649 32.7342 1.83089C32.7342 1.34255 32.3404 0.94873 31.8679 0.94873C31.3165 0.94873 31.0015 1.26377 31.0015 1.81512C31.0015 2.36647 31.3008 2.66579 31.8679 2.66579Z" fill="black"/>
<path d="M73.1561 2.25636C73.7074 2.25636 74.0225 1.95709 74.0225 1.40574C74.0225 0.901646 73.6444 0.507812 73.1561 0.507812C72.589 0.507812 72.2739 0.807098 72.2739 1.3742C72.2739 1.94131 72.589 2.25636 73.1561 2.25636Z" fill="black"/>
<path d="M110.963 14.1496C110.963 14.701 111.262 15.0003 111.83 15.0003C112.397 15.0003 112.68 14.701 112.68 14.1654C112.68 13.6928 112.286 13.2832 111.83 13.2832C111.278 13.2832 110.963 13.5983 110.963 14.1496Z" fill="black"/>
<path d="M148.612 11.5188C149.999 11.5188 150.818 10.6367 150.818 9.17166V1.92533C150.818 1.92533 150.818 1.87806 150.786 1.8623C150.786 1.8623 150.755 1.8623 150.739 1.8623C150.739 1.8623 150.739 1.8623 150.723 1.8623L149.353 2.20887C149.353 2.20887 149.29 2.25616 149.29 2.28766L149.558 4.30403V8.90384C149.558 9.95929 149.132 10.4476 148.234 10.4476H138.877C138.468 10.4476 138.137 10.3374 137.932 10.1326C137.68 9.88052 137.57 9.47096 137.57 8.91961V7.20255L137.711 5.59573C137.711 5.56422 137.696 5.53274 137.664 5.51698H137.601C137.003 5.28069 136.357 5.18619 135.6 5.18619C133.316 5.18619 131.867 6.72995 131.804 9.20315C131.773 10.0696 131.379 10.4634 130.544 10.4634H121.061C120.178 10.4634 119.769 9.97505 119.769 8.91961V1.97259C119.769 1.97259 119.769 1.92531 119.737 1.90956C119.737 1.90956 119.706 1.89384 119.69 1.89384C119.69 1.89384 119.69 1.89384 119.674 1.89384L118.288 2.22464C118.288 2.22464 118.225 2.27188 118.225 2.30338L118.493 4.241V9.18743C118.493 10.747 119.233 11.5346 120.683 11.5346H130.969C131.442 11.5346 131.851 11.4086 132.198 11.1723C132.639 12.0702 133.332 12.5113 134.246 12.5113C135.238 12.5113 136.294 11.8969 136.971 10.9202C137.444 11.3298 137.948 11.5346 138.515 11.5346H148.612V11.5188ZM136.294 10.4791C135.805 11.062 135.238 11.3456 134.608 11.3456C133.71 11.3456 133.112 10.3531 133.112 8.87235C133.112 8.00595 133.285 7.36008 133.616 6.85599C133.978 6.30464 134.529 6.03686 135.254 6.03686C135.506 6.03686 135.79 6.08411 136.152 6.17863L136.294 7.24981V10.4791Z" fill="black"/>
<path d="M91.7919 11.5192H116.114C116.114 11.5192 116.162 11.5192 116.177 11.4877C116.177 11.4877 116.193 11.4562 116.193 11.4247V11.3302C116.099 10.1172 115.5 8.6522 114.382 6.96664C113.121 5.02904 111.94 4.09961 110.79 4.09961C109.451 4.09961 108.458 5.35986 108.317 7.2187V7.32893C108.317 7.32893 108.317 7.3762 108.317 7.39195C108.317 7.39195 108.348 7.40772 108.364 7.40772L109.467 7.25018C109.467 7.25018 109.514 7.23445 109.514 7.2187C109.514 7.20294 109.514 7.17142 109.514 7.15567L109.482 7.04539C109.372 6.71458 109.309 6.41529 109.309 6.179C109.309 5.51738 109.656 5.06051 110.191 5.06051C110.947 5.06051 111.814 5.80092 112.775 7.25018C113.531 8.36864 114.051 9.42407 114.35 10.385H108.175H97.3527V8.85696C97.3369 7.75426 97.0534 6.85634 96.4863 6.19472C95.9192 5.48584 95.1787 5.1393 94.2651 5.1393H94.1863C94.1863 5.1393 94.1076 5.17078 94.1076 5.20228L93.9815 6.36803C93.9815 6.36803 93.9816 6.4153 94.0131 6.43105C94.0131 6.43105 94.0445 6.43105 94.0603 6.43105H94.0918L94.2493 6.35226C94.4383 6.25774 94.6275 6.19472 94.8165 6.19472C95.5411 6.19472 96.0609 7.1714 96.0609 8.55765V10.2117V10.3693H91.9495C91.9495 10.3693 91.8865 10.4007 91.8707 10.4322L91.6501 11.3774C91.6501 11.3774 91.6501 11.4247 91.6501 11.4405C91.6501 11.4562 91.6816 11.4719 91.7131 11.4719L91.7919 11.5192Z" fill="black"/>
<path d="M154.425 1.8623L152.913 1.98835C152.897 1.98835 152.882 1.98834 152.866 2.01984C152.866 2.0356 152.85 2.05136 152.85 2.08287L153.086 3.92593V11.4558C153.086 11.4558 153.118 11.5346 153.165 11.5346H154.299C154.299 11.5346 154.331 11.5346 154.347 11.5188C154.347 11.5188 154.362 11.4873 154.362 11.4716V3.95746L154.52 1.97259C154.52 1.95683 154.52 1.92531 154.504 1.90956C154.504 1.90956 154.473 1.89384 154.457 1.89384L154.425 1.8623Z" fill="black"/>
<path d="M62.1924 14.9687C62.1924 14.9687 62.2238 15.0002 62.2553 15.0002C62.2553 15.0002 62.2554 15.0002 62.2711 15.0002H62.3342C64.3821 14.4016 65.4217 12.9839 65.4217 10.747V5.4225C65.4217 5.4225 65.4217 5.37522 65.3901 5.35947C65.3901 5.35947 65.3587 5.34375 65.3429 5.34375C65.3429 5.34375 65.3429 5.34375 65.3272 5.34375L63.9251 5.69032C63.9251 5.69032 63.8622 5.73755 63.8622 5.76906L64.1299 7.83268V11.2826C64.1299 11.8339 63.9882 12.3537 63.7047 12.8421C63.3109 13.5037 62.7437 13.9606 61.9718 14.2441L61.8773 14.2756C61.8773 14.2756 61.8458 14.3071 61.8301 14.3229C61.8301 14.3386 61.8301 14.3701 61.8301 14.3859L62.1766 14.9687H62.1924Z" fill="black"/>
<path d="M89.9329 9.1559V5.42248C89.9329 5.42248 89.933 5.3752 89.9015 5.35945C89.9015 5.35945 89.87 5.35945 89.8542 5.35945C89.8542 5.35945 89.8542 5.35945 89.8384 5.35945L88.4522 5.70602C88.4522 5.70602 88.3892 5.7533 88.3892 5.78481L88.657 7.8169V8.88813C88.657 9.94357 88.2474 10.4319 87.3494 10.4319H77.819C76.9368 10.4319 76.5116 9.94354 76.5116 8.90385V3.26434C76.5116 3.26434 76.5115 3.21707 76.48 3.20132C76.48 3.20132 76.4485 3.18555 76.4327 3.18555C76.4327 3.18555 76.4327 3.18555 76.4169 3.18555L76.0547 3.26434C75.7711 3.32735 75.4403 3.40611 75.0622 3.50062H74.9835C74.9835 3.50062 74.9205 3.56363 74.9205 3.59514L74.9835 4.36701H74.3219C73.2664 4.36701 72.4 4.69785 71.7384 5.32796C71.0925 5.97383 70.7617 6.84023 70.7617 7.87992C70.7617 9.88054 71.7542 11.125 73.3452 11.125C74.1959 11.0935 74.889 10.9045 75.4246 10.5736C75.5506 10.7627 75.7554 10.936 76.0075 11.0935C76.4328 11.3456 76.9053 11.4873 77.4252 11.4873H87.759C89.1138 11.4873 89.9487 10.5894 89.9487 9.14013L89.9329 9.1559ZM73.7075 10.0066C72.6363 10.0066 72.1007 9.23466 72.0849 7.62787C72.0849 6.93474 72.2897 6.38341 72.7151 5.92658C73.1404 5.46975 73.6287 5.2492 74.2116 5.23345C74.4479 5.23345 74.7314 5.23345 75.0938 5.23345L75.1725 9.77029C74.6527 9.94357 74.1486 10.0223 73.6917 10.0223L73.7075 10.0066Z" fill="black"/>
<path d="M84.9868 14.1654C84.9868 14.7167 85.302 15.0318 85.8533 15.0318C86.4047 15.0318 86.7355 14.7325 86.7355 14.1654C86.7355 13.677 86.3416 13.2832 85.8533 13.2832C85.302 13.2832 84.9868 13.5983 84.9868 14.1654Z" fill="black"/>
<path d="M87.3496 14.1654C87.3496 14.7167 87.6647 15.0318 88.2161 15.0318C88.7674 15.0318 89.0825 14.7167 89.0825 14.1654C89.0825 13.677 88.6887 13.2832 88.2161 13.2832C87.6647 13.2832 87.3496 13.5983 87.3496 14.1654Z" fill="black"/>
<path d="M10.0346 27.8075C9.73526 27.8075 9.53042 27.6658 9.38865 27.3507C9.18386 26.9096 9.15241 26.8308 9.15241 26.8151C9.15241 26.8151 9.15241 26.7836 9.15241 26.7678L5.95453 18.8599C5.95453 18.8599 5.89152 18.7969 5.86002 18.7969H5.70253C5.70253 18.7969 5.62377 18.8284 5.60801 18.8599L2.36292 27.0514C2.18964 27.4767 2.07931 27.6343 2.00054 27.6815C1.90603 27.7603 1.76426 27.7918 1.62249 27.7918C1.55948 27.7918 1.51221 27.839 1.51221 27.902V27.9965C1.51221 27.9965 1.55948 28.1068 1.62249 28.1068H2.94577C2.94577 28.1068 3.05605 28.0596 3.05605 27.9965V27.902C3.05605 27.902 3.00878 27.7918 2.94577 27.7918C2.75674 27.7918 2.75675 27.7288 2.75675 27.6973C2.75675 27.6973 2.75668 27.6185 2.8827 27.2877L3.71765 25.1768H7.16753L7.93941 27.0829C7.93941 27.0829 7.93941 27.0986 7.93941 27.1144C7.93941 27.1616 7.97096 27.1932 7.98671 27.2089C8.09698 27.461 8.11267 27.587 8.11267 27.6343C8.11267 27.6815 8.11269 27.7445 7.93941 27.7445C7.8764 27.7445 7.82913 27.7918 7.82913 27.8548V27.9493C7.82913 27.9493 7.8764 28.0596 7.93941 28.0596H10.0346C10.0346 28.0596 10.1448 28.0123 10.1448 27.9493V27.8548C10.1448 27.8548 10.0976 27.7445 10.0346 27.7445V27.8075ZM3.87514 24.7357L5.40322 20.8763L6.96274 24.7357H3.87514Z" fill="black"/>
<path d="M38.6101 28.0123V27.9178C38.6101 27.9178 38.5629 27.8075 38.4999 27.8075C38.2006 27.8075 37.9958 27.6658 37.854 27.3507C37.6492 26.9096 37.6177 26.8308 37.6177 26.8151C37.6177 26.8151 37.6177 26.7836 37.6177 26.7678L34.4199 18.8599C34.4199 18.8599 34.3569 18.7969 34.3253 18.7969H34.1679C34.1679 18.7969 34.0891 18.8284 34.0733 18.8599L30.8283 27.0514C30.655 27.4767 30.5446 27.6343 30.4659 27.6815C30.3714 27.7603 30.2296 27.7918 30.0878 27.7918C30.0248 27.7918 29.9775 27.839 29.9775 27.902V27.9965C29.9775 27.9965 30.0248 28.1068 30.0878 28.1068H31.4111C31.4111 28.1068 31.5213 28.0596 31.5213 27.9965V27.902C31.5213 27.902 31.4741 27.7918 31.4111 27.7918C31.2221 27.7918 31.2221 27.7288 31.2221 27.6973C31.2221 27.6973 31.222 27.6185 31.348 27.2877L32.183 25.1768H35.6329L36.4047 27.0829C36.4047 27.0829 36.4047 27.0986 36.4047 27.1144C36.4047 27.1616 36.4362 27.1932 36.4519 27.2089C36.5622 27.461 36.578 27.587 36.578 27.6343C36.578 27.6815 36.578 27.7445 36.4047 27.7445C36.3417 27.7445 36.2945 27.7918 36.2945 27.8548V27.9493C36.2945 27.9493 36.3417 28.0596 36.4047 28.0596H38.4999C38.4999 28.0596 38.6101 28.0123 38.6101 27.9493V28.0123ZM32.3562 24.7357L33.8842 20.8763L35.4438 24.7357H32.3562Z" fill="black"/>
<path d="M66.0831 27.8075C65.7837 27.8075 65.579 27.6658 65.4372 27.3507C65.2324 26.9096 65.2009 26.8308 65.2009 26.8151C65.2009 26.8151 65.2009 26.7836 65.2009 26.7678L62.0031 18.8599C62.0031 18.8599 61.9401 18.7969 61.9086 18.7969H61.751C61.751 18.7969 61.6723 18.8284 61.6565 18.8599L58.4114 27.0514C58.2381 27.4767 58.1279 27.6343 58.0491 27.6815C57.9546 27.7603 57.8128 27.7918 57.6711 27.7918C57.6081 27.7918 57.5608 27.839 57.5608 27.902V27.9965C57.5608 27.9965 57.6081 28.1068 57.6711 28.1068H59.01C59.01 28.1068 59.1203 28.0596 59.1203 27.9965V27.902C59.1203 27.902 59.073 27.7918 59.01 27.7918C58.821 27.7918 58.821 27.7288 58.821 27.6973C58.821 27.6973 58.821 27.6185 58.9471 27.2877L59.7819 25.1768H63.2318L64.0038 27.0829C64.0038 27.0829 64.0038 27.0986 64.0038 27.1144C64.0038 27.1616 64.0352 27.1932 64.051 27.2089C64.1612 27.461 64.177 27.587 64.177 27.6343C64.177 27.6815 64.177 27.7445 64.0038 27.7445C63.9407 27.7445 63.8935 27.7918 63.8935 27.8548V27.9493C63.8935 27.9493 63.9407 28.0596 64.0038 28.0596H66.0988C66.0988 28.0596 66.2091 28.0123 66.2091 27.9493V27.8548C66.2091 27.8548 66.1618 27.7445 66.0988 27.7445L66.0831 27.8075ZM59.9237 24.7357L61.4517 20.8763L63.0113 24.7357H59.9237Z" fill="black"/>
<path d="M11.3735 47.2309H8.52226C8.52226 49.5151 7.23055 50.4602 4.41079 50.4602C2.867 50.4602 1.74854 50.0191 1.05542 49.1685C0.472559 48.4439 0.11027 47.2624 0 45.5926L0.771876 45.3091C0.771876 48.3494 1.82733 49.6884 4.42655 49.6884C5.5135 49.6884 6.26958 49.5781 6.72641 49.326C7.40379 48.9795 7.73462 48.2706 7.73462 47.2466V36.645L8.52226 36.4087V46.522H11.3735V47.2309Z" fill="black"/>
<path d="M19.2658 43.6393C19.2658 46.0337 18.3206 47.2467 16.4303 47.2467C15.3433 47.2467 14.5399 46.7899 14.0516 45.9077C13.8941 46.3646 13.5474 46.7111 13.0118 46.9631C12.5708 47.1522 12.114 47.2467 11.6257 47.2467H10.8223V46.5378H11.5312C12.9174 46.5378 13.6262 45.7974 13.6262 44.3009C13.6262 44.2379 13.6262 44.1119 13.6105 43.9701V43.6393C13.6105 41.2291 14.5557 40.0161 16.4461 40.0161C18.3364 40.0161 19.2816 41.2291 19.2816 43.6393H19.2658ZM18.4781 43.6393C18.4781 41.7017 17.785 40.725 16.4303 40.725C15.0755 40.725 14.3667 41.7017 14.3667 43.6393C14.3667 45.5769 15.0598 46.5378 16.4303 46.5378C17.8008 46.5378 18.4781 45.5612 18.4781 43.6393Z" fill="black"/>
<path d="M24.4801 47.2311H22.7158C21.5186 47.2311 20.9199 46.5694 20.9199 45.2934V36.6608L21.7076 36.3931V45.2777C21.7076 46.1126 22.0856 46.5379 22.8575 46.5379H24.4643V47.2468L24.4801 47.2311Z" fill="black"/>
<path d="M35.3338 47.2313H24.0862V46.5224H32.2304C32.2304 45.2937 32.2147 44.5218 32.1674 44.191C32.0571 43.2615 31.7263 42.5684 31.238 42.0801C30.6708 41.513 29.899 41.2295 28.9066 41.2295C27.6306 41.2295 26.5909 41.6075 25.7718 42.4109L25.2203 41.8596L30.1038 36.4248H31.112L27.1265 40.8041C27.7093 40.5993 28.308 40.5048 28.9223 40.5048C30.1668 40.5048 31.1749 40.8671 31.9311 41.6075C32.4982 42.1904 32.8763 42.9465 33.018 43.9074C33.0968 44.443 33.1126 45.3094 33.0811 46.5382H35.3495V47.247L35.3338 47.2313Z" fill="black"/>
<path d="M41.052 47.2311H40.2012C39.13 47.2311 38.3582 46.8057 37.8698 45.9866C37.3973 46.8057 36.5938 47.2311 35.4754 47.2311H34.6248V46.5222H35.3966C36.7671 46.5222 37.4603 45.7818 37.4603 44.2853V39.8744L38.2479 39.6224V44.364C38.2479 45.7818 38.941 46.5064 40.3273 46.5064H41.0677V47.2153L41.052 47.2311ZM37.3973 36.9287C37.3973 37.291 37.224 37.48 36.8774 37.48C36.5308 37.48 36.3419 37.291 36.3419 36.9287C36.3419 36.5663 36.5308 36.3931 36.8774 36.3931C37.224 36.3931 37.3973 36.5821 37.3973 36.9287ZM39.2876 36.9287C39.2876 37.291 39.1143 37.48 38.7678 37.48C38.4212 37.48 38.2321 37.291 38.2321 36.9287C38.2321 36.5663 38.4212 36.3931 38.7678 36.3931C39.1143 36.3931 39.2876 36.5821 39.2876 36.9287Z" fill="black"/>
<path d="M48.881 43.6393C48.881 46.0337 47.9359 47.2467 46.0455 47.2467C44.9586 47.2467 44.1552 46.7899 43.6668 45.9077C43.5093 46.3646 43.1628 46.7111 42.6272 46.9631C42.1861 47.1522 41.7293 47.2467 41.2409 47.2467H40.4375V46.5378H41.1464C42.5327 46.5378 43.2415 45.7974 43.2415 44.3009C43.2415 44.2379 43.2415 44.1119 43.2258 43.9701V43.6393C43.2258 41.2291 44.1709 40.0161 46.0613 40.0161C47.9516 40.0161 48.8968 41.2291 48.8968 43.6393H48.881ZM48.0934 43.6393C48.0934 41.7017 47.4003 40.725 46.0455 40.725C44.6908 40.725 43.9819 41.7017 43.9819 43.6393C43.9819 45.5769 44.675 46.5378 46.0455 46.5378C47.416 46.5378 48.0934 45.5612 48.0934 43.6393Z" fill="black"/>
<path d="M60.8533 47.2311H59.1046C57.9074 47.2311 57.3089 46.5694 57.3089 45.2935V43.1826H56.9622C56.0171 43.1826 55.2609 43.4976 54.7096 44.1435C54.1582 44.7736 53.8904 45.5928 53.8904 46.538C53.8904 47.4831 54.174 48.255 54.7254 48.8536C55.2925 49.468 56.0328 49.783 56.9622 49.783C57.8917 49.783 58.6163 49.5467 59.1991 49.0899V49.8461C58.506 50.2714 57.7814 50.4762 56.9622 50.4762C55.8438 50.4762 54.9144 50.1139 54.1583 49.3577C53.4021 48.6016 53.0398 47.6564 53.0398 46.538C53.0398 44.7421 53.9377 43.3244 55.4185 42.7573V42.1271C55.4185 40.7094 56.2692 39.6382 57.7027 39.6382C58.254 39.6382 58.7424 39.843 59.1835 40.2368L58.6163 40.7882C58.3642 40.4731 58.0335 40.3155 57.5924 40.3155C56.7102 40.3155 56.1904 40.9929 56.1904 41.9066V42.4737H57.3245L58.0965 42.458L59.467 42.4737L59.6718 43.1668H58.0965V45.262C58.0965 46.0969 58.4746 46.5222 59.278 46.5222H60.8689V47.2311H60.8533Z" fill="black"/>
<path d="M72.0222 47.231H71.2976C70.2894 47.231 69.5018 46.8687 68.9504 46.144C68.6669 47.546 67.5485 48.3967 66.0677 48.3967C64.5869 48.3967 63.6259 47.7036 63.2321 46.3488C62.7438 46.9317 62.0192 47.231 61.1055 47.231H60.3179V46.5221H60.9952C62.2397 46.5221 62.9171 45.9078 63.0589 44.679C63.0746 43.6236 63.3109 42.8044 63.7835 42.2215C64.3034 41.5442 65.0752 41.2134 66.0834 41.2134C67.9107 41.2134 68.9662 42.4263 69.0922 44.3009H69.108C69.108 45.7975 69.8168 46.5536 71.2188 46.5379H72.038V47.2467L72.0222 47.231ZM68.2731 44.8208C68.2731 42.899 67.5326 41.938 66.0834 41.938C64.6341 41.938 63.9096 42.899 63.9096 44.8208C63.9096 46.7427 64.6341 47.6878 66.0834 47.6878C67.5326 47.6878 68.2731 46.7269 68.2731 44.8208Z" fill="black"/>
<path d="M77.8349 47.2311H76.9843C75.9131 47.2311 75.1411 46.8057 74.6528 45.9866C74.1802 46.8057 73.3769 47.2311 72.2584 47.2311H71.4077V46.5222H72.1797C73.5502 46.5222 74.2433 45.7818 74.2433 44.2853V39.8744L75.031 39.6224V44.364C75.031 45.7818 75.724 46.5064 77.1102 46.5064H77.8507V47.2153L77.8349 47.2311ZM74.1802 36.9287C74.1802 37.291 74.0069 37.48 73.6604 37.48C73.3138 37.48 73.1248 37.291 73.1248 36.9287C73.1248 36.5663 73.3138 36.3931 73.6604 36.3931C74.0069 36.3931 74.1802 36.5821 74.1802 36.9287ZM76.0706 36.9287C76.0706 37.291 75.8973 37.48 75.5507 37.48C75.2042 37.48 75.0152 37.291 75.0152 36.9287C75.0152 36.5663 75.2042 36.3931 75.5507 36.3931C75.8973 36.3931 76.0706 36.5821 76.0706 36.9287Z" fill="black"/>
<path d="M88.4681 47.2311H77.126V46.5222H85.0497V45.262C85.0497 43.7339 84.9079 42.647 84.6401 41.9853C84.2148 40.9142 83.3641 40.3786 82.0724 40.3786C81.1902 40.3786 80.3081 40.7882 79.4889 41.5758L78.9376 41.0244C79.9143 40.095 80.9539 39.6382 82.0724 39.6382C83.6477 39.6382 84.7189 40.221 85.2703 41.4183C85.6484 42.2374 85.8531 43.5134 85.8531 45.2777V46.538H88.4523V47.2468L88.4681 47.2311ZM82.8285 49.9721C82.8285 50.3186 82.6553 50.4919 82.3087 50.4919C81.9622 50.4919 81.7731 50.3186 81.7731 49.9721C81.7731 49.6255 81.9622 49.4365 82.3087 49.4365C82.6553 49.4365 82.8285 49.6255 82.8285 49.9721Z" fill="black"/>
<path d="M96.3919 43.6393C96.3919 46.0337 95.4466 47.2467 93.5563 47.2467C92.4693 47.2467 91.666 46.7899 91.1777 45.9077C91.0201 46.3646 90.6735 46.7111 90.1379 46.9631C89.6968 47.1522 89.2242 47.2467 88.7517 47.2467H87.9482V46.5378H88.6571C90.0434 46.5378 90.7523 45.7974 90.7523 44.3009C90.7523 44.2379 90.7523 44.1119 90.7365 43.9701V43.6393C90.7365 41.2291 91.6817 40.0161 93.572 40.0161C95.4624 40.0161 96.4075 41.2291 96.4075 43.6393H96.3919ZM95.5884 43.6393C95.5884 41.7017 94.8953 40.725 93.5406 40.725C92.1858 40.725 91.477 41.7017 91.477 43.6393C91.477 45.5769 92.1701 46.5378 93.5406 46.5378C94.9111 46.5378 95.5884 45.5612 95.5884 43.6393Z" fill="black"/>
<path d="M144.69 46.3017H144.58L100.425 46.2387V45.8134L144.47 45.8764L151.212 36.8027L151.558 37.0547L144.69 46.3017Z" fill="black"/>
<path d="M153.369 36.8162L146.504 46.0225L146.845 46.2767L153.709 37.0705L153.369 36.8162Z" fill="black"/>
<path d="M196 46.5078H203L199.468 36.5078L196 46.5078Z" fill="black"/>
<path d="M200 34.3969L203.929 46.5078H209L202.52 26.5078L200 34.3969Z" fill="black"/>
<path d="M177 46.5078H187L181.945 32.5078L177 46.5078Z" fill="black"/>
<path d="M167.012 1.51892V46.5078H168.743L173.186 34.3621C173.186 34.3621 173.244 34.2845 173.302 34.2845C173.313 34.2845 173.325 34.2845 173.336 34.2845L174.133 34.5618C174.133 34.5618 174.19 34.5951 174.202 34.6173C174.214 34.6394 174.214 34.6727 174.202 34.706L169.885 46.4967H176.418L182.177 30.7684L178.288 20.3419C178.265 20.2865 178.288 20.2199 178.357 20.1977L179.153 19.9204C179.153 19.9204 179.176 19.9204 179.188 19.9204C179.211 19.9204 179.223 19.9204 179.234 19.9204C179.257 19.9315 179.28 19.9537 179.292 19.987L189.195 46.4967H195L178.311 1.50781H167L167.012 1.51892Z" fill="black"/>
<path d="M179.011 1.51892L191.475 36.4893L194.79 27.547C194.79 27.547 194.846 27.4693 194.89 27.4693C194.901 27.4693 194.912 27.4693 194.934 27.4693L195.7 27.7578C195.7 27.7578 195.755 27.7911 195.766 27.8133C195.777 27.8355 195.777 27.8688 195.766 27.9021L192.018 37.9982L194.735 45.6203L201.865 25.3392L196.642 10.672C196.62 10.6166 196.642 10.55 196.709 10.5278L197.474 10.2504C197.474 10.2504 197.496 10.2504 197.507 10.2504C197.518 10.2504 197.54 10.2504 197.551 10.2504C197.574 10.2615 197.596 10.2837 197.607 10.317L210.503 46.5078H212V1.50781H179L179.011 1.51892Z" fill="black"/>
</svg>
