<svg width="95" height="96" viewBox="0 0 95 96" fill="none" xmlns="http://www.w3.org/2000/svg">
<path d="M0 0.5H95.0001V95.5H0V0.5Z" fill="#0988BB"/>
<path d="M75.4447 75.488C75.4447 75.3029 75.5928 75.1671 75.7657 75.1547C75.9385 75.1547 76.0867 75.2905 76.0867 75.4757C76.0867 75.6609 75.9508 75.809 75.7657 75.809C75.5928 75.809 75.4446 75.6732 75.4323 75.488C75.4323 75.488 75.4323 75.488 75.4323 75.4757M76.6792 75.1547C76.8644 75.1547 77.0002 75.3028 77.0002 75.4757C77.0002 75.6609 76.8521 75.809 76.6792 75.809C76.494 75.809 76.3459 75.6609 76.3459 75.4757C76.3459 75.2905 76.494 75.1424 76.6792 75.1424M78.2471 77.9325C78.2471 78.3893 78.2102 78.8337 78.1484 79.2905H77.2225C76.6423 79.2905 76.3088 79.1423 76.1854 78.7967C76.0496 79.1423 75.6916 79.3646 75.3089 79.3399C74.9262 79.3893 74.5558 79.167 74.4324 78.7967C74.3089 79.1423 73.9632 79.3399 73.6052 79.2905H72.8027V79.3275C72.8027 80.2041 72.4818 80.8831 71.3707 80.8831C71.1484 80.8831 70.9385 80.8584 70.7287 80.7967L70.7903 80.3276C70.9878 80.4016 71.1977 80.4387 71.4076 80.4263C71.9261 80.4263 72.2225 80.1794 72.2225 79.3646V76.3769H72.7903V78.8337H73.6052C74.0496 78.8337 74.2472 78.6362 74.2472 77.9695V76.7473H74.815V78.0189C74.815 78.5498 74.9386 78.8831 75.3954 78.8831C75.8522 78.8831 75.9632 78.5498 75.9632 78.0189V76.5127H76.5187V78.0066C76.5187 78.6485 76.6793 78.8461 77.3336 78.8461H77.6175C77.6545 78.5621 77.6669 78.2781 77.6669 77.9818C77.6669 77.4016 77.6052 76.8337 77.457 76.2782L78.0127 76.1794C78.1608 76.7473 78.2348 77.3399 78.2224 77.9325M75.9014 74.772C75.9014 74.5992 76.0372 74.4633 76.2101 74.451C76.3829 74.451 76.5187 74.5868 76.5311 74.7596C76.5311 74.9325 76.3953 75.0806 76.2224 75.0806C76.0496 75.0806 75.9138 74.9448 75.9014 74.772ZM66.6422 78.8337H66.099C65.2966 78.8337 64.9755 78.488 64.9755 77.7843C64.9138 77.2905 65.2719 76.8337 65.7657 76.772C65.8027 76.772 65.8521 76.772 65.9015 76.772C66.1607 76.772 66.4076 76.8214 66.6545 76.9201V78.8461L66.6422 78.8337ZM68.1607 76.7226C69.173 76.8954 69.8768 77.8214 69.778 78.8337H67.2102V76.5251C66.8151 76.3893 66.3954 76.3152 65.9633 76.3029C65.1608 76.2411 64.4694 76.8337 64.4077 77.6362C64.4077 77.6979 64.4077 77.772 64.4077 77.8337C64.4077 78.7103 64.8397 79.2782 66.0249 79.2782H70.3459V78.9695C70.494 77.8708 69.8644 76.8214 68.8274 76.4386L70.5064 75.4016V74.8214L68.1607 76.2905V76.7102V76.7226ZM65.1237 75.488C65.1237 75.3029 65.2718 75.1547 65.4447 75.1547C65.6299 75.1547 65.778 75.3028 65.778 75.4757C65.778 75.6609 65.6299 75.809 65.457 75.809C65.2842 75.809 65.136 75.6732 65.1237 75.488C65.1237 75.488 65.1237 75.488 65.1237 75.4757V75.488ZM66.0373 75.488C66.0373 75.3029 66.1854 75.1547 66.3706 75.1547C66.5434 75.1547 66.6916 75.3028 66.6916 75.4757C66.6916 75.6609 66.5434 75.809 66.3706 75.809C66.1854 75.809 66.0373 75.6609 66.0373 75.488ZM61.4571 74.9325H62.0249V79.2905H61.4571V74.9325ZM47.9508 78.8337H47.2472C46.4941 78.8337 46.2102 78.5251 46.2102 77.8707C46.2102 77.1794 46.5558 76.7596 47.1114 76.7596C47.6669 76.7596 47.9632 77.0683 47.9632 77.8707V78.8337H47.9508ZM59.7163 78.8337H58.2472C58.2719 78.5251 58.2965 78.2041 58.2965 77.9201C58.2965 77.3275 58.2225 76.7349 58.0743 76.167L57.5187 76.2658C57.6545 76.8214 57.7286 77.3893 57.7286 77.9695C57.7286 78.2041 57.7039 78.5621 57.6792 78.8337H57.3953C56.741 78.8337 56.5804 78.6362 56.5804 77.9942V76.5004H56.0373V78.0189C56.0373 78.5374 55.9139 78.8831 55.4694 78.8831C55.025 78.8831 54.8891 78.5621 54.8891 78.0189V76.7473H54.3212V77.9695C54.3212 78.6362 54.1237 78.8337 53.6792 78.8337H52.8767V74.9325H52.3089V78.8337H50.8521V76.3769H50.2841V78.8337H48.5188V77.772C48.5188 76.8214 48.0867 76.3029 47.1608 76.3029C46.3583 76.2782 45.6792 76.9078 45.6422 77.7102C45.6422 77.772 45.6422 77.8461 45.6422 77.9078C45.6422 78.6362 45.42 78.8214 45.099 78.8214H44.3952V74.9201H43.8274V79.2782H45.0743C45.4323 79.3029 45.7657 79.093 45.9015 78.7596C46.0991 79.093 46.4817 79.2782 47.1854 79.2782H53.6669C54.0249 79.3276 54.3706 79.13 54.4941 78.7844C54.6175 79.1547 54.9878 79.3769 55.3706 79.3275C55.7533 79.3522 56.0991 79.13 56.2472 78.7844C56.383 79.13 56.704 79.2782 57.2842 79.2782H60.2965V74.9201H59.7286V78.8214L59.7163 78.8337ZM50.7904 80.2041C50.7904 80.3893 50.6669 80.5374 50.4817 80.5498C50.2965 80.5498 50.1483 80.4263 50.136 80.2411C50.136 80.2411 50.136 80.2164 50.136 80.2041C50.136 80.0189 50.2842 79.8708 50.4694 79.8831C50.6422 79.8831 50.7904 80.0313 50.7904 80.2041ZM49.8768 80.2041C49.8768 80.3893 49.7286 80.5374 49.5558 80.5374C49.3706 80.5374 49.2224 80.3893 49.2224 80.2164C49.2224 80.0436 49.3706 79.8831 49.5434 79.8831C49.7163 79.8831 49.8768 80.0313 49.8768 80.2041ZM40.7657 76.6485C40.7657 76.4633 40.9138 76.3152 41.099 76.3029C41.2842 76.2905 41.4324 76.451 41.4447 76.6362C41.4571 76.8214 41.2966 76.9695 41.1114 76.9819C40.9262 76.9819 40.778 76.8337 40.778 76.6485M42.1237 76.3893H42.6915V78.9818C42.6915 80.1423 42.136 80.7226 41.062 80.7226C40.2101 80.7226 39.5187 80.2658 39.5187 78.9942C39.5187 78.5991 39.5681 78.2041 39.6669 77.8214L40.2471 77.7102C40.136 78.1053 40.0742 78.5251 40.0742 78.9448C40.0742 80.0065 40.6175 80.2782 41.099 80.2782C41.6793 80.2782 42.1113 79.9695 42.1113 79.0312V76.4016L42.1237 76.3893ZM36.4941 74.9325H37.062V79.2905H36.4941V74.9325ZM32.346 78.2535C31.9633 77.8337 31.5064 77.488 31.0002 77.2288C31.3459 76.9572 31.7532 76.7843 32.1977 76.735C32.6668 76.735 32.8891 77.0066 32.8891 77.3399C32.8644 77.7103 32.667 78.0559 32.346 78.2535ZM28.1977 78.8337C27.6421 78.8337 27.3336 78.4634 27.3336 77.772C27.2595 77.2905 27.6052 76.8337 28.0866 76.772C28.1237 76.772 28.1607 76.772 28.2101 76.772C28.778 76.772 29.062 77.1424 29.062 77.7967C29.062 78.5127 28.6668 78.8461 28.1977 78.8461M34.7533 78.8337H33.6051C33.2841 78.8337 32.9755 78.7226 32.7163 78.5374C33.1484 78.2535 33.4199 77.772 33.457 77.2535C33.457 76.7596 33.099 76.2905 32.2595 76.2905C31.6052 76.3522 30.9756 76.6115 30.4694 77.0312L30.42 77.4263C30.9879 77.6609 31.494 78.0312 31.9014 78.5004C31.3705 78.7226 30.7903 78.8337 30.2101 78.8214H29.6669C29.4447 78.8214 29.1236 78.8461 29.1236 78.8461C29.4446 78.5745 29.6298 78.1671 29.6051 77.735C29.7039 77.0436 29.2224 76.4016 28.5311 76.3029C28.4323 76.2905 28.3335 76.2905 28.2348 76.3029C27.4447 76.2658 26.778 76.8831 26.741 77.6732C26.741 77.7226 26.741 77.7596 26.741 77.809C26.704 78.2041 26.8521 78.5868 27.1483 78.8461C27.1483 78.8461 26.9138 78.8214 26.7039 78.8214H25.7533V74.9201H25.1854V79.2782H30.1484C30.8768 79.2905 31.5928 79.1424 32.2471 78.8214C32.5928 79.1177 33.0373 79.2782 33.494 79.2782H35.2965V74.9201H34.7286V78.8214L34.7533 78.8337ZM27.4446 75.488C27.4446 75.3029 27.5928 75.1547 27.7656 75.1547C27.9508 75.1547 28.099 75.3028 28.099 75.4757C28.099 75.6609 27.9508 75.809 27.778 75.809C27.6052 75.809 27.457 75.6732 27.4446 75.488C27.4446 75.488 27.4446 75.488 27.4446 75.4757V75.488ZM28.3458 75.488C28.3458 75.3029 28.494 75.1547 28.6792 75.1547C28.852 75.1547 29.0002 75.3028 29.0002 75.4757C29.0002 75.6609 28.8767 75.809 28.6916 75.8214C28.5064 75.8214 28.3582 75.6979 28.3458 75.5127C28.3458 75.5127 28.3458 75.488 28.3458 75.4757M23.5188 76.3893H24.0866V79.3275C24.0866 80.2041 23.7656 80.8831 22.6545 80.8831C22.4323 80.8831 22.2224 80.8584 22.0125 80.7967L22.0743 80.3276C22.2718 80.4016 22.4817 80.4387 22.6916 80.4263C23.2101 80.4263 23.5188 80.1794 23.5188 79.3646V76.3769V76.3893ZM20.9755 80.2041C20.9755 80.3893 20.8273 80.5374 20.6545 80.5374C20.4693 80.5374 20.3212 80.3893 20.3212 80.2164C20.3212 80.0436 20.4693 79.8831 20.6422 79.8831C20.815 79.8831 20.9755 80.0313 20.9755 80.2041ZM21.8891 80.2041C21.8891 80.3893 21.7656 80.5374 21.5804 80.5498C21.3952 80.5498 21.2472 80.4263 21.2349 80.2411C21.2349 80.2411 21.2349 80.2164 21.2349 80.2041C21.2349 80.0189 21.3829 79.8708 21.5681 79.8831C21.7409 79.8831 21.8891 80.0313 21.8891 80.2041ZM18.9755 78.8337H18.4324C17.6299 78.8337 17.3089 78.488 17.3089 77.7843C17.2471 77.2905 17.6052 76.8337 18.099 76.772C18.1361 76.772 18.1854 76.772 18.2348 76.772C18.4941 76.772 18.741 76.8214 18.9879 76.9201V78.8461L18.9755 78.8337ZM21.3707 78.8337H19.5312V76.5251C19.1361 76.3893 18.7163 76.3152 18.2842 76.3029C17.4818 76.2411 16.7904 76.8337 16.7287 77.6362C16.7287 77.6979 16.7287 77.772 16.7287 77.8337C16.7287 78.7103 17.1607 79.2782 18.3459 79.2782H21.9262V76.3769H21.3583V78.8337H21.3707ZM18.3706 75.488C18.3706 75.3029 18.5188 75.1547 18.7039 75.1547C18.8768 75.1547 19.0249 75.3028 19.0249 75.4757C19.0249 75.6609 18.9015 75.809 18.7163 75.8214C18.5311 75.8214 18.3829 75.6979 18.3706 75.5127C18.3706 75.5127 18.3706 75.488 18.3706 75.4757M17.457 75.488C17.457 75.3029 17.6052 75.1547 17.778 75.1547C17.9632 75.1547 18.1114 75.3028 18.1114 75.4757C18.1114 75.6609 17.9632 75.809 17.7904 75.809C17.6175 75.809 17.4694 75.6732 17.457 75.488C17.457 75.488 17.457 75.488 17.457 75.4757V75.488ZM51.9631 56.6732C51.9631 56.6732 53.9508 58.13 54.0002 58.13C54.0496 58.13 54.5187 57.2905 54.9385 56.7103C55.3582 56.13 55.9386 55.5868 55.9386 55.3152C55.2349 54.5745 54.4199 53.9448 53.5064 53.4633C52.8767 54.3029 52.3212 55.1917 51.8397 56.13C51.2224 55.5127 50.5558 54.9572 49.8274 54.4757C49.4446 54.4757 47.8768 57.3522 47.8768 57.3522C48.5435 58.0189 49.2595 58.6362 50.0249 59.1794C50.5928 59.1794 51.9508 56.6732 51.9508 56.6732M61.2842 40.2535C62.1607 40.2535 61.9878 38.2781 61.9878 37.6609C61.9878 36.7473 61.7781 36.2535 61.6546 36.2535C61.5312 36.2535 62.025 38.4386 61.025 38.4386C60.025 38.4386 59.2471 36.9448 59.2471 35.0436C59.2471 33.1423 60.1978 29.9695 60.0991 29.7967C59.383 31.5004 58.9632 33.3029 58.8521 35.1424C58.8521 37.0436 59.1731 40.2411 61.2966 40.2411M44.8398 29.7473C45.8522 28.8461 46.8397 26.4263 47.2348 25.6485C47.6546 24.8337 48.1483 23.3769 46.5681 23.5004C44.8273 23.5745 43.0991 23.8707 41.4324 24.4016C41.2966 24.6979 41.1978 25.0189 41.1237 25.3399C40.9139 26.0806 40.7534 26.8461 40.6422 27.6115C40.7163 27.7103 44.1854 26.7596 45.5558 26.7596C45.704 26.7596 45.8397 26.7843 45.9755 26.8337C45.4693 27.4139 44.9014 27.9201 44.2718 28.3646C42.457 29.6732 39.7657 31.3028 39.5805 31.4633C39.4818 31.5621 39.5805 31.7349 39.5805 31.7349C39.5805 31.7349 44.1361 30.3646 44.8275 29.7473M33.9014 57.8954C33.6545 57.8954 33.4817 59.7226 33.4817 59.5744C33.4817 59.8584 34.2965 60.0189 35.0249 60.6609C35.8644 61.4139 36.3336 62.5004 36.2965 63.6239C36.3706 64.3029 36.2471 64.9942 35.9508 65.6238C36.6792 64.735 37.0373 63.5991 36.9633 62.451C37.0126 61.735 36.8891 61.0189 36.6052 60.3646C36.0249 59.2535 35.0619 58.3769 33.9014 57.8954ZM27.6051 41.9942C27.2471 41.9942 25.6546 44.8954 25.6546 44.8954C25.6546 44.8954 27.0249 46.1794 28.0619 47.1176C28.3953 47.4139 28.1607 47.5991 28.3953 47.5991C28.815 47.2411 29.2102 46.8461 29.5558 46.414C29.9633 46.0436 30.3213 45.6238 30.6423 45.1794C30.6423 44.5621 29.8645 43.8831 29.0867 43.2288C27.8892 42.2411 27.852 41.9942 27.6051 41.9942ZM48.3089 37.0189C48.7163 35.3769 49.0003 33.7102 49.1361 32.0312C49.062 31.809 48.5558 31.6362 48.4323 31.6362C47.4817 31.6362 44.3459 33.1053 42.3952 38.3893C41.2101 41.735 39.815 45.0066 38.2347 48.1794L38.7039 51.5991C39.3582 50.3893 39.9015 49.1176 40.3212 47.809C41.6052 44.0065 42.9755 39.0189 45.9632 36.2411C46.4817 35.6115 47.2225 35.2041 48.0249 35.0683C48.5064 35.0683 48.2225 36.1917 48.1731 36.8831C48.1731 37.0189 48.3583 37.0312 48.3336 37.0312M72.5558 22.3275C72.3583 22.3522 72.2718 24.3152 72.173 26.8213C72.0496 30.0683 72.099 34.1176 72.099 34.1176C71.5682 32.2534 70.9139 30.4387 70.1485 28.6609C67.7904 23.2658 66.8891 21.5991 66.6298 21.6238C66.3706 21.6485 65.4694 26.2782 65.0126 30.1177C64.778 32.1177 64.7781 34.1424 65.0373 36.1424C65.0373 36.1424 65.4201 32.8584 65.6793 30.5374C65.9386 28.2164 66.3088 25.8337 66.3088 25.8337C66.3088 25.8337 67.4076 27.7103 68.6792 30.4757C69.7904 32.7103 70.6545 35.0559 71.2842 37.4634C71.2842 38.9819 69.8769 41.5498 68.7657 41.5498C67.4077 41.5498 67.5311 39.0559 67.1484 39.0559C66.7163 39.0559 66.6176 40.4757 66.5805 41.7349C66.4941 45.093 64.704 46.0189 64.704 46.0189C64.704 46.0189 64.6668 45.6732 64.6051 45.2905C64.5063 44.7596 64.3829 44.1177 64.1978 44.1177C64.0126 44.1177 64.0373 44.7473 64.0867 45.3646C64.1114 45.7967 64.0866 46.2288 63.9878 46.6485C63.9384 47.0313 63.7286 47.3769 63.4076 47.6115C62.9385 47.9572 62.4323 48.2658 61.8891 48.5127C61.8274 48.2041 61.7657 47.8954 61.741 47.5868C61.6669 46.8831 61.5929 46.0313 61.3213 46.0313C60.2966 46.0313 60.1113 50.1053 57.3953 50.1053C53.9261 50.1053 54.9137 43.4387 53.494 33.2164C51.4076 18.2411 48.5312 15.0806 48.5312 15.0806L47.4694 18.3152C48.383 20.3893 49.1361 22.5127 49.741 24.6979C51.1237 30.1053 52.0866 35.6115 52.5928 41.1794C52.9014 44.1053 50.8151 46.0806 49.7163 46.0806C48.099 46.0806 49.3212 42.0436 47.3582 42.0436C45.3953 42.0436 42.778 46.772 42.778 50.0683C42.778 54.4016 44.1113 54.772 44.1113 54.772C44.1113 54.772 43.1854 58.3028 41.2101 58.3028C37.2101 58.3028 38.3335 46.6609 36.8397 39.5621C35.8891 35.0312 34.7163 33.846 34.7163 33.846C34.42 34.5004 34.1731 35.167 33.9755 35.8584C33.741 36.7349 33.704 36.7967 33.7163 36.9325C33.7781 37.1423 33.8644 37.3522 33.9755 37.5497C34.6546 39.0436 35.1607 40.5992 35.5064 42.2041C36.2348 45.5004 36.667 49.7843 36.667 49.7843C36.667 49.7843 34.2471 54.093 27.9261 54.093C21.6051 54.093 17.5065 50.0683 17.5065 44.4387C17.5065 38.809 21.7533 34.8707 24.9879 33.4633C28.2224 32.0559 34.8398 30.6856 37.3953 27.0806C39.1608 24.5868 38.9385 23.1917 38.9385 23.1917C38.3953 25.0313 37.2719 26.6485 35.7287 27.7843C33.062 29.7967 25.6793 31.2535 22.099 33.8214C18.741 36.3522 16.741 40.3152 16.7163 44.5251C16.7163 47.8955 18.5928 57.4387 29.0002 57.4387C32.2224 57.5745 35.2842 56.0559 37.1114 53.4016C37.1114 53.4016 37.7163 61.6485 41.8645 61.6485C45.5188 61.6485 43.5187 54.6362 47.6916 54.6362C47.8397 54.6362 47.9756 54.6856 48.0867 54.772C48.0867 54.772 48.3953 50.6485 48.0373 50.6485C47.4694 50.6485 46.2596 51.5127 45.1361 51.5127C44.5929 51.5744 44.0496 51.4016 43.6545 51.0189C43.6545 51.0189 45.2224 45.4633 47.2224 45.4633C48.2965 45.4633 48.2348 49.451 50.1607 49.451C52.9385 49.451 52.9879 44.7226 52.9879 44.7226C52.9879 44.7226 53.1113 45.3893 53.1977 46.3646C53.4323 48.9819 54.0373 53.772 57.3089 53.772C59.2472 53.772 60.0003 52.2535 60.4324 51.1177C60.6917 50.4387 60.9385 49.8954 60.9385 49.8954C61.0249 50.093 61.0867 50.3152 61.1237 50.5251C61.2225 51.1547 61.3583 52.0312 61.8891 52.0312C62.7163 51.7843 63.4446 51.3029 64.0125 50.6485C64.3459 50.2782 64.6175 49.8584 64.7903 49.3892C64.8521 49.4386 64.9262 49.4634 65.0003 49.4634C65.9879 48.9201 66.6793 47.9695 66.8892 46.8708C67.1114 45.7967 67.1978 44.6856 67.1484 43.5868C67.1484 42.5745 67.3336 42.4757 67.3336 42.4757C67.4324 42.7103 67.5311 42.9572 67.6052 43.2041C67.8644 44.0189 68.3336 45.2535 69.3089 45.2535C69.8521 45.2535 71.494 44.4757 72.1854 41.6362C72.4817 40.13 72.6052 38.5868 72.5558 37.0436C72.5558 33.9078 73.2842 27.2905 73.2842 27.2905C75.7286 30.5004 77.0372 34.4386 76.9755 38.4757C76.9755 42.5251 75.704 46.2535 74.9262 47.3399C69.9262 54.2288 65.7903 54.5004 57.5558 57.3893C47.9014 60.772 44.5312 64.4387 44.5312 69.4757C44.5312 72.3275 45.1237 72.5004 45.1237 72.5004C45.1237 72.5004 45.4817 72.5004 45.4817 71.8708C45.4817 71.2411 45.2348 71.5745 45.2348 70.1424C45.2348 68.6239 45.7287 63.6238 59.3213 60.1917C68.4694 57.8831 73.5682 52.8461 76.1114 47.2905C77.5311 44.13 78.2595 40.6979 78.2471 37.2288C78.2471 27.5868 72.8027 22.2411 72.5187 22.2905" fill="white"/>
<path d="M80.5552 23.7717H80.7651C80.9997 23.7717 81.1972 23.6977 81.1972 23.5002C81.1972 23.3273 81.0738 23.2162 80.8022 23.2162C80.7158 23.2162 80.6416 23.2162 80.5676 23.2409V23.7717H80.5552ZM80.5428 24.8335H80.1108V22.957C80.3453 22.9199 80.5922 22.8952 80.8268 22.8952C81.049 22.8705 81.2836 22.9199 81.4811 23.031C81.6046 23.1298 81.6663 23.2903 81.6663 23.4384C81.654 23.6483 81.4934 23.8335 81.2836 23.8705V23.8952C81.4687 23.9693 81.6046 24.1421 81.6293 24.352C81.654 24.5125 81.691 24.673 81.7651 24.8211H81.2959C81.2218 24.673 81.1725 24.5248 81.1478 24.3644C81.1107 24.1545 80.9997 24.0681 80.7651 24.0681H80.5552V24.8211L80.5428 24.8335ZM79.3824 23.8459C79.3577 24.6483 79.9874 25.315 80.7898 25.3397C80.8022 25.3397 80.8268 25.3397 80.8391 25.3397C81.6293 25.3397 82.2713 24.6977 82.2713 23.8952C82.2713 23.8829 82.2713 23.8705 82.2713 23.8459C82.3083 23.0434 81.691 22.3767 80.8886 22.3397C80.0861 22.3026 79.4195 22.9199 79.3824 23.7224C79.3824 23.7594 79.3824 23.7965 79.3824 23.8335M82.7528 23.8459C82.7775 24.9076 81.9379 25.7964 80.8762 25.8211C79.8145 25.8458 78.9256 25.0063 78.9009 23.9446C78.8762 22.8829 79.7158 21.994 80.7775 21.9693C80.7898 21.9693 80.8144 21.9693 80.8268 21.9693C81.8638 21.9446 82.7281 22.7718 82.7404 23.8088V23.8335" fill="white"/>
</svg>
