<svg width="155" height="155" viewBox="0 0 155 155" fill="none" xmlns="http://www.w3.org/2000/svg">
<g filter="url(#filter0_d_420_1804)">
<path d="M123.993 77.4964C123.993 103.176 103.176 123.993 77.4964 123.993C51.8171 123.993 31 103.176 31 77.4964C31 51.8171 51.8171 31 77.4964 31C103.176 31 123.993 51.8171 123.993 77.4964Z" fill="white"/>
</g>
<g filter="url(#filter1_d_420_1804)">
<path d="M110.56 77.4964C110.56 95.7572 95.7571 110.561 77.4963 110.561C59.2355 110.561 44.4323 95.7572 44.4323 77.4964C44.4323 59.2357 59.2355 44.4324 77.4963 44.4324C95.7571 44.4324 110.56 59.2357 110.56 77.4964Z" fill="white"/>
</g>
<path d="M74.535 90.1967H82.225C88.6334 90.1967 91.1967 87.6334 91.1967 81.225V73.535C91.1967 67.1267 88.6334 64.5634 82.225 64.5634H74.535C68.1267 64.5634 65.5634 67.1267 65.5634 73.535V81.225C65.5634 87.6334 68.1267 90.1967 74.535 90.1967Z" stroke="#486AB5" stroke-width="1.5" stroke-linecap="round" stroke-linejoin="round"/>
<path d="M72.3948 80.5714L75.4451 76.6111C75.8809 76.0471 76.6884 75.9446 77.2523 76.3804L79.5977 78.226C80.1617 78.6617 80.9691 78.5592 81.4049 78.0081L84.3655 74.1887" stroke="#486AB5" stroke-width="1.71" stroke-linecap="round" stroke-linejoin="round"/>
<defs>
<filter id="filter0_d_420_1804" x="0.00242424" y="0.00242424" width="154.988" height="154.988" filterUnits="userSpaceOnUse" color-interpolation-filters="sRGB">
<feFlood flood-opacity="0" result="BackgroundImageFix"/>
<feColorMatrix in="SourceAlpha" type="matrix" values="0 0 0 0 0 0 0 0 0 0 0 0 0 0 0 0 0 0 127 0" result="hardAlpha"/>
<feOffset/>
<feGaussianBlur stdDeviation="15.4988"/>
<feComposite in2="hardAlpha" operator="out"/>
<feColorMatrix type="matrix" values="0 0 0 0 0.00392157 0 0 0 0 0.0705882 0 0 0 0 0.568627 0 0 0 0.05 0"/>
<feBlend mode="normal" in2="BackgroundImageFix" result="effect1_dropShadow_420_1804"/>
<feBlend mode="normal" in="SourceGraphic" in2="effect1_dropShadow_420_1804" result="shape"/>
</filter>
<filter id="filter1_d_420_1804" x="13.4347" y="13.4348" width="128.123" height="128.123" filterUnits="userSpaceOnUse" color-interpolation-filters="sRGB">
<feFlood flood-opacity="0" result="BackgroundImageFix"/>
<feColorMatrix in="SourceAlpha" type="matrix" values="0 0 0 0 0 0 0 0 0 0 0 0 0 0 0 0 0 0 127 0" result="hardAlpha"/>
<feOffset/>
<feGaussianBlur stdDeviation="15.4988"/>
<feComposite in2="hardAlpha" operator="out"/>
<feColorMatrix type="matrix" values="0 0 0 0 0.00392157 0 0 0 0 0.0705882 0 0 0 0 0.568627 0 0 0 0.08 0"/>
<feBlend mode="normal" in2="BackgroundImageFix" result="effect1_dropShadow_420_1804"/>
<feBlend mode="normal" in="SourceGraphic" in2="effect1_dropShadow_420_1804" result="shape"/>
</filter>
</defs>
</svg>
