<svg width="280" height="60" viewBox="0 0 280 60" fill="none" xmlns="http://www.w3.org/2000/svg">
<path fill-rule="evenodd" clip-rule="evenodd" d="M246.975 52.3031L243.374 48.7659H266.024C266.024 48.7659 267.92 48.5757 268.235 47.1551C268.551 45.7325 268.235 45.1658 268.235 45.1658L271.837 41.8491V48.5776C271.837 48.5776 270.763 52.305 266.91 52.305H246.975V52.3031Z" fill="url(#paint0_linear_406_1116)"/>
<path fill-rule="evenodd" clip-rule="evenodd" d="M263.718 46.9964L258.664 47.0592L274.68 31.0425C274.68 31.0425 275.88 29.5572 275.091 28.3572C274.302 27.1572 273.669 26.9347 273.669 26.9347L273.889 22.0376L278.659 26.8072C278.659 26.8072 280.523 30.219 277.805 32.9366L263.715 46.9945L263.718 46.9964Z" fill="url(#paint1_linear_406_1116)"/>
<path fill-rule="evenodd" clip-rule="evenodd" d="M266.276 15.5637L266.339 20.6186L250.322 4.60188C250.322 4.60188 248.837 3.40186 247.637 4.1911C246.437 4.98033 246.214 5.61362 246.214 5.61362L241.317 5.39302L246.087 0.62338C246.087 0.62338 249.499 -1.24035 252.216 1.47727L266.274 15.5675L266.276 15.5637Z" fill="url(#paint2_linear_406_1116)"/>
<path fill-rule="evenodd" clip-rule="evenodd" d="M271.9 32.0835L268.393 35.7159V13.0658C268.393 13.0658 268.203 11.1698 266.782 10.8541C265.36 10.5707 264.761 10.8541 264.761 10.8541L261.444 7.22168H268.172C268.172 7.22168 271.9 8.32661 271.9 12.1492V32.0835Z" fill="url(#paint3_linear_406_1116)"/>
<path fill-rule="evenodd" clip-rule="evenodd" d="M232.063 44.4367L232 39.3818L248.017 55.3985C248.017 55.3985 249.502 56.5985 250.702 55.8093C251.902 55.0201 252.125 54.3868 252.125 54.3868L257.022 54.6074L252.252 59.377C252.252 59.377 248.841 61.2408 246.155 58.5231L232.065 44.4329L232.063 44.4367Z" fill="url(#paint4_linear_406_1116)"/>
<path fill-rule="evenodd" clip-rule="evenodd" d="M226.41 27.4091L229.947 23.8071V46.4572C229.947 46.4572 230.137 48.3533 231.558 48.6366C232.98 48.9219 233.547 48.6366 233.547 48.6366L236.864 52.2386H230.135C230.135 52.2386 226.408 51.1641 226.408 47.3111V27.4091H226.41Z" fill="url(#paint5_linear_406_1116)"/>
<path fill-rule="evenodd" clip-rule="evenodd" d="M234.813 12.1184L239.868 12.0557L223.851 28.0724C223.851 28.0724 222.651 29.5576 223.44 30.7577C224.229 31.9577 224.863 32.1802 224.863 32.1802L224.642 37.0772L219.872 32.3076C219.872 32.3076 218.009 28.8958 220.726 26.1782L234.817 12.1203L234.813 12.1184Z" fill="url(#paint6_linear_406_1116)"/>
<path fill-rule="evenodd" clip-rule="evenodd" d="M251.334 7.19331L254.936 10.7306H232.286C232.286 10.7306 230.39 10.9208 230.075 12.3414C229.789 13.7639 230.075 14.3306 230.075 14.3306L226.473 17.6473V10.9189C226.473 10.9189 227.547 7.19141 231.4 7.19141H251.334V7.19331Z" fill="url(#paint7_linear_406_1116)"/>
<path d="M13.4151 21.7084C12.6563 21.7084 12.0762 21.4992 11.6578 21.0789C11.2395 20.6434 11.0284 20.0462 11.0284 19.3045V15.9821H9.51265C8.15859 15.9821 7.48156 16.836 7.48156 18.5628C7.48156 19.9017 7.98172 20.5787 8.99727 20.5787H10.3513V21.6437C10.3513 22.5623 10.0604 23.3686 9.4651 24.0628C8.85273 24.7569 8.0616 25.1601 7.07838 25.2723H4.56234C2.99909 25.2723 1.83711 24.8044 1.0802 23.8859C0.353729 23.0643 0 21.87 0 20.2744V17.3552H1.58037V20.2421C1.58037 21.5163 1.85423 22.4995 2.40193 23.1936C2.94964 23.8878 3.74078 24.2415 4.77154 24.2415H6.69042C7.30279 24.1293 7.80296 23.806 8.1738 23.2735C8.51232 22.8228 8.68918 22.3702 8.7063 21.9023C7.8524 21.8871 7.17347 21.6114 6.67521 21.096C6.11038 20.5483 5.82132 19.7895 5.82132 18.8215C5.82132 17.6595 6.17695 16.7086 6.86919 15.984C7.57855 15.2576 8.4971 14.8867 9.61154 14.8867H12.6601L12.6277 18.9337C12.6277 19.8199 13.0138 20.2554 13.7878 20.2554H15.1096V21.7065H13.417L13.4151 21.7084ZM5.20704 27.7389C5.20704 28.0127 5.11005 28.239 4.93319 28.4159C4.73921 28.6099 4.5129 28.7069 4.23904 28.7069C3.9804 28.7069 3.73888 28.6099 3.52968 28.433C3.32049 28.2562 3.2235 28.0298 3.2235 27.7389C3.2235 27.4479 3.32049 27.2235 3.51447 27.0447C3.70845 26.8507 3.94997 26.7538 4.22383 26.7538C4.46535 26.7538 4.69166 26.8507 4.90086 27.0276C5.09484 27.2216 5.19183 27.4631 5.19183 27.737H5.20704V27.7389ZM7.77063 27.7389C7.77063 28.0127 7.67364 28.239 7.49677 28.4159C7.30279 28.6099 7.07838 28.7069 6.80263 28.7069C6.54399 28.7069 6.30246 28.6099 6.09327 28.433C5.89929 28.2562 5.8023 28.0146 5.8023 27.7389C5.8023 27.4479 5.89929 27.2235 6.09327 27.0447C6.28725 26.8507 6.51166 26.7538 6.78741 26.7538C7.02894 26.7538 7.27046 26.8507 7.48156 27.0276C7.65842 27.2045 7.75541 27.4479 7.75541 27.737H7.77063V27.7389Z" fill="#006209"/>
<path d="M19.6865 21.7088C19.0418 21.7088 18.5093 21.5471 18.1061 21.2258C17.6706 21.5491 17.1552 21.7088 16.558 21.7088H14.6392V20.2578H16.1225C16.9118 20.2578 17.3149 19.8394 17.3149 18.9836V17.4203L16.9764 15.3246L18.8953 14.8891V18.9855C18.8953 19.8394 19.2833 20.2597 20.0554 20.2597H20.8941V21.7107H19.6846L19.6865 21.7088ZM15.7042 13.2745C15.4303 13.2745 15.204 13.1775 15.0271 13.0006C14.8331 12.8237 14.7361 12.5803 14.7361 12.2912C14.7361 12.0174 14.8331 11.7911 15.01 11.6142C15.204 11.4202 15.4284 11.3232 15.7042 11.3232C15.9799 11.3232 16.2195 11.4202 16.3983 11.5971C16.5923 11.7911 16.6893 12.0326 16.6893 12.3065C16.6893 12.5803 16.5923 12.8066 16.4154 12.9835C16.2214 13.1775 15.9799 13.2745 15.7061 13.2745H15.7042ZM18.283 13.2745C18.0091 13.2745 17.7828 13.1775 17.6059 13.0006C17.4119 12.8237 17.3149 12.5803 17.3149 12.2912C17.3149 12.0174 17.4119 11.7911 17.5888 11.6142C17.7828 11.4202 18.0072 11.3232 18.283 11.3232C18.5587 11.3232 18.7983 11.4202 18.9771 11.5971C19.1711 11.7911 19.2681 12.0326 19.2681 12.3065C19.2681 12.5803 19.1711 12.8066 18.9942 12.9835C18.8002 13.1775 18.5587 13.2745 18.2849 13.2745H18.283Z" fill="#006209"/>
<path d="M22.3473 24.3038C22.3473 24.5301 22.2504 24.7564 22.0564 24.9656C21.8472 25.1748 21.6209 25.2718 21.347 25.2718C21.1055 25.2718 20.864 25.1748 20.6529 24.998C20.4437 24.8211 20.3467 24.5948 20.3467 24.2886C20.3467 24.0147 20.4437 23.7884 20.6529 23.6116C20.8468 23.4176 21.0713 23.3206 21.3299 23.3206C21.5885 23.3206 21.8301 23.4176 22.0393 23.5945C22.2332 23.7884 22.3302 24.03 22.3302 24.3038H22.3454H22.3473ZM25.3635 19.3687C25.3635 20.0781 25.1544 20.6429 24.7188 21.0784C24.3005 21.4968 23.7185 21.7079 22.9768 21.7079H20.4931V20.2569H22.5737C23.3648 20.2569 23.7661 19.8385 23.7661 18.9827V17.3871L23.4751 15.3237L25.3464 14.9053V19.3725H25.3616L25.3635 19.3687ZM24.9109 24.3038C24.9109 24.5453 24.8139 24.7717 24.62 24.9656C24.426 25.1748 24.2016 25.2718 23.9258 25.2718C23.6672 25.2718 23.4256 25.1748 23.2164 24.998C23.0073 24.8211 22.9103 24.5948 22.9103 24.2886C22.9103 24.0147 23.0073 23.7884 23.2164 23.6116C23.4104 23.4176 23.6348 23.3206 23.9106 23.3206C24.1521 23.3206 24.3936 23.4176 24.6047 23.5945C24.7987 23.7884 24.8957 24.03 24.8957 24.3038H24.9109Z" fill="#006209"/>
<path d="M33.2157 21.708C32.9419 23.5622 31.797 24.7565 29.8135 25.2719L29.4749 24.6424C30.8461 24.1099 31.5878 23.1419 31.6677 21.708H30.1349C29.2638 21.708 28.5545 21.4494 28.022 20.9169C27.4248 20.3368 27.1187 19.578 27.1187 18.6271C27.1187 17.4499 27.4572 16.5143 28.1513 15.7897C28.8455 15.0651 29.764 14.6924 30.8937 14.6924H33.2481V20.2551H35.1194V21.7061H33.2157V21.708ZM31.6182 15.6281H30.7967C30.152 15.6281 29.6518 15.8696 29.2962 16.3545C28.9405 16.8376 28.7637 17.4994 28.7637 18.3381C28.7637 19.6123 29.2638 20.257 30.2642 20.257H31.6182V15.63V15.6281Z" fill="#006209"/>
<path d="M34.5869 21.7074V20.2563H43.8104V17.9019C43.8104 16.6601 42.9071 16.0477 41.0852 16.0477H35.4084C35.9409 15.5323 36.3916 15.0797 36.7796 14.6765L37.9891 13.4518C38.7308 12.6607 39.3603 11.9513 39.8757 11.3237H42.1654L39.8757 13.2103L38.4398 14.6613H41.4389C42.7131 14.6613 43.6811 14.92 44.3734 15.4354C45.0675 15.9678 45.406 16.6924 45.406 17.6281V20.2563H46.9217V21.7074H34.585H34.5869Z" fill="#006209"/>
<path d="M51.8562 19.3073C51.8562 20.049 51.647 20.629 51.2115 21.0645C50.776 21.5 50.196 21.7092 49.4543 21.7092H46.4229V20.2582H49.0511C49.8403 20.2582 50.2435 19.8227 50.2435 18.9364V13.8093L49.9525 11.6812L51.8391 11.2305V19.3092H51.8543L51.8562 19.3073Z" fill="#006209"/>
<path d="M55.2922 13.4367V21.7094H53.6966V13.4539L53.438 11.4551L55.4539 11.2935L55.2922 13.4387V13.4367Z" fill="#006209"/>
<path d="M71.0143 21.6426C71.0143 22.5612 70.7081 23.3676 70.0786 24.094C69.4662 24.8034 68.6922 25.2237 67.7413 25.3682H65.2253C63.6925 25.3682 62.5324 24.8852 61.7413 23.9324C61.0319 23.0614 60.6763 21.8366 60.6763 20.2715V17.3523H62.2566V20.2391C62.2566 21.5133 62.5305 22.4965 63.0953 23.223C63.6601 23.9495 64.4494 24.3203 65.4497 24.3203H67.3686C67.9657 24.2405 68.4811 23.9172 68.8843 23.3523C69.2076 22.8845 69.3674 22.4015 69.3674 21.9336H67.8041C66.9502 21.9336 66.2713 21.675 65.7407 21.1425C65.1606 20.5777 64.8697 19.8036 64.8697 18.8528C64.8697 17.6756 65.2253 16.7247 65.9175 15.9982C66.6098 15.2717 67.5302 14.9009 68.658 14.9009H70.2232L69.9645 15.9811H68.5458C67.2069 15.9811 66.547 16.835 66.547 18.5618C66.547 19.9006 67.0472 20.5777 68.0475 20.5777H71.0143V21.6426ZM64.5635 28.7058C64.322 28.7058 64.0957 28.6088 63.8865 28.432C63.6925 28.2551 63.5955 28.0136 63.5955 27.7378C63.5955 27.4468 63.6925 27.2224 63.8865 27.0437C64.0804 26.8497 64.3048 26.7527 64.5635 26.7527C64.8221 26.7527 65.0637 26.8497 65.2728 27.0266C65.4668 27.2205 65.5638 27.4621 65.5638 27.7359C65.5638 28.0098 65.4668 28.2361 65.2728 28.4129C65.0789 28.6069 64.8373 28.7039 64.5635 28.7039V28.7058ZM67.1442 28.7058C66.8703 28.7058 66.644 28.6088 66.4672 28.432C66.2732 28.2551 66.1762 28.0136 66.1762 27.7378C66.1762 27.4621 66.2732 27.2224 66.45 27.0437C66.644 26.8497 66.8703 26.7527 67.1442 26.7527C67.418 26.7527 67.6596 26.8497 67.8383 27.0266C68.0323 27.2205 68.1293 27.4621 68.1293 27.7359C68.1293 28.0098 68.0323 28.2361 67.8554 28.4129C67.6615 28.6069 67.4199 28.7039 67.1461 28.7039L67.1442 28.7058Z" fill="#006209"/>
<path d="M78.7214 20.2407L78.9629 21.7089H72.5615L72.9818 20.2579H77.0611L77.1087 19.9193V18.2268C77.1087 17.4375 76.947 16.8233 76.6408 16.3554C76.367 15.9522 75.979 15.7431 75.5112 15.7431C75.3172 15.7431 75.1555 15.7754 75.011 15.8553L74.9311 14.9519H74.9958C75.0281 14.9519 75.0604 14.9519 75.0928 14.9367C75.1727 14.9215 75.2868 14.9044 75.4313 14.8892C76.4145 14.8892 77.2056 15.2277 77.8009 15.9218C78.4133 16.616 78.7195 17.4699 78.7195 18.5025V20.2445L78.7214 20.2407Z" fill="#006209"/>
<path d="M86.8163 21.708C86.5425 23.5622 85.3976 24.7565 83.414 25.2719L83.0755 24.6424C84.4467 24.1099 85.1884 23.1419 85.2683 21.708H83.7354C82.8644 21.708 82.1551 21.4494 81.6226 20.9169C81.0254 20.3368 80.7192 19.578 80.7192 18.6271C80.7192 17.4499 81.0578 16.5143 81.7519 15.7897C82.446 15.0651 83.3646 14.6924 84.4942 14.6924H86.8486V20.2551H88.72V21.7061H86.8163V21.708ZM85.2207 15.6281H84.3992C83.7545 15.6281 83.2543 15.8696 82.8987 16.3545C82.543 16.8376 82.3662 17.4994 82.3662 18.3381C82.3662 19.6123 82.8663 20.257 83.8667 20.257H85.2207V15.63V15.6281Z" fill="#006209"/>
<path d="M95.4279 21.7071C94.9924 21.7071 94.4275 21.5625 93.7505 21.2868C93.6383 21.3515 93.2675 21.3667 92.638 21.3515C92.1701 21.3362 91.9286 21.4484 91.9286 21.7071H87.9292V20.256H91.67C91.9286 20.256 92.1378 20.2408 92.2995 20.1914L91.3486 19.3204L89.6066 17.6753C89.6066 16.9165 90.0097 16.2243 90.8161 15.6119C91.6548 14.9995 92.638 14.6934 93.7676 14.6934C94.8973 14.6934 95.8957 14.9995 96.7192 15.629C97.5084 16.2262 97.8964 16.9184 97.9116 17.6772L95.1863 20.1933L95.5097 20.2408C95.5572 20.256 95.6219 20.256 95.6713 20.256H99.2675V21.7071H95.4298H95.4279ZM96.1696 17.3844C96.1049 17.0458 95.8957 16.7549 95.5401 16.5305C95.0722 16.2395 94.4922 16.095 93.7828 16.095C93.0735 16.095 92.4763 16.2395 92.0408 16.5305C91.6376 16.7891 91.4113 17.0782 91.3638 17.3844L92.9917 18.9476C93.2656 19.2215 93.5242 19.4478 93.7657 19.657L96.1677 17.3825L96.1696 17.3844Z" fill="#006209"/>
<path d="M111.907 21.7083C111.278 21.7083 110.73 21.5467 110.295 21.2253C109.892 21.5486 109.391 21.7083 108.762 21.7083C107.923 21.7083 107.199 21.4021 106.602 20.7898C106.166 21.4021 105.521 21.7083 104.65 21.7083C103.829 21.7083 103.102 21.385 102.473 20.7574L102.167 21.0959C101.699 21.4991 101.119 21.7083 100.442 21.7083H98.5552V20.2573H100.039C100.813 20.2573 101.199 19.8389 101.199 18.9831L101.231 15.8699L102.811 15.5143V19.7229C103.215 20.0937 103.682 20.2706 104.215 20.2706C104.974 20.2706 105.36 19.8522 105.36 18.9964V15.868L106.955 15.5123V19.6734C107.358 20.0766 107.809 20.2706 108.342 20.2706C109.116 20.2706 109.502 19.8522 109.502 18.9964V17.416L109.178 15.3203L111.097 14.8848V18.9964C111.097 19.8351 111.485 20.2535 112.259 20.2535H112.759V21.7045H111.906L111.907 21.7083Z" fill="#006209"/>
<path d="M117.695 19.3073C117.695 20.049 117.485 20.629 117.05 21.0645C116.614 21.5 116.034 21.7092 115.293 21.7092H112.261V20.2582H114.889C115.679 20.2582 116.082 19.8227 116.082 18.9364V13.8093L115.791 11.6812L117.677 11.2305V19.3092H117.693L117.695 19.3073Z" fill="#006209"/>
<path d="M121.13 13.4367V21.7094H119.535V13.4539L119.276 11.4551L121.292 11.2935L121.13 13.4387V13.4367Z" fill="#006209"/>
<path d="M136.868 21.7074C136.497 21.7074 136.206 21.6751 135.997 21.5952C135.771 22.7077 135.238 23.6111 134.417 24.2729C133.595 24.9347 132.53 25.2561 131.191 25.2561C129.66 25.2561 128.498 24.773 127.709 23.8202C127 22.9492 126.644 21.7245 126.644 20.127V17.1431H128.224V20.0624C128.224 21.3689 128.498 22.3844 129.063 23.1109C129.628 23.8526 130.417 24.2234 131.417 24.2234C132.239 24.2234 132.966 23.8526 133.578 23.1261C134.19 22.3996 134.496 21.4164 134.496 20.2069V13.9349L134.158 11.7744L136.077 11.3237V18.2747C136.077 19.0335 136.174 19.5641 136.351 19.8379C136.528 20.1118 136.834 20.2563 137.254 20.2563H138.254V21.7074H136.868Z" fill="#006209"/>
<path d="M139.707 24.3038C139.707 24.5301 139.61 24.7564 139.416 24.9656C139.207 25.1748 138.98 25.2718 138.706 25.2718C138.465 25.2718 138.223 25.1748 138.012 24.998C137.801 24.8211 137.706 24.5948 137.706 24.2886C137.706 24.0147 137.803 23.7884 138.012 23.6116C138.206 23.4176 138.433 23.3206 138.689 23.3206C138.946 23.3206 139.189 23.4176 139.399 23.5945C139.593 23.7884 139.69 24.03 139.69 24.3038H139.705H139.707ZM142.723 19.3687C142.723 20.0781 142.514 20.6429 142.078 21.0784C141.658 21.4968 141.078 21.7079 140.336 21.7079H137.852V20.2569H139.933C140.722 20.2569 141.125 19.8385 141.125 18.9827V17.3871L140.834 15.3237L142.706 14.9053V19.3725H142.721L142.723 19.3687ZM142.27 24.3038C142.27 24.5453 142.173 24.7717 141.979 24.9656C141.785 25.1748 141.559 25.2718 141.285 25.2718C141.027 25.2718 140.785 25.1748 140.576 24.998C140.367 24.8211 140.27 24.5948 140.27 24.2886C140.27 24.0147 140.367 23.7884 140.576 23.6116C140.77 23.4176 140.994 23.3206 141.27 23.3206C141.512 23.3206 141.753 23.4176 141.964 23.5945C142.158 23.7884 142.255 24.03 142.255 24.3038H142.27Z" fill="#006209"/>
<path d="M150.575 21.708C150.301 23.5622 149.156 24.7565 147.172 25.2719L146.834 24.6424C148.205 24.1099 148.947 23.1419 149.027 21.708H147.494C146.623 21.708 145.913 21.4494 145.381 20.9169C144.784 20.3368 144.478 19.578 144.478 18.6271C144.478 17.4499 144.816 16.5143 145.51 15.7897C146.204 15.0632 147.123 14.6924 148.251 14.6924H150.605V20.2551H152.476V21.7061H150.575V21.708ZM148.979 15.6281H148.156C147.511 15.6281 147.011 15.8696 146.655 16.3545C146.299 16.8376 146.123 17.4994 146.123 18.3381C146.123 19.6123 146.623 20.257 147.623 20.257H148.977V15.63L148.979 15.6281Z" fill="#006209"/>
<path d="M161.3 21.7075C160.67 21.7075 160.17 21.5458 159.767 21.2073C158.976 22.143 158.025 22.6108 156.912 22.6108C156.009 22.6108 155.317 22.2076 154.849 21.4184C154.493 21.6124 154.092 21.7094 153.639 21.7094H151.947V20.2583H153.189C153.915 20.2583 154.286 19.9027 154.301 19.1933C154.349 18.0313 154.721 17.1299 155.431 16.4681C156.125 15.8063 157.091 15.4849 158.333 15.4849C159.059 15.4849 159.849 15.6142 160.687 15.8557L160.478 17.5331V18.9841C160.478 19.838 160.866 20.2583 161.655 20.2583H162.462V21.7094H161.302L161.3 21.7075ZM158.896 17.611L158.767 16.7077C158.573 16.6278 158.316 16.5955 157.993 16.5955C156.638 16.5955 155.961 17.4342 155.961 19.1268C155.961 19.8038 156.091 20.3363 156.347 20.7071C156.606 21.0951 156.928 21.2872 157.315 21.2872C157.913 21.2872 158.428 21.0456 158.881 20.5607L158.896 17.6091V17.611Z" fill="#006209"/>
<path d="M167.055 21.7088C166.41 21.7088 165.877 21.5471 165.474 21.2258C165.039 21.5491 164.523 21.7088 163.926 21.7088H162.007V20.2578H163.491C164.28 20.2578 164.683 19.8394 164.683 18.9836V17.4203L164.345 15.3246L166.263 14.8891V18.9855C166.263 19.8394 166.651 20.2597 167.425 20.2597H168.264V21.7107H167.055V21.7088ZM163.07 13.2745C162.797 13.2745 162.57 13.1775 162.393 13.0006C162.199 12.8237 162.102 12.5803 162.102 12.2912C162.102 12.0174 162.199 11.7911 162.376 11.6142C162.57 11.4202 162.797 11.3232 163.07 11.3232C163.344 11.3232 163.586 11.4202 163.765 11.5971C163.959 11.7911 164.056 12.0326 164.056 12.3065C164.056 12.5803 163.959 12.8066 163.782 12.9835C163.588 13.1775 163.346 13.2745 163.072 13.2745H163.07ZM165.651 13.2745C165.377 13.2745 165.151 13.1775 164.974 13.0006C164.78 12.8237 164.683 12.5803 164.683 12.2912C164.683 12.0174 164.78 11.7911 164.957 11.6142C165.151 11.4202 165.375 11.3232 165.651 11.3232C165.927 11.3232 166.166 11.4202 166.345 11.5971C166.539 11.7911 166.636 12.0326 166.636 12.3065C166.636 12.5803 166.539 12.8066 166.362 12.9835C166.168 13.1775 165.927 13.2745 165.653 13.2745H165.651Z" fill="#006209"/>
<path d="M173.199 19.3073C173.199 20.049 172.99 20.629 172.554 21.0645C172.119 21.5 171.539 21.7092 170.797 21.7092H167.766V20.2582H170.394C171.183 20.2582 171.586 19.8227 171.586 18.9364V13.8093L171.295 11.6812L173.182 11.2305V19.3092H173.197L173.199 19.3073Z" fill="#006209"/>
<path d="M176.632 13.4367V21.7094H175.036V13.4539L174.778 11.4551L176.794 11.2935L176.632 13.4387V13.4367Z" fill="#006209"/>
<path d="M195.58 21.7075C194.918 21.7075 194.388 21.5458 193.985 21.2073C193.581 21.5458 193.066 21.7075 192.404 21.7075H185.164C184.229 21.7075 183.487 21.3842 182.954 20.7395C182.39 20.0777 182.116 19.2238 182.116 18.1436C182.116 17.3049 182.325 16.5309 182.745 15.8063H184.196C183.681 16.5328 183.422 17.1927 183.422 17.8051C183.422 19.433 184.067 20.2564 185.341 20.2564H191.986C192.775 20.2564 193.178 19.8209 193.178 18.9347V17.2897L192.855 15.3232L194.759 14.8877V18.9347C194.759 19.8209 195.147 20.2564 195.936 20.2564H197.275V21.7075H195.582H195.58ZM188.196 14.9505C188.196 15.2244 188.099 15.4507 187.905 15.6275C187.711 15.8215 187.484 15.9185 187.228 15.9185C186.971 15.9185 186.728 15.8215 186.518 15.6446C186.324 15.4678 186.227 15.2244 186.227 14.9353C186.227 14.6614 186.324 14.4351 186.518 14.2583C186.712 14.0643 186.937 13.9673 187.212 13.9673C187.454 13.9673 187.696 14.0643 187.907 14.2411C188.083 14.418 188.18 14.6595 188.18 14.9505H188.196ZM190.774 14.9505C190.774 15.2244 190.677 15.4507 190.484 15.6275C190.29 15.8215 190.063 15.9185 189.806 15.9185C189.55 15.9185 189.306 15.8215 189.097 15.6446C188.903 15.4678 188.806 15.2244 188.806 14.9353C188.806 14.6614 188.903 14.4351 189.097 14.2583C189.291 14.0643 189.517 13.9673 189.791 13.9673C190.033 13.9673 190.274 14.0643 190.485 14.2411C190.662 14.418 190.759 14.6595 190.759 14.9505H190.774Z" fill="#006209"/>
<path d="M198.774 24.304C198.774 24.5303 198.677 24.7566 198.483 24.9658C198.273 25.175 198.047 25.272 197.773 25.272C197.532 25.272 197.29 25.175 197.079 24.9981C196.87 24.8213 196.773 24.595 196.773 24.2888C196.773 24.0149 196.87 23.7886 197.079 23.6118C197.273 23.4178 197.498 23.3208 197.756 23.3208C198.015 23.3208 198.256 23.4178 198.466 23.5946C198.66 23.7886 198.757 24.0301 198.757 24.304H198.772H198.774ZM201.917 21.7081C201.273 21.7081 200.74 21.5464 200.337 21.225C199.917 21.5483 199.401 21.7081 198.789 21.7081H196.855V20.257H198.355C199.146 20.257 199.548 19.8386 199.548 18.9828V17.3226L199.209 15.2421L201.128 14.8218V18.9828C201.128 19.8367 201.514 20.257 202.305 20.257H203.127V21.7081H201.917ZM201.337 24.304C201.337 24.5455 201.24 24.7718 201.046 24.9658C200.852 25.175 200.628 25.272 200.352 25.272C200.111 25.272 199.869 25.175 199.658 24.9981C199.464 24.8213 199.367 24.5778 199.367 24.2888C199.367 24.0149 199.464 23.7886 199.658 23.6118C199.852 23.4178 200.078 23.3208 200.335 23.3208C200.576 23.3208 200.818 23.4178 201.029 23.5946C201.223 23.7886 201.32 24.0301 201.32 24.304H201.335H201.337Z" fill="#006209"/>
<path d="M207.448 19.3687C207.448 20.0781 207.239 20.6429 206.803 21.0784C206.383 21.4968 205.803 21.7079 205.061 21.7079H202.578V20.2569H204.658C205.447 20.2569 205.851 19.8385 205.851 18.9827V17.3871L205.56 15.3237L207.431 14.9053V19.3725H207.446L207.448 19.3687ZM206.577 24.3038C206.577 24.5453 206.48 24.7717 206.286 24.9656C206.092 25.1748 205.868 25.2718 205.592 25.2718C205.35 25.2718 205.109 25.1748 204.898 24.998C204.704 24.8211 204.607 24.5777 204.607 24.2886C204.607 24.0147 204.704 23.7884 204.898 23.6116C205.092 23.4176 205.318 23.3206 205.575 23.3206C205.832 23.3206 206.075 23.4176 206.284 23.5945C206.461 23.7713 206.558 24.0128 206.558 24.3038H206.573H206.577Z" fill="#006209"/>
<path d="M1.11224 45.5595C1.79117 45.9779 2.78579 46.3259 3.83177 46.3259C5.38361 46.3259 6.28885 45.5063 6.28885 44.3215C6.28885 43.2242 5.66127 42.5966 4.07519 41.9861C2.15821 41.3072 0.973407 40.3126 0.973407 38.658C0.973407 36.8285 2.48912 35.4688 4.77314 35.4688C5.97506 35.4688 6.84797 35.7483 7.37096 36.0431L6.95257 37.2811C6.56841 37.0719 5.78488 36.7239 4.72179 36.7239C3.1186 36.7239 2.50813 37.6824 2.50813 38.485C2.50813 39.5823 3.2232 40.1224 4.84351 40.75C6.83086 41.5164 7.8407 42.4749 7.8407 44.2017C7.8407 46.0141 6.49805 47.583 3.72717 47.583C2.59371 47.583 1.35756 47.2521 0.72998 46.8337L1.11414 45.5614L1.11224 45.5595Z" fill="#006209"/>
<path d="M14.5865 47.4062L14.4648 46.3431H14.4135C13.9437 47.0049 13.0366 47.5982 11.8347 47.5982C10.1269 47.5982 9.25586 46.3963 9.25586 45.1754C9.25586 43.1367 11.0682 42.0203 14.3279 42.0375V41.8625C14.3279 41.1645 14.1358 39.9113 12.4109 39.9113C11.6274 39.9113 10.8077 40.1547 10.2144 40.5389L9.86633 39.5271C10.5643 39.0745 11.5741 38.7778 12.6372 38.7778C15.216 38.7778 15.8436 40.5389 15.8436 42.2295V45.3846C15.8436 46.1168 15.8778 46.8318 15.9824 47.4062H14.5884H14.5865ZM14.3602 43.1006C12.6867 43.0663 10.7868 43.3611 10.7868 45.0004C10.7868 45.9931 11.4486 46.4648 12.234 46.4648C13.3314 46.4648 14.0293 45.7668 14.2727 45.0537C14.3241 44.8958 14.3602 44.7228 14.3602 44.5649V43.1006Z" fill="#006209"/>
<path d="M25.3754 45.1063C25.3754 45.9774 25.3925 46.7438 25.4458 47.4075H24.086L23.9985 46.0306H23.9643C23.563 46.7095 22.6749 47.5996 21.1763 47.5996C19.8527 47.5996 18.2666 46.8674 18.2666 43.9044V38.9731H19.7994V43.6439C19.7994 45.2471 20.2882 46.3273 21.6822 46.3273C22.711 46.3273 23.4242 45.6122 23.7038 44.9333C23.7912 44.707 23.8426 44.4274 23.8426 44.1498V38.9731H25.3754V45.1082V45.1063Z" fill="#006209"/>
<path d="M35.2059 35.0317V45.2271C35.2059 45.9764 35.223 46.8303 35.2763 47.4065H33.8994L33.829 45.9422H33.7948C33.325 46.8836 32.2962 47.5986 30.9193 47.5986C28.8806 47.5986 27.3116 45.8737 27.3116 43.312C27.2945 40.5069 29.0366 38.7801 31.0943 38.7801C32.3837 38.7801 33.2547 39.3906 33.6388 40.0695H33.6731V35.0317H35.2059ZM33.6712 42.4049C33.6712 42.2128 33.654 41.9523 33.6008 41.7602C33.3745 40.7846 32.5377 39.982 31.3871 39.982C29.8011 39.982 28.8597 41.376 28.8597 43.2417C28.8597 44.9495 29.6965 46.3606 31.3529 46.3606C32.3818 46.3606 33.3231 45.6816 33.6008 44.5311C33.6521 44.3219 33.6712 44.1127 33.6712 43.8693V42.4049Z" fill="#006209"/>
<path d="M39.458 36.6001C39.4751 37.1231 39.0928 37.5415 38.4824 37.5415C37.9423 37.5415 37.5581 37.1231 37.5581 36.6001C37.5581 36.0771 37.9594 35.6416 38.5166 35.6416C39.0738 35.6416 39.458 36.06 39.458 36.6001ZM37.7502 47.4059V38.9697H39.283V47.4059H37.7502Z" fill="#006209"/>
<path d="M45.5747 35.6602H47.0904V41.3255H47.1417C47.4555 40.8729 47.7693 40.4545 48.066 40.0704L51.6565 35.6602H53.5393L49.2869 40.6447L53.8702 47.4074H52.0749L48.2048 41.6393L47.0885 42.9287V47.4074H45.5728V35.6602H45.5747Z" fill="#006209"/>
<path d="M61.9257 45.1063C61.9257 45.9774 61.9428 46.7438 61.9961 47.4075H60.6363L60.5488 46.0306H60.5146C60.1133 46.7095 59.2252 47.5996 57.7266 47.5996C56.403 47.5996 54.8169 46.8674 54.8169 43.9044V38.9731H56.3497V43.6439C56.3497 45.2471 56.8385 46.3273 58.2325 46.3273C59.2613 46.3273 59.9745 45.6122 60.2541 44.9333C60.3415 44.707 60.3929 44.4274 60.3929 44.1498V38.9731H61.9257V45.1082V45.1063Z" fill="#006209"/>
<path d="M65.0797 38.9711L66.196 43.2577C66.4394 44.1991 66.6657 45.0701 66.8236 45.9411H66.8749C67.067 45.0872 67.3447 44.1801 67.6242 43.2748L69.0011 38.9692H70.2905L71.597 43.1874C71.9108 44.1991 72.1542 45.0872 72.3463 45.9411H72.3977C72.5365 45.0872 72.7628 44.1991 73.0424 43.2045L74.2443 38.9692H75.76L73.0405 47.4055H71.6465L70.3571 43.3794C70.0604 42.4381 69.817 41.6013 69.6078 40.6086H69.5735C69.3643 41.6203 69.1038 42.4913 68.8071 43.3966L67.4474 47.4055H66.0534L63.5088 38.9692H65.0777L65.0797 38.9711Z" fill="#006209"/>
<path d="M81.8985 47.4062L81.7768 46.3431H81.7255C81.2557 47.0049 80.3486 47.5982 79.1467 47.5982C77.4389 47.5982 76.5679 46.3963 76.5679 45.1754C76.5679 43.1367 78.3803 42.0203 81.6399 42.0375V41.8625C81.6399 41.1645 81.4478 39.9113 79.7229 39.9113C78.9394 39.9113 78.1197 40.1547 77.5264 40.5389L77.1783 39.5271C77.8763 39.0745 78.8861 38.7778 79.9492 38.7778C82.528 38.7778 83.1556 40.5389 83.1556 42.2295V45.3846C83.1556 46.1168 83.1898 46.8318 83.2944 47.4062H81.9004H81.8985ZM81.6703 43.1006C79.9968 43.0663 78.0969 43.3611 78.0969 45.0004C78.0969 45.9931 78.7587 46.4648 79.5441 46.4648C80.6415 46.4648 81.3394 45.7668 81.5828 45.0537C81.6342 44.8958 81.6703 44.7228 81.6703 44.5649V43.1006Z" fill="#006209"/>
<path d="M87.3374 36.6001C87.3545 37.1231 86.9722 37.5415 86.3618 37.5415C85.8217 37.5415 85.4375 37.1231 85.4375 36.6001C85.4375 36.0771 85.8388 35.6416 86.396 35.6416C86.9532 35.6416 87.3374 36.06 87.3374 36.6001ZM85.6296 47.4059V38.9697H87.1624V47.4059H85.6296Z" fill="#006209"/>
<path d="M91.5555 36.5488V38.9717H93.7521V40.1394H91.5555V44.6884C91.5555 45.7344 91.8522 46.3277 92.7061 46.3277C93.1074 46.3277 93.4041 46.2745 93.5942 46.2231L93.6646 47.3737C93.3679 47.4954 92.8982 47.5829 92.3048 47.5829C91.5898 47.5829 91.0154 47.3566 90.6484 46.9382C90.2129 46.4856 90.055 45.7363 90.055 44.7416V40.1413H88.7485V38.9736H90.055V36.952L91.5536 36.5507L91.5555 36.5488Z" fill="#006209"/>
<path d="M97.185 36.6001C97.2021 37.1231 96.8199 37.5415 96.2094 37.5415C95.6693 37.5415 95.2852 37.1231 95.2852 36.6001C95.2852 36.0771 95.6864 35.6416 96.2437 35.6416C96.8009 35.6416 97.185 36.06 97.185 36.6001ZM95.4772 47.4059V38.9697H97.0101V47.4059H95.4772Z" fill="#006209"/>
<path d="M103.302 35.6602H109.629V36.9324H104.82V40.8368H109.264V42.0919H104.82V47.4074H103.304V35.6602H103.302Z" fill="#006209"/>
<path d="M112.994 36.6001C113.011 37.1231 112.628 37.5415 112.018 37.5415C111.478 37.5415 111.094 37.1231 111.094 36.6001C111.094 36.0771 111.495 35.6416 112.052 35.6416C112.609 35.6416 112.994 36.06 112.994 36.6001ZM111.286 47.4059V38.9697H112.819V47.4059H111.286Z" fill="#006209"/>
<path d="M115.364 41.254C115.364 40.383 115.347 39.6679 115.293 38.9719H116.653L116.741 40.3659H116.775C117.193 39.5633 118.169 38.7798 119.563 38.7798C120.731 38.7798 122.543 39.4777 122.543 42.3703V47.4081H121.01V42.5453C121.01 41.1855 120.504 40.0521 119.059 40.0521C118.047 40.0521 117.264 40.7671 117.003 41.621C116.933 41.8131 116.899 42.0737 116.899 42.3361V47.4081H115.366V41.2559L115.364 41.254Z" fill="#006209"/>
<path d="M129.709 47.4062L129.587 46.3431H129.534C129.064 47.0049 128.157 47.5982 126.955 47.5982C125.247 47.5982 124.376 46.3963 124.376 45.1754C124.376 43.1367 126.189 42.0203 129.448 42.0375V41.8625C129.448 41.1645 129.256 39.9113 127.531 39.9113C126.748 39.9113 125.928 40.1547 125.335 40.5389L124.987 39.5271C125.685 39.0745 126.695 38.7778 127.758 38.7778C130.337 38.7778 130.964 40.5389 130.964 42.2295V45.3846C130.964 46.1168 130.998 46.8318 131.103 47.4062H129.709ZM129.483 43.1006C127.809 43.0663 125.909 43.3611 125.909 45.0004C125.909 45.9931 126.571 46.4648 127.357 46.4648C128.454 46.4648 129.152 45.7668 129.395 45.0537C129.447 44.8958 129.483 44.7228 129.483 44.5649V43.1006Z" fill="#006209"/>
<path d="M133.438 41.254C133.438 40.383 133.421 39.6679 133.368 38.9719H134.727L134.815 40.3659H134.849C135.268 39.5633 136.243 38.7798 137.637 38.7798C138.805 38.7798 140.617 39.4777 140.617 42.3703V47.4081H139.084V42.5453C139.084 41.1855 138.579 40.0521 137.133 40.0521C136.123 40.0521 135.338 40.7671 135.077 41.621C135.007 41.8131 134.973 42.0737 134.973 42.3361V47.4081H133.44V41.2559L133.438 41.254Z" fill="#006209"/>
<path d="M149.125 47.0939C148.724 47.303 147.836 47.5826 146.702 47.5826C144.158 47.5826 142.501 45.8577 142.501 43.277C142.501 40.6963 144.28 38.7983 147.033 38.7983C147.941 38.7983 148.741 39.0247 149.16 39.2338L148.812 40.4186C148.446 40.2095 147.87 40.0174 147.033 40.0174C145.099 40.0174 144.053 41.4456 144.053 43.2066C144.053 45.1579 145.308 46.3617 146.982 46.3617C147.853 46.3617 148.429 46.1354 148.865 45.9433L149.127 47.0939H149.125Z" fill="#006209"/>
<path d="M151.67 43.4676C151.704 45.5425 153.03 46.3964 154.563 46.3964C155.66 46.3964 156.324 46.2043 156.898 45.9609L157.16 47.0582C156.62 47.3016 155.696 47.5812 154.355 47.5812C151.757 47.5812 150.208 45.8734 150.208 43.3288C150.208 40.7843 151.706 38.7798 154.163 38.7798C156.917 38.7798 157.649 41.2026 157.649 42.7545C157.649 43.0683 157.615 43.3117 157.598 43.4695H151.672L151.67 43.4676ZM156.166 42.3684C156.183 41.3928 155.764 39.8771 154.04 39.8771C152.488 39.8771 151.809 41.3053 151.687 42.3684H156.166Z" fill="#006209"/>
<path d="M164.811 35.6602V40.5743H170.493V35.6602H172.026V47.4074H170.493V41.8999H164.811V47.4074H163.295V35.6602H164.811Z" fill="#006209"/>
<path d="M182.241 43.1177C182.241 46.2366 180.08 47.5963 178.04 47.5963C175.756 47.5963 173.997 45.9228 173.997 43.2565C173.997 40.4324 175.843 38.7778 178.18 38.7778C180.518 38.7778 182.241 40.5389 182.241 43.1177ZM175.548 43.2051C175.548 45.0518 176.612 46.4477 178.11 46.4477C179.609 46.4477 180.672 45.0708 180.672 43.1709C180.672 41.7427 179.957 39.9284 178.144 39.9284C176.332 39.9284 175.547 41.602 175.547 43.2051H175.548Z" fill="#006209"/>
<path d="M191.234 45.1063C191.234 45.9774 191.251 46.7438 191.304 47.4075H189.944L189.857 46.0306H189.823C189.421 46.7095 188.533 47.5996 187.035 47.5996C185.711 47.5996 184.125 46.8674 184.125 43.9044V38.9731H185.658V43.6439C185.658 45.2471 186.147 46.3273 187.541 46.3273C188.569 46.3273 189.284 45.6122 189.562 44.9333C189.65 44.707 189.701 44.4274 189.701 44.1498V38.9731H191.234V45.1082V45.1063Z" fill="#006209"/>
<path d="M193.57 45.8372C194.022 46.1339 194.825 46.4477 195.591 46.4477C196.708 46.4477 197.231 45.8904 197.231 45.1925C197.231 44.4603 196.795 44.059 195.662 43.6407C194.146 43.1006 193.431 42.2638 193.431 41.252C193.431 39.8923 194.528 38.7778 196.341 38.7778C197.195 38.7778 197.944 39.0213 198.415 39.3008L198.031 40.4172C197.7 40.208 197.09 39.9284 196.306 39.9284C195.399 39.9284 194.895 40.4514 194.895 41.079C194.895 41.7769 195.401 42.0907 196.498 42.5072C197.963 43.0644 198.712 43.7966 198.712 45.0518C198.712 46.5332 197.562 47.5792 195.557 47.5792C194.633 47.5792 193.779 47.3529 193.188 47.0049L193.572 45.8372H193.57Z" fill="#006209"/>
<path d="M201.537 43.4676C201.571 45.5425 202.896 46.3964 204.429 46.3964C205.527 46.3964 206.19 46.2043 206.765 45.9609L207.027 47.0582C206.487 47.3016 205.563 47.5812 204.222 47.5812C201.624 47.5812 200.074 45.8734 200.074 43.3288C200.074 40.7843 201.573 38.7798 204.03 38.7798C206.784 38.7798 207.516 41.2026 207.516 42.7545C207.516 43.0683 207.482 43.3117 207.464 43.4695H201.539L201.537 43.4676ZM206.032 42.3684C206.05 41.3928 205.631 39.8771 203.906 39.8771C202.354 39.8771 201.676 41.3053 201.554 42.3684H206.032Z" fill="#006209"/>
<path d="M245.877 32.5537L246.931 35.4235L248.877 34.2425L245.877 32.5537Z" fill="#006209"/>
<path d="M252.618 35.4235L253.67 32.5537L250.671 34.2425L252.618 35.4235Z" fill="#006209"/>
<path d="M248.096 32.5537L249.791 33.5997L251.479 32.5537H248.096Z" fill="#006209"/>
<path d="M249.791 34.748L248.096 35.794L249.791 36.8419L251.479 35.794L249.791 34.748Z" fill="#006209"/>
<path d="M246.931 38.6651L248.877 37.4822L245.877 35.7935L246.931 38.6651Z" fill="#006209"/>
<path d="M252.618 38.6651L253.67 35.7935L250.671 37.4822L252.618 38.6651Z" fill="#006209"/>
<path d="M249.791 37.9883L248.096 39.0362L249.791 40.0821L251.479 39.0362L249.791 37.9883Z" fill="#006209"/>
<path d="M246.931 41.9074L248.877 40.7264L245.877 39.0376L246.931 41.9074Z" fill="#006209"/>
<path d="M252.618 41.9074L253.67 39.0376L250.671 40.7264L252.618 41.9074Z" fill="#006209"/>
<path d="M249.791 41.2319L248.096 42.2779L249.791 43.3258L251.479 42.2779L249.791 41.2319Z" fill="#006209"/>
<path d="M246.931 45.1485L248.877 43.9656L245.877 42.2769L246.931 45.1485Z" fill="#006209"/>
<path d="M252.618 45.1485L253.67 42.2769L250.671 43.9656L252.618 45.1485Z" fill="#006209"/>
<path d="M245.877 45.519L246.931 48.3907L248.877 47.2078L245.877 45.519Z" fill="#006209"/>
<path d="M252.618 48.3907L253.67 45.519L250.671 47.2078L252.618 48.3907Z" fill="#006209"/>
<path d="M251.479 45.5196L249.791 44.4736L248.096 45.5196L249.791 46.5675L251.479 45.5196Z" fill="#006209"/>
<path d="M248.096 48.7617H251.479L249.791 47.7139L248.096 48.7617Z" fill="#006209"/>
<path d="M243.211 27.8309C239.204 25.7713 237.878 27.4962 236.414 29.3067L234.625 31.5223H248.734L243.213 27.829L243.211 27.8309Z" fill="#006209"/>
<path d="M240.912 25.2433L249.082 30.7337L244.316 21.7155C243.62 20.3976 242.032 19.9868 240.595 20.8521L236.683 24.1954H237.82C239.149 24.1954 240.037 24.6556 240.912 25.2433Z" fill="#006209"/>
<path d="M249.789 30.5419L253.321 20.2495C253.561 19.5534 253.656 18.9449 253.205 18.361L249.786 14.7153L246.372 18.361C245.923 18.9449 246.012 19.5515 246.256 20.2495L249.793 30.5419H249.789Z" fill="#006209"/>
<path d="M256.356 27.8313L250.83 31.5246H264.939L263.151 29.309C261.683 27.4985 260.357 25.7717 256.356 27.8332V27.8313Z" fill="#006209"/>
<path d="M258.654 25.2433C259.529 24.6556 260.413 24.1954 261.746 24.1954H262.88L258.97 20.8521C257.532 19.9868 255.942 20.3976 255.248 21.7155L250.482 30.7337L258.652 25.2433H258.654Z" fill="#006209"/>
<path d="M238.369 33.4323V37.9909C238.369 37.9909 239.789 34.5658 244.791 32.5537H239.249C238.764 32.5537 238.371 32.9474 238.371 33.4323H238.369Z" fill="#006209"/>
<path d="M260.43 32.5537H254.889C259.888 34.5639 261.309 37.9909 261.309 37.9909V33.4323C261.309 32.9474 260.915 32.5537 260.43 32.5537Z" fill="#006209"/>
<defs>
<linearGradient id="paint0_linear_406_1116" x1="243.374" y1="47.0752" x2="271.837" y2="47.0752" gradientUnits="userSpaceOnUse">
<stop stop-color="#6AA404"/>
<stop offset="1" stop-color="#04561B"/>
</linearGradient>
<linearGradient id="paint1_linear_406_1116" x1="258.664" y1="34.5493" x2="279.284" y2="34.5493" gradientUnits="userSpaceOnUse">
<stop stop-color="#6AA404"/>
<stop offset="1" stop-color="#04561B"/>
</linearGradient>
<linearGradient id="paint2_linear_406_1116" x1="261.438" y1="18.0892" x2="243.74" y2="0.404664" gradientUnits="userSpaceOnUse">
<stop stop-color="#6AA404"/>
<stop offset="1" stop-color="#04561B"/>
</linearGradient>
<linearGradient id="paint3_linear_406_1116" x1="263.559" y1="23.284" x2="270.365" y2="15.346" gradientUnits="userSpaceOnUse">
<stop stop-color="#6AA404"/>
<stop offset="1" stop-color="#04561B"/>
</linearGradient>
<linearGradient id="paint4_linear_406_1116" x1="234.817" y1="41.837" x2="253.608" y2="58.3539" gradientUnits="userSpaceOnUse">
<stop stop-color="#6AA404"/>
<stop offset="1" stop-color="#04561B"/>
</linearGradient>
<linearGradient id="paint5_linear_406_1116" x1="231.676" y1="32.1102" x2="231.584" y2="51.0043" gradientUnits="userSpaceOnUse">
<stop stop-color="#6AA404"/>
<stop offset="1" stop-color="#04561B"/>
</linearGradient>
<linearGradient id="paint6_linear_406_1116" x1="233.497" y1="20.1667" x2="219.342" y2="35.1603" gradientUnits="userSpaceOnUse">
<stop stop-color="#6AA404"/>
<stop offset="1" stop-color="#04561B"/>
</linearGradient>
<linearGradient id="paint7_linear_406_1116" x1="247.645" y1="3.43922" x2="229.955" y2="21.1295" gradientUnits="userSpaceOnUse">
<stop stop-color="#6AA404"/>
<stop offset="1" stop-color="#04561B"/>
</linearGradient>
</defs>
</svg>
