<svg width="120" height="56" viewBox="0 0 120 56" fill="none" xmlns="http://www.w3.org/2000/svg">
<path d="M5.38637 40.2689C5.40938 40.6371 5.29431 40.9937 5.06423 41.2813C4.84566 41.5114 4.42007 41.6379 3.82187 41.6379C3.22367 41.6379 2.82104 41.5229 2.60246 41.3043C2.36088 41.0167 2.24581 40.6486 2.28032 40.2689C2.28032 40.0734 2.31483 39.8663 2.41836 39.6938C2.49889 39.5557 2.60244 39.4291 2.71747 39.3141C2.84402 39.2106 2.98205 39.1186 3.1316 39.0611C3.32716 38.992 3.53427 38.9115 3.75285 38.8425C3.97142 38.7735 4.13243 38.7159 4.351 38.6354C4.56957 38.5549 4.76516 38.4859 4.94922 38.4284C5.04125 38.3938 5.13327 38.3593 5.2253 38.3018C5.27132 38.2673 5.31731 38.2328 5.35183 38.1868C5.38634 38.1407 5.40933 38.0832 5.40933 38.0257V40.2689H5.38637ZM6.18014 33.8153C5.67397 33.4012 4.89172 33.1826 3.82187 33.1826C3.35021 33.1826 2.87852 33.2286 2.41836 33.3551C2.07325 33.4472 1.73968 33.6083 1.45208 33.8268C1.2105 34.0109 1.01489 34.2525 0.899851 34.5285C0.784812 34.8046 0.727335 35.0922 0.727335 35.3913V35.8285H2.28032C2.28032 35.4949 2.38389 35.1728 2.60246 34.9197C2.82104 34.6666 3.22361 34.5401 3.83331 34.5401C4.0864 34.5401 4.35102 34.563 4.5926 34.6436C4.76516 34.7011 4.9377 34.7932 5.07575 34.9082C5.19078 35.0002 5.27135 35.1268 5.32887 35.2648C5.37488 35.3798 5.39789 35.5063 5.39789 35.6444V35.9896C5.39789 36.1161 5.37487 36.2541 5.31735 36.3691C5.25983 36.4727 5.20226 36.5762 5.12174 36.6682C5.06422 36.7488 4.98375 36.8063 4.89172 36.8638L4.6961 36.9674C4.6961 36.9674 4.5236 37.0249 4.32804 37.0939C4.13247 37.1629 3.90235 37.2435 3.63777 37.3355L2.83248 37.6116C2.55639 37.7151 2.30335 37.7957 2.08478 37.8647C1.67064 38.0027 1.30251 38.2903 1.07244 38.6699C0.830856 39.0495 0.71582 39.4867 0.71582 39.9238V40.7866C0.71582 41.0282 0.761808 41.2698 0.83083 41.5114C0.922861 41.7875 1.08394 42.0406 1.29101 42.2361C1.5671 42.4777 1.88916 42.6732 2.24578 42.7883C3.26962 43.0759 4.36253 43.0759 5.38637 42.7883C5.73149 42.6732 6.06512 42.4892 6.34121 42.2361C6.55978 42.0406 6.72079 41.7875 6.80132 41.5114C6.87034 41.2813 6.9164 41.0397 6.9164 40.7866V35.3798C6.9164 35.0807 6.85883 34.7816 6.72078 34.5055C6.59424 34.2294 6.39869 33.9879 6.15711 33.8038" fill="#1C4282"/>
<path d="M10.7244 29.6162H9.19434V42.8456H10.7244V29.6162Z" fill="#1C4282"/>
<path d="M15.6136 33.1939C15.0269 33.1709 14.4516 33.2629 13.8994 33.4585C13.5428 33.5965 13.2207 33.8151 12.9676 34.1027C12.7721 34.3097 12.6456 34.5628 12.5881 34.8389C12.542 35.023 12.519 35.2186 12.519 35.4141V42.8455H14.072V35.7132C14.072 35.5981 14.0835 35.4716 14.118 35.3565C14.1525 35.2185 14.2215 35.092 14.3251 34.9885C14.4631 34.8619 14.6127 34.7584 14.7853 34.6894C15.0383 34.5973 15.3144 34.5513 15.579 34.5628H16.2923L16.6374 33.2284C16.4763 33.2054 16.3153 33.1938 16.1542 33.2053H15.6136" fill="#1C4282"/>
<path d="M22.4008 40.2689C22.4239 40.637 22.3088 40.9936 22.0788 41.2812C21.8602 41.5113 21.446 41.6378 20.8363 41.6378C20.2266 41.6378 19.8355 41.5228 19.6169 41.3043C19.3754 41.0167 19.2603 40.6485 19.2948 40.2689C19.2948 40.0733 19.3293 39.8663 19.4328 39.6937C19.5134 39.5556 19.6169 39.4291 19.7319 39.314C19.8585 39.2105 19.9966 39.1185 20.1461 39.061C20.3417 38.992 20.5487 38.9114 20.7673 38.8424C20.9859 38.7734 21.147 38.7159 21.354 38.6354C21.5726 38.5548 21.7681 38.4858 21.9522 38.4283C22.0442 38.3938 22.1363 38.3592 22.2283 38.3017C22.2743 38.2672 22.3203 38.2327 22.3433 38.1867C22.3779 38.1407 22.4008 38.0831 22.4008 38.0256V40.2689ZM23.1831 33.8153C22.6884 33.3896 21.9062 33.1711 20.8248 33.1826C20.3532 33.1826 19.8815 33.2285 19.4214 33.3551C19.0763 33.4471 18.7426 33.6082 18.455 33.8268C18.2135 34.0108 18.0179 34.2524 17.8914 34.5285C17.7763 34.8046 17.7188 35.0922 17.7188 35.3913V35.8284H19.2718C19.2718 35.4948 19.3753 35.1727 19.5939 34.9196C19.8125 34.6666 20.2151 34.54 20.8248 34.54C21.0779 34.54 21.3425 34.563 21.5841 34.6435C21.7567 34.701 21.9292 34.7931 22.0673 34.9081C22.1823 35.0002 22.2743 35.1267 22.3203 35.2648C22.3663 35.3798 22.3893 35.5063 22.3893 35.6443V35.9895C22.3893 36.116 22.3663 36.254 22.3088 36.3691C22.2513 36.4726 22.1938 36.5762 22.1132 36.6682C22.0557 36.7487 21.9752 36.8062 21.8832 36.8637L21.6876 36.9673C21.6876 36.9673 21.515 37.0248 21.3195 37.0938C21.1239 37.1628 20.8939 37.2434 20.6293 37.3354L19.824 37.6115C19.5479 37.715 19.2948 37.7956 19.0762 37.8646C18.6621 38.0027 18.3055 38.2902 18.0639 38.6698C17.8223 39.0495 17.6958 39.4866 17.7073 39.9238V40.7866C17.7073 41.0282 17.7533 41.2697 17.8223 41.5113C17.9144 41.7874 18.0754 42.0405 18.2825 42.2361C18.5585 42.4776 18.8807 42.6732 19.2373 42.7882C20.2611 43.0758 21.354 43.0758 22.3778 42.7882C22.7229 42.6732 23.0566 42.4892 23.3327 42.2361C23.5512 42.0405 23.7123 41.7989 23.7928 41.5113C23.8734 41.2812 23.9078 41.0397 23.9078 40.7866V35.3798C23.9078 35.0807 23.8503 34.7816 23.7123 34.5055C23.5858 34.2294 23.3902 33.9878 23.1486 33.8037" fill="#1C4282"/>
<path d="M30.3954 35.84V36.001C30.3954 36.1391 30.3724 36.2772 30.3148 36.3922C30.2573 36.5188 30.1768 36.6338 30.0732 36.7143C29.9812 36.8064 29.8662 36.8869 29.7397 36.9329C29.6131 36.9789 29.4751 37.0134 29.3486 37.0134H28.3132C28.2557 37.0134 28.1636 37.0134 28.0601 37.0249C27.945 37.0364 27.8415 37.0594 27.738 37.0939C27.6345 37.1284 27.5309 37.186 27.4504 37.2435C27.3699 37.3125 27.3123 37.4046 27.2893 37.5081V35.61C27.2893 35.4949 27.3123 35.3914 27.3468 35.2878C27.3929 35.1498 27.4734 35.0232 27.5769 34.9312C27.715 34.8047 27.8875 34.7126 28.0716 34.6551C28.3362 34.5631 28.6238 34.5286 28.8999 34.5401C29.1645 34.5401 29.4406 34.5746 29.6937 34.6551C29.8662 34.7126 30.0272 34.8162 30.1538 34.9427C30.2573 35.0462 30.3263 35.1728 30.3723 35.3108C30.3954 35.4259 30.4184 35.5409 30.4184 35.6675V35.817L30.3954 35.84ZM31.4883 34.0684C31.2352 33.7808 30.9131 33.5622 30.5564 33.4242C29.4406 33.0676 28.2441 33.0676 27.1283 33.4242C26.7716 33.5622 26.4495 33.7808 26.1965 34.0684C26.0124 34.2755 25.8744 34.5286 25.8169 34.7932C25.7709 34.9887 25.7479 35.1843 25.7479 35.3799V40.7867C25.7364 41.1778 25.8514 41.5574 26.0699 41.8796C26.1735 42.0291 26.3 42.1556 26.4381 42.2822C26.5991 42.4317 26.7947 42.5467 27.0017 42.6388C27.2548 42.7538 27.5194 42.8344 27.7955 42.8919C28.1521 42.9609 28.5087 42.9954 28.8653 42.9954C29.337 42.9954 29.7972 42.9494 30.2573 42.8343C30.5564 42.7538 30.844 42.6273 31.1086 42.4547C31.3847 42.2707 31.6033 42.0176 31.7528 41.73C31.8909 41.4424 31.9599 41.1318 31.9599 40.8212V40.3841H30.4069C30.4069 40.5681 30.3724 40.7522 30.3148 40.9362C30.2573 41.1088 30.1423 41.2583 29.9928 41.3734C29.8662 41.4424 29.7397 41.4999 29.6131 41.5459C29.3715 41.6264 29.1184 41.661 28.8653 41.6495C28.6698 41.6495 28.4742 41.638 28.2786 41.592C28.1521 41.569 28.0256 41.5229 27.8991 41.4654C27.7955 41.4309 27.7035 41.3734 27.623 41.3044C27.554 41.2353 27.5079 41.1663 27.4619 41.0858C27.3469 40.8787 27.2893 40.6371 27.3008 40.3955V39.5788C27.3008 39.4177 27.3239 39.2566 27.3929 39.1071C27.4504 38.9575 27.5539 38.831 27.669 38.716C27.784 38.601 27.9106 38.5204 28.0486 38.4629C28.1982 38.4054 28.3477 38.3709 28.4972 38.3709H29.8892C30.0503 38.3709 30.2228 38.3478 30.3839 38.3018C30.5449 38.2558 30.6945 38.1983 30.844 38.1408C31.0166 38.0718 31.1776 37.9567 31.3042 37.8187C31.5572 37.5886 31.7413 37.3125 31.8564 37.0019C31.9369 36.7834 31.9714 36.5418 31.9714 36.3117V35.4374C31.9714 35.2418 31.9369 35.0462 31.9024 34.8622C31.8449 34.5861 31.7068 34.3331 31.5227 34.126" fill="#1C4282"/>
<path d="M38.057 36.5763V40.5336C38.057 40.6602 38.034 40.7982 37.988 40.9133C37.9305 41.0513 37.85 41.1779 37.735 41.2814C37.5969 41.4079 37.4358 41.4884 37.2633 41.546C37.0217 41.615 36.7686 41.661 36.504 41.6495C36.251 41.6495 36.0094 41.615 35.7678 41.546C35.5952 41.4884 35.4342 41.4079 35.2961 41.2814C35.1811 41.1779 35.1005 41.0398 35.043 40.9018C34.9855 40.7522 34.951 40.6027 34.9395 40.4416V36.5649C34.9395 36.3693 34.974 36.1622 35.0776 35.9897C35.1581 35.8516 35.2616 35.7251 35.3767 35.61C35.5032 35.495 35.6413 35.403 35.7908 35.3339C35.9864 35.2649 36.1934 35.1844 36.412 35.1154L36.9987 34.9198C37.2173 34.8508 37.4129 34.7817 37.5969 34.7242C37.7004 34.7012 37.7925 34.6552 37.873 34.5977C37.919 34.5632 37.965 34.5172 37.988 34.4712C38.011 34.4251 38.0341 34.3676 38.0456 34.3101V36.5763H38.057ZM38.057 31.9518V32.2969C38.057 32.435 38.0341 32.5615 37.9766 32.6766C37.919 32.7801 37.8615 32.8836 37.7809 32.9642C37.7234 33.0447 37.6429 33.1022 37.5509 33.1597L37.3553 33.2633C37.3553 33.2633 37.1827 33.3208 36.9872 33.3898L36.3085 33.6313L35.5032 33.9189L34.7554 34.172C34.3298 34.3101 33.9617 34.5977 33.7201 34.9773C33.4785 35.357 33.352 35.7941 33.3635 36.2312V36.6454H33.3865V40.3496H33.3635V40.7867C33.3635 41.0858 33.421 41.3734 33.536 41.638C33.6626 41.9141 33.8467 42.1557 34.0883 42.3397C34.3759 42.5583 34.7094 42.7194 35.0545 42.8114C35.5147 42.938 35.9863 42.9955 36.4695 42.9839C37.5278 42.9839 38.3101 42.7769 38.8048 42.3513C39.0464 42.1672 39.2304 41.9256 39.3685 41.6495C39.5065 41.3734 39.5755 41.0743 39.5755 40.7752V29.582H38.0225V31.9288L38.057 31.9518Z" fill="#1C4282"/>
<path d="M46.0637 40.2689C46.0867 40.637 45.9717 40.9936 45.7416 41.2812C45.5231 41.5113 45.0974 41.6378 44.4992 41.6378C43.901 41.6378 43.4984 41.5228 43.2798 41.3043C43.0382 41.0167 42.9231 40.6485 42.9577 40.2689C42.9577 40.0733 42.9922 39.8663 43.0957 39.6937C43.1762 39.5556 43.2798 39.4291 43.3948 39.314C43.5214 39.2105 43.6594 39.1185 43.8089 39.061C44.0045 38.992 44.2116 38.9114 44.4302 38.8424C44.6488 38.7734 44.8098 38.7159 45.0169 38.6354L45.615 38.4283C45.7071 38.3938 45.7991 38.3592 45.8911 38.3017C45.9371 38.2672 45.9832 38.2327 46.0062 38.1867C46.0407 38.1407 46.0637 38.0831 46.0637 38.0256V40.2689ZM46.846 33.8153C46.3513 33.3896 45.569 33.1711 44.4877 33.1826C44.016 33.1826 43.5443 33.2285 43.0842 33.3551C42.7391 33.4471 42.4055 33.6082 42.1179 33.8268C41.8763 34.0108 41.6808 34.2524 41.5542 34.5285C41.4392 34.8046 41.3816 35.0922 41.3816 35.3913V35.8284H42.9232C42.9232 35.4948 43.0267 35.1727 43.2453 34.9196C43.4638 34.6666 43.8665 34.54 44.4762 34.54C44.7293 34.54 44.9939 34.563 45.2355 34.6435C45.408 34.701 45.5806 34.7931 45.7186 34.9081C45.8336 35.0002 45.9141 35.1267 45.9717 35.2648C46.0177 35.3798 46.0407 35.5063 46.0407 35.6443V35.9895C46.0407 36.116 46.0177 36.254 45.9601 36.3691C45.9026 36.4726 45.8451 36.5762 45.7646 36.6682C45.6956 36.7487 45.6265 36.8062 45.5345 36.8637L45.339 36.9673C45.339 36.9673 45.1664 37.0248 44.9708 37.0938L44.2806 37.3354L43.4638 37.6115C43.1877 37.715 42.9347 37.7956 42.7161 37.8646C42.302 38.0027 41.9454 38.2902 41.7038 38.6698C41.4622 39.0495 41.3472 39.4866 41.3472 39.9238V40.7866C41.3472 41.0282 41.3932 41.2697 41.4622 41.5113C41.5542 41.7874 41.7153 42.0405 41.9224 42.2361C42.1985 42.4776 42.5205 42.6732 42.8771 42.7882C43.901 43.0758 44.9939 43.0758 46.0177 42.7882C46.3743 42.6732 46.6964 42.4892 46.9725 42.2361C47.1911 42.0405 47.3521 41.7989 47.4327 41.5113C47.5132 41.2812 47.5477 41.0397 47.5477 40.7866V35.3798C47.5477 35.0807 47.4902 34.7816 47.3521 34.5055C47.2141 34.2294 47.03 33.9878 46.7885 33.8037" fill="#1C4282"/>
<path d="M55.2329 34.9655C55.0028 34.5859 54.6462 34.3098 54.2206 34.1602L53.4613 33.9072L52.6446 33.631L51.9658 33.378C51.7702 33.309 51.6437 33.263 51.5977 33.2515L51.4021 33.1479C51.3101 33.1019 51.2411 33.0329 51.172 32.9523C51.0915 32.8603 51.034 32.7683 50.9765 32.6648C50.919 32.5497 50.896 32.4116 50.896 32.2851V29.6162H49.3774V42.8571H50.9075V34.2983C50.9075 34.3558 50.9305 34.4133 50.965 34.4593C50.9995 34.5054 51.034 34.5514 51.0915 34.5859C51.172 34.6434 51.264 34.6894 51.3676 34.7124C51.5631 34.7699 51.7587 34.839 51.9658 34.908C52.1729 34.977 52.3684 35.046 52.5525 35.1036C52.7366 35.1611 52.9781 35.2531 53.1737 35.3221C53.3347 35.3912 53.4843 35.4832 53.6108 35.5982C53.7259 35.7017 53.8294 35.8283 53.8984 35.9779C53.9905 36.1504 54.0365 36.3575 54.025 36.5531V42.8456H55.578V36.2194C55.578 35.7707 55.463 35.3336 55.2214 34.9655" fill="#1C4282"/>
<path d="M55.5891 12.9819H54.0591V26.2113H55.5891V12.9819Z" fill="#1C4282"/>
<path d="M32.5012 12.9819H30.9712V26.2113H32.5012V12.9819Z" fill="#1C4282"/>
<path d="M49.4004 23.715C49.4004 23.83 49.3888 23.9565 49.3543 24.0716C49.3198 24.2096 49.2393 24.3362 49.1473 24.4397C49.0207 24.5662 48.8597 24.6698 48.6872 24.7273C48.4341 24.8193 48.158 24.8539 47.8934 24.8424H39.162C38.8974 24.8424 38.6213 24.8078 38.3682 24.7273C38.1956 24.6698 38.0346 24.5662 37.908 24.4397C37.8045 24.3362 37.7355 24.2096 37.701 24.0716C37.6664 23.9565 37.655 23.8415 37.655 23.715V16.5481H36.102V27.4537C36.102 27.5802 36.0789 27.6953 36.0559 27.8103C36.0099 27.9484 35.9294 28.0749 35.8258 28.1669C35.6878 28.2935 35.5152 28.3856 35.3427 28.4431C35.0666 28.5351 34.7905 28.5696 34.5029 28.5581L34.5374 29.927C35.1241 29.9501 35.7109 29.858 36.2515 29.6625C36.6082 29.5244 36.9303 29.3059 37.1833 29.0183C37.3674 28.8227 37.5054 28.5811 37.5629 28.3165C37.6089 28.1209 37.6319 27.9254 37.6319 27.7298V25.9928C38.1151 26.1423 38.6098 26.2113 39.116 26.1998H47.8589C48.4455 26.2228 49.0322 26.1307 49.5729 25.9352C49.9295 25.7971 50.2516 25.5786 50.5047 25.291C50.6888 25.0839 50.8268 24.8309 50.8844 24.5548C50.9304 24.3707 50.9534 24.1752 50.9534 23.9796V12.9819H49.4004V23.715Z" fill="#1C4282"/>
<path d="M25.6908 23.7148C25.6908 23.8299 25.6793 23.9564 25.6448 24.0714C25.6103 24.2095 25.5413 24.336 25.4377 24.4396C25.3112 24.5661 25.1501 24.6696 24.9776 24.7272C24.7245 24.8192 24.4599 24.8538 24.1838 24.8422H15.0958C15.0958 24.8422 15.1303 24.7617 15.1418 24.7272C15.2223 24.4971 15.2569 24.2555 15.2569 24.0024V18.5957C15.2569 18.2966 15.1993 18.0089 15.0843 17.7443C14.9578 17.4682 14.7737 17.2267 14.5206 17.0426C14.233 16.824 13.8994 16.663 13.5543 16.571C13.0941 16.4445 12.6225 16.3869 12.1508 16.3984C11.0695 16.3984 10.2757 16.6055 9.79257 17.0426C9.5625 17.2267 9.36688 17.4682 9.24034 17.7443C9.1138 18.0204 9.04481 18.3195 9.05631 18.6186V19.0558H10.5863V18.8602C10.5863 18.7337 10.6093 18.6071 10.6554 18.4806C10.7129 18.3426 10.7934 18.216 10.9084 18.124C11.0465 17.9974 11.219 17.9169 11.3916 17.8594C11.6331 17.7904 11.8863 17.7443 12.1508 17.7559C12.7605 17.7559 13.1747 17.8824 13.3818 18.1355C13.6003 18.3886 13.7153 18.7107 13.7038 19.0443V23.4848C13.7383 23.8529 13.6233 24.2325 13.3818 24.5201C13.1632 24.7387 12.7606 24.8422 12.1624 24.8422L8.72266 24.8192V26.2227H24.1378C24.7245 26.2457 25.3112 26.1537 25.8519 25.9581C26.2085 25.82 26.5306 25.6015 26.7837 25.3139C26.9677 25.1068 27.1058 24.8537 27.1633 24.5776C27.2093 24.3936 27.2323 24.198 27.2323 24.0024V16.548H25.6794V23.7379L25.6908 23.7148Z" fill="#1C4282"/>
<path d="M26.3808 14.9032C26.3808 14.9032 26.3233 14.7766 26.3348 14.7076V14.0634C26.3348 14.0059 26.3463 13.9483 26.3924 13.9023C26.3924 13.9023 26.4383 13.8563 26.6339 13.8563C26.6914 13.8563 26.7605 13.8563 26.818 13.8793C26.8525 13.8793 26.8755 13.9024 26.91 13.9254C26.9215 13.9254 26.933 13.9483 26.9445 13.9598C26.9445 13.9713 26.9445 13.9943 26.9445 14.0058V14.2705H27.8533V13.9368C27.8533 13.8103 27.8303 13.6837 27.7728 13.5687C27.7152 13.4536 27.6348 13.3502 27.5312 13.2696C27.2781 13.0741 26.956 12.9935 26.6339 13.0165C26.4613 13.0165 26.2888 13.0395 26.1162 13.0855C25.9782 13.12 25.8517 13.189 25.7366 13.2811C25.6331 13.3731 25.5526 13.4767 25.495 13.6032C25.449 13.7183 25.426 13.8333 25.426 13.9598V14.9032C25.426 14.9032 25.426 14.9492 25.426 14.9722H24.9429V15.8234H27.9338V14.9376H26.6109C26.5189 14.9606 26.4383 14.9377 26.3578 14.9032" fill="#1C4282"/>
<path d="M5.37485 23.7955C5.37485 23.9105 5.35186 24.0371 5.32886 24.1521C5.28284 24.2901 5.2023 24.4167 5.09876 24.5087C4.96072 24.6353 4.78818 24.7273 4.61562 24.7848C4.33953 24.8768 4.06339 24.9114 3.7758 24.8999C3.51121 24.8999 3.23511 24.8653 2.98203 24.7848C2.80947 24.7273 2.64846 24.6237 2.52192 24.4972C2.41838 24.3937 2.34937 24.2672 2.31486 24.1176C2.29185 24.0141 2.2688 23.899 2.2688 23.784V18.9409C2.2688 18.8259 2.29185 18.7108 2.31486 18.5958C2.34937 18.4578 2.41838 18.3197 2.52192 18.2162C2.64846 18.0896 2.80947 17.9861 2.98203 17.9286C3.23511 17.8365 3.51121 17.802 3.7758 17.8135C4.06339 17.8135 4.33953 17.848 4.61562 17.9286C4.79969 17.9861 4.96072 18.0896 5.09876 18.2046C5.2023 18.2967 5.28284 18.4232 5.32886 18.5613C5.36337 18.6763 5.37485 18.8028 5.37485 18.9179V23.7725V23.7955ZM6.47924 17.3419C6.22615 17.0543 5.90405 16.8357 5.54743 16.6976C4.43156 16.341 3.23511 16.341 2.11924 16.6976C1.76262 16.8357 1.44052 17.0543 1.18744 17.3419C1.00337 17.5489 0.865309 17.802 0.80779 18.0781C0.761774 18.2622 0.73877 18.4577 0.73877 18.6533V24.0716C0.73877 24.2671 0.773278 24.4627 0.80779 24.6468C0.865309 24.9228 1.00337 25.1759 1.18744 25.383C1.44052 25.6591 1.76262 25.8777 2.11924 26.0157C3.23511 26.3723 4.43156 26.3723 5.54743 26.0157C5.90405 25.8777 6.22615 25.6591 6.47924 25.383C6.6633 25.1759 6.80129 24.9229 6.85881 24.6583C6.90483 24.4627 6.92783 24.2671 6.92783 24.0716V18.6648C6.92783 18.4693 6.89332 18.2737 6.85881 18.0781C6.80129 17.802 6.6633 17.5489 6.47924 17.3534" fill="#1C4282"/>
<path d="M5.81234 13.8213H4.25928V15.6619H5.81234V13.8213Z" fill="#1C4282"/>
<path d="M3.37337 13.8213H1.82031V15.6619H3.37337V13.8213Z" fill="#1C4282"/>
<path d="M104.319 28.2357V27.764L104.354 27.4649C104.48 26.5331 104.94 25.6704 105.654 25.0492C106.367 24.428 107.276 24.0828 108.231 24.0828H108.288C109.059 24.0713 109.807 23.8298 110.451 23.3926C111.084 22.9555 111.578 22.3342 111.866 21.621C112.153 20.9077 112.222 20.114 112.061 19.3663C111.9 18.607 111.521 17.9168 110.98 17.3761C110.428 16.8354 109.738 16.4673 108.978 16.3177C108.219 16.1682 107.437 16.2487 106.724 16.5478C106.01 16.8469 105.401 17.3531 104.975 17.9858C104.549 18.63 104.319 19.3778 104.319 20.16C104.296 21.1839 103.859 22.1502 103.134 22.8634C102.398 23.5766 101.42 23.9678 100.408 23.9678C99.3956 23.9678 98.4062 23.5651 97.67 22.8634C96.9338 22.1502 96.5082 21.1839 96.4851 20.16C96.4506 19.1362 96.025 18.1698 95.3002 17.4566C94.564 16.7434 93.5862 16.3523 92.5738 16.3523C91.5615 16.3523 90.5722 16.7549 89.8474 17.4566C89.1112 18.1698 88.6856 19.1362 88.6626 20.16C88.6626 21.1954 88.2484 22.1962 87.5122 22.9324C86.7759 23.6687 85.7866 24.0828 84.7397 24.0828C83.6929 24.0828 82.7036 23.6687 81.9673 22.9324C81.2311 22.1962 80.8169 21.2069 80.8169 20.16C80.8169 19.3893 80.5869 18.63 80.1612 17.9858C79.7356 17.3416 79.1258 16.8354 78.4126 16.5363C77.6994 16.2372 76.9171 16.1567 76.1578 16.3062C75.3986 16.4558 74.6968 16.8239 74.1447 17.3646C73.5925 17.9053 73.2129 18.5955 73.0519 19.3548C72.8908 20.114 72.9598 20.8962 73.2474 21.621C73.535 22.3342 74.0296 22.9555 74.6623 23.3926C75.2951 23.8298 76.0543 24.0713 76.8251 24.0828H76.8826C77.8259 24.0828 78.7463 24.428 79.4595 25.0492C80.1727 25.6704 80.6328 26.5331 80.7594 27.4649L80.7939 27.7525V28.0976V27.9941V28.2242L80.7709 28.5233C80.6443 29.4551 80.1842 30.3179 79.4709 30.9391C78.7577 31.5603 77.8489 31.9054 76.8941 31.9054H76.8366C76.0658 31.9169 75.3181 32.1585 74.6739 32.5957C74.0412 33.0328 73.5465 33.654 73.2589 34.3672C72.9713 35.0805 72.9023 35.8743 73.0634 36.622C73.2244 37.3813 73.604 38.0715 74.1562 38.6121C74.7084 39.1528 75.4101 39.5209 76.1578 39.6705C76.9171 39.82 77.6994 39.7396 78.4126 39.4405C79.1258 39.1414 79.7356 38.6352 80.1612 37.991C80.5869 37.3468 80.8169 36.5875 80.8169 35.8167C80.8169 35.2991 80.9205 34.7929 81.116 34.3212C81.3116 33.8496 81.5992 33.4124 81.9673 33.0558C82.3354 32.6877 82.7611 32.4001 83.2327 32.2045C83.7044 32.0089 84.222 31.9054 84.7282 31.9054C85.2344 31.9054 85.752 32.0089 86.2237 32.2045C86.6953 32.4001 87.1325 32.6877 87.4891 33.0558C87.8573 33.4239 88.1449 33.8496 88.3404 34.3212C88.536 34.7929 88.6395 35.3106 88.6395 35.8167C88.6395 36.5875 88.8696 37.3468 89.2953 37.991C89.7209 38.6352 90.3305 39.1414 91.0438 39.4405C91.757 39.7396 92.5393 39.82 93.2986 39.6705C94.0578 39.5209 94.7595 39.1528 95.3117 38.6121C95.8639 38.0715 96.2436 37.3813 96.4046 36.622C96.5657 35.8628 96.4967 35.0805 96.2091 34.3672C95.9215 33.654 95.4268 33.0328 94.794 32.5957C94.1613 32.1585 93.4021 31.9169 92.6313 31.9054H92.5738C91.6305 31.9054 90.7102 31.5603 89.997 30.9391C89.2837 30.3179 88.8236 29.4551 88.697 28.5233L88.6626 28.2242V27.9941V28.1091V27.764L88.697 27.4765C88.8351 26.5446 89.2952 25.6933 90.0085 25.0721C90.7217 24.4509 91.6305 24.1174 92.5738 24.1174C93.5171 24.1174 94.4259 24.4624 95.1391 25.0721C95.8524 25.6933 96.3126 26.5446 96.4506 27.4765L96.4736 27.764V28.3967C96.4736 28.4543 96.4966 28.5233 96.5081 28.5808C96.5081 28.6384 96.5081 28.7189 96.5427 28.7879C96.5657 28.8569 96.5771 28.9375 96.6002 29.0065C96.6117 29.0755 96.6232 29.11 96.6462 29.1676C96.6577 29.2136 96.7037 29.317 96.7267 29.3976C96.7497 29.4781 96.7612 29.4897 96.7727 29.5242C96.7842 29.5702 96.8532 29.6852 96.8878 29.7657C96.8878 29.8002 96.9223 29.8232 96.9338 29.8578C96.9798 29.9498 97.0373 30.0303 97.0833 30.1108C97.0833 30.1338 97.1063 30.1568 97.1294 30.1798C97.1869 30.2719 97.2559 30.3639 97.3249 30.4445L97.3479 30.4789C97.417 30.571 97.4975 30.6515 97.578 30.7436C98.2913 31.4798 99.2691 31.8939 100.304 31.9169H100.373C100.891 31.9169 101.397 32.0205 101.869 32.216C102.341 32.4116 102.778 32.6992 103.146 33.0673C103.514 33.4354 103.802 33.8611 103.997 34.3328C104.193 34.8044 104.296 35.3221 104.296 35.8282C104.296 36.599 104.526 37.3583 104.952 38.0025C105.378 38.6467 105.987 39.1528 106.701 39.4519C107.414 39.751 108.196 39.8315 108.955 39.682C109.715 39.5324 110.416 39.1643 110.968 38.6237C111.521 38.083 111.9 37.3928 112.061 36.6335C112.222 35.8743 112.153 35.092 111.866 34.3672C111.578 33.654 111.084 33.0328 110.451 32.5957C109.818 32.1585 109.059 31.9169 108.288 31.9054H108.231C107.287 31.9054 106.367 31.5603 105.654 30.9391C104.94 30.3179 104.48 29.4551 104.354 28.5233V28.2472L104.319 28.2357ZM88.6395 27.9941C88.6395 27.9941 88.6395 27.9596 88.6395 27.9366V27.8906V27.9941ZM96.4736 27.8906C96.4736 27.8906 96.4736 27.9481 96.4736 27.9711V27.9941V27.8906Z" fill="#1C4282"/>
<path d="M87.5119 15.0871C88.0641 14.5349 88.4322 13.8331 88.5817 13.0739C88.7313 12.3146 88.6508 11.5209 88.3517 10.8077C88.0526 10.0944 87.5464 9.47318 86.9022 9.04754C86.2579 8.6104 85.4987 8.38037 84.7164 8.38037C83.9341 8.38037 83.1749 8.6104 82.5307 9.04754C81.8865 9.48469 81.3803 10.0944 81.0812 10.8077C80.7821 11.5209 80.7016 12.3146 80.8511 13.0739C81.0007 13.8331 81.3803 14.5349 81.921 15.0871C82.6572 15.8233 83.6581 16.2374 84.705 16.2374C85.7518 16.2374 86.7526 15.8233 87.4889 15.0871" fill="#4B80BA"/>
<path d="M95.3349 7.21827C95.887 6.66608 96.2551 5.96435 96.4047 5.2051C96.5542 4.44584 96.4737 3.65203 96.1861 2.92729C95.887 2.21405 95.3808 1.59288 94.7366 1.16724C94.0924 0.7416 93.3331 0.5 92.5509 0.5C91.7686 0.5 91.0094 0.730096 90.3652 1.16724C89.721 1.60439 89.2148 2.21405 88.9157 2.92729C88.6166 3.64053 88.5361 4.43434 88.6971 5.2051C88.8467 5.96435 89.2263 6.66608 89.7785 7.21827C90.1466 7.58639 90.5722 7.87397 91.0554 8.06954C91.5386 8.2651 92.0447 8.36865 92.5624 8.36865C93.0801 8.36865 93.5862 8.2651 94.0694 8.06954C94.5525 7.87397 94.9782 7.58639 95.3464 7.21827H95.3349Z" fill="#1C4282"/>
<path d="M97.6816 9.53075C97.1294 10.0829 96.7613 10.7847 96.6002 11.5439C96.4507 12.3032 96.5197 13.0969 96.8188 13.8217C97.1179 14.5464 97.6241 15.1561 98.2683 15.5932C98.9125 16.0304 99.6718 16.2605 100.454 16.2605C101.236 16.2605 101.996 16.0304 102.64 15.5932C103.284 15.1561 103.79 14.5464 104.089 13.8217C104.388 13.0969 104.469 12.3147 104.308 11.5439C104.158 10.7847 103.779 10.0829 103.226 9.53075C102.858 9.16263 102.433 8.87498 101.95 8.67941C101.466 8.48385 100.96 8.38037 100.443 8.38037C99.9248 8.38037 99.4187 8.48385 98.9355 8.67941C98.4524 8.87498 98.0267 9.16263 97.6585 9.53075H97.6816Z" fill="#4B80BA"/>
<path d="M113.292 25.1411C112.74 25.6933 112.372 26.395 112.211 27.1543C112.061 27.9135 112.142 28.7073 112.429 29.432C112.729 30.1568 113.235 30.7664 113.879 31.2036C114.523 31.6407 115.282 31.8708 116.065 31.8708C116.847 31.8708 117.606 31.6407 118.25 31.2036C118.895 30.7664 119.401 30.1568 119.7 29.432C119.999 28.7073 120.08 27.925 119.918 27.1543C119.769 26.395 119.389 25.6933 118.837 25.1411C118.101 24.4049 117.1 23.9907 116.053 23.9907C115.006 23.9907 114.005 24.4049 113.269 25.1411H113.292Z" fill="#4B80BA"/>
<path d="M97.6587 40.9126C97.1065 41.4648 96.7384 42.1665 96.5889 42.9258C96.4393 43.685 96.5198 44.4788 96.8074 45.2035C97.1065 45.9167 97.6127 46.538 98.2569 46.9636C98.9011 47.4008 99.6604 47.6309 100.443 47.6309C101.225 47.6309 101.984 47.4008 102.628 46.9636C103.273 46.5265 103.779 45.9167 104.078 45.2035C104.377 44.4903 104.457 43.6965 104.296 42.9258C104.147 42.1665 103.767 41.4648 103.215 40.9126C102.847 40.5445 102.421 40.2569 101.938 40.0613C101.455 39.8658 100.949 39.7622 100.431 39.7622C99.9135 39.7622 99.4073 39.8658 98.9242 40.0613C98.441 40.2569 98.0154 40.5445 97.6473 40.9126H97.6587Z" fill="#4B80BA"/>
<path d="M89.7786 48.7817C89.2264 49.3339 88.8583 50.0356 88.6972 50.7949C88.5477 51.5542 88.6282 52.3479 88.9158 53.0726C89.2149 53.7859 89.7211 54.4071 90.3653 54.8328C91.0095 55.2699 91.7687 55.4999 92.551 55.4999C93.3333 55.4999 94.0925 55.2699 94.7368 54.8328C95.381 54.3956 95.8872 53.7859 96.1863 53.0726C96.4854 52.3594 96.5659 51.5657 96.4048 50.7949C96.2553 50.0356 95.8757 49.3339 95.335 48.7817C94.9669 48.4136 94.5412 48.126 94.0581 47.9305C93.5749 47.7349 93.0687 47.6313 92.551 47.6313C92.0333 47.6313 91.5272 47.7349 91.044 47.9305C90.5723 48.126 90.1352 48.4136 89.7671 48.7817H89.7786Z" fill="#1C4282"/>
<path d="M71.8097 30.6977C72.3618 30.1455 72.73 29.4438 72.891 28.6845C73.0406 27.9253 72.96 27.1315 72.6725 26.4068C72.3734 25.6935 71.8672 25.0723 71.223 24.6467C70.5787 24.2095 69.8195 23.9795 69.0373 23.9795C68.255 23.9795 67.4957 24.2095 66.8515 24.6467C66.2073 25.0838 65.7011 25.6935 65.402 26.4068C65.1029 27.12 65.0224 27.9138 65.1834 28.6845C65.333 29.4438 65.7126 30.1455 66.2648 30.6977C66.6329 31.0658 67.0586 31.3534 67.5417 31.549C68.0134 31.7445 68.531 31.8481 69.0487 31.8481C69.5664 31.8481 70.0726 31.7445 70.5557 31.549C71.0274 31.3534 71.4646 31.0658 71.8327 30.6977H71.8097Z" fill="#4B80BA"/>
<path d="M81.9441 40.9126C81.392 41.4648 81.0238 42.1665 80.8628 42.9258C80.7132 43.685 80.7938 44.4788 81.0814 45.192C81.3805 45.9053 81.8866 46.5265 82.5308 46.9521C83.1751 47.3892 83.9343 47.6193 84.7165 47.6193C85.4988 47.6193 86.2581 47.3892 86.9023 46.9521C87.5465 46.515 88.0527 45.9053 88.3518 45.192C88.6509 44.4788 88.7314 43.685 88.5704 42.9258C88.4208 42.1665 88.0412 41.4648 87.489 40.9126C87.1209 40.5445 86.6952 40.2569 86.2121 40.0613C85.7404 39.8658 85.2228 39.7622 84.7051 39.7622C84.1874 39.7622 83.6812 39.8658 83.1981 40.0613C82.7264 40.2569 82.2892 40.5445 81.9211 40.9126H81.9441Z" fill="#4B80BA"/>
</svg>
