<svg width="156" height="155" viewBox="0 0 156 155" fill="none" xmlns="http://www.w3.org/2000/svg">
<g filter="url(#filter0_d_22_320)">
<path d="M124.32 77.4964C124.32 103.176 103.503 123.993 77.8236 123.993C52.1444 123.993 31.3273 103.176 31.3273 77.4964C31.3273 51.8171 52.1444 31 77.8236 31C103.503 31 124.32 51.8171 124.32 77.4964Z" fill="white"/>
</g>
<g filter="url(#filter1_d_22_320)">
<path d="M110.888 77.4964C110.888 95.7572 96.0845 110.561 77.8237 110.561C59.5629 110.561 44.7596 95.7572 44.7596 77.4964C44.7596 59.2357 59.5629 44.4324 77.8237 44.4324C96.0845 44.4324 110.888 59.2357 110.888 77.4964Z" fill="white"/>
</g>
<path d="M63.2962 89.9623H91.4955" stroke="#486AB5" stroke-width="1.70905" stroke-miterlimit="10" stroke-linecap="round" stroke-linejoin="round"/>
<path d="M87.3689 89.9747V84.2579" stroke="#486AB5" stroke-width="1.70905" stroke-miterlimit="10" stroke-linecap="round" stroke-linejoin="round"/>
<path d="M87.3941 75.7219C85.8303 75.7219 84.5741 76.9781 84.5741 78.5419V81.4515C84.5741 83.0152 85.8303 84.2714 87.3941 84.2714C88.9578 84.2714 90.214 83.0152 90.214 81.4515V78.5419C90.214 76.9781 88.9578 75.7219 87.3941 75.7219Z" stroke="#486AB5" stroke-width="1.70905" stroke-miterlimit="10" stroke-linecap="round" stroke-linejoin="round"/>
<path d="M64.7072 89.9622V69.4921C64.7072 66.9157 65.989 65.6211 68.5398 65.6211H76.5252C79.076 65.6211 80.3449 66.9157 80.3449 69.4921V89.9622" stroke="#486AB5" stroke-width="1.70905" stroke-miterlimit="10" stroke-linecap="round" stroke-linejoin="round"/>
<path d="M69.4493 72.3374H75.7942" stroke="#486AB5" stroke-width="1.70905" stroke-miterlimit="10" stroke-linecap="round" stroke-linejoin="round"/>
<path d="M69.4493 77.1442H75.7942" stroke="#486AB5" stroke-width="1.70905" stroke-miterlimit="10" stroke-linecap="round" stroke-linejoin="round"/>
<path d="M72.5897 89.9623V85.1556" stroke="#486AB5" stroke-width="1.70905" stroke-miterlimit="10" stroke-linecap="round" stroke-linejoin="round"/>
<defs>
<filter id="filter0_d_22_320" x="0.329695" y="0.00242424" width="154.988" height="154.988" filterUnits="userSpaceOnUse" color-interpolation-filters="sRGB">
<feFlood flood-opacity="0" result="BackgroundImageFix"/>
<feColorMatrix in="SourceAlpha" type="matrix" values="0 0 0 0 0 0 0 0 0 0 0 0 0 0 0 0 0 0 127 0" result="hardAlpha"/>
<feOffset/>
<feGaussianBlur stdDeviation="15.4988"/>
<feComposite in2="hardAlpha" operator="out"/>
<feColorMatrix type="matrix" values="0 0 0 0 0.00392157 0 0 0 0 0.0705882 0 0 0 0 0.568627 0 0 0 0.05 0"/>
<feBlend mode="normal" in2="BackgroundImageFix" result="effect1_dropShadow_22_320"/>
<feBlend mode="normal" in="SourceGraphic" in2="effect1_dropShadow_22_320" result="shape"/>
</filter>
<filter id="filter1_d_22_320" x="13.762" y="13.4348" width="128.123" height="128.123" filterUnits="userSpaceOnUse" color-interpolation-filters="sRGB">
<feFlood flood-opacity="0" result="BackgroundImageFix"/>
<feColorMatrix in="SourceAlpha" type="matrix" values="0 0 0 0 0 0 0 0 0 0 0 0 0 0 0 0 0 0 127 0" result="hardAlpha"/>
<feOffset/>
<feGaussianBlur stdDeviation="15.4988"/>
<feComposite in2="hardAlpha" operator="out"/>
<feColorMatrix type="matrix" values="0 0 0 0 0.00392157 0 0 0 0 0.0705882 0 0 0 0 0.568627 0 0 0 0.08 0"/>
<feBlend mode="normal" in2="BackgroundImageFix" result="effect1_dropShadow_22_320"/>
<feBlend mode="normal" in="SourceGraphic" in2="effect1_dropShadow_22_320" result="shape"/>
</filter>
</defs>
</svg>
