<svg width="27" height="27" viewBox="0 0 27 27" fill="none" xmlns="http://www.w3.org/2000/svg">
<g id="vuesax/linear/layer">
<g id="layer">
<path id="Vector" d="M12.7151 3.87056L6.2984 6.71999C4.44953 7.53567 4.44953 8.88426 6.2984 9.69994L12.7151 12.5494C13.4437 12.8756 14.6401 12.8756 15.3687 12.5494L21.7854 9.69994C23.6343 8.88426 23.6343 7.53567 21.7854 6.71999L15.3687 3.87056C14.6401 3.54429 13.4437 3.54429 12.7151 3.87056Z" stroke="#5CAEFF" stroke-width="1.48305" stroke-linecap="round" stroke-linejoin="round"/>
<path id="Vector_2" d="M23.6017 12.6581C23.6017 13.5716 22.9165 14.6266 22.0791 14.9964L14.6945 18.2808C14.1289 18.531 13.4872 18.531 12.9326 18.2808L5.54798 14.9964C4.71055 14.6266 4.02538 13.5716 4.02538 12.6581" stroke="#5CAEFF" stroke-width="1.48305" stroke-linecap="round" stroke-linejoin="round"/>
<path id="Vector_3" d="M23.6017 18.0959C23.6017 19.1074 23.0035 20.0209 22.0791 20.4342L14.6945 23.7187C14.1289 23.9688 13.4872 23.9688 12.9326 23.7187L5.54798 20.4342C4.62355 20.0209 4.02538 19.1074 4.02538 18.0959" stroke="#5CAEFF" stroke-width="1.48305" stroke-linecap="round" stroke-linejoin="round"/>
</g>
</g>
</svg>
