<svg width="157" height="225" viewBox="0 0 157 225" fill="none" xmlns="http://www.w3.org/2000/svg">
<g filter="url(#filter0_d_4_1816)">
<path d="M125.526 78.8692C125.526 104.841 104.472 125.896 78.4999 125.896C52.5279 125.896 31.4734 104.841 31.4734 78.8692C31.4734 52.8971 52.5279 31.8426 78.4999 31.8426C104.472 31.8426 125.526 52.8971 125.526 78.8692Z" fill="white"/>
</g>
<g filter="url(#filter1_d_4_1816)">
<path d="M111.941 78.8692C111.941 97.3382 96.969 112.31 78.4999 112.31C60.0309 112.31 45.0588 97.3382 45.0588 78.8692C45.0588 60.4002 60.0309 45.4281 78.4999 45.4281C96.969 45.4281 111.941 60.4002 111.941 78.8692Z" fill="white"/>
</g>
<path d="M73.8187 92.9772H82.0802C88.9647 92.9772 91.7185 90.2234 91.7185 83.3388V75.0774C91.7185 68.1929 88.9647 65.4391 82.0802 65.4391H73.8187C66.9342 65.4391 64.1804 68.1929 64.1804 75.0774V83.3388C64.1804 90.2234 66.9342 92.9772 73.8187 92.9772Z" stroke="#486AB5" stroke-width="2.20305" stroke-linecap="round" stroke-linejoin="round"/>
<path d="M71.5193 82.6366L74.7963 78.382C75.2645 77.7761 76.1319 77.666 76.7378 78.1341L79.2575 80.1169C79.8633 80.585 80.7308 80.4749 81.1989 79.8828L84.3796 75.7796" stroke="#486AB5" stroke-width="2.20305" stroke-linecap="round" stroke-linejoin="round"/>
<path d="M33.1247 168.515C33.2568 168.515 33.3229 168.575 33.3229 168.693V170.101C33.3229 170.233 33.2568 170.299 33.1247 170.299C30.9569 170.299 28.9873 169.718 27.2161 168.555C25.696 169.374 24.7443 169.949 24.3609 170.28C23.8586 170.716 23.6075 171.198 23.6075 171.727C23.6075 172.428 23.9578 172.983 24.6583 173.393C25.3721 173.816 26.3371 174.027 27.5532 174.027C28.9279 174.027 30.4149 173.783 32.0143 173.293L32.4902 174.741C30.6264 175.415 28.9279 175.752 27.3945 175.752C25.7555 175.752 24.4469 175.402 23.4687 174.701C22.5038 174.014 22.0213 173.082 22.0213 171.906C22.0213 171.046 22.3055 170.333 22.8739 169.764C23.4423 169.196 24.3411 168.588 25.5704 167.94C24.7773 167.028 24.1164 166.195 23.5877 165.442C23.0722 164.675 22.4972 163.69 21.8627 162.487L22.517 160.961C24.3808 160.009 26.0463 159.533 27.5135 159.533C28.8353 159.533 29.9324 159.89 30.8048 160.604C31.6905 161.304 32.1333 162.19 32.1333 163.261C32.1333 164.807 31.0229 166.275 28.8023 167.662C30.1638 168.231 31.6046 168.515 33.1247 168.515ZM27.2557 161.238C26.2247 161.225 25.0219 161.536 23.6472 162.17C24.6517 164.1 25.7819 165.772 27.0376 167.187C29.298 165.944 30.4281 164.821 30.4281 163.816C30.4281 163.049 30.1373 162.428 29.5557 161.952C28.9741 161.476 28.2075 161.238 27.2557 161.238ZM38.2641 157.59L36.8167 159.018L35.3693 157.59L36.8167 156.163L38.2641 157.59ZM41.4167 157.59L39.9693 159.018L38.5021 157.59L39.9693 156.163L41.4167 157.59ZM38.5417 160.683C39.8107 160.683 40.8747 161.119 41.7339 161.992C42.5931 162.851 43.0227 163.928 43.0227 165.224C43.0227 166.81 42.527 168.052 41.5357 168.951C40.5575 169.85 39.2026 170.299 37.471 170.299H33.1288C32.9967 170.299 32.9306 170.233 32.9306 170.101V168.693C32.9306 168.575 32.9967 168.515 33.1288 168.515H34.834C34.2392 167.286 33.9418 166.215 33.9418 165.303C33.9418 163.968 34.3714 162.864 35.2305 161.992C36.1029 161.119 37.2067 160.683 38.5417 160.683ZM37.6098 168.515C38.7466 168.515 39.6521 168.231 40.3262 167.662C41.0003 167.094 41.3374 166.301 41.3374 165.283C41.3374 164.437 41.0598 163.743 40.5046 163.201C39.9627 162.646 39.2753 162.369 38.4426 162.369C37.6495 162.369 36.9754 162.666 36.4202 163.261C35.865 163.842 35.5874 164.53 35.5874 165.323C35.5874 166.275 35.9179 167.339 36.5788 168.515H37.6098ZM54.6018 168.515C54.734 168.515 54.8 168.575 54.8 168.693V170.101C54.8 170.233 54.734 170.299 54.6018 170.299H53.432C53.194 173.141 50.7354 174.562 46.0562 174.562L45.8579 173.115C47.6952 173.115 49.103 172.89 50.0811 172.441C51.0593 171.991 51.6144 171.278 51.7466 170.299H49.3673C47.9662 170.299 46.8426 169.877 45.9967 169.031C45.1507 168.171 44.7277 167.021 44.7277 165.581C44.7277 164.166 45.1573 163.01 46.0165 162.111C46.8889 161.212 47.986 160.763 49.3079 160.763C50.5371 160.763 51.5351 161.172 52.3018 161.992C53.0684 162.798 53.4518 163.869 53.4518 165.204V168.515H54.6018ZM46.2941 165.501C46.2941 166.493 46.5915 167.253 47.1863 167.781C47.7811 168.31 48.5808 168.575 49.5854 168.575C50.0084 168.575 50.7354 168.561 51.7664 168.535V165.343C51.7664 164.483 51.5219 163.796 51.0328 163.281C50.557 162.752 49.9291 162.487 49.1492 162.487C48.3297 162.487 47.649 162.765 47.107 163.32C46.5651 163.875 46.2941 164.602 46.2941 165.501ZM58.2503 159.712L56.8029 161.139L55.3555 159.712L56.8029 158.284L58.2503 159.712ZM61.4029 159.712L59.9555 161.139L58.4883 159.712L59.9555 158.284L61.4029 159.712ZM62.0572 168.515C62.1894 168.515 62.2555 168.575 62.2555 168.693V170.101C62.2555 170.233 62.1894 170.299 62.0572 170.299C60.8279 170.299 59.6911 169.817 58.6469 168.852C57.9331 169.817 56.5848 170.299 54.6021 170.299C54.4699 170.299 54.4038 170.233 54.4038 170.101L54.4236 168.693C54.4236 168.575 54.4897 168.515 54.6219 168.515C55.6794 168.515 56.446 168.323 56.9219 167.94C57.411 167.543 57.6555 166.909 57.6555 166.037V162.825L59.321 162.567V166.493C59.321 166.823 59.288 167.167 59.2219 167.524C60.1075 168.185 61.0526 168.515 62.0572 168.515ZM73.2394 168.515C73.3716 168.515 73.4377 168.575 73.4377 168.693V170.101C73.4377 170.233 73.3716 170.299 73.2394 170.299H68.4411C67.1325 170.299 66.0354 169.976 65.1498 169.328C64.1188 169.976 63.0877 170.299 62.0567 170.299C61.9245 170.299 61.8584 170.233 61.8584 170.101V168.693C61.8584 168.575 61.9245 168.515 62.0567 168.515C62.7441 168.515 63.3984 168.37 64.0196 168.079C63.5438 167.299 63.3058 166.367 63.3058 165.283C63.3058 163.961 63.7288 162.864 64.5748 161.992C65.4208 161.119 66.4981 160.683 67.8067 160.683C69.036 160.683 70.0868 161.126 70.9592 162.012C71.8316 162.884 72.2678 163.915 72.2678 165.105C72.2678 166.136 72.0365 167.273 71.5739 168.515H73.2394ZM68.3024 168.515H69.948C70.4107 167.22 70.642 166.175 70.642 165.382C70.642 164.576 70.3776 163.869 69.8489 163.261C69.3334 162.653 68.6857 162.349 67.9058 162.349C67.0202 162.349 66.313 162.626 65.7843 163.181C65.2555 163.723 64.9912 164.444 64.9912 165.343C64.9912 166.294 65.2886 167.061 65.8834 167.643C66.4782 168.224 67.2845 168.515 68.3024 168.515ZM73.2484 170.299C73.1162 170.299 73.0501 170.233 73.0501 170.101V168.693C73.0501 168.575 73.1228 168.515 73.2682 168.515C74.9205 168.515 75.7466 167.656 75.7466 165.937L75.7664 156.083L77.4319 155.825V166.334C77.4319 168.978 76.0374 170.299 73.2484 170.299ZM80.8596 170.299V156.083L82.5449 155.825V170.299H80.8596ZM100.729 168.515C100.862 168.515 100.928 168.575 100.928 168.693V170.101C100.928 170.233 100.862 170.299 100.729 170.299C99.5663 170.299 98.5088 169.857 97.5571 168.971C96.8301 169.857 95.6801 170.299 94.1071 170.299H89.4675L89.1304 168.515H94.1269C94.9333 168.515 95.5479 168.317 95.9709 167.92C96.4071 167.524 96.6252 166.962 96.6252 166.235L96.6054 165.085C96.5921 164.279 96.3013 163.624 95.733 163.122C95.1778 162.62 94.464 162.369 93.5916 162.369H92.4218V160.624H93.9485C95.2174 160.624 96.2551 161.014 97.0614 161.794C97.8677 162.573 98.2775 163.598 98.2907 164.867L98.3105 166.493C98.3105 166.85 98.2643 167.233 98.1717 167.643C98.9913 168.224 99.8438 168.515 100.729 168.515ZM104.888 157.907H107.644L107.247 159.236H102.548V157.907H103.758C103.493 157.498 103.361 157.094 103.361 156.698C103.361 156.103 103.559 155.627 103.956 155.27C104.352 154.9 104.861 154.715 105.483 154.715C105.919 154.715 106.421 154.847 106.99 155.112V156.341C106.461 156.143 106.011 156.044 105.641 156.044C105.298 156.044 105.02 156.13 104.808 156.301C104.61 156.46 104.511 156.685 104.511 156.975C104.511 157.306 104.637 157.617 104.888 157.907ZM104.729 166.037V160.723L106.395 160.445V166.493C106.395 167.709 106.044 168.647 105.344 169.308C104.643 169.969 103.606 170.299 102.231 170.299H100.724C100.592 170.299 100.526 170.233 100.526 170.101L100.546 168.693C100.546 168.575 100.612 168.515 100.744 168.515H102.251C103.903 168.515 104.729 167.689 104.729 166.037ZM113.603 170.299C110.827 170.299 109.439 168.978 109.439 166.334L109.419 156.083L111.104 155.825V165.937C111.104 167.656 111.931 168.515 113.583 168.515C113.715 168.515 113.781 168.575 113.781 168.693L113.801 170.101C113.801 170.233 113.735 170.299 113.603 170.299ZM125.477 168.515C125.609 168.515 125.675 168.575 125.675 168.693V170.101C125.675 170.233 125.609 170.299 125.477 170.299C123.164 170.299 121.3 169.949 119.886 169.249C119 169.645 118.088 169.923 117.149 170.081C116.211 170.227 115.028 170.299 113.6 170.299C113.468 170.286 113.402 170.22 113.402 170.101V168.693C113.402 168.575 113.468 168.515 113.6 168.515C114.962 168.515 116.303 168.396 117.625 168.158C116.925 167.325 116.33 166.546 115.841 165.819C115.352 165.078 114.81 164.146 114.215 163.023L114.849 161.496C116.7 160.544 118.372 160.069 119.866 160.069C121.188 160.069 122.285 160.419 123.157 161.119C124.029 161.82 124.466 162.712 124.466 163.796C124.466 164.55 124.234 165.316 123.772 166.096C123.309 166.863 122.628 167.563 121.729 168.198C122.787 168.409 124.036 168.515 125.477 168.515ZM119.588 161.774C118.557 161.76 117.361 162.071 115.999 162.706C116.581 163.829 117.123 164.768 117.625 165.521C118.141 166.261 118.769 167.048 119.509 167.881C120.461 167.418 121.234 166.856 121.829 166.195C122.437 165.534 122.741 164.92 122.741 164.351C122.741 163.585 122.45 162.963 121.868 162.487C121.3 162.012 120.54 161.774 119.588 161.774ZM125.508 170.299C125.376 170.299 125.31 170.233 125.31 170.101V168.693C125.31 168.575 125.383 168.515 125.528 168.515C127.18 168.515 128.007 167.656 128.007 165.937L128.026 156.083L129.692 155.825V166.334C129.692 168.978 128.297 170.299 125.508 170.299ZM133.12 170.299V156.083L134.805 155.825V170.299H133.12Z" fill="#8DBDFA"/>
<path d="M67.8593 206.598H65.1099V210.299H61.9375V206.598H52.5261V204.166L61.8847 192.323H65.1099V204.166H67.8593V206.598ZM61.9375 204.166V196.156L55.725 204.166H61.9375ZM71.0753 192.323H82.1522L81.7557 194.887H73.719L73.481 199.408C74.6795 199.179 75.781 199.064 76.7856 199.064C78.7595 199.064 80.3017 199.557 81.412 200.544C82.54 201.514 83.1039 202.836 83.1039 204.51C83.1039 206.413 82.4695 207.903 81.2005 208.978C79.9492 210.035 78.2132 210.564 75.9925 210.564C73.4193 210.564 71.2515 210.07 69.4891 209.083L70.3615 206.836C72.3178 207.682 74.0274 208.105 75.4902 208.105C76.8825 208.105 77.9576 207.806 78.7155 207.206C79.4909 206.59 79.8787 205.708 79.8787 204.563C79.8787 203.558 79.4997 202.774 78.7419 202.21C78.0017 201.646 76.9442 201.364 75.5695 201.364C74.1243 201.364 72.4676 201.593 70.5994 202.051L71.0753 192.323ZM92.4552 200.439C91.7503 201.338 90.7192 201.787 89.3622 201.787C88.0051 201.787 86.9653 201.338 86.2427 200.439C85.5377 199.522 85.1852 198.35 85.1852 196.923C85.1852 195.495 85.5377 194.332 86.2427 193.433C86.9653 192.517 88.0051 192.058 89.3622 192.058C90.7192 192.058 91.7503 192.517 92.4552 193.433C93.1778 194.332 93.5391 195.495 93.5391 196.923C93.5391 198.35 93.1778 199.522 92.4552 200.439ZM96.315 200.518H94.5702L98.8 192.323H101.232L96.315 200.518ZM91.1334 194.438C90.7457 193.821 90.1553 193.512 89.3622 193.512C88.5691 193.512 87.9698 193.821 87.5645 194.438C87.1591 195.054 86.9564 195.883 86.9564 196.923C86.9564 197.962 87.1503 198.791 87.538 199.408C87.9434 200.007 88.5514 200.306 89.3622 200.306C90.1553 200.306 90.7457 200.007 91.1334 199.408C91.5388 198.791 91.7415 197.962 91.7415 196.923C91.7415 195.883 91.5388 195.054 91.1334 194.438ZM103.691 209.163C102.986 210.062 101.955 210.511 100.598 210.511C99.2406 210.511 98.2008 210.062 97.4782 209.163C96.7732 208.246 96.4207 207.074 96.4207 205.647C96.4207 204.219 96.7732 203.056 97.4782 202.157C98.2008 201.241 99.2406 200.782 100.598 200.782C101.955 200.782 102.986 201.241 103.691 202.157C104.413 203.056 104.775 204.219 104.775 205.647C104.775 207.074 104.413 208.246 103.691 209.163ZM93.5127 202.104H95.284L91.0541 210.299H88.6219L93.5127 202.104ZM102.395 203.162C102.008 202.545 101.417 202.236 100.624 202.236C99.831 202.236 99.2318 202.545 98.8265 203.162C98.4211 203.778 98.2184 204.607 98.2184 205.647C98.2184 206.687 98.4123 207.515 98.8 208.132C99.2054 208.731 99.8134 209.031 100.624 209.031C101.417 209.031 102.008 208.731 102.395 208.132C102.801 207.515 103.003 206.687 103.003 205.647C103.003 204.607 102.801 203.778 102.395 203.162Z" fill="white"/>
<defs>
<filter id="filter0_d_4_1816" x="0.122353" y="0.4916" width="156.755" height="156.755" filterUnits="userSpaceOnUse" color-interpolation-filters="sRGB">
<feFlood flood-opacity="0" result="BackgroundImageFix"/>
<feColorMatrix in="SourceAlpha" type="matrix" values="0 0 0 0 0 0 0 0 0 0 0 0 0 0 0 0 0 0 127 0" result="hardAlpha"/>
<feOffset/>
<feGaussianBlur stdDeviation="15.6755"/>
<feComposite in2="hardAlpha" operator="out"/>
<feColorMatrix type="matrix" values="0 0 0 0 0.00392157 0 0 0 0 0.0705882 0 0 0 0 0.568627 0 0 0 0.05 0"/>
<feBlend mode="normal" in2="BackgroundImageFix" result="effect1_dropShadow_4_1816"/>
<feBlend mode="normal" in="SourceGraphic" in2="effect1_dropShadow_4_1816" result="shape"/>
</filter>
<filter id="filter1_d_4_1816" x="13.7078" y="14.0771" width="129.584" height="129.584" filterUnits="userSpaceOnUse" color-interpolation-filters="sRGB">
<feFlood flood-opacity="0" result="BackgroundImageFix"/>
<feColorMatrix in="SourceAlpha" type="matrix" values="0 0 0 0 0 0 0 0 0 0 0 0 0 0 0 0 0 0 127 0" result="hardAlpha"/>
<feOffset/>
<feGaussianBlur stdDeviation="15.6755"/>
<feComposite in2="hardAlpha" operator="out"/>
<feColorMatrix type="matrix" values="0 0 0 0 0.00392157 0 0 0 0 0.0705882 0 0 0 0 0.568627 0 0 0 0.08 0"/>
<feBlend mode="normal" in2="BackgroundImageFix" result="effect1_dropShadow_4_1816"/>
<feBlend mode="normal" in="SourceGraphic" in2="effect1_dropShadow_4_1816" result="shape"/>
</filter>
</defs>
</svg>
