<svg width="158" height="158" viewBox="0 0 158 158" fill="none" xmlns="http://www.w3.org/2000/svg">
<g filter="url(#filter0_d_4_1769)">
<path d="M125.76 78.8692C125.76 104.841 104.706 125.896 78.7336 125.896C52.7615 125.896 31.707 104.841 31.707 78.8692C31.707 52.8971 52.7615 31.8426 78.7336 31.8426C104.706 31.8426 125.76 52.8971 125.76 78.8692Z" fill="white"/>
</g>
<g filter="url(#filter1_d_4_1769)">
<path d="M112.175 78.8692C112.175 97.3382 97.2026 112.31 78.7336 112.31C60.2646 112.31 45.2925 97.3382 45.2925 78.8692C45.2925 60.4002 60.2646 45.4281 78.7336 45.4281C97.2026 45.4281 112.175 60.4002 112.175 78.8692Z" fill="white"/>
</g>
<path d="M91.952 75.0774V83.3388C91.952 86.7811 91.2636 89.1907 89.7214 90.7466L80.9368 81.9619L91.5802 71.3185C91.8281 72.4062 91.952 73.6454 91.952 75.0774Z" stroke="#486AB5" stroke-width="2.20305" stroke-linecap="round" stroke-linejoin="round"/>
<path d="M91.5804 71.3185L70.2934 92.6054C66.1489 91.6553 64.4141 88.7914 64.4141 83.3388V75.0774C64.4141 68.1929 67.1679 65.4391 74.0524 65.4391H82.3138C87.7663 65.4391 90.6303 67.174 91.5804 71.3185Z" stroke="#486AB5" stroke-width="2.20305" stroke-linecap="round" stroke-linejoin="round"/>
<path d="M89.7216 90.7466C88.1657 92.2887 85.7561 92.9772 82.3138 92.9772H74.0524C72.6204 92.9772 71.3812 92.8532 70.2935 92.6054L80.9369 81.9619L89.7216 90.7466Z" stroke="#486AB5" stroke-width="2.20305" stroke-linecap="round" stroke-linejoin="round"/>
<path d="M70.252 73.673C71.1883 69.6386 77.2467 69.6386 78.183 73.673C78.72 76.0412 77.2329 78.0515 75.9249 79.2907C74.9748 80.1995 73.474 80.1995 72.5102 79.2907C71.2021 78.0515 69.7013 76.0412 70.252 73.673Z" stroke="#486AB5" stroke-width="2.20305"/>
<path d="M74.1826 74.6643H74.195" stroke="#486AB5" stroke-width="2.20305" stroke-linecap="round" stroke-linejoin="round"/>
<defs>
<filter id="filter0_d_4_1769" x="0.355995" y="0.4916" width="156.755" height="156.755" filterUnits="userSpaceOnUse" color-interpolation-filters="sRGB">
<feFlood flood-opacity="0" result="BackgroundImageFix"/>
<feColorMatrix in="SourceAlpha" type="matrix" values="0 0 0 0 0 0 0 0 0 0 0 0 0 0 0 0 0 0 127 0" result="hardAlpha"/>
<feOffset/>
<feGaussianBlur stdDeviation="15.6755"/>
<feComposite in2="hardAlpha" operator="out"/>
<feColorMatrix type="matrix" values="0 0 0 0 0.00392157 0 0 0 0 0.0705882 0 0 0 0 0.568627 0 0 0 0.05 0"/>
<feBlend mode="normal" in2="BackgroundImageFix" result="effect1_dropShadow_4_1769"/>
<feBlend mode="normal" in="SourceGraphic" in2="effect1_dropShadow_4_1769" result="shape"/>
</filter>
<filter id="filter1_d_4_1769" x="13.9414" y="14.0771" width="129.584" height="129.584" filterUnits="userSpaceOnUse" color-interpolation-filters="sRGB">
<feFlood flood-opacity="0" result="BackgroundImageFix"/>
<feColorMatrix in="SourceAlpha" type="matrix" values="0 0 0 0 0 0 0 0 0 0 0 0 0 0 0 0 0 0 127 0" result="hardAlpha"/>
<feOffset/>
<feGaussianBlur stdDeviation="15.6755"/>
<feComposite in2="hardAlpha" operator="out"/>
<feColorMatrix type="matrix" values="0 0 0 0 0.00392157 0 0 0 0 0.0705882 0 0 0 0 0.568627 0 0 0 0.08 0"/>
<feBlend mode="normal" in2="BackgroundImageFix" result="effect1_dropShadow_4_1769"/>
<feBlend mode="normal" in="SourceGraphic" in2="effect1_dropShadow_4_1769" result="shape"/>
</filter>
</defs>
</svg>
