<svg width="60" height="98" viewBox="0 0 60 98" fill="none" xmlns="http://www.w3.org/2000/svg">
<g id="Group 1171275488">
<g id="Group">
<path id="Vector" d="M33.6166 44.9739C33.4901 46.5676 33.1191 48.0096 32.8577 49.5359C32.6469 50.4467 32.4276 51.3574 32.2336 52.2681C32.1914 52.4536 32.2 52.6645 32.2168 52.85C32.2337 53.0524 32.3348 53.2295 32.5456 53.3053C32.7649 53.3812 32.9673 53.3222 33.1191 53.162C33.5407 52.7151 33.9033 52.226 34.0466 51.5935C40.1182 39.7625 30.117 30.7395 22.0132 23.3863C21.7265 23.0996 21.4483 22.8044 21.1532 22.5261C20.7906 22.172 20.7399 21.607 21.0941 21.2359C21.7687 20.5107 22.4602 19.7939 23.1602 19.0772C23.8854 18.3351 24.6105 17.6099 25.3442 16.8762C25.5972 16.6233 25.867 16.3872 26.1452 16.1679C26.4235 15.9487 26.5922 15.9655 26.862 16.2101C26.9295 16.2691 26.9801 16.3366 27.0392 16.3956C28.3125 17.6605 29.5942 18.917 30.8591 20.1903C37.2932 25.6884 42.6143 33.4717 40.523 42.2586C40.4386 43.0765 40.1013 43.7764 40.0338 44.5944C40.0085 44.8811 40.1519 45.1004 40.3627 45.3027C41.1301 46.0448 41.8891 46.8038 42.6396 47.5627C50.0097 54.2076 50.8277 65.9881 44.343 73.5353C44.0226 73.9569 43.6767 74.3617 43.3141 74.7412C42.9262 75.1375 42.3782 75.1038 42.0071 74.7074C41.5686 74.2436 41.1132 73.7967 40.6663 73.3329C39.9748 72.633 39.2918 71.9247 38.6003 71.2248C38.1196 70.7441 37.6306 70.2887 37.1499 69.8081C36.6945 69.3611 29.9147 62.4969 29.6786 62.2187C29.3497 61.8223 28.9702 61.8223 28.6835 62.2524C28.4558 62.5897 27.8487 63.6522 27.7644 63.8377C24.5599 69.7743 18.8594 73.5859 12.3072 75.0869C11.8097 75.1965 11.5146 75.1965 11.1267 75.1544C11.0087 75.1375 10.8737 75.1206 10.7725 75.07C10.6713 75.0194 10.5364 74.9267 10.5195 74.8424C10.5111 74.758 10.6208 74.6147 10.7135 74.5725C11.2532 74.3617 12.6868 73.5353 12.9229 73.4341C18.3114 70.6176 21.929 65.4399 24.0793 59.9419C24.2901 59.3431 24.5346 58.7444 24.6949 58.1288C24.8129 57.6566 24.6021 57.235 24.2732 56.8892C24.0708 56.6784 23.8516 56.476 23.6408 56.2736C13.0241 47.7735 8.28485 37.5447 16.844 25.4776C17.2825 24.9632 17.7463 24.4741 18.2101 23.9765C18.5137 23.6477 18.7751 23.6645 19.0956 23.9765C20.4869 25.3679 21.8784 26.7593 23.2613 28.1592C27.9162 32.8814 34.3924 37.5784 33.6335 44.9654L33.6166 44.9739ZM45.0766 64.6388C44.9333 62.5813 43.6346 60.6249 42.1926 59.1155C41.771 58.6264 41.2819 58.1879 40.8181 57.7241C40.4471 57.353 40.0761 56.9736 39.705 56.5941C38.9208 55.8098 38.1365 55.0256 37.3607 54.2414C37.133 54.0137 36.9222 53.7776 36.6945 53.5499C36.3319 53.2042 35.9609 53.2547 35.6742 53.6679C35.4802 53.9462 35.2694 54.2245 35.0502 54.4859C34.696 54.9244 34.7382 55.4894 35.1429 55.8773C35.5983 56.3074 36.0536 56.7374 36.5006 57.1759C37.7908 58.4577 39.0725 59.7479 40.3543 61.0381C41.3409 62.0837 42.4119 63.0619 43.3817 64.116C43.719 64.5208 44.1152 64.7991 44.5621 65.0436C44.8995 65.2291 45.0598 65.1364 45.0766 64.74C45.0766 64.7063 45.0766 64.6641 45.0766 64.6304V64.6388ZM16.414 34.9727C16.4309 35.0908 16.4983 35.3016 16.5826 35.5462C17.2235 37.3508 18.1932 39.0204 19.4834 40.4287C21.2374 42.3429 23.2697 43.8355 25.2346 45.9942C25.302 46.0617 25.3695 46.146 25.4454 46.1966C25.6393 46.3231 25.8501 46.4074 26.0694 46.2725C26.2633 46.1544 26.2464 45.9352 26.2211 45.7412C26.1621 45.3533 26.1031 44.9654 26.0187 44.5775C24.4081 40.9852 21.4905 38.6747 18.7161 35.9425C18.2861 35.445 17.6873 34.7198 17.3753 34.1126C17.3415 34.0452 17.2826 33.9946 17.232 33.944C16.9706 33.7163 16.6585 33.7837 16.5236 34.0957C16.5067 34.1379 16.4899 34.1801 16.473 34.2222C16.3971 34.4583 16.3886 34.7198 16.4224 34.9643L16.414 34.9727Z" fill="#3C3A2B"/>
<g id="Group_2">
<path id="Vector_2" d="M1.60626 85.0459C1.64842 85.341 1.66524 88.225 1.66524 88.7225V96.2782C1.66524 96.6914 1.33636 97.0203 0.923164 97.0203H0.906385C0.493185 97.0203 0.164307 96.6914 0.164307 96.2782V84.4219C0.164307 83.7304 0.729287 83.1654 1.42077 83.1654H1.62314C2.08694 83.1654 2.50852 83.4184 2.72777 83.8316L7.03684 91.9438C7.17177 92.2221 8.52101 94.7687 8.63907 95.0639H8.77402C8.73186 94.6507 8.73182 91.6655 8.73182 91.3451V83.9075C8.73182 83.4943 9.06069 83.1654 9.4739 83.1654C9.8871 83.1654 10.216 83.4943 10.216 83.9075V95.7638C10.216 96.4553 9.65099 97.0203 8.95952 97.0203H8.7909C8.32711 97.0203 7.90542 96.7673 7.68618 96.3541L3.335 88.1828C3.20007 87.9046 1.87615 85.3748 1.75809 85.0375H1.59782L1.60626 85.0459Z" fill="#746446"/>
<path id="Vector_3" d="M18.5985 97.2142C15.3013 97.2142 13.3027 95.2579 13.3027 90.1561C13.3027 85.0543 15.4193 82.963 18.7586 82.963C22.098 82.963 24.0544 84.9194 24.0544 90.0212C24.0544 95.1229 21.9209 97.2142 18.5985 97.2142ZM18.6997 95.7975C20.9933 95.7975 22.4353 94.4568 22.4353 90.1645C22.4353 85.8723 20.9511 84.3966 18.6406 84.3966C16.33 84.3966 14.9218 85.7205 14.9218 90.0296C14.9218 94.3387 16.406 95.7975 18.6997 95.7975Z" fill="#746446"/>
<path id="Vector_4" d="M33.6422 93.0485H33.7602L37.42 83.9581C37.6139 83.4859 38.0693 83.1739 38.5837 83.1739H38.9885C39.6799 83.1739 40.2449 83.7388 40.2449 84.4303V96.2866C40.2449 96.6998 39.916 97.0287 39.5028 97.0287H39.4607C39.0475 97.0287 38.7187 96.6998 38.7187 96.2866V85.029H38.6006C37.5718 87.4745 35.9612 91.5222 34.8312 94.2544C34.6373 94.7266 34.1819 95.0302 33.6759 95.0302C33.17 95.0302 32.7062 94.7182 32.5122 94.2459L28.7596 85.029H28.6417V96.2866C28.6417 96.6998 28.3128 97.0287 27.8996 97.0287H27.8827C27.4695 97.0287 27.1406 96.6998 27.1406 96.2866V84.4303C27.1406 83.7388 27.7056 83.1739 28.3971 83.1739H28.8272C29.3415 83.1739 29.7969 83.4859 29.9909 83.9581L33.6506 93.0485H33.6422Z" fill="#746446"/>
<path id="Vector_5" d="M47.1172 95.5193C47.1594 95.182 47.9099 92.2558 47.9689 91.986L49.8663 84.2785C50.0265 83.6292 50.6084 83.1738 51.283 83.1738C51.9492 83.1738 52.531 83.6292 52.6912 84.2701L54.6645 92.0872C54.7404 92.3992 55.474 95.2494 55.4909 95.5024H55.5668C55.5836 95.2494 56.3342 92.2811 56.4185 91.9269L58.5098 83.7304C58.5941 83.4015 58.8892 83.1738 59.2265 83.1738H59.2603C59.7409 83.1738 60.0951 83.6292 59.977 84.1014L56.8991 96.0843C56.7557 96.6408 56.2583 97.0287 55.6848 97.0287H55.3475C54.7741 97.0287 54.2682 96.6408 54.1333 96.0758L52.1599 88.1744C52.0587 87.7781 51.3336 84.8941 51.2915 84.599H51.2155C51.1733 84.911 50.4819 87.8034 50.406 88.0564L48.3906 96.0758C48.2472 96.6324 47.7497 97.0203 47.1763 97.0203H46.8559C46.2824 97.0203 45.7849 96.6324 45.6415 96.0758L42.5468 84.093C42.4287 83.6208 42.7829 83.1654 43.2635 83.1654H43.3732C43.7105 83.1654 44.0056 83.3931 44.0899 83.722L46.1559 91.7414C46.2318 92.0534 47.0245 95.1988 47.0414 95.5193H47.1172Z" fill="#746446"/>
</g>
<path id="Vector_6" d="M32.346 5.73023L27.2836 0.66783C26.9147 0.298996 26.3167 0.298999 25.9479 0.667833L20.8855 5.73024C20.5166 6.09908 20.5166 6.69707 20.8855 7.06591L25.9479 12.1283C26.3167 12.4971 26.9147 12.4971 27.2835 12.1283L32.346 7.0659C32.7148 6.69706 32.7148 6.09907 32.346 5.73023Z" fill="#746446"/>
</g>
</g>
</svg>
