<svg width="97" height="99" viewBox="0 0 97 99" fill="none" xmlns="http://www.w3.org/2000/svg">
<g id="Group 1171275487">
<path id="Vector" d="M72.393 1.17072H23.9694V73.3342H72.393V1.17072Z" stroke="#163C92" stroke-width="1.97335" stroke-miterlimit="10"/>
<path id="Vector_2" d="M70.1645 17.8762V3.55238H26.2489V51.1085C26.2489 51.1085 33.6405 20.2578 70.156 17.8847L70.1645 17.8762Z" fill="#448BC7"/>
<path id="Vector_3" d="M70.1135 30.754V19.9856C70.1135 19.9856 29.9235 21.1764 26.2064 64.301H37.0003C37.0003 64.301 37.213 53.8728 43.4903 44.6355C43.4988 44.6185 43.5158 44.6015 43.5243 44.5844H50.9158V41.8456H45.6252C50.5076 36.1382 58.1458 31.4089 70.105 30.754H70.1135Z" fill="#448BC7"/>
<path id="Vector_4" d="M70.1135 44.1422V37.6693C70.1135 37.6693 45.9654 38.3837 43.7284 64.301H50.2183C50.2183 64.301 50.3459 58.0407 54.1225 52.4864C54.1225 52.4779 54.1395 52.4609 54.148 52.4524H62.7985V50.8108H55.4154C58.3499 47.3829 62.9345 44.542 70.1305 44.1422H70.1135Z" fill="#ADD7F3"/>
<path id="Vector_5" d="M65.0525 62.1745H61.0122C61.0122 62.1745 61.2844 57.9301 67.5192 55.0551V66.555H26.2489V71.4118H70.1135V51.4231C70.1135 51.4231 57.2441 52.6564 57.7205 64.6327H65.1801L65.044 62.166L65.0525 62.1745Z" fill="#ADD7F4"/>
<g id="Group">
<path id="Vector_6" d="M9.16928 93.2207H6.65156C6.38788 93.2207 6.17523 93.1272 6.02213 92.9485C5.86902 92.7614 5.79247 92.5403 5.79247 92.2851L5.77546 86.9689H3.73406C3.45337 86.9604 3.18969 87.0115 2.94302 87.122C2.69635 87.2326 2.4752 87.3772 2.28807 87.5643C2.10094 87.7515 1.95634 87.9641 1.85427 88.2193C1.7522 88.466 1.70117 88.7296 1.70117 89.0018V91.4345C1.95634 91.4685 2.16899 91.494 2.35611 91.5281C2.53474 91.5536 2.73037 91.5706 2.94302 91.5706C3.15566 91.5706 3.41084 91.5536 3.69153 91.5111C3.98073 91.4685 4.34648 91.4005 4.80579 91.3069C4.83131 91.6216 4.85683 91.9108 4.88234 92.166C4.90786 92.4212 4.93338 92.7019 4.9589 93.0081C4.50809 93.0761 4.0913 93.1272 3.70003 93.1612C3.30877 93.1952 2.94302 93.2037 2.58577 93.1952C2.23703 93.1952 1.8968 93.1612 1.57358 93.1187C1.25036 93.0761 0.935641 93.0081 0.620925 92.9315C0.433797 92.8975 0.289198 92.7954 0.170117 92.6423C0.0595408 92.4892 0 92.3106 0 92.1065V89.0018C0 88.4915 0.0935641 88.0066 0.289198 87.5473C0.484832 87.088 0.748513 86.6967 1.08875 86.3565C1.42898 86.0163 1.82025 85.7526 2.27956 85.557C2.73037 85.3613 3.2152 85.2593 3.74256 85.2593H6.33684C6.48144 85.2593 6.62604 85.2933 6.76213 85.3528C6.89823 85.4124 7.01731 85.4889 7.11938 85.591C7.22145 85.6931 7.30651 85.8036 7.36605 85.9397C7.42559 86.0758 7.46812 86.2119 7.46812 86.3565L7.50214 91.5196H9.17779V93.2292L9.16928 93.2207ZM2.05841 82.8266C2.05841 82.5629 2.14347 82.3333 2.32209 82.1546C2.50071 81.976 2.72186 81.8825 2.97704 81.8825C3.11313 81.8825 3.23221 81.908 3.3513 81.9505C3.47038 81.993 3.56394 82.0611 3.649 82.1461C3.73406 82.2312 3.8021 82.3333 3.84463 82.4438C3.89567 82.5544 3.91268 82.682 3.91268 82.8181C3.91268 82.9542 3.88716 83.0733 3.84463 83.1838C3.7936 83.2944 3.73406 83.3965 3.649 83.4815C3.56394 83.5666 3.46187 83.6346 3.3513 83.6772C3.24072 83.7282 3.11313 83.7452 2.97704 83.7452C2.71336 83.7452 2.50071 83.6602 2.32209 83.4815C2.14347 83.3029 2.05841 83.0818 2.05841 82.8181V82.8266ZM4.67821 82.8266C4.67821 82.5629 4.76326 82.3333 4.94189 82.1546C5.12051 81.976 5.34166 81.8825 5.60534 81.8825C5.74143 81.8825 5.86052 81.908 5.9796 81.9505C6.09868 81.993 6.19224 82.0611 6.2773 82.1461C6.36236 82.2312 6.43041 82.3333 6.47293 82.4438C6.52397 82.5544 6.54098 82.682 6.54098 82.8181C6.54098 82.9542 6.51546 83.0733 6.47293 83.1838C6.4219 83.2944 6.36236 83.3965 6.2773 83.4815C6.19224 83.5666 6.09017 83.6346 5.9796 83.6772C5.86902 83.7282 5.74143 83.7452 5.60534 83.7452C5.34166 83.7452 5.12051 83.6602 4.94189 83.4815C4.76326 83.3029 4.67821 83.0818 4.67821 82.8181V82.8266Z" fill="#13358F"/>
<path id="Vector_7" d="M9.00769 91.5111H12.2484V85.5825H13.9496V92.2851C13.9496 92.2851 13.9581 92.3361 13.9581 92.3701C13.9581 92.4892 13.9326 92.5998 13.89 92.7104C13.8475 92.8124 13.788 92.906 13.7029 92.9826C13.6264 93.0591 13.5328 93.1186 13.4307 93.1612C13.3286 93.2037 13.2096 93.2292 13.0905 93.2292H9.00769V91.5196V91.5111ZM9.00769 96.0872C9.00769 95.8235 9.09275 95.5938 9.27137 95.4152C9.44999 95.2366 9.67115 95.143 9.93483 95.143C10.1985 95.143 10.4282 95.2366 10.6068 95.4152C10.7854 95.5938 10.879 95.815 10.879 96.0872C10.879 96.3594 10.7854 96.572 10.6068 96.7506C10.4282 96.9293 10.207 97.0143 9.93483 97.0143C9.66264 97.0143 9.44999 96.9293 9.27137 96.7506C9.09275 96.572 9.00769 96.3509 9.00769 96.0872ZM11.636 96.0872C11.636 95.8235 11.721 95.5938 11.8997 95.4152C12.0783 95.2366 12.2994 95.143 12.5631 95.143C12.8268 95.143 13.048 95.2366 13.2266 95.4152C13.4052 95.5938 13.4903 95.815 13.4903 96.0872C13.4903 96.3594 13.4052 96.572 13.2266 96.7506C13.048 96.9293 12.8268 97.0143 12.5631 97.0143C12.2994 97.0143 12.0783 96.9293 11.8997 96.7506C11.721 96.572 11.636 96.3509 11.636 96.0872Z" fill="#13358F"/>
<path id="Vector_8" d="M18.5512 87.9556C18.5342 87.7174 18.5257 87.4793 18.5257 87.2496C18.5257 87.02 18.5172 86.7988 18.5172 86.5947H20.2183C20.2183 86.6457 20.2183 86.7563 20.2183 86.9349C20.2183 87.105 20.2268 87.3177 20.2353 87.5473C20.2438 87.7855 20.2523 88.0322 20.2608 88.3043C20.2608 88.5765 20.2779 88.8317 20.2864 89.0784C20.2949 89.3165 20.3034 89.5292 20.3034 89.7163C20.3034 89.9034 20.3034 90.0225 20.3034 90.0906C20.3034 90.1926 20.3034 90.3032 20.3034 90.4308C20.3034 90.5584 20.3034 90.6775 20.2949 90.8051C20.2949 90.9326 20.2949 91.0602 20.2864 91.1793C20.2864 91.3069 20.2864 91.4175 20.2694 91.5195H21.7239V93.2292H20.0397C19.9036 93.8842 19.708 94.5051 19.4528 95.075C19.1976 95.6449 18.8659 96.1552 18.4576 96.589C18.0493 97.0228 17.556 97.3716 16.9776 97.6267C16.3992 97.8819 15.7102 98.018 14.9192 98.0435V96.3253C15.4806 96.2998 15.9569 96.1978 16.3482 96.0106C16.7479 95.8235 17.0797 95.5853 17.3519 95.2791C17.624 94.9729 17.8452 94.6242 18.0068 94.2159C18.1684 93.8076 18.296 93.3738 18.3811 92.9145C18.4661 92.4552 18.5257 91.9789 18.5512 91.4855C18.5767 90.9922 18.5852 90.4989 18.5852 90.014C18.5852 89.6653 18.5852 89.3165 18.5767 88.9763C18.5767 88.6276 18.5597 88.2958 18.5512 87.9726V87.9556ZM18.3215 83.4305C18.3215 83.2944 18.347 83.1753 18.3896 83.0563C18.4321 82.9372 18.5001 82.8436 18.5852 82.7586C18.6703 82.6735 18.7723 82.6054 18.8829 82.5629C18.9935 82.5119 19.1126 82.4949 19.2487 82.4949C19.3847 82.4949 19.5038 82.5204 19.6144 82.5629C19.725 82.6139 19.8271 82.6735 19.9121 82.7586C19.9972 82.8436 20.0652 82.9457 20.1077 83.0563C20.1588 83.1668 20.1758 83.2944 20.1758 83.4305C20.1758 83.6942 20.0907 83.9153 19.9121 84.094C19.7335 84.2726 19.5123 84.3576 19.2487 84.3576C18.985 84.3576 18.7638 84.2726 18.5852 84.094C18.4066 83.9153 18.3215 83.6942 18.3215 83.4305Z" fill="#13358F"/>
<path id="Vector_9" d="M21.5793 91.5111H24.8201V85.5825H26.5212V92.2851C26.5212 92.2851 26.5297 92.3361 26.5297 92.3701C26.5297 92.4892 26.5042 92.5998 26.4617 92.7104C26.4192 92.8124 26.3596 92.906 26.2746 92.9826C26.198 93.0591 26.1044 93.1186 26.0024 93.1612C25.9003 93.2037 25.7812 93.2292 25.6621 93.2292H21.5793V91.5196V91.5111ZM21.5793 96.0872C21.5793 95.8235 21.6644 95.5938 21.843 95.4152C22.0216 95.2366 22.2428 95.143 22.5065 95.143C22.7702 95.143 22.9998 95.2366 23.1784 95.4152C23.3571 95.5938 23.4506 95.815 23.4506 96.0872C23.4506 96.3594 23.3571 96.572 23.1784 96.7506C22.9998 96.9293 22.7787 97.0143 22.5065 97.0143C22.2343 97.0143 22.0216 96.9293 21.843 96.7506C21.6644 96.572 21.5793 96.3509 21.5793 96.0872ZM24.2076 96.0872C24.2076 95.8235 24.2927 95.5938 24.4713 95.4152C24.6499 95.2366 24.8711 95.143 25.1348 95.143C25.3985 95.143 25.6196 95.2366 25.7982 95.4152C25.9769 95.5938 26.0619 95.815 26.0619 96.0872C26.0619 96.3594 25.9769 96.572 25.7982 96.7506C25.6196 96.9293 25.3985 97.0143 25.1348 97.0143C24.8711 97.0143 24.6499 96.9293 24.4713 96.7506C24.2927 96.572 24.2076 96.3509 24.2076 96.0872Z" fill="#13358F"/>
<path id="Vector_10" d="M32.271 93.2207H29.4981C29.26 93.2207 29.0643 93.1357 28.8942 92.974C28.7241 92.8124 28.639 92.6083 28.639 92.3616C28.639 92.3276 28.639 92.3021 28.6475 92.2766V81.7974H30.3487V91.5111H32.271V93.2207Z" fill="#13358F"/>
<path id="Vector_11" d="M32.0839 93.2207V91.5111H34.0827C33.8871 91.1113 33.7425 90.72 33.6489 90.3457C33.5554 89.963 33.5043 89.5972 33.5043 89.257C33.5043 88.7467 33.5809 88.2618 33.7425 87.777C33.9041 87.3007 34.1338 86.8754 34.4485 86.5011C34.7547 86.1269 35.146 85.8292 35.5968 85.5995C36.0561 85.3783 36.5834 85.2593 37.1874 85.2593H39.7561C39.9177 85.2593 40.0623 85.2933 40.2069 85.3528C40.343 85.4124 40.4706 85.5059 40.5642 85.608C40.6662 85.7186 40.7428 85.8377 40.8023 85.9823C40.8619 86.1184 40.8959 86.2715 40.8959 86.4331V91.5196H42.3504V93.2292H32.0924L32.0839 93.2207ZM35.3841 90.2437C35.4437 90.4223 35.5287 90.5839 35.6393 90.7455C35.7414 90.8986 35.869 91.0347 36.0221 91.1453C36.1667 91.2559 36.3453 91.3494 36.5324 91.4175C36.728 91.4855 36.9407 91.5196 37.1874 91.5196H39.1947V86.9774H37.1874C36.8471 86.9774 36.5494 87.0455 36.3028 87.1731C36.0561 87.3092 35.8519 87.4793 35.6903 87.6919C35.5287 87.9046 35.4096 88.1512 35.3331 88.4234C35.2565 88.6956 35.214 88.9678 35.214 89.2485C35.214 89.4101 35.2225 89.5802 35.248 89.7503C35.2735 89.9205 35.3246 90.0821 35.3926 90.2437H35.3841ZM36.6855 82.8266C36.6855 82.5629 36.7791 82.3333 36.9577 82.1546C37.1363 81.976 37.3575 81.8825 37.6212 81.8825C37.7572 81.8825 37.8763 81.908 37.9954 81.9505C38.106 82.0015 38.2081 82.0611 38.2931 82.1461C38.3782 82.2312 38.4462 82.3333 38.4887 82.4438C38.5398 82.5544 38.5568 82.682 38.5568 82.8181C38.5568 82.9542 38.5313 83.0733 38.4887 83.1838C38.4377 83.2944 38.3782 83.3965 38.2931 83.4815C38.2081 83.5666 38.106 83.6346 37.9954 83.6772C37.8848 83.7282 37.7572 83.7452 37.6212 83.7452C37.3575 83.7452 37.1448 83.6602 36.9577 83.4815C36.7791 83.3029 36.6855 83.0818 36.6855 82.8181V82.8266Z" fill="#13358F"/>
<path id="Vector_12" d="M42.2739 91.5111H44.1452V81.7974H45.8463V92.2766C45.8463 92.2766 45.8548 92.3276 45.8548 92.3616C45.8548 92.5998 45.7698 92.8039 45.5997 92.974C45.4295 93.1357 45.2339 93.2207 44.9958 93.2207H42.2654V91.5111H42.2739Z" fill="#13358F"/>
<path id="Vector_13" d="M50.0568 93.2037H48.3641V81.7974H50.0568V93.2037Z" fill="#13358F"/>
<path id="Vector_14" d="M65.5543 93.2207H63.0366C62.7729 93.2207 62.5602 93.1272 62.4071 92.9485C62.254 92.7614 62.1775 92.5403 62.1775 92.2851L62.1605 86.9689H60.1191C59.8384 86.9604 59.5747 87.0115 59.328 87.122C59.0814 87.2326 58.8602 87.3772 58.6731 87.5643C58.486 87.7515 58.3414 87.9641 58.2393 88.2193C58.1372 88.466 58.0862 88.7296 58.0862 89.0018V91.4345C58.3414 91.4685 58.554 91.494 58.7411 91.5281C58.9197 91.5536 59.1154 91.5706 59.328 91.5706C59.5407 91.5706 59.7958 91.5536 60.0765 91.5111C60.3657 91.4685 60.7315 91.4005 61.1908 91.3069C61.2163 91.6216 61.2418 91.9108 61.2674 92.166C61.2929 92.4212 61.3184 92.7019 61.3439 93.0081C60.8931 93.0761 60.4763 93.1272 60.085 93.1612C59.6938 93.1952 59.328 93.2037 58.9708 93.1952C58.622 93.1952 58.2818 93.1612 57.9586 93.1187C57.6354 93.0761 57.3206 93.0081 57.0059 92.9315C56.8188 92.8975 56.6742 92.7954 56.5551 92.6423C56.4445 92.4892 56.385 92.3106 56.385 92.1065V89.0018C56.385 88.4915 56.4786 88.0066 56.6742 87.5473C56.8698 87.088 57.1335 86.6967 57.4738 86.3565C57.814 86.0163 58.2053 85.7526 58.6646 85.557C59.1154 85.3613 59.6002 85.2593 60.1276 85.2593H62.7218C62.8664 85.2593 63.011 85.2933 63.1471 85.3528C63.2832 85.4124 63.4023 85.4889 63.5044 85.591C63.6065 85.6931 63.6915 85.8036 63.7511 85.9397C63.8106 86.0758 63.8531 86.2119 63.8531 86.3565L63.8871 91.5196H65.5628V93.2292L65.5543 93.2207ZM58.4434 82.8266C58.4434 82.5629 58.5285 82.3333 58.7071 82.1546C58.8857 81.976 59.1069 81.8825 59.362 81.8825C59.4981 81.8825 59.6172 81.908 59.7363 81.9505C59.8554 81.993 59.949 82.0611 60.034 82.1461C60.1191 82.2312 60.1871 82.3333 60.2296 82.4438C60.2807 82.5544 60.2977 82.682 60.2977 82.8181C60.2977 82.9542 60.2722 83.0733 60.2296 83.1838C60.1786 83.2944 60.1191 83.3965 60.034 83.4815C59.949 83.5666 59.8469 83.6346 59.7363 83.6772C59.6257 83.7282 59.4981 83.7452 59.362 83.7452C59.0984 83.7452 58.8857 83.6602 58.7071 83.4815C58.5285 83.3029 58.4434 83.0818 58.4434 82.8181V82.8266ZM61.0632 82.8266C61.0632 82.5629 61.1483 82.3333 61.3269 82.1546C61.5055 81.976 61.7267 81.8825 61.9903 81.8825C62.1264 81.8825 62.2455 81.908 62.3646 81.9505C62.4837 81.993 62.5773 82.0611 62.6623 82.1461C62.7474 82.2312 62.8154 82.3333 62.8579 82.4438C62.909 82.5544 62.926 82.682 62.926 82.8181C62.926 82.9542 62.9005 83.0733 62.8579 83.1838C62.8069 83.2944 62.7474 83.3965 62.6623 83.4815C62.5773 83.5666 62.4752 83.6346 62.3646 83.6772C62.254 83.7282 62.1264 83.7452 61.9903 83.7452C61.7267 83.7452 61.5055 83.6602 61.3269 83.4815C61.1483 83.3029 61.0632 83.0818 61.0632 82.8181V82.8266Z" fill="#13358F"/>
<path id="Vector_15" d="M76.6545 89.997H76.663V91.0773C76.663 91.2814 76.663 91.4855 76.663 91.6982C76.663 91.9108 76.663 92.132 76.663 92.3701C76.663 92.6083 76.578 92.8124 76.4164 92.9826C76.2547 93.1527 76.0506 93.2292 75.8209 93.2292H65.4694V91.5196H74.9534V91.0858H74.9449V90.3032C74.9449 89.8949 74.9278 89.5802 74.9108 89.3591C74.8853 89.1379 74.8258 88.9763 74.7237 88.8657C74.6216 88.7552 74.4855 88.6956 74.2899 88.6701C74.1028 88.6446 73.8391 88.6361 73.5074 88.6361C72.6568 88.6361 71.8147 88.6361 70.9726 88.6276C70.1306 88.6276 69.28 88.6191 68.4379 88.6191C68.1997 88.6191 67.9871 88.585 67.8085 88.5085C67.6298 88.4319 67.4852 88.3299 67.3747 88.2108C67.2641 88.0832 67.179 87.9471 67.1195 87.777C67.06 87.6154 67.0344 87.4368 67.0344 87.2411C67.0344 86.5436 67.6128 85.591 68.7696 84.3832C69.9264 83.1753 70.6579 82.3843 70.9726 82.01L72.2145 83.3114L68.9057 86.9264H72.8524C73.3458 86.9264 73.7796 86.9264 74.1623 86.9519C74.5451 86.9689 74.8768 87.003 75.1575 87.0625C75.4467 87.122 75.6763 87.2156 75.872 87.3517C76.0591 87.4793 76.2207 87.6579 76.3398 87.8876C76.4589 88.1087 76.5439 88.3979 76.595 88.7296C76.646 89.0699 76.6715 89.4782 76.6715 89.9715V90.0055L76.6545 89.997Z" fill="#13358F"/>
<path id="Vector_16" d="M80.9327 87.9556C80.9156 87.7174 80.9071 87.4793 80.9071 87.2496C80.9071 87.02 80.8986 86.7988 80.8986 86.5947H82.5998C82.5998 86.6457 82.5998 86.7563 82.5998 86.9349C82.5998 87.105 82.6083 87.3177 82.6168 87.5473C82.6253 87.7855 82.6338 88.0322 82.6423 88.3043C82.6423 88.5765 82.6593 88.8317 82.6678 89.0784C82.6763 89.3165 82.6848 89.5292 82.6848 89.7163C82.6848 89.9034 82.6848 90.0225 82.6848 90.0906C82.6848 90.1926 82.6848 90.3032 82.6848 90.4308C82.6848 90.5584 82.6848 90.6775 82.6763 90.8051C82.6763 90.9326 82.6763 91.0602 82.6678 91.1793C82.6678 91.3069 82.6678 91.4175 82.6508 91.5195H84.1053V93.2292H82.4212C82.2851 93.8842 82.0894 94.5051 81.8343 95.075C81.5791 95.6449 81.2474 96.1552 80.8391 96.589C80.4308 97.0228 79.9375 97.3716 79.3591 97.6267C78.7807 97.8819 78.0917 98.018 77.3007 98.0435V96.3253C77.862 96.2998 78.3384 96.1978 78.7296 96.0106C79.1294 95.8235 79.4611 95.5853 79.7333 95.2791C80.0055 94.9729 80.2267 94.6242 80.3883 94.2159C80.5499 93.8076 80.6775 93.3738 80.7625 92.9145C80.8476 92.4552 80.9071 91.9789 80.9327 91.4855C80.9582 90.9922 80.9667 90.4989 80.9667 90.014C80.9667 89.6653 80.9667 89.3165 80.9582 88.9763C80.9582 88.6276 80.9412 88.2958 80.9327 87.9726V87.9556Z" fill="#13358F"/>
<path id="Vector_17" d="M83.9865 91.511H86.0619V85.5825H87.7715V91.511H90.3573V85.5825H92.0585V91.511H94.6443V85.5825H96.3454V92.3701C96.3454 92.6083 96.2604 92.8124 96.0988 92.9826C95.9371 93.1527 95.733 93.2292 95.5033 93.2292H83.995V91.5196L83.9865 91.511ZM88.6391 82.8266C88.6391 82.5629 88.7242 82.3333 88.9028 82.1546C89.0814 81.976 89.3026 81.8825 89.5578 81.8825C89.6939 81.8825 89.8129 81.908 89.932 81.9505C90.0426 82.0015 90.1447 82.0611 90.2297 82.1461C90.3148 82.2312 90.3828 82.3333 90.4254 82.4438C90.4764 82.5544 90.4934 82.682 90.4934 82.8181C90.4934 82.9542 90.4679 83.0733 90.4254 83.1838C90.3743 83.2944 90.3148 83.3965 90.2297 83.4815C90.1447 83.5666 90.0426 83.6346 89.932 83.6772C89.8215 83.7282 89.6939 83.7452 89.5578 83.7452C89.2941 83.7452 89.0814 83.6602 88.9028 83.4815C88.7242 83.3029 88.6391 83.0818 88.6391 82.8181V82.8266ZM90.2042 80.3004C90.2042 80.1643 90.2297 80.0452 90.2723 79.9261C90.3233 79.8155 90.3828 79.7135 90.4679 79.6284C90.553 79.5433 90.655 79.4753 90.7656 79.4328C90.8762 79.3817 90.9953 79.3647 91.1313 79.3647C91.2674 79.3647 91.3865 79.3902 91.5056 79.4328C91.6162 79.4838 91.7182 79.5433 91.8033 79.6284C91.8884 79.7135 91.9564 79.8155 91.9989 79.9261C92.0415 80.0367 92.067 80.1643 92.067 80.3004C92.067 80.564 91.9734 80.7767 91.7948 80.9638C91.6162 81.151 91.395 81.236 91.1228 81.236C90.8507 81.236 90.638 81.1424 90.4594 80.9638C90.2808 80.7852 90.1957 80.564 90.1957 80.3004H90.2042ZM91.7778 82.8266C91.7778 82.5629 91.8628 82.3333 92.0415 82.1546C92.2201 81.976 92.4412 81.8825 92.6964 81.8825C92.8325 81.8825 92.9516 81.908 93.0707 81.9505C93.1812 82.0015 93.2833 82.0611 93.3684 82.1461C93.4534 82.2312 93.5215 82.3333 93.564 82.4438C93.615 82.5544 93.6321 82.682 93.6321 82.8181C93.6321 82.9542 93.6065 83.0733 93.564 83.1838C93.513 83.2944 93.4534 83.3965 93.3684 83.4815C93.2833 83.5666 93.1812 83.6346 93.0707 83.6772C92.9601 83.7282 92.8325 83.7452 92.6964 83.7452C92.4327 83.7452 92.2201 83.6602 92.0415 83.4815C91.8628 83.3029 91.7778 83.0818 91.7778 82.8181V82.8266Z" fill="#13358F"/>
</g>
</g>
</svg>
