<svg width="136" height="50" viewBox="0 0 136 50" fill="none" xmlns="http://www.w3.org/2000/svg">
<path d="M16.5837 25.0137C16.396 25.8468 16.3112 26.6408 16.0354 27.363C15.1314 29.7286 13.2435 30.8291 10.8301 31.0084C9.17556 31.1323 7.49976 31.1062 5.84355 31.0068C3.73044 30.8796 1.95674 30.0302 0.825948 28.1358C0.197729 27.0859 0.00355183 25.9137 0.000288352 24.717C-0.00460687 23.1633 0.0541357 20.1375 0.0769801 18.9653C0.0818753 18.7419 0.318477 18.6017 0.51755 18.7028L2.02528 19.469C2.12808 19.5212 2.19171 19.6239 2.19171 19.7397C2.18682 20.6461 2.16724 24.6029 2.24067 25.5664C2.38915 27.4886 3.30782 28.5303 5.1778 28.9575C7.255 29.4335 9.34852 29.4466 11.4274 28.9689C13.1048 28.5825 14.0953 27.4641 14.2274 25.7457C14.3155 24.5833 14.4428 10.1192 14.4608 8.01443C14.4608 7.85629 14.5505 7.71445 14.6908 7.64272L15.9326 7.00689C16.2149 6.8618 16.5494 7.06722 16.5494 7.3835V23.1894C17.0944 23.1894 17.6345 23.1894 18.1762 23.1894C23.809 23.2057 29.4401 23.2253 35.0729 23.2399C36.1939 23.2432 36.486 22.9367 36.4892 21.8004C36.4958 19.5864 36.5251 15.2644 36.5366 13.8135C36.5366 13.5885 36.7764 13.4434 36.9771 13.5461L38.4832 14.3091C38.5844 14.3612 38.6497 14.4656 38.6497 14.5797V23.2774C39.2583 23.2774 39.9045 23.2774 40.5506 23.2774C41.6472 23.2774 42.7453 23.253 43.8419 23.2905C44.2889 23.3052 44.3999 23.1682 44.3999 22.7411C44.3966 20.1228 44.4211 15.4617 44.4276 14.5667C44.4276 14.4737 44.4815 14.389 44.5647 14.3482L46.2144 13.5249C46.3776 13.4434 46.5718 13.5624 46.5718 13.745V18.6653C46.6289 18.6832 46.6256 18.6832 46.6843 18.7011C46.8296 18.4974 46.9797 18.2968 47.12 18.0881C48.3797 16.2214 49.907 14.6319 52.0315 13.7792C54.5281 12.7766 57.0622 12.6119 59.4804 14.0026C61.2819 15.0378 62.274 16.6649 62.3719 18.7517C62.4371 20.1554 62.4078 21.5656 62.3719 22.9709C62.3409 24.1872 61.3439 25.1556 60.1266 25.1539C55.065 25.1425 50.0049 25.1099 44.9433 25.0838C43.2071 25.0741 41.4693 25.0382 39.7331 25.0659C39.1261 25.0757 38.6758 24.9224 38.3674 24.3958C38.3233 24.3208 38.2499 24.2638 38.1406 24.1431C37.4177 25.1262 36.3734 25.03 35.3454 25.0284C29.3112 25.0186 23.2754 25.0202 17.2412 25.017H16.5869M46.5391 23.2285C46.7415 23.2611 46.8459 23.2905 46.9503 23.2921C51.0443 23.3198 55.1384 23.3475 59.234 23.3639C59.8998 23.3671 60.2115 23.0622 60.2229 22.3905C60.2425 21.2216 60.2751 20.051 60.2229 18.8854C60.1413 17.0007 58.9958 15.6133 57.1683 15.1422C55.3489 14.6726 53.6094 14.9302 51.9842 15.8628C49.9217 17.0464 48.6065 18.8952 47.5622 20.9624C47.1951 21.6879 46.8899 22.4427 46.5359 23.2302" fill="white"/>
<path d="M67.7876 7.64106V25.3903C67.7876 25.6446 67.582 25.8501 67.3275 25.8501H66.0629C65.8083 25.8501 65.6011 25.643 65.6027 25.387L65.6957 8.26711C65.6957 8.09919 65.7904 7.94431 65.9389 7.86442L67.1105 7.23675C67.4172 7.07209 67.7876 7.29381 67.7876 7.64106Z" fill="white"/>
<path d="M68.2299 1.2193C67.7502 1.17039 67.4793 1.11985 67.2084 1.11822C66.3811 1.11496 65.9193 1.5421 65.8802 2.31813C65.8394 3.12514 66.355 3.80987 67.1007 3.86367C67.6947 3.90606 68.2935 3.87182 68.8793 3.87182C68.9478 4.45221 68.615 4.93316 68.1695 4.93642C66.8592 4.94783 65.5473 4.93968 64.1897 4.93968V3.89627C64.5014 3.87671 64.8179 3.85715 65.0659 3.84248C64.9501 3.28165 64.7575 2.74201 64.7412 2.19749C64.6906 0.472614 66.1478 -0.397973 67.8627 0.175898C68.0569 0.241111 68.0879 0.792156 68.2283 1.2193" fill="white"/>
<path d="M38.5942 28.9819C38.5942 29.6748 38.0443 30.247 37.3622 30.2617C36.6459 30.2764 36.0813 29.7074 36.0911 28.977C36.1009 28.2483 36.6198 27.7347 37.3426 27.7396C38.0524 27.7445 38.5942 28.2825 38.5958 28.9819" fill="white"/>
<path d="M32.9809 28.9607C32.9809 28.245 33.5031 27.7249 34.221 27.7249C34.9096 27.7249 35.4775 28.2841 35.4807 28.9591C35.484 29.6422 34.8639 30.265 34.1949 30.2519C33.5373 30.2389 32.9809 29.6471 32.9809 28.9591" fill="white"/>
<path d="M1.38715 49.7375H0.430946C0.25635 49.7375 0.135601 49.5647 0.194344 49.4017L4.4336 37.6373C4.5005 37.4498 4.67836 37.3259 4.87744 37.3259H5.6264C5.82548 37.3259 6.00334 37.4515 6.07024 37.639L10.2573 49.3039C10.334 49.5158 10.1757 49.7375 9.95214 49.7375H9.0759C8.9372 49.7375 8.81319 49.6479 8.7675 49.5158L7.68729 46.3057C7.60734 46.0709 7.38705 45.9112 7.13903 45.9112H3.27344C3.02541 45.9112 2.80349 46.0693 2.72517 46.3057L1.62864 49.5663C1.59438 49.669 1.4981 49.7375 1.39041 49.7375M5.23805 39.1144H5.18747L3.34686 44.5173C3.31097 44.6249 3.39092 44.7357 3.50351 44.7357H6.92037C7.03459 44.7357 7.11455 44.6249 7.07702 44.5173L5.23805 39.1144Z" fill="white"/>
<path d="M16.1137 46.4133H16.8333C17.0112 46.4133 17.1662 46.5356 17.2037 46.71C17.3229 47.2399 17.6133 47.685 18.0751 48.042C18.6217 48.4659 19.3625 48.6762 20.2992 48.6762C21.1803 48.6762 21.8868 48.4724 22.422 48.0664C22.9573 47.6605 23.2249 47.1095 23.2249 46.4133C23.2249 45.8949 23.0584 45.4742 22.7272 45.1482C22.3959 44.8221 21.8754 44.5678 21.1689 44.3836L18.9448 43.7901C18.1094 43.5733 17.4224 43.2032 16.8839 42.6799C16.3471 42.1566 16.0778 41.4555 16.0778 40.5752C16.0778 39.835 16.2818 39.1894 16.693 38.6367C17.1026 38.0857 17.6231 37.6797 18.2562 37.4221C18.8893 37.1629 19.5763 37.0341 20.3171 37.0341C20.8523 37.0341 21.3614 37.1042 21.8428 37.2428C22.3241 37.3814 22.7712 37.5868 23.1841 37.8574C23.5969 38.128 23.9265 38.4949 24.1745 38.9595C24.3654 39.3182 24.4895 39.716 24.5466 40.1496C24.5743 40.3567 24.4128 40.5425 24.2039 40.5425H23.4109C23.2493 40.5425 23.109 40.43 23.0764 40.2719C22.9687 39.7437 22.7076 39.3051 22.2948 38.9595C21.8118 38.5552 21.1428 38.353 20.2845 38.353C19.4768 38.353 18.8192 38.5389 18.3117 38.909C17.8042 39.279 17.5513 39.8007 17.5513 40.4757C17.5513 41.4327 18.1387 42.0653 19.3152 42.3718L21.4887 42.957C22.5314 43.2472 23.3277 43.6499 23.8792 44.1684C24.4307 44.6868 24.7065 45.4025 24.7065 46.3155C24.7065 47.4958 24.2741 48.4056 23.4109 49.043C22.5477 49.6805 21.4463 50 20.1082 50C19.3446 50 18.6674 49.8908 18.0767 49.6707C17.486 49.4506 17.0275 49.1604 16.7012 48.8017C16.3748 48.443 16.1284 48.0632 15.962 47.6621C15.8527 47.398 15.776 47.129 15.7335 46.8535C15.6977 46.6236 15.882 46.4182 16.1154 46.4182" fill="white"/>
<path d="M55.0862 48.549L55.4632 49.4392C55.5235 49.581 55.4191 49.7375 55.2641 49.7375H47.2066C46.8068 49.7375 46.4837 49.4147 46.4837 49.0153V38.0172C46.4837 37.6357 46.7937 37.3259 47.1756 37.3259H55.1956C55.3816 37.3259 55.5089 37.5167 55.4354 37.6879L55.096 38.4867C55.0552 38.5829 54.9606 38.6449 54.8562 38.6449H48.4467C48.1693 38.6449 47.9457 38.8682 47.9457 39.1454V42.7288H54.3275C54.4091 42.7288 54.4841 42.7777 54.5168 42.8543L54.9035 43.7641C54.9606 43.8994 54.8611 44.0494 54.7142 44.0494H47.9457V47.9605C47.9457 48.2132 48.1513 48.4186 48.4043 48.4186H54.8855C54.972 48.4186 55.0503 48.4708 55.0846 48.549" fill="white"/>
<path d="M68.5187 48.5686L68.8711 49.3968C68.9397 49.5582 68.8205 49.7375 68.646 49.7375H62.3964C62.0456 49.7375 61.76 49.4522 61.76 49.1017V38.0905C61.76 37.9666 61.8367 37.8558 61.9526 37.8101L62.8157 37.4808C63.0116 37.4058 63.2221 37.5509 63.2221 37.7612V48.0599C63.2221 48.2572 63.3836 48.4186 63.581 48.4186H68.2935C68.3914 48.4186 68.4811 48.4773 68.5187 48.5686Z" fill="white"/>
<path d="M39.9649 48.549L40.3418 49.4392C40.4022 49.581 40.2978 49.7375 40.1428 49.7375H32.0852C31.6855 49.7375 31.3624 49.4147 31.3624 49.0153V38.0172C31.3624 37.6357 31.6724 37.3259 32.0542 37.3259H40.0742C40.2602 37.3259 40.3875 37.5167 40.3141 37.6879L39.9747 38.4867C39.9339 38.5829 39.8393 38.6449 39.7348 38.6449H33.3253C33.048 38.6449 32.8244 38.8682 32.8244 39.1454V42.7288H39.2061C39.2877 42.7288 39.3628 42.7777 39.3954 42.8543L39.7821 43.7641C39.8393 43.8994 39.7397 44.0494 39.5929 44.0494H32.8244V47.9605C32.8244 48.2132 33.03 48.4186 33.2829 48.4186H39.7642C39.8507 48.4186 39.929 48.4708 39.9633 48.549" fill="white"/>
<path d="M85.4594 15.765L105.367 5.88203C106.189 5.47282 107.153 6.07114 107.153 6.98738V48.5197C107.153 49.2011 106.6 49.7555 105.916 49.7555H86.0093C85.3272 49.7555 84.7724 49.2028 84.7724 48.5197V16.8704C84.7724 16.4008 85.0384 15.9737 85.4594 15.7634" fill="white"/>
<path d="M134.398 10.1436L114.491 0.260629C113.669 -0.14858 112.704 0.449745 112.704 1.36598V42.8983C112.704 43.5797 113.258 44.134 113.941 44.134H133.848C134.531 44.134 135.084 43.5814 135.084 42.8983V11.249C135.084 10.7794 134.818 10.3523 134.398 10.142" fill="white"/>
</svg>
