<svg width="27" height="27" viewBox="0 0 27 27" fill="none" xmlns="http://www.w3.org/2000/svg">
<g id="vuesax/linear/money-3">
<path id="Vector" d="M18.6582 22.9902H7.78249C4.51978 22.9902 2.34464 21.3588 2.34464 17.5523V9.93932C2.34464 6.13282 4.51978 4.50146 7.78249 4.50146H18.6582C21.9209 4.50146 24.096 6.13282 24.096 9.93932V17.5523C24.096 21.3588 21.9209 22.9902 18.6582 22.9902Z" stroke="#5CAEFF" stroke-width="1.48305" stroke-miterlimit="10" stroke-linecap="round" stroke-linejoin="round"/>
<path id="Vector_2" d="M13.2204 17.0085C15.0223 17.0085 16.4831 15.5477 16.4831 13.7457C16.4831 11.9438 15.0223 10.483 13.2204 10.483C11.4184 10.483 9.95764 11.9438 9.95764 13.7457C9.95764 15.5477 11.4184 17.0085 13.2204 17.0085Z" stroke="#5CAEFF" stroke-width="1.48305" stroke-miterlimit="10" stroke-linecap="round" stroke-linejoin="round"/>
<path id="Vector_3" d="M20.8333 8.30798H17.5706" stroke="#5CAEFF" stroke-width="1.48305" stroke-miterlimit="10" stroke-linecap="round" stroke-linejoin="round"/>
<path id="Vector_4" d="M8.87004 19.1836H5.60733" stroke="#5CAEFF" stroke-width="1.48305" stroke-miterlimit="10" stroke-linecap="round" stroke-linejoin="round"/>
</g>
</svg>
