<svg width="45" height="45" viewBox="0 0 45 45" fill="none" xmlns="http://www.w3.org/2000/svg">
<g id="vuesax/linear/moneys">
<g id="Group">
<path id="Vector" d="M35.6909 14.9748V24.4165C35.6909 30.0632 32.4643 32.4831 27.6243 32.4831H11.5093C10.6843 32.4831 9.89592 32.4099 9.16259 32.2449C8.70425 32.1716 8.26427 32.0432 7.86094 31.8965C5.11094 30.8699 3.4426 28.4865 3.4426 24.4165V14.9748C3.4426 9.32814 6.66925 6.9082 11.5093 6.9082H27.6243C31.7309 6.9082 34.6826 8.64986 35.4709 12.6282C35.5993 13.3615 35.6909 14.1131 35.6909 14.9748Z" stroke="#486AB5" stroke-width="2" stroke-miterlimit="10" stroke-linecap="round" stroke-linejoin="round"/>
<path id="Vector_2" d="M41.1929 20.475V29.9167C41.1929 35.5634 37.9663 37.9833 33.1263 37.9833H17.0113C15.6546 37.9833 14.4263 37.8001 13.363 37.3968C11.1813 36.5901 9.69628 34.9218 9.16461 32.2451C9.89795 32.4101 10.6863 32.4833 11.5113 32.4833H27.6263C32.4663 32.4833 35.6929 30.0634 35.6929 24.4167V14.975C35.6929 14.1134 35.6196 13.3434 35.473 12.6284C38.9563 13.3618 41.1929 15.8184 41.1929 20.475Z" stroke="#486AB5" stroke-width="2" stroke-miterlimit="10" stroke-linecap="round" stroke-linejoin="round"/>
<path id="Vector_3" d="M19.5547 24.5448C22.2278 24.5448 24.3948 22.3778 24.3948 19.7048C24.3948 17.0317 22.2278 14.8647 19.5547 14.8647C16.8817 14.8647 14.7147 17.0317 14.7147 19.7048C14.7147 22.3778 16.8817 24.5448 19.5547 24.5448Z" stroke="#486AB5" stroke-width="2" stroke-miterlimit="10" stroke-linecap="round" stroke-linejoin="round"/>
<path id="Vector_4" d="M9.07095 15.6714V23.7381" stroke="#486AB5" stroke-width="2" stroke-miterlimit="10" stroke-linecap="round" stroke-linejoin="round"/>
<path id="Vector_5" d="M30.0474 15.6719V23.7386" stroke="#486AB5" stroke-width="2" stroke-miterlimit="10" stroke-linecap="round" stroke-linejoin="round"/>
</g>
</g>
</svg>
