<svg width="86" height="86" viewBox="0 0 86 86" fill="none" xmlns="http://www.w3.org/2000/svg">
<path d="M0.495972 0.446045H3.91126V3.86133H0.495972V0.446045ZM3.91126 0.446045H7.32654V3.86133H3.91126V0.446045ZM7.32654 0.446045H10.7418V3.86133H7.32654V0.446045ZM10.7662 0.446045H14.1815V3.86133H10.7662V0.446045ZM14.1815 0.446045H17.5968V3.86133H14.1815V0.446045ZM17.5968 0.446045H21.0121V3.86133H17.5968V0.446045ZM21.0121 0.446045H24.4274V3.86133H21.0121V0.446045ZM27.867 0.446045H31.2823V3.86133H27.867V0.446045ZM34.6976 0.446045H38.1129V3.86133H34.6976V0.446045ZM41.5526 0.446045H44.9679V3.86133H41.5526V0.446045ZM44.9679 0.446045H48.3832V3.86133H44.9679V0.446045ZM55.2381 0.446045H58.6534V3.86133H55.2381V0.446045ZM62.0687 0.446045H65.484V3.86133H62.0687V0.446045ZM65.484 0.446045H68.8993V3.86133H65.484V0.446045ZM68.9237 0.446045H72.3389V3.86133H68.9237V0.446045ZM72.3389 0.446045H75.7542V3.86133H72.3389V0.446045ZM75.7542 0.446045H79.1695V3.86133H75.7542V0.446045ZM79.1695 0.446045H82.5848V3.86133H79.1695V0.446045ZM82.5848 0.446045H86.0001V3.86133H82.5848V0.446045ZM0.495972 3.86133H3.91126V7.27662H0.495972V3.86133ZM21.0121 3.86133H24.4274V7.27662H21.0121V3.86133ZM31.2823 3.86133H34.6976V7.27662H31.2823V3.86133ZM34.6976 3.86133H38.1129V7.27662H34.6976V3.86133ZM38.1129 3.86133H41.5282V7.27662H38.1129V3.86133ZM41.5526 3.86133H44.9679V7.27662H41.5526V3.86133ZM44.9679 3.86133H48.3832V7.27662H44.9679V3.86133ZM62.0687 3.86133H65.484V7.27662H62.0687V3.86133ZM82.5848 3.86133H86.0001V7.27662H82.5848V3.86133ZM0.495972 7.27662H3.91126V10.6919H0.495972V7.27662ZM7.32654 7.27662H10.7418V10.6919H7.32654V7.27662ZM10.7662 7.27662H14.1815V10.6919H10.7662V7.27662ZM14.1815 7.27662H17.5968V10.6919H14.1815V7.27662ZM21.0121 7.27662H24.4274V10.6919H21.0121V7.27662ZM27.867 7.27662H31.2823V10.6919H27.867V7.27662ZM31.2823 7.27662H34.6976V10.6919H31.2823V7.27662ZM34.6976 7.27662H38.1129V10.6919H34.6976V7.27662ZM44.9679 7.27662H48.3832V10.6919H44.9679V7.27662ZM48.3832 7.27662H51.7984V10.6919H48.3832V7.27662ZM62.0687 7.27662H65.484V10.6919H62.0687V7.27662ZM68.9237 7.27662H72.3389V10.6919H68.9237V7.27662ZM72.3389 7.27662H75.7542V10.6919H72.3389V7.27662ZM75.7542 7.27662H79.1695V10.6919H75.7542V7.27662ZM82.5848 7.27662H86.0001V10.6919H82.5848V7.27662ZM0.495972 10.7163H3.91126V14.1316H0.495972V10.7163ZM7.32654 10.7163H10.7418V14.1316H7.32654V10.7163ZM10.7662 10.7163H14.1815V14.1316H10.7662V10.7163ZM14.1815 10.7163H17.5968V14.1316H14.1815V10.7163ZM21.0121 10.7163H24.4274V14.1316H21.0121V10.7163ZM27.867 10.7163H31.2823V14.1316H27.867V10.7163ZM31.2823 10.7163H34.6976V14.1316H31.2823V10.7163ZM34.6976 10.7163H38.1129V14.1316H34.6976V10.7163ZM41.5526 10.7163H44.9679V14.1316H41.5526V10.7163ZM44.9679 10.7163H48.3832V14.1316H44.9679V10.7163ZM51.7984 10.7163H55.2137V14.1316H51.7984V10.7163ZM55.2381 10.7163H58.6534V14.1316H55.2381V10.7163ZM62.0687 10.7163H65.484V14.1316H62.0687V10.7163ZM68.9237 10.7163H72.3389V14.1316H68.9237V10.7163ZM72.3389 10.7163H75.7542V14.1316H72.3389V10.7163ZM75.7542 10.7163H79.1695V14.1316H75.7542V10.7163ZM82.5848 10.7163H86.0001V14.1316H82.5848V10.7163ZM0.495972 14.1316H3.91126V17.5469H0.495972V14.1316ZM7.32654 14.1316H10.7418V17.5469H7.32654V14.1316ZM10.7662 14.1316H14.1815V17.5469H10.7662V14.1316ZM14.1815 14.1316H17.5968V17.5469H14.1815V14.1316ZM21.0121 14.1316H24.4274V17.5469H21.0121V14.1316ZM27.867 14.1316H31.2823V17.5469H27.867V14.1316ZM38.1129 14.1316H41.5282V17.5469H38.1129V14.1316ZM41.5526 14.1316H44.9679V17.5469H41.5526V14.1316ZM44.9679 14.1316H48.3832V17.5469H44.9679V14.1316ZM48.3832 14.1316H51.7984V17.5469H48.3832V14.1316ZM51.7984 14.1316H55.2137V17.5469H51.7984V14.1316ZM55.2381 14.1316H58.6534V17.5469H55.2381V14.1316ZM62.0687 14.1316H65.484V17.5469H62.0687V14.1316ZM68.9237 14.1316H72.3389V17.5469H68.9237V14.1316ZM72.3389 14.1316H75.7542V17.5469H72.3389V14.1316ZM75.7542 14.1316H79.1695V17.5469H75.7542V14.1316ZM82.5848 14.1316H86.0001V17.5469H82.5848V14.1316ZM0.495972 17.5469H3.91126V20.9622H0.495972V17.5469ZM21.0121 17.5469H24.4274V20.9622H21.0121V17.5469ZM34.6976 17.5469H38.1129V20.9622H34.6976V17.5469ZM38.1129 17.5469H41.5282V20.9622H38.1129V17.5469ZM48.3832 17.5469H51.7984V20.9622H48.3832V17.5469ZM55.2381 17.5469H58.6534V20.9622H55.2381V17.5469ZM62.0687 17.5469H65.484V20.9622H62.0687V17.5469ZM82.5848 17.5469H86.0001V20.9622H82.5848V17.5469ZM0.495972 20.9622H3.91126V24.3774H0.495972V20.9622ZM3.91126 20.9622H7.32654V24.3774H3.91126V20.9622ZM7.32654 20.9622H10.7418V24.3774H7.32654V20.9622ZM10.7662 20.9622H14.1815V24.3774H10.7662V20.9622ZM14.1815 20.9622H17.5968V24.3774H14.1815V20.9622ZM17.5968 20.9622H21.0121V24.3774H17.5968V20.9622ZM21.0121 20.9622H24.4274V24.3774H21.0121V20.9622ZM27.867 20.9622H31.2823V24.3774H27.867V20.9622ZM34.6976 20.9622H38.1129V24.3774H34.6976V20.9622ZM41.5526 20.9622H44.9679V24.3774H41.5526V20.9622ZM48.3832 20.9622H51.7984V24.3774H48.3832V20.9622ZM55.2381 20.9622H58.6534V24.3774H55.2381V20.9622ZM62.0687 20.9622H65.484V24.3774H62.0687V20.9622ZM65.484 20.9622H68.8993V24.3774H65.484V20.9622ZM68.9237 20.9622H72.3389V24.3774H68.9237V20.9622ZM72.3389 20.9622H75.7542V24.3774H72.3389V20.9622ZM75.7542 20.9622H79.1695V24.3774H75.7542V20.9622ZM79.1695 20.9622H82.5848V24.3774H79.1695V20.9622ZM82.5848 20.9622H86.0001V24.3774H82.5848V20.9622ZM34.6976 24.4018H38.1129V27.8171H34.6976V24.4018ZM41.5526 24.4018H44.9679V27.8171H41.5526V24.4018ZM51.7984 24.4018H55.2137V27.8171H51.7984V24.4018ZM55.2381 24.4018H58.6534V27.8171H55.2381V24.4018ZM0.495972 27.8171H3.91126V31.2324H0.495972V27.8171ZM3.91126 27.8171H7.32654V31.2324H3.91126V27.8171ZM7.32654 27.8171H10.7418V31.2324H7.32654V27.8171ZM10.7662 27.8171H14.1815V31.2324H10.7662V27.8171ZM21.0121 27.8171H24.4274V31.2324H21.0121V27.8171ZM27.867 27.8171H31.2823V31.2324H27.867V27.8171ZM34.6976 27.8171H38.1129V31.2324H34.6976V27.8171ZM38.1129 27.8171H41.5282V31.2324H38.1129V27.8171ZM41.5526 27.8171H44.9679V31.2324H41.5526V27.8171ZM48.3832 27.8171H51.7984V31.2324H48.3832V27.8171ZM51.7984 27.8171H55.2137V31.2324H51.7984V27.8171ZM55.2381 27.8171H58.6534V31.2324H55.2381V27.8171ZM58.6534 27.8171H62.0687V31.2324H58.6534V27.8171ZM68.9237 27.8171H72.3389V31.2324H68.9237V27.8171ZM72.3389 27.8171H75.7542V31.2324H72.3389V27.8171ZM75.7542 27.8171H79.1695V31.2324H75.7542V27.8171ZM82.5848 27.8171H86.0001V31.2324H82.5848V27.8171ZM7.32654 31.2324H10.7418V34.6477H7.32654V31.2324ZM17.5968 31.2324H21.0121V34.6477H17.5968V31.2324ZM24.4518 31.2324H27.867V34.6477H24.4518V31.2324ZM27.867 31.2324H31.2823V34.6477H27.867V31.2324ZM34.6976 31.2324H38.1129V34.6477H34.6976V31.2324ZM41.5526 31.2324H44.9679V34.6477H41.5526V31.2324ZM48.3832 31.2324H51.7984V34.6477H48.3832V31.2324ZM65.484 31.2324H68.8993V34.6477H65.484V31.2324ZM79.1695 31.2324H82.5848V34.6477H79.1695V31.2324ZM0.495972 34.6477H3.91126V38.063H0.495972V34.6477ZM3.91126 34.6477H7.32654V38.063H3.91126V34.6477ZM7.32654 34.6477H10.7418V38.063H7.32654V34.6477ZM10.7662 34.6477H14.1815V38.063H10.7662V34.6477ZM21.0121 34.6477H24.4274V38.063H21.0121V34.6477ZM27.867 34.6477H31.2823V38.063H27.867V34.6477ZM31.2823 34.6477H34.6976V38.063H31.2823V34.6477ZM34.6976 34.6477H38.1129V38.063H34.6976V34.6477ZM38.1129 34.6477H41.5282V38.063H38.1129V34.6477ZM41.5526 34.6477H44.9679V38.063H41.5526V34.6477ZM48.3832 34.6477H51.7984V38.063H48.3832V34.6477ZM55.2381 34.6477H58.6534V38.063H55.2381V34.6477ZM62.0687 34.6477H65.484V38.063H62.0687V34.6477ZM65.484 34.6477H68.8993V38.063H65.484V34.6477ZM0.495972 38.063H3.91126V41.4783H0.495972V38.063ZM7.32654 38.063H10.7418V41.4783H7.32654V38.063ZM17.5968 38.063H21.0121V41.4783H17.5968V38.063ZM31.2823 38.063H34.6976V41.4783H31.2823V38.063ZM34.6976 38.063H38.1129V41.4783H34.6976V38.063ZM44.9679 38.063H48.3832V41.4783H44.9679V38.063ZM48.3832 38.063H51.7984V41.4783H48.3832V38.063ZM51.7984 38.063H55.2137V41.4783H51.7984V38.063ZM55.2381 38.063H58.6534V41.4783H55.2381V38.063ZM62.0687 38.063H65.484V41.4783H62.0687V38.063ZM68.9237 38.063H72.3389V41.4783H68.9237V38.063ZM72.3389 38.063H75.7542V41.4783H72.3389V38.063ZM75.7542 38.063H79.1695V41.4783H75.7542V38.063ZM14.1815 41.5027H17.5968V44.9179H14.1815V41.5027ZM21.0121 41.5027H24.4274V44.9179H21.0121V41.5027ZM31.2823 41.5027H34.6976V44.9179H31.2823V41.5027ZM34.6976 41.5027H38.1129V44.9179H34.6976V41.5027ZM41.5526 41.5027H44.9679V44.9179H41.5526V41.5027ZM44.9679 41.5027H48.3832V44.9179H44.9679V41.5027ZM48.3832 41.5027H51.7984V44.9179H48.3832V41.5027ZM58.6534 41.5027H62.0687V44.9179H58.6534V41.5027ZM62.0687 41.5027H65.484V44.9179H62.0687V41.5027ZM68.9237 41.5027H72.3389V44.9179H68.9237V41.5027ZM75.7542 41.5027H79.1695V44.9179H75.7542V41.5027ZM79.1695 41.5027H82.5848V44.9179H79.1695V41.5027ZM82.5848 41.5027H86.0001V44.9179H82.5848V41.5027ZM17.5968 44.9179H21.0121V48.3332H17.5968V44.9179ZM24.4518 44.9179H27.867V48.3332H24.4518V44.9179ZM27.867 44.9179H31.2823V48.3332H27.867V44.9179ZM38.1129 44.9179H41.5282V48.3332H38.1129V44.9179ZM41.5526 44.9179H44.9679V48.3332H41.5526V44.9179ZM44.9679 44.9179H48.3832V48.3332H44.9679V44.9179ZM51.7984 44.9179H55.2137V48.3332H51.7984V44.9179ZM55.2381 44.9179H58.6534V48.3332H55.2381V44.9179ZM58.6534 44.9179H62.0687V48.3332H58.6534V44.9179ZM62.0687 44.9179H65.484V48.3332H62.0687V44.9179ZM65.484 44.9179H68.8993V48.3332H65.484V44.9179ZM68.9237 44.9179H72.3389V48.3332H68.9237V44.9179ZM82.5848 44.9179H86.0001V48.3332H82.5848V44.9179ZM3.91126 48.3332H7.32654V51.7485H3.91126V48.3332ZM7.32654 48.3332H10.7418V51.7485H7.32654V48.3332ZM10.7662 48.3332H14.1815V51.7485H10.7662V48.3332ZM17.5968 48.3332H21.0121V51.7485H17.5968V48.3332ZM21.0121 48.3332H24.4274V51.7485H21.0121V48.3332ZM24.4518 48.3332H27.867V51.7485H24.4518V48.3332ZM27.867 48.3332H31.2823V51.7485H27.867V48.3332ZM34.6976 48.3332H38.1129V51.7485H34.6976V48.3332ZM38.1129 48.3332H41.5282V51.7485H38.1129V48.3332ZM44.9679 48.3332H48.3832V51.7485H44.9679V48.3332ZM55.2381 48.3332H58.6534V51.7485H55.2381V48.3332ZM58.6534 48.3332H62.0687V51.7485H58.6534V48.3332ZM68.9237 48.3332H72.3389V51.7485H68.9237V48.3332ZM75.7542 48.3332H79.1695V51.7485H75.7542V48.3332ZM79.1695 48.3332H82.5848V51.7485H79.1695V48.3332ZM0.495972 51.7485H3.91126V55.1638H0.495972V51.7485ZM17.5968 51.7485H21.0121V55.1638H17.5968V51.7485ZM24.4518 51.7485H27.867V55.1638H24.4518V51.7485ZM31.2823 51.7485H34.6976V55.1638H31.2823V51.7485ZM34.6976 51.7485H38.1129V55.1638H34.6976V51.7485ZM38.1129 51.7485H41.5282V55.1638H38.1129V51.7485ZM48.3832 51.7485H51.7984V55.1638H48.3832V51.7485ZM55.2381 51.7485H58.6534V55.1638H55.2381V51.7485ZM58.6534 51.7485H62.0687V55.1638H58.6534V51.7485ZM62.0687 51.7485H65.484V55.1638H62.0687V51.7485ZM65.484 51.7485H68.8993V55.1638H65.484V51.7485ZM68.9237 51.7485H72.3389V55.1638H68.9237V51.7485ZM82.5848 51.7485H86.0001V55.1638H82.5848V51.7485ZM7.32654 55.1882H10.7418V58.6035H7.32654V55.1882ZM10.7662 55.1882H14.1815V58.6035H10.7662V55.1882ZM21.0121 55.1882H24.4274V58.6035H21.0121V55.1882ZM24.4518 55.1882H27.867V58.6035H24.4518V55.1882ZM34.6976 55.1882H38.1129V58.6035H34.6976V55.1882ZM44.9679 55.1882H48.3832V58.6035H44.9679V55.1882ZM51.7984 55.1882H55.2137V58.6035H51.7984V55.1882ZM55.2381 55.1882H58.6534V58.6035H55.2381V55.1882ZM58.6534 55.1882H62.0687V58.6035H58.6534V55.1882ZM62.0687 55.1882H65.484V58.6035H62.0687V55.1882ZM65.484 55.1882H68.8993V58.6035H65.484V55.1882ZM68.9237 55.1882H72.3389V58.6035H68.9237V55.1882ZM72.3389 55.1882H75.7542V58.6035H72.3389V55.1882ZM75.7542 55.1882H79.1695V58.6035H75.7542V55.1882ZM79.1695 55.1882H82.5848V58.6035H79.1695V55.1882ZM82.5848 55.1882H86.0001V58.6035H82.5848V55.1882ZM27.867 58.6035H31.2823V62.0188H27.867V58.6035ZM34.6976 58.6035H38.1129V62.0188H34.6976V58.6035ZM44.9679 58.6035H48.3832V62.0188H44.9679V58.6035ZM55.2381 58.6035H58.6534V62.0188H55.2381V58.6035ZM68.9237 58.6035H72.3389V62.0188H68.9237V58.6035ZM75.7542 58.6035H79.1695V62.0188H75.7542V58.6035ZM82.5848 58.6035H86.0001V62.0188H82.5848V58.6035ZM0.495972 62.0188H3.91126V65.4341H0.495972V62.0188ZM3.91126 62.0188H7.32654V65.4341H3.91126V62.0188ZM7.32654 62.0188H10.7418V65.4341H7.32654V62.0188ZM10.7662 62.0188H14.1815V65.4341H10.7662V62.0188ZM14.1815 62.0188H17.5968V65.4341H14.1815V62.0188ZM17.5968 62.0188H21.0121V65.4341H17.5968V62.0188ZM21.0121 62.0188H24.4274V65.4341H21.0121V62.0188ZM31.2823 62.0188H34.6976V65.4341H31.2823V62.0188ZM34.6976 62.0188H38.1129V65.4341H34.6976V62.0188ZM44.9679 62.0188H48.3832V65.4341H44.9679V62.0188ZM55.2381 62.0188H58.6534V65.4341H55.2381V62.0188ZM62.0687 62.0188H65.484V65.4341H62.0687V62.0188ZM68.9237 62.0188H72.3389V65.4341H68.9237V62.0188ZM75.7542 62.0188H79.1695V65.4341H75.7542V62.0188ZM79.1695 62.0188H82.5848V65.4341H79.1695V62.0188ZM82.5848 62.0188H86.0001V65.4341H82.5848V62.0188ZM0.495972 65.4341H3.91126V68.8493H0.495972V65.4341ZM21.0121 65.4341H24.4274V68.8493H21.0121V65.4341ZM31.2823 65.4341H34.6976V68.8493H31.2823V65.4341ZM34.6976 65.4341H38.1129V68.8493H34.6976V65.4341ZM51.7984 65.4341H55.2137V68.8493H51.7984V65.4341ZM55.2381 65.4341H58.6534V68.8493H55.2381V65.4341ZM68.9237 65.4341H72.3389V68.8493H68.9237V65.4341ZM0.495972 68.8737H3.91126V72.289H0.495972V68.8737ZM7.32654 68.8737H10.7418V72.289H7.32654V68.8737ZM10.7662 68.8737H14.1815V72.289H10.7662V68.8737ZM14.1815 68.8737H17.5968V72.289H14.1815V68.8737ZM21.0121 68.8737H24.4274V72.289H21.0121V68.8737ZM31.2823 68.8737H34.6976V72.289H31.2823V68.8737ZM34.6976 68.8737H38.1129V72.289H34.6976V68.8737ZM38.1129 68.8737H41.5282V72.289H38.1129V68.8737ZM55.2381 68.8737H58.6534V72.289H55.2381V68.8737ZM58.6534 68.8737H62.0687V72.289H58.6534V68.8737ZM62.0687 68.8737H65.484V72.289H62.0687V68.8737ZM65.484 68.8737H68.8993V72.289H65.484V68.8737ZM68.9237 68.8737H72.3389V72.289H68.9237V68.8737ZM72.3389 68.8737H75.7542V72.289H72.3389V68.8737ZM82.5848 68.8737H86.0001V72.289H82.5848V68.8737ZM0.495972 72.289H3.91126V75.7043H0.495972V72.289ZM7.32654 72.289H10.7418V75.7043H7.32654V72.289ZM10.7662 72.289H14.1815V75.7043H10.7662V72.289ZM14.1815 72.289H17.5968V75.7043H14.1815V72.289ZM21.0121 72.289H24.4274V75.7043H21.0121V72.289ZM27.867 72.289H31.2823V75.7043H27.867V72.289ZM38.1129 72.289H41.5282V75.7043H38.1129V72.289ZM48.3832 72.289H51.7984V75.7043H48.3832V72.289ZM58.6534 72.289H62.0687V75.7043H58.6534V72.289ZM62.0687 72.289H65.484V75.7043H62.0687V72.289ZM68.9237 72.289H72.3389V75.7043H68.9237V72.289ZM72.3389 72.289H75.7542V75.7043H72.3389V72.289ZM75.7542 72.289H79.1695V75.7043H75.7542V72.289ZM79.1695 72.289H82.5848V75.7043H79.1695V72.289ZM82.5848 72.289H86.0001V75.7043H82.5848V72.289ZM0.495972 75.7043H3.91126V79.1196H0.495972V75.7043ZM7.32654 75.7043H10.7418V79.1196H7.32654V75.7043ZM10.7662 75.7043H14.1815V79.1196H10.7662V75.7043ZM14.1815 75.7043H17.5968V79.1196H14.1815V75.7043ZM21.0121 75.7043H24.4274V79.1196H21.0121V75.7043ZM27.867 75.7043H31.2823V79.1196H27.867V75.7043ZM34.6976 75.7043H38.1129V79.1196H34.6976V75.7043ZM38.1129 75.7043H41.5282V79.1196H38.1129V75.7043ZM44.9679 75.7043H48.3832V79.1196H44.9679V75.7043ZM48.3832 75.7043H51.7984V79.1196H48.3832V75.7043ZM55.2381 75.7043H58.6534V79.1196H55.2381V75.7043ZM58.6534 75.7043H62.0687V79.1196H58.6534V75.7043ZM62.0687 75.7043H65.484V79.1196H62.0687V75.7043ZM68.9237 75.7043H72.3389V79.1196H68.9237V75.7043ZM75.7542 75.7043H79.1695V79.1196H75.7542V75.7043ZM79.1695 75.7043H82.5848V79.1196H79.1695V75.7043ZM0.495972 79.1196H3.91126V82.5349H0.495972V79.1196ZM21.0121 79.1196H24.4274V82.5349H21.0121V79.1196ZM27.867 79.1196H31.2823V82.5349H27.867V79.1196ZM34.6976 79.1196H38.1129V82.5349H34.6976V79.1196ZM38.1129 79.1196H41.5282V82.5349H38.1129V79.1196ZM44.9679 79.1196H48.3832V82.5349H44.9679V79.1196ZM48.3832 79.1196H51.7984V82.5349H48.3832V79.1196ZM58.6534 79.1196H62.0687V82.5349H58.6534V79.1196ZM62.0687 79.1196H65.484V82.5349H62.0687V79.1196ZM68.9237 79.1196H72.3389V82.5349H68.9237V79.1196ZM75.7542 79.1196H79.1695V82.5349H75.7542V79.1196ZM0.495972 82.5349H3.91126V85.9502H0.495972V82.5349ZM3.91126 82.5349H7.32654V85.9502H3.91126V82.5349ZM7.32654 82.5349H10.7418V85.9502H7.32654V82.5349ZM10.7662 82.5349H14.1815V85.9502H10.7662V82.5349ZM14.1815 82.5349H17.5968V85.9502H14.1815V82.5349ZM17.5968 82.5349H21.0121V85.9502H17.5968V82.5349ZM21.0121 82.5349H24.4274V85.9502H21.0121V82.5349ZM27.867 82.5349H31.2823V85.9502H27.867V82.5349ZM31.2823 82.5349H34.6976V85.9502H31.2823V82.5349ZM34.6976 82.5349H38.1129V85.9502H34.6976V82.5349ZM38.1129 82.5349H41.5282V85.9502H38.1129V82.5349ZM44.9679 82.5349H48.3832V85.9502H44.9679V82.5349ZM48.3832 82.5349H51.7984V85.9502H48.3832V82.5349ZM62.0687 82.5349H65.484V85.9502H62.0687V82.5349ZM65.484 82.5349H68.8993V85.9502H65.484V82.5349ZM68.9237 82.5349H72.3389V85.9502H68.9237V82.5349ZM72.3389 82.5349H75.7542V85.9502H72.3389V82.5349ZM75.7542 82.5349H79.1695V85.9502H75.7542V82.5349ZM79.1695 82.5349H82.5848V85.9502H79.1695V82.5349ZM82.5848 82.5349H86.0001V85.9502H82.5848V82.5349Z" fill="white" fill-opacity="0.9"/>
</svg>
