<svg xmlns="http://www.w3.org/2000/svg" width="217.786" height="163.915" viewBox="0 0 217.786 163.915">
  <g id="Group_53" data-name="Group 53" transform="translate(-41.652 -796.943)">
    <path id="Path_38" data-name="Path 38" d="M85.288,896.682H97.029a2.066,2.066,0,0,1,2.066,2.066v11.741a2.066,2.066,0,0,1-2.066,2.065H85.288a2.066,2.066,0,0,1-2.066-2.065V898.748a2.066,2.066,0,0,1,2.066-2.066" fill="#fff"/>
    <path id="Path_39" data-name="Path 39" d="M85.288,797.443H97.029a2.066,2.066,0,0,1,2.066,2.065v11.741a2.066,2.066,0,0,1-2.066,2.066H85.288a2.066,2.066,0,0,1-2.066-2.066V799.508a2.066,2.066,0,0,1,2.066-2.065" fill="none" stroke="#35afff" stroke-miterlimit="10" stroke-width="1"/>
    <path id="Path_40" data-name="Path 40" d="M165.21,896.682h11.74a2.065,2.065,0,0,1,2.066,2.066v11.741a2.065,2.065,0,0,1-2.066,2.065H165.21a2.066,2.066,0,0,1-2.066-2.065V898.748a2.066,2.066,0,0,1,2.066-2.066" fill="#0068ff"/>
    <path id="Path_41" data-name="Path 41" d="M245.131,896.682h11.741a2.066,2.066,0,0,1,2.066,2.066v11.741a2.066,2.066,0,0,1-2.066,2.065H245.131a2.066,2.066,0,0,1-2.065-2.065V898.748a2.066,2.066,0,0,1,2.065-2.066" fill="none" stroke="#35afff" stroke-miterlimit="10" stroke-width="1"/>
    <path id="Path_42" data-name="Path 42" d="M44.217,843.162H55.958a2.066,2.066,0,0,1,2.066,2.065v11.742a2.066,2.066,0,0,1-2.066,2.065H44.217a2.066,2.066,0,0,1-2.065-2.065V845.227a2.066,2.066,0,0,1,2.065-2.065" fill="#0068ff"/>
    <path id="Path_43" data-name="Path 43" d="M124.139,843.162H135.88a2.065,2.065,0,0,1,2.065,2.065v11.742a2.065,2.065,0,0,1-2.065,2.065H124.139a2.065,2.065,0,0,1-2.065-2.065V845.227a2.065,2.065,0,0,1,2.065-2.065" fill="#0068ff"/>
    <path id="Path_44" data-name="Path 44" d="M44.217,944.486H55.958a2.066,2.066,0,0,1,2.066,2.065v11.741a2.066,2.066,0,0,1-2.066,2.066H44.217a2.066,2.066,0,0,1-2.065-2.066V946.551a2.066,2.066,0,0,1,2.065-2.065" fill="none" stroke="#35afff" stroke-miterlimit="10" stroke-width="1"/>
    <path id="Path_45" data-name="Path 45" d="M124.139,944.486H135.88a2.065,2.065,0,0,1,2.065,2.065v11.741a2.065,2.065,0,0,1-2.065,2.066H124.139a2.065,2.065,0,0,1-2.065-2.066V946.551a2.065,2.065,0,0,1,2.065-2.065" fill="#0068ff"/>
    <path id="Path_46" data-name="Path 46" d="M204.061,843.162H215.8a2.065,2.065,0,0,1,2.065,2.065v11.742a2.065,2.065,0,0,1-2.065,2.065H204.061a2.066,2.066,0,0,1-2.066-2.065V845.227a2.066,2.066,0,0,1,2.066-2.065" fill="#fff"/>
  </g>
</svg>
