<svg xmlns="http://www.w3.org/2000/svg" width="217.786" height="163.915" viewBox="0 0 217.786 163.915">
  <g id="Group_52" data-name="Group 52" transform="translate(-1672.323 -796.943)">
    <path id="Path_29" data-name="Path 29" d="M1846.473,896.682h-11.741a2.066,2.066,0,0,0-2.066,2.066v11.741a2.066,2.066,0,0,0,2.066,2.065h11.741a2.066,2.066,0,0,0,2.066-2.065V898.748a2.066,2.066,0,0,0-2.066-2.066" fill="#fff"/>
    <path id="Path_30" data-name="Path 30" d="M1846.473,797.443h-11.741a2.066,2.066,0,0,0-2.066,2.065v11.741a2.066,2.066,0,0,0,2.066,2.066h11.741a2.066,2.066,0,0,0,2.066-2.066V799.508a2.066,2.066,0,0,0-2.066-2.065" fill="none" stroke="#35afff" stroke-miterlimit="10" stroke-width="1"/>
    <path id="Path_31" data-name="Path 31" d="M1766.551,896.682h-11.74a2.065,2.065,0,0,0-2.066,2.066v11.741a2.065,2.065,0,0,0,2.066,2.065h11.74a2.066,2.066,0,0,0,2.066-2.065V898.748a2.066,2.066,0,0,0-2.066-2.066" fill="#0068ff"/>
    <path id="Path_32" data-name="Path 32" d="M1686.63,896.682h-11.741a2.066,2.066,0,0,0-2.066,2.066v11.741a2.066,2.066,0,0,0,2.066,2.065h11.741a2.066,2.066,0,0,0,2.065-2.065V898.748a2.066,2.066,0,0,0-2.065-2.066" fill="none" stroke="#35afff" stroke-miterlimit="10" stroke-width="1"/>
    <path id="Path_33" data-name="Path 33" d="M1887.544,843.162H1875.8a2.066,2.066,0,0,0-2.066,2.065v11.742a2.066,2.066,0,0,0,2.066,2.065h11.741a2.066,2.066,0,0,0,2.065-2.065V845.227a2.066,2.066,0,0,0-2.065-2.065" fill="#0068ff"/>
    <path id="Path_34" data-name="Path 34" d="M1807.622,843.162h-11.741a2.065,2.065,0,0,0-2.065,2.065v11.742a2.065,2.065,0,0,0,2.065,2.065h11.741a2.065,2.065,0,0,0,2.065-2.065V845.227a2.065,2.065,0,0,0-2.065-2.065" fill="#0068ff"/>
    <path id="Path_35" data-name="Path 35" d="M1887.544,944.486H1875.8a2.066,2.066,0,0,0-2.066,2.065v11.741a2.066,2.066,0,0,0,2.066,2.066h11.741a2.066,2.066,0,0,0,2.065-2.066V946.551a2.066,2.066,0,0,0-2.065-2.065" fill="none" stroke="#35afff" stroke-miterlimit="10" stroke-width="1"/>
    <path id="Path_36" data-name="Path 36" d="M1807.622,944.486h-11.741a2.065,2.065,0,0,0-2.065,2.065v11.741a2.065,2.065,0,0,0,2.065,2.066h11.741a2.065,2.065,0,0,0,2.065-2.066V946.551a2.065,2.065,0,0,0-2.065-2.065" fill="#0068ff"/>
    <path id="Path_37" data-name="Path 37" d="M1727.7,843.162h-11.741a2.065,2.065,0,0,0-2.065,2.065v11.742a2.065,2.065,0,0,0,2.065,2.065H1727.7a2.066,2.066,0,0,0,2.066-2.065V845.227a2.066,2.066,0,0,0-2.066-2.065" fill="#fff"/>
  </g>
</svg>
