<svg id="Component_6_1" data-name="Component 6 – 1" xmlns="http://www.w3.org/2000/svg" width="53.514" height="53.521" viewBox="0 0 53.514 53.521">
  <g id="Group_76" data-name="Group 76" transform="translate(-816.359 -406.556)">
    <g id="Group_74" data-name="Group 74">
      <path id="Path_126" data-name="Path 126" d="M839.561,409.55,819.35,429.761a5.029,5.029,0,0,0,0,7.111l20.211,20.211a5.028,5.028,0,0,0,7.111,0l20.211-20.211a5.028,5.028,0,0,0,0-7.111L846.672,409.55a5.029,5.029,0,0,0-7.111,0" fill="#fff"/>
    </g>
    <g id="Group_75" data-name="Group 75">
      <path id="Path_127" data-name="Path 127" d="M843.117,460.077a6.509,6.509,0,0,1-4.632-1.918l-20.211-20.211a6.559,6.559,0,0,1,0-9.263l20.211-20.211a6.551,6.551,0,0,1,9.263,0l20.21,20.211a6.557,6.557,0,0,1,0,9.263l-20.21,20.211A6.507,6.507,0,0,1,843.117,460.077Zm0-50.478a3.481,3.481,0,0,0-2.48,1.028l-20.211,20.211a3.51,3.51,0,0,0,0,4.958l20.211,20.211a3.588,3.588,0,0,0,4.959,0L865.807,435.8a3.51,3.51,0,0,0,0-4.958L845.6,410.627A3.481,3.481,0,0,0,843.117,409.6Z" fill="#4f95ff"/>
    </g>
  </g>
  <g id="Group_78" data-name="Group 78" transform="translate(-816.359 -406.556)">
    <path id="Path_128" data-name="Path 128" d="M850.393,440.215a.908.908,0,0,1-.642-1.549l5.334-5.333-4.875-4.874a.907.907,0,0,1,1.283-1.283l5.515,5.515a.906.906,0,0,1,0,1.283l-5.974,5.975A.9.9,0,0,1,850.393,440.215Z" fill="#4f95ff"/>
  </g>
  <g id="Group_79" data-name="Group 79" transform="translate(-816.359 -406.556)">
    <path id="Path_129" data-name="Path 129" d="M835.841,440.215a.9.9,0,0,1-.641-.266l-5.975-5.975a.908.908,0,0,1,0-1.283l5.516-5.515a.907.907,0,0,1,1.282,1.283l-4.875,4.874,5.334,5.333a.908.908,0,0,1-.641,1.549Z" fill="#4f95ff"/>
  </g>
</svg>
