<svg width="228" height="55" viewBox="0 0 228 55" fill="none" xmlns="http://www.w3.org/2000/svg">
<path d="M37.246 28.512C39.5576 28.512 40.377 28.3897 41.1995 28.0014C41.6367 27.7721 42.025 27.4266 42.3461 26.9832C43.0126 26.0415 43.3031 24.9071 43.3031 23.3447C43.3031 20.8742 42.5326 19.2689 41.0191 18.6727C40.1538 18.3547 39.6921 18.2813 37.8912 18.2813H34.6165V28.5151H37.246V28.512ZM31.0758 15.1626H37.1574C40.3097 15.1626 41.7315 15.3583 43.1227 16.0218C44.0186 16.4682 44.7922 17.1347 45.4129 18.0031C46.3913 19.4341 46.8958 21.1891 46.8958 23.3386C46.8958 26.757 45.5046 29.5241 43.1992 30.7105C41.7743 31.429 40.4993 31.6277 37.4356 31.6277H31.0789V15.1626H31.0758Z" fill="#2B2522"/>
<path d="M73.0963 18.2232C70.3292 18.2232 68.3876 20.3636 68.3876 23.4089C68.3876 26.4543 70.3292 28.5885 73.0963 28.5885C75.8634 28.5885 77.805 26.4482 77.805 23.4089C77.805 20.3697 75.8634 18.2232 73.0963 18.2232ZM73.0963 31.6308C68.2959 31.6308 64.798 28.191 64.798 23.412C64.798 18.633 68.2959 15.1657 73.0963 15.1657C77.8967 15.1657 81.3763 18.6513 81.3763 23.412C81.3763 28.1727 77.8998 31.6308 73.0963 31.6308Z" fill="#2B2522"/>
<path d="M26.9848 31.6308C28.5686 31.6308 29.8528 30.2243 29.8711 28.4784L20.3406 28.4876V24.6809L25.7648 24.6901C27.2875 24.6901 28.5288 23.3356 28.5411 21.66H20.3406V18.2783L26.5964 18.2844C28.1619 18.2844 29.44 16.8901 29.4522 15.1657H16.8458V31.6247L26.9848 31.6308Z" fill="#2B2522"/>
<path d="M14.2683 18.9204C13.7668 17.4833 12.7242 16.4193 11.2321 15.7955C10.2384 15.3797 9.04898 15.1657 7.67306 15.1657C7.36119 15.1657 7.05543 15.184 6.75578 15.2024C3.29765 15.4684 1.17874 17.2356 1.17874 19.9477C1.17874 22.4427 2.64027 23.9042 5.71009 24.4944L7.41929 24.8215C10.5992 25.4361 11.1496 25.6929 11.1496 26.757C11.1496 27.8852 9.86536 28.6191 7.87181 28.6191C6.50813 28.6191 5.45937 28.2399 4.81116 27.552L4.77141 27.5122L4.60019 27.3379L4.59408 27.3318C3.53921 26.2433 1.80861 26.2525 0.726223 27.344L0.714 27.3502L0.729284 27.3685C1.25519 29.3376 2.46905 30.6004 4.45037 31.2058C5.37376 31.4901 6.47143 31.6369 7.73728 31.6369C8.08278 31.6369 8.413 31.6216 8.72793 31.5972C12.5163 31.3312 14.7361 29.5058 14.7361 26.5705C14.7361 25.323 14.3417 24.262 13.6384 23.5037C13.2012 23.0604 12.6508 22.7087 12.0118 22.4458C11.122 22.0972 10.6695 21.978 8.65149 21.5774C5.08328 20.8711 4.64912 20.6602 4.64912 19.6695C4.64912 18.6788 5.79265 18.0643 7.60274 18.0643C8.81049 18.0643 9.68802 18.3211 10.2843 18.8439L10.3638 18.9234L10.4035 18.9663V18.9724C11.4675 20.0639 13.189 20.0548 14.2805 18.9663L14.2683 18.9234V18.9204Z" fill="#2B2522"/>
<path d="M59.6948 27.4205L59.6765 27.4388C59.5878 27.5275 59.4961 27.6192 59.4013 27.7018C58.695 28.2858 57.7563 28.5885 56.6036 28.5885C53.8334 28.5885 51.9652 26.5399 51.9652 23.4548C51.9652 20.3697 53.8823 18.2263 56.6678 18.2263C57.7594 18.2263 58.6827 18.5259 59.3738 19.0702L59.4074 19.0885C60.6213 20.0945 62.4161 20.0058 63.5718 18.8378L63.5657 18.8317C63.0184 17.7402 62.147 16.8565 61.0401 16.2266C59.8385 15.5448 58.3617 15.1657 56.7136 15.1657C56.3406 15.1657 55.9737 15.1871 55.6221 15.2238C51.2956 15.6916 48.3664 18.951 48.3664 23.4762C48.3664 28.3561 51.6809 31.6308 56.6005 31.6308C59.9578 31.6308 62.5108 30.1815 63.685 27.6834L63.6972 27.662C62.5781 26.543 60.8597 26.4573 59.6917 27.4174" fill="#2B2522"/>
<path d="M212.489 29.5425C212.798 30.0745 213.247 30.5545 213.825 30.9704C214.354 31.3526 215.085 31.5605 215.996 31.5849C216.84 31.5605 217.601 31.3832 218.255 31.059C218.959 30.7105 219.506 30.1784 219.879 29.4783C219.894 29.4477 219.928 29.4293 219.962 29.4263C219.995 29.4263 220.029 29.4446 220.044 29.4752C220.353 30.0072 220.802 30.4995 221.38 30.9367C221.949 31.3709 222.707 31.588 223.637 31.588H228V20.7733C228 19.0458 226.175 17.2877 224.349 17.2265V18.8287C224.349 18.8287 224.349 18.8379 224.349 18.8409V27.9189C224.349 27.9739 224.306 28.0137 224.254 28.0137H223.741C222.597 28.0137 221.781 27.7049 221.316 27.0933C220.873 26.5124 220.65 25.7663 220.65 24.8735V22.1217C220.65 22.1217 220.65 22.1156 220.65 22.1125V20.8069C220.65 19.0611 218.803 17.2846 216.956 17.2235V18.8287C216.956 18.8287 216.956 18.8531 216.95 18.8654L216.962 26.1822V27.9128C216.962 27.9372 216.953 27.9648 216.932 27.9831C216.913 28.0015 216.889 28.0106 216.864 28.0106L216.25 28.0015C215.1 28.0015 214.287 27.6957 213.825 27.0903C213.382 26.5093 213.158 25.7633 213.158 24.8705V21.7762C213.158 21.7762 213.158 21.7701 213.158 21.767V20.8008C213.158 19.058 211.315 17.2846 209.474 17.2235V26.1822C209.474 26.7173 209.391 27.1515 209.226 27.4694C209.046 27.8119 208.633 28.0106 208.089 28.0106H206.407L205.187 27.9648C204.129 27.9648 203.292 27.6315 202.769 26.9986C202.445 26.6072 202.228 26.0813 202.117 25.4331C201.766 20.3391 196.583 15.3461 191.654 15.3461C190.052 15.3461 188.419 17.0339 188.358 18.7247H190.973C190.973 18.7247 190.982 18.7247 190.985 18.7247H191.214C194.764 18.7247 198.396 22.3571 198.409 25.9223V25.9834C198.409 26.0446 198.409 26.1058 198.409 26.1669C198.409 26.7968 198.305 27.3104 198.121 27.5764C197.919 27.8639 197.54 28.0106 196.987 28.0106H189.722C188.031 28.0106 186.31 29.7963 186.249 31.5788H189.23C189.23 31.5788 189.242 31.5788 189.245 31.5788H197.259C198.06 31.5788 198.843 31.377 199.647 30.9581C200.341 30.5973 200.882 30.0837 201.258 29.4232C201.274 29.3927 201.304 29.3743 201.341 29.3743C201.374 29.3743 201.405 29.3927 201.423 29.4202C201.757 29.9736 202.224 30.4628 202.824 30.8786C203.389 31.27 204.132 31.5116 204.918 31.5574C205.01 31.5727 205.089 31.5788 205.172 31.5788H208.08C209.08 31.5788 209.954 31.3984 210.676 31.0468C211.391 30.6982 211.945 30.1876 212.318 29.5303C212.336 29.4997 212.367 29.4813 212.4 29.4813C212.434 29.4813 212.464 29.4997 212.483 29.5303" fill="#2B2522"/>
<path d="M183.084 31.27C183.891 30.9826 184.613 30.4414 185.12 29.7473C185.551 29.1572 185.827 28.457 185.918 27.7232L185.946 27.4969C186.038 26.7509 186.123 26.0507 186.041 25.3199C186.025 25.1793 186.001 25.0233 185.97 24.8582C185.882 24.3904 185.796 23.9715 185.61 23.6016C185.371 23.1215 185.071 22.6506 184.741 22.244C184.075 21.4215 183.185 20.7152 182.167 20.1923C181.965 20.0884 181.781 19.9997 181.595 19.9202C180.017 19.2414 178.143 18.9265 175.697 18.9265H171.526C171.487 18.9265 171.45 18.902 171.438 18.8623C171.422 18.8256 171.435 18.7828 171.465 18.7553L176.373 14.548C177.113 13.9121 177.593 12.8816 177.654 11.7962C177.706 10.8728 177.449 10.0167 176.947 9.42962C167.998 17.1072 166.283 18.5779 165.937 18.8592V22.4733H175.941C176.77 22.4733 177.752 22.4917 178.739 22.6354C179.794 22.7882 180.623 23.0757 181.271 23.5098C181.638 23.7575 181.922 24.048 182.124 24.3751C182.387 24.7971 182.515 25.2894 182.509 25.8825C182.503 26.1699 182.469 26.4573 182.408 26.7295C182.347 26.9863 182.219 27.1698 182.081 27.3654L182.054 27.4021C181.849 27.6987 181.433 28.0137 180.886 28.0137H164.157C164.106 28.0137 164.063 27.9708 164.063 27.9189V19.9814C164.063 17.9419 162.54 15.9851 160.595 15.5295C159.773 15.3369 159.027 15.2268 158.314 15.1962C158.302 15.1962 158.287 15.1901 158.275 15.1871H157.7C154.697 15.1871 151.829 16.4927 149.833 18.7706C149.05 19.6603 148.631 20.6357 148.12 21.9138C147.432 23.6444 147.203 25.4331 147.46 27.0811C147.668 28.4264 148.255 30.2029 149.863 31.0254C150.884 31.5482 151.777 31.591 152.838 31.591H156.972C157.006 31.591 157.131 31.591 157.315 31.5972C157.81 31.6094 158.733 31.6277 159.4 31.6277C160.014 31.6277 160.137 31.6124 160.161 31.6033L160.186 31.6828H160.195L160.204 31.6858H160.21L160.253 31.695L160.299 31.7042C160.222 32.1261 160.109 32.4655 159.947 32.7438C159.678 33.2055 159.311 33.5662 158.856 33.8231C158.4 34.083 157.896 34.2542 157.309 34.3429C156.822 34.4193 156.278 34.459 155.697 34.4682H153.957L152.701 34.4652C151.05 34.4652 149.365 36.208 149.307 37.9508H155.697C156.859 37.9417 157.807 37.8224 158.868 37.5472C159.892 37.2782 160.8 36.8593 161.559 36.2997C162.317 35.7433 162.925 35.0125 163.366 34.1258C163.711 33.4348 163.95 32.6123 164.069 31.6766C164.075 31.6277 164.115 31.5941 164.164 31.5941H176.908C177.259 31.5941 177.611 31.5941 177.966 31.588C178.317 31.588 178.672 31.5849 179.023 31.5849C179.201 31.5849 179.378 31.5849 179.556 31.5849C179.69 31.5849 179.828 31.588 179.965 31.591C180.204 31.5972 180.439 31.6002 180.678 31.6002C181.421 31.6002 182.286 31.5605 183.09 31.2731M160.51 27.9189C160.51 27.9708 160.467 28.0137 160.415 28.0137H152.267C151.817 28.0137 151.447 27.8088 151.166 27.4021C150.97 27.1239 150.875 26.6989 150.875 26.1057C150.875 26.0629 150.875 26.0201 150.875 25.9773C150.875 25.9376 150.875 25.8978 150.875 25.8611C150.888 22.4183 154.333 18.8929 157.837 18.74C158.061 18.74 158.278 18.7339 158.51 18.7339C159.021 18.7339 159.73 18.7981 160.054 18.9846C160.369 19.1711 160.51 19.7398 160.51 20.2229V27.9219V27.9189Z" fill="#2B2522"/>
<path d="M154.416 48.6738C154.416 49.7868 154.034 50.6827 153.269 51.3614C152.591 51.9516 151.737 52.2481 150.713 52.2481C149.478 52.2481 148.521 51.8384 147.845 51.0221C147.322 50.3952 147.062 49.6523 147.062 48.79C147.062 48.1112 147.218 47.5119 147.53 46.9891L149.148 46.6222C148.79 47.1878 148.613 47.8361 148.613 48.5668C148.613 49.2089 148.802 49.7195 149.178 50.0987C149.557 50.4778 150.068 50.6674 150.713 50.6674C151.358 50.6674 151.854 50.487 152.227 50.1323C152.6 49.7746 152.789 49.2884 152.789 48.6708V42.2131L154.419 41.3417V48.6708L154.416 48.6738Z" fill="#004C96"/>
<path d="M213.112 43.9651V47.3193C213.112 48.1082 212.868 48.7258 212.382 49.1692C211.957 49.5605 211.397 49.7562 210.709 49.7562H207.318C206.682 49.7562 206.156 49.585 205.74 49.2487C205.322 49.588 204.799 49.7562 204.163 49.7562H200.772C200.136 49.7562 199.61 49.585 199.194 49.2487C198.775 49.588 198.249 49.7562 197.616 49.7562H159.164C158.372 49.7562 157.758 49.5024 157.324 48.9979C156.951 48.5638 156.764 48.0042 156.764 47.3163V42.2009L158.406 41.3417V47.2368C158.406 47.5761 158.476 47.8177 158.614 47.9614C158.751 48.1051 158.987 48.1785 159.317 48.1785H197.457C197.785 48.1785 198.023 48.1082 198.161 47.9614C198.298 47.8208 198.369 47.5761 198.369 47.2368V44.8243L200.011 43.9621V47.2368C200.011 47.5761 200.081 47.8177 200.218 47.9614C200.359 48.1051 200.591 48.1785 200.925 48.1785H204.004C204.334 48.1785 204.569 48.1082 204.707 47.9614C204.848 47.8208 204.915 47.5761 204.915 47.2368V44.8243L206.56 43.9621V47.2368C206.56 47.5761 206.627 47.8177 206.771 47.9614C206.908 48.1051 207.144 48.1785 207.474 48.1785H210.553C210.883 48.1785 211.119 48.1082 211.256 47.9614C211.397 47.8208 211.467 47.5761 211.467 47.2368V44.8243L213.109 43.9621L213.112 43.9651Z" fill="#004C96"/>
<path d="M198.145 41.3234C197.993 41.1705 197.788 41.094 197.525 41.094C197.262 41.094 197.057 41.1705 196.901 41.3295C196.745 41.4854 196.666 41.6903 196.666 41.941C196.666 42.2101 196.745 42.4241 196.901 42.58C197.057 42.736 197.268 42.8124 197.525 42.8124C198.09 42.8124 198.375 42.5219 198.375 41.941C198.375 41.678 198.298 41.4732 198.145 41.3203M200.142 41.3234C199.992 41.1705 199.784 41.094 199.521 41.094C199.258 41.094 199.063 41.1705 198.901 41.3295C198.742 41.4854 198.659 41.6903 198.659 41.941C198.659 42.1917 198.739 42.4119 198.895 42.5739C199.05 42.7329 199.258 42.8155 199.518 42.8155C200.084 42.8155 200.368 42.525 200.368 41.944C200.368 41.6811 200.292 41.4762 200.139 41.3234" fill="#004C96"/>
<path d="M204.719 51.1688C204.566 51.0159 204.359 50.9425 204.099 50.9425C203.524 50.9425 203.236 51.2238 203.236 51.7895C203.236 52.0586 203.316 52.2726 203.472 52.4285C203.628 52.5875 203.839 52.664 204.099 52.664C204.664 52.664 204.946 52.3735 204.946 51.7895C204.946 51.5296 204.869 51.3217 204.719 51.1688ZM206.728 51.1688C206.575 51.0159 206.367 50.9425 206.107 50.9425C205.536 50.9425 205.248 51.2238 205.248 51.7895C205.248 52.0586 205.325 52.2726 205.481 52.4285C205.64 52.5875 205.848 52.664 206.107 52.664C206.673 52.664 206.954 52.3735 206.954 51.7895C206.954 51.5296 206.878 51.3217 206.728 51.1688Z" fill="#004C96"/>
<path d="M212.767 51.1688C212.614 51.0159 212.409 50.9425 212.146 50.9425C211.883 50.9425 211.675 51.019 211.522 51.178C211.363 51.3339 211.287 51.5388 211.287 51.7895C211.287 52.0586 211.363 52.2726 211.522 52.4285C211.675 52.5875 211.889 52.664 212.146 52.664C212.712 52.664 212.993 52.3735 212.993 51.7895C212.993 51.5296 212.917 51.3217 212.764 51.1688" fill="#004C96"/>
<path d="M227.553 47.1848V47.356C227.553 48.1387 227.309 48.7533 226.823 49.1936C226.398 49.5697 225.844 49.7562 225.169 49.7562H217.864C217.072 49.7562 216.457 49.5024 216.026 48.9979C215.65 48.5638 215.464 48.0042 215.464 47.3163V42.2009L217.106 41.3417V47.2368C217.106 47.5761 217.176 47.8177 217.314 47.9614C217.454 48.1051 217.687 48.1785 218.017 48.1785H224.997C225.606 48.1785 225.909 47.8788 225.909 47.2765V47.2001C225.909 46.7323 225.728 46.347 225.367 46.0504C225.007 45.7538 224.536 45.6071 223.952 45.6071C223.514 45.6071 223.056 45.6957 222.57 45.87V44.2923L225.217 41.3448H226.875L224.502 44.0049C225.153 44.0599 225.725 44.2556 226.223 44.5919C227.11 45.1943 227.553 46.0565 227.553 47.1878" fill="#004C96"/>
<path d="M6.77402 49.2639C6.07077 49.9671 5.24217 50.3188 4.29431 50.3188C2.92757 50.3188 1.91245 49.8112 1.23978 48.793C0.756685 48.0623 0.515137 47.2061 0.515137 46.2246C0.515137 44.9435 0.845356 43.9131 1.50885 43.1334C2.16318 42.3537 3.06823 41.9624 4.23012 41.9624C5.04649 41.9624 5.85981 42.3048 6.67313 42.9928L6.02492 44.0476C5.41646 43.6043 4.85998 43.3872 4.35853 43.3872C3.66446 43.3872 3.12631 43.6807 2.74411 44.2647C2.41389 44.7662 2.24879 45.4174 2.24879 46.2246C2.24879 46.9371 2.44448 47.5455 2.8328 48.0561C3.24863 48.5912 3.80206 48.8572 4.49919 48.8572C4.95783 48.8572 5.49901 48.6585 6.12887 48.261L6.77708 49.2669L6.77402 49.2639Z" fill="#004C96"/>
<path d="M16.378 42.1152H17.7754L20.7412 50.1689H19.0504C18.9067 49.7439 18.7263 49.1844 18.5153 48.4903H15.6289C15.5097 48.8725 15.3262 49.4321 15.0816 50.1689H13.4152L16.3811 42.1152H16.378ZM17.0905 44.2892C16.852 44.9588 16.5248 45.9005 16.109 47.1113H18.0444C17.647 45.9403 17.3259 44.9985 17.0905 44.2892Z" fill="#004C96"/>
<path d="M27.8898 50.1659V42.1244C28.0091 42.1 28.3454 42.0663 28.8958 42.0235C29.4492 41.9807 29.865 41.9593 30.1555 41.9593C32.2071 41.9593 33.2345 42.8001 33.2345 44.4788C33.2345 45.5214 32.8768 46.2858 32.1643 46.7689C31.6904 47.0991 31.1309 47.2642 30.4857 47.2642C29.9782 47.2642 29.6663 47.2306 29.5562 47.1603V50.1628H27.8898V50.1659ZM29.5562 43.3872V45.818C29.7763 45.9036 30.0515 45.9464 30.3848 45.9464C30.7181 45.9464 30.9902 45.8241 31.1859 45.5826C31.3816 45.341 31.4794 45.0077 31.4794 44.5858C31.4794 43.7296 31.1003 43.3016 30.3481 43.3016C29.9139 43.3016 29.654 43.3321 29.5593 43.3902" fill="#004C96"/>
<path d="M42.4683 42.1152H40.8264V50.1689H42.4683V42.1152Z" fill="#004C96"/>
<path d="M52.0722 43.4483H49.7453V42.1152H56.258V43.4483H53.7508V50.1659H52.0722V43.4483Z" fill="#004C96"/>
<path d="M64.8438 42.1152H66.2412L69.207 50.1689H67.5131C67.3694 49.7439 67.1921 49.1844 66.9811 48.4903H64.0947C63.9755 48.8725 63.792 49.4321 63.5474 50.1689H61.881L64.8469 42.1152H64.8438ZM65.5563 44.2892C65.3178 44.9588 64.9906 45.9005 64.5748 47.1113H66.5102C66.1128 45.9403 65.7917 44.9985 65.5563 44.2892Z" fill="#004C96"/>
<path d="M76.3556 50.1659V42.1152H78.022V48.8297H81.0368V50.1659H76.3556Z" fill="#004C96"/>
<path d="M109.375 10.9187H142.335C142.335 17.0553 137.352 22.0392 131.215 22.0392H109.375V10.9187Z" fill="#004C96"/>
<path d="M131.414 22.0392V55C125.277 55 120.293 50.0161 120.293 43.8796V22.0392H131.414Z" fill="url(#paint0_linear_330_4883)"/>
<path d="M120.296 44.0783H87.3354C87.3354 37.9417 92.3193 32.9578 98.4559 32.9578H120.296V44.0783Z" fill="#004C96"/>
<path d="M98.2541 32.9608V0C104.391 0 109.375 4.98387 109.375 11.1205V32.9608H98.2541Z" fill="url(#paint1_linear_330_4883)"/>
<defs>
<linearGradient id="paint0_linear_330_4883" x1="228" y1="27.5076" x2="0.515137" y2="27.5076" gradientUnits="userSpaceOnUse">
<stop stop-color="#E5AA00"/>
<stop offset="0.25" stop-color="#DFA500"/>
<stop offset="0.57" stop-color="#CF9700"/>
<stop offset="0.93" stop-color="#B48100"/>
<stop offset="1" stop-color="#AF7D00"/>
</linearGradient>
<linearGradient id="paint1_linear_330_4883" x1="103.813" y1="1.86621e-05" x2="103.813" y2="32.9578" gradientUnits="userSpaceOnUse">
<stop stop-color="#E5AA00"/>
<stop offset="0.25" stop-color="#DFA500"/>
<stop offset="0.57" stop-color="#CF9700"/>
<stop offset="0.93" stop-color="#B48100"/>
<stop offset="1" stop-color="#AF7D00"/>
</linearGradient>
</defs>
</svg>
