<svg width="200" height="51" viewBox="0 0 200 51" fill="none" xmlns="http://www.w3.org/2000/svg">
<g clip-path="url(#clip0_330_4629)">
<path d="M199.309 0.5H195.051V14.6894H199.309V0.5Z" fill="#010101"/>
<path d="M199.309 29.9043H195.051V44.0937H199.309V29.9043Z" fill="#010101"/>
<path d="M185.206 32.0706H180.948V42.6766H185.206V32.0706Z" fill="#010101"/>
<path d="M174.988 37.1367L171.978 34.1262L165.008 41.0963L168.018 44.1067L174.988 37.1367Z" fill="#010101"/>
<path d="M192.92 32.0706H188.662V42.6766H192.92V32.0706Z" fill="#010101"/>
<path d="M142.885 30.4746H138.628V42.6765H142.885V30.4746Z" fill="#010101"/>
<path d="M133.524 30.4746H129.266V42.6765H133.524V30.4746Z" fill="#010101"/>
<path d="M117.496 30.4746H113.239V42.6765H117.496V30.4746Z" fill="#010101"/>
<path d="M98.3697 30.4746H94.1123V42.6765H98.3697V30.4746Z" fill="#010101"/>
<path d="M192.925 42.6766V38.4192H177.175V42.6766H192.925Z" fill="#010101"/>
<path d="M142.885 35.1353V30.4746H129.272V35.1353H142.885Z" fill="#010101"/>
<path d="M117.496 35.1353V30.4746H94.1063V35.1353H117.496Z" fill="#010101"/>
<path d="M162.087 42.6766V38.4192L94.1067 38.4192V42.6766L162.087 42.6766Z" fill="#010101"/>
<path d="M126.005 0.5H121.748V14.6894H126.005V0.5Z" fill="#010101"/>
<path d="M117.225 1.31812H112.968V13.4163H117.225V1.31812Z" fill="#010101"/>
<path d="M151.573 9.14153V13.3989L192.92 13.3989V9.14153L151.573 9.14153Z" fill="#010101"/>
<path d="M94.1123 9.13566V13.3931L117.226 13.3931V9.13566L94.1123 9.13566Z" fill="#010101"/>
<path d="M192.92 2.7583H188.662V13.3932H192.92V2.7583Z" fill="#010101"/>
<path d="M164.005 15.2251L166.978 18.192L164.097 21.0783L161.217 18.192L164.005 15.2251Z" fill="#010101"/>
<path d="M152.967 44.6467L155.94 47.6194L153.053 50.4999L150.173 47.6194L152.967 44.6467Z" fill="#010101"/>
<path d="M104.223 0.736084L107.19 3.70878L104.309 6.5893L101.429 3.70878L104.223 0.736084Z" fill="#010101"/>
<path d="M98.4562 0.736084L101.429 3.70878L98.5426 6.5893L95.6621 3.70878L98.4562 0.736084Z" fill="#010101"/>
<path d="M103.186 22.7146L106.158 25.6873L103.272 28.5678L100.392 25.6873L103.186 22.7146Z" fill="#010101"/>
<path d="M97.4191 22.7146L100.392 25.6873L97.5113 28.5678L94.625 25.6873L97.4191 22.7146Z" fill="#010101"/>
<path d="M172.249 0.5L169.017 3.73194L173.943 10.0806H179.617L172.249 0.5Z" fill="#010101"/>
<path d="M133.788 1.31812L133.765 9.15888H127.468V13.4163H150.173V1.31812H133.788ZM139.739 9.13584H137.746V5.58704H139.739V9.13584ZM145.996 9.13584H144.002V5.58704H145.996V9.13584Z" fill="#010101"/>
<path d="M69.3109 0.736084H60.2661V42.6764H69.3109V0.736084Z" fill="#010101"/>
<path d="M29.9346 30.993V0.736084H38.7144V20.9688H58.492L45.2762 34.4497C45.2762 34.4497 41.2838 38.7071 46.342 41.0115H58.492V43.0509H33.7484C33.7484 43.0509 28.2466 41.6855 31.179 36.5697L45.1898 22.2939H38.4494L29.9346 30.9873V30.993Z" fill="#010101"/>
<path d="M15.9177 0.736084L2.31593 14.3379C0.996656 15.6629 0.103696 17.397 0.00575848 19.2693C-0.080657 21.0092 0.530012 22.7432 3.32411 22.7144C8.91231 22.6568 28.2463 22.7144 28.2463 22.7144V20.8824H18.1184C16.707 20.8824 15.2955 20.5483 14.1145 19.7763C12.6685 18.8315 11.597 17.253 14.126 14.937C18.6715 10.7718 28.2463 0.736084 28.2463 0.736084H15.9177Z" fill="#010101"/>
</g>
<defs>
<clipPath id="clip0_330_4629">
<rect width="199.309" height="50" fill="white" transform="translate(0 0.5)"/>
</clipPath>
</defs>
</svg>
