<svg width="189" height="57" viewBox="0 0 189 57" fill="none" xmlns="http://www.w3.org/2000/svg">
<rect x="0.680176" y="0.234863" width="187.414" height="56.2242" rx="10.4119" fill="url(#paint0_linear_33_513)" fill-opacity="0.9"/>
<rect x="0.940473" y="0.49516" width="186.893" height="55.7036" rx="10.1516" stroke="url(#paint1_linear_33_513)" stroke-opacity="0.9" stroke-width="0.520594"/>
<path d="M48.1091 29.15C48.1091 25.5653 51.0757 23.7112 51.1993 23.7112C49.5924 21.3626 46.8729 20.8681 46.0077 20.8681C43.7827 20.6209 41.6813 22.2279 40.6924 22.2279C39.4563 22.2279 37.8494 20.8681 35.8716 20.9918C33.523 20.9918 31.2981 22.3515 30.0619 24.5765C27.5897 28.9028 29.4439 35.3305 31.7925 38.9152C33.0286 40.7694 34.5119 42.4999 36.2425 42.4999C37.973 42.3763 38.7147 41.2638 40.816 41.2638C42.9174 41.2638 43.6591 42.4999 45.3896 42.2527C47.3674 42.2527 48.4799 40.3986 49.716 38.7916C51.0757 36.8139 51.6937 34.9597 51.6937 34.7125C51.8174 34.9597 48.1091 33.4764 48.1091 29.15Z" fill="white"/>
<path d="M44.5244 18.6433C45.5133 17.4072 46.1313 15.8003 46.0077 14.1934C44.648 14.1934 42.9174 15.1822 41.805 16.2947C40.9397 17.2836 40.198 19.1378 40.3216 20.6211C41.9286 20.7447 43.6591 19.8794 44.5244 18.6433Z" fill="white"/>
<path d="M72.3683 36.5051H66.3114L64.8281 40.8315H62.1086L68.0419 24.6385H70.7614L76.571 40.8315H73.8516L72.3683 36.5051ZM66.8058 34.4037H71.7502L69.4016 27.2343L66.8058 34.4037ZM89.1793 35.0218C89.1793 38.7301 87.2015 40.9551 84.2349 40.9551C82.6279 40.9551 81.2682 40.2134 80.5266 38.8537V44.6634H78.178V28.9649H80.5266V30.9426C81.2682 29.7065 82.6279 28.8413 84.2349 28.8413C87.0779 28.8413 89.1793 31.1899 89.1793 35.0218ZM86.7071 35.0218C86.7071 32.6732 85.471 30.9426 83.6168 30.9426C81.8863 30.9426 80.5266 32.5496 80.5266 35.0218C80.5266 37.494 81.7627 39.1009 83.6168 39.1009C85.471 38.8537 86.7071 37.3704 86.7071 35.0218ZM102.158 35.0218C102.158 38.7301 100.181 40.9551 97.214 40.9551C95.607 40.9551 94.2473 40.2134 93.5056 38.8537V44.6634H91.1571V28.9649H93.382V30.9426C94.1237 29.7065 95.4834 28.8413 97.0903 28.8413C100.057 28.8413 102.158 31.1899 102.158 35.0218ZM99.5626 35.0218C99.5626 32.6732 98.3265 30.9426 96.4723 30.9426C94.7418 30.9426 93.382 32.5496 93.382 35.0218C93.382 37.494 94.6181 39.1009 96.4723 39.1009C98.4501 38.8537 99.5626 37.3704 99.5626 35.0218ZM110.564 36.2579C110.687 37.8648 112.294 38.9773 114.396 38.9773C116.497 38.9773 117.98 37.9884 117.98 36.3815C117.98 35.1454 117.115 34.4037 115.014 33.7857L112.912 33.2912C109.946 32.5496 108.586 31.1899 108.586 28.9649C108.586 26.1218 110.935 24.1441 114.396 24.1441C117.857 24.1441 120.205 26.1218 120.205 28.9649H117.857C117.733 27.3579 116.374 26.3691 114.396 26.3691C112.418 26.3691 111.182 27.3579 111.182 28.7177C111.182 29.9538 112.047 30.5718 114.149 31.0663L115.879 31.5607C119.093 32.3024 120.453 33.6621 120.453 36.0107C120.453 38.9773 118.104 40.9551 114.149 40.9551C110.564 40.9551 108.215 39.1009 108.092 36.1343C108.215 36.5051 110.564 36.2579 110.564 36.2579ZM125.768 26.2455V29.0885H127.993V30.9426H125.768V37.494C125.768 38.4829 126.262 38.9773 127.251 38.9773H127.993V40.9551C127.746 40.9551 127.251 41.0787 126.633 41.0787C124.285 41.0787 123.419 40.2134 123.419 37.9884V30.9426H121.689V28.9649H123.296V26.1218L125.768 26.2455ZM129.229 35.0218C129.229 31.3135 131.454 29.0885 134.791 29.0885C138.253 29.0885 140.354 31.4371 140.354 35.0218C140.354 38.7301 138.129 40.9551 134.791 40.9551C131.454 40.9551 129.229 38.7301 129.229 35.0218ZM138.005 35.0218C138.005 32.426 136.769 30.9426 134.915 30.9426C132.937 30.9426 131.825 32.426 131.825 35.0218C131.825 37.6176 133.061 39.1009 134.915 39.1009C136.769 38.9773 138.005 37.494 138.005 35.0218ZM142.455 28.9649H144.68V30.9426C144.928 29.5829 146.164 28.8413 147.523 28.8413C147.771 28.8413 148.141 28.8413 148.389 28.9649V31.1899C148.265 31.0663 147.771 31.0663 147.4 31.0663C145.916 31.0663 144.928 32.0551 144.928 33.7857V40.8315H142.579C142.455 40.8315 142.455 28.9649 142.455 28.9649ZM159.637 37.3704C159.39 39.4718 157.289 40.9551 154.569 40.9551C151.108 40.9551 149.007 38.7301 149.007 35.0218C149.007 31.3135 151.108 28.8413 154.569 28.8413C157.783 28.8413 159.884 31.0663 159.884 34.651V35.5162H151.355V35.7634C151.355 37.8648 152.591 39.1009 154.446 39.1009C155.805 39.1009 156.794 38.4829 157.165 37.494C157.165 37.3704 159.637 37.3704 159.637 37.3704ZM151.355 33.7857H157.289C157.289 31.9315 156.052 30.819 154.446 30.819C152.715 30.819 151.602 31.9315 151.355 33.7857ZM66.5586 12.4011C68.7836 12.4011 70.2669 13.7608 70.2669 16.233C70.2669 18.7052 68.9072 20.0649 66.5586 20.0649H63.7156V12.2775H66.5586V12.4011ZM65.0753 19.0761H66.5586C68.1655 19.0761 69.0308 18.0872 69.0308 16.233C69.0308 14.3789 68.1655 13.39 66.5586 13.39H65.0753V19.0761ZM71.6266 17.3455C71.6266 15.3678 72.6155 14.3789 74.4697 14.3789C76.0766 14.3789 77.3127 15.615 77.3127 17.3455C77.3127 19.3233 76.3238 20.3122 74.4697 20.3122C72.6155 20.3122 71.6266 19.0761 71.6266 17.3455ZM75.953 17.3455C75.953 15.9858 75.3349 15.2441 74.3461 15.2441C73.3572 15.2441 72.7391 15.9858 72.7391 17.3455C72.7391 18.7052 73.3572 19.4469 74.3461 19.4469C75.3349 19.1997 75.953 18.458 75.953 17.3455ZM84.3585 20.1886H83.1224L81.8863 15.8622H81.7627L80.5266 20.1886H79.2905L77.6835 14.3789H78.9196L79.9085 18.8288H80.0321L81.2682 14.3789H82.2571L83.4932 18.8288H83.6168L84.6057 14.3789H85.8418C86.089 14.3789 84.3585 20.1886 84.3585 20.1886ZM87.4487 14.3789H88.4376V15.2441H88.5612C88.8085 14.6261 89.4265 14.2553 90.2918 14.2553C91.6515 14.2553 92.3932 14.9969 92.3932 16.4802V20.1886H91.1571V16.6039C91.1571 15.7386 90.6626 15.2441 89.921 15.2441C89.0557 15.2441 88.5612 15.8622 88.5612 16.7275V20.1886H87.2015C87.4487 20.1886 87.4487 14.3789 87.4487 14.3789ZM94.2473 12.0303H95.4834V20.3122H94.2473V12.0303ZM96.9667 17.3455C96.9667 15.3678 97.9556 14.3789 99.8098 14.3789C101.417 14.3789 102.653 15.615 102.653 17.3455C102.653 19.3233 101.664 20.3122 99.8098 20.3122C98.0792 20.3122 96.9667 19.0761 96.9667 17.3455ZM101.417 17.3455C101.417 15.9858 100.799 15.2441 99.8098 15.2441C98.8209 15.2441 98.2028 15.9858 98.2028 17.3455C98.2028 18.7052 98.8209 19.4469 99.8098 19.4469C100.799 19.1997 101.417 18.458 101.417 17.3455ZM103.765 18.458C103.765 17.4691 104.507 16.8511 105.99 16.6039L107.597 16.4802V15.9858C107.597 15.3678 107.103 15.1205 106.361 15.1205C105.743 15.1205 105.372 15.3678 105.125 15.7386H103.889C104.013 14.7497 104.878 14.1316 106.238 14.1316C107.721 14.1316 108.462 14.8733 108.462 16.1094V20.1886H107.474V19.3233H107.35C107.103 19.9413 106.361 20.1886 105.619 20.1886C104.507 20.3122 103.765 19.5705 103.765 18.458ZM107.474 18.0872V17.5927L105.99 17.7163C105.249 17.7163 104.754 17.9636 104.754 18.5816C104.754 19.1997 105.249 19.4469 105.743 19.4469C106.856 19.1997 107.474 18.8288 107.474 18.0872ZM110.193 17.3455C110.193 15.4914 111.058 14.3789 112.542 14.3789C113.283 14.3789 114.025 14.8733 114.272 15.3678H114.396V12.0303H115.632V20.3122H114.643V19.4469H114.519C114.272 20.0649 113.531 20.4358 112.789 20.4358C111.058 20.3122 110.193 19.0761 110.193 17.3455ZM111.306 17.3455C111.306 18.5816 111.924 19.3233 112.912 19.3233C113.901 19.3233 114.519 18.5816 114.519 17.3455C114.519 16.1094 113.901 15.3678 112.912 15.3678C111.924 15.2441 111.306 15.9858 111.306 17.3455ZM120.453 17.3455C120.453 15.3678 121.442 14.3789 123.296 14.3789C124.903 14.3789 126.139 15.615 126.139 17.3455C126.139 19.3233 125.15 20.3122 123.296 20.3122C121.442 20.3122 120.453 19.0761 120.453 17.3455ZM124.779 17.3455C124.779 15.9858 124.161 15.2441 123.172 15.2441C122.183 15.2441 121.565 15.9858 121.565 17.3455C121.565 18.7052 122.183 19.4469 123.172 19.4469C124.161 19.1997 124.779 18.458 124.779 17.3455ZM127.375 14.3789H128.364V15.2441H128.487C128.735 14.6261 129.353 14.2553 130.218 14.2553C131.578 14.2553 132.319 14.9969 132.319 16.4802V20.1886H131.083V16.6039C131.083 15.7386 130.589 15.2441 129.847 15.2441C128.982 15.2441 128.487 15.8622 128.487 16.7275V20.1886H127.251L127.375 14.3789ZM138.871 12.7719V14.2553H140.23V15.2441H138.871V18.2108C138.871 18.8288 139.118 19.0761 139.736 19.0761H140.23V19.9413H139.612C138.253 19.9413 137.882 19.4469 137.882 18.3344V15.2441H137.016V14.2553H137.882V12.7719H138.871ZM141.837 12.0303H143.073V15.3678H143.197C143.444 14.7497 144.062 14.3789 144.928 14.3789C146.164 14.3789 147.029 15.1205 147.029 16.6039V20.3122H145.793V16.8511C145.793 15.9858 145.298 15.4914 144.557 15.4914C143.691 15.4914 143.073 16.1094 143.073 16.9747V20.4358H141.837C141.961 20.4358 141.837 12.0303 141.837 12.0303ZM153.58 18.7052C153.333 19.6941 152.344 20.3122 151.108 20.3122C149.501 20.3122 148.389 19.0761 148.389 17.3455C148.389 15.3678 149.378 14.2553 151.108 14.2553C152.715 14.2553 153.827 15.2441 153.827 17.2219V17.7163H149.625C149.625 18.7052 150.243 19.3233 151.108 19.3233C151.85 19.3233 152.344 19.0761 152.468 18.5816C152.468 18.458 153.58 18.7052 153.58 18.7052ZM149.501 16.7275H152.468C152.468 15.8622 151.85 15.2441 150.984 15.2441C150.243 15.2441 149.625 15.8622 149.501 16.7275Z" fill="white"/>
<defs>
<linearGradient id="paint0_linear_33_513" x1="36.3781" y1="0.234868" x2="180.225" y2="88.3767" gradientUnits="userSpaceOnUse">
<stop stop-color="white" stop-opacity="0.02"/>
<stop offset="1" stop-color="white" stop-opacity="0.1"/>
</linearGradient>
<linearGradient id="paint1_linear_33_513" x1="36.3781" y1="0.234868" x2="180.225" y2="88.3767" gradientUnits="userSpaceOnUse">
<stop stop-color="white" stop-opacity="0.5"/>
<stop offset="1" stop-color="white" stop-opacity="0.1"/>
</linearGradient>
</defs>
</svg>
