<svg width="189" height="57" viewBox="0 0 189 57" fill="none" xmlns="http://www.w3.org/2000/svg">
<rect x="0.680176" y="0.689453" width="187.414" height="56.2242" rx="10.4119" fill="url(#paint0_linear_33_500)" fill-opacity="0.9"/>
<rect x="0.940473" y="0.94975" width="186.893" height="55.7036" rx="10.1516" stroke="url(#paint1_linear_33_500)" stroke-opacity="0.9" stroke-width="0.520594"/>
<path d="M19.6503 12.6631C19.4031 12.9103 19.0322 13.652 19.0322 14.3936V43.0712C19.0322 43.8129 19.2794 44.5545 19.6503 44.8018L19.7739 44.9254L35.8432 28.856V28.6088L19.6503 12.6631Z" fill="url(#paint2_linear_33_500)"/>
<path d="M41.282 34.2952L35.9668 28.9799V28.7327L41.282 23.4175H41.4057L47.8334 27.0022C49.5639 27.9911 49.5639 29.7216 47.8334 30.7105L41.282 34.2952Z" fill="url(#paint3_linear_33_500)"/>
<path d="M41.4058 34.1713L35.8433 28.6089L19.6504 44.8018C20.2684 45.4199 21.2573 45.5435 22.3698 44.9254L41.4058 34.1713Z" fill="url(#paint4_linear_33_500)"/>
<path d="M41.4058 23.2936L22.3698 12.4159C21.3809 11.7979 20.2684 11.7979 19.6504 12.5395L35.8433 28.7325L41.4058 23.2936Z" fill="url(#paint5_linear_33_500)"/>
<path opacity="0.2" d="M41.2821 34.1714L22.3697 44.9255C21.3809 45.5435 20.392 45.5435 19.8975 44.9255L19.7739 45.0491L19.8975 45.1727C20.5156 45.7908 21.3809 45.7908 22.3697 45.1727L41.2821 34.1714Z" fill="#2B2B2B"/>
<path opacity="0.12" d="M19.6503 44.8022C19.4031 44.3078 19.0322 43.8134 19.0322 43.0717V43.1953C19.0322 43.937 19.2794 44.6786 19.6503 44.9259V44.8022ZM47.8334 30.4635L41.2821 34.1718L41.4057 34.2954L47.8334 30.7107C48.6987 30.2162 49.1931 29.4746 49.1931 28.7329C49.0695 29.4746 48.5751 29.969 47.8334 30.4635Z" fill="#2B2B2B"/>
<path opacity="0.25" d="M22.3697 12.7868L47.7098 27.2492C48.5751 27.7436 49.0696 28.2381 49.0696 28.8561C49.0696 28.1144 48.5751 27.4964 47.7098 26.8783L22.3697 12.4159C20.6392 11.4271 19.1559 12.2923 19.1559 14.3937V14.5173C19.0323 12.4159 20.6392 11.6743 22.3697 12.7868Z" fill="white"/>
<path d="M67.5163 15.1975C67.5163 16.1863 67.2691 17.1752 66.5274 17.7933C65.7857 18.5349 64.9205 19.0294 63.6844 19.0294C62.4483 19.0294 61.583 18.5349 60.8413 17.7933C60.0997 17.0516 59.6052 16.0627 59.6052 14.9502C59.6052 13.7141 60.0997 12.8489 60.8413 12.1072C61.583 11.3655 62.5719 10.8711 63.6844 10.8711C64.3024 10.8711 64.6732 10.9947 65.2913 11.1183C65.7857 11.2419 66.1566 11.6127 66.5274 11.9836L65.7857 12.7252C65.2913 12.1072 64.5496 11.86 63.6844 11.86C62.8191 11.86 62.201 12.1072 61.583 12.7252C60.9649 13.3433 60.7177 14.085 60.7177 14.9502C60.7177 15.8155 60.9649 16.5572 61.583 17.1752C62.201 17.7933 62.9427 18.0405 63.6844 18.0405C64.5496 18.0405 65.2913 17.7933 65.9093 17.1752C66.4038 16.6808 66.5274 16.3099 66.5274 15.5683H63.6844V14.5794H67.3927C67.5163 14.9502 67.5163 15.0738 67.5163 15.1975ZM73.4496 12.1072H69.8649V14.703H73.2024V15.4447H69.8649V17.9169H73.4496V18.7821H68.876V10.9947H73.4496V12.1072ZM77.7759 18.7821H76.7871V12.1072H74.5621V11.1183H79.8773V11.9836H77.6523V18.9058H77.7759V18.7821ZM83.7092 18.7821V10.9947H84.6981V18.7821H83.7092ZM89.2717 18.7821H88.2828V12.1072H86.1814V11.1183H91.4967V11.9836H89.2717V18.7821ZM101.633 17.9169C100.891 18.6585 99.9022 19.153 98.7897 19.153C97.5536 19.153 96.6883 18.6585 95.9466 17.9169C95.205 17.1752 94.7105 16.1863 94.7105 15.0738C94.7105 14.085 95.205 12.9725 95.9466 12.2308C96.5647 11.3655 97.5536 10.8711 98.6661 10.8711C99.9022 10.8711 100.767 11.3655 101.509 12.1072C102.251 12.8489 102.745 13.8377 102.745 14.9502C102.745 16.0627 102.374 16.928 101.633 17.9169ZM96.5647 17.1752C97.1828 17.7933 97.9244 18.0405 98.6661 18.0405C99.4077 18.0405 100.149 17.7933 100.767 17.1752C101.385 16.5572 101.633 15.8155 101.633 14.9502C101.633 14.085 101.385 13.3433 100.767 12.7252C100.149 12.1072 99.4077 11.86 98.6661 11.86C97.9244 11.86 97.1828 12.1072 96.5647 12.7252C95.9466 13.3433 95.6994 14.085 95.6994 14.9502C95.6994 15.8155 95.9466 16.5572 96.5647 17.1752ZM104.229 18.7821V10.9947H105.465L109.173 17.1752V10.9947H110.162V18.7821H109.173L105.094 12.3544V18.7821H104.229Z" fill="white" stroke="white" stroke-width="0.251239" stroke-miterlimit="10"/>
<path d="M94.9578 30.5394C91.8675 30.5394 89.3953 32.888 89.3953 36.1019C89.3953 39.1921 91.8675 41.6643 94.9578 41.6643C98.048 41.6643 100.52 39.3157 100.52 36.1019C100.52 32.7644 97.9244 30.5394 94.9578 30.5394ZM94.9578 39.3157C93.3508 39.3157 91.8675 37.956 91.8675 35.9783C91.8675 34.0005 93.3508 32.6408 94.9578 32.6408C96.5647 32.6408 98.048 34.0005 98.048 35.9783C98.1716 37.956 96.5647 39.3157 94.9578 39.3157ZM82.9676 30.5394C79.8773 30.5394 77.4051 32.888 77.4051 36.1019C77.4051 39.1921 79.8773 41.6643 82.9676 41.6643C86.0578 41.6643 88.53 39.3157 88.53 36.1019C88.4064 32.7644 85.9342 30.5394 82.9676 30.5394ZM82.9676 39.3157C81.3606 39.3157 79.8773 37.956 79.8773 35.9783C79.8773 34.0005 81.3606 32.6408 82.9676 32.6408C84.5745 32.6408 86.0578 34.0005 86.0578 35.9783C86.0578 37.956 84.5745 39.3157 82.9676 39.3157ZM68.5052 32.1463V34.4949H74.1912C74.0676 35.8546 73.5732 36.7199 72.8315 37.4616C72.0899 38.2032 70.7301 39.1921 68.5052 39.1921C65.0441 39.1921 62.4483 36.3491 62.4483 32.888C62.4483 29.4269 65.1677 26.5839 68.5052 26.5839C70.4829 26.5839 71.8426 27.3255 72.7079 28.1908L74.3149 26.5839C72.9551 25.4714 70.9774 24.3589 68.2579 24.3589C63.4371 24.3589 59.6052 28.1908 59.6052 33.0116C59.6052 37.8324 63.6844 41.6643 68.2579 41.6643C70.7302 41.6643 72.7079 40.7991 74.1912 39.3157C75.6746 37.8324 76.2926 35.6074 76.2926 33.7533C76.2926 33.1352 76.2926 32.7644 76.169 32.2699L68.5052 32.1463ZM127.344 34.0005C126.849 32.7644 125.613 30.5394 122.77 30.5394C119.927 30.5394 117.578 32.7644 117.578 36.1019C117.578 39.1921 119.927 41.6643 123.141 41.6643C125.613 41.6643 127.22 40.181 127.715 39.3157L125.737 38.0796C125.119 38.9449 124.253 39.563 123.017 39.563C121.781 39.563 120.916 38.9449 120.298 37.956L127.715 34.8658L127.344 34.0005ZM119.927 35.8546C119.927 33.7533 121.534 32.5172 122.77 32.5172C123.635 32.5172 124.501 33.0116 124.871 33.7533L119.927 35.8546ZM113.747 41.2935H116.095V24.9769H113.747V41.2935ZM109.915 31.7755C109.297 31.1575 108.308 30.5394 106.948 30.5394C104.105 30.5394 101.633 32.888 101.633 36.1019C101.633 39.1921 104.105 41.6643 106.948 41.6643C108.308 41.6643 109.297 41.0463 109.915 40.4282H110.038V41.1699C110.038 43.2713 108.802 44.5074 107.072 44.5074C105.588 44.5074 104.723 43.5185 104.229 42.5296L102.127 43.3949C102.745 44.8782 104.352 46.7323 107.072 46.7323C109.915 46.7323 112.263 45.1254 112.263 40.9227V30.9102H110.038L109.915 31.7755ZM107.072 39.3157C105.465 39.3157 103.981 37.956 103.981 35.9783C103.981 34.0005 105.341 32.5172 107.072 32.5172C108.679 32.5172 110.038 34.0005 110.038 35.9783C110.038 37.956 108.679 39.3157 107.072 39.3157ZM138.839 24.9769H133.03V41.2935H135.378V34.9894H138.839C141.559 34.9894 144.155 33.0116 144.155 29.9213C144.155 26.8311 141.435 24.9769 138.839 24.9769ZM138.839 32.7644H135.378V27.2019H138.839C140.57 27.2019 141.682 28.6852 141.682 30.045C141.559 31.2811 140.57 32.7644 138.839 32.7644ZM153.796 30.5394C152.066 30.5394 150.212 31.2811 149.47 33.1352L151.571 34.0005C152.066 33.1352 152.931 32.7644 153.796 32.7644C155.032 32.7644 156.268 33.506 156.268 34.8658V34.9894C155.774 34.7421 154.909 34.3713 153.796 34.3713C151.448 34.3713 149.223 35.731 149.223 38.0796C149.223 40.3046 151.2 41.6643 153.302 41.6643C154.909 41.6643 155.774 40.9227 156.392 40.0574H156.516V41.2935H158.864V34.9894C158.741 32.0227 156.516 30.5394 153.796 30.5394ZM153.549 39.3157C152.807 39.3157 151.571 38.8213 151.571 37.956C151.571 36.7199 152.931 36.2255 154.043 36.2255C155.032 36.2255 155.65 36.4727 156.268 36.8435C156.268 38.3268 154.909 39.3157 153.549 39.3157ZM167.27 30.7866L164.427 37.8324H164.303L161.46 30.7866H158.741L163.067 40.6754L160.595 46.2379H163.067L169.742 30.9102H167.27V30.7866ZM145.514 41.2935H147.863V24.9769H145.514V41.2935Z" fill="white"/>
<defs>
<linearGradient id="paint0_linear_33_500" x1="36.3781" y1="0.689458" x2="180.225" y2="88.8313" gradientUnits="userSpaceOnUse">
<stop stop-color="white" stop-opacity="0.02"/>
<stop offset="1" stop-color="white" stop-opacity="0.1"/>
</linearGradient>
<linearGradient id="paint1_linear_33_500" x1="36.3781" y1="0.689458" x2="180.225" y2="88.8313" gradientUnits="userSpaceOnUse">
<stop stop-color="white" stop-opacity="0.5"/>
<stop offset="1" stop-color="white" stop-opacity="0.1"/>
</linearGradient>
<linearGradient id="paint2_linear_33_500" x1="34.4961" y1="14.1002" x2="12.6932" y2="35.9032" gradientUnits="userSpaceOnUse">
<stop stop-color="#00A0FF"/>
<stop offset="0.007" stop-color="#00A1FF"/>
<stop offset="0.26" stop-color="#00BEFF"/>
<stop offset="0.512" stop-color="#00D2FF"/>
<stop offset="0.76" stop-color="#00DFFF"/>
<stop offset="1" stop-color="#00E3FF"/>
</linearGradient>
<linearGradient id="paint3_linear_33_500" x1="50.132" y1="28.8373" x2="18.6981" y2="28.8373" gradientUnits="userSpaceOnUse">
<stop stop-color="#FFE000"/>
<stop offset="0.409" stop-color="#FFBD00"/>
<stop offset="0.775" stop-color="#FFA500"/>
<stop offset="1" stop-color="#FF9C00"/>
</linearGradient>
<linearGradient id="paint4_linear_33_500" x1="38.3918" y1="31.7145" x2="8.82609" y2="61.2802" gradientUnits="userSpaceOnUse">
<stop stop-color="#FF3A44"/>
<stop offset="1" stop-color="#C31162"/>
</linearGradient>
<linearGradient id="paint5_linear_33_500" x1="15.6281" y1="3.04542" x2="28.8302" y2="16.249" gradientUnits="userSpaceOnUse">
<stop stop-color="#32A071"/>
<stop offset="0.069" stop-color="#2DA771"/>
<stop offset="0.476" stop-color="#15CF74"/>
<stop offset="0.801" stop-color="#06E775"/>
<stop offset="1" stop-color="#00F076"/>
</linearGradient>
</defs>
</svg>
