<svg width="547" height="179" viewBox="0 0 547 179" fill="none" xmlns="http://www.w3.org/2000/svg">
<path d="M0.931987 24.8237V2.16747H9.0949C12.7599 2.16747 15.6586 3.22254 17.7909 5.33268C19.9233 7.44282 20.9894 10.1638 20.9894 13.4956C20.9894 16.8496 19.9233 19.5817 17.7909 21.6918C15.6586 23.7798 12.7599 24.8237 9.0949 24.8237H0.931987ZM9.06159 22.1916C11.7715 22.1916 13.9038 21.4142 15.4587 19.8593C17.0357 18.3045 17.8242 16.1833 17.8242 13.4956C17.8242 10.8302 17.0357 8.72001 15.4587 7.16517C13.8816 5.58812 11.7492 4.79959 9.06159 4.79959H4.03056V22.1916H9.06159ZM33.3877 7.83153C36.1197 7.83153 38.2854 8.66448 39.8847 10.3304C41.5061 11.9741 42.3169 14.0287 42.3169 16.4942C42.3169 18.9598 41.5061 21.0255 39.8847 22.6914C38.2854 24.3351 36.1197 25.1569 33.3877 25.1569C30.6112 25.1569 28.4233 24.3351 26.824 22.6914C25.2247 21.0255 24.4251 18.9598 24.4251 16.4942C24.4251 14.0287 25.2247 11.9741 26.824 10.3304C28.4233 8.66448 30.6112 7.83153 33.3877 7.83153ZM33.3543 22.8246C35.2201 22.8246 36.6639 22.2138 37.6857 20.9922C38.7296 19.7483 39.2516 18.249 39.2516 16.4942C39.2516 14.7617 38.7296 13.2735 37.6857 12.0296C36.6639 10.7857 35.2201 10.1638 33.3543 10.1638C31.4885 10.1638 30.0447 10.7857 29.023 12.0296C28.0012 13.2513 27.4904 14.7395 27.4904 16.4942C27.4904 18.2712 27.9901 19.7705 28.9897 20.9922C30.0114 22.2138 31.4663 22.8246 33.3543 22.8246ZM56.3097 8.16471H59.0751L63.673 21.3587L68.0043 8.16471H71.0029L65.2056 25.1236H62.2736L57.6757 12.2962L53.2777 25.1236H50.3791L44.5484 8.16471H47.5804L51.9117 21.3587L56.3097 8.16471ZM83.0883 7.83153C85.0207 7.83153 86.5089 8.36462 87.5529 9.4308C88.5968 10.497 89.1188 11.9963 89.1188 13.9287V24.8237H86.1202V13.9954C86.1202 12.7737 85.7648 11.8297 85.054 11.1633C84.3432 10.497 83.3326 10.1638 82.0221 10.1638C80.2229 10.1638 78.657 10.9634 77.3242 12.5627V24.8237H74.3256V8.16471H77.091L77.3242 10.6969C78.7236 8.78665 80.6449 7.83153 83.0883 7.83153ZM93.9455 24.8237V0.934702L96.9441 0.501567V24.8237H93.9455ZM110.013 7.83153C112.745 7.83153 114.91 8.66448 116.51 10.3304C118.131 11.9741 118.942 14.0287 118.942 16.4942C118.942 18.9598 118.131 21.0255 116.51 22.6914C114.91 24.3351 112.745 25.1569 110.013 25.1569C107.236 25.1569 105.048 24.3351 103.449 22.6914C101.85 21.0255 101.05 18.9598 101.05 16.4942C101.05 14.0287 101.85 11.9741 103.449 10.3304C105.048 8.66448 107.236 7.83153 110.013 7.83153ZM109.979 22.8246C111.845 22.8246 113.289 22.2138 114.311 20.9922C115.355 19.7483 115.877 18.249 115.877 16.4942C115.877 14.7617 115.355 13.2735 114.311 12.0296C113.289 10.7857 111.845 10.1638 109.979 10.1638C108.113 10.1638 106.67 10.7857 105.648 12.0296C104.626 13.2513 104.115 14.7395 104.115 16.4942C104.115 18.2712 104.615 19.7705 105.615 20.9922C106.636 22.2138 108.091 22.8246 109.979 22.8246ZM138.693 22.858C139.204 22.858 139.626 22.7802 139.959 22.6247V24.8237C139.337 25.0459 138.615 25.1569 137.794 25.1569C135.706 25.1569 134.528 24.2129 134.262 22.3249C132.685 24.2129 130.586 25.1569 127.965 25.1569C126.21 25.1569 124.811 24.7127 123.767 23.8242C122.723 22.9135 122.201 21.7474 122.201 20.3258C122.201 18.4822 122.923 17.1051 124.366 16.1944C125.81 15.2837 127.698 14.8283 130.031 14.8283C131.319 14.8283 132.707 14.9283 134.195 15.1282V13.6622C134.195 12.6404 133.818 11.8075 133.062 11.1633C132.307 10.497 131.152 10.1638 129.597 10.1638C127.509 10.1638 125.488 10.6302 123.533 11.5632L122.967 9.23089C124.877 8.29799 127.198 7.83153 129.931 7.83153C132.307 7.83153 134.106 8.37573 135.328 9.46412C136.572 10.5303 137.194 11.9852 137.194 13.8288V21.0588C137.194 21.6585 137.294 22.1139 137.494 22.4248C137.716 22.7136 138.116 22.858 138.693 22.858ZM128.898 22.8246C130.897 22.8246 132.663 21.9584 134.195 20.2258V17.3605C133.018 17.1606 131.696 17.0606 130.23 17.0606C126.921 17.0606 125.266 18.0269 125.266 19.9593C125.266 20.8478 125.588 21.5475 126.232 22.0583C126.899 22.5692 127.787 22.8246 128.898 22.8246ZM149.488 7.83153C151.953 7.83153 153.919 8.79776 155.385 10.7302V0.934702L158.384 0.501567V24.8237H155.618L155.385 22.2582C153.875 24.1907 151.909 25.1569 149.488 25.1569C147.111 25.1569 145.201 24.3684 143.757 22.7913C142.313 21.2143 141.591 19.1152 141.591 16.4942C141.591 13.8732 142.313 11.7742 143.757 10.1971C145.201 8.62006 147.111 7.83153 149.488 7.83153ZM150.254 22.8246C152.275 22.8246 153.975 21.9806 155.352 20.2925V12.6626C153.952 10.9967 152.253 10.1638 150.254 10.1638C148.477 10.1638 147.1 10.7524 146.123 11.9297C145.145 13.0847 144.657 14.6062 144.657 16.4942C144.657 18.3822 145.145 19.9149 146.123 21.0921C147.1 22.2471 148.477 22.8246 150.254 22.8246ZM175.649 2.16747V8.16471H181.546V10.497H175.649V20.1925C175.649 21.9473 176.681 22.8246 178.747 22.8246C179.636 22.8246 180.535 22.647 181.446 22.2916L181.879 24.4906C180.68 24.9348 179.369 25.1569 177.948 25.1569C176.126 25.1569 174.782 24.7238 173.916 23.8575C173.072 22.969 172.65 21.7696 172.65 20.2592V10.497H169.918V8.16471H172.65V2.73387L175.649 2.16747ZM193.129 7.83153C195.061 7.83153 196.55 8.36462 197.593 9.4308C198.637 10.497 199.159 11.9963 199.159 13.9287V24.8237H196.161V13.9954C196.161 12.7737 195.805 11.8297 195.095 11.1633C194.384 10.497 193.373 10.1638 192.063 10.1638C190.264 10.1638 188.698 10.9634 187.365 12.5627V24.8237H184.366V0.934702L187.365 0.501567V10.6969C188.764 8.78665 190.686 7.83153 193.129 7.83153ZM219.412 15.9945C219.412 16.6608 219.401 17.1273 219.379 17.3938H206.218C206.396 19.1263 207.007 20.4813 208.051 21.4586C209.117 22.4359 210.572 22.9246 212.416 22.9246C214.415 22.9246 216.314 22.4693 218.113 21.5586L218.679 23.6909C216.791 24.6682 214.637 25.1569 212.216 25.1569C209.261 25.1569 206.996 24.3906 205.419 22.858C203.864 21.3031 203.087 19.1819 203.087 16.4942C203.087 13.851 203.864 11.752 205.419 10.1971C206.974 8.62006 209.062 7.83153 211.683 7.83153C213.126 7.83153 214.359 8.05365 215.381 8.49789C216.425 8.94213 217.224 9.56407 217.78 10.3637C218.357 11.1633 218.768 12.0296 219.013 12.9625C219.279 13.8732 219.412 14.8839 219.412 15.9945ZM206.252 15.1948H216.414C216.392 13.6178 216.025 12.3628 215.314 11.4299C214.626 10.497 213.382 10.0305 211.583 10.0305C210.139 10.0305 208.939 10.4859 207.984 11.3966C207.029 12.285 206.452 13.5511 206.252 15.1948ZM247.205 22.858C247.715 22.858 248.137 22.7802 248.471 22.6247V24.8237C247.849 25.0459 247.127 25.1569 246.305 25.1569C244.217 25.1569 243.04 24.2129 242.773 22.3249C241.196 24.2129 239.097 25.1569 236.476 25.1569C234.721 25.1569 233.322 24.7127 232.278 23.8242C231.234 22.9135 230.712 21.7474 230.712 20.3258C230.712 18.4822 231.434 17.1051 232.878 16.1944C234.322 15.2837 236.21 14.8283 238.542 14.8283C239.83 14.8283 241.218 14.9283 242.707 15.1282V13.6622C242.707 12.6404 242.329 11.8075 241.574 11.1633C240.819 10.497 239.664 10.1638 238.109 10.1638C236.021 10.1638 234 10.6302 232.045 11.5632L231.478 9.23089C233.389 8.29799 235.71 7.83153 238.442 7.83153C240.819 7.83153 242.618 8.37573 243.839 9.46412C245.083 10.5303 245.705 11.9852 245.705 13.8288V21.0588C245.705 21.6585 245.805 22.1139 246.005 22.4248C246.227 22.7136 246.627 22.858 247.205 22.858ZM237.409 22.8246C239.408 22.8246 241.174 21.9584 242.707 20.2258V17.3605C241.529 17.1606 240.208 17.0606 238.742 17.0606C235.432 17.0606 233.777 18.0269 233.777 19.9593C233.777 20.8478 234.099 21.5475 234.744 22.0583C235.41 22.5692 236.298 22.8246 237.409 22.8246ZM259.898 25.1569C257.477 25.1569 255.511 24.1907 254.001 22.2582V32.0537L251.002 32.4869V8.16471H253.768L254.001 10.7302C255.467 8.79776 257.433 7.83153 259.898 7.83153C262.275 7.83153 264.185 8.62006 265.629 10.1971C267.073 11.7742 267.795 13.8732 267.795 16.4942C267.795 19.1152 267.073 21.2143 265.629 22.7913C264.185 24.3684 262.275 25.1569 259.898 25.1569ZM259.132 10.1638C257.133 10.1638 255.422 10.9967 254.001 12.6626V20.2925C255.422 21.9806 257.133 22.8246 259.132 22.8246C260.887 22.8246 262.253 22.2471 263.23 21.0921C264.23 19.9149 264.729 18.3822 264.729 16.4942C264.729 14.6062 264.23 13.0847 263.23 11.9297C262.253 10.7524 260.887 10.1638 259.132 10.1638ZM280.787 25.1569C278.366 25.1569 276.4 24.1907 274.89 22.2582V32.0537L271.891 32.4869V8.16471H274.657L274.89 10.7302C276.356 8.79776 278.322 7.83153 280.787 7.83153C283.164 7.83153 285.074 8.62006 286.518 10.1971C287.962 11.7742 288.683 13.8732 288.683 16.4942C288.683 19.1152 287.962 21.2143 286.518 22.7913C285.074 24.3684 283.164 25.1569 280.787 25.1569ZM280.021 10.1638C278.022 10.1638 276.311 10.9967 274.89 12.6626V20.2925C276.311 21.9806 278.022 22.8246 280.021 22.8246C281.775 22.8246 283.142 22.2471 284.119 21.0921C285.118 19.9149 285.618 18.3822 285.618 16.4942C285.618 14.6062 285.118 13.0847 284.119 11.9297C283.142 10.7524 281.775 10.1638 280.021 10.1638ZM309.547 7.83153C311.479 7.83153 312.967 8.36462 314.011 9.4308C315.055 10.497 315.577 11.9963 315.577 13.9287V24.8237H312.579V13.9954C312.579 12.7737 312.223 11.8297 311.513 11.1633C310.802 10.497 309.791 10.1638 308.481 10.1638C306.681 10.1638 305.115 10.9634 303.783 12.5627V24.8237H300.784V8.16471H303.55L303.783 10.6969C305.182 8.78665 307.103 7.83153 309.547 7.83153ZM328.467 7.83153C331.199 7.83153 333.365 8.66448 334.964 10.3304C336.585 11.9741 337.396 14.0287 337.396 16.4942C337.396 18.9598 336.585 21.0255 334.964 22.6914C333.365 24.3351 331.199 25.1569 328.467 25.1569C325.69 25.1569 323.503 24.3351 321.903 22.6914C320.304 21.0255 319.504 18.9598 319.504 16.4942C319.504 14.0287 320.304 11.9741 321.903 10.3304C323.503 8.66448 325.69 7.83153 328.467 7.83153ZM328.434 22.8246C330.299 22.8246 331.743 22.2138 332.765 20.9922C333.809 19.7483 334.331 18.249 334.331 16.4942C334.331 14.7617 333.809 13.2735 332.765 12.0296C331.743 10.7857 330.299 10.1638 328.434 10.1638C326.568 10.1638 325.124 10.7857 324.102 12.0296C323.081 13.2513 322.57 14.7395 322.57 16.4942C322.57 18.2712 323.069 19.7705 324.069 20.9922C325.091 22.2138 326.546 22.8246 328.434 22.8246ZM351.389 8.16471H354.154L358.752 21.3587L363.084 8.16471H366.082L360.285 25.1236H357.353L352.755 12.2962L348.357 25.1236H345.458L339.628 8.16471H342.66L346.991 21.3587L351.389 8.16471ZM30.4768 89.2846C31.2153 89.2846 31.7984 89.2069 32.2259 89.0514V94.8237C30.8655 95.2124 29.3689 95.4068 27.7363 95.4068C23.6938 95.4068 21.2838 93.8131 20.5063 90.6257C18.0186 93.8131 14.5785 95.4068 10.1861 95.4068C7.193 95.4068 4.80243 94.6099 3.01436 93.0162C1.2263 91.4225 0.332262 89.4012 0.332262 86.9523C0.332262 83.6483 1.59557 81.1994 4.12219 79.6057C6.64881 77.9731 10.1083 77.1568 14.5008 77.1568C15.8612 77.1568 17.7465 77.2735 20.1565 77.5067V75.5826C20.1565 72.6672 17.9603 71.2096 13.5679 71.2096C10.0695 71.2096 6.5905 71.9676 3.13098 73.4835L1.73162 67.5363C5.46324 65.9037 9.77793 65.0874 14.6757 65.0874C19.1458 65.0874 22.5276 66.0592 24.821 68.0027C27.1533 69.9074 28.3194 72.6284 28.3194 76.1656V86.7191C28.3194 87.6132 28.4555 88.274 28.7276 88.7015C29.0385 89.0903 29.6216 89.2846 30.4768 89.2846ZM13.3346 89.2846C15.8612 89.2846 18.1352 88.3128 20.1565 86.3693V82.521C18.6794 82.2489 16.9885 82.1129 15.0838 82.1129C10.8469 82.1129 8.72841 83.3179 8.72841 85.7279C8.72841 86.894 9.13655 87.7881 9.95284 88.41C10.808 88.9931 11.9353 89.2846 13.3346 89.2846ZM53.6126 65.0874C56.9167 65.0874 59.4433 66.0203 61.1925 67.8861C62.9417 69.713 63.8163 72.4146 63.8163 75.9907V94.8237H55.6533V76.1656C55.6533 72.8616 53.8847 71.2096 50.3474 71.2096C48.1318 71.2096 46.1688 72.123 44.4585 73.95V94.8237H36.2956V65.6705H43.7005L44.4002 69.8685C46.5381 66.6811 49.6089 65.0874 53.6126 65.0874ZM82.7472 65.0874C86.6732 65.0874 89.7634 66.7005 92.018 69.9268V53.2512L100.181 52.2599V94.8237H92.7759L92.018 90.5674C89.7246 93.7936 86.6343 95.4068 82.7472 95.4068C78.7435 95.4068 75.5755 94.0463 73.2432 91.3253C70.911 88.5655 69.7449 84.8727 69.7449 80.2471C69.7449 75.6214 70.911 71.9481 73.2432 69.2272C75.5755 66.4673 78.7435 65.0874 82.7472 65.0874ZM85.4876 89.2846C88.0142 89.2846 90.1716 88.2934 91.9596 86.311V74.1249C90.1327 72.1813 87.9754 71.2096 85.4876 71.2096C83.0776 71.2096 81.2312 72.0453 79.9485 73.7168C78.7046 75.3493 78.0827 77.5261 78.0827 80.2471C78.0827 82.9681 78.7046 85.1643 79.9485 86.8357C81.2312 88.4683 83.0776 89.2846 85.4876 89.2846ZM127.68 73.8334C127.68 74.7663 128.244 75.5243 129.371 76.1073C130.498 76.6515 131.859 77.118 133.453 77.5067C135.046 77.8565 136.64 78.3035 138.234 78.8477C139.866 79.3531 141.246 80.2082 142.373 81.4132C143.501 82.5794 144.064 84.0953 144.064 85.9611C144.064 89.0319 142.956 91.3836 140.741 93.0162C138.564 94.6099 135.338 95.4068 131.062 95.4068C126.125 95.4068 122.083 94.5711 118.934 92.8996L120.334 87.1856C123.404 88.7015 126.903 89.4595 130.829 89.4595C134.094 89.4595 135.726 88.3906 135.726 86.2527C135.726 85.4364 135.318 84.7561 134.502 84.2119C133.686 83.6677 132.675 83.279 131.47 83.0458C130.265 82.7737 128.943 82.4239 127.505 81.9963C126.106 81.5687 124.804 81.0828 123.599 80.5386C122.394 79.9944 121.383 79.1587 120.567 78.0314C119.75 76.8653 119.342 75.466 119.342 73.8334C119.342 70.918 120.47 68.7413 122.724 67.303C124.979 65.8259 128.03 65.0874 131.878 65.0874C136.737 65.0874 140.799 65.9037 144.064 67.5363L142.665 73.2503C139.594 71.7732 136.057 71.0347 132.053 71.0347C129.138 71.0347 127.68 71.9676 127.68 73.8334ZM160.267 55.1753V65.6705H168.954V71.7926H160.267V85.6696C160.267 88.0796 161.647 89.2846 164.406 89.2846C165.689 89.2846 167.069 89.0319 168.546 88.5266L169.537 94.2407C167.361 95.0181 164.873 95.4068 162.074 95.4068C155.427 95.4068 152.104 92.2388 152.104 85.9028V71.7926H147.556V65.6705H152.104V56.5163L160.267 55.1753ZM202.606 89.2846C203.345 89.2846 203.928 89.2069 204.356 89.0514V94.8237C202.995 95.2124 201.499 95.4068 199.866 95.4068C195.823 95.4068 193.413 93.8131 192.636 90.6257C190.148 93.8131 186.708 95.4068 182.316 95.4068C179.323 95.4068 176.932 94.6099 175.144 93.0162C173.356 91.4225 172.462 89.4012 172.462 86.9523C172.462 83.6483 173.725 81.1994 176.252 79.6057C178.778 77.9731 182.238 77.1568 186.63 77.1568C187.991 77.1568 189.876 77.2735 192.286 77.5067V75.5826C192.286 72.6672 190.09 71.2096 185.697 71.2096C182.199 71.2096 178.72 71.9676 175.261 73.4835L173.861 67.5363C177.593 65.9037 181.908 65.0874 186.805 65.0874C191.275 65.0874 194.657 66.0592 196.951 68.0027C199.283 69.9074 200.449 72.6284 200.449 76.1656V86.7191C200.449 87.6132 200.585 88.274 200.857 88.7015C201.168 89.0903 201.751 89.2846 202.606 89.2846ZM185.464 89.2846C187.991 89.2846 190.265 88.3128 192.286 86.3693V82.521C190.809 82.2489 189.118 82.1129 187.213 82.1129C182.976 82.1129 180.858 83.3179 180.858 85.7279C180.858 86.894 181.266 87.7881 182.082 88.41C182.938 88.9931 184.065 89.2846 185.464 89.2846ZM227.317 73.2503C224.984 73.2503 222.866 73.5807 220.961 74.2415C219.056 74.9023 217.599 75.7575 216.588 76.807V94.8237H208.425V65.6705H215.83L216.471 72.2591C217.521 70.0434 218.94 68.2942 220.728 67.0115C222.555 65.7288 224.498 65.0874 226.559 65.0874L227.317 73.2503ZM242.431 55.1753V65.6705H251.119V71.7926H242.431V85.6696C242.431 88.0796 243.811 89.2846 246.571 89.2846C247.854 89.2846 249.234 89.0319 250.711 88.5266L251.702 94.2407C249.525 95.0181 247.037 95.4068 244.239 95.4068C237.592 95.4068 234.268 92.2388 234.268 85.9028V71.7926H229.72V65.6705H234.268V56.5163L242.431 55.1753ZM290.877 65.6705H299.331L285.746 96.3397C283.997 100.421 282.092 103.414 280.032 105.319C278.011 107.262 275.212 108.234 271.636 108.234C269.653 108.234 267.963 108.001 266.563 107.535L267.496 101.646C268.934 101.957 270.237 102.112 271.403 102.112C272.841 102.112 274.046 101.743 275.018 101.004C276.028 100.266 276.981 99.0218 277.875 97.2726L278.982 94.882L266.155 65.6705H274.609L282.947 85.2615L290.877 65.6705ZM319.008 65.0874C324.061 65.0874 328.007 66.545 330.844 69.4604C333.682 72.3757 335.101 75.9713 335.101 80.2471C335.101 84.5229 333.682 88.1185 330.844 91.0338C328.007 93.9491 324.061 95.4068 319.008 95.4068C313.916 95.4068 309.951 93.9686 307.114 91.0921C304.276 88.1768 302.857 84.5618 302.857 80.2471C302.857 75.9324 304.276 72.3368 307.114 69.4604C309.951 66.545 313.916 65.0874 319.008 65.0874ZM318.95 89.2846C321.515 89.2846 323.439 88.41 324.722 86.6608C326.044 84.9116 326.705 82.7737 326.705 80.2471C326.705 77.7205 326.044 75.5826 324.722 73.8334C323.439 72.0842 321.515 71.2096 318.95 71.2096C316.345 71.2096 314.402 72.0842 313.119 73.8334C311.836 75.5826 311.195 77.7205 311.195 80.2471C311.195 82.7737 311.836 84.9116 313.119 86.6608C314.402 88.41 316.345 89.2846 318.95 89.2846ZM360.331 65.6705H368.494V94.8237H361.147L360.389 90.6257C358.251 93.8131 355.2 95.4068 351.235 95.4068C347.931 95.4068 345.405 94.4933 343.655 92.6664C341.906 90.8006 341.032 88.0796 341.032 84.5035V66.0786L349.195 65.0874V84.3285C349.195 85.9223 349.642 87.1467 350.536 88.0019C351.468 88.857 352.79 89.2846 354.5 89.2846C356.677 89.2846 358.621 88.3711 360.331 86.5442V65.6705ZM395.005 73.2503C392.673 73.2503 390.554 73.5807 388.649 74.2415C386.745 74.9023 385.287 75.7575 384.276 76.807V94.8237H376.113V65.6705H383.518L384.16 72.2591C385.209 70.0434 386.628 68.2942 388.416 67.0115C390.243 65.7288 392.187 65.0874 394.247 65.0874L395.005 73.2503ZM5.988 131.531L0.215649 126.108L5.988 120.686L11.5271 126.108L5.988 131.531ZM9.95284 164.824H1.78993V135.67H9.95284V164.824ZM34.8224 135.087C38.1265 135.087 40.6531 136.02 42.4023 137.886C44.1515 139.713 45.0261 142.415 45.0261 145.991V164.824H36.8631V146.166C36.8631 142.862 35.0945 141.21 31.5572 141.21C29.3416 141.21 27.3786 142.123 25.6683 143.95V164.824H17.5054V135.67H24.9103L25.61 139.869C27.7479 136.681 30.8187 135.087 34.8224 135.087ZM66.231 154.853L73.6942 135.67H82.4985L69.6128 165.232H62.441L49.5553 135.67H58.4179L66.231 154.853ZM115.766 149.489C115.766 149.917 115.708 150.947 115.591 152.579H94.6008C94.9895 154.834 95.9224 156.583 97.3995 157.827C98.9154 159.032 100.917 159.634 103.405 159.634C106.903 159.634 110.149 158.915 113.142 157.477L114.483 162.9C111.335 164.571 107.37 165.407 102.589 165.407C97.1857 165.407 93.0653 164.066 90.2278 161.384C87.429 158.663 86.0297 154.95 86.0297 150.247C86.0297 145.66 87.429 141.987 90.2278 139.227C93.0653 136.467 96.8747 135.087 101.656 135.087C106.515 135.087 110.071 136.448 112.326 139.169C114.619 141.851 115.766 145.291 115.766 149.489ZM94.6008 147.273H107.603C107.525 142.959 105.485 140.801 101.481 140.801C97.6327 140.801 95.3393 142.959 94.6008 147.273ZM129.047 143.833C129.047 144.766 129.61 145.524 130.738 146.107C131.865 146.652 133.225 147.118 134.819 147.507C136.413 147.857 138.006 148.304 139.6 148.848C141.233 149.353 142.613 150.208 143.74 151.413C144.867 152.579 145.431 154.095 145.431 155.961C145.431 159.032 144.323 161.384 142.107 163.016C139.931 164.61 136.704 165.407 132.428 165.407C127.492 165.407 123.449 164.571 120.301 162.9L121.7 157.186C124.771 158.702 128.269 159.46 132.195 159.46C135.46 159.46 137.093 158.391 137.093 156.253C137.093 155.436 136.685 154.756 135.869 154.212C135.052 153.668 134.042 153.279 132.837 153.046C131.632 152.774 130.31 152.424 128.872 151.996C127.472 151.569 126.17 151.083 124.965 150.539C123.76 149.994 122.75 149.159 121.933 148.031C121.117 146.865 120.709 145.466 120.709 143.833C120.709 140.918 121.836 138.741 124.091 137.303C126.345 135.826 129.397 135.087 133.245 135.087C138.104 135.087 142.166 135.904 145.431 137.536L144.032 143.25C140.961 141.773 137.423 141.035 133.42 141.035C130.504 141.035 129.047 141.968 129.047 143.833ZM161.633 125.175V135.67H170.321V141.793H161.633V155.67C161.633 158.08 163.013 159.285 165.773 159.285C167.056 159.285 168.436 159.032 169.913 158.527L170.904 164.241C168.727 165.018 166.239 165.407 163.441 165.407C156.794 165.407 153.47 162.239 153.47 155.903V141.793H148.922V135.67H153.47V126.516L161.633 125.175ZM211.728 135.087C215.032 135.087 217.558 136.02 219.308 137.886C221.057 139.713 221.931 142.415 221.931 145.991V164.824H213.768V146.166C213.768 142.862 212 141.21 208.463 141.21C206.247 141.21 204.284 142.123 202.574 143.95C202.651 144.805 202.69 145.485 202.69 145.991V164.824H194.527V146.166C194.527 142.862 192.759 141.21 189.221 141.21C187.083 141.21 185.159 142.123 183.449 143.95V164.824H175.286V135.67H182.691L183.391 139.869C185.529 136.681 188.561 135.087 192.487 135.087C197.307 135.087 200.436 137.012 201.874 140.86C204.128 137.012 207.413 135.087 211.728 135.087ZM257.604 149.489C257.604 149.917 257.545 150.947 257.429 152.579H236.438C236.827 154.834 237.76 156.583 239.237 157.827C240.753 159.032 242.755 159.634 245.243 159.634C248.741 159.634 251.987 158.915 254.98 157.477L256.321 162.9C253.172 164.571 249.207 165.407 244.426 165.407C239.023 165.407 234.903 164.066 232.065 161.384C229.267 158.663 227.867 154.95 227.867 150.247C227.867 145.66 229.267 141.987 232.065 139.227C234.903 136.467 238.712 135.087 243.493 135.087C248.352 135.087 251.909 136.448 254.163 139.169C256.457 141.851 257.604 145.291 257.604 149.489ZM236.438 147.273H249.441C249.363 142.959 247.322 140.801 243.318 140.801C239.47 140.801 237.177 142.959 236.438 147.273ZM281.088 135.087C284.392 135.087 286.919 136.02 288.668 137.886C290.417 139.713 291.292 142.415 291.292 145.991V164.824H283.129V146.166C283.129 142.862 281.36 141.21 277.823 141.21C275.607 141.21 273.644 142.123 271.934 143.95V164.824H263.771V135.67H271.176L271.875 139.869C274.013 136.681 277.084 135.087 281.088 135.087ZM308.823 125.175V135.67H317.511V141.793H308.823V155.67C308.823 158.08 310.203 159.285 312.963 159.285C314.246 159.285 315.626 159.032 317.103 158.527L318.094 164.241C315.917 165.018 313.429 165.407 310.631 165.407C303.984 165.407 300.66 162.239 300.66 155.903V141.793H296.112V135.67H300.66V126.516L308.823 125.175ZM339.486 131.531L333.713 126.108L339.486 120.686L345.025 126.108L339.486 131.531ZM343.45 168.38C343.45 171.684 342.595 174.153 340.885 175.785C339.175 177.418 336.784 178.234 333.713 178.234C331.459 178.234 329.612 178.04 328.174 177.651L329.165 171.762C330.02 171.995 330.973 172.112 332.022 172.112C334.199 172.112 335.287 170.946 335.287 168.614V135.67H343.45V168.38ZM365.813 135.087C370.866 135.087 374.811 136.545 377.649 139.46C380.487 142.376 381.905 145.971 381.905 150.247C381.905 154.523 380.487 158.118 377.649 161.034C374.811 163.949 370.866 165.407 365.813 165.407C360.721 165.407 356.756 163.969 353.918 161.092C351.081 158.177 349.662 154.562 349.662 150.247C349.662 145.932 351.081 142.337 353.918 139.46C356.756 136.545 360.721 135.087 365.813 135.087ZM365.754 159.285C368.32 159.285 370.244 158.41 371.527 156.661C372.848 154.912 373.509 152.774 373.509 150.247C373.509 147.72 372.848 145.583 371.527 143.833C370.244 142.084 368.32 141.21 365.754 141.21C363.15 141.21 361.207 142.084 359.924 143.833C358.641 145.583 358 147.72 358 150.247C358 152.774 358.641 154.912 359.924 156.661C361.207 158.41 363.15 159.285 365.754 159.285ZM407.136 135.67H415.299V164.824H407.952L407.194 160.626C405.056 163.813 402.005 165.407 398.04 165.407C394.736 165.407 392.209 164.493 390.46 162.666C388.711 160.801 387.836 158.08 387.836 154.503V136.079L395.999 135.087V154.329C395.999 155.922 396.446 157.147 397.34 158.002C398.273 158.857 399.595 159.285 401.305 159.285C403.482 159.285 405.425 158.371 407.136 156.544V135.67ZM441.809 143.25C439.477 143.25 437.359 143.581 435.454 144.242C433.549 144.902 432.092 145.757 431.081 146.807V164.824H422.918V135.67H430.323L430.964 142.259C432.014 140.043 433.433 138.294 435.221 137.012C437.048 135.729 438.991 135.087 441.051 135.087L441.809 143.25ZM463.979 135.087C467.283 135.087 469.81 136.02 471.559 137.886C473.308 139.713 474.183 142.415 474.183 145.991V164.824H466.02V146.166C466.02 142.862 464.251 141.21 460.714 141.21C458.498 141.21 456.535 142.123 454.825 143.95V164.824H446.662V135.67H454.067L454.767 139.869C456.905 136.681 459.975 135.087 463.979 135.087ZM509.848 149.489C509.848 149.917 509.789 150.947 509.673 152.579H488.682C489.071 154.834 490.004 156.583 491.481 157.827C492.997 159.032 494.999 159.634 497.487 159.634C500.985 159.634 504.231 158.915 507.224 157.477L508.565 162.9C505.416 164.571 501.452 165.407 496.67 165.407C491.267 165.407 487.147 164.066 484.309 161.384C481.511 158.663 480.111 154.95 480.111 150.247C480.111 145.66 481.511 141.987 484.309 139.227C487.147 136.467 490.956 135.087 495.738 135.087C500.596 135.087 504.153 136.448 506.408 139.169C508.701 141.851 509.848 145.291 509.848 149.489ZM488.682 147.273H501.685C501.607 142.959 499.566 140.801 495.563 140.801C491.714 140.801 489.421 142.959 488.682 147.273ZM537.997 135.67H546.451L532.866 166.34C531.116 170.421 529.212 173.414 527.152 175.319C525.13 177.262 522.332 178.234 518.755 178.234C516.773 178.234 515.082 178.001 513.683 177.535L514.616 171.646C516.054 171.957 517.356 172.112 518.522 172.112C519.96 172.112 521.165 171.743 522.137 171.004C523.148 170.266 524.1 169.022 524.994 167.273L526.102 164.882L513.275 135.67H521.729L530.067 155.261L537.997 135.67Z" fill="white"/>
</svg>
