<svg width="339" height="130" viewBox="0 0 339 130" fill="none" xmlns="http://www.w3.org/2000/svg">
<rect x="150.68" y="72.6895" width="187.414" height="56.2242" rx="10.4119" fill="url(#paint0_linear_33_499)" fill-opacity="0.9"/>
<rect x="150.94" y="72.9498" width="186.893" height="55.7036" rx="10.1516" stroke="url(#paint1_linear_33_499)" stroke-opacity="0.9" stroke-width="0.520594"/>
<path d="M169.65 84.6631C169.403 84.9103 169.032 85.652 169.032 86.3936V115.071C169.032 115.813 169.279 116.555 169.65 116.802L169.774 116.925L185.843 100.856V100.609L169.65 84.6631Z" fill="url(#paint2_linear_33_499)"/>
<path d="M191.282 106.295L185.967 100.98V100.733L191.282 95.4175H191.406L197.833 99.0022C199.564 99.9911 199.564 101.722 197.833 102.71L191.282 106.295Z" fill="url(#paint3_linear_33_499)"/>
<path d="M191.406 106.171L185.843 100.609L169.65 116.802C170.268 117.42 171.257 117.543 172.37 116.925L191.406 106.171Z" fill="url(#paint4_linear_33_499)"/>
<path d="M191.406 95.2936L172.37 84.4159C171.381 83.7979 170.268 83.7979 169.65 84.5395L185.843 100.732L191.406 95.2936Z" fill="url(#paint5_linear_33_499)"/>
<path opacity="0.2" d="M191.282 106.171L172.37 116.925C171.381 117.544 170.392 117.544 169.898 116.925L169.774 117.049L169.898 117.173C170.516 117.791 171.381 117.791 172.37 117.173L191.282 106.171Z" fill="#2B2B2B"/>
<path opacity="0.12" d="M169.65 116.802C169.403 116.308 169.032 115.813 169.032 115.072V115.195C169.032 115.937 169.279 116.679 169.65 116.926V116.802ZM197.833 102.463L191.282 106.172L191.406 106.295L197.833 102.711C198.699 102.216 199.193 101.475 199.193 100.733C199.07 101.475 198.575 101.969 197.833 102.463Z" fill="#2B2B2B"/>
<path opacity="0.25" d="M172.37 84.7868L197.71 99.2492C198.575 99.7436 199.07 100.238 199.07 100.856C199.07 100.114 198.575 99.4964 197.71 98.8783L172.37 84.4159C170.639 83.4271 169.156 84.2923 169.156 86.3937V86.5173C169.032 84.4159 170.639 83.6743 172.37 84.7868Z" fill="white"/>
<path d="M217.516 87.1975C217.516 88.1863 217.269 89.1752 216.527 89.7933C215.786 90.5349 214.92 91.0294 213.684 91.0294C212.448 91.0294 211.583 90.5349 210.841 89.7933C210.1 89.0516 209.605 88.0627 209.605 86.9502C209.605 85.7141 210.1 84.8489 210.841 84.1072C211.583 83.3655 212.572 82.8711 213.684 82.8711C214.302 82.8711 214.673 82.9947 215.291 83.1183C215.786 83.2419 216.157 83.6127 216.527 83.9836L215.786 84.7252C215.291 84.1072 214.55 83.86 213.684 83.86C212.819 83.86 212.201 84.1072 211.583 84.7252C210.965 85.3433 210.718 86.085 210.718 86.9502C210.718 87.8155 210.965 88.5572 211.583 89.1752C212.201 89.7933 212.943 90.0405 213.684 90.0405C214.55 90.0405 215.291 89.7933 215.909 89.1752C216.404 88.6808 216.527 88.3099 216.527 87.5683H213.684V86.5794H217.393C217.516 86.9502 217.516 87.0738 217.516 87.1975ZM223.45 84.1072H219.865V86.703H223.202V87.4447H219.865V89.9169H223.45V90.7821H218.876V82.9947H223.45V84.1072ZM227.776 90.7821H226.787V84.1072H224.562V83.1183H229.877V83.9836H227.652V90.9058H227.776V90.7821ZM233.709 90.7821V82.9947H234.698V90.7821H233.709ZM239.272 90.7821H238.283V84.1072H236.181V83.1183H241.497V83.9836H239.272V90.7821ZM251.633 89.9169C250.891 90.6585 249.902 91.153 248.79 91.153C247.554 91.153 246.688 90.6585 245.947 89.9169C245.205 89.1752 244.711 88.1863 244.711 87.0738C244.711 86.085 245.205 84.9725 245.947 84.2308C246.565 83.3655 247.554 82.8711 248.666 82.8711C249.902 82.8711 250.767 83.3655 251.509 84.1072C252.251 84.8489 252.745 85.8377 252.745 86.9502C252.745 88.0627 252.374 88.928 251.633 89.9169ZM246.565 89.1752C247.183 89.7933 247.924 90.0405 248.666 90.0405C249.408 90.0405 250.149 89.7933 250.767 89.1752C251.385 88.5572 251.633 87.8155 251.633 86.9502C251.633 86.085 251.385 85.3433 250.767 84.7252C250.149 84.1072 249.408 83.86 248.666 83.86C247.924 83.86 247.183 84.1072 246.565 84.7252C245.947 85.3433 245.699 86.085 245.699 86.9502C245.699 87.8155 245.947 88.5572 246.565 89.1752ZM254.229 90.7821V82.9947H255.465L259.173 89.1752V82.9947H260.162V90.7821H259.173L255.094 84.3544V90.7821H254.229Z" fill="white" stroke="white" stroke-width="0.251239" stroke-miterlimit="10"/>
<path d="M244.958 102.539C241.868 102.539 239.395 104.888 239.395 108.102C239.395 111.192 241.868 113.664 244.958 113.664C248.048 113.664 250.52 111.316 250.52 108.102C250.52 104.764 247.924 102.539 244.958 102.539ZM244.958 111.316C243.351 111.316 241.868 109.956 241.868 107.978C241.868 106 243.351 104.641 244.958 104.641C246.565 104.641 248.048 106 248.048 107.978C248.172 109.956 246.565 111.316 244.958 111.316ZM232.968 102.539C229.877 102.539 227.405 104.888 227.405 108.102C227.405 111.192 229.877 113.664 232.968 113.664C236.058 113.664 238.53 111.316 238.53 108.102C238.406 104.764 235.934 102.539 232.968 102.539ZM232.968 111.316C231.361 111.316 229.877 109.956 229.877 107.978C229.877 106 231.361 104.641 232.968 104.641C234.575 104.641 236.058 106 236.058 107.978C236.058 109.956 234.575 111.316 232.968 111.316ZM218.505 104.146V106.495H224.191C224.068 107.855 223.573 108.72 222.832 109.462C222.09 110.203 220.73 111.192 218.505 111.192C215.044 111.192 212.448 108.349 212.448 104.888C212.448 101.427 215.168 98.5839 218.505 98.5839C220.483 98.5839 221.843 99.3255 222.708 100.191L224.315 98.5839C222.955 97.4714 220.977 96.3589 218.258 96.3589C213.437 96.3589 209.605 100.191 209.605 105.012C209.605 109.832 213.684 113.664 218.258 113.664C220.73 113.664 222.708 112.799 224.191 111.316C225.675 109.832 226.293 107.607 226.293 105.753C226.293 105.135 226.293 104.764 226.169 104.27L218.505 104.146ZM277.344 106C276.849 104.764 275.613 102.539 272.77 102.539C269.927 102.539 267.578 104.764 267.578 108.102C267.578 111.192 269.927 113.664 273.141 113.664C275.613 113.664 277.22 112.181 277.715 111.316L275.737 110.08C275.119 110.945 274.253 111.563 273.017 111.563C271.781 111.563 270.916 110.945 270.298 109.956L277.715 106.866L277.344 106ZM269.927 107.855C269.927 105.753 271.534 104.517 272.77 104.517C273.635 104.517 274.501 105.012 274.871 105.753L269.927 107.855ZM263.747 113.293H266.095V96.9769H263.747V113.293ZM259.915 103.776C259.297 103.157 258.308 102.539 256.948 102.539C254.105 102.539 251.633 104.888 251.633 108.102C251.633 111.192 254.105 113.664 256.948 113.664C258.308 113.664 259.297 113.046 259.915 112.428H260.038V113.17C260.038 115.271 258.802 116.507 257.072 116.507C255.588 116.507 254.723 115.518 254.229 114.53L252.127 115.395C252.745 116.878 254.352 118.732 257.072 118.732C259.915 118.732 262.263 117.125 262.263 112.923V102.91H260.038L259.915 103.776ZM257.072 111.316C255.465 111.316 253.981 109.956 253.981 107.978C253.981 106 255.341 104.517 257.072 104.517C258.679 104.517 260.038 106 260.038 107.978C260.038 109.956 258.679 111.316 257.072 111.316ZM288.839 96.9769H283.03V113.293H285.378V106.989H288.839C291.559 106.989 294.155 105.012 294.155 101.921C294.155 98.8311 291.435 96.9769 288.839 96.9769ZM288.839 104.764H285.378V99.2019H288.839C290.57 99.2019 291.682 100.685 291.682 102.045C291.559 103.281 290.57 104.764 288.839 104.764ZM303.796 102.539C302.066 102.539 300.212 103.281 299.47 105.135L301.571 106C302.066 105.135 302.931 104.764 303.796 104.764C305.032 104.764 306.268 105.506 306.268 106.866V106.989C305.774 106.742 304.909 106.371 303.796 106.371C301.448 106.371 299.223 107.731 299.223 110.08C299.223 112.305 301.2 113.664 303.302 113.664C304.909 113.664 305.774 112.923 306.392 112.057H306.516V113.293H308.864V106.989C308.741 104.023 306.516 102.539 303.796 102.539ZM303.549 111.316C302.807 111.316 301.571 110.821 301.571 109.956C301.571 108.72 302.931 108.225 304.043 108.225C305.032 108.225 305.65 108.473 306.268 108.844C306.268 110.327 304.909 111.316 303.549 111.316ZM317.27 102.787L314.427 109.832H314.303L311.46 102.787H308.741L313.067 112.675L310.595 118.238H313.067L319.742 102.91H317.27V102.787ZM295.514 113.293H297.863V96.9769H295.514V113.293Z" fill="white"/>
<rect x="150.68" y="3.23486" width="187.414" height="56.2242" rx="10.4119" fill="url(#paint6_linear_33_499)" fill-opacity="0.9"/>
<rect x="150.94" y="3.49516" width="186.893" height="55.7036" rx="10.1516" stroke="url(#paint7_linear_33_499)" stroke-opacity="0.9" stroke-width="0.520594"/>
<path d="M198.109 32.15C198.109 28.5653 201.076 26.7112 201.199 26.7112C199.592 24.3626 196.873 23.8681 196.008 23.8681C193.783 23.6209 191.681 25.2279 190.692 25.2279C189.456 25.2279 187.849 23.8681 185.872 23.9918C183.523 23.9918 181.298 25.3515 180.062 27.5765C177.59 31.9028 179.444 38.3305 181.792 41.9152C183.029 43.7694 184.512 45.4999 186.242 45.4999C187.973 45.3763 188.715 44.2638 190.816 44.2638C192.917 44.2638 193.659 45.4999 195.39 45.2527C197.367 45.2527 198.48 43.3986 199.716 41.7916C201.076 39.8139 201.694 37.9597 201.694 37.7125C201.817 37.9597 198.109 36.4764 198.109 32.15Z" fill="white"/>
<path d="M194.524 21.6433C195.513 20.4072 196.131 18.8003 196.008 17.1934C194.648 17.1934 192.917 18.1822 191.805 19.2947C190.94 20.2836 190.198 22.1378 190.322 23.6211C191.929 23.7447 193.659 22.8794 194.524 21.6433Z" fill="white"/>
<path d="M222.368 39.5051H216.311L214.828 43.8315H212.109L218.042 27.6385H220.761L226.571 43.8315H223.852L222.368 39.5051ZM216.806 37.4037H221.75L219.402 30.2343L216.806 37.4037ZM239.179 38.0218C239.179 41.7301 237.202 43.9551 234.235 43.9551C232.628 43.9551 231.268 43.2134 230.527 41.8537V47.6634H228.178V31.9649H230.527V33.9426C231.268 32.7065 232.628 31.8413 234.235 31.8413C237.078 31.8413 239.179 34.1899 239.179 38.0218ZM236.707 38.0218C236.707 35.6732 235.471 33.9426 233.617 33.9426C231.886 33.9426 230.527 35.5496 230.527 38.0218C230.527 40.494 231.763 42.1009 233.617 42.1009C235.471 41.8537 236.707 40.3704 236.707 38.0218ZM252.158 38.0218C252.158 41.7301 250.181 43.9551 247.214 43.9551C245.607 43.9551 244.247 43.2134 243.506 41.8537V47.6634H241.157V31.9649H243.382V33.9426C244.124 32.7065 245.483 31.8413 247.09 31.8413C250.057 31.8413 252.158 34.1899 252.158 38.0218ZM249.563 38.0218C249.563 35.6732 248.326 33.9426 246.472 33.9426C244.742 33.9426 243.382 35.5496 243.382 38.0218C243.382 40.494 244.618 42.1009 246.472 42.1009C248.45 41.8537 249.563 40.3704 249.563 38.0218ZM260.564 39.2579C260.687 40.8648 262.294 41.9773 264.396 41.9773C266.497 41.9773 267.98 40.9884 267.98 39.3815C267.98 38.1454 267.115 37.4037 265.014 36.7857L262.912 36.2912C259.946 35.5496 258.586 34.1899 258.586 31.9649C258.586 29.1218 260.935 27.1441 264.396 27.1441C267.857 27.1441 270.205 29.1218 270.205 31.9649H267.857C267.733 30.3579 266.374 29.3691 264.396 29.3691C262.418 29.3691 261.182 30.3579 261.182 31.7177C261.182 32.9538 262.047 33.5718 264.149 34.0663L265.879 34.5607C269.093 35.3024 270.453 36.6621 270.453 39.0107C270.453 41.9773 268.104 43.9551 264.149 43.9551C260.564 43.9551 258.215 42.1009 258.092 39.1343C258.215 39.5051 260.564 39.2579 260.564 39.2579ZM275.768 29.2455V32.0885H277.993V33.9426H275.768V40.494C275.768 41.4829 276.262 41.9773 277.251 41.9773H277.993V43.9551C277.746 43.9551 277.251 44.0787 276.633 44.0787C274.285 44.0787 273.419 43.2134 273.419 40.9884V33.9426H271.689V31.9649H273.296V29.1218L275.768 29.2455ZM279.229 38.0218C279.229 34.3135 281.454 32.0885 284.791 32.0885C288.253 32.0885 290.354 34.4371 290.354 38.0218C290.354 41.7301 288.129 43.9551 284.791 43.9551C281.454 43.9551 279.229 41.7301 279.229 38.0218ZM288.005 38.0218C288.005 35.426 286.769 33.9426 284.915 33.9426C282.937 33.9426 281.825 35.426 281.825 38.0218C281.825 40.6176 283.061 42.1009 284.915 42.1009C286.769 41.9773 288.005 40.494 288.005 38.0218ZM292.455 31.9649H294.68V33.9426C294.928 32.5829 296.164 31.8413 297.523 31.8413C297.771 31.8413 298.141 31.8413 298.389 31.9649V34.1899C298.265 34.0663 297.771 34.0663 297.4 34.0663C295.916 34.0663 294.928 35.0551 294.928 36.7857V43.8315H292.579C292.455 43.8315 292.455 31.9649 292.455 31.9649ZM309.637 40.3704C309.39 42.4718 307.289 43.9551 304.569 43.9551C301.108 43.9551 299.007 41.7301 299.007 38.0218C299.007 34.3135 301.108 31.8413 304.569 31.8413C307.783 31.8413 309.884 34.0663 309.884 37.651V38.5162H301.355V38.7634C301.355 40.8648 302.591 42.1009 304.446 42.1009C305.805 42.1009 306.794 41.4829 307.165 40.494C307.165 40.3704 309.637 40.3704 309.637 40.3704ZM301.355 36.7857H307.289C307.289 34.9315 306.052 33.819 304.446 33.819C302.715 33.819 301.602 34.9315 301.355 36.7857ZM216.559 15.4011C218.784 15.4011 220.267 16.7608 220.267 19.233C220.267 21.7052 218.907 23.0649 216.559 23.0649H213.716V15.2775H216.559V15.4011ZM215.075 22.0761H216.559C218.166 22.0761 219.031 21.0872 219.031 19.233C219.031 17.3789 218.166 16.39 216.559 16.39H215.075V22.0761ZM221.627 20.3455C221.627 18.3678 222.616 17.3789 224.47 17.3789C226.077 17.3789 227.313 18.615 227.313 20.3455C227.313 22.3233 226.324 23.3122 224.47 23.3122C222.616 23.3122 221.627 22.0761 221.627 20.3455ZM225.953 20.3455C225.953 18.9858 225.335 18.2441 224.346 18.2441C223.357 18.2441 222.739 18.9858 222.739 20.3455C222.739 21.7052 223.357 22.4469 224.346 22.4469C225.335 22.1997 225.953 21.458 225.953 20.3455ZM234.358 23.1886H233.122L231.886 18.8622H231.763L230.527 23.1886H229.29L227.684 17.3789H228.92L229.909 21.8288H230.032L231.268 17.3789H232.257L233.493 21.8288H233.617L234.606 17.3789H235.842C236.089 17.3789 234.358 23.1886 234.358 23.1886ZM237.449 17.3789H238.438V18.2441H238.561C238.808 17.6261 239.427 17.2553 240.292 17.2553C241.651 17.2553 242.393 17.9969 242.393 19.4802V23.1886H241.157V19.6039C241.157 18.7386 240.663 18.2441 239.921 18.2441C239.056 18.2441 238.561 18.8622 238.561 19.7275V23.1886H237.202C237.449 23.1886 237.449 17.3789 237.449 17.3789ZM244.247 15.0303H245.483V23.3122H244.247V15.0303ZM246.967 20.3455C246.967 18.3678 247.956 17.3789 249.81 17.3789C251.417 17.3789 252.653 18.615 252.653 20.3455C252.653 22.3233 251.664 23.3122 249.81 23.3122C248.079 23.3122 246.967 22.0761 246.967 20.3455ZM251.417 20.3455C251.417 18.9858 250.799 18.2441 249.81 18.2441C248.821 18.2441 248.203 18.9858 248.203 20.3455C248.203 21.7052 248.821 22.4469 249.81 22.4469C250.799 22.1997 251.417 21.458 251.417 20.3455ZM253.765 21.458C253.765 20.4691 254.507 19.8511 255.99 19.6039L257.597 19.4802V18.9858C257.597 18.3678 257.103 18.1205 256.361 18.1205C255.743 18.1205 255.372 18.3678 255.125 18.7386H253.889C254.013 17.7497 254.878 17.1316 256.238 17.1316C257.721 17.1316 258.462 17.8733 258.462 19.1094V23.1886H257.474V22.3233H257.35C257.103 22.9413 256.361 23.1886 255.619 23.1886C254.507 23.3122 253.765 22.5705 253.765 21.458ZM257.474 21.0872V20.5927L255.99 20.7163C255.249 20.7163 254.754 20.9636 254.754 21.5816C254.754 22.1997 255.249 22.4469 255.743 22.4469C256.856 22.1997 257.474 21.8288 257.474 21.0872ZM260.193 20.3455C260.193 18.4914 261.058 17.3789 262.542 17.3789C263.283 17.3789 264.025 17.8733 264.272 18.3678H264.396V15.0303H265.632V23.3122H264.643V22.4469H264.519C264.272 23.0649 263.531 23.4358 262.789 23.4358C261.058 23.3122 260.193 22.0761 260.193 20.3455ZM261.306 20.3455C261.306 21.5816 261.924 22.3233 262.912 22.3233C263.901 22.3233 264.519 21.5816 264.519 20.3455C264.519 19.1094 263.901 18.3678 262.912 18.3678C261.924 18.2441 261.306 18.9858 261.306 20.3455ZM270.453 20.3455C270.453 18.3678 271.442 17.3789 273.296 17.3789C274.903 17.3789 276.139 18.615 276.139 20.3455C276.139 22.3233 275.15 23.3122 273.296 23.3122C271.442 23.3122 270.453 22.0761 270.453 20.3455ZM274.779 20.3455C274.779 18.9858 274.161 18.2441 273.172 18.2441C272.183 18.2441 271.565 18.9858 271.565 20.3455C271.565 21.7052 272.183 22.4469 273.172 22.4469C274.161 22.1997 274.779 21.458 274.779 20.3455ZM277.375 17.3789H278.364V18.2441H278.487C278.735 17.6261 279.353 17.2553 280.218 17.2553C281.578 17.2553 282.319 17.9969 282.319 19.4802V23.1886H281.083V19.6039C281.083 18.7386 280.589 18.2441 279.847 18.2441C278.982 18.2441 278.487 18.8622 278.487 19.7275V23.1886H277.251L277.375 17.3789ZM288.871 15.7719V17.2553H290.23V18.2441H288.871V21.2108C288.871 21.8288 289.118 22.0761 289.736 22.0761H290.23V22.9413H289.612C288.253 22.9413 287.882 22.4469 287.882 21.3344V18.2441H287.016V17.2553H287.882V15.7719H288.871ZM291.837 15.0303H293.073V18.3678H293.197C293.444 17.7497 294.062 17.3789 294.928 17.3789C296.164 17.3789 297.029 18.1205 297.029 19.6039V23.3122H295.793V19.8511C295.793 18.9858 295.298 18.4914 294.557 18.4914C293.691 18.4914 293.073 19.1094 293.073 19.9747V23.4358H291.837C291.961 23.4358 291.837 15.0303 291.837 15.0303ZM303.58 21.7052C303.333 22.6941 302.344 23.3122 301.108 23.3122C299.501 23.3122 298.389 22.0761 298.389 20.3455C298.389 18.3678 299.378 17.2553 301.108 17.2553C302.715 17.2553 303.827 18.2441 303.827 20.2219V20.7163H299.625C299.625 21.7052 300.243 22.3233 301.108 22.3233C301.85 22.3233 302.344 22.0761 302.468 21.5816C302.468 21.458 303.58 21.7052 303.58 21.7052ZM299.501 19.7275H302.468C302.468 18.8622 301.85 18.2441 300.984 18.2441C300.243 18.2441 299.625 18.8622 299.501 19.7275Z" fill="white"/>
<g clip-path="url(#clip0_33_499)">
<path d="M0 0.265137H5.15117V5.41631H0V0.265137ZM5.15117 0.265137H10.3023V5.41631H5.15117V0.265137ZM10.3023 0.265137H15.4535V5.41631H10.3023V0.265137ZM15.4903 0.265137H20.6415V5.41631H15.4903V0.265137ZM20.6415 0.265137H25.7926V5.41631H20.6415V0.265137ZM25.7926 0.265137H30.9438V5.41631H25.7926V0.265137ZM30.9438 0.265137H36.095V5.41631H30.9438V0.265137ZM41.2829 0.265137H46.4341V5.41631H41.2829V0.265137ZM51.5853 0.265137H56.7364V5.41631H51.5853V0.265137ZM61.9244 0.265137H67.0756V5.41631H61.9244V0.265137ZM67.0756 0.265137H72.2267V5.41631H67.0756V0.265137ZM82.5659 0.265137H87.717V5.41631H82.5659V0.265137ZM92.8682 0.265137H98.0194V5.41631H92.8682V0.265137ZM98.0194 0.265137H103.171V5.41631H98.0194V0.265137ZM103.207 0.265137H108.359V5.41631H103.207V0.265137ZM108.359 0.265137H113.51V5.41631H108.359V0.265137ZM113.51 0.265137H118.661V5.41631H113.51V0.265137ZM118.661 0.265137H123.812V5.41631H118.661V0.265137ZM123.812 0.265137H128.963V5.41631H123.812V0.265137ZM0 5.41631H5.15117V10.5675H0V5.41631ZM30.9438 5.41631H36.095V10.5675H30.9438V5.41631ZM46.4341 5.41631H51.5853V10.5675H46.4341V5.41631ZM51.5853 5.41631H56.7364V10.5675H51.5853V5.41631ZM56.7364 5.41631H61.8876V10.5675H56.7364V5.41631ZM61.9244 5.41631H67.0756V10.5675H61.9244V5.41631ZM67.0756 5.41631H72.2267V10.5675H67.0756V5.41631ZM92.8682 5.41631H98.0194V10.5675H92.8682V5.41631ZM123.812 5.41631H128.963V10.5675H123.812V5.41631ZM0 10.5675H5.15117V15.7186H0V10.5675ZM10.3023 10.5675H15.4535V15.7186H10.3023V10.5675ZM15.4903 10.5675H20.6415V15.7186H15.4903V10.5675ZM20.6415 10.5675H25.7926V15.7186H20.6415V10.5675ZM30.9438 10.5675H36.095V15.7186H30.9438V10.5675ZM41.2829 10.5675H46.4341V15.7186H41.2829V10.5675ZM46.4341 10.5675H51.5853V15.7186H46.4341V10.5675ZM51.5853 10.5675H56.7364V15.7186H51.5853V10.5675ZM67.0756 10.5675H72.2267V15.7186H67.0756V10.5675ZM72.2267 10.5675H77.3779V15.7186H72.2267V10.5675ZM92.8682 10.5675H98.0194V15.7186H92.8682V10.5675ZM103.207 10.5675H108.359V15.7186H103.207V10.5675ZM108.359 10.5675H113.51V15.7186H108.359V10.5675ZM113.51 10.5675H118.661V15.7186H113.51V10.5675ZM123.812 10.5675H128.963V15.7186H123.812V10.5675ZM0 15.7554H5.15117V20.9066H0V15.7554ZM10.3023 15.7554H15.4535V20.9066H10.3023V15.7554ZM15.4903 15.7554H20.6415V20.9066H15.4903V15.7554ZM20.6415 15.7554H25.7926V20.9066H20.6415V15.7554ZM30.9438 15.7554H36.095V20.9066H30.9438V15.7554ZM41.2829 15.7554H46.4341V20.9066H41.2829V15.7554ZM46.4341 15.7554H51.5853V20.9066H46.4341V15.7554ZM51.5853 15.7554H56.7364V20.9066H51.5853V15.7554ZM61.9244 15.7554H67.0756V20.9066H61.9244V15.7554ZM67.0756 15.7554H72.2267V20.9066H67.0756V15.7554ZM77.3779 15.7554H82.5291V20.9066H77.3779V15.7554ZM82.5659 15.7554H87.717V20.9066H82.5659V15.7554ZM92.8682 15.7554H98.0194V20.9066H92.8682V15.7554ZM103.207 15.7554H108.359V20.9066H103.207V15.7554ZM108.359 15.7554H113.51V20.9066H108.359V15.7554ZM113.51 15.7554H118.661V20.9066H113.51V15.7554ZM123.812 15.7554H128.963V20.9066H123.812V15.7554ZM0 20.9066H5.15117V26.0578H0V20.9066ZM10.3023 20.9066H15.4535V26.0578H10.3023V20.9066ZM15.4903 20.9066H20.6415V26.0578H15.4903V20.9066ZM20.6415 20.9066H25.7926V26.0578H20.6415V20.9066ZM30.9438 20.9066H36.095V26.0578H30.9438V20.9066ZM41.2829 20.9066H46.4341V26.0578H41.2829V20.9066ZM56.7364 20.9066H61.8876V26.0578H56.7364V20.9066ZM61.9244 20.9066H67.0756V26.0578H61.9244V20.9066ZM67.0756 20.9066H72.2267V26.0578H67.0756V20.9066ZM72.2267 20.9066H77.3779V26.0578H72.2267V20.9066ZM77.3779 20.9066H82.5291V26.0578H77.3779V20.9066ZM82.5659 20.9066H87.717V26.0578H82.5659V20.9066ZM92.8682 20.9066H98.0194V26.0578H92.8682V20.9066ZM103.207 20.9066H108.359V26.0578H103.207V20.9066ZM108.359 20.9066H113.51V26.0578H108.359V20.9066ZM113.51 20.9066H118.661V26.0578H113.51V20.9066ZM123.812 20.9066H128.963V26.0578H123.812V20.9066ZM0 26.0578H5.15117V31.2089H0V26.0578ZM30.9438 26.0578H36.095V31.2089H30.9438V26.0578ZM51.5853 26.0578H56.7364V31.2089H51.5853V26.0578ZM56.7364 26.0578H61.8876V31.2089H56.7364V26.0578ZM72.2267 26.0578H77.3779V31.2089H72.2267V26.0578ZM82.5659 26.0578H87.717V31.2089H82.5659V26.0578ZM92.8682 26.0578H98.0194V31.2089H92.8682V26.0578ZM123.812 26.0578H128.963V31.2089H123.812V26.0578ZM0 31.2089H5.15117V36.3601H0V31.2089ZM5.15117 31.2089H10.3023V36.3601H5.15117V31.2089ZM10.3023 31.2089H15.4535V36.3601H10.3023V31.2089ZM15.4903 31.2089H20.6415V36.3601H15.4903V31.2089ZM20.6415 31.2089H25.7926V36.3601H20.6415V31.2089ZM25.7926 31.2089H30.9438V36.3601H25.7926V31.2089ZM30.9438 31.2089H36.095V36.3601H30.9438V31.2089ZM41.2829 31.2089H46.4341V36.3601H41.2829V31.2089ZM51.5853 31.2089H56.7364V36.3601H51.5853V31.2089ZM61.9244 31.2089H67.0756V36.3601H61.9244V31.2089ZM72.2267 31.2089H77.3779V36.3601H72.2267V31.2089ZM82.5659 31.2089H87.717V36.3601H82.5659V31.2089ZM92.8682 31.2089H98.0194V36.3601H92.8682V31.2089ZM98.0194 31.2089H103.171V36.3601H98.0194V31.2089ZM103.207 31.2089H108.359V36.3601H103.207V31.2089ZM108.359 31.2089H113.51V36.3601H108.359V31.2089ZM113.51 31.2089H118.661V36.3601H113.51V31.2089ZM118.661 31.2089H123.812V36.3601H118.661V31.2089ZM123.812 31.2089H128.963V36.3601H123.812V31.2089ZM51.5853 36.3969H56.7364V41.5481H51.5853V36.3969ZM61.9244 36.3969H67.0756V41.5481H61.9244V36.3969ZM77.3779 36.3969H82.5291V41.5481H77.3779V36.3969ZM82.5659 36.3969H87.717V41.5481H82.5659V36.3969ZM0 41.5481H5.15117V46.6992H0V41.5481ZM5.15117 41.5481H10.3023V46.6992H5.15117V41.5481ZM10.3023 41.5481H15.4535V46.6992H10.3023V41.5481ZM15.4903 41.5481H20.6415V46.6992H15.4903V41.5481ZM30.9438 41.5481H36.095V46.6992H30.9438V41.5481ZM41.2829 41.5481H46.4341V46.6992H41.2829V41.5481ZM51.5853 41.5481H56.7364V46.6992H51.5853V41.5481ZM56.7364 41.5481H61.8876V46.6992H56.7364V41.5481ZM61.9244 41.5481H67.0756V46.6992H61.9244V41.5481ZM72.2267 41.5481H77.3779V46.6992H72.2267V41.5481ZM77.3779 41.5481H82.5291V46.6992H77.3779V41.5481ZM82.5659 41.5481H87.717V46.6992H82.5659V41.5481ZM87.717 41.5481H92.8682V46.6992H87.717V41.5481ZM103.207 41.5481H108.359V46.6992H103.207V41.5481ZM108.359 41.5481H113.51V46.6992H108.359V41.5481ZM113.51 41.5481H118.661V46.6992H113.51V41.5481ZM123.812 41.5481H128.963V46.6992H123.812V41.5481ZM10.3023 46.6992H15.4535V51.8504H10.3023V46.6992ZM25.7926 46.6992H30.9438V51.8504H25.7926V46.6992ZM36.1318 46.6992H41.2829V51.8504H36.1318V46.6992ZM41.2829 46.6992H46.4341V51.8504H41.2829V46.6992ZM51.5853 46.6992H56.7364V51.8504H51.5853V46.6992ZM61.9244 46.6992H67.0756V51.8504H61.9244V46.6992ZM72.2267 46.6992H77.3779V51.8504H72.2267V46.6992ZM98.0194 46.6992H103.171V51.8504H98.0194V46.6992ZM118.661 46.6992H123.812V51.8504H118.661V46.6992ZM0 51.8504H5.15117V57.0016H0V51.8504ZM5.15117 51.8504H10.3023V57.0016H5.15117V51.8504ZM10.3023 51.8504H15.4535V57.0016H10.3023V51.8504ZM15.4903 51.8504H20.6415V57.0016H15.4903V51.8504ZM30.9438 51.8504H36.095V57.0016H30.9438V51.8504ZM41.2829 51.8504H46.4341V57.0016H41.2829V51.8504ZM46.4341 51.8504H51.5853V57.0016H46.4341V51.8504ZM51.5853 51.8504H56.7364V57.0016H51.5853V51.8504ZM56.7364 51.8504H61.8876V57.0016H56.7364V51.8504ZM61.9244 51.8504H67.0756V57.0016H61.9244V51.8504ZM72.2267 51.8504H77.3779V57.0016H72.2267V51.8504ZM82.5659 51.8504H87.717V57.0016H82.5659V51.8504ZM92.8682 51.8504H98.0194V57.0016H92.8682V51.8504ZM98.0194 51.8504H103.171V57.0016H98.0194V51.8504ZM0 57.0016H5.15117V62.1528H0V57.0016ZM10.3023 57.0016H15.4535V62.1528H10.3023V57.0016ZM25.7926 57.0016H30.9438V62.1528H25.7926V57.0016ZM46.4341 57.0016H51.5853V62.1528H46.4341V57.0016ZM51.5853 57.0016H56.7364V62.1528H51.5853V57.0016ZM67.0756 57.0016H72.2267V62.1528H67.0756V57.0016ZM72.2267 57.0016H77.3779V62.1528H72.2267V57.0016ZM77.3779 57.0016H82.5291V62.1528H77.3779V57.0016ZM82.5659 57.0016H87.717V62.1528H82.5659V57.0016ZM92.8682 57.0016H98.0194V62.1528H92.8682V57.0016ZM103.207 57.0016H108.359V62.1528H103.207V57.0016ZM108.359 57.0016H113.51V62.1528H108.359V57.0016ZM113.51 57.0016H118.661V62.1528H113.51V57.0016ZM20.6415 62.1895H25.7926V67.3407H20.6415V62.1895ZM30.9438 62.1895H36.095V67.3407H30.9438V62.1895ZM46.4341 62.1895H51.5853V67.3407H46.4341V62.1895ZM51.5853 62.1895H56.7364V67.3407H51.5853V62.1895ZM61.9244 62.1895H67.0756V67.3407H61.9244V62.1895ZM67.0756 62.1895H72.2267V67.3407H67.0756V62.1895ZM72.2267 62.1895H77.3779V67.3407H72.2267V62.1895ZM87.717 62.1895H92.8682V67.3407H87.717V62.1895ZM92.8682 62.1895H98.0194V67.3407H92.8682V62.1895ZM103.207 62.1895H108.359V67.3407H103.207V62.1895ZM113.51 62.1895H118.661V67.3407H113.51V62.1895ZM118.661 62.1895H123.812V67.3407H118.661V62.1895ZM123.812 62.1895H128.963V67.3407H123.812V62.1895ZM25.7926 67.3407H30.9438V72.4919H25.7926V67.3407ZM36.1318 67.3407H41.2829V72.4919H36.1318V67.3407ZM41.2829 67.3407H46.4341V72.4919H41.2829V67.3407ZM56.7364 67.3407H61.8876V72.4919H56.7364V67.3407ZM61.9244 67.3407H67.0756V72.4919H61.9244V67.3407ZM67.0756 67.3407H72.2267V72.4919H67.0756V67.3407ZM77.3779 67.3407H82.5291V72.4919H77.3779V67.3407ZM82.5659 67.3407H87.717V72.4919H82.5659V67.3407ZM87.717 67.3407H92.8682V72.4919H87.717V67.3407ZM92.8682 67.3407H98.0194V72.4919H92.8682V67.3407ZM98.0194 67.3407H103.171V72.4919H98.0194V67.3407ZM103.207 67.3407H108.359V72.4919H103.207V67.3407ZM123.812 67.3407H128.963V72.4919H123.812V67.3407ZM5.15117 72.4919H10.3023V77.6431H5.15117V72.4919ZM10.3023 72.4919H15.4535V77.6431H10.3023V72.4919ZM15.4903 72.4919H20.6415V77.6431H15.4903V72.4919ZM25.7926 72.4919H30.9438V77.6431H25.7926V72.4919ZM30.9438 72.4919H36.095V77.6431H30.9438V72.4919ZM36.1318 72.4919H41.2829V77.6431H36.1318V72.4919ZM41.2829 72.4919H46.4341V77.6431H41.2829V72.4919ZM51.5853 72.4919H56.7364V77.6431H51.5853V72.4919ZM56.7364 72.4919H61.8876V77.6431H56.7364V72.4919ZM67.0756 72.4919H72.2267V77.6431H67.0756V72.4919ZM82.5659 72.4919H87.717V77.6431H82.5659V72.4919ZM87.717 72.4919H92.8682V77.6431H87.717V72.4919ZM103.207 72.4919H108.359V77.6431H103.207V72.4919ZM113.51 72.4919H118.661V77.6431H113.51V72.4919ZM118.661 72.4919H123.812V77.6431H118.661V72.4919ZM0 77.6431H5.15117V82.7942H0V77.6431ZM25.7926 77.6431H30.9438V82.7942H25.7926V77.6431ZM36.1318 77.6431H41.2829V82.7942H36.1318V77.6431ZM46.4341 77.6431H51.5853V82.7942H46.4341V77.6431ZM51.5853 77.6431H56.7364V82.7942H51.5853V77.6431ZM56.7364 77.6431H61.8876V82.7942H56.7364V77.6431ZM72.2267 77.6431H77.3779V82.7942H72.2267V77.6431ZM82.5659 77.6431H87.717V82.7942H82.5659V77.6431ZM87.717 77.6431H92.8682V82.7942H87.717V77.6431ZM92.8682 77.6431H98.0194V82.7942H92.8682V77.6431ZM98.0194 77.6431H103.171V82.7942H98.0194V77.6431ZM103.207 77.6431H108.359V82.7942H103.207V77.6431ZM123.812 77.6431H128.963V82.7942H123.812V77.6431ZM10.3023 82.831H15.4535V87.9822H10.3023V82.831ZM15.4903 82.831H20.6415V87.9822H15.4903V82.831ZM30.9438 82.831H36.095V87.9822H30.9438V82.831ZM36.1318 82.831H41.2829V87.9822H36.1318V82.831ZM51.5853 82.831H56.7364V87.9822H51.5853V82.831ZM67.0756 82.831H72.2267V87.9822H67.0756V82.831ZM77.3779 82.831H82.5291V87.9822H77.3779V82.831ZM82.5659 82.831H87.717V87.9822H82.5659V82.831ZM87.717 82.831H92.8682V87.9822H87.717V82.831ZM92.8682 82.831H98.0194V87.9822H92.8682V82.831ZM98.0194 82.831H103.171V87.9822H98.0194V82.831ZM103.207 82.831H108.359V87.9822H103.207V82.831ZM108.359 82.831H113.51V87.9822H108.359V82.831ZM113.51 82.831H118.661V87.9822H113.51V82.831ZM118.661 82.831H123.812V87.9822H118.661V82.831ZM123.812 82.831H128.963V87.9822H123.812V82.831ZM41.2829 87.9822H46.4341V93.1334H41.2829V87.9822ZM51.5853 87.9822H56.7364V93.1334H51.5853V87.9822ZM67.0756 87.9822H72.2267V93.1334H67.0756V87.9822ZM82.5659 87.9822H87.717V93.1334H82.5659V87.9822ZM103.207 87.9822H108.359V93.1334H103.207V87.9822ZM113.51 87.9822H118.661V93.1334H113.51V87.9822ZM123.812 87.9822H128.963V93.1334H123.812V87.9822ZM0 93.1334H5.15117V98.2845H0V93.1334ZM5.15117 93.1334H10.3023V98.2845H5.15117V93.1334ZM10.3023 93.1334H15.4535V98.2845H10.3023V93.1334ZM15.4903 93.1334H20.6415V98.2845H15.4903V93.1334ZM20.6415 93.1334H25.7926V98.2845H20.6415V93.1334ZM25.7926 93.1334H30.9438V98.2845H25.7926V93.1334ZM30.9438 93.1334H36.095V98.2845H30.9438V93.1334ZM46.4341 93.1334H51.5853V98.2845H46.4341V93.1334ZM51.5853 93.1334H56.7364V98.2845H51.5853V93.1334ZM67.0756 93.1334H72.2267V98.2845H67.0756V93.1334ZM82.5659 93.1334H87.717V98.2845H82.5659V93.1334ZM92.8682 93.1334H98.0194V98.2845H92.8682V93.1334ZM103.207 93.1334H108.359V98.2845H103.207V93.1334ZM113.51 93.1334H118.661V98.2845H113.51V93.1334ZM118.661 93.1334H123.812V98.2845H118.661V93.1334ZM123.812 93.1334H128.963V98.2845H123.812V93.1334ZM0 98.2845H5.15117V103.436H0V98.2845ZM30.9438 98.2845H36.095V103.436H30.9438V98.2845ZM46.4341 98.2845H51.5853V103.436H46.4341V98.2845ZM51.5853 98.2845H56.7364V103.436H51.5853V98.2845ZM77.3779 98.2845H82.5291V103.436H77.3779V98.2845ZM82.5659 98.2845H87.717V103.436H82.5659V98.2845ZM103.207 98.2845H108.359V103.436H103.207V98.2845ZM0 103.472H5.15117V108.624H0V103.472ZM10.3023 103.472H15.4535V108.624H10.3023V103.472ZM15.4903 103.472H20.6415V108.624H15.4903V103.472ZM20.6415 103.472H25.7926V108.624H20.6415V103.472ZM30.9438 103.472H36.095V108.624H30.9438V103.472ZM46.4341 103.472H51.5853V108.624H46.4341V103.472ZM51.5853 103.472H56.7364V108.624H51.5853V103.472ZM56.7364 103.472H61.8876V108.624H56.7364V103.472ZM82.5659 103.472H87.717V108.624H82.5659V103.472ZM87.717 103.472H92.8682V108.624H87.717V103.472ZM92.8682 103.472H98.0194V108.624H92.8682V103.472ZM98.0194 103.472H103.171V108.624H98.0194V103.472ZM103.207 103.472H108.359V108.624H103.207V103.472ZM108.359 103.472H113.51V108.624H108.359V103.472ZM123.812 103.472H128.963V108.624H123.812V103.472ZM0 108.624H5.15117V113.775H0V108.624ZM10.3023 108.624H15.4535V113.775H10.3023V108.624ZM15.4903 108.624H20.6415V113.775H15.4903V108.624ZM20.6415 108.624H25.7926V113.775H20.6415V108.624ZM30.9438 108.624H36.095V113.775H30.9438V108.624ZM41.2829 108.624H46.4341V113.775H41.2829V108.624ZM56.7364 108.624H61.8876V113.775H56.7364V108.624ZM72.2267 108.624H77.3779V113.775H72.2267V108.624ZM87.717 108.624H92.8682V113.775H87.717V108.624ZM92.8682 108.624H98.0194V113.775H92.8682V108.624ZM103.207 108.624H108.359V113.775H103.207V108.624ZM108.359 108.624H113.51V113.775H108.359V108.624ZM113.51 108.624H118.661V113.775H113.51V108.624ZM118.661 108.624H123.812V113.775H118.661V108.624ZM123.812 108.624H128.963V113.775H123.812V108.624ZM0 113.775H5.15117V118.926H0V113.775ZM10.3023 113.775H15.4535V118.926H10.3023V113.775ZM15.4903 113.775H20.6415V118.926H15.4903V113.775ZM20.6415 113.775H25.7926V118.926H20.6415V113.775ZM30.9438 113.775H36.095V118.926H30.9438V113.775ZM41.2829 113.775H46.4341V118.926H41.2829V113.775ZM51.5853 113.775H56.7364V118.926H51.5853V113.775ZM56.7364 113.775H61.8876V118.926H56.7364V113.775ZM67.0756 113.775H72.2267V118.926H67.0756V113.775ZM72.2267 113.775H77.3779V118.926H72.2267V113.775ZM82.5659 113.775H87.717V118.926H82.5659V113.775ZM87.717 113.775H92.8682V118.926H87.717V113.775ZM92.8682 113.775H98.0194V118.926H92.8682V113.775ZM103.207 113.775H108.359V118.926H103.207V113.775ZM113.51 113.775H118.661V118.926H113.51V113.775ZM118.661 113.775H123.812V118.926H118.661V113.775ZM0 118.926H5.15117V124.077H0V118.926ZM30.9438 118.926H36.095V124.077H30.9438V118.926ZM41.2829 118.926H46.4341V124.077H41.2829V118.926ZM51.5853 118.926H56.7364V124.077H51.5853V118.926ZM56.7364 118.926H61.8876V124.077H56.7364V118.926ZM67.0756 118.926H72.2267V124.077H67.0756V118.926ZM72.2267 118.926H77.3779V124.077H72.2267V118.926ZM87.717 118.926H92.8682V124.077H87.717V118.926ZM92.8682 118.926H98.0194V124.077H92.8682V118.926ZM103.207 118.926H108.359V124.077H103.207V118.926ZM113.51 118.926H118.661V124.077H113.51V118.926ZM0 124.077H5.15117V129.228H0V124.077ZM5.15117 124.077H10.3023V129.228H5.15117V124.077ZM10.3023 124.077H15.4535V129.228H10.3023V124.077ZM15.4903 124.077H20.6415V129.228H15.4903V124.077ZM20.6415 124.077H25.7926V129.228H20.6415V124.077ZM25.7926 124.077H30.9438V129.228H25.7926V124.077ZM30.9438 124.077H36.095V129.228H30.9438V124.077ZM41.2829 124.077H46.4341V129.228H41.2829V124.077ZM46.4341 124.077H51.5853V129.228H46.4341V124.077ZM51.5853 124.077H56.7364V129.228H51.5853V124.077ZM56.7364 124.077H61.8876V129.228H56.7364V124.077ZM67.0756 124.077H72.2267V129.228H67.0756V124.077ZM72.2267 124.077H77.3779V129.228H72.2267V124.077ZM92.8682 124.077H98.0194V129.228H92.8682V124.077ZM98.0194 124.077H103.171V129.228H98.0194V124.077ZM103.207 124.077H108.359V129.228H103.207V124.077ZM108.359 124.077H113.51V129.228H108.359V124.077ZM113.51 124.077H118.661V129.228H113.51V124.077ZM118.661 124.077H123.812V129.228H118.661V124.077ZM123.812 124.077H128.963V129.228H123.812V124.077Z" fill="white"/>
</g>
<defs>
<linearGradient id="paint0_linear_33_499" x1="186.378" y1="72.6895" x2="330.225" y2="160.831" gradientUnits="userSpaceOnUse">
<stop stop-color="white" stop-opacity="0.02"/>
<stop offset="1" stop-color="white" stop-opacity="0.1"/>
</linearGradient>
<linearGradient id="paint1_linear_33_499" x1="186.378" y1="72.6895" x2="330.225" y2="160.831" gradientUnits="userSpaceOnUse">
<stop stop-color="white" stop-opacity="0.5"/>
<stop offset="1" stop-color="white" stop-opacity="0.1"/>
</linearGradient>
<linearGradient id="paint2_linear_33_499" x1="184.496" y1="86.1002" x2="162.693" y2="107.903" gradientUnits="userSpaceOnUse">
<stop stop-color="#00A0FF"/>
<stop offset="0.007" stop-color="#00A1FF"/>
<stop offset="0.26" stop-color="#00BEFF"/>
<stop offset="0.512" stop-color="#00D2FF"/>
<stop offset="0.76" stop-color="#00DFFF"/>
<stop offset="1" stop-color="#00E3FF"/>
</linearGradient>
<linearGradient id="paint3_linear_33_499" x1="200.132" y1="100.837" x2="168.698" y2="100.837" gradientUnits="userSpaceOnUse">
<stop stop-color="#FFE000"/>
<stop offset="0.409" stop-color="#FFBD00"/>
<stop offset="0.775" stop-color="#FFA500"/>
<stop offset="1" stop-color="#FF9C00"/>
</linearGradient>
<linearGradient id="paint4_linear_33_499" x1="188.392" y1="103.714" x2="158.826" y2="133.28" gradientUnits="userSpaceOnUse">
<stop stop-color="#FF3A44"/>
<stop offset="1" stop-color="#C31162"/>
</linearGradient>
<linearGradient id="paint5_linear_33_499" x1="165.628" y1="75.0454" x2="178.83" y2="88.249" gradientUnits="userSpaceOnUse">
<stop stop-color="#32A071"/>
<stop offset="0.069" stop-color="#2DA771"/>
<stop offset="0.476" stop-color="#15CF74"/>
<stop offset="0.801" stop-color="#06E775"/>
<stop offset="1" stop-color="#00F076"/>
</linearGradient>
<linearGradient id="paint6_linear_33_499" x1="186.378" y1="3.23487" x2="330.225" y2="91.3767" gradientUnits="userSpaceOnUse">
<stop stop-color="white" stop-opacity="0.02"/>
<stop offset="1" stop-color="white" stop-opacity="0.1"/>
</linearGradient>
<linearGradient id="paint7_linear_33_499" x1="186.378" y1="3.23487" x2="330.225" y2="91.3767" gradientUnits="userSpaceOnUse">
<stop stop-color="white" stop-opacity="0.5"/>
<stop offset="1" stop-color="white" stop-opacity="0.1"/>
</linearGradient>
<clipPath id="clip0_33_499">
<rect width="129" height="129" fill="white" transform="translate(0 0.265137)"/>
</clipPath>
</defs>
</svg>
