<svg width="150" height="150" viewBox="0 0 150 150" fill="none" xmlns="http://www.w3.org/2000/svg">
<g filter="url(#filter0_d_33_215)">
<path d="M120 75C120 99.8528 99.8528 120 75 120C50.1472 120 30 99.8528 30 75C30 50.1472 50.1472 30 75 30C99.8528 30 120 50.1472 120 75Z" fill="white"/>
</g>
<g filter="url(#filter1_d_33_215)">
<path d="M107 75C107 92.6731 92.6731 107 75 107C57.3269 107 43 92.6731 43 75C43 57.3269 57.3269 43 75 43C92.6731 43 107 57.3269 107 75Z" fill="white"/>
</g>
<path d="M72.6374 74.9374H69.3249C68.5374 74.9374 67.8999 75.5748 67.8999 76.3623V82.7623H72.6374V74.9374V74.9374Z" stroke="#486AB5" stroke-width="2" stroke-miterlimit="10" stroke-linecap="round" stroke-linejoin="round"/>
<path d="M75.9515 69.2499H74.0514C73.2639 69.2499 72.6265 69.8874 72.6265 70.6749V82.7499H77.364V70.6749C77.364 69.8874 76.739 69.2499 75.9515 69.2499Z" stroke="#486AB5" stroke-width="2" stroke-miterlimit="10" stroke-linecap="round" stroke-linejoin="round"/>
<path d="M80.6851 77.0624H77.3726V82.7499H82.1101V78.4874C82.0976 77.6999 81.4601 77.0624 80.6851 77.0624Z" stroke="#486AB5" stroke-width="2" stroke-miterlimit="10" stroke-linecap="round" stroke-linejoin="round"/>
<path d="M71.25 88.5H78.75C85 88.5 87.5 86 87.5 79.75V72.25C87.5 66 85 63.5 78.75 63.5H71.25C65 63.5 62.5 66 62.5 72.25V79.75C62.5 86 65 88.5 71.25 88.5Z" stroke="#486AB5" stroke-width="2" stroke-linecap="round" stroke-linejoin="round"/>
<defs>
<filter id="filter0_d_33_215" x="0" y="0" width="150" height="150" filterUnits="userSpaceOnUse" color-interpolation-filters="sRGB">
<feFlood flood-opacity="0" result="BackgroundImageFix"/>
<feColorMatrix in="SourceAlpha" type="matrix" values="0 0 0 0 0 0 0 0 0 0 0 0 0 0 0 0 0 0 127 0" result="hardAlpha"/>
<feOffset/>
<feGaussianBlur stdDeviation="15"/>
<feComposite in2="hardAlpha" operator="out"/>
<feColorMatrix type="matrix" values="0 0 0 0 0.00392157 0 0 0 0 0.0705882 0 0 0 0 0.568627 0 0 0 0.05 0"/>
<feBlend mode="normal" in2="BackgroundImageFix" result="effect1_dropShadow_33_215"/>
<feBlend mode="normal" in="SourceGraphic" in2="effect1_dropShadow_33_215" result="shape"/>
</filter>
<filter id="filter1_d_33_215" x="13" y="13" width="124" height="124" filterUnits="userSpaceOnUse" color-interpolation-filters="sRGB">
<feFlood flood-opacity="0" result="BackgroundImageFix"/>
<feColorMatrix in="SourceAlpha" type="matrix" values="0 0 0 0 0 0 0 0 0 0 0 0 0 0 0 0 0 0 127 0" result="hardAlpha"/>
<feOffset/>
<feGaussianBlur stdDeviation="15"/>
<feComposite in2="hardAlpha" operator="out"/>
<feColorMatrix type="matrix" values="0 0 0 0 0.00392157 0 0 0 0 0.0705882 0 0 0 0 0.568627 0 0 0 0.08 0"/>
<feBlend mode="normal" in2="BackgroundImageFix" result="effect1_dropShadow_33_215"/>
<feBlend mode="normal" in="SourceGraphic" in2="effect1_dropShadow_33_215" result="shape"/>
</filter>
</defs>
</svg>
