<svg width="150" height="150" viewBox="0 0 150 150" fill="none" xmlns="http://www.w3.org/2000/svg">
<g filter="url(#filter0_d_33_196)">
<path d="M120 75C120 99.8528 99.8528 120 75 120C50.1472 120 30 99.8528 30 75C30 50.1472 50.1472 30 75 30C99.8528 30 120 50.1472 120 75Z" fill="white"/>
</g>
<g filter="url(#filter1_d_33_196)">
<path d="M107 75C107 92.6731 92.6731 107 75 107C57.3269 107 43 92.6731 43 75C43 57.3269 57.3269 43 75 43C92.6731 43 107 57.3269 107 75Z" fill="white"/>
</g>
<path d="M84.15 73.5H65.8625C64.0125 73.5 62.5125 71.9875 62.5125 70.15V66.8625C62.5125 65.0125 64.025 63.5125 65.8625 63.5125H84.15C86 63.5125 87.5 65.025 87.5 66.8625V70.15C87.5 71.9875 85.9875 73.5 84.15 73.5Z" stroke="#486AB5" stroke-width="2" stroke-linecap="round" stroke-linejoin="round"/>
<path d="M84.15 88.5H65.8625C64.0125 88.5 62.5125 86.9875 62.5125 85.15V81.8625C62.5125 80.0125 64.025 78.5125 65.8625 78.5125H84.15C86 78.5125 87.5 80.025 87.5 81.8625V85.15C87.5 86.9875 85.9875 88.5 84.15 88.5Z" stroke="#486AB5" stroke-width="2" stroke-linecap="round" stroke-linejoin="round"/>
<path d="M67.5 67.25V69.75" stroke="#486AB5" stroke-width="2" stroke-linecap="round" stroke-linejoin="round"/>
<path d="M72.5 67.25V69.75" stroke="#486AB5" stroke-width="2" stroke-linecap="round" stroke-linejoin="round"/>
<path d="M67.5 82.25V84.75" stroke="#486AB5" stroke-width="2" stroke-linecap="round" stroke-linejoin="round"/>
<path d="M72.5 82.25V84.75" stroke="#486AB5" stroke-width="2" stroke-linecap="round" stroke-linejoin="round"/>
<path d="M77.5 68.5H82.5" stroke="#486AB5" stroke-width="2" stroke-linecap="round" stroke-linejoin="round"/>
<path d="M77.5 83.5H82.5" stroke="#486AB5" stroke-width="2" stroke-linecap="round" stroke-linejoin="round"/>
<defs>
<filter id="filter0_d_33_196" x="0" y="0" width="150" height="150" filterUnits="userSpaceOnUse" color-interpolation-filters="sRGB">
<feFlood flood-opacity="0" result="BackgroundImageFix"/>
<feColorMatrix in="SourceAlpha" type="matrix" values="0 0 0 0 0 0 0 0 0 0 0 0 0 0 0 0 0 0 127 0" result="hardAlpha"/>
<feOffset/>
<feGaussianBlur stdDeviation="15"/>
<feComposite in2="hardAlpha" operator="out"/>
<feColorMatrix type="matrix" values="0 0 0 0 0.00392157 0 0 0 0 0.0705882 0 0 0 0 0.568627 0 0 0 0.05 0"/>
<feBlend mode="normal" in2="BackgroundImageFix" result="effect1_dropShadow_33_196"/>
<feBlend mode="normal" in="SourceGraphic" in2="effect1_dropShadow_33_196" result="shape"/>
</filter>
<filter id="filter1_d_33_196" x="13" y="13" width="124" height="124" filterUnits="userSpaceOnUse" color-interpolation-filters="sRGB">
<feFlood flood-opacity="0" result="BackgroundImageFix"/>
<feColorMatrix in="SourceAlpha" type="matrix" values="0 0 0 0 0 0 0 0 0 0 0 0 0 0 0 0 0 0 127 0" result="hardAlpha"/>
<feOffset/>
<feGaussianBlur stdDeviation="15"/>
<feComposite in2="hardAlpha" operator="out"/>
<feColorMatrix type="matrix" values="0 0 0 0 0.00392157 0 0 0 0 0.0705882 0 0 0 0 0.568627 0 0 0 0.08 0"/>
<feBlend mode="normal" in2="BackgroundImageFix" result="effect1_dropShadow_33_196"/>
<feBlend mode="normal" in="SourceGraphic" in2="effect1_dropShadow_33_196" result="shape"/>
</filter>
</defs>
</svg>
