<svg width="44" height="44" viewBox="0 0 44 44" fill="none" xmlns="http://www.w3.org/2000/svg">
<g id="vuesax/linear/layer">
<g id="layer">
<path id="Vector" d="M20.1484 5.35342L9.33172 10.1568C6.21505 11.5317 6.21505 13.8051 9.33172 15.1801L20.1484 19.9834C21.3767 20.5334 23.3934 20.5334 24.6217 19.9834L35.4384 15.1801C38.555 13.8051 38.555 11.5317 35.4384 10.1568L24.6217 5.35342C23.3934 4.80342 21.3767 4.80342 20.1484 5.35342Z" stroke="#2D64D7" stroke-width="2.5" stroke-linecap="round" stroke-linejoin="round"/>
<path id="Vector_2" d="M38.5 20.1665C38.5 21.7065 37.345 23.4848 35.9333 24.1082L23.485 29.6448C22.5317 30.0665 21.45 30.0665 20.515 29.6448L8.06667 24.1082C6.655 23.4848 5.5 21.7065 5.5 20.1665" stroke="#2D64D7" stroke-width="2.5" stroke-linecap="round" stroke-linejoin="round"/>
<path id="Vector_3" d="M38.5 29.3335C38.5 31.0385 37.4917 32.5785 35.9333 33.2752L23.485 38.8118C22.5317 39.2335 21.45 39.2335 20.515 38.8118L8.06667 33.2752C6.50833 32.5785 5.5 31.0385 5.5 29.3335" stroke="#2D64D7" stroke-width="2.5" stroke-linecap="round" stroke-linejoin="round"/>
</g>
</g>
</svg>
