<svg width="44" height="44" viewBox="0 0 44 44" fill="none" xmlns="http://www.w3.org/2000/svg">
<g id="vuesax/linear/money-3">
<path id="Vector" d="M31.1667 37.5834H12.8334C7.33341 37.5834 3.66675 34.8334 3.66675 28.4167V15.5834C3.66675 9.16675 7.33341 6.41675 12.8334 6.41675H31.1667C36.6667 6.41675 40.3334 9.16675 40.3334 15.5834V28.4167C40.3334 34.8334 36.6667 37.5834 31.1667 37.5834Z" stroke="#2D64D7" stroke-width="2.5" stroke-miterlimit="10" stroke-linecap="round" stroke-linejoin="round"/>
<path id="Vector_2" d="M22 27.5C25.0376 27.5 27.5 25.0376 27.5 22C27.5 18.9624 25.0376 16.5 22 16.5C18.9624 16.5 16.5 18.9624 16.5 22C16.5 25.0376 18.9624 27.5 22 27.5Z" stroke="#2D64D7" stroke-width="2.5" stroke-miterlimit="10" stroke-linecap="round" stroke-linejoin="round"/>
<path id="Vector_3" d="M34.8333 12.8333H29.3333" stroke="#2D64D7" stroke-width="2.5" stroke-miterlimit="10" stroke-linecap="round" stroke-linejoin="round"/>
<path id="Vector_4" d="M14.6667 31.1665H9.16675" stroke="#2D64D7" stroke-width="2.5" stroke-miterlimit="10" stroke-linecap="round" stroke-linejoin="round"/>
</g>
</svg>
