<svg width="23" height="22" viewBox="0 0 23 22" fill="none" xmlns="http://www.w3.org/2000/svg">
<g id="vuesax/bold/money">
<g id="money">
<path id="Vector" d="M6.91626 3.20818H16.0829C18.8329 3.20818 20.6663 4.58318 20.6663 7.79151V14.2082C20.6663 17.4165 18.8329 18.7915 16.0829 18.7915H6.91626C4.16626 18.7915 2.33293 17.4165 2.33293 14.2082V7.79151C2.33293 4.58318 4.16626 3.20818 6.91626 3.20818ZM16.7704 13.2915C16.7704 13.6673 17.0821 13.979 17.4579 13.979C17.8338 13.979 18.1454 13.6673 18.1454 13.2915V8.70818C18.1454 8.33234 17.8338 8.02068 17.4579 8.02068C17.0821 8.02068 16.7704 8.33234 16.7704 8.70818V13.2915ZM11.4996 13.7498C13.0213 13.7498 14.2496 12.5215 14.2496 10.9998C14.2496 9.47818 13.0213 8.24984 11.4996 8.24984C9.97793 8.24984 8.74959 9.47818 8.74959 10.9998C8.74959 12.5215 9.97793 13.7498 11.4996 13.7498ZM4.85376 13.2915C4.85376 13.6673 5.16543 13.979 5.54126 13.979C5.91709 13.979 6.22876 13.6673 6.22876 13.2915V8.70818C6.22876 8.33234 5.91709 8.02068 5.54126 8.02068C5.16543 8.02068 4.85376 8.33234 4.85376 8.70818V13.2915Z" fill="#5CAEFF"/>
</g>
</g>
</svg>
