<svg width="24" height="24" viewBox="0 0 24 24" fill="none" xmlns="http://www.w3.org/2000/svg">
<path d="M21.7304 12V9.09453C21.7304 4.25208 19.7934 2.31509 14.9509 2.31509H9.13997C4.29752 2.31509 2.36053 4.25208 2.36053 9.09453V14.9055C2.36053 19.7479 4.29752 21.6849 9.13997 21.6849H12.0454" stroke="#70ABF8" stroke-width="1.54959" stroke-linecap="round" stroke-linejoin="round"/>
<path d="M20.7231 17.656L19.1445 18.1886C18.7087 18.3339 18.36 18.6729 18.2147 19.1184L17.6821 20.697C17.2269 22.0626 15.3093 22.0335 14.8831 20.668L13.0914 14.9054C12.7428 13.7626 13.7984 12.6973 14.9316 13.0556L20.7038 14.8473C22.0597 15.2735 22.079 17.2008 20.7231 17.656Z" stroke="#70ABF8" stroke-width="1.54959" stroke-linecap="round" stroke-linejoin="round"/>
</svg>
