<svg width="49" height="48" viewBox="0 0 49 48" fill="none" xmlns="http://www.w3.org/2000/svg">
<g clip-path="url(#clip0_84_445)">
<path d="M48.3364 23.9985C48.3364 30.4681 45.7745 36.3432 41.6133 40.6583C37.247 45.1846 31.1214 47.997 24.3379 47.997C17.5545 47.997 11.4259 45.1816 7.06252 40.6553C2.8953 36.3432 0.336426 30.4681 0.336426 23.9985C0.336426 10.7455 11.0819 0 24.3379 0C37.594 0 48.3364 10.7455 48.3364 23.9985Z" fill="#F2B862"/>
<mask id="mask0_84_445" style="mask-type:alpha" maskUnits="userSpaceOnUse" x="7" y="6" width="35" height="35">
<path d="M12.461 35.4521L12.4606 35.4516C9.59533 32.4868 7.83643 28.4482 7.83643 23.9998C7.83643 14.8878 15.2244 7.49976 24.3386 7.49976C33.4527 7.49976 40.8386 14.8877 40.8386 23.9998C40.8386 28.448 39.0776 32.4868 36.2162 35.4541C33.2136 38.5667 29.0026 40.4998 24.3386 40.4998C19.6746 40.4998 15.4615 38.5646 12.461 35.4521Z" fill="white" stroke="black"/>
</mask>
<g mask="url(#mask0_84_445)">
<path d="M21.3364 33.5625H27.3364C32.3364 33.5625 34.3364 31.5625 34.3364 26.5625V20.5625C34.3364 15.5625 32.3364 13.5625 27.3364 13.5625H21.3364C16.3364 13.5625 14.3364 15.5625 14.3364 20.5625V26.5625C14.3364 31.5625 16.3364 33.5625 21.3364 33.5625Z" stroke="white" stroke-width="1.5" stroke-linecap="round" stroke-linejoin="round"/>
<path d="M27.8364 30.0625C28.9364 30.0625 29.8364 29.1625 29.8364 28.0625V19.0625C29.8364 17.9625 28.9364 17.0625 27.8364 17.0625C26.7364 17.0625 25.8364 17.9625 25.8364 19.0625V28.0625C25.8364 29.1625 26.7264 30.0625 27.8364 30.0625Z" stroke="white" stroke-width="1.5" stroke-linecap="round" stroke-linejoin="round"/>
<path d="M20.8364 30.0625C21.9364 30.0625 22.8364 29.1625 22.8364 28.0625V24.5625C22.8364 23.4625 21.9364 22.5625 20.8364 22.5625C19.7364 22.5625 18.8364 23.4625 18.8364 24.5625V28.0625C18.8364 29.1625 19.7264 30.0625 20.8364 30.0625Z" stroke="white" stroke-width="1.5" stroke-linecap="round" stroke-linejoin="round"/>
</g>
</g>
<defs>
<clipPath id="clip0_84_445">
<rect width="48" height="48" fill="white" transform="translate(0.336426)"/>
</clipPath>
</defs>
</svg>
