<svg width="129" height="130" viewBox="0 0 129 130" fill="none" xmlns="http://www.w3.org/2000/svg">
<g clip-path="url(#clip0_33_519)">
<path d="M0 0.265137H5.15117V5.41631H0V0.265137ZM5.15117 0.265137H10.3023V5.41631H5.15117V0.265137ZM10.3023 0.265137H15.4535V5.41631H10.3023V0.265137ZM15.4903 0.265137H20.6415V5.41631H15.4903V0.265137ZM20.6415 0.265137H25.7926V5.41631H20.6415V0.265137ZM25.7926 0.265137H30.9438V5.41631H25.7926V0.265137ZM30.9438 0.265137H36.095V5.41631H30.9438V0.265137ZM41.2829 0.265137H46.4341V5.41631H41.2829V0.265137ZM51.5853 0.265137H56.7364V5.41631H51.5853V0.265137ZM61.9244 0.265137H67.0756V5.41631H61.9244V0.265137ZM67.0756 0.265137H72.2267V5.41631H67.0756V0.265137ZM82.5659 0.265137H87.717V5.41631H82.5659V0.265137ZM92.8682 0.265137H98.0194V5.41631H92.8682V0.265137ZM98.0194 0.265137H103.171V5.41631H98.0194V0.265137ZM103.207 0.265137H108.359V5.41631H103.207V0.265137ZM108.359 0.265137H113.51V5.41631H108.359V0.265137ZM113.51 0.265137H118.661V5.41631H113.51V0.265137ZM118.661 0.265137H123.812V5.41631H118.661V0.265137ZM123.812 0.265137H128.963V5.41631H123.812V0.265137ZM0 5.41631H5.15117V10.5675H0V5.41631ZM30.9438 5.41631H36.095V10.5675H30.9438V5.41631ZM46.4341 5.41631H51.5853V10.5675H46.4341V5.41631ZM51.5853 5.41631H56.7364V10.5675H51.5853V5.41631ZM56.7364 5.41631H61.8876V10.5675H56.7364V5.41631ZM61.9244 5.41631H67.0756V10.5675H61.9244V5.41631ZM67.0756 5.41631H72.2267V10.5675H67.0756V5.41631ZM92.8682 5.41631H98.0194V10.5675H92.8682V5.41631ZM123.812 5.41631H128.963V10.5675H123.812V5.41631ZM0 10.5675H5.15117V15.7186H0V10.5675ZM10.3023 10.5675H15.4535V15.7186H10.3023V10.5675ZM15.4903 10.5675H20.6415V15.7186H15.4903V10.5675ZM20.6415 10.5675H25.7926V15.7186H20.6415V10.5675ZM30.9438 10.5675H36.095V15.7186H30.9438V10.5675ZM41.2829 10.5675H46.4341V15.7186H41.2829V10.5675ZM46.4341 10.5675H51.5853V15.7186H46.4341V10.5675ZM51.5853 10.5675H56.7364V15.7186H51.5853V10.5675ZM67.0756 10.5675H72.2267V15.7186H67.0756V10.5675ZM72.2267 10.5675H77.3779V15.7186H72.2267V10.5675ZM92.8682 10.5675H98.0194V15.7186H92.8682V10.5675ZM103.207 10.5675H108.359V15.7186H103.207V10.5675ZM108.359 10.5675H113.51V15.7186H108.359V10.5675ZM113.51 10.5675H118.661V15.7186H113.51V10.5675ZM123.812 10.5675H128.963V15.7186H123.812V10.5675ZM0 15.7554H5.15117V20.9066H0V15.7554ZM10.3023 15.7554H15.4535V20.9066H10.3023V15.7554ZM15.4903 15.7554H20.6415V20.9066H15.4903V15.7554ZM20.6415 15.7554H25.7926V20.9066H20.6415V15.7554ZM30.9438 15.7554H36.095V20.9066H30.9438V15.7554ZM41.2829 15.7554H46.4341V20.9066H41.2829V15.7554ZM46.4341 15.7554H51.5853V20.9066H46.4341V15.7554ZM51.5853 15.7554H56.7364V20.9066H51.5853V15.7554ZM61.9244 15.7554H67.0756V20.9066H61.9244V15.7554ZM67.0756 15.7554H72.2267V20.9066H67.0756V15.7554ZM77.3779 15.7554H82.5291V20.9066H77.3779V15.7554ZM82.5659 15.7554H87.717V20.9066H82.5659V15.7554ZM92.8682 15.7554H98.0194V20.9066H92.8682V15.7554ZM103.207 15.7554H108.359V20.9066H103.207V15.7554ZM108.359 15.7554H113.51V20.9066H108.359V15.7554ZM113.51 15.7554H118.661V20.9066H113.51V15.7554ZM123.812 15.7554H128.963V20.9066H123.812V15.7554ZM0 20.9066H5.15117V26.0578H0V20.9066ZM10.3023 20.9066H15.4535V26.0578H10.3023V20.9066ZM15.4903 20.9066H20.6415V26.0578H15.4903V20.9066ZM20.6415 20.9066H25.7926V26.0578H20.6415V20.9066ZM30.9438 20.9066H36.095V26.0578H30.9438V20.9066ZM41.2829 20.9066H46.4341V26.0578H41.2829V20.9066ZM56.7364 20.9066H61.8876V26.0578H56.7364V20.9066ZM61.9244 20.9066H67.0756V26.0578H61.9244V20.9066ZM67.0756 20.9066H72.2267V26.0578H67.0756V20.9066ZM72.2267 20.9066H77.3779V26.0578H72.2267V20.9066ZM77.3779 20.9066H82.5291V26.0578H77.3779V20.9066ZM82.5659 20.9066H87.717V26.0578H82.5659V20.9066ZM92.8682 20.9066H98.0194V26.0578H92.8682V20.9066ZM103.207 20.9066H108.359V26.0578H103.207V20.9066ZM108.359 20.9066H113.51V26.0578H108.359V20.9066ZM113.51 20.9066H118.661V26.0578H113.51V20.9066ZM123.812 20.9066H128.963V26.0578H123.812V20.9066ZM0 26.0578H5.15117V31.2089H0V26.0578ZM30.9438 26.0578H36.095V31.2089H30.9438V26.0578ZM51.5853 26.0578H56.7364V31.2089H51.5853V26.0578ZM56.7364 26.0578H61.8876V31.2089H56.7364V26.0578ZM72.2267 26.0578H77.3779V31.2089H72.2267V26.0578ZM82.5659 26.0578H87.717V31.2089H82.5659V26.0578ZM92.8682 26.0578H98.0194V31.2089H92.8682V26.0578ZM123.812 26.0578H128.963V31.2089H123.812V26.0578ZM0 31.2089H5.15117V36.3601H0V31.2089ZM5.15117 31.2089H10.3023V36.3601H5.15117V31.2089ZM10.3023 31.2089H15.4535V36.3601H10.3023V31.2089ZM15.4903 31.2089H20.6415V36.3601H15.4903V31.2089ZM20.6415 31.2089H25.7926V36.3601H20.6415V31.2089ZM25.7926 31.2089H30.9438V36.3601H25.7926V31.2089ZM30.9438 31.2089H36.095V36.3601H30.9438V31.2089ZM41.2829 31.2089H46.4341V36.3601H41.2829V31.2089ZM51.5853 31.2089H56.7364V36.3601H51.5853V31.2089ZM61.9244 31.2089H67.0756V36.3601H61.9244V31.2089ZM72.2267 31.2089H77.3779V36.3601H72.2267V31.2089ZM82.5659 31.2089H87.717V36.3601H82.5659V31.2089ZM92.8682 31.2089H98.0194V36.3601H92.8682V31.2089ZM98.0194 31.2089H103.171V36.3601H98.0194V31.2089ZM103.207 31.2089H108.359V36.3601H103.207V31.2089ZM108.359 31.2089H113.51V36.3601H108.359V31.2089ZM113.51 31.2089H118.661V36.3601H113.51V31.2089ZM118.661 31.2089H123.812V36.3601H118.661V31.2089ZM123.812 31.2089H128.963V36.3601H123.812V31.2089ZM51.5853 36.3969H56.7364V41.5481H51.5853V36.3969ZM61.9244 36.3969H67.0756V41.5481H61.9244V36.3969ZM77.3779 36.3969H82.5291V41.5481H77.3779V36.3969ZM82.5659 36.3969H87.717V41.5481H82.5659V36.3969ZM0 41.5481H5.15117V46.6992H0V41.5481ZM5.15117 41.5481H10.3023V46.6992H5.15117V41.5481ZM10.3023 41.5481H15.4535V46.6992H10.3023V41.5481ZM15.4903 41.5481H20.6415V46.6992H15.4903V41.5481ZM30.9438 41.5481H36.095V46.6992H30.9438V41.5481ZM41.2829 41.5481H46.4341V46.6992H41.2829V41.5481ZM51.5853 41.5481H56.7364V46.6992H51.5853V41.5481ZM56.7364 41.5481H61.8876V46.6992H56.7364V41.5481ZM61.9244 41.5481H67.0756V46.6992H61.9244V41.5481ZM72.2267 41.5481H77.3779V46.6992H72.2267V41.5481ZM77.3779 41.5481H82.5291V46.6992H77.3779V41.5481ZM82.5659 41.5481H87.717V46.6992H82.5659V41.5481ZM87.717 41.5481H92.8682V46.6992H87.717V41.5481ZM103.207 41.5481H108.359V46.6992H103.207V41.5481ZM108.359 41.5481H113.51V46.6992H108.359V41.5481ZM113.51 41.5481H118.661V46.6992H113.51V41.5481ZM123.812 41.5481H128.963V46.6992H123.812V41.5481ZM10.3023 46.6992H15.4535V51.8504H10.3023V46.6992ZM25.7926 46.6992H30.9438V51.8504H25.7926V46.6992ZM36.1318 46.6992H41.2829V51.8504H36.1318V46.6992ZM41.2829 46.6992H46.4341V51.8504H41.2829V46.6992ZM51.5853 46.6992H56.7364V51.8504H51.5853V46.6992ZM61.9244 46.6992H67.0756V51.8504H61.9244V46.6992ZM72.2267 46.6992H77.3779V51.8504H72.2267V46.6992ZM98.0194 46.6992H103.171V51.8504H98.0194V46.6992ZM118.661 46.6992H123.812V51.8504H118.661V46.6992ZM0 51.8504H5.15117V57.0016H0V51.8504ZM5.15117 51.8504H10.3023V57.0016H5.15117V51.8504ZM10.3023 51.8504H15.4535V57.0016H10.3023V51.8504ZM15.4903 51.8504H20.6415V57.0016H15.4903V51.8504ZM30.9438 51.8504H36.095V57.0016H30.9438V51.8504ZM41.2829 51.8504H46.4341V57.0016H41.2829V51.8504ZM46.4341 51.8504H51.5853V57.0016H46.4341V51.8504ZM51.5853 51.8504H56.7364V57.0016H51.5853V51.8504ZM56.7364 51.8504H61.8876V57.0016H56.7364V51.8504ZM61.9244 51.8504H67.0756V57.0016H61.9244V51.8504ZM72.2267 51.8504H77.3779V57.0016H72.2267V51.8504ZM82.5659 51.8504H87.717V57.0016H82.5659V51.8504ZM92.8682 51.8504H98.0194V57.0016H92.8682V51.8504ZM98.0194 51.8504H103.171V57.0016H98.0194V51.8504ZM0 57.0016H5.15117V62.1528H0V57.0016ZM10.3023 57.0016H15.4535V62.1528H10.3023V57.0016ZM25.7926 57.0016H30.9438V62.1528H25.7926V57.0016ZM46.4341 57.0016H51.5853V62.1528H46.4341V57.0016ZM51.5853 57.0016H56.7364V62.1528H51.5853V57.0016ZM67.0756 57.0016H72.2267V62.1528H67.0756V57.0016ZM72.2267 57.0016H77.3779V62.1528H72.2267V57.0016ZM77.3779 57.0016H82.5291V62.1528H77.3779V57.0016ZM82.5659 57.0016H87.717V62.1528H82.5659V57.0016ZM92.8682 57.0016H98.0194V62.1528H92.8682V57.0016ZM103.207 57.0016H108.359V62.1528H103.207V57.0016ZM108.359 57.0016H113.51V62.1528H108.359V57.0016ZM113.51 57.0016H118.661V62.1528H113.51V57.0016ZM20.6415 62.1895H25.7926V67.3407H20.6415V62.1895ZM30.9438 62.1895H36.095V67.3407H30.9438V62.1895ZM46.4341 62.1895H51.5853V67.3407H46.4341V62.1895ZM51.5853 62.1895H56.7364V67.3407H51.5853V62.1895ZM61.9244 62.1895H67.0756V67.3407H61.9244V62.1895ZM67.0756 62.1895H72.2267V67.3407H67.0756V62.1895ZM72.2267 62.1895H77.3779V67.3407H72.2267V62.1895ZM87.717 62.1895H92.8682V67.3407H87.717V62.1895ZM92.8682 62.1895H98.0194V67.3407H92.8682V62.1895ZM103.207 62.1895H108.359V67.3407H103.207V62.1895ZM113.51 62.1895H118.661V67.3407H113.51V62.1895ZM118.661 62.1895H123.812V67.3407H118.661V62.1895ZM123.812 62.1895H128.963V67.3407H123.812V62.1895ZM25.7926 67.3407H30.9438V72.4919H25.7926V67.3407ZM36.1318 67.3407H41.2829V72.4919H36.1318V67.3407ZM41.2829 67.3407H46.4341V72.4919H41.2829V67.3407ZM56.7364 67.3407H61.8876V72.4919H56.7364V67.3407ZM61.9244 67.3407H67.0756V72.4919H61.9244V67.3407ZM67.0756 67.3407H72.2267V72.4919H67.0756V67.3407ZM77.3779 67.3407H82.5291V72.4919H77.3779V67.3407ZM82.5659 67.3407H87.717V72.4919H82.5659V67.3407ZM87.717 67.3407H92.8682V72.4919H87.717V67.3407ZM92.8682 67.3407H98.0194V72.4919H92.8682V67.3407ZM98.0194 67.3407H103.171V72.4919H98.0194V67.3407ZM103.207 67.3407H108.359V72.4919H103.207V67.3407ZM123.812 67.3407H128.963V72.4919H123.812V67.3407ZM5.15117 72.4919H10.3023V77.6431H5.15117V72.4919ZM10.3023 72.4919H15.4535V77.6431H10.3023V72.4919ZM15.4903 72.4919H20.6415V77.6431H15.4903V72.4919ZM25.7926 72.4919H30.9438V77.6431H25.7926V72.4919ZM30.9438 72.4919H36.095V77.6431H30.9438V72.4919ZM36.1318 72.4919H41.2829V77.6431H36.1318V72.4919ZM41.2829 72.4919H46.4341V77.6431H41.2829V72.4919ZM51.5853 72.4919H56.7364V77.6431H51.5853V72.4919ZM56.7364 72.4919H61.8876V77.6431H56.7364V72.4919ZM67.0756 72.4919H72.2267V77.6431H67.0756V72.4919ZM82.5659 72.4919H87.717V77.6431H82.5659V72.4919ZM87.717 72.4919H92.8682V77.6431H87.717V72.4919ZM103.207 72.4919H108.359V77.6431H103.207V72.4919ZM113.51 72.4919H118.661V77.6431H113.51V72.4919ZM118.661 72.4919H123.812V77.6431H118.661V72.4919ZM0 77.6431H5.15117V82.7942H0V77.6431ZM25.7926 77.6431H30.9438V82.7942H25.7926V77.6431ZM36.1318 77.6431H41.2829V82.7942H36.1318V77.6431ZM46.4341 77.6431H51.5853V82.7942H46.4341V77.6431ZM51.5853 77.6431H56.7364V82.7942H51.5853V77.6431ZM56.7364 77.6431H61.8876V82.7942H56.7364V77.6431ZM72.2267 77.6431H77.3779V82.7942H72.2267V77.6431ZM82.5659 77.6431H87.717V82.7942H82.5659V77.6431ZM87.717 77.6431H92.8682V82.7942H87.717V77.6431ZM92.8682 77.6431H98.0194V82.7942H92.8682V77.6431ZM98.0194 77.6431H103.171V82.7942H98.0194V77.6431ZM103.207 77.6431H108.359V82.7942H103.207V77.6431ZM123.812 77.6431H128.963V82.7942H123.812V77.6431ZM10.3023 82.831H15.4535V87.9822H10.3023V82.831ZM15.4903 82.831H20.6415V87.9822H15.4903V82.831ZM30.9438 82.831H36.095V87.9822H30.9438V82.831ZM36.1318 82.831H41.2829V87.9822H36.1318V82.831ZM51.5853 82.831H56.7364V87.9822H51.5853V82.831ZM67.0756 82.831H72.2267V87.9822H67.0756V82.831ZM77.3779 82.831H82.5291V87.9822H77.3779V82.831ZM82.5659 82.831H87.717V87.9822H82.5659V82.831ZM87.717 82.831H92.8682V87.9822H87.717V82.831ZM92.8682 82.831H98.0194V87.9822H92.8682V82.831ZM98.0194 82.831H103.171V87.9822H98.0194V82.831ZM103.207 82.831H108.359V87.9822H103.207V82.831ZM108.359 82.831H113.51V87.9822H108.359V82.831ZM113.51 82.831H118.661V87.9822H113.51V82.831ZM118.661 82.831H123.812V87.9822H118.661V82.831ZM123.812 82.831H128.963V87.9822H123.812V82.831ZM41.2829 87.9822H46.4341V93.1334H41.2829V87.9822ZM51.5853 87.9822H56.7364V93.1334H51.5853V87.9822ZM67.0756 87.9822H72.2267V93.1334H67.0756V87.9822ZM82.5659 87.9822H87.717V93.1334H82.5659V87.9822ZM103.207 87.9822H108.359V93.1334H103.207V87.9822ZM113.51 87.9822H118.661V93.1334H113.51V87.9822ZM123.812 87.9822H128.963V93.1334H123.812V87.9822ZM0 93.1334H5.15117V98.2845H0V93.1334ZM5.15117 93.1334H10.3023V98.2845H5.15117V93.1334ZM10.3023 93.1334H15.4535V98.2845H10.3023V93.1334ZM15.4903 93.1334H20.6415V98.2845H15.4903V93.1334ZM20.6415 93.1334H25.7926V98.2845H20.6415V93.1334ZM25.7926 93.1334H30.9438V98.2845H25.7926V93.1334ZM30.9438 93.1334H36.095V98.2845H30.9438V93.1334ZM46.4341 93.1334H51.5853V98.2845H46.4341V93.1334ZM51.5853 93.1334H56.7364V98.2845H51.5853V93.1334ZM67.0756 93.1334H72.2267V98.2845H67.0756V93.1334ZM82.5659 93.1334H87.717V98.2845H82.5659V93.1334ZM92.8682 93.1334H98.0194V98.2845H92.8682V93.1334ZM103.207 93.1334H108.359V98.2845H103.207V93.1334ZM113.51 93.1334H118.661V98.2845H113.51V93.1334ZM118.661 93.1334H123.812V98.2845H118.661V93.1334ZM123.812 93.1334H128.963V98.2845H123.812V93.1334ZM0 98.2845H5.15117V103.436H0V98.2845ZM30.9438 98.2845H36.095V103.436H30.9438V98.2845ZM46.4341 98.2845H51.5853V103.436H46.4341V98.2845ZM51.5853 98.2845H56.7364V103.436H51.5853V98.2845ZM77.3779 98.2845H82.5291V103.436H77.3779V98.2845ZM82.5659 98.2845H87.717V103.436H82.5659V98.2845ZM103.207 98.2845H108.359V103.436H103.207V98.2845ZM0 103.472H5.15117V108.624H0V103.472ZM10.3023 103.472H15.4535V108.624H10.3023V103.472ZM15.4903 103.472H20.6415V108.624H15.4903V103.472ZM20.6415 103.472H25.7926V108.624H20.6415V103.472ZM30.9438 103.472H36.095V108.624H30.9438V103.472ZM46.4341 103.472H51.5853V108.624H46.4341V103.472ZM51.5853 103.472H56.7364V108.624H51.5853V103.472ZM56.7364 103.472H61.8876V108.624H56.7364V103.472ZM82.5659 103.472H87.717V108.624H82.5659V103.472ZM87.717 103.472H92.8682V108.624H87.717V103.472ZM92.8682 103.472H98.0194V108.624H92.8682V103.472ZM98.0194 103.472H103.171V108.624H98.0194V103.472ZM103.207 103.472H108.359V108.624H103.207V103.472ZM108.359 103.472H113.51V108.624H108.359V103.472ZM123.812 103.472H128.963V108.624H123.812V103.472ZM0 108.624H5.15117V113.775H0V108.624ZM10.3023 108.624H15.4535V113.775H10.3023V108.624ZM15.4903 108.624H20.6415V113.775H15.4903V108.624ZM20.6415 108.624H25.7926V113.775H20.6415V108.624ZM30.9438 108.624H36.095V113.775H30.9438V108.624ZM41.2829 108.624H46.4341V113.775H41.2829V108.624ZM56.7364 108.624H61.8876V113.775H56.7364V108.624ZM72.2267 108.624H77.3779V113.775H72.2267V108.624ZM87.717 108.624H92.8682V113.775H87.717V108.624ZM92.8682 108.624H98.0194V113.775H92.8682V108.624ZM103.207 108.624H108.359V113.775H103.207V108.624ZM108.359 108.624H113.51V113.775H108.359V108.624ZM113.51 108.624H118.661V113.775H113.51V108.624ZM118.661 108.624H123.812V113.775H118.661V108.624ZM123.812 108.624H128.963V113.775H123.812V108.624ZM0 113.775H5.15117V118.926H0V113.775ZM10.3023 113.775H15.4535V118.926H10.3023V113.775ZM15.4903 113.775H20.6415V118.926H15.4903V113.775ZM20.6415 113.775H25.7926V118.926H20.6415V113.775ZM30.9438 113.775H36.095V118.926H30.9438V113.775ZM41.2829 113.775H46.4341V118.926H41.2829V113.775ZM51.5853 113.775H56.7364V118.926H51.5853V113.775ZM56.7364 113.775H61.8876V118.926H56.7364V113.775ZM67.0756 113.775H72.2267V118.926H67.0756V113.775ZM72.2267 113.775H77.3779V118.926H72.2267V113.775ZM82.5659 113.775H87.717V118.926H82.5659V113.775ZM87.717 113.775H92.8682V118.926H87.717V113.775ZM92.8682 113.775H98.0194V118.926H92.8682V113.775ZM103.207 113.775H108.359V118.926H103.207V113.775ZM113.51 113.775H118.661V118.926H113.51V113.775ZM118.661 113.775H123.812V118.926H118.661V113.775ZM0 118.926H5.15117V124.077H0V118.926ZM30.9438 118.926H36.095V124.077H30.9438V118.926ZM41.2829 118.926H46.4341V124.077H41.2829V118.926ZM51.5853 118.926H56.7364V124.077H51.5853V118.926ZM56.7364 118.926H61.8876V124.077H56.7364V118.926ZM67.0756 118.926H72.2267V124.077H67.0756V118.926ZM72.2267 118.926H77.3779V124.077H72.2267V118.926ZM87.717 118.926H92.8682V124.077H87.717V118.926ZM92.8682 118.926H98.0194V124.077H92.8682V118.926ZM103.207 118.926H108.359V124.077H103.207V118.926ZM113.51 118.926H118.661V124.077H113.51V118.926ZM0 124.077H5.15117V129.228H0V124.077ZM5.15117 124.077H10.3023V129.228H5.15117V124.077ZM10.3023 124.077H15.4535V129.228H10.3023V124.077ZM15.4903 124.077H20.6415V129.228H15.4903V124.077ZM20.6415 124.077H25.7926V129.228H20.6415V124.077ZM25.7926 124.077H30.9438V129.228H25.7926V124.077ZM30.9438 124.077H36.095V129.228H30.9438V124.077ZM41.2829 124.077H46.4341V129.228H41.2829V124.077ZM46.4341 124.077H51.5853V129.228H46.4341V124.077ZM51.5853 124.077H56.7364V129.228H51.5853V124.077ZM56.7364 124.077H61.8876V129.228H56.7364V124.077ZM67.0756 124.077H72.2267V129.228H67.0756V124.077ZM72.2267 124.077H77.3779V129.228H72.2267V124.077ZM92.8682 124.077H98.0194V129.228H92.8682V124.077ZM98.0194 124.077H103.171V129.228H98.0194V124.077ZM103.207 124.077H108.359V129.228H103.207V124.077ZM108.359 124.077H113.51V129.228H108.359V124.077ZM113.51 124.077H118.661V129.228H113.51V124.077ZM118.661 124.077H123.812V129.228H118.661V124.077ZM123.812 124.077H128.963V129.228H123.812V124.077Z" fill="white"/>
</g>
<defs>
<clipPath id="clip0_33_519">
<rect width="129" height="129" fill="white" transform="translate(0 0.265137)"/>
</clipPath>
</defs>
</svg>
