<svg width="474" height="157" viewBox="0 0 474 157" fill="none" xmlns="http://www.w3.org/2000/svg">
<path d="M15.355 28.93C14.215 29.95 13.155 31.1 12.155 32.31C13.195 32.53 14.245 32.68 15.355 32.68C16.465 32.68 17.525 32.54 18.555 32.31C17.575 31.1 16.495 29.95 15.355 28.93ZM1.695 22.1199C2.795 26.3499 5.83499 29.84 9.80499 31.53C10.985 30.08 12.285 28.7599 13.735 27.5799C10.235 24.8599 6.105 22.97 1.695 22.13V22.1199ZM20.905 31.53C24.875 29.85 27.915 26.3499 29.025 22.1199C24.625 22.9599 20.485 24.85 16.975 27.57C18.405 28.75 19.725 30.08 20.905 31.52V31.53ZM15.355 4.44995C7.56499 4.44995 1.245 10.77 1.245 18.57C1.245 19.43 1.33499 20.2699 1.48499 21.0799C6.52499 21.5999 11.305 23.43 15.355 26.32C19.425 23.42 24.195 21.5999 29.245 21.0799C29.395 20.2699 29.485 19.42 29.485 18.57C29.485 10.76 23.175 4.44995 15.365 4.44995H15.355ZM23.655 16.5099C23.655 16.8099 23.625 17.13 23.605 17.41C23.335 14.96 21.985 12.8199 20.055 11.5099C21.745 14.6499 21.265 18.6399 18.625 21.2899C18.395 21.5099 18.175 21.7199 17.945 21.8999C20.535 18.6399 20.355 13.88 17.335 10.86C17.065 10.58 16.775 10.34 16.485 10.11C16.425 10.11 16.335 10.1 16.285 10.09V23.11C16.285 23.63 15.865 24.03 15.365 24.03C14.865 24.03 14.455 23.63 14.455 23.11H14.465V10.09C14.385 10.1 14.305 10.11 14.225 10.11C13.955 10.34 13.655 10.58 13.405 10.86C10.365 13.88 10.175 18.6299 12.785 21.8999C12.545 21.7099 12.315 21.5099 12.105 21.2899C9.46499 18.6399 8.96499 14.6499 10.665 11.5099C8.72499 12.8299 7.395 14.96 7.125 17.41C7.095 17.13 7.06499 16.8099 7.06499 16.5099C7.06499 12.7599 9.56499 9.59995 12.965 8.57995C10.665 8.13995 8.19499 8.69995 6.27499 10.25C6.46499 10.02 6.66499 9.78995 6.89499 9.56995C9.17499 7.28995 12.475 6.60995 15.355 7.55995C18.235 6.60995 21.535 7.27995 23.835 9.56995C24.035 9.78995 24.245 10.02 24.435 10.25C22.505 8.69995 20.055 8.13995 17.745 8.57995C21.155 9.59995 23.655 12.7599 23.655 16.5099Z" fill="#A8A9AC"/>
<path d="M61.6651 27.08C61.3251 27.89 60.8151 28.69 60.2151 29.39C59.1651 30.54 57.5351 31.63 54.8551 31.63C50.6351 31.63 47.4451 26.96 47.4451 21.72C47.4451 16.86 50.7151 12.02 55.8351 12.02C59.0351 12.02 61.0651 14.23 61.7151 14.23C62.4751 14.23 62.6151 13 62.8951 12.49H64.0451C63.8451 13.42 63.8451 14.53 63.8451 15.47V26.83C63.8451 28.07 64.0451 30.4 66.6051 30.55H70.9551V31.64H67.7951C64.7651 31.64 62.2951 31.22 61.6651 27.09V27.08ZM55.8351 13.11C52.0751 13.11 50.2951 17.36 50.2951 22.01C50.2951 28.57 53.4051 30.54 55.4451 30.54C57.8851 30.54 59.9651 28.91 60.7351 26.48C61.1551 25.08 61.2451 23.5 61.2451 21.13C61.2451 17.34 60.6451 13.12 55.8351 13.12V13.11ZM53.7451 7.48004C52.8551 7.48004 52.1751 6.85004 52.1751 5.95004C52.1751 5.05004 52.8551 4.29004 53.7451 4.29004C54.6351 4.29004 55.3651 5.02004 55.3651 5.95004C55.3651 6.88004 54.6751 7.48004 53.7451 7.48004ZM59.4051 7.48004C58.4751 7.48004 57.7951 6.85004 57.7951 5.95004C57.7951 5.05004 58.4751 4.29004 59.4051 4.29004C60.3351 4.29004 60.9851 5.02004 60.9851 5.95004C60.9851 6.88004 60.3051 7.48004 59.4051 7.48004Z" fill="#363434"/>
<path d="M70.475 39.1699C69.575 39.1699 68.885 38.5299 68.885 37.5899C68.885 36.6499 69.575 35.9699 70.475 35.9699C71.375 35.9699 72.045 36.6899 72.045 37.5899C72.045 38.4899 71.415 39.1699 70.475 39.1699ZM84.745 31.6199C81.715 31.6199 79.855 30.3499 78.435 27.4499C77.925 30.1299 75.755 31.6199 72.765 31.6199H70.135V30.5299H71.995C74.725 30.4699 75.835 28.8599 75.835 26.1299V15.1999C75.835 14.1299 75.795 13.9499 74.345 13.5399L78.555 12.6799V23.4899C78.555 26.3499 80.465 30.5299 83.825 30.5299H85.135V31.6199H84.725H84.745ZM76.135 39.1699C75.215 39.1699 74.515 38.5299 74.515 37.5899C74.515 36.6499 75.205 35.9699 76.135 35.9699C77.065 35.9699 77.725 36.6899 77.725 37.5899C77.725 38.4899 77.025 39.1699 76.135 39.1699Z" fill="#363434"/>
<path d="M84.3551 30.53H84.7451C87.5851 30.53 88.7451 28.86 88.7451 26.13V6.99001C88.7451 5.93001 88.7051 5.53001 87.2451 5.12001L91.4551 4.26001V26.14C91.4551 29.68 89.1251 31.63 85.6351 31.63H84.3551V30.54V30.53Z" fill="#363434"/>
<path d="M98.9951 26.4V7.23C98.9951 6.03 98.3651 5.6 95.8451 5.6V4.5L101.685 4.25V26.65C101.685 29.07 102.905 30.38 105.085 30.53H106.835V31.62H104.875C101.465 31.62 98.9951 30.38 98.9951 26.4Z" fill="#363434"/>
<path d="M133.145 31.62C130.125 31.62 128.555 30.35 127.015 27.92C125.995 30.94 123.275 33.51 118.895 33.51C115.105 33.51 113.215 31.24 111.955 29.5L111.785 29.33C110.705 30.74 109.645 31.62 107.275 31.62H106.035V30.53H107.325C107.615 30.47 108.735 30.31 109.335 29.71C113.625 25.74 110.515 15.67 120.005 15.67C124.915 15.67 127.595 20.82 127.595 24.77C127.595 25.29 127.545 25.84 127.465 26.3C128.185 28.47 129.895 30.53 132.235 30.53H133.175C136.035 30.53 137.175 28.86 137.175 26.13V6.99001C137.175 5.93001 137.145 5.53001 135.645 5.12001L139.855 4.26001V26.14C139.855 29.68 137.525 31.63 134.075 31.63H133.175L133.145 31.62ZM119.275 16.63C114.325 16.63 114.845 23.87 112.435 28.31C112.615 28.43 112.745 28.57 112.785 28.69C113.945 30.05 115.845 32.4 119.055 32.4C122.075 32.4 124.695 29.08 124.695 24.98C124.695 20.88 122.915 16.77 119.385 16.63H119.275Z" fill="#363434"/>
<path d="M146.125 6.99001C146.125 5.93001 146.085 5.53001 144.605 5.12001L148.815 4.26001V31.63H146.125V6.99001Z" fill="#363434"/>
<path d="M185.225 24.98C185.225 31.93 181.125 39.17 173.085 39.17C165.045 39.17 160.895 31.93 160.895 24.98V18.86C160.895 17.71 160.275 17.28 157.755 17.28V16.18L163.595 15.92V24.99C163.595 35.22 168.355 38.03 173.095 38.03C177.175 38.03 181.345 35.89 182.295 28.58C181.185 30.48 179.515 31.64 176.455 31.64C173.735 31.64 170.335 29.09 170.335 25.05C170.335 17.55 175.445 12.73 182.545 12.73H185.265L185.235 25L185.225 24.98ZM182.535 13.88C182.155 13.79 181.805 13.74 181.505 13.74C177.385 13.74 172.995 18.15 172.995 24.77C172.995 27.37 174.485 30.57 177.335 30.69C180.315 30.69 182.535 27.46 182.535 23.92V13.88ZM178.055 7.92002C177.165 7.92002 176.495 7.27002 176.495 6.38002C176.495 5.49002 177.155 4.77002 178.055 4.77002C179.005 4.77002 179.685 5.45002 179.685 6.38002C179.685 7.31002 178.995 7.92002 178.055 7.92002ZM183.725 7.92002C182.785 7.92002 182.145 7.27002 182.145 6.38002C182.145 5.49002 182.775 4.77002 183.725 4.77002C184.615 4.77002 185.285 5.45002 185.285 6.38002C185.285 7.31002 184.615 7.92002 183.725 7.92002Z" fill="#363434"/>
<path d="M211.105 31.62H204.965C203.525 38.14 198.795 39.68 195.335 39.68C194.745 39.68 194.155 39.62 192.575 39.5C196.405 38.66 200.825 37.51 202.235 31.62H196.575C193.885 31.62 190.445 29.07 190.445 25.03C190.445 17.53 195.545 12.71 202.655 12.71H205.425V27.96C205.425 28.89 205.295 29.75 205.175 30.52H211.095V31.61L211.105 31.62ZM202.675 28.14V13.88C202.345 13.79 201.965 13.74 201.645 13.74C197.575 13.74 193.135 18.15 193.135 24.77C193.135 27.41 194.625 30.38 197.515 30.53H202.455C202.585 29.76 202.635 29.03 202.675 28.14Z" fill="#363434"/>
<path d="M210.285 30.5299H210.715C213.565 30.5299 214.695 28.8599 214.695 26.1299V18.3899C214.695 17.3299 214.635 17.1499 213.185 16.7299L217.355 15.8799V23.4899C217.355 26.2999 219.225 30.5299 222.575 30.5299C225.485 30.5299 226.625 28.8599 226.625 26.1299V16.8099C226.625 15.6999 226.595 15.5799 225.105 15.1099L229.315 14.2999V23.4899C229.315 26.3499 231.275 30.5299 234.585 30.5299C237.485 30.5299 238.645 28.8599 238.645 26.1299V15.1999C238.645 14.1299 238.595 13.9499 237.105 13.5399L241.315 12.6799V23.4899C241.315 26.3499 243.285 30.5299 246.595 30.5299H247.915V31.6199H247.515C244.515 31.6199 242.645 30.3099 241.185 27.4499C240.685 30.1299 238.545 31.6199 235.545 31.6199C232.545 31.6199 230.775 30.4399 229.195 27.4499C228.685 30.1299 226.515 31.6199 223.625 31.6199C220.735 31.6199 218.975 30.3799 217.455 27.8799L217.315 27.6699C216.735 30.2199 214.595 31.6199 211.625 31.6199H210.295V30.5299H210.285Z" fill="#363434"/>
<path d="M247.155 30.53H247.525C250.395 30.53 251.555 28.86 251.555 26.13V6.99001C251.555 5.93001 251.505 5.53001 250.045 5.12001L254.275 4.26001V26.14C254.275 29.68 251.925 31.63 248.435 31.63H247.155V30.54V30.53Z" fill="#363434"/>
<path d="M260.565 6.99001C260.565 5.93001 260.525 5.53001 259.035 5.12001L263.245 4.26001V31.63H260.565V6.99001Z" fill="#363434"/>
<path d="M289.595 27.08C289.265 27.89 288.755 28.69 288.145 29.39C287.085 30.54 285.475 31.63 282.795 31.63C278.555 31.63 275.375 26.96 275.375 21.72C275.375 16.86 278.645 12.02 283.765 12.02C286.955 12.02 289.005 14.23 289.645 14.23C290.405 14.23 290.525 13 290.825 12.49H291.965C291.765 13.42 291.765 14.53 291.765 15.47V26.83C291.765 28.07 291.965 30.4 294.525 30.55H298.865V31.64H295.735C292.715 31.64 290.235 31.22 289.585 27.09L289.595 27.08ZM283.775 13.11C280.025 13.11 278.235 17.36 278.235 22.01C278.235 28.57 281.345 30.54 283.405 30.54C285.815 30.54 287.905 28.91 288.675 26.48C289.105 25.08 289.185 23.5 289.185 21.13C289.185 17.34 288.605 13.12 283.775 13.12V13.11ZM281.695 7.48004C280.805 7.48004 280.115 6.85004 280.115 5.95004C280.115 5.05004 280.805 4.29004 281.695 4.29004C282.585 4.29004 283.305 5.02004 283.305 5.95004C283.305 6.88004 282.605 7.48004 281.695 7.48004ZM287.365 7.48004C286.415 7.48004 285.735 6.85004 285.735 5.95004C285.735 5.05004 286.415 4.29004 287.365 4.29004C288.245 4.29004 288.925 5.02004 288.925 5.95004C288.925 6.88004 288.245 7.48004 287.365 7.48004Z" fill="#363434"/>
<path d="M312.675 31.62C309.655 31.62 307.785 30.35 306.375 27.45C305.875 30.13 303.695 31.62 300.715 31.62H298.075V30.53H299.955C302.665 30.47 303.785 28.86 303.785 26.13V15.2C303.785 14.13 303.735 13.95 302.275 13.54L306.495 12.68V23.49C306.495 26.35 308.405 30.53 311.775 30.53H313.105V31.62H312.675ZM307.225 7.53001V6.60001H305.745C303.695 6.60001 302.625 4.42001 302.625 3.06001C302.625 2.09001 303.175 1.11001 304.285 1.11001C304.795 1.11001 305.315 1.19001 305.485 1.63001C305.235 1.80001 304.935 2.21001 304.935 2.56001C304.935 3.06001 305.355 3.45001 305.835 3.45001C306.315 3.45001 306.675 3.19001 306.675 2.39001C306.675 1.16001 305.695 0.26001 304.375 0.26001C302.465 0.26001 301.315 1.80001 301.315 3.58001C301.315 4.94001 302.345 6.05001 303.225 6.61001H300.965L300.585 7.54001H307.225V7.53001Z" fill="#363434"/>
<path d="M312.645 39.1699C311.745 39.1699 311.065 38.5299 311.065 37.5899C311.065 36.6499 311.745 35.9699 312.645 35.9699C313.545 35.9699 314.215 36.6899 314.215 37.5899C314.215 38.4899 313.575 39.1699 312.645 39.1699ZM326.905 31.6199C323.875 31.6199 322.015 30.3499 320.595 27.4499C320.105 30.1299 317.925 31.6199 314.925 31.6199H312.285V30.5299H314.165C316.895 30.4699 317.995 28.8599 317.995 26.1299V15.1999C317.995 14.1299 317.935 13.9499 316.505 13.5399L320.725 12.6799V23.4899C320.725 26.3499 322.645 30.5299 326.005 30.5299H327.315V31.6199H326.895H326.905ZM318.305 39.1699C317.355 39.1699 316.675 38.5299 316.675 37.5899C316.675 36.6499 317.355 35.9699 318.305 35.9699C319.195 35.9699 319.875 36.6899 319.875 37.5899C319.875 38.4899 319.195 39.1699 318.305 39.1699Z" fill="#363434"/>
<path d="M350.265 31.6199H326.515V30.53H330.045C330.085 30.17 330.175 29.89 330.215 29.57C330.245 28.98 330.385 28.43 330.515 27.92C331.275 24.26 333.675 20.9399 337.705 20.9399C341.195 20.9399 343.155 23.36 343.155 25.92C343.155 27.78 342.045 29.66 339.495 30.52H347.065C347.065 20.38 342.855 15.31 339.055 15.31C334.075 15.31 332.585 18.2 331.865 22.34H331.365C331.445 16.34 335.065 14.2 338.985 14.2H339.025C345.495 14.2 350.255 22.56 350.255 30.52V31.61L350.265 31.6199ZM330.985 30.53H333.315C336.435 30.53 340.605 29.16 340.605 25.2C340.605 23.16 338.865 22.13 337.155 22.13C334.665 22.13 332.135 24.52 331.485 27.71L330.975 30.53H330.985Z" fill="#363434"/>
<path d="M19.685 60.3401H18.695C18.005 56.6301 15.955 52.2901 11.495 52.2901C8.015 52.2901 4.03501 54.8201 4.03501 63.9701C4.03501 73.1201 7.445 75.6501 11.645 75.6501C16.275 75.6501 18.845 71.9801 19.045 66.7901H20.255C20.255 72.8401 17.055 76.6601 11.645 76.6601C4.415 76.6601 0.755005 70.1801 0.755005 63.9801C0.755005 56.7601 5.705 51.3101 11.645 51.3101C15.055 51.3101 16.805 53.5901 17.555 53.5901C18.195 53.5901 18.485 52.5101 18.695 52.0901H19.685V60.3501V60.3401Z" fill="#363434"/>
<path d="M33.605 64.2501V73.7201C33.605 74.7901 34.025 75.0001 34.555 75.0001C35.245 75.0001 35.655 74.3601 35.655 72.2301H36.645C36.645 74.6101 35.975 76.2201 33.725 76.2201C32.095 76.2201 31.305 75.1501 31.235 73.1501H31.175C30.185 75.0801 28.325 76.6501 25.715 76.6501C23.395 76.6501 20.915 75.2501 20.915 72.4801C20.915 67.9501 27.895 66.7301 31.165 65.8801V63.3601C31.165 61.3401 30.105 60.0501 27.535 60.0501C26.035 60.0501 24.505 60.5901 23.545 61.3401L23.625 61.4201C24.335 61.4501 25.115 61.9801 25.115 62.9501C25.115 63.7901 24.515 64.6901 23.435 64.6901C22.445 64.6901 21.825 63.9401 21.825 62.6901C21.825 60.7201 24.255 59.0701 27.455 59.0701C31.375 59.0701 33.595 60.3601 33.595 64.2601L33.605 64.2501ZM31.175 66.8201C27.925 67.5301 23.635 68.5301 23.635 72.7301C23.635 74.3601 25.085 75.4201 26.555 75.4201C29.075 75.4201 31.175 72.6501 31.175 69.3601V66.8101V66.8201Z" fill="#363434"/>
<path d="M38.845 61.9C38.845 60.84 38.275 60.47 36.015 60.47V59.4901L41.215 59.2801V62.44H41.285C42.465 60.76 43.315 59.05 46.475 59.05C50.755 59.05 53.645 63.3901 53.645 67.8501C53.645 72.3101 50.755 76.65 45.915 76.65C43.985 76.65 42.345 75.85 41.315 74.4H41.245V79.84C41.245 80.9 41.825 81.2701 44.165 81.2701V82.2801H35.765V81.2701C38.255 81.2701 38.835 80.91 38.835 79.84V61.91L38.845 61.9ZM41.255 67.8501C41.255 73.9401 42.475 75.65 46.165 75.65C48.785 75.65 51.075 73.4401 51.075 67.8501C51.075 62.2601 48.785 60.05 46.165 60.05C43.545 60.05 41.255 62.2601 41.255 67.8501Z" fill="#363434"/>
<path d="M63.1151 76.2199H54.6951V75.2199C57.1951 75.2199 57.7651 74.8699 57.7651 73.7899V61.9099C57.7651 60.8499 57.1851 60.4799 54.9451 60.4799V59.4999L60.1851 59.2899V73.7999C60.1851 74.8799 60.7551 75.2299 63.1051 75.2299V76.2299L63.1151 76.2199ZM60.3951 53.6799C60.3951 54.6499 59.6551 55.3599 58.6951 55.3599C57.7351 55.3599 56.9651 54.6399 56.9651 53.6799C56.9651 52.7199 57.7151 51.9399 58.6951 51.9399C59.6751 51.9399 60.3951 52.6899 60.3951 53.6799Z" fill="#363434"/>
<path d="M73.525 59.05V60.04H68.195V72.68C68.195 74.89 69.285 75.64 70.515 75.64C71.555 75.64 73.115 74.86 73.115 72.04V70.51H74.105V71.8C74.105 74.65 72.795 76.65 69.885 76.65C67.275 76.65 65.795 75.21 65.795 72.52V60.05H63.155V59.06C66.145 59.06 66.985 56.15 67.215 53.73H68.195V59.06H73.525V59.05Z" fill="#363434"/>
<path d="M87.945 64.2501V73.7201C87.945 74.7901 88.375 75.0001 88.915 75.0001C89.585 75.0001 89.995 74.3601 89.995 72.2301H91.005C91.005 74.6101 90.335 76.2201 88.095 76.2201C86.445 76.2201 85.665 75.1501 85.585 73.1501H85.515C84.515 75.0801 82.685 76.6501 80.085 76.6501C77.765 76.6501 75.285 75.2501 75.285 72.4801C75.285 67.9501 82.255 66.7301 85.525 65.8801V63.3601C85.525 61.3401 84.465 60.0501 81.905 60.0501C80.415 60.0501 78.865 60.5901 77.915 61.3401L77.985 61.4201C78.705 61.4501 79.485 61.9801 79.485 62.9501C79.485 63.7901 78.865 64.6901 77.815 64.6901C76.765 64.6901 76.205 63.9401 76.205 62.6901C76.205 60.7201 78.625 59.0701 81.825 59.0701C85.735 59.0701 87.945 60.3601 87.945 64.2601V64.2501ZM85.515 66.8201C82.275 67.5301 77.975 68.5301 77.975 72.7301C77.975 74.3601 79.435 75.4201 80.895 75.4201C83.425 75.4201 85.515 72.6501 85.515 69.3601V66.8101V66.8201Z" fill="#363434"/>
<path d="M96.635 73.78C96.635 74.86 97.205 75.21 99.545 75.21V76.21H91.135V75.21C93.645 75.21 94.215 74.86 94.215 73.78V54.29C94.215 53.22 93.635 52.87 91.405 52.87V51.86L96.625 51.73V73.78H96.635Z" fill="#363434"/>
<path d="M109.355 51.74H116.265L122.665 71.44H122.805L129.565 51.74H136.185V52.72C133.415 52.72 132.945 52.9 132.945 55.17V72.76C132.945 75.04 133.415 75.22 136.255 75.22V76.22H126.885V75.22C129.845 75.22 130.235 75.04 130.235 72.76V53.59H130.165L122.295 76.22H121.465L113.955 53.59H113.865V72.66C113.865 74.41 114.695 75.15 117.255 75.22V76.22H109.345V75.22C111.845 75.15 112.665 74.41 112.665 72.66V55.18C112.665 52.91 112.205 52.73 109.345 52.73V51.75L109.355 51.74Z" fill="#363434"/>
<path d="M149.745 64.2501V73.7201C149.745 74.7901 150.175 75.0001 150.705 75.0001C151.375 75.0001 151.805 74.3601 151.805 72.2301H152.805C152.805 74.6101 152.125 76.2201 149.885 76.2201C148.235 76.2201 147.465 75.1501 147.405 73.1501H147.325C146.315 75.0801 144.485 76.6501 141.875 76.6501C139.545 76.6501 137.065 75.2501 137.065 72.4801C137.065 67.9501 144.035 66.7301 147.325 65.8801V63.3601C147.325 61.3401 146.245 60.0501 143.695 60.0501C142.195 60.0501 140.665 60.5901 139.705 61.3401L139.785 61.4201C140.485 61.4501 141.285 61.9801 141.285 62.9501C141.285 63.7901 140.675 64.6901 139.605 64.6901C138.605 64.6901 137.995 63.9401 137.995 62.6901C137.995 60.7201 140.445 59.0701 143.625 59.0701C147.555 59.0701 149.745 60.3601 149.745 64.2601V64.2501ZM147.335 66.8201C144.095 67.5301 139.785 68.5301 139.785 72.7301C139.785 74.3601 141.245 75.4201 142.695 75.4201C145.235 75.4201 147.335 72.6501 147.335 69.3601V66.8101V66.8201Z" fill="#363434"/>
<path d="M155.875 61.9001C155.875 60.8401 155.305 60.4701 153.055 60.4701V59.4901L158.285 59.2801V63.5501H158.385C159.185 61.4901 160.455 59.0601 163.025 59.0601C164.445 59.0601 165.765 59.9301 165.765 61.5101C165.765 62.5901 165.105 63.2501 164.125 63.2501C163.145 63.2501 162.485 62.7301 162.485 61.6601C162.485 61.0301 162.785 60.5201 163.345 60.2301C163.245 60.0901 163.035 60.0501 162.825 60.0501C161.895 60.0501 159.715 61.1201 158.795 65.2201C158.295 67.4601 158.295 70.7701 158.295 73.0801C158.295 74.8701 158.885 75.2201 161.505 75.2201V76.2201H153.035V75.2201C155.315 75.2201 155.885 74.8701 155.885 73.7901V61.9101L155.875 61.9001Z" fill="#363434"/>
<path d="M182.845 59.49V60.47C180.215 60.7 179.155 61.54 174.725 65.96L179.335 73.01C180.675 75.11 181.105 75.21 183.105 75.21V76.21H178.725L172.995 67.48L171.355 68.98V73.78C171.355 74.86 171.915 75.21 174.275 75.21V76.21H165.875V75.21C168.355 75.21 168.935 74.86 168.935 73.78V54.29C168.935 53.22 168.355 52.87 166.125 52.87V51.86L171.365 51.73V67.8L176.845 62.83C177.455 62.25 177.945 61.76 177.945 61.2C177.945 60.64 177.305 60.48 175.245 60.48V59.5H182.865L182.845 59.49Z" fill="#363434"/>
<path d="M185.885 67.46V68.48C185.885 72.48 187.825 75.64 191.345 75.64C194.435 75.64 195.645 74.21 197.005 72.22L197.865 72.79C195.725 75.93 194.055 76.64 191.055 76.64C186.185 76.64 183.205 72.28 183.205 67.84C183.205 62.64 186.075 59.04 190.905 59.04C195.335 59.04 197.865 63.24 197.865 67.44H185.885V67.46ZM195.145 66.45C195.145 63.55 194.275 60.05 190.625 60.05C187.355 60.05 185.885 63.36 185.885 66.45H195.145Z" fill="#363434"/>
<path d="M208.195 59.05V60.04H202.865V72.68C202.865 74.89 203.935 75.64 205.165 75.64C206.205 75.64 207.765 74.86 207.765 72.04V70.51H208.765V71.8C208.765 74.65 207.445 76.65 204.525 76.65C201.925 76.65 200.445 75.21 200.445 72.52V60.05H197.805V59.06C200.795 59.06 201.645 56.15 201.855 53.73H202.875V59.06H208.205L208.195 59.05Z" fill="#363434"/>
<path d="M215.995 76.22V75.22C218.315 75.22 219.095 74.9 219.565 73.66L227.755 51.75H228.615L236.765 73.87C237.185 75.01 238.005 75.23 239.855 75.23V76.23H230.775V75.23C233.405 75.23 233.935 74.94 233.935 74.23C233.935 73.24 232.135 69.07 231.815 67.9H222.945C222.785 68.5 220.915 73.2 220.915 74.27C220.915 75.1 221.705 75.23 224.135 75.23V76.23H216.005L215.995 76.22ZM223.365 66.67H231.385L227.395 55.71L223.365 66.67Z" fill="#363434"/>
<path d="M253.735 73.78C253.735 74.86 254.295 75.21 256.405 75.21V76.21L251.315 76.42V73.78H251.245C249.995 75.53 248.715 76.64 245.905 76.64C242.845 76.64 240.555 75.53 240.555 71.94V61.9C240.555 60.84 239.985 60.47 237.755 60.47V59.49L242.985 59.28V72.2C242.985 74.47 244.215 75.65 246.335 75.65C249.315 75.65 251.305 73.23 251.305 69.23V61.91C251.305 60.85 250.745 60.48 248.485 60.48V59.5L253.725 59.29V73.8L253.735 73.78Z" fill="#363434"/>
<path d="M265.975 59.05V60.04H260.645V72.68C260.645 74.89 261.715 75.64 262.945 75.64C263.975 75.64 265.535 74.86 265.535 72.04V70.51H266.535V71.8C266.535 74.65 265.215 76.65 262.305 76.65C259.715 76.65 258.215 75.21 258.215 72.52V60.05H255.585V59.06C258.575 59.06 259.415 56.15 259.635 53.73H260.635V59.06H265.965L265.975 59.05Z" fill="#363434"/>
<path d="M280.905 76.22V64.68C280.905 62.83 280.905 60.05 277.625 60.05C274.835 60.05 272.575 62.77 272.575 67.46V73.79C272.575 74.87 273.145 75.22 275.415 75.22V76.22H267.125V75.22C269.585 75.22 270.165 74.87 270.165 73.79V54.3C270.165 53.23 269.585 52.88 267.345 52.88V51.87L272.575 51.74V62.4H272.645C273.895 60.16 275.425 59.06 278.205 59.06C281.335 59.06 283.325 60.59 283.325 64.33V73.8C283.325 74.88 283.755 75.23 286.085 75.23V76.23H280.905V76.22Z" fill="#363434"/>
<path d="M285.905 67.8501C285.905 63.4001 288.785 59.05 293.625 59.05C298.465 59.05 301.345 63.3901 301.345 67.8501C301.345 72.3101 298.485 76.65 293.625 76.65C288.765 76.65 285.905 72.2901 285.905 67.8501ZM298.635 67.8501C298.635 62.8301 297.065 60.05 293.615 60.05C290.165 60.05 288.595 62.8301 288.595 67.8501C288.595 72.8701 290.165 75.65 293.615 75.65C297.065 75.65 298.635 72.8801 298.635 67.8501Z" fill="#363434"/>
<path d="M303.825 61.9001C303.825 60.8401 303.245 60.4701 301.005 60.4701V59.4901L306.245 59.2801V63.5501H306.315C307.135 61.4901 308.405 59.0601 310.975 59.0601C312.405 59.0601 313.715 59.9301 313.715 61.5101C313.715 62.5901 313.035 63.2501 312.075 63.2501C311.115 63.2501 310.445 62.7301 310.445 61.6601C310.445 61.0301 310.725 60.5201 311.295 60.2301C311.185 60.0901 310.975 60.0501 310.765 60.0501C309.835 60.0501 307.665 61.1201 306.735 65.2201C306.245 67.4601 306.245 70.7701 306.245 73.0801C306.245 74.8701 306.805 75.2201 309.445 75.2201V76.2201H300.975V75.2201C303.255 75.2201 303.825 74.8701 303.825 73.7901V61.9101V61.9001Z" fill="#363434"/>
<path d="M322.945 76.2199H314.545V75.2199C317.045 75.2199 317.615 74.8699 317.615 73.7899V61.9099C317.615 60.8499 317.055 60.4799 314.815 60.4799V59.4999L320.045 59.2899V73.7999C320.045 74.8799 320.595 75.2299 322.945 75.2299V76.2299V76.2199ZM320.255 53.6799C320.255 54.6499 319.495 55.3599 318.545 55.3599C317.595 55.3599 316.835 54.6399 316.835 53.6799C316.835 52.7199 317.575 51.9399 318.545 51.9399C319.455 51.9399 320.255 52.6899 320.255 53.6799Z" fill="#363434"/>
<path d="M332.645 59.2402V60.2302H327.295V72.8702C327.295 75.0802 328.365 75.8302 329.605 75.8302C330.645 75.8302 332.215 75.0502 332.215 72.2302V70.7002H333.215V71.9902C333.215 74.8402 331.895 76.8402 328.975 76.8402C326.385 76.8402 324.895 75.4002 324.895 72.7102V60.2502H322.255V59.2602C325.225 59.2602 326.085 56.3502 326.305 53.9302H327.295V59.2602H332.645V59.2402Z" fill="#363434"/>
<path d="M332.335 59.25H340.345V60.24C337.755 60.24 337.465 60.56 337.465 61.08C337.465 61.96 339.525 66.72 341.875 72.51H341.955C344.305 66.49 346.155 62.58 346.155 61.36C346.155 60.55 345.605 60.23 343.515 60.23V59.24H350.265V60.23C348.445 60.23 347.885 60.59 347.205 62.25L341.865 75.59C339.905 80.51 338.725 82 336.075 82C334.255 82 332.695 80.76 332.695 79.15C332.695 78.03 333.505 77.24 334.495 77.24C335.365 77.24 336.075 77.84 336.075 78.62C336.075 79.69 335.475 80.29 334.395 80.36C334.635 80.76 335.325 81 336.245 81C338.285 81 339.735 78.86 340.615 75.53L335.065 61.57C334.625 60.47 333.745 60.22 332.325 60.22V59.23L332.335 59.25Z" fill="#363434"/>
<path d="M418.925 54.29L391.045 82.17L391.075 0.0200195L418.925 54.29Z" fill="url(#paint0_linear_33_297)"/>
<path d="M445.375 27.88L473.235 0L391.075 0.0200005L445.375 27.88Z" fill="#8CD1F4"/>
<path d="M418.925 54.29L391.045 82.17H473.245L418.925 54.29Z" fill="#036AAB"/>
<path d="M445.345 27.89L473.225 0.0200195L473.245 82.17L445.345 27.89Z" fill="url(#paint1_linear_33_297)"/>
<path d="M12.7378 129.392L11.6498 126.736H6.03382L4.99382 129.28H3.45782L8.00182 118.416L9.69782 118.208L14.2258 129.168L12.7378 129.392ZM6.54582 125.488H11.1378L8.83382 119.872L6.54582 125.488ZM16.8321 123.36C16.8321 123.712 17.0027 123.989 17.3441 124.192C17.6854 124.384 18.0961 124.533 18.5761 124.64C19.0667 124.736 19.5521 124.853 20.0321 124.992C20.5121 125.12 20.9227 125.349 21.2641 125.68C21.6054 126 21.7761 126.432 21.7761 126.976C21.7761 127.787 21.4881 128.4 20.9121 128.816C20.3361 129.232 19.5201 129.44 18.4641 129.44C17.1734 129.44 16.0961 129.211 15.2321 128.752L15.5201 127.664C16.4267 128.123 17.3974 128.352 18.4321 128.352C19.6801 128.352 20.3041 127.909 20.3041 127.024C20.3041 126.672 20.1334 126.395 19.7921 126.192C19.4614 125.989 19.0507 125.84 18.5601 125.744C18.0801 125.637 17.5947 125.52 17.1041 125.392C16.6241 125.253 16.2134 125.019 15.8721 124.688C15.5414 124.347 15.3761 123.904 15.3761 123.36C15.3761 122.613 15.6587 122.053 16.2241 121.68C16.7894 121.307 17.5521 121.12 18.5121 121.12C19.8027 121.12 20.8801 121.344 21.7441 121.792L21.4721 122.88C20.5867 122.432 19.6107 122.208 18.5441 122.208C17.4027 122.208 16.8321 122.592 16.8321 123.36ZM31.0739 125.04C31.0739 125.36 31.0686 125.584 31.0579 125.712H24.7379C24.8233 126.544 25.1166 127.195 25.6179 127.664C26.1299 128.133 26.8286 128.368 27.7139 128.368C28.6739 128.368 29.5859 128.149 30.4499 127.712L30.7219 128.736C29.8153 129.205 28.7806 129.44 27.6179 129.44C26.1993 129.44 25.1113 129.072 24.3539 128.336C23.6073 127.589 23.2339 126.571 23.2339 125.28C23.2339 124.011 23.6073 123.003 24.3539 122.256C25.1006 121.499 26.1033 121.12 27.3619 121.12C28.0553 121.12 28.6473 121.227 29.1379 121.44C29.6393 121.653 30.0233 121.952 30.2899 122.336C30.5673 122.72 30.7646 123.136 30.8819 123.584C31.0099 124.021 31.0739 124.507 31.0739 125.04ZM24.7539 124.656H29.6339C29.6233 123.899 29.4473 123.296 29.1059 122.848C28.7753 122.4 28.1779 122.176 27.3139 122.176C26.6206 122.176 26.0446 122.395 25.5859 122.832C25.1273 123.259 24.8499 123.867 24.7539 124.656ZM40.4646 125.04C40.4646 125.36 40.4592 125.584 40.4486 125.712H34.1286C34.2139 126.544 34.5072 127.195 35.0086 127.664C35.5206 128.133 36.2192 128.368 37.1046 128.368C38.0646 128.368 38.9766 128.149 39.8406 127.712L40.1126 128.736C39.2059 129.205 38.1712 129.44 37.0086 129.44C35.5899 129.44 34.5019 129.072 33.7446 128.336C32.9979 127.589 32.6246 126.571 32.6246 125.28C32.6246 124.011 32.9979 123.003 33.7446 122.256C34.4912 121.499 35.4939 121.12 36.7526 121.12C37.4459 121.12 38.0379 121.227 38.5286 121.44C39.0299 121.653 39.4139 121.952 39.6806 122.336C39.9579 122.72 40.1552 123.136 40.2726 123.584C40.4006 124.021 40.4646 124.507 40.4646 125.04ZM34.1446 124.656H39.0246C39.0139 123.899 38.8379 123.296 38.4966 122.848C38.1659 122.4 37.5686 122.176 36.7046 122.176C36.0112 122.176 35.4352 122.395 34.9766 122.832C34.5179 123.259 34.2406 123.867 34.1446 124.656ZM42.4472 129.28V117.808L43.8872 117.6V129.28H42.4472ZM50.8707 119.824L49.7667 118.752L50.8707 117.696L51.9427 118.752L50.8707 119.824ZM51.5747 129.28H50.1347V121.28H51.5747V129.28ZM55.0664 123.36C55.0664 123.712 55.2371 123.989 55.5784 124.192C55.9198 124.384 56.3304 124.533 56.8104 124.64C57.3011 124.736 57.7864 124.853 58.2664 124.992C58.7464 125.12 59.1571 125.349 59.4984 125.68C59.8398 126 60.0104 126.432 60.0104 126.976C60.0104 127.787 59.7224 128.4 59.1464 128.816C58.5704 129.232 57.7544 129.44 56.6984 129.44C55.4078 129.44 54.3304 129.211 53.4664 128.752L53.7544 127.664C54.6611 128.123 55.6318 128.352 56.6664 128.352C57.9144 128.352 58.5384 127.909 58.5384 127.024C58.5384 126.672 58.3678 126.395 58.0264 126.192C57.6958 125.989 57.2851 125.84 56.7944 125.744C56.3144 125.637 55.8291 125.52 55.3384 125.392C54.8584 125.253 54.4478 125.019 54.1064 124.688C53.7758 124.347 53.6104 123.904 53.6104 123.36C53.6104 122.613 53.8931 122.053 54.4584 121.68C55.0238 121.307 55.7864 121.12 56.7464 121.12C58.0371 121.12 59.1144 121.344 59.9784 121.792L59.7064 122.88C58.8211 122.432 57.8451 122.208 56.7784 122.208C55.6371 122.208 55.0664 122.592 55.0664 123.36ZM73.2641 128.336C73.5094 128.336 73.7121 128.299 73.8721 128.224V129.28C73.5734 129.387 73.2267 129.44 72.8321 129.44C71.8294 129.44 71.2641 128.987 71.1361 128.08C70.3787 128.987 69.3707 129.44 68.1121 129.44C67.2694 129.44 66.5974 129.227 66.0961 128.8C65.5947 128.363 65.3441 127.803 65.3441 127.12C65.3441 126.235 65.6907 125.573 66.3841 125.136C67.0774 124.699 67.9841 124.48 69.1041 124.48C69.7227 124.48 70.3894 124.528 71.1041 124.624V123.92C71.1041 123.429 70.9227 123.029 70.5601 122.72C70.1974 122.4 69.6427 122.24 68.8961 122.24C67.8934 122.24 66.9227 122.464 65.9841 122.912L65.7121 121.792C66.6294 121.344 67.7441 121.12 69.0561 121.12C70.1974 121.12 71.0614 121.381 71.6481 121.904C72.2454 122.416 72.5441 123.115 72.5441 124V127.472C72.5441 127.76 72.5921 127.979 72.6881 128.128C72.7947 128.267 72.9867 128.336 73.2641 128.336ZM68.5601 128.32C69.5201 128.32 70.3681 127.904 71.1041 127.072V125.696C70.5387 125.6 69.9041 125.552 69.2001 125.552C67.6107 125.552 66.8161 126.016 66.8161 126.944C66.8161 127.371 66.9707 127.707 67.2801 127.952C67.6001 128.197 68.0267 128.32 68.5601 128.32ZM82.8996 128.32C83.6996 128.32 84.5369 128.101 85.4116 127.664L85.6836 128.736C84.7662 129.205 83.8009 129.44 82.7876 129.44C81.4756 129.44 80.4302 129.067 79.6516 128.32C78.8836 127.563 78.4996 126.549 78.4996 125.28C78.4996 124.011 78.8836 123.003 79.6516 122.256C80.4302 121.499 81.4756 121.12 82.7876 121.12C83.8009 121.12 84.7662 121.355 85.6836 121.824L85.4116 122.896C84.5369 122.459 83.6996 122.24 82.8996 122.24C82.0249 122.24 81.3156 122.512 80.7716 123.056C80.2382 123.6 79.9716 124.341 79.9716 125.28C79.9716 126.219 80.2382 126.96 80.7716 127.504C81.3156 128.048 82.0249 128.32 82.8996 128.32ZM91.3192 121.12C92.6312 121.12 93.6712 121.52 94.4392 122.32C95.2179 123.109 95.6072 124.096 95.6072 125.28C95.6072 126.464 95.2179 127.456 94.4392 128.256C93.6712 129.045 92.6312 129.44 91.3192 129.44C89.9859 129.44 88.9352 129.045 88.1672 128.256C87.3992 127.456 87.0152 126.464 87.0152 125.28C87.0152 124.096 87.3992 123.109 88.1672 122.32C88.9352 121.52 89.9859 121.12 91.3192 121.12ZM91.3032 128.32C92.1992 128.32 92.8925 128.027 93.3832 127.44C93.8845 126.843 94.1352 126.123 94.1352 125.28C94.1352 124.448 93.8845 123.733 93.3832 123.136C92.8925 122.539 92.1992 122.24 91.3032 122.24C90.4072 122.24 89.7139 122.539 89.2232 123.136C88.7325 123.723 88.4872 124.437 88.4872 125.28C88.4872 126.133 88.7272 126.853 89.2072 127.44C89.6979 128.027 90.3965 128.32 91.3032 128.32ZM107.316 121.12C108.244 121.12 108.959 121.376 109.46 121.888C109.962 122.4 110.212 123.12 110.212 124.048V129.28H108.772V124.08C108.772 123.493 108.602 123.04 108.26 122.72C107.919 122.4 107.434 122.24 106.804 122.24C105.94 122.24 105.194 122.624 104.564 123.392C104.596 123.595 104.612 123.813 104.612 124.048V129.28H103.172V124.08C103.172 123.493 103.002 123.04 102.66 122.72C102.319 122.4 101.834 122.24 101.204 122.24C100.372 122.24 99.6415 122.624 99.0122 123.392V129.28H97.5722V121.28H98.9002L99.0122 122.496C99.6842 121.579 100.586 121.12 101.716 121.12C103.103 121.12 103.994 121.653 104.388 122.72C105.092 121.653 106.068 121.12 107.316 121.12ZM116.797 129.44C115.635 129.44 114.691 128.976 113.965 128.048V132.752L112.525 132.96V121.28H113.853L113.965 122.512C114.669 121.584 115.613 121.12 116.797 121.12C117.939 121.12 118.856 121.499 119.549 122.256C120.243 123.013 120.589 124.021 120.589 125.28C120.589 126.539 120.243 127.547 119.549 128.304C118.856 129.061 117.939 129.44 116.797 129.44ZM116.429 122.24C115.469 122.24 114.648 122.64 113.965 123.44V127.104C114.648 127.915 115.469 128.32 116.429 128.32C117.272 128.32 117.928 128.043 118.397 127.488C118.877 126.923 119.117 126.187 119.117 125.28C119.117 124.373 118.877 123.643 118.397 123.088C117.928 122.523 117.272 122.24 116.429 122.24ZM130.077 128.336C130.322 128.336 130.525 128.299 130.685 128.224V129.28C130.386 129.387 130.039 129.44 129.645 129.44C128.642 129.44 128.077 128.987 127.949 128.08C127.191 128.987 126.183 129.44 124.925 129.44C124.082 129.44 123.41 129.227 122.909 128.8C122.407 128.363 122.157 127.803 122.157 127.12C122.157 126.235 122.503 125.573 123.197 125.136C123.89 124.699 124.797 124.48 125.917 124.48C126.535 124.48 127.202 124.528 127.917 124.624V123.92C127.917 123.429 127.735 123.029 127.373 122.72C127.01 122.4 126.455 122.24 125.709 122.24C124.706 122.24 123.735 122.464 122.797 122.912L122.525 121.792C123.442 121.344 124.557 121.12 125.869 121.12C127.01 121.12 127.874 121.381 128.461 121.904C129.058 122.416 129.357 123.115 129.357 124V127.472C129.357 127.76 129.405 127.979 129.501 128.128C129.607 128.267 129.799 128.336 130.077 128.336ZM125.373 128.32C126.333 128.32 127.181 127.904 127.917 127.072V125.696C127.351 125.6 126.717 125.552 126.013 125.552C124.423 125.552 123.629 126.016 123.629 126.944C123.629 127.371 123.783 127.707 124.093 127.952C124.413 128.197 124.839 128.32 125.373 128.32ZM136.108 121.12C137.036 121.12 137.751 121.376 138.252 121.888C138.754 122.4 139.004 123.12 139.004 124.048V129.28H137.564V124.08C137.564 123.493 137.394 123.04 137.052 122.72C136.711 122.4 136.226 122.24 135.596 122.24C134.732 122.24 133.98 122.624 133.34 123.392V129.28H131.9V121.28H133.228L133.34 122.496C134.012 121.579 134.935 121.12 136.108 121.12ZM147.501 121.28H149.021L145.037 130.016C144.589 131.019 144.103 131.76 143.581 132.24C143.069 132.72 142.402 132.96 141.581 132.96C141.079 132.96 140.663 132.896 140.333 132.768L140.541 131.696C140.903 131.792 141.239 131.84 141.549 131.84C141.997 131.84 142.381 131.707 142.701 131.44C143.021 131.173 143.346 130.699 143.677 130.016L144.045 129.232L140.429 121.28H141.949L144.781 127.552L147.501 121.28ZM154.494 129.28V117.808L155.934 117.6V129.28H154.494ZM159.074 119.824L157.97 118.752L159.074 117.696L160.146 118.752L159.074 119.824ZM159.778 129.28H158.338V121.28H159.778V129.28ZM166.15 128.32C166.95 128.32 167.787 128.101 168.662 127.664L168.934 128.736C168.016 129.205 167.051 129.44 166.038 129.44C164.726 129.44 163.68 129.067 162.902 128.32C162.134 127.563 161.75 126.549 161.75 125.28C161.75 124.011 162.134 123.003 162.902 122.256C163.68 121.499 164.726 121.12 166.038 121.12C167.051 121.12 168.016 121.355 168.934 121.824L168.662 122.896C167.787 122.459 166.95 122.24 166.15 122.24C165.275 122.24 164.566 122.512 164.022 123.056C163.488 123.6 163.222 124.341 163.222 125.28C163.222 126.219 163.488 126.96 164.022 127.504C164.566 128.048 165.275 128.32 166.15 128.32ZM178.105 125.04C178.105 125.36 178.1 125.584 178.089 125.712H171.769C171.855 126.544 172.148 127.195 172.649 127.664C173.161 128.133 173.86 128.368 174.745 128.368C175.705 128.368 176.617 128.149 177.481 127.712L177.753 128.736C176.847 129.205 175.812 129.44 174.649 129.44C173.231 129.44 172.143 129.072 171.385 128.336C170.639 127.589 170.265 126.571 170.265 125.28C170.265 124.011 170.639 123.003 171.385 122.256C172.132 121.499 173.135 121.12 174.393 121.12C175.087 121.12 175.679 121.227 176.169 121.44C176.671 121.653 177.055 121.952 177.321 122.336C177.599 122.72 177.796 123.136 177.913 123.584C178.041 124.021 178.105 124.507 178.105 125.04ZM171.785 124.656H176.665C176.655 123.899 176.479 123.296 176.137 122.848C175.807 122.4 175.209 122.176 174.345 122.176C173.652 122.176 173.076 122.395 172.617 122.832C172.159 123.259 171.881 123.867 171.785 124.656ZM184.296 121.12C185.224 121.12 185.938 121.376 186.44 121.888C186.941 122.4 187.192 123.12 187.192 124.048V129.28H185.752V124.08C185.752 123.493 185.581 123.04 185.24 122.72C184.898 122.4 184.413 122.24 183.784 122.24C182.92 122.24 182.168 122.624 181.528 123.392V129.28H180.088V121.28H181.416L181.528 122.496C182.2 121.579 183.122 121.12 184.296 121.12ZM190.598 123.36C190.598 123.712 190.768 123.989 191.11 124.192C191.451 124.384 191.862 124.533 192.342 124.64C192.832 124.736 193.318 124.853 193.798 124.992C194.278 125.12 194.688 125.349 195.03 125.68C195.371 126 195.542 126.432 195.542 126.976C195.542 127.787 195.254 128.4 194.678 128.816C194.102 129.232 193.286 129.44 192.23 129.44C190.939 129.44 189.862 129.211 188.998 128.752L189.286 127.664C190.192 128.123 191.163 128.352 192.198 128.352C193.446 128.352 194.07 127.909 194.07 127.024C194.07 126.672 193.899 126.395 193.558 126.192C193.227 125.989 192.816 125.84 192.326 125.744C191.846 125.637 191.36 125.52 190.87 125.392C190.39 125.253 189.979 125.019 189.638 124.688C189.307 124.347 189.142 123.904 189.142 123.36C189.142 122.613 189.424 122.053 189.99 121.68C190.555 121.307 191.318 121.12 192.278 121.12C193.568 121.12 194.646 121.344 195.51 121.792L195.238 122.88C194.352 122.432 193.376 122.208 192.31 122.208C191.168 122.208 190.598 122.592 190.598 123.36ZM204.84 125.04C204.84 125.36 204.834 125.584 204.824 125.712H198.504C198.589 126.544 198.882 127.195 199.384 127.664C199.896 128.133 200.594 128.368 201.48 128.368C202.44 128.368 203.352 128.149 204.216 127.712L204.488 128.736C203.581 129.205 202.546 129.44 201.384 129.44C199.965 129.44 198.877 129.072 198.12 128.336C197.373 127.589 197 126.571 197 125.28C197 124.011 197.373 123.003 198.12 122.256C198.866 121.499 199.869 121.12 201.128 121.12C201.821 121.12 202.413 121.227 202.904 121.44C203.405 121.653 203.789 121.952 204.056 122.336C204.333 122.72 204.53 123.136 204.648 123.584C204.776 124.021 204.84 124.507 204.84 125.04ZM198.52 124.656H203.4C203.389 123.899 203.213 123.296 202.872 122.848C202.541 122.4 201.944 122.176 201.08 122.176C200.386 122.176 199.81 122.395 199.352 122.832C198.893 123.259 198.616 123.867 198.52 124.656ZM210.182 121.12C211.366 121.12 212.31 121.584 213.014 122.512V117.808L214.454 117.6V129.28H213.126L213.014 128.048C212.289 128.976 211.345 129.44 210.182 129.44C209.041 129.44 208.124 129.061 207.43 128.304C206.737 127.547 206.39 126.539 206.39 125.28C206.39 124.021 206.737 123.013 207.43 122.256C208.124 121.499 209.041 121.12 210.182 121.12ZM210.55 128.32C211.521 128.32 212.337 127.915 212.998 127.104V123.44C212.326 122.64 211.51 122.24 210.55 122.24C209.697 122.24 209.036 122.523 208.566 123.088C208.097 123.643 207.862 124.373 207.862 125.28C207.862 126.187 208.097 126.923 208.566 127.488C209.036 128.043 209.697 128.32 210.55 128.32ZM224.969 121.12C226.111 121.12 227.028 121.499 227.721 122.256C228.415 123.013 228.761 124.021 228.761 125.28C228.761 126.539 228.415 127.547 227.721 128.304C227.028 129.061 226.111 129.44 224.969 129.44C223.807 129.44 222.863 128.976 222.137 128.048L222.025 129.28H220.697V117.808L222.137 117.6V122.512C222.841 121.584 223.785 121.12 224.969 121.12ZM224.601 128.32C225.444 128.32 226.1 128.043 226.569 127.488C227.049 126.923 227.289 126.187 227.289 125.28C227.289 124.373 227.049 123.643 226.569 123.088C226.1 122.523 225.444 122.24 224.601 122.24C223.641 122.24 222.82 122.64 222.137 123.44V127.104C222.82 127.915 223.641 128.32 224.601 128.32ZM236.891 121.28H238.411L234.427 130.016C233.979 131.019 233.494 131.76 232.971 132.24C232.459 132.72 231.793 132.96 230.971 132.96C230.47 132.96 230.054 132.896 229.723 132.768L229.931 131.696C230.294 131.792 230.63 131.84 230.939 131.84C231.387 131.84 231.771 131.707 232.091 131.44C232.411 131.173 232.737 130.699 233.067 130.016L233.435 129.232L229.819 121.28H231.339L234.171 127.552L236.891 121.28ZM245.933 118.4V121.28H248.765V122.4H245.933V127.056C245.933 127.899 246.429 128.32 247.421 128.32C247.847 128.32 248.279 128.235 248.717 128.064L248.925 129.12C248.349 129.333 247.719 129.44 247.037 129.44C246.162 129.44 245.517 129.232 245.101 128.816C244.695 128.389 244.493 127.813 244.493 127.088V122.4H243.181V121.28H244.493V118.672L245.933 118.4ZM254.327 121.12C255.255 121.12 255.97 121.376 256.471 121.888C256.972 122.4 257.223 123.12 257.223 124.048V129.28H255.783V124.08C255.783 123.493 255.612 123.04 255.271 122.72C254.93 122.4 254.444 122.24 253.815 122.24C252.951 122.24 252.199 122.624 251.559 123.392V129.28H250.119V117.808L251.559 117.6V122.496C252.231 121.579 253.154 121.12 254.327 121.12ZM266.949 125.04C266.949 125.36 266.944 125.584 266.933 125.712H260.613C260.698 126.544 260.992 127.195 261.493 127.664C262.005 128.133 262.704 128.368 263.589 128.368C264.549 128.368 265.461 128.149 266.325 127.712L266.597 128.736C265.69 129.205 264.656 129.44 263.493 129.44C262.074 129.44 260.986 129.072 260.229 128.336C259.482 127.589 259.109 126.571 259.109 125.28C259.109 124.011 259.482 123.003 260.229 122.256C260.976 121.499 261.978 121.12 263.237 121.12C263.93 121.12 264.522 121.227 265.013 121.44C265.514 121.653 265.898 121.952 266.165 122.336C266.442 122.72 266.64 123.136 266.757 123.584C266.885 124.021 266.949 124.507 266.949 125.04ZM260.629 124.656H265.509C265.498 123.899 265.322 123.296 264.981 122.848C264.65 122.4 264.053 122.176 263.189 122.176C262.496 122.176 261.92 122.395 261.461 122.832C261.002 123.259 260.725 123.867 260.629 124.656ZM281.655 128.464C280.578 129.115 279.357 129.44 277.991 129.44C276.338 129.44 274.989 128.933 273.943 127.92C272.898 126.907 272.375 125.547 272.375 123.84C272.375 122.133 272.898 120.773 273.943 119.76C274.999 118.747 276.37 118.24 278.055 118.24C279.431 118.24 280.653 118.565 281.719 119.216L281.447 120.528C280.445 119.845 279.314 119.504 278.055 119.504C276.807 119.504 275.799 119.893 275.031 120.672C274.274 121.451 273.895 122.507 273.895 123.84C273.895 125.173 274.274 126.229 275.031 127.008C275.789 127.787 276.781 128.176 278.007 128.176C279.415 128.176 280.631 127.819 281.655 127.104V128.464ZM291.108 128.336C291.353 128.336 291.556 128.299 291.716 128.224V129.28C291.417 129.387 291.07 129.44 290.676 129.44C289.673 129.44 289.108 128.987 288.98 128.08C288.222 128.987 287.214 129.44 285.956 129.44C285.113 129.44 284.441 129.227 283.94 128.8C283.438 128.363 283.188 127.803 283.188 127.12C283.188 126.235 283.534 125.573 284.228 125.136C284.921 124.699 285.828 124.48 286.948 124.48C287.566 124.48 288.233 124.528 288.948 124.624V123.92C288.948 123.429 288.766 123.029 288.404 122.72C288.041 122.4 287.486 122.24 286.74 122.24C285.737 122.24 284.766 122.464 283.828 122.912L283.556 121.792C284.473 121.344 285.588 121.12 286.9 121.12C288.041 121.12 288.905 121.381 289.492 121.904C290.089 122.416 290.388 123.115 290.388 124V127.472C290.388 127.76 290.436 127.979 290.532 128.128C290.638 128.267 290.83 128.336 291.108 128.336ZM286.404 128.32C287.364 128.32 288.212 127.904 288.948 127.072V125.696C288.382 125.6 287.748 125.552 287.044 125.552C285.454 125.552 284.66 126.016 284.66 126.944C284.66 127.371 284.814 127.707 285.124 127.952C285.444 128.197 285.87 128.32 286.404 128.32ZM297.204 129.44C296.041 129.44 295.097 128.976 294.372 128.048V132.752L292.932 132.96V121.28H294.26L294.372 122.512C295.076 121.584 296.02 121.12 297.204 121.12C298.345 121.12 299.262 121.499 299.956 122.256C300.649 123.013 300.996 124.021 300.996 125.28C300.996 126.539 300.649 127.547 299.956 128.304C299.262 129.061 298.345 129.44 297.204 129.44ZM296.836 122.24C295.876 122.24 295.054 122.64 294.372 123.44V127.104C295.054 127.915 295.876 128.32 296.836 128.32C297.678 128.32 298.334 128.043 298.804 127.488C299.284 126.923 299.524 126.187 299.524 125.28C299.524 124.373 299.284 123.643 298.804 123.088C298.334 122.523 297.678 122.24 296.836 122.24ZM303.699 119.824L302.595 118.752L303.699 117.696L304.771 118.752L303.699 119.824ZM304.403 129.28H302.963V121.28H304.403V129.28ZM308.855 118.4V121.28H311.687V122.4H308.855V127.056C308.855 127.899 309.351 128.32 310.343 128.32C310.769 128.32 311.201 128.235 311.639 128.064L311.847 129.12C311.271 129.333 310.641 129.44 309.959 129.44C309.084 129.44 308.439 129.232 308.023 128.816C307.617 128.389 307.415 127.813 307.415 127.088V122.4H306.103V121.28H307.415V118.672L308.855 118.4ZM320.53 128.336C320.775 128.336 320.978 128.299 321.138 128.224V129.28C320.839 129.387 320.492 129.44 320.098 129.44C319.095 129.44 318.53 128.987 318.402 128.08C317.644 128.987 316.636 129.44 315.378 129.44C314.535 129.44 313.863 129.227 313.362 128.8C312.86 128.363 312.61 127.803 312.61 127.12C312.61 126.235 312.956 125.573 313.65 125.136C314.343 124.699 315.25 124.48 316.37 124.48C316.988 124.48 317.655 124.528 318.37 124.624V123.92C318.37 123.429 318.188 123.029 317.826 122.72C317.463 122.4 316.908 122.24 316.162 122.24C315.159 122.24 314.188 122.464 313.25 122.912L312.978 121.792C313.895 121.344 315.01 121.12 316.322 121.12C317.463 121.12 318.327 121.381 318.914 121.904C319.511 122.416 319.81 123.115 319.81 124V127.472C319.81 127.76 319.858 127.979 319.954 128.128C320.06 128.267 320.252 128.336 320.53 128.336ZM315.826 128.32C316.786 128.32 317.634 127.904 318.37 127.072V125.696C317.804 125.6 317.17 125.552 316.466 125.552C314.876 125.552 314.082 126.016 314.082 126.944C314.082 127.371 314.236 127.707 314.546 127.952C314.866 128.197 315.292 128.32 315.826 128.32ZM322.353 129.28V117.808L323.793 117.6V129.28H322.353ZM336.313 126.672H335.401L331.609 120.96V129.28H330.249V118.4H331.721L335.929 124.8L340.153 118.4H341.609V129.168L340.121 129.392V120.96L336.313 126.672ZM351.702 128.336C351.947 128.336 352.15 128.299 352.31 128.224V129.28C352.011 129.387 351.664 129.44 351.27 129.44C350.267 129.44 349.702 128.987 349.574 128.08C348.816 128.987 347.808 129.44 346.55 129.44C345.707 129.44 345.035 129.227 344.534 128.8C344.032 128.363 343.782 127.803 343.782 127.12C343.782 126.235 344.128 125.573 344.822 125.136C345.515 124.699 346.422 124.48 347.542 124.48C348.16 124.48 348.827 124.528 349.542 124.624V123.92C349.542 123.429 349.36 123.029 348.998 122.72C348.635 122.4 348.08 122.24 347.334 122.24C346.331 122.24 345.36 122.464 344.422 122.912L344.15 121.792C345.067 121.344 346.182 121.12 347.494 121.12C348.635 121.12 349.499 121.381 350.086 121.904C350.683 122.416 350.982 123.115 350.982 124V127.472C350.982 127.76 351.03 127.979 351.126 128.128C351.232 128.267 351.424 128.336 351.702 128.336ZM346.998 128.32C347.958 128.32 348.806 127.904 349.542 127.072V125.696C348.976 125.6 348.342 125.552 347.638 125.552C346.048 125.552 345.254 126.016 345.254 126.944C345.254 127.371 345.408 127.707 345.718 127.952C346.038 128.197 346.464 128.32 346.998 128.32ZM358.197 122.56C357.493 122.56 356.853 122.709 356.277 123.008C355.712 123.296 355.275 123.669 354.965 124.128V129.28H353.525V121.28H354.853L354.949 123.104C355.248 122.507 355.675 122.027 356.229 121.664C356.784 121.301 357.392 121.12 358.053 121.12L358.197 122.56ZM365.68 129.28L362.688 125.728H361.184V129.28H359.744V117.808L361.184 117.6V124.608H362.608L365.296 121.28H366.864L363.856 125.088L367.312 129.28H365.68ZM375.793 125.04C375.793 125.36 375.787 125.584 375.777 125.712H369.457C369.542 126.544 369.835 127.195 370.337 127.664C370.849 128.133 371.547 128.368 372.433 128.368C373.393 128.368 374.305 128.149 375.169 127.712L375.441 128.736C374.534 129.205 373.499 129.44 372.337 129.44C370.918 129.44 369.83 129.072 369.073 128.336C368.326 127.589 367.953 126.571 367.953 125.28C367.953 124.011 368.326 123.003 369.073 122.256C369.819 121.499 370.822 121.12 372.081 121.12C372.774 121.12 373.366 121.227 373.857 121.44C374.358 121.653 374.742 121.952 375.009 122.336C375.286 122.72 375.483 123.136 375.601 123.584C375.729 124.021 375.793 124.507 375.793 125.04ZM369.473 124.656H374.353C374.342 123.899 374.166 123.296 373.825 122.848C373.494 122.4 372.897 122.176 372.033 122.176C371.339 122.176 370.763 122.395 370.305 122.832C369.846 123.259 369.569 123.867 369.473 124.656ZM379.745 118.4V121.28H382.577V122.4H379.745V127.056C379.745 127.899 380.241 128.32 381.233 128.32C381.66 128.32 382.092 128.235 382.529 128.064L382.737 129.12C382.161 129.333 381.532 129.44 380.849 129.44C379.975 129.44 379.329 129.232 378.913 128.816C378.508 128.389 378.305 127.813 378.305 127.088V122.4H376.993V121.28H378.305V118.672L379.745 118.4ZM396.175 129.392L395.087 126.736H389.471L388.431 129.28H386.895L391.439 118.416L393.135 118.208L397.663 129.168L396.175 129.392ZM389.983 125.488H394.575L392.271 119.872L389.983 125.488ZM404.671 121.28H406.111V129.28H404.799L404.687 128.064C403.994 128.981 403.071 129.44 401.919 129.44C400.991 129.44 400.277 129.184 399.775 128.672C399.274 128.16 399.023 127.44 399.023 126.512V121.328L400.463 121.12V126.48C400.463 127.067 400.634 127.52 400.975 127.84C401.317 128.16 401.802 128.32 402.431 128.32C403.285 128.32 404.031 127.936 404.671 127.168V121.28ZM410.573 118.4V121.28H413.405V122.4H410.573V127.056C410.573 127.899 411.069 128.32 412.061 128.32C412.488 128.32 412.92 128.235 413.357 128.064L413.565 129.12C412.989 129.333 412.36 129.44 411.677 129.44C410.803 129.44 410.157 129.232 409.741 128.816C409.336 128.389 409.133 127.813 409.133 127.088V122.4H407.821V121.28H409.133V118.672L410.573 118.4ZM418.968 121.12C419.896 121.12 420.61 121.376 421.112 121.888C421.613 122.4 421.864 123.12 421.864 124.048V129.28H420.424V124.08C420.424 123.493 420.253 123.04 419.912 122.72C419.57 122.4 419.085 122.24 418.456 122.24C417.592 122.24 416.84 122.624 416.2 123.392V129.28H414.76V117.808L416.2 117.6V122.496C416.872 121.579 417.794 121.12 418.968 121.12ZM428.054 121.12C429.366 121.12 430.406 121.52 431.174 122.32C431.952 123.109 432.342 124.096 432.342 125.28C432.342 126.464 431.952 127.456 431.174 128.256C430.406 129.045 429.366 129.44 428.054 129.44C426.72 129.44 425.67 129.045 424.902 128.256C424.134 127.456 423.75 126.464 423.75 125.28C423.75 124.096 424.134 123.109 424.902 122.32C425.67 121.52 426.72 121.12 428.054 121.12ZM428.038 128.32C428.934 128.32 429.627 128.027 430.118 127.44C430.619 126.843 430.87 126.123 430.87 125.28C430.87 124.448 430.619 123.733 430.118 123.136C429.627 122.539 428.934 122.24 428.038 122.24C427.142 122.24 426.448 122.539 425.958 123.136C425.467 123.723 425.222 124.437 425.222 125.28C425.222 126.133 425.462 126.853 425.942 127.44C426.432 128.027 427.131 128.32 428.038 128.32ZM438.979 122.56C438.275 122.56 437.635 122.709 437.059 123.008C436.493 123.296 436.056 123.669 435.747 124.128V129.28H434.307V121.28H435.635L435.731 123.104C436.029 122.507 436.456 122.027 437.011 121.664C437.565 121.301 438.173 121.12 438.835 121.12L438.979 122.56ZM441.261 119.824L440.157 118.752L441.261 117.696L442.333 118.752L441.261 119.824ZM441.965 129.28H440.525V121.28H441.965V129.28ZM446.417 118.4V121.28H449.249V122.4H446.417V127.056C446.417 127.899 446.913 128.32 447.905 128.32C448.332 128.32 448.764 128.235 449.201 128.064L449.409 129.12C448.833 129.333 448.204 129.44 447.521 129.44C446.646 129.44 446.001 129.232 445.585 128.816C445.18 128.389 444.977 127.813 444.977 127.088V122.4H443.665V121.28H444.977V118.672L446.417 118.4ZM456.891 121.28H458.411L454.427 130.016C453.979 131.019 453.494 131.76 452.971 132.24C452.459 132.72 451.793 132.96 450.971 132.96C450.47 132.96 450.054 132.896 449.723 132.768L449.931 131.696C450.294 131.792 450.63 131.84 450.939 131.84C451.387 131.84 451.771 131.707 452.091 131.44C452.411 131.173 452.737 130.699 453.067 130.016L453.435 129.232L449.819 121.28H451.339L454.171 127.552L456.891 121.28ZM460.521 121.84L459.657 121.76C460.062 120.715 460.302 119.573 460.377 118.336H461.641C461.534 119.52 461.161 120.688 460.521 121.84ZM464.738 123.36C464.738 123.712 464.909 123.989 465.25 124.192C465.592 124.384 466.002 124.533 466.482 124.64C466.973 124.736 467.458 124.853 467.938 124.992C468.418 125.12 468.829 125.349 469.17 125.68C469.512 126 469.682 126.432 469.682 126.976C469.682 127.787 469.394 128.4 468.818 128.816C468.242 129.232 467.426 129.44 466.37 129.44C465.08 129.44 464.002 129.211 463.138 128.752L463.426 127.664C464.333 128.123 465.304 128.352 466.338 128.352C467.586 128.352 468.21 127.909 468.21 127.024C468.21 126.672 468.04 126.395 467.698 126.192C467.368 125.989 466.957 125.84 466.466 125.744C465.986 125.637 465.501 125.52 465.01 125.392C464.53 125.253 464.12 125.019 463.778 124.688C463.448 124.347 463.282 123.904 463.282 123.36C463.282 122.613 463.565 122.053 464.13 121.68C464.696 121.307 465.458 121.12 466.418 121.12C467.709 121.12 468.786 121.344 469.65 121.792L469.378 122.88C468.493 122.432 467.517 122.208 466.45 122.208C465.309 122.208 464.738 122.592 464.738 123.36ZM168.99 137C168.361 137.779 167.753 138.888 167.166 140.328C166.59 141.757 166.302 143.261 166.302 144.84C166.302 146.419 166.59 147.928 167.166 149.368C167.753 150.797 168.361 151.901 168.99 152.68H167.966C167.71 152.424 167.428 152.067 167.118 151.608C166.82 151.149 166.494 150.584 166.142 149.912C165.801 149.24 165.513 148.456 165.278 147.56C165.054 146.653 164.942 145.747 164.942 144.84C164.942 143.933 165.054 143.032 165.278 142.136C165.513 141.229 165.801 140.44 166.142 139.768C166.494 139.096 166.82 138.531 167.118 138.072C167.428 137.613 167.71 137.256 167.966 137H168.99ZM179.241 149.464C178.164 150.115 176.943 150.44 175.577 150.44C173.924 150.44 172.575 149.933 171.529 148.92C170.484 147.907 169.961 146.547 169.961 144.84C169.961 143.133 170.484 141.773 171.529 140.76C172.585 139.747 173.956 139.24 175.641 139.24C177.017 139.24 178.239 139.565 179.305 140.216L179.033 141.528C178.031 140.845 176.9 140.504 175.641 140.504C174.393 140.504 173.385 140.893 172.617 141.672C171.86 142.451 171.481 143.507 171.481 144.84C171.481 146.173 171.86 147.229 172.617 148.008C173.375 148.787 174.367 149.176 175.593 149.176C177.001 149.176 178.217 148.819 179.241 148.104V149.464ZM187.477 147.672H186.565L182.773 141.96V150.28H181.413V139.4H182.885L187.093 145.8L191.317 139.4H192.773V150.168L191.285 150.392V141.96L187.477 147.672ZM203.793 150.392L202.705 147.736H197.089L196.049 150.28H194.513L199.057 139.416L200.753 139.208L205.281 150.168L203.793 150.392ZM197.601 146.488H202.193L199.889 140.872L197.601 146.488ZM205.759 152.68C206.388 151.88 206.991 150.765 207.567 149.336C208.153 147.907 208.447 146.408 208.447 144.84C208.447 143.272 208.153 141.773 207.567 140.344C206.991 138.915 206.388 137.8 205.759 137H206.783C207.039 137.256 207.316 137.613 207.615 138.072C207.924 138.531 208.249 139.096 208.591 139.768C208.932 140.44 209.215 141.229 209.439 142.136C209.673 143.032 209.791 143.933 209.791 144.84C209.791 145.747 209.673 146.653 209.439 147.56C209.215 148.456 208.932 149.24 208.591 149.912C208.249 150.584 207.924 151.149 207.615 151.608C207.316 152.067 207.039 152.424 206.783 152.68H205.759ZM215.726 150.28V139.4H223.23V140.664H217.214V144.504H222.686L222.91 145.768H217.214V150.28H215.726ZM225.769 140.824L224.665 139.752L225.769 138.696L226.841 139.752L225.769 140.824ZM226.473 150.28H225.033V142.28H226.473V150.28ZM233.085 142.12C234.013 142.12 234.728 142.376 235.229 142.888C235.73 143.4 235.981 144.12 235.981 145.048V150.28H234.541V145.08C234.541 144.493 234.37 144.04 234.029 143.72C233.688 143.4 233.202 143.24 232.573 143.24C231.709 143.24 230.957 143.624 230.317 144.392V150.28H228.877V142.28H230.205L230.317 143.496C230.989 142.579 231.912 142.12 233.085 142.12ZM241.147 150.28V140.664H237.371V139.4H246.427L246.219 140.664H242.651V150.28H241.147ZM254.769 146.04C254.769 146.36 254.764 146.584 254.753 146.712H248.433C248.519 147.544 248.812 148.195 249.313 148.664C249.825 149.133 250.524 149.368 251.409 149.368C252.369 149.368 253.281 149.149 254.145 148.712L254.417 149.736C253.511 150.205 252.476 150.44 251.313 150.44C249.895 150.44 248.807 150.072 248.049 149.336C247.303 148.589 246.929 147.571 246.929 146.28C246.929 145.011 247.303 144.003 248.049 143.256C248.796 142.499 249.799 142.12 251.057 142.12C251.751 142.12 252.343 142.227 252.833 142.44C253.335 142.653 253.719 142.952 253.985 143.336C254.263 143.72 254.46 144.136 254.577 144.584C254.705 145.021 254.769 145.507 254.769 146.04ZM248.449 145.656H253.329C253.319 144.899 253.143 144.296 252.801 143.848C252.471 143.4 251.873 143.176 251.009 143.176C250.316 143.176 249.74 143.395 249.281 143.832C248.823 144.259 248.545 144.867 248.449 145.656ZM260.72 149.32C261.52 149.32 262.357 149.101 263.232 148.664L263.504 149.736C262.587 150.205 261.621 150.44 260.608 150.44C259.296 150.44 258.251 150.067 257.472 149.32C256.704 148.563 256.32 147.549 256.32 146.28C256.32 145.011 256.704 144.003 257.472 143.256C258.251 142.499 259.296 142.12 260.608 142.12C261.621 142.12 262.587 142.355 263.504 142.824L263.232 143.896C262.357 143.459 261.52 143.24 260.72 143.24C259.845 143.24 259.136 143.512 258.592 144.056C258.059 144.6 257.792 145.341 257.792 146.28C257.792 147.219 258.059 147.96 258.592 148.504C259.136 149.048 259.845 149.32 260.72 149.32ZM269.522 142.12C270.45 142.12 271.165 142.376 271.666 142.888C272.168 143.4 272.418 144.12 272.418 145.048V150.28H270.978V145.08C270.978 144.493 270.808 144.04 270.466 143.72C270.125 143.4 269.64 143.24 269.01 143.24C268.146 143.24 267.394 143.624 266.754 144.392V150.28H265.314V138.808L266.754 138.6V143.496C267.426 142.579 268.349 142.12 269.522 142.12ZM278.788 150.28V139.496L280.276 139.288V149.016H286.26L286.468 150.28H278.788ZM295.522 149.336C295.767 149.336 295.97 149.299 296.13 149.224V150.28C295.831 150.387 295.485 150.44 295.09 150.44C294.087 150.44 293.522 149.987 293.394 149.08C292.637 149.987 291.629 150.44 290.37 150.44C289.527 150.44 288.855 150.227 288.354 149.8C287.853 149.363 287.602 148.803 287.602 148.12C287.602 147.235 287.949 146.573 288.642 146.136C289.335 145.699 290.242 145.48 291.362 145.48C291.981 145.48 292.647 145.528 293.362 145.624V144.92C293.362 144.429 293.181 144.029 292.818 143.72C292.455 143.4 291.901 143.24 291.154 143.24C290.151 143.24 289.181 143.464 288.242 143.912L287.97 142.792C288.887 142.344 290.002 142.12 291.314 142.12C292.455 142.12 293.319 142.381 293.906 142.904C294.503 143.416 294.802 144.115 294.802 145V148.472C294.802 148.76 294.85 148.979 294.946 149.128C295.053 149.267 295.245 149.336 295.522 149.336ZM290.818 149.32C291.778 149.32 292.626 148.904 293.362 148.072V146.696C292.797 146.6 292.162 146.552 291.458 146.552C289.869 146.552 289.074 147.016 289.074 147.944C289.074 148.371 289.229 148.707 289.538 148.952C289.858 149.197 290.285 149.32 290.818 149.32ZM301.618 142.12C302.759 142.12 303.676 142.499 304.37 143.256C305.063 144.013 305.41 145.021 305.41 146.28C305.41 147.539 305.063 148.547 304.37 149.304C303.676 150.061 302.759 150.44 301.618 150.44C300.455 150.44 299.511 149.976 298.786 149.048L298.674 150.28H297.346V138.808L298.786 138.6V143.512C299.49 142.584 300.434 142.12 301.618 142.12ZM301.25 149.32C302.092 149.32 302.748 149.043 303.218 148.488C303.698 147.923 303.938 147.187 303.938 146.28C303.938 145.373 303.698 144.643 303.218 144.088C302.748 143.523 302.092 143.24 301.25 143.24C300.29 143.24 299.468 143.64 298.786 144.44V148.104C299.468 148.915 300.29 149.32 301.25 149.32ZM308.401 150.28H306.993V148.856H308.401V150.28Z" fill="#486AB5"/>
<defs>
<linearGradient id="paint0_linear_33_297" x1="374.375" y1="8.59002" x2="402.235" y2="62.86" gradientUnits="userSpaceOnUse">
<stop stop-color="#A8A9AC"/>
<stop offset="1" stop-color="#FAFAFA"/>
</linearGradient>
<linearGradient id="paint1_linear_33_297" x1="489.915" y1="73.62" x2="462.045" y2="19.32" gradientUnits="userSpaceOnUse">
<stop stop-color="#A8A9AC"/>
<stop offset="1" stop-color="#FAFAFA"/>
</linearGradient>
</defs>
</svg>
