<svg width="473" height="157" viewBox="0 0 473 157" fill="none" xmlns="http://www.w3.org/2000/svg">
<path d="M33.7201 10.3L31.8951 12.1L30.0701 10.3L31.8951 8.5L33.7201 10.3ZM37.6951 10.3L35.8701 12.1L34.0201 10.3L35.8701 8.5L37.6951 10.3ZM41.8201 24.25C41.9868 24.25 42.0701 24.325 42.0701 24.475V26.25C42.0701 26.4167 41.9868 26.5 41.8201 26.5C40.2868 26.5 39.1535 26.1417 38.4201 25.425C36.7368 26.2917 35.2285 26.725 33.8951 26.725C32.2118 26.725 30.8285 26.15 29.7451 25C28.6785 23.85 28.1451 22.425 28.1451 20.725C28.1451 18.9917 28.6868 17.5167 29.7701 16.3C30.8535 15.0833 32.2285 14.475 33.8951 14.475C34.9118 14.475 36.0285 14.7083 37.2451 15.175V13.625L39.3451 13.275L39.3701 21.45C39.3701 22.45 39.5618 23.1667 39.9451 23.6C40.3285 24.0333 40.9535 24.25 41.8201 24.25ZM33.8951 24.575C35.0118 24.5917 36.2118 24.3083 37.4951 23.725C37.3285 23.1583 37.2451 22.4667 37.2451 21.65V17.3C35.8951 16.85 34.8035 16.625 33.9701 16.625C32.8535 16.625 31.9368 17.0167 31.2201 17.8C30.5201 18.5833 30.1701 19.55 30.1701 20.7C30.1701 21.8 30.5118 22.7167 31.1951 23.45C31.8951 24.1833 32.7951 24.5583 33.8951 24.575ZM51.2203 24.25C51.387 24.25 51.4703 24.325 51.4703 24.475V26.25C51.4703 26.4167 51.387 26.5 51.2203 26.5C49.6703 26.5 48.237 25.8917 46.9203 24.675C46.0203 25.8917 44.3203 26.5 41.8203 26.5C41.6536 26.5 41.5703 26.4167 41.5703 26.25L41.5953 24.475C41.5953 24.325 41.6786 24.25 41.8453 24.25C43.1786 24.25 44.1453 24.0083 44.7453 23.525C45.362 23.025 45.6703 22.225 45.6703 21.125V17.075L47.7703 16.75V21.7C47.7703 22.1167 47.7286 22.55 47.6453 23C48.762 23.8333 49.9536 24.25 51.2203 24.25ZM42.6453 30.275L44.4703 28.475L46.2953 30.275L44.4703 32.075L42.6453 30.275ZM46.5953 30.275L48.4453 28.475L50.2703 30.275L48.4453 32.075L46.5953 30.275ZM58.0447 14.375C59.6447 14.375 60.9864 14.925 62.0697 16.025C63.1531 17.1083 63.6947 18.4667 63.6947 20.1C63.6947 22.1 63.0697 23.6667 61.8197 24.8C60.5864 25.9333 58.8781 26.5 56.6947 26.5H51.2197C51.0531 26.5 50.9697 26.4167 50.9697 26.25V24.475C50.9697 24.325 51.0531 24.25 51.2197 24.25H53.3697C52.6197 22.7 52.2447 21.35 52.2447 20.2C52.2447 18.5167 52.7864 17.125 53.8697 16.025C54.9697 14.925 56.3614 14.375 58.0447 14.375ZM56.8697 24.25C58.3031 24.25 59.4447 23.8917 60.2947 23.175C61.1447 22.4583 61.5697 21.4583 61.5697 20.175C61.5697 19.1083 61.2197 18.2333 60.5197 17.55C59.8364 16.85 58.9697 16.5 57.9197 16.5C56.9197 16.5 56.0697 16.875 55.3697 17.625C54.6697 18.3583 54.3197 19.225 54.3197 20.225C54.3197 21.425 54.7364 22.7667 55.5697 24.25H56.8697ZM82.3195 24.475L82.3445 26.25C82.3445 26.4167 82.2612 26.5 82.0945 26.5C80.3112 26.5 78.9695 26.0667 78.0695 25.2C77.2862 25.5833 76.2779 25.9 75.0445 26.15C73.8279 26.3833 72.7362 26.5 71.7695 26.5H65.5945L65.1945 24.25H71.1195L68.6195 12.05L70.7195 11.525L73.0945 24.2C74.5112 24.1 75.8529 23.875 77.1195 23.525C76.9362 22.8917 76.8445 22.2167 76.8445 21.5L76.8195 8.575L78.9445 8.25V21C78.9445 23.1667 79.9862 24.25 82.0695 24.25C82.2362 24.25 82.3195 24.325 82.3195 24.475ZM100.629 14.4L102.729 14.05V21.675C102.729 23.2083 102.312 24.3917 101.479 25.225C100.645 26.0583 99.4118 26.475 97.7785 26.475C96.4452 26.475 95.0535 26.0333 93.6035 25.15C92.7202 26.0333 91.4535 26.475 89.8035 26.475C88.6035 26.475 87.3618 26.0417 86.0785 25.175C85.1618 26.0583 83.8368 26.5 82.1035 26.5C81.9368 26.5 81.8535 26.4167 81.8535 26.25V24.475C81.8535 24.325 81.9368 24.25 82.1035 24.25C84.2035 24.25 85.2535 23.2083 85.2535 21.125L85.2285 17.075L87.3535 16.75V21.7C87.3535 22.4 87.2535 23.0417 87.0535 23.625C88.0202 24.025 88.8868 24.225 89.6535 24.225C91.7535 24.225 92.8035 23.1833 92.8035 21.1L92.7785 17.05L94.9035 16.725V21.675C94.9035 22.4083 94.7952 23.05 94.5785 23.6C95.6118 24.0167 96.5785 24.225 97.4785 24.225C98.4952 24.225 99.2702 23.9667 99.8035 23.45C100.354 22.9167 100.629 22.1333 100.629 21.1V14.4ZM116.448 8.575L118.573 8.25V21.5C118.573 24.8333 116.815 26.5 113.298 26.5H113.273H105.023L104.623 24.25H110.548L108.048 12.05L110.148 11.525L112.548 24.25H113.273H113.298C115.398 24.25 116.448 23.1667 116.448 21V8.575ZM111.023 30.25C111.023 30.7333 111.165 31.125 111.448 31.425H114.673L114.348 32.85H108.698V31.425H110.073C109.807 30.9917 109.673 30.5167 109.673 30C109.673 29.3667 109.882 28.8417 110.298 28.425C110.732 28.025 111.273 27.825 111.923 27.825C112.44 27.825 113.09 27.9833 113.873 28.3V29.525C113.223 29.275 112.69 29.15 112.273 29.15C111.907 29.15 111.607 29.25 111.373 29.45C111.14 29.65 111.023 29.9167 111.023 30.25ZM122.902 26.5V8.575L125.027 8.25V26.5H122.902ZM139.555 10.3L137.73 12.1L135.905 10.3L137.73 8.5L139.555 10.3ZM143.53 10.3L141.705 12.1L139.855 10.3L141.705 8.5L143.53 10.3ZM147.655 24.25C147.822 24.25 147.905 24.325 147.905 24.475V26.25C147.905 26.4167 147.822 26.5 147.655 26.5C146.122 26.5 144.988 26.1417 144.255 25.425C142.572 26.2917 141.063 26.725 139.73 26.725C138.047 26.725 136.663 26.15 135.58 25C134.513 23.85 133.98 22.425 133.98 20.725C133.98 18.9917 134.522 17.5167 135.605 16.3C136.688 15.0833 138.063 14.475 139.73 14.475C140.747 14.475 141.863 14.7083 143.08 15.175V13.625L145.18 13.275L145.205 21.45C145.205 22.45 145.397 23.1667 145.78 23.6C146.163 24.0333 146.788 24.25 147.655 24.25ZM139.73 24.575C140.847 24.5917 142.047 24.3083 143.33 23.725C143.163 23.1583 143.08 22.4667 143.08 21.65V17.3C141.73 16.85 140.638 16.625 139.805 16.625C138.688 16.625 137.772 17.0167 137.055 17.8C136.355 18.5833 136.005 19.55 136.005 20.7C136.005 21.8 136.347 22.7167 137.03 23.45C137.73 24.1833 138.63 24.5583 139.73 24.575ZM162.63 24.25C162.797 24.25 162.88 24.325 162.88 24.475V26.25C162.88 26.4167 162.797 26.5 162.63 26.5C159.714 26.5 157.364 26.0583 155.58 25.175C154.464 25.675 153.314 26.025 152.13 26.225C150.947 26.4083 149.455 26.5 147.655 26.5C147.489 26.4833 147.405 26.4 147.405 26.25V24.475C147.405 24.325 147.489 24.25 147.655 24.25C149.372 24.25 151.064 24.1 152.73 23.8C151.847 22.75 151.097 21.7667 150.48 20.85C149.864 19.9167 149.18 18.7417 148.43 17.325L149.23 15.4C151.564 14.2 153.672 13.6 155.555 13.6C157.222 13.6 158.605 14.0417 159.705 14.925C160.805 15.8083 161.355 16.9333 161.355 18.3C161.355 19.25 161.064 20.2167 160.48 21.2C159.897 22.1667 159.039 23.05 157.905 23.85C159.239 24.1167 160.814 24.25 162.63 24.25ZM155.205 15.75C153.905 15.7333 152.397 16.125 150.68 16.925C151.414 18.3417 152.097 19.525 152.73 20.475C153.38 21.4083 154.172 22.4 155.105 23.45C156.305 22.8667 157.28 22.1583 158.03 21.325C158.797 20.4917 159.18 19.7167 159.18 19C159.18 18.0333 158.814 17.25 158.08 16.65C157.364 16.05 156.405 15.75 155.205 15.75ZM162.67 26.5C162.503 26.5 162.42 26.4167 162.42 26.25L162.445 24.475C162.445 24.325 162.528 24.25 162.695 24.25H164.595C166.678 24.25 167.72 23.2083 167.72 21.125V14.425L169.82 14.075V21.7C169.82 23.2333 169.378 24.4167 168.495 25.25C167.612 26.0833 166.303 26.5 164.57 26.5H162.67ZM164.27 32.075L162.445 30.275L164.27 28.475L166.095 30.275L164.27 32.075ZM168.245 32.075L166.395 30.275L168.245 28.475L170.07 30.275L168.245 32.075ZM180.158 24.25C180.325 24.25 180.408 24.325 180.408 24.475V26.25C180.408 26.4167 180.325 26.5 180.158 26.5C178.875 26.5 177.933 26.0583 177.333 25.175V25.825C177.333 27.9083 176.8 29.4333 175.733 30.4C174.667 31.3833 173.067 31.875 170.933 31.875L170.733 30.05C173.733 30.05 175.233 28.6167 175.233 25.75L175.208 14.425L177.333 14.075V21.875C177.45 23.4583 178.392 24.25 180.158 24.25ZM193.075 8.25L191.775 9.55L190.45 8.25L191.75 6.925L193.075 8.25ZM191.5 11.3L189.7 13.125L187.85 11.3L189.675 9.5L191.5 11.3ZM193.825 13.125L191.975 11.3L193.825 9.5L195.65 11.3L193.825 13.125ZM203.65 24.25C203.816 24.25 203.9 24.325 203.9 24.475V26.25C203.9 26.4167 203.816 26.5 203.65 26.5C202.266 26.5 200.975 25.9917 199.775 24.975C198.925 25.975 197.616 26.475 195.85 26.475C194.516 26.475 193.125 26.0333 191.675 25.15C190.791 26.0333 189.525 26.475 187.875 26.475C186.675 26.475 185.433 26.0417 184.15 25.175C183.233 26.0583 181.908 26.5 180.175 26.5C180.008 26.5 179.925 26.4167 179.925 26.25V24.475C179.925 24.325 180.008 24.25 180.175 24.25C182.275 24.25 183.325 23.2083 183.325 21.125L183.3 17.075L185.425 16.75V21.7C185.425 22.4 185.325 23.0417 185.125 23.625C186.091 24.025 186.958 24.225 187.725 24.225C189.825 24.225 190.875 23.1833 190.875 21.1L190.85 17.05L192.975 16.725V21.675C192.975 22.4083 192.866 23.05 192.65 23.6C193.683 24.0167 194.65 24.225 195.55 24.225C196.566 24.225 197.341 23.9667 197.875 23.45C198.425 22.9167 198.7 22.1333 198.7 21.1V14.4L200.8 14.05V21.675C200.8 22.225 200.733 22.7667 200.6 23.3C201.566 23.9333 202.583 24.25 203.65 24.25ZM203.661 26.5C203.494 26.5 203.411 26.4167 203.411 26.25V24.475C203.411 24.325 203.503 24.25 203.686 24.25C205.769 24.25 206.811 23.1667 206.811 21L206.836 8.575L208.936 8.25V21.5C208.936 24.8333 207.178 26.5 203.661 26.5ZM213.258 26.5V8.575L215.383 8.25V26.5H213.258ZM238.837 24.25C239.003 24.25 239.087 24.325 239.087 24.475V26.25C239.087 26.4167 239.003 26.5 238.837 26.5C236.103 26.5 233.62 25.7667 231.387 24.3C229.47 25.3333 228.27 26.0583 227.787 26.475C227.153 27.025 226.837 27.6333 226.837 28.3C226.837 29.1833 227.278 29.8833 228.162 30.4C229.062 30.9333 230.278 31.2 231.812 31.2C233.545 31.2 235.42 30.8917 237.437 30.275L238.037 32.1C235.687 32.95 233.545 33.375 231.612 33.375C229.545 33.375 227.895 32.9333 226.662 32.05C225.445 31.1833 224.837 30.0083 224.837 28.525C224.837 27.4417 225.195 26.5417 225.912 25.825C226.628 25.1083 227.762 24.3417 229.312 23.525C228.312 22.375 227.478 21.325 226.812 20.375C226.162 19.4083 225.437 18.1667 224.637 16.65L225.462 14.725C227.812 13.525 229.912 12.925 231.762 12.925C233.428 12.925 234.812 13.375 235.912 14.275C237.028 15.1583 237.587 16.275 237.587 17.625C237.587 19.575 236.187 21.425 233.387 23.175C235.103 23.8917 236.92 24.25 238.837 24.25ZM231.437 15.075C230.137 15.0583 228.62 15.45 226.887 16.25C228.153 18.6833 229.578 20.7917 231.162 22.575C234.012 21.0083 235.437 19.5917 235.437 18.325C235.437 17.3583 235.07 16.575 234.337 15.975C233.603 15.375 232.637 15.075 231.437 15.075ZM245.667 14.375C247.267 14.375 248.608 14.925 249.692 16.025C250.775 17.1083 251.317 18.4667 251.317 20.1C251.317 22.1 250.692 23.6667 249.442 24.8C248.208 25.9333 246.5 26.5 244.317 26.5H238.842C238.675 26.5 238.592 26.4167 238.592 26.25V24.475C238.592 24.325 238.675 24.25 238.842 24.25H240.992C240.242 22.7 239.867 21.35 239.867 20.2C239.867 18.5167 240.408 17.125 241.492 16.025C242.592 14.925 243.983 14.375 245.667 14.375ZM244.492 24.25C245.925 24.25 247.067 23.8917 247.917 23.175C248.767 22.4583 249.192 21.4583 249.192 20.175C249.192 19.1083 248.842 18.2333 248.142 17.55C247.458 16.85 246.592 16.5 245.542 16.5C244.542 16.5 243.692 16.875 242.992 17.625C242.292 18.3583 241.942 19.225 241.942 20.225C241.942 21.425 242.358 22.7667 243.192 24.25H244.492ZM270.697 10.475L268.872 12.275L267.047 10.475L268.872 8.675L270.697 10.475ZM274.672 10.475L272.847 12.275L270.997 10.475L272.847 8.675L274.672 10.475ZM277.622 24.25C277.789 24.25 277.872 24.325 277.872 24.475V26.25C277.872 26.4167 277.789 26.5 277.622 26.5H276.047C275.464 30.0833 272.489 31.875 267.122 31.875C264.822 31.875 262.972 31.3167 261.572 30.2C260.172 29.0833 259.472 27.4833 259.472 25.4C259.472 23.6167 259.839 21.6083 260.572 19.375L262.297 19.85C261.714 21.5667 261.422 23.2333 261.422 24.85C261.439 26.5 261.989 27.7583 263.072 28.625C264.172 29.4917 265.689 29.925 267.622 29.925C269.389 29.925 270.814 29.625 271.897 29.025C272.997 28.4417 273.689 27.6 273.972 26.5H270.922C269.222 26.5 267.856 25.9833 266.822 24.95C265.789 23.9 265.272 22.5 265.272 20.75C265.272 18.9333 265.797 17.4583 266.847 16.325C267.914 15.175 269.272 14.6083 270.922 14.625C272.472 14.6583 273.731 15.1917 274.697 16.225C275.664 17.2417 276.147 18.5833 276.147 20.25V24.25H277.622ZM268.197 17.825C267.547 18.525 267.222 19.4667 267.222 20.65C267.222 21.8333 267.581 22.7417 268.297 23.375C269.014 24.0083 269.981 24.325 271.197 24.325C271.731 24.325 272.681 24.3083 274.047 24.275L274.022 20.425C274.022 19.3583 273.714 18.5 273.097 17.85C272.497 17.1833 271.706 16.8417 270.722 16.825C269.689 16.7917 268.847 17.125 268.197 17.825ZM285.936 10.45L284.111 12.275L282.261 10.45L284.061 8.65L285.936 10.45ZM284.436 14.375C286.036 14.375 287.378 14.925 288.461 16.025C289.545 17.1083 290.086 18.4667 290.086 20.1C290.086 22.1 289.461 23.6667 288.211 24.8C286.978 25.9333 285.27 26.5 283.086 26.5H277.611C277.445 26.5 277.361 26.4167 277.361 26.25V24.475C277.361 24.325 277.445 24.25 277.611 24.25H279.761C279.011 22.7 278.636 21.35 278.636 20.2C278.636 18.5167 279.178 17.125 280.261 16.025C281.361 14.925 282.753 14.375 284.436 14.375ZM283.261 24.25C284.695 24.25 285.836 23.8917 286.686 23.175C287.536 22.4583 287.961 21.4583 287.961 20.175C287.961 19.1083 287.611 18.2333 286.911 17.55C286.228 16.85 285.361 16.5 284.311 16.5C283.311 16.5 282.461 16.875 281.761 17.625C281.061 18.3583 280.711 19.225 280.711 20.225C280.711 21.425 281.128 22.7667 281.961 24.25H283.261ZM293.336 26.5V8.575L295.461 8.25V26.5H293.336ZM311.034 24.25C311.2 24.25 311.284 24.325 311.284 24.475V26.25C311.284 26.4167 311.2 26.5 311.034 26.5H309.559C309.259 30.0833 306.159 31.875 300.259 31.875L300.009 30.05C302.325 30.05 304.1 29.7667 305.334 29.2C306.567 28.6333 307.267 27.7333 307.434 26.5H304.434C302.667 26.5 301.25 25.9667 300.184 24.9C299.117 23.8167 298.584 22.3667 298.584 20.55C298.584 18.7667 299.125 17.3083 300.209 16.175C301.309 15.0417 302.692 14.475 304.359 14.475C305.909 14.475 307.167 14.9917 308.134 16.025C309.1 17.0417 309.584 18.3917 309.584 20.075V24.25H311.034ZM300.559 20.45C300.559 21.7 300.934 22.6583 301.684 23.325C302.434 23.9917 303.442 24.325 304.709 24.325C305.242 24.325 306.159 24.3083 307.459 24.275V20.25C307.459 19.1667 307.15 18.3 306.534 17.65C305.934 16.9833 305.142 16.65 304.159 16.65C303.125 16.65 302.267 17 301.584 17.7C300.9 18.4 300.559 19.3167 300.559 20.45ZM315.634 13.15L313.809 14.95L311.984 13.15L313.809 11.35L315.634 13.15ZM319.609 13.15L317.784 14.95L315.934 13.15L317.784 11.35L319.609 13.15ZM320.434 24.25C320.601 24.25 320.684 24.325 320.684 24.475V26.25C320.684 26.4167 320.601 26.5 320.434 26.5C318.884 26.5 317.451 25.8917 316.134 24.675C315.234 25.8917 313.534 26.5 311.034 26.5C310.868 26.5 310.784 26.4167 310.784 26.25L310.809 24.475C310.809 24.325 310.893 24.25 311.059 24.25C312.393 24.25 313.359 24.0083 313.959 23.525C314.576 23.025 314.884 22.225 314.884 21.125V17.075L316.984 16.75V21.7C316.984 22.1167 316.943 22.55 316.859 23C317.976 23.8333 319.168 24.25 320.434 24.25ZM327.259 14.375C328.859 14.375 330.2 14.925 331.284 16.025C332.367 17.1083 332.909 18.4667 332.909 20.1C332.909 22.1 332.284 23.6667 331.034 24.8C329.8 25.9333 328.092 26.5 325.909 26.5H320.434C320.267 26.5 320.184 26.4167 320.184 26.25V24.475C320.184 24.325 320.267 24.25 320.434 24.25H322.584C321.834 22.7 321.459 21.35 321.459 20.2C321.459 18.5167 322 17.125 323.084 16.025C324.184 14.925 325.575 14.375 327.259 14.375ZM326.084 24.25C327.517 24.25 328.659 23.8917 329.509 23.175C330.359 22.4583 330.784 21.4583 330.784 20.175C330.784 19.1083 330.434 18.2333 329.734 17.55C329.05 16.85 328.184 16.5 327.134 16.5C326.134 16.5 325.284 16.875 324.584 17.625C323.884 18.3583 323.534 19.225 323.534 20.225C323.534 21.425 323.95 22.7667 324.784 24.25H326.084ZM45.5361 65.895C45.5361 68.131 44.6781 70.042 42.9621 71.628C41.2721 73.188 39.2311 73.968 36.8391 73.968C35.4351 73.968 33.7581 73.539 31.8081 72.681C31.2881 72.447 30.8981 72.33 30.6381 72.33C30.3261 72.33 30.1311 72.707 30.0531 73.461C30.0271 73.851 29.8581 74.046 29.5461 74.046C29.2861 74.046 29.1561 73.89 29.1561 73.578C29.1561 73.37 29.1691 73.214 29.1951 73.11C29.4031 71.524 29.5071 70.055 29.5071 68.703C29.5071 68.443 29.4811 67.715 29.4291 66.519C29.4031 66.363 29.3901 66.155 29.3901 65.895C29.3901 65.505 29.5461 65.31 29.8581 65.31C30.1181 65.31 30.3001 65.622 30.4041 66.246C31.0801 70.874 33.2771 73.188 36.9951 73.188C38.5811 73.188 39.8031 72.746 40.6611 71.862C41.5451 70.952 41.9871 69.678 41.9871 68.04C41.9871 66.584 41.5581 65.349 40.7001 64.335C39.8681 63.295 38.4251 62.268 36.3711 61.254C33.9011 60.032 32.1851 58.849 31.2231 57.705C30.2611 56.561 29.7801 55.144 29.7801 53.454C29.7801 51.296 30.4691 49.515 31.8471 48.111C33.2511 46.707 35.0191 46.005 37.1511 46.005C38.0351 46.005 39.2571 46.304 40.8171 46.902C41.3631 47.11 41.7661 47.214 42.0261 47.214C42.3121 47.214 42.4941 47.162 42.5721 47.058C42.6761 46.954 42.7671 46.681 42.8451 46.239C42.8971 45.979 43.0401 45.849 43.2741 45.849C43.5341 45.849 43.6641 46.005 43.6641 46.317C43.6641 46.525 43.6511 46.681 43.6251 46.785C43.5471 47.409 43.5081 48.163 43.5081 49.047C43.5081 50.295 43.5731 51.283 43.7031 52.011L43.7421 52.635C43.7681 52.921 43.6511 53.064 43.3911 53.064C43.1051 53.064 42.9101 52.765 42.8061 52.167C42.5201 50.633 41.8441 49.359 40.7781 48.345C39.7121 47.305 38.5161 46.785 37.1901 46.785C35.8901 46.785 34.8501 47.201 34.0701 48.033C33.3161 48.865 32.9391 49.996 32.9391 51.426C32.9391 53.09 33.4981 54.429 34.6161 55.443C35.2401 56.015 36.5921 56.821 38.6721 57.861C41.1161 59.083 42.8711 60.331 43.9371 61.605C45.0031 62.853 45.5361 64.283 45.5361 65.895ZM67.1549 73.266C67.1549 73.474 66.9339 73.578 66.4919 73.578C66.2839 73.578 66.0889 73.565 65.9069 73.539C64.9969 73.565 62.9689 73.578 59.8229 73.578H59.3939C59.0559 73.578 58.8869 73.474 58.8869 73.266C58.8869 73.084 59.3809 72.993 60.3689 72.993C60.9669 72.993 61.3049 72.928 61.3829 72.798C61.4869 72.642 61.5389 72.148 61.5389 71.316V63.399C61.5389 61.033 61.4349 59.564 61.2269 58.992C60.7849 57.796 59.8099 57.198 58.3019 57.198C57.0539 57.198 56.0399 57.757 55.2599 58.875C54.9999 59.239 54.8699 60.045 54.8699 61.293V71.238C54.8699 71.94 54.8829 72.343 54.9089 72.447C54.9349 72.707 55.0389 72.863 55.2209 72.915C55.4029 72.941 55.9619 72.967 56.8979 72.993C57.2099 72.993 57.3659 73.097 57.3659 73.305C57.3659 73.487 57.2359 73.578 56.9759 73.578C56.9759 73.578 56.8459 73.565 56.5859 73.539L53.5049 73.5C51.3469 73.474 50.1509 73.5 49.9169 73.578H49.5269C49.2409 73.578 49.0979 73.487 49.0979 73.305C49.0979 73.097 49.2409 72.993 49.5269 72.993H50.1119L50.6969 72.954C51.2949 72.98 51.6069 72.798 51.6329 72.408V54.897C51.6329 50.737 51.5679 48.488 51.4379 48.15C51.2819 47.89 50.6449 47.747 49.5269 47.721C48.9029 47.721 48.5909 47.63 48.5909 47.448C48.5909 47.292 48.6559 47.201 48.7859 47.175C48.9159 47.149 49.3579 47.123 50.1119 47.097C51.4379 47.071 52.7119 46.759 53.9339 46.161C54.0379 46.109 54.2199 46.044 54.4799 45.966C54.6619 46.278 54.7529 47.279 54.7529 48.969V58.524C55.8969 56.86 57.4569 56.028 59.4329 56.028C61.5129 56.028 62.9949 56.6 63.8789 57.744C64.3209 58.316 64.5939 59.122 64.6979 60.162C64.7499 60.526 64.7759 61.397 64.7759 62.775V72.603C64.8019 72.863 65.4779 72.993 66.8039 72.993C67.0379 73.045 67.1549 73.136 67.1549 73.266ZM85.9859 71.745C85.9859 72.187 85.5179 72.655 84.5819 73.149C83.6719 73.617 82.7879 73.851 81.9299 73.851C80.1359 73.851 79.1999 72.928 79.1219 71.082C78.1339 73.006 76.5999 73.968 74.5199 73.968C73.4019 73.968 72.4789 73.643 71.7509 72.993C71.0229 72.317 70.6589 71.459 70.6589 70.419C70.6589 68.287 71.9459 66.597 74.5199 65.349C75.4039 64.933 76.9379 64.517 79.1219 64.101V63.126C79.1219 60.838 79.0049 59.33 78.7709 58.602C78.3549 57.276 77.4189 56.613 75.9629 56.613C75.0529 56.613 74.2859 56.86 73.6619 57.354C73.0639 57.848 72.7649 58.472 72.7649 59.226C72.7649 59.434 72.9209 59.538 73.2329 59.538C73.5709 59.538 73.8699 59.694 74.1299 60.006C74.3899 60.318 74.5199 60.669 74.5199 61.059C74.5199 62.203 73.9479 62.775 72.8039 62.775C72.2059 62.775 71.7119 62.58 71.3219 62.19C70.9319 61.774 70.7369 61.254 70.7369 60.63C70.7369 59.408 71.2179 58.355 72.1799 57.471C73.2459 56.509 74.7279 56.028 76.6259 56.028C79.4859 56.028 81.2409 56.808 81.8909 58.368C82.1249 58.966 82.2419 60.149 82.2419 61.917V69.21C82.2419 70.406 82.2549 71.108 82.2809 71.316C82.4109 72.252 82.7879 72.72 83.4119 72.72C84.1399 72.72 84.7379 72.46 85.2059 71.94C85.4659 71.654 85.6609 71.511 85.7909 71.511C85.9209 71.511 85.9859 71.589 85.9859 71.745ZM79.1219 67.611V64.764C77.1719 65.206 75.7679 65.791 74.9099 66.519C74.0779 67.221 73.6619 68.17 73.6619 69.366C73.6619 70.198 73.8959 70.887 74.3639 71.433C74.8579 71.953 75.4689 72.213 76.1969 72.213C77.3149 72.213 78.2119 71.589 78.8879 70.341C79.0439 70.055 79.1219 69.145 79.1219 67.611ZM99.8989 58.68C99.8989 59.278 99.7169 59.772 99.3529 60.162C98.9889 60.552 98.5209 60.747 97.9489 60.747C97.4809 60.747 97.0909 60.617 96.7789 60.357C96.4669 60.071 96.3109 59.72 96.3109 59.304C96.3109 58.94 96.4279 58.628 96.6619 58.368C96.8959 58.108 97.0129 57.926 97.0129 57.822C97.0129 57.432 96.7269 57.237 96.1549 57.237C95.4269 57.237 94.8029 57.692 94.2829 58.602C93.6849 59.668 93.3859 61.644 93.3859 64.53V72.252C93.3859 72.564 93.4899 72.759 93.6979 72.837C93.9319 72.915 94.6079 72.967 95.7259 72.993C96.0119 73.045 96.1549 73.149 96.1549 73.305C96.1549 73.487 95.9859 73.578 95.6479 73.578C95.0499 73.578 94.4909 73.565 93.9709 73.539C93.4509 73.513 92.4629 73.5 91.0069 73.5C90.2529 73.5 89.7069 73.513 89.3689 73.539C89.0309 73.565 88.6019 73.578 88.0819 73.578C87.6659 73.578 87.4579 73.487 87.4579 73.305C87.4579 73.123 87.6269 73.032 87.9649 73.032H88.5109C89.3949 73.032 89.9149 72.928 90.0709 72.72C90.1229 72.616 90.1489 72.135 90.1489 71.277V60.552C90.1489 59.122 89.9279 58.303 89.4859 58.095C89.0699 57.861 88.3939 57.731 87.4579 57.705C87.1459 57.705 86.9899 57.614 86.9899 57.432C86.9899 57.25 87.1199 57.159 87.3799 57.159H87.6529C88.0429 57.159 88.4329 57.185 88.8229 57.237C89.2129 57.263 89.3819 57.276 89.3299 57.276C90.2919 57.276 91.3579 57.003 92.5279 56.457L93.0349 56.223L93.3469 56.106C93.4509 56.73 93.5029 57.354 93.5029 57.978V58.758C94.3349 56.938 95.5049 56.028 97.0129 56.028C97.8449 56.028 98.5339 56.288 99.0799 56.808C99.6259 57.302 99.8989 57.926 99.8989 58.68ZM108.447 48.969C108.447 50.139 107.862 50.724 106.692 50.724C106.198 50.724 105.782 50.568 105.444 50.256C105.106 49.918 104.937 49.515 104.937 49.047C104.937 47.825 105.522 47.214 106.692 47.214C107.862 47.214 108.447 47.799 108.447 48.969ZM111.372 73.266C111.372 73.5 111.151 73.617 110.709 73.617C110.735 73.617 110.423 73.591 109.773 73.539C108.993 73.487 108.343 73.461 107.823 73.461L103.767 73.539C103.637 73.565 103.481 73.578 103.299 73.578C103.013 73.578 102.87 73.487 102.87 73.305C102.87 73.045 103.13 72.915 103.65 72.915C104.638 72.889 105.171 72.824 105.249 72.72C105.353 72.59 105.405 72.044 105.405 71.082L105.366 59.265C105.34 58.615 105.301 58.238 105.249 58.134C105.223 58.004 105.067 57.939 104.781 57.939L103.65 57.978C103.546 58.004 103.416 58.017 103.26 58.017C102.974 58.017 102.831 57.913 102.831 57.705C102.831 57.523 103.052 57.419 103.494 57.393C105.236 57.315 106.731 56.899 107.979 56.145L108.369 55.911C108.577 56.301 108.681 57.016 108.681 58.056C108.681 58.004 108.681 58.134 108.681 58.446C108.655 58.758 108.642 59.265 108.642 59.967V70.614C108.642 71.654 108.655 72.265 108.681 72.447C108.733 72.629 108.876 72.746 109.11 72.798C109.5 72.902 110.072 72.954 110.826 72.954C111.19 72.954 111.372 73.058 111.372 73.266ZM130.453 71.745C130.453 72.187 129.985 72.655 129.049 73.149C128.139 73.617 127.255 73.851 126.397 73.851C124.603 73.851 123.667 72.928 123.589 71.082C122.601 73.006 121.067 73.968 118.987 73.968C117.869 73.968 116.946 73.643 116.218 72.993C115.49 72.317 115.126 71.459 115.126 70.419C115.126 68.287 116.413 66.597 118.987 65.349C119.871 64.933 121.405 64.517 123.589 64.101V63.126C123.589 60.838 123.472 59.33 123.238 58.602C122.822 57.276 121.886 56.613 120.43 56.613C119.52 56.613 118.753 56.86 118.129 57.354C117.531 57.848 117.232 58.472 117.232 59.226C117.232 59.434 117.388 59.538 117.7 59.538C118.038 59.538 118.337 59.694 118.597 60.006C118.857 60.318 118.987 60.669 118.987 61.059C118.987 62.203 118.415 62.775 117.271 62.775C116.673 62.775 116.179 62.58 115.789 62.19C115.399 61.774 115.204 61.254 115.204 60.63C115.204 59.408 115.685 58.355 116.647 57.471C117.713 56.509 119.195 56.028 121.093 56.028C123.953 56.028 125.708 56.808 126.358 58.368C126.592 58.966 126.709 60.149 126.709 61.917V69.21C126.709 70.406 126.722 71.108 126.748 71.316C126.878 72.252 127.255 72.72 127.879 72.72C128.607 72.72 129.205 72.46 129.673 71.94C129.933 71.654 130.128 71.511 130.258 71.511C130.388 71.511 130.453 71.589 130.453 71.745ZM123.589 67.611V64.764C121.639 65.206 120.235 65.791 119.377 66.519C118.545 67.221 118.129 68.17 118.129 69.366C118.129 70.198 118.363 70.887 118.831 71.433C119.325 71.953 119.936 72.213 120.664 72.213C121.782 72.213 122.679 71.589 123.355 70.341C123.511 70.055 123.589 69.145 123.589 67.611ZM164.171 64.803C164.171 64.751 164.145 65.102 164.093 65.856C163.989 67.364 163.937 68.82 163.937 70.224C163.937 70.38 163.963 70.705 164.015 71.199C164.067 71.667 164.093 72.239 164.093 72.915V73.266C164.093 73.604 163.989 73.773 163.781 73.773C163.573 73.773 163.391 73.578 163.235 73.188C162.871 72.33 162.507 71.771 162.143 71.511C160.271 73.149 158.022 73.968 155.396 73.968C151.574 73.968 148.402 72.642 145.88 69.99C143.384 67.312 142.136 63.945 142.136 59.889C142.136 55.807 143.28 52.479 145.568 49.905C147.882 47.305 150.859 46.005 154.499 46.005C155.825 46.005 156.878 46.122 157.658 46.356C158.464 46.564 159.452 47.006 160.622 47.682C161.194 48.02 161.623 48.189 161.909 48.189C162.143 48.189 162.364 47.981 162.572 47.565C162.91 46.837 163.183 46.473 163.391 46.473C163.599 46.473 163.703 46.577 163.703 46.785C163.703 46.889 163.677 47.058 163.625 47.292C163.339 48.54 163.196 50.88 163.196 54.312C163.196 54.806 163.157 55.092 163.079 55.17C163.001 55.248 162.897 55.287 162.767 55.287C162.507 55.287 162.338 55.04 162.26 54.546C161.922 52.466 161.441 50.919 160.817 49.905C159.543 47.825 157.541 46.785 154.811 46.785C152.705 46.785 151.041 47.487 149.819 48.891C147.609 51.413 146.504 55.105 146.504 59.967C146.504 64.309 147.414 67.676 149.234 70.068C150.82 72.148 152.926 73.188 155.552 73.188C156.904 73.188 158.139 72.863 159.257 72.213C160.375 71.537 161.233 70.627 161.831 69.483C162.507 68.157 162.988 66.714 163.274 65.154C163.378 64.53 163.547 64.218 163.781 64.218C164.041 64.218 164.171 64.413 164.171 64.803ZM185.488 65.076C185.488 67.598 184.721 69.717 183.187 71.433C181.653 73.123 179.742 73.968 177.454 73.968C175.088 73.968 173.112 73.123 171.526 71.433C169.94 69.717 169.147 67.598 169.147 65.076C169.147 62.476 169.914 60.318 171.448 58.602C173.008 56.886 174.945 56.028 177.259 56.028C179.599 56.028 181.549 56.899 183.109 58.641C184.695 60.357 185.488 62.502 185.488 65.076ZM181.939 65.037C181.939 62.177 181.497 59.954 180.613 58.368C179.963 57.198 178.871 56.613 177.337 56.613C175.881 56.613 174.737 57.367 173.905 58.875C173.099 60.357 172.696 62.424 172.696 65.076C172.696 67.702 173.125 69.756 173.983 71.238C174.867 72.694 176.089 73.422 177.649 73.422C178.845 73.422 179.729 72.967 180.301 72.057C181.393 70.341 181.939 68.001 181.939 65.037ZM216.094 73.266C216.094 73.474 215.873 73.578 215.431 73.578C215.379 73.578 215.093 73.565 214.573 73.539C214.079 73.513 213.403 73.5 212.545 73.5C212.467 73.5 211.089 73.526 208.411 73.578C208.073 73.578 207.904 73.487 207.904 73.305C207.904 73.097 208.047 72.993 208.333 72.993H208.645L209.62 72.954C210.01 72.928 210.231 72.837 210.283 72.681C210.361 72.525 210.4 71.979 210.4 71.043V61.371C210.4 59.863 210.192 58.797 209.776 58.173C209.386 57.523 208.71 57.198 207.748 57.198C207.072 57.198 206.435 57.406 205.837 57.822C205.265 58.212 204.862 58.719 204.628 59.343C204.524 59.733 204.472 61.176 204.472 63.672V71.043C204.472 71.901 204.485 72.395 204.511 72.525C204.589 72.837 204.823 72.993 205.213 72.993H206.344C206.682 72.993 206.851 73.097 206.851 73.305C206.851 73.487 206.656 73.578 206.266 73.578H205.993C205.733 73.526 204.849 73.5 203.341 73.5C202.821 73.5 202.119 73.513 201.235 73.539C200.377 73.565 199.857 73.578 199.675 73.578H199.246C198.934 73.578 198.778 73.474 198.778 73.266C198.778 73.136 198.856 73.058 199.012 73.032C199.168 73.006 199.688 72.993 200.572 72.993C200.988 72.967 201.209 72.837 201.235 72.603L201.274 72.057V61.176C201.274 59.668 201.079 58.628 200.689 58.056C200.325 57.484 199.662 57.198 198.7 57.198C197.738 57.198 196.932 57.497 196.282 58.095C195.658 58.693 195.346 59.447 195.346 60.357V71.433C195.346 72.213 195.398 72.681 195.502 72.837C195.632 72.967 196.022 73.032 196.672 73.032H196.984C197.14 73.006 197.283 72.993 197.413 72.993C197.699 72.993 197.842 73.097 197.842 73.305C197.842 73.487 197.673 73.578 197.335 73.578H196.945C196.321 73.5 195.346 73.474 194.02 73.5L190.198 73.578C189.834 73.578 189.652 73.474 189.652 73.266C189.652 73.084 189.821 72.993 190.159 72.993C191.147 72.993 191.719 72.954 191.875 72.876C192.031 72.772 192.122 72.603 192.148 72.369V62.229C192.148 60.279 192.109 59.135 192.031 58.797C191.953 58.459 191.576 58.29 190.9 58.29H190.354C190.12 58.316 189.873 58.329 189.613 58.329C189.275 58.329 189.106 58.238 189.106 58.056C189.106 57.9 189.158 57.809 189.262 57.783C189.392 57.757 189.821 57.718 190.549 57.666C191.147 57.64 191.888 57.484 192.772 57.198C193.682 56.912 194.202 56.665 194.332 56.457C194.618 56.171 194.826 56.028 194.956 56.028C195.086 56.028 195.164 56.132 195.19 56.34C195.216 56.548 195.242 57.276 195.268 58.524C196.308 56.86 197.907 56.028 200.065 56.028C202.379 56.028 203.783 56.899 204.277 58.641C205.291 56.899 206.916 56.028 209.152 56.028C211.076 56.028 212.376 56.717 213.052 58.095C213.416 58.823 213.598 60.032 213.598 61.722V71.355C213.598 72.239 213.637 72.733 213.715 72.837C213.819 72.915 214.235 72.98 214.963 73.032L215.665 72.993C215.951 72.967 216.094 73.058 216.094 73.266ZM235.961 64.842C235.961 67.442 235.22 69.613 233.738 71.355C232.282 73.097 230.462 73.968 228.278 73.968C226.562 73.968 225.236 73.344 224.3 72.096V81.183C224.3 81.755 224.313 82.093 224.339 82.197C224.391 82.301 224.521 82.392 224.729 82.47C225.119 82.548 225.873 82.587 226.991 82.587C227.303 82.587 227.459 82.704 227.459 82.938C227.459 83.12 227.29 83.211 226.952 83.211H226.211C226.029 83.211 225.73 83.211 225.314 83.211C224.924 83.185 224.586 83.172 224.3 83.172C224.144 83.172 223.715 83.185 223.013 83.211C222.285 83.211 221.739 83.211 221.375 83.211H219.308C218.554 83.211 218.177 83.12 218.177 82.938C218.177 82.704 218.333 82.587 218.645 82.587H219.815C220.569 82.587 220.972 82.418 221.024 82.08C221.05 81.924 221.063 80.728 221.063 78.492V59.07C221.063 58.342 220.712 58.004 220.01 58.056C218.97 58.004 218.424 57.978 218.372 57.978C218.138 57.978 218.021 57.887 218.021 57.705C218.021 57.471 218.307 57.354 218.879 57.354C220.309 57.38 221.609 57.042 222.779 56.34C223.117 56.132 223.377 56.028 223.559 56.028C223.767 56.028 223.897 56.132 223.949 56.34C224.027 56.522 224.079 57.107 224.105 58.095C225.067 56.717 226.445 56.028 228.239 56.028C230.501 56.028 232.347 56.86 233.777 58.524C235.233 60.162 235.961 62.268 235.961 64.842ZM232.49 64.881C232.49 62.853 232.178 61.124 231.554 59.694C230.722 57.718 229.435 56.73 227.693 56.73C226.783 56.73 226.003 57.055 225.353 57.705C224.703 58.329 224.352 59.096 224.3 60.006C224.248 61.15 224.261 63.555 224.339 67.221C224.365 69.067 224.404 70.185 224.456 70.575C224.508 70.939 224.677 71.316 224.963 71.706C225.717 72.772 226.692 73.305 227.888 73.305C229.24 73.305 230.254 72.733 230.93 71.589C231.97 69.847 232.49 67.611 232.49 64.881ZM247.994 73.227C247.994 73.461 247.825 73.578 247.487 73.578H247.019C246.967 73.578 246.278 73.552 244.952 73.5L243.743 73.461C243.535 73.461 242.495 73.5 240.623 73.578C240.467 73.604 240.311 73.617 240.155 73.617C239.765 73.643 239.57 73.526 239.57 73.266C239.57 73.084 239.713 72.993 239.999 72.993H241.013C241.741 72.993 242.105 72.837 242.105 72.525C242.131 72.369 242.144 71.355 242.144 69.483V49.632C242.144 48.774 242.118 48.306 242.066 48.228C241.988 48.02 241.78 47.916 241.442 47.916H241.13L240.038 47.955C239.674 47.955 239.492 47.838 239.492 47.604C239.492 47.396 239.817 47.279 240.467 47.253C241.715 47.175 242.872 46.889 243.938 46.395L244.757 46.005L245.069 45.888C245.277 46.642 245.368 47.786 245.342 49.32L245.303 52.089L245.342 71.199C245.342 71.979 245.355 72.447 245.381 72.603C245.407 72.733 245.498 72.824 245.654 72.876C245.68 72.902 246.161 72.928 247.097 72.954C247.695 72.954 247.994 73.045 247.994 73.227ZM256.871 48.969C256.871 50.139 256.286 50.724 255.116 50.724C254.622 50.724 254.206 50.568 253.868 50.256C253.53 49.918 253.361 49.515 253.361 49.047C253.361 47.825 253.946 47.214 255.116 47.214C256.286 47.214 256.871 47.799 256.871 48.969ZM259.796 73.266C259.796 73.5 259.575 73.617 259.133 73.617C259.159 73.617 258.847 73.591 258.197 73.539C257.417 73.487 256.767 73.461 256.247 73.461L252.191 73.539C252.061 73.565 251.905 73.578 251.723 73.578C251.437 73.578 251.294 73.487 251.294 73.305C251.294 73.045 251.554 72.915 252.074 72.915C253.062 72.889 253.595 72.824 253.673 72.72C253.777 72.59 253.829 72.044 253.829 71.082L253.79 59.265C253.764 58.615 253.725 58.238 253.673 58.134C253.647 58.004 253.491 57.939 253.205 57.939L252.074 57.978C251.97 58.004 251.84 58.017 251.684 58.017C251.398 58.017 251.255 57.913 251.255 57.705C251.255 57.523 251.476 57.419 251.918 57.393C253.66 57.315 255.155 56.899 256.403 56.145L256.793 55.911C257.001 56.301 257.105 57.016 257.105 58.056C257.105 58.004 257.105 58.134 257.105 58.446C257.079 58.758 257.066 59.265 257.066 59.967V70.614C257.066 71.654 257.079 72.265 257.105 72.447C257.157 72.629 257.3 72.746 257.534 72.798C257.924 72.902 258.496 72.954 259.25 72.954C259.614 72.954 259.796 73.058 259.796 73.266ZM278.877 71.745C278.877 72.187 278.409 72.655 277.473 73.149C276.563 73.617 275.679 73.851 274.821 73.851C273.027 73.851 272.091 72.928 272.013 71.082C271.025 73.006 269.491 73.968 267.411 73.968C266.293 73.968 265.37 73.643 264.642 72.993C263.914 72.317 263.55 71.459 263.55 70.419C263.55 68.287 264.837 66.597 267.411 65.349C268.295 64.933 269.829 64.517 272.013 64.101V63.126C272.013 60.838 271.896 59.33 271.662 58.602C271.246 57.276 270.31 56.613 268.854 56.613C267.944 56.613 267.177 56.86 266.553 57.354C265.955 57.848 265.656 58.472 265.656 59.226C265.656 59.434 265.812 59.538 266.124 59.538C266.462 59.538 266.761 59.694 267.021 60.006C267.281 60.318 267.411 60.669 267.411 61.059C267.411 62.203 266.839 62.775 265.695 62.775C265.097 62.775 264.603 62.58 264.213 62.19C263.823 61.774 263.628 61.254 263.628 60.63C263.628 59.408 264.109 58.355 265.071 57.471C266.137 56.509 267.619 56.028 269.517 56.028C272.377 56.028 274.132 56.808 274.782 58.368C275.016 58.966 275.133 60.149 275.133 61.917V69.21C275.133 70.406 275.146 71.108 275.172 71.316C275.302 72.252 275.679 72.72 276.303 72.72C277.031 72.72 277.629 72.46 278.097 71.94C278.357 71.654 278.552 71.511 278.682 71.511C278.812 71.511 278.877 71.589 278.877 71.745ZM272.013 67.611V64.764C270.063 65.206 268.659 65.791 267.801 66.519C266.969 67.221 266.553 68.17 266.553 69.366C266.553 70.198 266.787 70.887 267.255 71.433C267.749 71.953 268.36 72.213 269.088 72.213C270.206 72.213 271.103 71.589 271.779 70.341C271.935 70.055 272.013 69.145 272.013 67.611ZM298.562 73.266C298.562 73.474 298.367 73.578 297.977 73.578H297.509C297.041 73.526 296.404 73.5 295.598 73.5C293.05 73.5 291.542 73.526 291.074 73.578H290.801C290.463 73.578 290.294 73.487 290.294 73.305C290.294 73.175 290.359 73.097 290.489 73.071C290.645 73.045 291.152 73.019 292.01 72.993C292.504 72.967 292.79 72.902 292.868 72.798C292.946 72.668 292.985 72.239 292.985 71.511V64.023C292.985 61.189 292.881 59.499 292.673 58.953C292.231 57.783 291.347 57.198 290.021 57.198C288.721 57.198 287.629 57.77 286.745 58.914C286.485 59.252 286.355 59.72 286.355 60.318L286.394 72.486C286.394 72.798 286.667 72.967 287.213 72.993L288.383 73.032C288.643 73.032 288.773 73.123 288.773 73.305C288.773 73.487 288.617 73.578 288.305 73.578H287.681C287.109 73.526 286.199 73.5 284.951 73.5C284.665 73.5 284.041 73.513 283.079 73.539C282.143 73.565 281.597 73.578 281.441 73.578H281.207C280.817 73.578 280.622 73.487 280.622 73.305C280.622 73.123 280.856 73.006 281.324 72.954C281.662 72.954 281.987 72.954 282.299 72.954C282.689 72.954 282.923 72.863 283.001 72.681L283.118 72.096V63.594C283.118 60.63 283.092 58.992 283.04 58.68C282.988 58.368 282.663 58.212 282.065 58.212C281.883 58.212 281.571 58.238 281.129 58.29H280.934C280.414 58.29 280.154 58.199 280.154 58.017C280.154 57.783 280.427 57.666 280.973 57.666C281.753 57.64 282.598 57.497 283.508 57.237C284.418 56.977 285.055 56.678 285.419 56.34C285.653 56.132 285.835 56.028 285.965 56.028C286.147 56.028 286.238 56.275 286.238 56.769V58.641C287.59 56.899 289.332 56.028 291.464 56.028C293.336 56.028 294.688 56.717 295.52 58.095C295.988 58.875 296.222 60.357 296.222 62.541V71.433C296.222 72.265 296.261 72.72 296.339 72.798C296.495 72.954 296.872 73.032 297.47 73.032C297.548 73.032 297.691 73.019 297.899 72.993H298.172C298.432 72.993 298.562 73.084 298.562 73.266ZM316.134 60.045C316.134 61.241 315.549 61.839 314.379 61.839C313.235 61.839 312.663 61.293 312.663 60.201C312.663 59.915 312.793 59.486 313.053 58.914C313.131 58.732 313.17 58.55 313.17 58.368C313.17 57.848 312.897 57.419 312.351 57.081C311.831 56.743 311.168 56.574 310.362 56.574C308.802 56.574 307.593 57.25 306.735 58.602C305.877 59.954 305.448 61.852 305.448 64.296C305.448 67.052 305.89 69.184 306.774 70.692C307.658 72.174 308.906 72.915 310.518 72.915C311.61 72.915 312.585 72.577 313.443 71.901C313.833 71.589 314.34 70.991 314.964 70.107C315.094 69.977 315.211 69.912 315.315 69.912C315.575 69.912 315.705 70.016 315.705 70.224C315.705 70.562 315.25 71.199 314.34 72.135C313.17 73.357 311.675 73.968 309.855 73.968C307.567 73.968 305.669 73.149 304.161 71.511C302.679 69.873 301.938 67.806 301.938 65.31C301.938 62.632 302.731 60.422 304.317 58.68C305.903 56.912 307.892 56.028 310.284 56.028C311.818 56.028 313.17 56.431 314.34 57.237C315.536 58.043 316.134 58.979 316.134 60.045ZM334.443 69.249C334.443 69.509 334.235 69.977 333.819 70.653C333.429 71.303 333.026 71.836 332.61 72.252C331.492 73.396 329.997 73.968 328.125 73.968C325.785 73.968 323.822 73.123 322.236 71.433C320.676 69.743 319.896 67.65 319.896 65.154C319.896 62.554 320.637 60.383 322.119 58.641C323.627 56.899 325.499 56.028 327.735 56.028C329.581 56.028 331.128 56.574 332.376 57.666C333.624 58.732 334.287 60.11 334.365 61.8C333.533 61.93 332.428 61.982 331.05 61.956L328.32 61.917C328.138 61.917 326.578 61.956 323.64 62.034C323.51 62.892 323.445 63.711 323.445 64.491C323.445 67.117 323.939 69.145 324.927 70.575C325.941 71.979 327.358 72.681 329.178 72.681C330.218 72.681 331.05 72.447 331.674 71.979C332.298 71.511 332.974 70.614 333.702 69.288C333.806 69.08 333.949 68.976 334.131 68.976C334.339 68.976 334.443 69.067 334.443 69.249ZM331.05 61.293C330.946 58.173 329.828 56.613 327.696 56.613C325.59 56.613 324.277 58.173 323.757 61.293H331.05Z" fill="#363434" fill-opacity="0.77"/>
<path d="M400.521 1.42408C402.251 -0.474695 405.239 -0.474693 406.969 1.42408L410.893 5.73044C412.04 6.99004 413.816 7.46594 415.44 6.9489L420.991 5.18124C423.439 4.40184 426.026 5.89586 426.575 8.40523L427.82 14.0964C428.184 15.7611 429.484 17.0612 431.149 17.4253L436.84 18.67C439.349 19.2188 440.843 21.8065 440.064 24.2541L438.296 29.8051C437.779 31.4288 438.255 33.2049 439.515 34.3525L443.821 38.276C445.72 40.006 445.72 42.994 443.821 44.724L439.515 48.6475C438.255 49.7951 437.779 51.5712 438.296 53.1949L440.064 58.7459C440.843 61.1935 439.349 63.7812 436.84 64.33L431.149 65.5747C429.484 65.9388 428.184 67.2389 427.82 68.9036L426.575 74.5948C426.026 77.1041 423.439 78.5982 420.991 77.8188L415.44 76.0511C413.816 75.5341 412.04 76.01 410.893 77.2696L406.969 81.5759C405.239 83.4747 402.251 83.4747 400.521 81.5759L396.598 77.2696C395.45 76.01 393.674 75.5341 392.05 76.0511L386.499 77.8188C384.052 78.5982 381.464 77.1041 380.915 74.5948L379.67 68.9036C379.306 67.2389 378.006 65.9388 376.342 65.5747L370.65 64.33C368.141 63.7812 366.647 61.1935 367.426 58.7459L369.194 53.1949C369.711 51.5712 369.235 49.7951 367.976 48.6475L363.669 44.724C361.77 42.994 361.77 40.006 363.669 38.276L367.976 34.3525C369.235 33.2049 369.711 31.4288 369.194 29.8051L367.426 24.2541C366.647 21.8065 368.141 19.2188 370.65 18.67L376.342 17.4253C378.006 17.0612 379.306 15.7611 379.67 14.0964L380.915 8.40523C381.464 5.89586 384.052 4.40184 386.499 5.18124L392.05 6.9489C393.674 7.46594 395.45 6.99004 396.598 5.73044L400.521 1.42408Z" fill="#03AB64"/>
<path fill-rule="evenodd" clip-rule="evenodd" d="M411.587 22.5681L416.536 22.4008C420.068 22.2815 422.964 25.1771 422.844 28.7096L422.677 33.6581L426.294 37.039C428.877 39.4525 428.877 43.5475 426.294 45.961L422.677 49.3419L422.844 54.2904C422.964 57.8229 420.068 60.7186 416.536 60.5992L411.587 60.4319L408.206 64.0493C405.793 66.6316 401.698 66.6316 399.284 64.0493L395.903 60.4319L390.955 60.5992C387.422 60.7186 384.527 57.8229 384.646 54.2904L384.813 49.3419L381.196 45.961C378.614 43.5475 378.614 39.4525 381.196 37.039L384.813 33.6581L384.646 28.7096C384.527 25.1771 387.422 22.2815 390.955 22.4008L395.903 22.5681L399.284 18.9507C401.698 16.3684 405.793 16.3684 408.206 18.9507L411.587 22.5681ZM405.02 21.9288C404.33 21.191 403.16 21.191 402.471 21.9288L398.278 26.4148C397.934 26.7828 397.448 26.9842 396.944 26.9672L390.807 26.7598C389.798 26.7257 388.971 27.553 389.005 28.5623L389.212 34.6992C389.229 35.2026 389.028 35.6887 388.66 36.0327L384.174 40.2254C383.436 40.915 383.436 42.085 384.174 42.7746L388.66 46.9673C389.028 47.3113 389.229 47.7974 389.212 48.3008L389.005 54.4377C388.971 55.447 389.798 56.2743 390.807 56.2402L396.944 56.0328C397.448 56.0158 397.934 56.2172 398.278 56.5852L402.471 61.0712C403.16 61.809 404.33 61.809 405.02 61.0712L409.212 56.5852C409.556 56.2172 410.043 56.0158 410.546 56.0328L416.683 56.2402C417.692 56.2743 418.519 55.447 418.485 54.4377L418.278 48.3008C418.261 47.7974 418.462 47.3113 418.83 46.9673L423.316 42.7746C424.054 42.085 424.054 40.915 423.316 40.2254L418.83 36.0327C418.462 35.6887 418.261 35.2026 418.278 34.6992L418.485 28.5623C418.519 27.553 417.692 26.7257 416.683 26.7598L410.546 26.9672C410.043 26.9842 409.556 26.7828 409.212 26.4148L405.02 21.9288Z" fill="white"/>
<path d="M18.5873 130.112L17.4993 127.456H11.8833L10.8433 130H9.3073L13.8513 119.136L15.5473 118.928L20.0753 129.888L18.5873 130.112ZM12.3953 126.208H16.9873L14.6833 120.592L12.3953 126.208ZM21.5936 130V118.528L23.0336 118.32V130H21.5936ZM25.4373 130V118.528L26.8773 118.32V130H25.4373ZM35.1728 119.12V122H38.0048V123.12H35.1728V127.776C35.1728 128.619 35.6688 129.04 36.6608 129.04C37.0875 129.04 37.5195 128.955 37.9568 128.784L38.1648 129.84C37.5888 130.053 36.9595 130.16 36.2768 130.16C35.4021 130.16 34.7568 129.952 34.3408 129.536C33.9355 129.109 33.7328 128.533 33.7328 127.808V123.12H32.4208V122H33.7328V119.392L35.1728 119.12ZM43.5672 121.84C44.4952 121.84 45.2098 122.096 45.7112 122.608C46.2125 123.12 46.4632 123.84 46.4632 124.768V130H45.0232V124.8C45.0232 124.213 44.8525 123.76 44.5112 123.44C44.1698 123.12 43.6845 122.96 43.0552 122.96C42.1912 122.96 41.4392 123.344 40.7992 124.112V130H39.3592V118.528L40.7992 118.32V123.216C41.4712 122.299 42.3938 121.84 43.5672 121.84ZM56.1891 125.76C56.1891 126.08 56.1837 126.304 56.1731 126.432H49.8531C49.9384 127.264 50.2317 127.915 50.7331 128.384C51.2451 128.853 51.9437 129.088 52.8291 129.088C53.7891 129.088 54.7011 128.869 55.5651 128.432L55.8371 129.456C54.9304 129.925 53.8957 130.16 52.7331 130.16C51.3144 130.16 50.2264 129.792 49.4691 129.056C48.7224 128.309 48.3491 127.291 48.3491 126C48.3491 124.731 48.7224 123.723 49.4691 122.976C50.2157 122.219 51.2184 121.84 52.4771 121.84C53.1704 121.84 53.7624 121.947 54.2531 122.16C54.7544 122.373 55.1384 122.672 55.4051 123.056C55.6824 123.44 55.8797 123.856 55.9971 124.304C56.1251 124.741 56.1891 125.227 56.1891 125.76ZM49.8691 125.376H54.7491C54.7384 124.619 54.5624 124.016 54.2211 123.568C53.8904 123.12 53.2931 122.896 52.4291 122.896C51.7357 122.896 51.1597 123.115 50.7011 123.552C50.2424 123.979 49.9651 124.587 49.8691 125.376ZM65.3754 121.84C66.5594 121.84 67.5034 122.304 68.2074 123.232V118.528L69.6474 118.32V130H68.3194L68.2074 128.768C67.4821 129.696 66.5381 130.16 65.3754 130.16C64.2341 130.16 63.3168 129.781 62.6234 129.024C61.9301 128.267 61.5834 127.259 61.5834 126C61.5834 124.741 61.9301 123.733 62.6234 122.976C63.3168 122.219 64.2341 121.84 65.3754 121.84ZM65.7434 129.04C66.7141 129.04 67.5301 128.635 68.1914 127.824V124.16C67.5194 123.36 66.7034 122.96 65.7434 122.96C64.8901 122.96 64.2288 123.243 63.7594 123.808C63.2901 124.363 63.0554 125.093 63.0554 126C63.0554 126.907 63.2901 127.643 63.7594 128.208C64.2288 128.763 64.8901 129.04 65.7434 129.04ZM79.4547 125.76C79.4547 126.08 79.4493 126.304 79.4387 126.432H73.1187C73.204 127.264 73.4973 127.915 73.9987 128.384C74.5107 128.853 75.2093 129.088 76.0947 129.088C77.0547 129.088 77.9667 128.869 78.8307 128.432L79.1027 129.456C78.196 129.925 77.1613 130.16 75.9987 130.16C74.58 130.16 73.492 129.792 72.7347 129.056C71.988 128.309 71.6147 127.291 71.6147 126C71.6147 124.731 71.988 123.723 72.7347 122.976C73.4813 122.219 74.484 121.84 75.7427 121.84C76.436 121.84 77.028 121.947 77.5187 122.16C78.02 122.373 78.404 122.672 78.6707 123.056C78.948 123.44 79.1453 123.856 79.2627 124.304C79.3907 124.741 79.4547 125.227 79.4547 125.76ZM73.1347 125.376H78.0147C78.004 124.619 77.828 124.016 77.4867 123.568C77.156 123.12 76.5587 122.896 75.6947 122.896C75.0013 122.896 74.4253 123.115 73.9667 123.552C73.508 123.979 73.2307 124.587 73.1347 125.376ZM88.9573 129.056C89.2026 129.056 89.4053 129.019 89.5653 128.944V130C89.2666 130.107 88.92 130.16 88.5253 130.16C87.5226 130.16 86.9573 129.707 86.8293 128.8C86.072 129.707 85.064 130.16 83.8053 130.16C82.9626 130.16 82.2906 129.947 81.7893 129.52C81.288 129.083 81.0373 128.523 81.0373 127.84C81.0373 126.955 81.384 126.293 82.0773 125.856C82.7706 125.419 83.6773 125.2 84.7973 125.2C85.416 125.2 86.0826 125.248 86.7973 125.344V124.64C86.7973 124.149 86.616 123.749 86.2533 123.44C85.8906 123.12 85.336 122.96 84.5893 122.96C83.5866 122.96 82.616 123.184 81.6773 123.632L81.4053 122.512C82.3226 122.064 83.4373 121.84 84.7493 121.84C85.8906 121.84 86.7546 122.101 87.3413 122.624C87.9386 123.136 88.2373 123.835 88.2373 124.72V128.192C88.2373 128.48 88.2853 128.699 88.3813 128.848C88.488 128.987 88.68 129.056 88.9573 129.056ZM84.2533 129.04C85.2133 129.04 86.0613 128.624 86.7973 127.792V126.416C86.232 126.32 85.5973 126.272 84.8933 126.272C83.304 126.272 82.5093 126.736 82.5093 127.664C82.5093 128.091 82.664 128.427 82.9733 128.672C83.2933 128.917 83.72 129.04 84.2533 129.04ZM90.7811 130V118.528L92.2211 118.32V130H90.7811ZM95.7128 124.08C95.7128 124.432 95.8835 124.709 96.2248 124.912C96.5661 125.104 96.9768 125.253 97.4568 125.36C97.9475 125.456 98.4328 125.573 98.9128 125.712C99.3928 125.84 99.8035 126.069 100.145 126.4C100.486 126.72 100.657 127.152 100.657 127.696C100.657 128.507 100.369 129.12 99.7928 129.536C99.2168 129.952 98.4008 130.16 97.3448 130.16C96.0541 130.16 94.9768 129.931 94.1128 129.472L94.4008 128.384C95.3075 128.843 96.2781 129.072 97.3128 129.072C98.5608 129.072 99.1848 128.629 99.1848 127.744C99.1848 127.392 99.0141 127.115 98.6728 126.912C98.3421 126.709 97.9315 126.56 97.4408 126.464C96.9608 126.357 96.4755 126.24 95.9848 126.112C95.5048 125.973 95.0941 125.739 94.7528 125.408C94.4221 125.067 94.2568 124.624 94.2568 124.08C94.2568 123.333 94.5395 122.773 95.1048 122.4C95.6701 122.027 96.4328 121.84 97.3928 121.84C98.6835 121.84 99.7608 122.064 100.625 122.512L100.353 123.6C99.4675 123.152 98.4915 122.928 97.4248 122.928C96.2835 122.928 95.7128 123.312 95.7128 124.08ZM113.91 129.056C114.156 129.056 114.358 129.019 114.518 128.944V130C114.22 130.107 113.873 130.16 113.478 130.16C112.476 130.16 111.91 129.707 111.782 128.8C111.025 129.707 110.017 130.16 108.758 130.16C107.916 130.16 107.244 129.947 106.742 129.52C106.241 129.083 105.99 128.523 105.99 127.84C105.99 126.955 106.337 126.293 107.03 125.856C107.724 125.419 108.63 125.2 109.75 125.2C110.369 125.2 111.036 125.248 111.75 125.344V124.64C111.75 124.149 111.569 123.749 111.206 123.44C110.844 123.12 110.289 122.96 109.542 122.96C108.54 122.96 107.569 123.184 106.63 123.632L106.358 122.512C107.276 122.064 108.39 121.84 109.702 121.84C110.844 121.84 111.708 122.101 112.294 122.624C112.892 123.136 113.19 123.835 113.19 124.72V128.192C113.19 128.48 113.238 128.699 113.334 128.848C113.441 128.987 113.633 129.056 113.91 129.056ZM109.206 129.04C110.166 129.04 111.014 128.624 111.75 127.792V126.416C111.185 126.32 110.55 126.272 109.846 126.272C108.257 126.272 107.462 126.736 107.462 127.664C107.462 128.091 107.617 128.427 107.926 128.672C108.246 128.917 108.673 129.04 109.206 129.04ZM119.942 121.84C120.87 121.84 121.585 122.096 122.086 122.608C122.588 123.12 122.838 123.84 122.838 124.768V130H121.398V124.8C121.398 124.213 121.228 123.76 120.886 123.44C120.545 123.12 120.06 122.96 119.43 122.96C118.566 122.96 117.814 123.344 117.174 124.112V130H115.734V122H117.062L117.174 123.216C117.846 122.299 118.769 121.84 119.942 121.84ZM128.516 121.84C129.7 121.84 130.644 122.304 131.348 123.232V118.528L132.788 118.32V130H131.46L131.348 128.768C130.623 129.696 129.679 130.16 128.516 130.16C127.375 130.16 126.457 129.781 125.764 129.024C125.071 128.267 124.724 127.259 124.724 126C124.724 124.741 125.071 123.733 125.764 122.976C126.457 122.219 127.375 121.84 128.516 121.84ZM128.884 129.04C129.855 129.04 130.671 128.635 131.332 127.824V124.16C130.66 123.36 129.844 122.96 128.884 122.96C128.031 122.96 127.369 123.243 126.9 123.808C126.431 124.363 126.196 125.093 126.196 126C126.196 126.907 126.431 127.643 126.9 128.208C127.369 128.763 128.031 129.04 128.884 129.04ZM141.079 119.12V122H143.911V123.12H141.079V127.776C141.079 128.619 141.575 129.04 142.567 129.04C142.994 129.04 143.426 128.955 143.863 128.784L144.071 129.84C143.495 130.053 142.866 130.16 142.183 130.16C141.308 130.16 140.663 129.952 140.247 129.536C139.842 129.109 139.639 128.533 139.639 127.808V123.12H138.327V122H139.639V119.392L141.079 119.12ZM149.937 123.28C149.233 123.28 148.593 123.429 148.017 123.728C147.452 124.016 147.015 124.389 146.705 124.848V130H145.265V122H146.593L146.689 123.824C146.988 123.227 147.415 122.747 147.969 122.384C148.524 122.021 149.132 121.84 149.793 121.84L149.937 123.28ZM158.895 129.056C159.14 129.056 159.343 129.019 159.503 128.944V130C159.204 130.107 158.857 130.16 158.463 130.16C157.46 130.16 156.895 129.707 156.767 128.8C156.009 129.707 155.001 130.16 153.743 130.16C152.9 130.16 152.228 129.947 151.727 129.52C151.225 129.083 150.975 128.523 150.975 127.84C150.975 126.955 151.321 126.293 152.015 125.856C152.708 125.419 153.615 125.2 154.735 125.2C155.353 125.2 156.02 125.248 156.735 125.344V124.64C156.735 124.149 156.553 123.749 156.191 123.44C155.828 123.12 155.273 122.96 154.527 122.96C153.524 122.96 152.553 123.184 151.615 123.632L151.343 122.512C152.26 122.064 153.375 121.84 154.687 121.84C155.828 121.84 156.692 122.101 157.279 122.624C157.876 123.136 158.175 123.835 158.175 124.72V128.192C158.175 128.48 158.223 128.699 158.319 128.848C158.425 128.987 158.617 129.056 158.895 129.056ZM154.191 129.04C155.151 129.04 155.999 128.624 156.735 127.792V126.416C156.169 126.32 155.535 126.272 154.831 126.272C153.241 126.272 152.447 126.736 152.447 127.664C152.447 128.091 152.601 128.427 152.911 128.672C153.231 128.917 153.657 129.04 154.191 129.04ZM164.927 121.84C165.855 121.84 166.569 122.096 167.071 122.608C167.572 123.12 167.823 123.84 167.823 124.768V130H166.383V124.8C166.383 124.213 166.212 123.76 165.871 123.44C165.529 123.12 165.044 122.96 164.415 122.96C163.551 122.96 162.799 123.344 162.159 124.112V130H160.719V122H162.047L162.159 123.216C162.831 122.299 163.753 121.84 164.927 121.84ZM171.228 124.08C171.228 124.432 171.399 124.709 171.74 124.912C172.082 125.104 172.492 125.253 172.972 125.36C173.463 125.456 173.948 125.573 174.428 125.712C174.908 125.84 175.319 126.069 175.66 126.4C176.002 126.72 176.172 127.152 176.172 127.696C176.172 128.507 175.884 129.12 175.308 129.536C174.732 129.952 173.916 130.16 172.86 130.16C171.57 130.16 170.492 129.931 169.628 129.472L169.916 128.384C170.823 128.843 171.794 129.072 172.828 129.072C174.076 129.072 174.7 128.629 174.7 127.744C174.7 127.392 174.53 127.115 174.188 126.912C173.858 126.709 173.447 126.56 172.956 126.464C172.476 126.357 171.991 126.24 171.5 126.112C171.02 125.973 170.61 125.739 170.268 125.408C169.938 125.067 169.772 124.624 169.772 124.08C169.772 123.333 170.055 122.773 170.62 122.4C171.186 122.027 171.948 121.84 172.908 121.84C174.199 121.84 175.276 122.064 176.14 122.512L175.868 123.6C174.983 123.152 174.007 122.928 172.94 122.928C171.799 122.928 171.228 123.312 171.228 124.08ZM185.551 129.056C185.796 129.056 185.999 129.019 186.159 128.944V130C185.86 130.107 185.514 130.16 185.119 130.16C184.116 130.16 183.551 129.707 183.423 128.8C182.666 129.707 181.658 130.16 180.399 130.16C179.556 130.16 178.884 129.947 178.383 129.52C177.882 129.083 177.631 128.523 177.631 127.84C177.631 126.955 177.978 126.293 178.671 125.856C179.364 125.419 180.271 125.2 181.391 125.2C182.01 125.2 182.676 125.248 183.391 125.344V124.64C183.391 124.149 183.21 123.749 182.847 123.44C182.484 123.12 181.93 122.96 181.183 122.96C180.18 122.96 179.21 123.184 178.271 123.632L177.999 122.512C178.916 122.064 180.031 121.84 181.343 121.84C182.484 121.84 183.348 122.101 183.935 122.624C184.532 123.136 184.831 123.835 184.831 124.72V128.192C184.831 128.48 184.879 128.699 184.975 128.848C185.082 128.987 185.274 129.056 185.551 129.056ZM180.847 129.04C181.807 129.04 182.655 128.624 183.391 127.792V126.416C182.826 126.32 182.191 126.272 181.487 126.272C179.898 126.272 179.103 126.736 179.103 127.664C179.103 128.091 179.258 128.427 179.567 128.672C179.887 128.917 180.314 129.04 180.847 129.04ZM191.343 129.04C192.143 129.04 192.98 128.821 193.855 128.384L194.127 129.456C193.209 129.925 192.244 130.16 191.231 130.16C189.919 130.16 188.873 129.787 188.095 129.04C187.327 128.283 186.943 127.269 186.943 126C186.943 124.731 187.327 123.723 188.095 122.976C188.873 122.219 189.919 121.84 191.231 121.84C192.244 121.84 193.209 122.075 194.127 122.544L193.855 123.616C192.98 123.179 192.143 122.96 191.343 122.96C190.468 122.96 189.759 123.232 189.215 123.776C188.681 124.32 188.415 125.061 188.415 126C188.415 126.939 188.681 127.68 189.215 128.224C189.759 128.768 190.468 129.04 191.343 129.04ZM197.954 119.12V122H200.786V123.12H197.954V127.776C197.954 128.619 198.45 129.04 199.442 129.04C199.869 129.04 200.301 128.955 200.738 128.784L200.946 129.84C200.37 130.053 199.741 130.16 199.058 130.16C198.183 130.16 197.538 129.952 197.122 129.536C196.717 129.109 196.514 128.533 196.514 127.808V123.12H195.202V122H196.514V119.392L197.954 119.12ZM202.876 120.544L201.772 119.472L202.876 118.416L203.948 119.472L202.876 120.544ZM203.58 130H202.14V122H203.58V130ZM209.856 121.84C211.168 121.84 212.208 122.24 212.976 123.04C213.755 123.829 214.144 124.816 214.144 126C214.144 127.184 213.755 128.176 212.976 128.976C212.208 129.765 211.168 130.16 209.856 130.16C208.523 130.16 207.472 129.765 206.704 128.976C205.936 128.176 205.552 127.184 205.552 126C205.552 124.816 205.936 123.829 206.704 123.04C207.472 122.24 208.523 121.84 209.856 121.84ZM209.84 129.04C210.736 129.04 211.43 128.747 211.92 128.16C212.422 127.563 212.672 126.843 212.672 126C212.672 125.168 212.422 124.453 211.92 123.856C211.43 123.259 210.736 122.96 209.84 122.96C208.944 122.96 208.251 123.259 207.76 123.856C207.27 124.443 207.024 125.157 207.024 126C207.024 126.853 207.264 127.573 207.744 128.16C208.235 128.747 208.934 129.04 209.84 129.04ZM220.317 121.84C221.245 121.84 221.96 122.096 222.461 122.608C222.963 123.12 223.213 123.84 223.213 124.768V130H221.773V124.8C221.773 124.213 221.603 123.76 221.261 123.44C220.92 123.12 220.435 122.96 219.805 122.96C218.941 122.96 218.189 123.344 217.549 124.112V130H216.109V122H217.437L217.549 123.216C218.221 122.299 219.144 121.84 220.317 121.84ZM226.619 124.08C226.619 124.432 226.79 124.709 227.131 124.912C227.472 125.104 227.883 125.253 228.363 125.36C228.854 125.456 229.339 125.573 229.819 125.712C230.299 125.84 230.71 126.069 231.051 126.4C231.392 126.72 231.563 127.152 231.563 127.696C231.563 128.507 231.275 129.12 230.699 129.536C230.123 129.952 229.307 130.16 228.251 130.16C226.96 130.16 225.883 129.931 225.019 129.472L225.307 128.384C226.214 128.843 227.184 129.072 228.219 129.072C229.467 129.072 230.091 128.629 230.091 127.744C230.091 127.392 229.92 127.115 229.579 126.912C229.248 126.709 228.838 126.56 228.347 126.464C227.867 126.357 227.382 126.24 226.891 126.112C226.411 125.973 226 125.739 225.659 125.408C225.328 125.067 225.163 124.624 225.163 124.08C225.163 123.333 225.446 122.773 226.011 122.4C226.576 122.027 227.339 121.84 228.299 121.84C229.59 121.84 230.667 122.064 231.531 122.512L231.259 123.6C230.374 123.152 229.398 122.928 228.331 122.928C227.19 122.928 226.619 123.312 226.619 124.08ZM242.865 122H244.305V130H242.993L242.881 128.784C242.187 129.701 241.265 130.16 240.113 130.16C239.185 130.16 238.47 129.904 237.969 129.392C237.467 128.88 237.217 128.16 237.217 127.232V122.048L238.657 121.84V127.2C238.657 127.787 238.827 128.24 239.169 128.56C239.51 128.88 239.995 129.04 240.625 129.04C241.478 129.04 242.225 128.656 242.865 127.888V122ZM250.927 121.84C251.855 121.84 252.569 122.096 253.071 122.608C253.572 123.12 253.823 123.84 253.823 124.768V130H252.383V124.8C252.383 124.213 252.212 123.76 251.871 123.44C251.529 123.12 251.044 122.96 250.415 122.96C249.551 122.96 248.799 123.344 248.159 124.112V130H246.719V122H248.047L248.159 123.216C248.831 122.299 249.753 121.84 250.927 121.84ZM259.5 121.84C260.684 121.84 261.628 122.304 262.332 123.232V118.528L263.772 118.32V130H262.444L262.332 128.768C261.607 129.696 260.663 130.16 259.5 130.16C258.359 130.16 257.442 129.781 256.748 129.024C256.055 128.267 255.708 127.259 255.708 126C255.708 124.741 256.055 123.733 256.748 122.976C257.442 122.219 258.359 121.84 259.5 121.84ZM259.868 129.04C260.839 129.04 261.655 128.635 262.316 127.824V124.16C261.644 123.36 260.828 122.96 259.868 122.96C259.015 122.96 258.354 123.243 257.884 123.808C257.415 124.363 257.18 125.093 257.18 126C257.18 126.907 257.415 127.643 257.884 128.208C258.354 128.763 259.015 129.04 259.868 129.04ZM273.58 125.76C273.58 126.08 273.574 126.304 273.564 126.432H267.244C267.329 127.264 267.622 127.915 268.124 128.384C268.636 128.853 269.334 129.088 270.22 129.088C271.18 129.088 272.092 128.869 272.956 128.432L273.228 129.456C272.321 129.925 271.286 130.16 270.124 130.16C268.705 130.16 267.617 129.792 266.86 129.056C266.113 128.309 265.74 127.291 265.74 126C265.74 124.731 266.113 123.723 266.86 122.976C267.606 122.219 268.609 121.84 269.868 121.84C270.561 121.84 271.153 121.947 271.644 122.16C272.145 122.373 272.529 122.672 272.796 123.056C273.073 123.44 273.27 123.856 273.388 124.304C273.516 124.741 273.58 125.227 273.58 125.76ZM267.26 125.376H272.14C272.129 124.619 271.953 124.016 271.612 123.568C271.281 123.12 270.684 122.896 269.82 122.896C269.126 122.896 268.55 123.115 268.092 123.552C267.633 123.979 267.356 124.587 267.26 125.376ZM280.234 123.28C279.53 123.28 278.89 123.429 278.314 123.728C277.749 124.016 277.312 124.389 277.002 124.848V130H275.562V122H276.89L276.986 123.824C277.285 123.227 277.712 122.747 278.266 122.384C278.821 122.021 279.429 121.84 280.09 121.84L280.234 123.28ZM283.782 119.12V122H286.614V123.12H283.782V127.776C283.782 128.619 284.278 129.04 285.27 129.04C285.697 129.04 286.129 128.955 286.566 128.784L286.774 129.84C286.198 130.053 285.569 130.16 284.886 130.16C284.012 130.16 283.366 129.952 282.95 129.536C282.545 129.109 282.342 128.533 282.342 127.808V123.12H281.03V122H282.342V119.392L283.782 119.12ZM295.457 129.056C295.703 129.056 295.905 129.019 296.065 128.944V130C295.767 130.107 295.42 130.16 295.025 130.16C294.023 130.16 293.457 129.707 293.329 128.8C292.572 129.707 291.564 130.16 290.305 130.16C289.463 130.16 288.791 129.947 288.289 129.52C287.788 129.083 287.537 128.523 287.537 127.84C287.537 126.955 287.884 126.293 288.577 125.856C289.271 125.419 290.177 125.2 291.297 125.2C291.916 125.2 292.583 125.248 293.297 125.344V124.64C293.297 124.149 293.116 123.749 292.753 123.44C292.391 123.12 291.836 122.96 291.089 122.96C290.087 122.96 289.116 123.184 288.177 123.632L287.905 122.512C288.823 122.064 289.937 121.84 291.249 121.84C292.391 121.84 293.255 122.101 293.841 122.624C294.439 123.136 294.737 123.835 294.737 124.72V128.192C294.737 128.48 294.785 128.699 294.881 128.848C294.988 128.987 295.18 129.056 295.457 129.056ZM290.753 129.04C291.713 129.04 292.561 128.624 293.297 127.792V126.416C292.732 126.32 292.097 126.272 291.393 126.272C289.804 126.272 289.009 126.736 289.009 127.664C289.009 128.091 289.164 128.427 289.473 128.672C289.793 128.917 290.22 129.04 290.753 129.04ZM303.217 130L300.225 126.448H298.721V130H297.281V118.528L298.721 118.32V125.328H300.145L302.833 122H304.401L301.393 125.808L304.849 130H303.217ZM313.33 125.76C313.33 126.08 313.324 126.304 313.314 126.432H306.994C307.079 127.264 307.372 127.915 307.874 128.384C308.386 128.853 309.084 129.088 309.97 129.088C310.93 129.088 311.842 128.869 312.706 128.432L312.978 129.456C312.071 129.925 311.036 130.16 309.874 130.16C308.455 130.16 307.367 129.792 306.61 129.056C305.863 128.309 305.49 127.291 305.49 126C305.49 124.731 305.863 123.723 306.61 122.976C307.356 122.219 308.359 121.84 309.618 121.84C310.311 121.84 310.903 121.947 311.394 122.16C311.895 122.373 312.279 122.672 312.546 123.056C312.823 123.44 313.02 123.856 313.138 124.304C313.266 124.741 313.33 125.227 313.33 125.76ZM307.01 125.376H311.89C311.879 124.619 311.703 124.016 311.362 123.568C311.031 123.12 310.434 122.896 309.57 122.896C308.876 122.896 308.3 123.115 307.842 123.552C307.383 123.979 307.106 124.587 307.01 125.376ZM319.52 121.84C320.448 121.84 321.163 122.096 321.664 122.608C322.166 123.12 322.416 123.84 322.416 124.768V130H320.976V124.8C320.976 124.213 320.806 123.76 320.464 123.44C320.123 123.12 319.638 122.96 319.008 122.96C318.144 122.96 317.392 123.344 316.752 124.112V130H315.312V122H316.64L316.752 123.216C317.424 122.299 318.347 121.84 319.52 121.84ZM332.85 121.84C333.991 121.84 334.909 122.219 335.602 122.976C336.295 123.733 336.642 124.741 336.642 126C336.642 127.259 336.295 128.267 335.602 129.024C334.909 129.781 333.991 130.16 332.85 130.16C331.687 130.16 330.743 129.696 330.018 128.768L329.906 130H328.578V118.528L330.018 118.32V123.232C330.722 122.304 331.666 121.84 332.85 121.84ZM332.482 129.04C333.325 129.04 333.981 128.763 334.45 128.208C334.93 127.643 335.17 126.907 335.17 126C335.17 125.093 334.93 124.363 334.45 123.808C333.981 123.243 333.325 122.96 332.482 122.96C331.522 122.96 330.701 123.36 330.018 124.16V127.824C330.701 128.635 331.522 129.04 332.482 129.04ZM344.772 122H346.292L342.308 130.736C341.86 131.739 341.375 132.48 340.852 132.96C340.34 133.44 339.674 133.68 338.852 133.68C338.351 133.68 337.935 133.616 337.604 133.488L337.812 132.416C338.175 132.512 338.511 132.56 338.82 132.56C339.268 132.56 339.652 132.427 339.972 132.16C340.292 131.893 340.618 131.419 340.948 130.736L341.316 129.952L337.7 122H339.22L342.052 128.272L344.772 122ZM360.165 130.112L359.077 127.456H353.461L352.421 130H350.885L355.429 119.136L357.125 118.928L361.653 129.888L360.165 130.112ZM353.973 126.208H358.565L356.261 120.592L353.973 126.208ZM364.26 124.08C364.26 124.432 364.43 124.709 364.772 124.912C365.113 125.104 365.524 125.253 366.004 125.36C366.494 125.456 366.98 125.573 367.46 125.712C367.94 125.84 368.35 126.069 368.692 126.4C369.033 126.72 369.204 127.152 369.204 127.696C369.204 128.507 368.916 129.12 368.34 129.536C367.764 129.952 366.948 130.16 365.892 130.16C364.601 130.16 363.524 129.931 362.66 129.472L362.948 128.384C363.854 128.843 364.825 129.072 365.86 129.072C367.108 129.072 367.732 128.629 367.732 127.744C367.732 127.392 367.561 127.115 367.22 126.912C366.889 126.709 366.478 126.56 365.988 126.464C365.508 126.357 365.022 126.24 364.532 126.112C364.052 125.973 363.641 125.739 363.3 125.408C362.969 125.067 362.804 124.624 362.804 124.08C362.804 123.333 363.086 122.773 363.652 122.4C364.217 122.027 364.98 121.84 365.94 121.84C367.23 121.84 368.308 122.064 369.172 122.512L368.9 123.6C368.014 123.152 367.038 122.928 365.972 122.928C364.83 122.928 364.26 123.312 364.26 124.08ZM378.502 125.76C378.502 126.08 378.496 126.304 378.486 126.432H372.166C372.251 127.264 372.544 127.915 373.046 128.384C373.558 128.853 374.256 129.088 375.142 129.088C376.102 129.088 377.014 128.869 377.878 128.432L378.15 129.456C377.243 129.925 376.208 130.16 375.046 130.16C373.627 130.16 372.539 129.792 371.782 129.056C371.035 128.309 370.662 127.291 370.662 126C370.662 124.731 371.035 123.723 371.782 122.976C372.528 122.219 373.531 121.84 374.79 121.84C375.483 121.84 376.075 121.947 376.566 122.16C377.067 122.373 377.451 122.672 377.718 123.056C377.995 123.44 378.192 123.856 378.31 124.304C378.438 124.741 378.502 125.227 378.502 125.76ZM372.182 125.376H377.062C377.051 124.619 376.875 124.016 376.534 123.568C376.203 123.12 375.606 122.896 374.742 122.896C374.048 122.896 373.472 123.115 373.014 123.552C372.555 123.979 372.278 124.587 372.182 125.376ZM387.892 125.76C387.892 126.08 387.887 126.304 387.876 126.432H381.556C381.642 127.264 381.935 127.915 382.436 128.384C382.948 128.853 383.647 129.088 384.532 129.088C385.492 129.088 386.404 128.869 387.268 128.432L387.54 129.456C386.634 129.925 385.599 130.16 384.436 130.16C383.018 130.16 381.93 129.792 381.172 129.056C380.426 128.309 380.052 127.291 380.052 126C380.052 124.731 380.426 123.723 381.172 122.976C381.919 122.219 382.922 121.84 384.18 121.84C384.874 121.84 385.466 121.947 385.956 122.16C386.458 122.373 386.842 122.672 387.108 123.056C387.386 123.44 387.583 123.856 387.7 124.304C387.828 124.741 387.892 125.227 387.892 125.76ZM381.572 125.376H386.452C386.442 124.619 386.266 124.016 385.924 123.568C385.594 123.12 384.996 122.896 384.132 122.896C383.439 122.896 382.863 123.115 382.404 123.552C381.946 123.979 381.668 124.587 381.572 125.376ZM389.875 130V118.528L391.315 118.32V130H389.875ZM402.314 119.12C403.594 119.12 404.592 119.445 405.306 120.096C406.032 120.747 406.394 121.605 406.394 122.672C406.394 123.749 406.032 124.613 405.306 125.264C404.592 125.915 403.594 126.24 402.314 126.24H399.258V130H397.77V119.12H402.314ZM402.266 124.976C403.034 124.976 403.658 124.779 404.138 124.384C404.618 123.989 404.858 123.419 404.858 122.672C404.858 121.925 404.618 121.36 404.138 120.976C403.658 120.581 403.034 120.384 402.266 120.384H399.258V124.976H402.266ZM408.015 130V118.528L409.455 118.32V130H408.015ZM419.379 129.056C419.625 129.056 419.827 129.019 419.987 128.944V130C419.689 130.107 419.342 130.16 418.947 130.16C417.945 130.16 417.379 129.707 417.251 128.8C416.494 129.707 415.486 130.16 414.227 130.16C413.385 130.16 412.713 129.947 412.211 129.52C411.71 129.083 411.459 128.523 411.459 127.84C411.459 126.955 411.806 126.293 412.499 125.856C413.193 125.419 414.099 125.2 415.219 125.2C415.838 125.2 416.505 125.248 417.219 125.344V124.64C417.219 124.149 417.038 123.749 416.675 123.44C416.313 123.12 415.758 122.96 415.011 122.96C414.009 122.96 413.038 123.184 412.099 123.632L411.827 122.512C412.745 122.064 413.859 121.84 415.171 121.84C416.313 121.84 417.177 122.101 417.763 122.624C418.361 123.136 418.659 123.835 418.659 124.72V128.192C418.659 128.48 418.707 128.699 418.803 128.848C418.91 128.987 419.102 129.056 419.379 129.056ZM414.675 129.04C415.635 129.04 416.483 128.624 417.219 127.792V126.416C416.654 126.32 416.019 126.272 415.315 126.272C413.726 126.272 412.931 126.736 412.931 127.664C412.931 128.091 413.086 128.427 413.395 128.672C413.715 128.917 414.142 129.04 414.675 129.04ZM423.22 119.12V122H426.052V123.12H423.22V127.776C423.22 128.619 423.716 129.04 424.708 129.04C425.134 129.04 425.566 128.955 426.004 128.784L426.212 129.84C425.636 130.053 425.006 130.16 424.324 130.16C423.449 130.16 422.804 129.952 422.388 129.536C421.982 129.109 421.78 128.533 421.78 127.808V123.12H420.468V122H421.78V119.392L423.22 119.12ZM426.702 122H428.014V120.944C428.014 120.101 428.254 119.456 428.734 119.008C429.225 118.549 429.918 118.32 430.814 118.32C431.603 118.32 432.254 118.427 432.766 118.64L432.478 119.696C432.073 119.525 431.587 119.44 431.022 119.44C429.977 119.44 429.454 119.952 429.454 120.976V122H432.366V123.12H429.454V130H428.014V123.12H426.702V122ZM438.234 123.28C437.53 123.28 436.89 123.429 436.314 123.728C435.749 124.016 435.312 124.389 435.002 124.848V130H433.562V122H434.89L434.986 123.824C435.285 123.227 435.712 122.747 436.266 122.384C436.821 122.021 437.429 121.84 438.09 121.84L438.234 123.28ZM443.497 121.84C444.809 121.84 445.849 122.24 446.617 123.04C447.395 123.829 447.785 124.816 447.785 126C447.785 127.184 447.395 128.176 446.617 128.976C445.849 129.765 444.809 130.16 443.497 130.16C442.163 130.16 441.113 129.765 440.345 128.976C439.577 128.176 439.193 127.184 439.193 126C439.193 124.816 439.577 123.829 440.345 123.04C441.113 122.24 442.163 121.84 443.497 121.84ZM443.481 129.04C444.377 129.04 445.07 128.747 445.561 128.16C446.062 127.563 446.313 126.843 446.313 126C446.313 125.168 446.062 124.453 445.561 123.856C445.07 123.259 444.377 122.96 443.481 122.96C442.585 122.96 441.891 123.259 441.401 123.856C440.91 124.443 440.665 125.157 440.665 126C440.665 126.853 440.905 127.573 441.385 128.16C441.875 128.747 442.574 129.04 443.481 129.04ZM459.494 121.84C460.422 121.84 461.136 122.096 461.638 122.608C462.139 123.12 462.39 123.84 462.39 124.768V130H460.95V124.8C460.95 124.213 460.779 123.76 460.438 123.44C460.096 123.12 459.611 122.96 458.982 122.96C458.118 122.96 457.371 123.344 456.742 124.112C456.774 124.315 456.79 124.533 456.79 124.768V130H455.35V124.8C455.35 124.213 455.179 123.76 454.838 123.44C454.496 123.12 454.011 122.96 453.382 122.96C452.55 122.96 451.819 123.344 451.19 124.112V130H449.75V122H451.078L451.19 123.216C451.862 122.299 452.763 121.84 453.894 121.84C455.28 121.84 456.171 122.373 456.566 123.44C457.27 122.373 458.246 121.84 459.494 121.84ZM98.3323 150.056C98.5776 150.056 98.7803 150.019 98.9403 149.944V151C98.6416 151.107 98.295 151.16 97.9003 151.16C96.8976 151.16 96.3323 150.707 96.2043 149.8C95.447 150.707 94.439 151.16 93.1803 151.16C92.3376 151.16 91.6656 150.947 91.1643 150.52C90.663 150.083 90.4123 149.523 90.4123 148.84C90.4123 147.955 90.759 147.293 91.4523 146.856C92.1456 146.419 93.0523 146.2 94.1723 146.2C94.791 146.2 95.4576 146.248 96.1723 146.344V145.64C96.1723 145.149 95.991 144.749 95.6283 144.44C95.2656 144.12 94.711 143.96 93.9643 143.96C92.9616 143.96 91.991 144.184 91.0523 144.632L90.7803 143.512C91.6976 143.064 92.8123 142.84 94.1243 142.84C95.2656 142.84 96.1296 143.101 96.7163 143.624C97.3136 144.136 97.6123 144.835 97.6123 145.72V149.192C97.6123 149.48 97.6603 149.699 97.7563 149.848C97.863 149.987 98.055 150.056 98.3323 150.056ZM93.6283 150.04C94.5883 150.04 95.4363 149.624 96.1723 148.792V147.416C95.607 147.32 94.9723 147.272 94.2683 147.272C92.679 147.272 91.8843 147.736 91.8843 148.664C91.8843 149.091 92.039 149.427 92.3483 149.672C92.6683 149.917 93.095 150.04 93.6283 150.04ZM104.828 144.28C104.124 144.28 103.484 144.429 102.908 144.728C102.343 145.016 101.905 145.389 101.596 145.848V151H100.156V143H101.484L101.58 144.824C101.879 144.227 102.305 143.747 102.86 143.384C103.415 143.021 104.023 142.84 104.684 142.84L104.828 144.28ZM113.627 146.76C113.627 147.08 113.621 147.304 113.611 147.432H107.291C107.376 148.264 107.669 148.915 108.171 149.384C108.683 149.853 109.381 150.088 110.267 150.088C111.227 150.088 112.139 149.869 113.003 149.432L113.275 150.456C112.368 150.925 111.333 151.16 110.171 151.16C108.752 151.16 107.664 150.792 106.907 150.056C106.16 149.309 105.787 148.291 105.787 147C105.787 145.731 106.16 144.723 106.907 143.976C107.653 143.219 108.656 142.84 109.915 142.84C110.608 142.84 111.2 142.947 111.691 143.16C112.192 143.373 112.576 143.672 112.843 144.056C113.12 144.44 113.317 144.856 113.435 145.304C113.563 145.741 113.627 146.227 113.627 146.76ZM107.307 146.376H112.187C112.176 145.619 112 145.016 111.659 144.568C111.328 144.12 110.731 143.896 109.867 143.896C109.173 143.896 108.597 144.115 108.139 144.552C107.68 144.979 107.403 145.587 107.307 146.376ZM126.973 150.056C127.218 150.056 127.421 150.019 127.581 149.944V151C127.282 151.107 126.936 151.16 126.541 151.16C125.538 151.16 124.973 150.707 124.845 149.8C124.088 150.707 123.08 151.16 121.821 151.16C120.978 151.16 120.306 150.947 119.805 150.52C119.304 150.083 119.053 149.523 119.053 148.84C119.053 147.955 119.4 147.293 120.093 146.856C120.786 146.419 121.693 146.2 122.813 146.2C123.432 146.2 124.098 146.248 124.813 146.344V145.64C124.813 145.149 124.632 144.749 124.269 144.44C123.906 144.12 123.352 143.96 122.605 143.96C121.602 143.96 120.632 144.184 119.693 144.632L119.421 143.512C120.338 143.064 121.453 142.84 122.765 142.84C123.906 142.84 124.77 143.101 125.357 143.624C125.954 144.136 126.253 144.835 126.253 145.72V149.192C126.253 149.48 126.301 149.699 126.397 149.848C126.504 149.987 126.696 150.056 126.973 150.056ZM122.269 150.04C123.229 150.04 124.077 149.624 124.813 148.792V147.416C124.248 147.32 123.613 147.272 122.909 147.272C121.32 147.272 120.525 147.736 120.525 148.664C120.525 149.091 120.68 149.427 120.989 149.672C121.309 149.917 121.736 150.04 122.269 150.04ZM132.157 142.84C133.341 142.84 134.285 143.304 134.989 144.232V139.528L136.429 139.32V151H135.101L134.989 149.768C134.263 150.696 133.319 151.16 132.157 151.16C131.015 151.16 130.098 150.781 129.405 150.024C128.711 149.267 128.365 148.259 128.365 147C128.365 145.741 128.711 144.733 129.405 143.976C130.098 143.219 131.015 142.84 132.157 142.84ZM132.525 150.04C133.495 150.04 134.311 149.635 134.973 148.824V145.16C134.301 144.36 133.485 143.96 132.525 143.96C131.671 143.96 131.01 144.243 130.541 144.808C130.071 145.363 129.837 146.093 129.837 147C129.837 147.907 130.071 148.643 130.541 149.208C131.01 149.763 131.671 150.04 132.525 150.04ZM143.036 142.84C143.964 142.84 144.679 143.096 145.18 143.608C145.681 144.12 145.932 144.84 145.932 145.768V151H144.492V145.8C144.492 145.213 144.321 144.76 143.98 144.44C143.639 144.12 143.153 143.96 142.524 143.96C141.66 143.96 140.908 144.344 140.268 145.112V151H138.828V139.528L140.268 139.32V144.216C140.94 143.299 141.863 142.84 143.036 142.84ZM155.658 146.76C155.658 147.08 155.652 147.304 155.642 147.432H149.322C149.407 148.264 149.7 148.915 150.202 149.384C150.714 149.853 151.412 150.088 152.298 150.088C153.258 150.088 154.17 149.869 155.034 149.432L155.306 150.456C154.399 150.925 153.364 151.16 152.202 151.16C150.783 151.16 149.695 150.792 148.938 150.056C148.191 149.309 147.818 148.291 147.818 147C147.818 145.731 148.191 144.723 148.938 143.976C149.684 143.219 150.687 142.84 151.946 142.84C152.639 142.84 153.231 142.947 153.722 143.16C154.223 143.373 154.607 143.672 154.874 144.056C155.151 144.44 155.348 144.856 155.466 145.304C155.594 145.741 155.658 146.227 155.658 146.76ZM149.338 146.376H154.218C154.207 145.619 154.031 145.016 153.69 144.568C153.359 144.12 152.762 143.896 151.898 143.896C151.204 143.896 150.628 144.115 150.17 144.552C149.711 144.979 149.434 145.587 149.338 146.376ZM162.312 144.28C161.608 144.28 160.968 144.429 160.392 144.728C159.827 145.016 159.39 145.389 159.08 145.848V151H157.64V143H158.968L159.064 144.824C159.363 144.227 159.79 143.747 160.344 143.384C160.899 143.021 161.507 142.84 162.168 142.84L162.312 144.28ZM171.111 146.76C171.111 147.08 171.106 147.304 171.095 147.432H164.775C164.86 148.264 165.154 148.915 165.655 149.384C166.167 149.853 166.866 150.088 167.751 150.088C168.711 150.088 169.623 149.869 170.487 149.432L170.759 150.456C169.852 150.925 168.818 151.16 167.655 151.16C166.236 151.16 165.148 150.792 164.391 150.056C163.644 149.309 163.271 148.291 163.271 147C163.271 145.731 163.644 144.723 164.391 143.976C165.138 143.219 166.14 142.84 167.399 142.84C168.092 142.84 168.684 142.947 169.175 143.16C169.676 143.373 170.06 143.672 170.327 144.056C170.604 144.44 170.802 144.856 170.919 145.304C171.047 145.741 171.111 146.227 171.111 146.76ZM164.791 146.376H169.671C169.66 145.619 169.484 145.016 169.143 144.568C168.812 144.12 168.215 143.896 167.351 143.896C166.658 143.896 166.082 144.115 165.623 144.552C165.164 144.979 164.887 145.587 164.791 146.376ZM177.302 142.84C178.23 142.84 178.944 143.096 179.446 143.608C179.947 144.12 180.198 144.84 180.198 145.768V151H178.758V145.8C178.758 145.213 178.587 144.76 178.246 144.44C177.904 144.12 177.419 143.96 176.79 143.96C175.926 143.96 175.174 144.344 174.534 145.112V151H173.094V143H174.422L174.534 144.216C175.206 143.299 176.128 142.84 177.302 142.84ZM184.517 140.12V143H187.349V144.12H184.517V148.776C184.517 149.619 185.013 150.04 186.005 150.04C186.431 150.04 186.863 149.955 187.301 149.784L187.509 150.84C186.933 151.053 186.303 151.16 185.621 151.16C184.746 151.16 184.101 150.952 183.685 150.536C183.279 150.109 183.077 149.533 183.077 148.808V144.12H181.765V143H183.077V140.392L184.517 140.12ZM194.595 140.12V143H197.427V144.12H194.595V148.776C194.595 149.619 195.091 150.04 196.083 150.04C196.509 150.04 196.941 149.955 197.379 149.784L197.587 150.84C197.011 151.053 196.381 151.16 195.699 151.16C194.824 151.16 194.179 150.952 193.763 150.536C193.357 150.109 193.155 149.533 193.155 148.808V144.12H191.843V143H193.155V140.392L194.595 140.12ZM202.606 142.84C203.918 142.84 204.958 143.24 205.726 144.04C206.505 144.829 206.894 145.816 206.894 147C206.894 148.184 206.505 149.176 205.726 149.976C204.958 150.765 203.918 151.16 202.606 151.16C201.273 151.16 200.222 150.765 199.454 149.976C198.686 149.176 198.302 148.184 198.302 147C198.302 145.816 198.686 144.829 199.454 144.04C200.222 143.24 201.273 142.84 202.606 142.84ZM202.59 150.04C203.486 150.04 204.18 149.747 204.67 149.16C205.172 148.563 205.422 147.843 205.422 147C205.422 146.168 205.172 145.453 204.67 144.856C204.18 144.259 203.486 143.96 202.59 143.96C201.694 143.96 201.001 144.259 200.51 144.856C200.02 145.443 199.774 146.157 199.774 147C199.774 147.853 200.014 148.573 200.494 149.16C200.985 149.747 201.684 150.04 202.59 150.04ZM214.751 140.12V143H217.583V144.12H214.751V148.776C214.751 149.619 215.247 150.04 216.239 150.04C216.666 150.04 217.098 149.955 217.535 149.784L217.743 150.84C217.167 151.053 216.538 151.16 215.855 151.16C214.98 151.16 214.335 150.952 213.919 150.536C213.514 150.109 213.311 149.533 213.311 148.808V144.12H211.999V143H213.311V140.392L214.751 140.12ZM223.145 142.84C224.073 142.84 224.788 143.096 225.289 143.608C225.791 144.12 226.041 144.84 226.041 145.768V151H224.601V145.8C224.601 145.213 224.431 144.76 224.089 144.44C223.748 144.12 223.263 143.96 222.633 143.96C221.769 143.96 221.017 144.344 220.377 145.112V151H218.937V139.528L220.377 139.32V144.216C221.049 143.299 221.972 142.84 223.145 142.84ZM235.767 146.76C235.767 147.08 235.762 147.304 235.751 147.432H229.431C229.517 148.264 229.81 148.915 230.311 149.384C230.823 149.853 231.522 150.088 232.407 150.088C233.367 150.088 234.279 149.869 235.143 149.432L235.415 150.456C234.509 150.925 233.474 151.16 232.311 151.16C230.893 151.16 229.805 150.792 229.047 150.056C228.301 149.309 227.927 148.291 227.927 147C227.927 145.731 228.301 144.723 229.047 143.976C229.794 143.219 230.797 142.84 232.055 142.84C232.749 142.84 233.341 142.947 233.831 143.16C234.333 143.373 234.717 143.672 234.983 144.056C235.261 144.44 235.458 144.856 235.575 145.304C235.703 145.741 235.767 146.227 235.767 146.76ZM229.447 146.376H234.327C234.317 145.619 234.141 145.016 233.799 144.568C233.469 144.12 232.871 143.896 232.007 143.896C231.314 143.896 230.738 144.115 230.279 144.552C229.821 144.979 229.543 145.587 229.447 146.376ZM243.29 151H241.802V140.216L243.29 140.008V151ZM246.947 145.08C246.947 145.432 247.118 145.709 247.459 145.912C247.801 146.104 248.211 146.253 248.691 146.36C249.182 146.456 249.667 146.573 250.147 146.712C250.627 146.84 251.038 147.069 251.379 147.4C251.721 147.72 251.891 148.152 251.891 148.696C251.891 149.507 251.603 150.12 251.027 150.536C250.451 150.952 249.635 151.16 248.579 151.16C247.289 151.16 246.211 150.931 245.347 150.472L245.635 149.384C246.542 149.843 247.513 150.072 248.547 150.072C249.795 150.072 250.419 149.629 250.419 148.744C250.419 148.392 250.249 148.115 249.907 147.912C249.577 147.709 249.166 147.56 248.675 147.464C248.195 147.357 247.71 147.24 247.219 147.112C246.739 146.973 246.329 146.739 245.987 146.408C245.657 146.067 245.491 145.624 245.491 145.08C245.491 144.333 245.774 143.773 246.339 143.4C246.905 143.027 247.667 142.84 248.627 142.84C249.918 142.84 250.995 143.064 251.859 143.512L251.587 144.6C250.702 144.152 249.726 143.928 248.659 143.928C247.518 143.928 246.947 144.312 246.947 145.08ZM253.781 151V139.528L255.221 139.32V151H253.781ZM265.145 150.056C265.39 150.056 265.593 150.019 265.753 149.944V151C265.454 151.107 265.107 151.16 264.713 151.16C263.71 151.16 263.145 150.707 263.017 149.8C262.259 150.707 261.251 151.16 259.993 151.16C259.15 151.16 258.478 150.947 257.977 150.52C257.475 150.083 257.225 149.523 257.225 148.84C257.225 147.955 257.571 147.293 258.265 146.856C258.958 146.419 259.865 146.2 260.985 146.2C261.603 146.2 262.27 146.248 262.985 146.344V145.64C262.985 145.149 262.803 144.749 262.441 144.44C262.078 144.12 261.523 143.96 260.777 143.96C259.774 143.96 258.803 144.184 257.865 144.632L257.593 143.512C258.51 143.064 259.625 142.84 260.937 142.84C262.078 142.84 262.942 143.101 263.529 143.624C264.126 144.136 264.425 144.835 264.425 145.72V149.192C264.425 149.48 264.473 149.699 264.569 149.848C264.675 149.987 264.867 150.056 265.145 150.056ZM260.441 150.04C261.401 150.04 262.249 149.624 262.985 148.792V147.416C262.419 147.32 261.785 147.272 261.081 147.272C259.491 147.272 258.697 147.736 258.697 148.664C258.697 149.091 258.851 149.427 259.161 149.672C259.481 149.917 259.907 150.04 260.441 150.04ZM276.713 142.84C277.641 142.84 278.355 143.096 278.857 143.608C279.358 144.12 279.609 144.84 279.609 145.768V151H278.169V145.8C278.169 145.213 277.998 144.76 277.657 144.44C277.315 144.12 276.83 143.96 276.201 143.96C275.337 143.96 274.59 144.344 273.961 145.112C273.993 145.315 274.009 145.533 274.009 145.768V151H272.569V145.8C272.569 145.213 272.398 144.76 272.057 144.44C271.715 144.12 271.23 143.96 270.601 143.96C269.769 143.96 269.038 144.344 268.409 145.112V151H266.969V143H268.297L268.409 144.216C269.081 143.299 269.982 142.84 271.113 142.84C272.499 142.84 273.39 143.373 273.785 144.44C274.489 143.373 275.465 142.84 276.713 142.84ZM282.658 141.544L281.554 140.472L282.658 139.416L283.73 140.472L282.658 141.544ZM283.362 151H281.922V143H283.362V151ZM289.733 150.04C290.533 150.04 291.371 149.821 292.245 149.384L292.517 150.456C291.6 150.925 290.635 151.16 289.621 151.16C288.309 151.16 287.264 150.787 286.485 150.04C285.717 149.283 285.333 148.269 285.333 147C285.333 145.731 285.717 144.723 286.485 143.976C287.264 143.219 288.309 142.84 289.621 142.84C290.635 142.84 291.6 143.075 292.517 143.544L292.245 144.616C291.371 144.179 290.533 143.96 289.733 143.96C288.859 143.96 288.149 144.232 287.605 144.776C287.072 145.32 286.805 146.061 286.805 147C286.805 147.939 287.072 148.68 287.605 149.224C288.149 149.768 288.859 150.04 289.733 150.04ZM297.724 148.808C298.822 149.533 300.06 149.896 301.436 149.896C302.182 149.896 302.812 149.757 303.324 149.48C303.836 149.203 304.092 148.749 304.092 148.12C304.092 147.757 303.974 147.443 303.74 147.176C303.516 146.909 303.222 146.696 302.86 146.536C302.497 146.376 302.092 146.227 301.644 146.088C301.206 145.949 300.764 145.795 300.316 145.624C299.878 145.453 299.478 145.261 299.116 145.048C298.753 144.824 298.454 144.525 298.22 144.152C297.996 143.768 297.884 143.32 297.884 142.808C297.884 141.848 298.236 141.133 298.94 140.664C299.644 140.195 300.524 139.96 301.58 139.96C302.902 139.96 304.161 140.285 305.356 140.936L305.132 142.264C304.033 141.571 302.902 141.224 301.74 141.224C300.182 141.224 299.404 141.731 299.404 142.744C299.404 143.075 299.516 143.363 299.74 143.608C299.974 143.853 300.273 144.051 300.636 144.2C300.998 144.339 301.398 144.477 301.836 144.616C302.284 144.744 302.726 144.893 303.164 145.064C303.612 145.235 304.017 145.437 304.38 145.672C304.742 145.896 305.036 146.211 305.26 146.616C305.494 147.011 305.612 147.475 305.612 148.008C305.612 149.075 305.222 149.869 304.444 150.392C303.676 150.904 302.726 151.16 301.596 151.16C300.124 151.16 298.833 150.835 297.724 150.184V148.808ZM311.739 142.84C312.667 142.84 313.382 143.096 313.883 143.608C314.384 144.12 314.635 144.84 314.635 145.768V151H313.195V145.8C313.195 145.213 313.024 144.76 312.683 144.44C312.342 144.12 311.856 143.96 311.227 143.96C310.363 143.96 309.611 144.344 308.971 145.112V151H307.531V139.528L308.971 139.32V144.216C309.643 143.299 310.566 142.84 311.739 142.84ZM324.473 150.056C324.718 150.056 324.921 150.019 325.081 149.944V151C324.782 151.107 324.436 151.16 324.041 151.16C323.038 151.16 322.473 150.707 322.345 149.8C321.588 150.707 320.58 151.16 319.321 151.16C318.478 151.16 317.806 150.947 317.305 150.52C316.804 150.083 316.553 149.523 316.553 148.84C316.553 147.955 316.9 147.293 317.593 146.856C318.286 146.419 319.193 146.2 320.313 146.2C320.932 146.2 321.598 146.248 322.313 146.344V145.64C322.313 145.149 322.132 144.749 321.769 144.44C321.406 144.12 320.852 143.96 320.105 143.96C319.102 143.96 318.132 144.184 317.193 144.632L316.921 143.512C317.838 143.064 318.953 142.84 320.265 142.84C321.406 142.84 322.27 143.101 322.857 143.624C323.454 144.136 323.753 144.835 323.753 145.72V149.192C323.753 149.48 323.801 149.699 323.897 149.848C324.004 149.987 324.196 150.056 324.473 150.056ZM319.769 150.04C320.729 150.04 321.577 149.624 322.313 148.792V147.416C321.748 147.32 321.113 147.272 320.409 147.272C318.82 147.272 318.025 147.736 318.025 148.664C318.025 149.091 318.18 149.427 318.489 149.672C318.809 149.917 319.236 150.04 319.769 150.04ZM330.969 144.28C330.265 144.28 329.625 144.429 329.049 144.728C328.483 145.016 328.046 145.389 327.737 145.848V151H326.297V143H327.625L327.721 144.824C328.019 144.227 328.446 143.747 329.001 143.384C329.555 143.021 330.163 142.84 330.825 142.84L330.969 144.28ZM333.251 141.544L332.147 140.472L333.251 139.416L334.323 140.472L333.251 141.544ZM333.955 151H332.515V143H333.955V151ZM343.879 150.056C344.125 150.056 344.327 150.019 344.487 149.944V151C344.189 151.107 343.842 151.16 343.447 151.16C342.445 151.16 341.879 150.707 341.751 149.8C340.994 150.707 339.986 151.16 338.727 151.16C337.885 151.16 337.213 150.947 336.711 150.52C336.21 150.083 335.959 149.523 335.959 148.84C335.959 147.955 336.306 147.293 336.999 146.856C337.693 146.419 338.599 146.2 339.719 146.2C340.338 146.2 341.005 146.248 341.719 146.344V145.64C341.719 145.149 341.538 144.749 341.175 144.44C340.813 144.12 340.258 143.96 339.511 143.96C338.509 143.96 337.538 144.184 336.599 144.632L336.327 143.512C337.245 143.064 338.359 142.84 339.671 142.84C340.813 142.84 341.677 143.101 342.263 143.624C342.861 144.136 343.159 144.835 343.159 145.72V149.192C343.159 149.48 343.207 149.699 343.303 149.848C343.41 149.987 343.602 150.056 343.879 150.056ZM339.175 150.04C340.135 150.04 340.983 149.624 341.719 148.792V147.416C341.154 147.32 340.519 147.272 339.815 147.272C338.226 147.272 337.431 147.736 337.431 148.664C337.431 149.091 337.586 149.427 337.895 149.672C338.215 149.917 338.642 150.04 339.175 150.04ZM349.547 151V139.528L350.987 139.32V151H349.547ZM360.91 150.056C361.156 150.056 361.358 150.019 361.518 149.944V151C361.22 151.107 360.873 151.16 360.478 151.16C359.476 151.16 358.91 150.707 358.782 149.8C358.025 150.707 357.017 151.16 355.758 151.16C354.916 151.16 354.244 150.947 353.742 150.52C353.241 150.083 352.99 149.523 352.99 148.84C352.99 147.955 353.337 147.293 354.03 146.856C354.724 146.419 355.63 146.2 356.75 146.2C357.369 146.2 358.036 146.248 358.75 146.344V145.64C358.75 145.149 358.569 144.749 358.206 144.44C357.844 144.12 357.289 143.96 356.542 143.96C355.54 143.96 354.569 144.184 353.63 144.632L353.358 143.512C354.276 143.064 355.39 142.84 356.702 142.84C357.844 142.84 358.708 143.101 359.294 143.624C359.892 144.136 360.19 144.835 360.19 145.72V149.192C360.19 149.48 360.238 149.699 360.334 149.848C360.441 149.987 360.633 150.056 360.91 150.056ZM356.206 150.04C357.166 150.04 358.014 149.624 358.75 148.792V147.416C358.185 147.32 357.55 147.272 356.846 147.272C355.257 147.272 354.462 147.736 354.462 148.664C354.462 149.091 354.617 149.427 354.926 149.672C355.246 149.917 355.673 150.04 356.206 150.04ZM367.52 143H368.848L371.056 149.336L373.136 143H374.576L371.792 151.144H370.384L368.176 144.984L366.064 151.144H364.672L361.872 143H363.328L365.408 149.336L367.52 143ZM377.244 145.08C377.244 145.432 377.415 145.709 377.756 145.912C378.097 146.104 378.508 146.253 378.988 146.36C379.479 146.456 379.964 146.573 380.444 146.712C380.924 146.84 381.335 147.069 381.676 147.4C382.017 147.72 382.188 148.152 382.188 148.696C382.188 149.507 381.9 150.12 381.324 150.536C380.748 150.952 379.932 151.16 378.876 151.16C377.585 151.16 376.508 150.931 375.644 150.472L375.932 149.384C376.839 149.843 377.809 150.072 378.844 150.072C380.092 150.072 380.716 149.629 380.716 148.744C380.716 148.392 380.545 148.115 380.204 147.912C379.873 147.709 379.463 147.56 378.972 147.464C378.492 147.357 378.007 147.24 377.516 147.112C377.036 146.973 376.625 146.739 376.284 146.408C375.953 146.067 375.788 145.624 375.788 145.08C375.788 144.333 376.071 143.773 376.636 143.4C377.201 143.027 377.964 142.84 378.924 142.84C380.215 142.84 381.292 143.064 382.156 143.512L381.884 144.6C380.999 144.152 380.023 143.928 378.956 143.928C377.815 143.928 377.244 144.312 377.244 145.08Z" fill="#486AB5"/>
</svg>
