<svg width="236" height="36" viewBox="0 0 236 36" fill="none" xmlns="http://www.w3.org/2000/svg">
<rect width="235" height="35" rx="17.5" transform="matrix(-1 0 0 1 235.5 0.5)" fill="url(#paint0_linear_33_165)" fill-opacity="0.9"/>
<rect x="-0.25" y="0.25" width="234.5" height="34.5" rx="17.25" transform="matrix(-1 0 0 1 235 0.5)" stroke="url(#paint1_linear_33_165)" stroke-opacity="0.9" stroke-width="0.5"/>
<path d="M48.076 23.5H47.004V12.716L48.076 12.524V23.5ZM54.7785 15.34C55.7172 15.34 56.4372 15.596 56.9385 16.108C57.4505 16.62 57.7065 17.3347 57.7065 18.252V23.5H56.6665V18.252C56.6665 17.5907 56.4745 17.0787 56.0905 16.716C55.7065 16.3533 55.1625 16.172 54.4585 16.172C53.4772 16.172 52.6185 16.6307 51.8825 17.548V23.5H50.8425V15.5H51.8185L51.8825 16.748C52.6078 15.8093 53.5732 15.34 54.7785 15.34ZM63.3271 22.204L66.2551 15.5H67.3911L63.7111 23.644H62.8791L59.1991 15.5H60.3351L63.3271 22.204ZM76.137 19.228C76.137 19.2813 76.1317 19.3773 76.121 19.516C76.121 19.644 76.121 19.74 76.121 19.804H69.513C69.5663 20.7533 69.8757 21.5 70.441 22.044C71.0063 22.5773 71.785 22.844 72.777 22.844C73.769 22.844 74.6917 22.62 75.545 22.172L75.753 22.94C74.8997 23.42 73.8917 23.66 72.729 23.66C71.3637 23.66 70.3077 23.292 69.561 22.556C68.825 21.8093 68.457 20.7907 68.457 19.5C68.457 18.2307 68.8197 17.2227 69.545 16.476C70.281 15.7187 71.257 15.34 72.473 15.34C73.0277 15.34 73.5183 15.4147 73.945 15.564C74.3823 15.7133 74.7343 15.9107 75.001 16.156C75.2783 16.3907 75.5023 16.6787 75.673 17.02C75.8437 17.3613 75.961 17.7133 76.025 18.076C76.0997 18.428 76.137 18.812 76.137 19.228ZM69.529 18.988H75.097C75.065 18.1133 74.8623 17.4253 74.489 16.924C74.1157 16.412 73.4383 16.156 72.457 16.156C71.6463 16.156 70.9743 16.4067 70.441 16.908C69.9183 17.4093 69.6143 18.1027 69.529 18.988ZM78.8895 17.516C78.8895 17.9107 79.0655 18.22 79.4175 18.444C79.7695 18.6573 80.1962 18.812 80.6975 18.908C81.1988 19.004 81.7002 19.116 82.2015 19.244C82.7135 19.372 83.1455 19.6013 83.4975 19.932C83.8495 20.2627 84.0255 20.7053 84.0255 21.26C84.0255 22.06 83.7428 22.6627 83.1775 23.068C82.6228 23.4627 81.8495 23.66 80.8575 23.66C79.6095 23.66 78.5535 23.4307 77.6895 22.972L77.9135 22.124C78.8095 22.5933 79.7802 22.828 80.8255 22.828C82.2655 22.828 82.9855 22.3107 82.9855 21.276C82.9855 20.8813 82.8095 20.572 82.4575 20.348C82.1055 20.124 81.6735 19.964 81.1615 19.868C80.6602 19.7613 80.1535 19.644 79.6415 19.516C79.1402 19.388 78.7135 19.164 78.3615 18.844C78.0095 18.5133 77.8335 18.0707 77.8335 17.516C77.8335 16.7907 78.1002 16.2467 78.6335 15.884C79.1775 15.5213 79.9082 15.34 80.8255 15.34C82.0735 15.34 83.1295 15.5693 83.9935 16.028L83.7855 16.876C82.8788 16.4067 81.8922 16.172 80.8255 16.172C79.5348 16.172 78.8895 16.62 78.8895 17.516ZM87.7096 12.62V15.5H90.7656V16.332H87.7096V21.436C87.7096 22.3533 88.259 22.812 89.3576 22.812C89.8163 22.812 90.275 22.7267 90.7336 22.556L90.9256 23.34C90.3923 23.5533 89.7896 23.66 89.1176 23.66C88.275 23.66 87.6563 23.4573 87.2616 23.052C86.867 22.6467 86.6696 22.1133 86.6696 21.452V16.332H85.3416V15.5H86.6696V12.828L87.7096 12.62ZM95.4198 15.5H96.7478V14.332C96.7478 13.5107 96.9824 12.8867 97.4518 12.46C97.9318 12.0333 98.5878 11.82 99.4198 11.82C100.124 11.82 100.758 11.9267 101.324 12.14L101.1 12.94C100.63 12.748 100.102 12.652 99.5158 12.652C98.3638 12.652 97.7878 13.2173 97.7878 14.348V15.5H100.956V16.332H97.7878V23.5H96.7478V16.332H95.4198V15.5ZM106.54 16.38C105.793 16.38 105.121 16.556 104.524 16.908C103.937 17.26 103.484 17.7133 103.164 18.268V23.5H102.124V15.5H103.1L103.148 17.324C103.468 16.7373 103.916 16.2627 104.492 15.9C105.068 15.5267 105.708 15.34 106.412 15.34L106.54 16.38ZM111.65 15.34C112.93 15.34 113.954 15.74 114.722 16.54C115.49 17.3293 115.874 18.316 115.874 19.5C115.874 20.684 115.49 21.676 114.722 22.476C113.954 23.2653 112.93 23.66 111.65 23.66C110.359 23.66 109.33 23.2653 108.562 22.476C107.804 21.676 107.426 20.684 107.426 19.5C107.426 18.316 107.804 17.3293 108.562 16.54C109.33 15.74 110.359 15.34 111.65 15.34ZM111.65 22.812C112.642 22.812 113.415 22.492 113.97 21.852C114.535 21.2013 114.818 20.4173 114.818 19.5C114.818 18.5827 114.535 17.7987 113.97 17.148C113.415 16.4973 112.642 16.172 111.65 16.172C110.647 16.172 109.863 16.4973 109.298 17.148C108.743 17.7987 108.466 18.5827 108.466 19.5C108.466 20.4173 108.743 21.2013 109.298 21.852C109.863 22.492 110.647 22.812 111.65 22.812ZM127.6 15.34C128.538 15.34 129.258 15.596 129.76 16.108C130.272 16.62 130.528 17.3347 130.528 18.252V23.5H129.488V18.252C129.488 17.5907 129.296 17.0787 128.912 16.716C128.528 16.3533 127.984 16.172 127.28 16.172C126.288 16.172 125.429 16.6253 124.704 17.532C124.746 17.7347 124.767 17.9747 124.767 18.252V23.5H123.728V18.252C123.728 17.5907 123.536 17.0787 123.152 16.716C122.768 16.3533 122.224 16.172 121.52 16.172C120.56 16.172 119.722 16.6307 119.008 17.548V23.5H117.968V15.5H118.944L119.008 16.748C119.722 15.8093 120.666 15.34 121.84 15.34C123.237 15.34 124.138 15.8787 124.544 16.956C125.301 15.8787 126.32 15.34 127.6 15.34ZM142.406 22.604L142.582 23.5H136.502V22.604H139.014V13.612L136.822 14.892L136.454 14.06L139.094 12.54H140.086V22.604H142.406ZM143.8 25.58L143.112 25.5C143.485 24.5293 143.725 23.4733 143.832 22.332H144.808C144.712 23.3453 144.376 24.428 143.8 25.58ZM151.225 23.66C149.742 23.66 148.59 23.1373 147.769 22.092C146.948 21.0467 146.537 19.7027 146.537 18.06C146.537 16.4173 146.948 15.0733 147.769 14.028C148.59 12.9827 149.742 12.46 151.225 12.46C152.718 12.46 153.876 12.9827 154.697 14.028C155.529 15.0733 155.945 16.4173 155.945 18.06C155.945 19.7027 155.529 21.0467 154.697 22.092C153.876 23.1373 152.718 23.66 151.225 23.66ZM151.241 13.372C150.089 13.372 149.193 13.7987 148.553 14.652C147.924 15.5053 147.609 16.6413 147.609 18.06C147.609 19.4893 147.924 20.6307 148.553 21.484C149.193 22.3267 150.089 22.748 151.241 22.748C152.393 22.748 153.284 22.3267 153.913 21.484C154.542 20.6307 154.857 19.4893 154.857 18.06C154.857 16.6413 154.537 15.5053 153.897 14.652C153.268 13.7987 152.382 13.372 151.241 13.372ZM162.459 23.66C160.977 23.66 159.825 23.1373 159.003 22.092C158.182 21.0467 157.771 19.7027 157.771 18.06C157.771 16.4173 158.182 15.0733 159.003 14.028C159.825 12.9827 160.977 12.46 162.459 12.46C163.953 12.46 165.11 12.9827 165.931 14.028C166.763 15.0733 167.179 16.4173 167.179 18.06C167.179 19.7027 166.763 21.0467 165.931 22.092C165.11 23.1373 163.953 23.66 162.459 23.66ZM162.475 13.372C161.323 13.372 160.427 13.7987 159.787 14.652C159.158 15.5053 158.843 16.6413 158.843 18.06C158.843 19.4893 159.158 20.6307 159.787 21.484C160.427 22.3267 161.323 22.748 162.475 22.748C163.627 22.748 164.518 22.3267 165.147 21.484C165.777 20.6307 166.091 19.4893 166.091 18.06C166.091 16.6413 165.771 15.5053 165.131 14.652C164.502 13.7987 163.617 13.372 162.475 13.372ZM173.694 23.66C172.211 23.66 171.059 23.1373 170.238 22.092C169.416 21.0467 169.006 19.7027 169.006 18.06C169.006 16.4173 169.416 15.0733 170.238 14.028C171.059 12.9827 172.211 12.46 173.694 12.46C175.187 12.46 176.344 12.9827 177.166 14.028C177.998 15.0733 178.414 16.4173 178.414 18.06C178.414 19.7027 177.998 21.0467 177.166 22.092C176.344 23.1373 175.187 23.66 173.694 23.66ZM173.71 13.372C172.558 13.372 171.662 13.7987 171.022 14.652C170.392 15.5053 170.078 16.6413 170.078 18.06C170.078 19.4893 170.392 20.6307 171.022 21.484C171.662 22.3267 172.558 22.748 173.71 22.748C174.862 22.748 175.752 22.3267 176.382 21.484C177.011 20.6307 177.326 19.4893 177.326 18.06C177.326 16.6413 177.006 15.5053 176.366 14.652C175.736 13.7987 174.851 13.372 173.71 13.372ZM184.096 21.612C185.227 22.3587 186.459 22.732 187.792 22.732C188.603 22.732 189.296 22.5667 189.872 22.236C190.448 21.8947 190.736 21.3667 190.736 20.652C190.736 20.236 190.619 19.8787 190.384 19.58C190.149 19.2813 189.84 19.0467 189.456 18.876C189.083 18.6947 188.667 18.5347 188.208 18.396C187.749 18.2467 187.291 18.092 186.832 17.932C186.373 17.7613 185.952 17.5747 185.568 17.372C185.195 17.1587 184.891 16.8653 184.656 16.492C184.421 16.1187 184.304 15.6813 184.304 15.18C184.304 14.252 184.645 13.5693 185.328 13.132C186.011 12.684 186.859 12.46 187.872 12.46C189.216 12.46 190.437 12.8067 191.536 13.5L191.344 14.46C190.267 13.7453 189.141 13.388 187.968 13.388C186.24 13.388 185.376 13.9693 185.376 15.132C185.376 15.5693 185.536 15.9373 185.856 16.236C186.176 16.5347 186.571 16.7587 187.04 16.908C187.52 17.0573 188.037 17.228 188.592 17.42C189.147 17.612 189.659 17.8147 190.128 18.028C190.608 18.2307 191.008 18.5507 191.328 18.988C191.648 19.4253 191.808 19.9587 191.808 20.588C191.808 21.6227 191.424 22.396 190.656 22.908C189.899 23.4093 188.976 23.66 187.888 23.66C186.448 23.66 185.184 23.3133 184.096 22.62V21.612ZM202.341 23.596L201.157 20.796H195.157L194.021 23.5H192.901L197.557 12.636L198.741 12.444L203.413 23.404L202.341 23.596ZM195.557 19.852H200.757L198.149 13.708L195.557 19.852ZM213.092 23.66L209.46 19.18H206.42V23.5H205.348V12.62H209.924C211.129 12.62 212.046 12.9027 212.676 13.468C213.316 14.0333 213.636 14.8387 213.636 15.884C213.636 16.8013 213.374 17.5427 212.852 18.108C212.329 18.6627 211.593 18.988 210.644 19.084L214.244 23.468L213.092 23.66ZM206.42 18.252H209.748C211.614 18.252 212.548 17.4627 212.548 15.884C212.548 14.3267 211.614 13.548 209.748 13.548H206.42V18.252Z" fill="white"/>
<path d="M23.9163 10.2082H33.0829C35.8329 10.2082 37.6663 11.5832 37.6663 14.7915V21.2082C37.6663 24.4165 35.8329 25.7915 33.0829 25.7915H23.9163C21.1663 25.7915 19.3329 24.4165 19.3329 21.2082V14.7915C19.3329 11.5832 21.1663 10.2082 23.9163 10.2082ZM33.7704 20.2915C33.7704 20.6673 34.0821 20.979 34.4579 20.979C34.8338 20.979 35.1454 20.6673 35.1454 20.2915V15.7082C35.1454 15.3323 34.8338 15.0207 34.4579 15.0207C34.0821 15.0207 33.7704 15.3323 33.7704 15.7082V20.2915ZM28.4996 20.7498C30.0213 20.7498 31.2496 19.5215 31.2496 17.9998C31.2496 16.4782 30.0213 15.2498 28.4996 15.2498C26.9779 15.2498 25.7496 16.4782 25.7496 17.9998C25.7496 19.5215 26.9779 20.7498 28.4996 20.7498ZM21.8538 20.2915C21.8538 20.6673 22.1654 20.979 22.5413 20.979C22.9171 20.979 23.2288 20.6673 23.2288 20.2915V15.7082C23.2288 15.3323 22.9171 15.0207 22.5413 15.0207C22.1654 15.0207 21.8538 15.3323 21.8538 15.7082V20.2915Z" fill="#5CAEFF"/>
<defs>
<linearGradient id="paint0_linear_33_165" x1="44.7619" y1="3.09465e-06" x2="143.081" y2="121.349" gradientUnits="userSpaceOnUse">
<stop stop-color="white" stop-opacity="0.02"/>
<stop offset="1" stop-color="white" stop-opacity="0.1"/>
</linearGradient>
<linearGradient id="paint1_linear_33_165" x1="44.7619" y1="3.09465e-06" x2="143.081" y2="121.349" gradientUnits="userSpaceOnUse">
<stop stop-color="white" stop-opacity="0.5"/>
<stop offset="1" stop-color="white" stop-opacity="0.1"/>
</linearGradient>
</defs>
</svg>
